0
SECTION
2
HEADER
9
$INSUNITS
70
4
9
$ACADVER
1
AC1014
9
$HANDSEED
5
FFFF
0
ENDSEC
0
SECTION
2
TABLES
0
TABLE
2
VPORT
5
8
100
AcDbSymbolTable
0
ENDTAB
0
TABLE
2
LTYPE
5
5
100
AcDbSymbolTable
0
LTYPE
5
14
100
AcDbSymbolTableRecord
100
AcDbLinetypeTableRecord
2
BYBLOCK
70
0
0
LTYPE
5
15
100
AcDbSymbolTableRecord
100
AcDbLinetypeTableRecord
2
BYLAYER
70
0
0
ENDTAB
0
TABLE
2
LAYER
5
2
100
AcDbSymbolTable
70
2
0
LAYER
5
50
100
AcDbSymbolTableRecord
100
AcDbLayerTableRecord
2
0
70
0
6
CONTINUOUS
0
ENDTAB
0
TABLE
2
STYLE
5
3
100
AcDbSymbolTable
70
1
0
STYLE
5
11
100
AcDbSymbolTableRecord
100
AcDbTextStyleTableRecord
2
STANDARD
70
0
0
ENDTAB
0
TABLE
2
VIEW
5
6
100
AcDbSymbolTable
70
0
0
ENDTAB
0
TABLE
2
UCS
5
7
100
AcDbSymbolTable
70
0
0
ENDTAB
0
TABLE
2
APPID
5
9
100
AcDbSymbolTable
70
2
0
APPID
5
12
100
AcDbSymbolTableRecord
100
AcDbRegAppTableRecord
2
ACAD
70
0
0
ENDTAB
0
TABLE
2
DIMSTYLE
5
A
100
AcDbSymbolTable
70
1
0
ENDTAB
0
TABLE
2
BLOCK_RECORD
5
1
100
AcDbSymbolTable
70
1
0
BLOCK_RECORD
5
1F
100
AcDbSymbolTableRecord
100
AcDbBlockTableRecord
2
*MODEL_SPACE
0
BLOCK_RECORD
5
1B
100
AcDbSymbolTableRecord
100
AcDbBlockTableRecord
2
*PAPER_SPACE
0
ENDTAB
0
ENDSEC
0
SECTION
2
BLOCKS
0
BLOCK
5
20
100
AcDbEntity
100
AcDbBlockBegin
2
*MODEL_SPACE
0
ENDBLK
5
21
100
AcDbEntity
100
AcDbBlockEnd
0
BLOCK
5
1C
100
AcDbEntity
100
AcDbBlockBegin
2
*PAPER_SPACE
0
ENDBLK
5
1D
100
AcDbEntity
100
AcDbBlockEnd
0
ENDSEC
0
SECTION
2
ENTITIES
0
ARC
5
100
100
AcDbEntity
8
0
100
AcDbCircle
10
39264.028109398729
20
-6396.7098106068133
30
10
40
520.86133030029703
210
0
220
-0
230
1
100
AcDbArc
50
15.000823197071803
51
104.99887377322084
0
LINE
5
101
100
AcDbEntity
8
0
100
AcDbLine
10
39129.229166666672
20
-5893.5937500000036
30
10
11
35166.56458333334
21
-6955.3666666666677
31
10
0
LINE
5
102
100
AcDbEntity
8
0
100
AcDbLine
10
35166.56458333334
20
-6955.3666666666677
30
10
11
25796.875000000004
21
-7937.5000000000009
31
10
0
LINE
5
103
100
AcDbEntity
8
0
100
AcDbLine
10
25796.875000000004
20
-7937.5000000000009
30
10
11
17991.666666666672
21
-7937.5000000000009
31
10
0
LINE
5
104
100
AcDbEntity
8
0
100
AcDbLine
10
17991.666666666672
20
-7937.5000000000009
30
10
11
8563.2395833333339
21
-6947.9583333333348
31
10
0
LINE
5
105
100
AcDbEntity
8
0
100
AcDbLine
10
8563.2395833333339
20
-6947.9583333333348
30
10
11
4600.5749999999989
21
-5886.1854166666681
31
10
0
ARC
5
106
100
AcDbEntity
8
0
100
AcDbCircle
10
4465.8155208677636
20
-6389.1240458626617
30
10
40
520.67973069204049
210
0
220
-0
230
1
100
AcDbArc
50
75.000267895716405
51
165.02310025285854
0
LINE
5
107
100
AcDbEntity
8
0
100
AcDbLine
10
3962.8232299804686
20
-6254.564998372397
30
10
11
1512.0937499999991
21
-15400.602083333335
31
10
0
ARC
5
108
100
AcDbEntity
8
0
100
AcDbCircle
10
2015.3591926807776
20
-15535.444843403613
30
10
40
521.01696300605261
210
0
220
0
230
1
100
AcDbArc
50
165.00072325239199
51
243.68017701244636
0
LINE
5
109
100
AcDbEntity
8
0
100
AcDbLine
10
1784.3499999999995
20
-16002.449584960939
30
10
11
3735.9959899902333
21
-16967.437711588544
31
10
0
ARC
5
110
100
AcDbEntity
8
0
100
AcDbCircle
10
3968.6554085357866
20
-16493.29226737345
30
10
40
528.15178434602092
210
0
220
0
230
1
100
AcDbArc
50
243.86317845782054
51
255.00008407832641
0
LINE
5
111
100
AcDbEntity
8
0
100
AcDbLine
10
3831.9604166666659
20
-17003.447916666668
30
10
11
14641.512500000004
21
-19899.841666666667
31
10
0
LINE
5
112
100
AcDbEntity
8
0
100
AcDbLine
10
14641.512500000004
20
-19899.841666666667
30
10
11
29088.291666666668
21
-19907.250000000004
31
10
0
LINE
5
113
100
AcDbEntity
8
0
100
AcDbLine
10
29088.291666666668
20
-19907.250000000004
30
10
11
39898.108333333337
21
-17010.856250000001
31
10
0
ARC
5
114
100
AcDbEntity
8
0
100
AcDbCircle
10
39763.826113398427
20
-16509.692974430371
30
10
40
518.84134701306164
210
-0
220
0
230
1
100
AcDbArc
50
284.99956532701037
51
296.35449787866003
0
LINE
5
115
100
AcDbEntity
8
0
100
AcDbLine
10
39994.152083333334
20
-16974.608333333337
30
10
11
41945.718750000007
21
-16009.672916666668
31
10
0
ARC
5
116
100
AcDbEntity
8
0
100
AcDbCircle
10
41714.890951842477
20
-15542.827334212619
30
10
40
520.7938846214596
210
-0
220
0
230
1
100
AcDbArc
50
-63.690300897148703
51
14.984781397387662
0
LINE
5
117
100
AcDbEntity
8
0
100
AcDbLine
10
42217.975000000006
20
-15408.169580078124
30
10
11
41861.393650015278
21
-14077.307177297993
31
10
0
LINE
5
118
100
AcDbEntity
8
0
100
AcDbLine
10
41861.393650015278
20
-14077.307177297993
30
10
11
39767.139583333337
21
-6261.8937500000002
31
10
0
ENDSEC
0
SECTION
2
OBJECTS
0
DICTIONARY
5
C
100
AcDbDictionary
3
ACAD_GROUP
350
D
3
ACAD_MLINESTYLE
350
17
0
DICTIONARY
5
D
100
AcDbDictionary
0
DICTIONARY
5
1A
330
C
100
AcDbDictionary
0
DICTIONARY
5
17
100
AcDbDictionary
0
ENDSEC
0
EOF
