<svg xmlns="http://www.w3.org/2000/svg" viewBox="0 0 1109.25 382.39"><defs><style>.cls-1,.cls-2,.cls-3,.cls-4,.cls-5{fill:#fff;stroke:#fff;}.cls-1{stroke-miterlimit:10;}.cls-2,.cls-3,.cls-4,.cls-5{fill-opacity:0;stroke-linecap:round;stroke-linejoin:round;}.cls-2{stroke-width:1.44px;}.cls-3{stroke-width:0.86px;}.cls-4{stroke-width:0.57px;}.cls-5{stroke-width:0.14px;}</style></defs><g id="Layer_2" data-name="Layer 2"><g id="Layer_1-2" data-name="Layer 1"><circle class="cls-1" cx="80.22" cy="13.03" r="4.96"/><circle class="cls-1" cx="322.14" cy="356.83" r="4.96"/><circle class="cls-1" cx="429.78" cy="240.19" r="4.96"/><circle class="cls-1" cx="9.3" cy="265.39" r="4.96"/><circle class="cls-1" cx="447.06" cy="371.59" r="4.96"/><circle class="cls-1" cx="425.46" cy="78.55" r="4.96"/><circle class="cls-1" cx="686.46" cy="78.91" r="4.96"/><circle class="cls-1" cx="677.82" cy="239.47" r="4.96"/><circle class="cls-1" cx="1099.02" cy="263.95" r="4.96"/><circle class="cls-1" cx="662.34" cy="371.23" r="4.96"/><circle class="cls-1" cx="787.62" cy="356.83" r="4.96"/><circle class="cls-1" cx="1030.26" cy="10.15" r="4.96"/><circle class="cls-1" cx="554.34" cy="208.87" r="2.48"/><path class="cls-2" d="M115.47,55.49l2.26.6"/><path class="cls-2" d="M76.34,45l2.26.61"/><path class="cls-2" d="M119.38,40.88l2.26.6"/><path class="cls-2" d="M80.26,30.39l2.26.62"/><path class="cls-2" d="M82.52,31,78.6,45.61"/><path class="cls-2" d="M119.38,40.88l-3.91,14.61"/><path class="cls-2" d="M76.34,45l-3,11.13"/><path class="cls-2" d="M117.73,56.09l-3,11.13"/><path class="cls-2" d="M124.62,30.36l-3,11.12"/><path class="cls-2" d="M83.24,19.27l-3,11.12"/><path class="cls-2" d="M73.4,56.14l41.31,11.07"/><path class="cls-2" d="M83.28,19.28l41.3,11.07"/><path class="cls-2" d="M134.75,37.29l41.31,11.08"/><path class="cls-2" d="M124.87,74.16l41.31,11.06"/><path class="cls-2" d="M134.71,37.29l-3,11.13"/><path class="cls-2" d="M176.09,48.37l-3,11.13"/><path class="cls-2" d="M169.19,74.11l-3,11.13"/><path class="cls-2" d="M127.82,63l-3,11.13"/><path class="cls-2" d="M170.85,58.9l-3.91,14.6"/><path class="cls-2" d="M134,49l-3.91,14.6"/><path class="cls-2" d="M131.73,48.42,134,49"/><path class="cls-2" d="M170.85,58.9l2.26.6"/><path class="cls-2" d="M127.82,63l2.26.6"/><path class="cls-2" d="M166.94,73.5l2.25.61"/><path class="cls-2" d="M219.93,83.45l2.26.61"/><path class="cls-2" d="M180.82,73l2.26.6"/><path class="cls-2" d="M223.85,68.84l2.26.61"/><path class="cls-2" d="M184.73,58.36,187,59"/><path class="cls-2" d="M187,59l-3.91,14.61"/><path class="cls-2" d="M223.85,68.84l-3.92,14.61"/><path class="cls-2" d="M180.82,73l-3,11.12"/><path class="cls-2" d="M222.19,84.06l-3,11.12"/><path class="cls-2" d="M229.09,58.32l-3,11.13"/><path class="cls-2" d="M187.71,47.24l-3,11.12"/><path class="cls-2" d="M177.87,84.1l41.31,11.07"/><path class="cls-2" d="M187.74,47.24l41.32,11.07"/><path class="cls-2" d="M243.62,48l41.31,11.06"/><path class="cls-2" d="M233.74,84.86l41.32,11.08"/><path class="cls-2" d="M243.58,48l-3,11.12"/><path class="cls-2" d="M285,59.09l-3,11.12"/><path class="cls-2" d="M278.07,84.82l-3,11.12"/><path class="cls-2" d="M236.69,73.73l-3,11.13"/><path class="cls-2" d="M279.72,69.61l-3.91,14.6"/><path class="cls-2" d="M242.86,59.73,239,74.34"/><path class="cls-2" d="M240.6,59.12l2.26.61"/><path class="cls-2" d="M279.72,69.61l2.26.6"/><path class="cls-2" d="M236.69,73.73l2.26.61"/><path class="cls-2" d="M275.81,84.21l2.26.61"/><path class="cls-2" d="M329,94.43l2.26.61"/><path class="cls-2" d="M289.9,84l2.26.6"/><path class="cls-2" d="M332.94,79.83l2.26.6"/><path class="cls-2" d="M293.82,69.35l2.26.6"/><path class="cls-2" d="M296.08,70l-3.92,14.6"/><path class="cls-2" d="M332.94,79.83,329,94.43"/><path class="cls-2" d="M289.9,84l-3,11.13"/><path class="cls-2" d="M331.28,95l-3,11.13"/><path class="cls-2" d="M338.18,69.3l-3,11.13"/><path class="cls-2" d="M296.8,58.22l-3,11.13"/><path class="cls-2" d="M287,95.09l41.3,11.06"/><path class="cls-2" d="M296.84,58.23l41.3,11.07"/><path class="cls-2" d="M347.93,76,389.23,87"/><path class="cls-2" d="M338.05,112.81l41.31,11.07"/><path class="cls-2" d="M347.89,75.94l-3,11.13"/><path class="cls-2" d="M389.27,87l-3,11.13"/><path class="cls-2" d="M382.38,112.76l-3,11.13"/><path class="cls-2" d="M341,101.67l-3,11.14"/><path class="cls-2" d="M384,97.56l-3.91,14.6"/><path class="cls-2" d="M347.17,87.68l-3.92,14.6"/><path class="cls-2" d="M344.91,87.07l2.26.61"/><path class="cls-2" d="M384,97.56l2.26.6"/><path class="cls-2" d="M341,101.67l2.26.61"/><path class="cls-2" d="M380.12,112.16l2.26.6"/><path class="cls-2" d="M430.4,132.71l2.26.6"/><path class="cls-2" d="M391.29,122.22l2.26.61"/><path class="cls-2" d="M434.32,118.1l2.26.61"/><path class="cls-2" d="M395.2,107.62l2.26.61"/><path class="cls-2" d="M397.46,108.23l-3.91,14.6"/><path class="cls-2" d="M434.32,118.1l-3.92,14.61"/><path class="cls-2" d="M391.29,122.22l-3,11.13"/><path class="cls-2" d="M432.66,133.31l-3,11.13"/><path class="cls-2" d="M439.56,107.58l-3,11.13"/><path class="cls-2" d="M398.18,96.49l-3,11.13"/><path class="cls-2" d="M388.33,133.36l41.32,11.07"/><path class="cls-2" d="M398.21,96.5l41.32,11.07"/><path class="cls-2" d="M452.67,109.7h42.76"/><path class="cls-2" d="M452.67,147.86h42.76"/><path class="cls-2" d="M452.63,109.7v11.52"/><path class="cls-2" d="M495.47,109.7v11.52"/><path class="cls-2" d="M495.47,136.34v11.52"/><path class="cls-2" d="M452.63,136.34v11.52"/><path class="cls-2" d="M493.13,121.22v15.12"/><path class="cls-2" d="M455,121.22v15.12"/><path class="cls-2" d="M452.63,121.22H455"/><path class="cls-2" d="M493.13,121.22h2.34"/><path class="cls-2" d="M452.63,136.34H455"/><path class="cls-2" d="M493.13,136.34h2.34"/><path class="cls-2" d="M546.94,136.34h2.34"/><path class="cls-2" d="M506.44,136.34h2.34"/><path class="cls-2" d="M546.94,121.22h2.34"/><path class="cls-2" d="M506.44,121.22h2.34"/><path class="cls-2" d="M508.78,121.22v15.12"/><path class="cls-2" d="M546.94,121.22v15.12"/><path class="cls-2" d="M506.44,136.34v11.52"/><path class="cls-2" d="M549.28,136.34v11.52"/><path class="cls-2" d="M549.28,109.7v11.52"/><path class="cls-2" d="M506.44,109.7v11.52"/><path class="cls-2" d="M506.48,147.86h42.77"/><path class="cls-2" d="M506.48,109.7h42.77"/><path class="cls-2" d="M560.35,109.7h42.77"/><path class="cls-2" d="M560.35,147.86h42.77"/><path class="cls-2" d="M560.31,109.7v11.52"/><path class="cls-2" d="M603.15,109.7v11.52"/><path class="cls-2" d="M603.15,136.34v11.52"/><path class="cls-2" d="M560.31,136.34v11.52"/><path class="cls-2" d="M600.81,121.22v15.12"/><path class="cls-2" d="M562.65,121.22v15.12"/><path class="cls-2" d="M560.31,121.22h2.34"/><path class="cls-2" d="M600.81,121.22h2.34"/><path class="cls-2" d="M560.31,136.34h2.34"/><path class="cls-2" d="M600.81,136.34h2.34"/><path class="cls-2" d="M654.64,136.34H657"/><path class="cls-2" d="M614.14,136.34h2.34"/><path class="cls-2" d="M654.64,121.22H657"/><path class="cls-2" d="M614.14,121.22h2.34"/><path class="cls-2" d="M616.48,121.22v15.12"/><path class="cls-2" d="M654.64,121.22v15.12"/><path class="cls-2" d="M614.14,136.34v11.52"/><path class="cls-2" d="M657,136.34v11.52"/><path class="cls-2" d="M657,109.7v11.52"/><path class="cls-2" d="M614.14,109.7v11.52"/><path class="cls-2" d="M614.18,147.86h42.76"/><path class="cls-2" d="M614.18,109.7h42.76"/><path class="cls-2" d="M669.73,107.69,711,96.62"/><path class="cls-2" d="M679.61,144.55l41.31-11.07"/><path class="cls-2" d="M669.7,107.7l3,11.13"/><path class="cls-2" d="M711.08,96.61l3,11.13"/><path class="cls-2" d="M718,122.35l3,11.13"/><path class="cls-2" d="M676.59,133.43l3,11.14"/><path class="cls-2" d="M711.8,108.35l3.92,14.6"/><path class="cls-2" d="M674.94,118.22l3.91,14.61"/><path class="cls-2" d="M672.68,118.83l2.26-.61"/><path class="cls-2" d="M711.8,108.35l2.26-.61"/><path class="cls-2" d="M676.59,133.43l2.26-.6"/><path class="cls-2" d="M715.72,123l2.26-.6"/><path class="cls-2" d="M765.94,102.47l2.27-.61"/><path class="cls-2" d="M726.83,113l2.26-.61"/><path class="cls-2" d="M762,87.86l2.26-.61"/><path class="cls-2" d="M722.91,98.34l2.26-.6"/><path class="cls-2" d="M725.17,97.74l3.92,14.6"/><path class="cls-2" d="M762,87.86l3.91,14.61"/><path class="cls-2" d="M726.83,113l3,11.12"/><path class="cls-2" d="M768.21,101.86l3,11.13"/><path class="cls-2" d="M761.31,76.13l3,11.12"/><path class="cls-2" d="M719.93,87.22l3,11.12"/><path class="cls-2" d="M729.84,124.07,771.15,113"/><path class="cls-2" d="M720,87.2l41.3-11.06"/><path class="cls-2" d="M771.09,69.48,812.4,58.41"/><path class="cls-2" d="M781,106.34l41.32-11.07"/><path class="cls-2" d="M771.06,69.49l3,11.12"/><path class="cls-2" d="M812.44,58.4l3,11.13"/><path class="cls-2" d="M819.33,84.14l3,11.12"/><path class="cls-2" d="M778,95.22l3,11.13"/><path class="cls-2" d="M813.16,70.14l3.91,14.6"/><path class="cls-2" d="M776.3,80l3.91,14.61"/><path class="cls-2" d="M774,80.61l2.26-.6"/><path class="cls-2" d="M813.16,70.14l2.26-.61"/><path class="cls-2" d="M778,95.22l2.26-.6"/><path class="cls-2" d="M817.07,84.74l2.26-.6"/><path class="cls-2" d="M870.32,74.59l2.26-.61"/><path class="cls-2" d="M831.2,85.06l2.26-.6"/><path class="cls-2" d="M866.41,60l2.26-.61"/><path class="cls-2" d="M827.29,70.46l2.26-.6"/><path class="cls-2" d="M829.55,69.86l3.91,14.6"/><path class="cls-2" d="M866.41,60l3.91,14.61"/><path class="cls-2" d="M831.2,85.06l3,11.14"/><path class="cls-2" d="M872.58,74l3,11.13"/><path class="cls-2" d="M865.69,48.25l3,11.12"/><path class="cls-2" d="M824.3,59.34l3,11.12"/><path class="cls-2" d="M834.22,96.19l41.31-11.08"/><path class="cls-2" d="M824.34,59.32l41.31-11.06"/><path class="cls-2" d="M880.18,58.39l41.31-11.08"/><path class="cls-2" d="M890.06,95.25l41.3-11.07"/><path class="cls-2" d="M880.14,58.4l3,11.12"/><path class="cls-2" d="M921.52,47.31l3,11.12"/><path class="cls-2" d="M928.42,73l3,11.12"/><path class="cls-2" d="M887,84.13l3,11.12"/><path class="cls-2" d="M922.24,59l3.92,14.61"/><path class="cls-2" d="M885.39,68.91l3.91,14.61"/><path class="cls-2" d="M883.12,69.52l2.27-.61"/><path class="cls-2" d="M922.24,59l2.26-.61"/><path class="cls-2" d="M887,84.13l2.26-.61"/><path class="cls-2" d="M926.16,73.65l2.26-.61"/><path class="cls-2" d="M979.27,63.86l2.26-.6"/><path class="cls-2" d="M940.15,74.34l2.25-.6"/><path class="cls-2" d="M975.35,49.25l2.26-.6"/><path class="cls-2" d="M936.23,59.73l2.26-.6"/><path class="cls-2" d="M938.49,59.13l3.91,14.61"/><path class="cls-2" d="M975.35,49.25l3.92,14.61"/><path class="cls-2" d="M940.15,74.34l3,11.13"/><path class="cls-2" d="M981.53,63.26l3,11.12"/><path class="cls-2" d="M974.63,37.52l3,11.13"/><path class="cls-2" d="M933.25,48.61l3,11.12"/><path class="cls-2" d="M943.16,85.46l41.31-11.07"/><path class="cls-2" d="M933.29,48.6l41.3-11.07"/><path class="cls-2" d="M984.49,30.48l41.3-11.07"/><path class="cls-2" d="M994.36,67.34l41.31-11.07"/><path class="cls-2" d="M984.45,30.49l3,11.13"/><path class="cls-2" d="M1025.83,19.4l3,11.13"/><path class="cls-2" d="M1032.73,45.13l3,11.13"/><path class="cls-2" d="M991.34,56.22l3,11.13"/><path class="cls-2" d="M1026.55,31.14l3.92,14.6"/><path class="cls-2" d="M989.69,41l3.91,14.61"/><path class="cls-2" d="M987.43,41.62l2.26-.61"/><path class="cls-2" d="M1026.55,31.14l2.26-.61"/><path class="cls-2" d="M991.34,56.22l2.26-.6"/><path class="cls-2" d="M1030.47,45.74l2.26-.61"/><path class="cls-2" d="M101.67,107.16l2.26.61"/><path class="cls-2" d="M62.55,96.68l2.26.6"/><path class="cls-2" d="M105.58,92.55l2.26.61"/><path class="cls-2" d="M66.46,82.07l2.26.6"/><path class="cls-2" d="M68.72,82.67,64.81,97.28"/><path class="cls-2" d="M105.58,92.55l-3.91,14.61"/><path class="cls-2" d="M62.55,96.68l-3,11.12"/><path class="cls-2" d="M103.93,107.77l-3,11.12"/><path class="cls-2" d="M110.82,82l-3,11.13"/><path class="cls-2" d="M69.44,71l-3,11.12"/><path class="cls-2" d="M59.6,107.81l41.31,11.07"/><path class="cls-2" d="M69.47,71,110.79,82"/><path class="cls-2" d="M153.06,125.28l2.26.6"/><path class="cls-2" d="M113.93,114.79l2.27.62"/><path class="cls-2" d="M157,110.67l2.26.61"/><path class="cls-2" d="M117.85,100.19l2.26.61"/><path class="cls-2" d="M120.11,100.8l-3.91,14.61"/><path class="cls-2" d="M157,110.67l-3.91,14.61"/><path class="cls-2" d="M113.93,114.79l-3,11.13"/><path class="cls-2" d="M155.32,125.88l-3,11.13"/><path class="cls-2" d="M162.21,100.16l-3,11.12"/><path class="cls-2" d="M120.83,89.07l-3,11.12"/><path class="cls-2" d="M111,125.93,152.3,137"/><path class="cls-2" d="M120.87,89.07l41.3,11.07"/><path class="cls-2" d="M206.07,135.11l2.26.61"/><path class="cls-2" d="M167,124.64l2.26.6"/><path class="cls-2" d="M210,120.51l2.26.6"/><path class="cls-2" d="M170.86,110l2.26.6"/><path class="cls-2" d="M173.12,110.63l-3.91,14.61"/><path class="cls-2" d="M210,120.51l-3.91,14.6"/><path class="cls-2" d="M167,124.64l-3,11.12"/><path class="cls-2" d="M208.33,135.72l-3,11.13"/><path class="cls-2" d="M215.22,110l-3,11.12"/><path class="cls-2" d="M173.85,98.9l-3,11.13"/><path class="cls-2" d="M164,135.77l41.31,11.07"/><path class="cls-2" d="M173.87,98.91,215.19,110"/><path class="cls-2" d="M229.69,100.08,271,111.14"/><path class="cls-2" d="M219.82,136.93,261.12,148"/><path class="cls-2" d="M229.66,100.07l-3,11.12"/><path class="cls-2" d="M271,111.16l-3,11.12"/><path class="cls-2" d="M264.14,136.89l-3,11.12"/><path class="cls-2" d="M222.76,125.8l-3,11.13"/><path class="cls-2" d="M265.8,121.68l-3.92,14.6"/><path class="cls-2" d="M228.93,111.8,225,126.41"/><path class="cls-2" d="M226.67,111.19l2.26.61"/><path class="cls-2" d="M265.8,121.68l2.26.6"/><path class="cls-2" d="M222.76,125.8l2.26.61"/><path class="cls-2" d="M261.88,136.28l2.26.61"/><path class="cls-2" d="M314.9,146.64l2.26.6"/><path class="cls-2" d="M275.78,136.16l2.26.6"/><path class="cls-2" d="M318.82,132l2.26.6"/><path class="cls-2" d="M279.69,121.55l2.26.61"/><path class="cls-2" d="M282,122.16,278,136.76"/><path class="cls-2" d="M318.82,132l-3.92,14.6"/><path class="cls-2" d="M275.78,136.16l-3,11.13"/><path class="cls-2" d="M317.16,147.24l-3,11.13"/><path class="cls-2" d="M324.06,121.51l-3,11.13"/><path class="cls-2" d="M282.67,110.42l-3,11.13"/><path class="cls-2" d="M272.84,147.29l41.3,11.07"/><path class="cls-2" d="M282.71,110.43,324,121.5"/><path class="cls-2" d="M334,128.1l41.31,11.07"/><path class="cls-2" d="M324.07,165,365.39,176"/><path class="cls-2" d="M333.92,128.09l-3,11.13"/><path class="cls-2" d="M375.29,139.18l-3,11.12"/><path class="cls-2" d="M368.4,164.91l-3,11.13"/><path class="cls-2" d="M327,153.82,324,165"/><path class="cls-2" d="M370.05,149.7l-3.91,14.61"/><path class="cls-2" d="M333.2,139.83l-3.92,14.6"/><path class="cls-2" d="M330.94,139.22l2.26.61"/><path class="cls-2" d="M370.05,149.7l2.26.6"/><path class="cls-2" d="M327,153.82l2.26.61"/><path class="cls-2" d="M366.14,164.31l2.26.6"/><path class="cls-2" d="M416.3,185l2.25.61"/><path class="cls-2" d="M377.17,174.51l2.26.6"/><path class="cls-2" d="M420.21,170.38l2.26.62"/><path class="cls-2" d="M381.09,159.91l2.26.6"/><path class="cls-2" d="M383.35,160.51l-3.92,14.6"/><path class="cls-2" d="M420.21,170.38,416.3,185"/><path class="cls-2" d="M377.17,174.51l-3,11.13"/><path class="cls-2" d="M418.55,185.6l-3,11.12"/><path class="cls-2" d="M425.45,159.87l-3,11.13"/><path class="cls-2" d="M384.07,148.78l-3,11.13"/><path class="cls-2" d="M374.23,185.65l41.31,11.06"/><path class="cls-2" d="M384.11,148.78l41.3,11.08"/><path class="cls-2" d="M452.67,163.61h42.77"/><path class="cls-2" d="M452.67,201.77h42.77"/><path class="cls-2" d="M452.64,163.61v11.52"/><path class="cls-2" d="M495.48,163.61v11.52"/><path class="cls-2" d="M495.48,190.25v11.52"/><path class="cls-2" d="M452.64,190.25v11.52"/><path class="cls-2" d="M493.14,175.13v15.12"/><path class="cls-2" d="M455,175.13v15.12"/><path class="cls-2" d="M452.64,175.13H455"/><path class="cls-2" d="M493.14,175.13h2.34"/><path class="cls-2" d="M452.64,190.25H455"/><path class="cls-2" d="M493.14,190.25h2.34"/><path class="cls-2" d="M547,190.26h2.34"/><path class="cls-2" d="M506.46,190.26h2.34"/><path class="cls-2" d="M547,175.14h2.34"/><path class="cls-2" d="M506.46,175.14h2.34"/><path class="cls-2" d="M508.8,175.14v15.12"/><path class="cls-2" d="M547,175.14v15.12"/><path class="cls-2" d="M506.46,190.26v11.52"/><path class="cls-2" d="M549.3,190.26v11.52"/><path class="cls-2" d="M549.3,163.62v11.52"/><path class="cls-2" d="M506.46,163.62v11.52"/><path class="cls-2" d="M506.49,201.78h42.77"/><path class="cls-2" d="M506.49,163.62h42.77"/><path class="cls-2" d="M560.32,163.62h42.77"/><path class="cls-2" d="M560.32,201.78h42.77"/><path class="cls-2" d="M560.28,163.62v11.52"/><path class="cls-2" d="M603.12,163.62v11.52"/><path class="cls-2" d="M603.12,190.26v11.52"/><path class="cls-2" d="M560.28,190.26v11.52"/><path class="cls-2" d="M600.78,175.14v15.12"/><path class="cls-2" d="M562.62,175.14v15.12"/><path class="cls-2" d="M560.28,175.14h2.34"/><path class="cls-2" d="M600.78,175.14h2.34"/><path class="cls-2" d="M560.28,190.26h2.34"/><path class="cls-2" d="M600.78,190.26h2.34"/><path class="cls-2" d="M654.59,190.26h2.34"/><path class="cls-2" d="M614.09,190.26h2.34"/><path class="cls-2" d="M654.59,175.14h2.34"/><path class="cls-2" d="M614.09,175.14h2.34"/><path class="cls-2" d="M616.43,175.14v15.12"/><path class="cls-2" d="M654.59,175.14v15.12"/><path class="cls-2" d="M614.09,190.26v11.52"/><path class="cls-2" d="M656.93,190.26v11.52"/><path class="cls-2" d="M656.93,163.62v11.52"/><path class="cls-2" d="M614.09,163.62v11.52"/><path class="cls-2" d="M614.13,201.78h42.76"/><path class="cls-2" d="M614.13,163.62h42.76"/><path class="cls-2" d="M683.65,160.05,725,149"/><path class="cls-2" d="M693.53,196.91l41.31-11.07"/><path class="cls-2" d="M683.61,160.06l3,11.13"/><path class="cls-2" d="M725,149l3,11.13"/><path class="cls-2" d="M731.89,174.7l3,11.14"/><path class="cls-2" d="M690.51,185.79l3,11.13"/><path class="cls-2" d="M725.72,160.71l3.91,14.6"/><path class="cls-2" d="M688.85,170.59l3.92,14.6"/><path class="cls-2" d="M686.6,171.19l2.25-.6"/><path class="cls-2" d="M725.72,160.71l2.26-.61"/><path class="cls-2" d="M690.51,185.79l2.26-.6"/><path class="cls-2" d="M729.63,175.31l2.26-.61"/><path class="cls-2" d="M780,154.86l2.26-.61"/><path class="cls-2" d="M740.83,165.34l2.26-.61"/><path class="cls-2" d="M776,140.25l2.26-.6"/><path class="cls-2" d="M736.92,150.74l2.26-.61"/><path class="cls-2" d="M739.18,150.13l3.91,14.6"/><path class="cls-2" d="M776,140.25,780,154.86"/><path class="cls-2" d="M740.83,165.34l3,11.13"/><path class="cls-2" d="M782.21,154.25l3,11.13"/><path class="cls-2" d="M775.32,128.52l3,11.13"/><path class="cls-2" d="M733.93,139.6l3,11.14"/><path class="cls-2" d="M743.85,176.46l41.31-11.07"/><path class="cls-2" d="M734,139.6l41.31-11.07"/><path class="cls-2" d="M785.3,121.75l41.31-11.08"/><path class="cls-2" d="M795.18,158.61l41.31-11.07"/><path class="cls-2" d="M785.26,121.76l3,11.12"/><path class="cls-2" d="M826.65,110.67l3,11.12"/><path class="cls-2" d="M833.54,136.4l3,11.12"/><path class="cls-2" d="M792.16,147.49l3,11.12"/><path class="cls-2" d="M827.37,122.4,831.28,137"/><path class="cls-2" d="M790.5,132.27l3.92,14.61"/><path class="cls-2" d="M788.25,132.88l2.25-.61"/><path class="cls-2" d="M827.37,122.4l2.26-.61"/><path class="cls-2" d="M792.16,147.49l2.26-.61"/><path class="cls-2" d="M831.28,137l2.26-.61"/><path class="cls-2" d="M884.27,126.59l2.26-.61"/><path class="cls-2" d="M845.14,137.07l2.27-.6"/><path class="cls-2" d="M880.35,112l2.26-.62"/><path class="cls-2" d="M841.24,122.46l2.26-.6"/><path class="cls-2" d="M843.5,121.86l3.91,14.61"/><path class="cls-2" d="M880.35,112l3.92,14.6"/><path class="cls-2" d="M845.14,137.07l3,11.12"/><path class="cls-2" d="M886.53,126l3,11.13"/><path class="cls-2" d="M879.63,100.25l3,11.12"/><path class="cls-2" d="M838.25,111.34l3,11.12"/><path class="cls-2" d="M848.16,148.19l41.32-11.07"/><path class="cls-2" d="M838.29,111.33l41.31-11.07"/><path class="cls-2" d="M894.05,110.21l41.31-11.07"/><path class="cls-2" d="M903.93,147.06,945.24,136"/><path class="cls-2" d="M894,110.21l3,11.14"/><path class="cls-2" d="M935.4,99.13l3,11.13"/><path class="cls-2" d="M942.29,124.86l3,11.13"/><path class="cls-2" d="M900.92,136l3,11.13"/><path class="cls-2" d="M936.12,110.86l3.91,14.6"/><path class="cls-2" d="M899.26,120.74l3.92,14.6"/><path class="cls-2" d="M897,121.35l2.26-.61"/><path class="cls-2" d="M936.12,110.86l2.26-.6"/><path class="cls-2" d="M900.92,136l2.26-.61"/><path class="cls-2" d="M940,125.46l2.26-.6"/><path class="cls-2" d="M993.18,115.64l2.26-.6"/><path class="cls-2" d="M954.06,126.13l2.26-.61"/><path class="cls-2" d="M989.27,101l2.26-.6"/><path class="cls-2" d="M950.14,111.52l2.26-.6"/><path class="cls-2" d="M952.4,110.92l3.92,14.6"/><path class="cls-2" d="M989.27,101l3.91,14.6"/><path class="cls-2" d="M954.06,126.13l3,11.13"/><path class="cls-2" d="M995.44,115l3,11.13"/><path class="cls-2" d="M988.54,89.31l3,11.13"/><path class="cls-2" d="M947.16,100.39l3,11.13"/><path class="cls-2" d="M957.08,137.25l41.3-11.07"/><path class="cls-2" d="M947.2,100.39l41.31-11.07"/><path class="cls-2" d="M998.31,82.27l41.31-11.07"/><path class="cls-2" d="M1008.19,119.13l41.31-11.07"/><path class="cls-2" d="M998.27,82.28l3,11.13"/><path class="cls-2" d="M1039.66,71.19l3,11.13"/><path class="cls-2" d="M1046.55,96.92l3,11.13"/><path class="cls-2" d="M1005.17,108l3,11.13"/><path class="cls-2" d="M1040.38,82.93l3.91,14.6"/><path class="cls-2" d="M1003.52,92.8l3.91,14.61"/><path class="cls-2" d="M1001.26,93.41l2.26-.61"/><path class="cls-2" d="M1040.38,82.93l2.26-.61"/><path class="cls-2" d="M1005.17,108l2.26-.6"/><path class="cls-2" d="M1044.29,97.53l2.26-.61"/><path class="cls-2" d="M87.68,159.74l2.26.6"/><path class="cls-2" d="M48.57,149.25l2.26.61"/><path class="cls-2" d="M91.6,145.13l2.26.6"/><path class="cls-2" d="M52.48,134.64l2.26.61"/><path class="cls-2" d="M54.74,135.25l-3.91,14.61"/><path class="cls-2" d="M91.6,145.13l-3.92,14.61"/><path class="cls-2" d="M48.57,149.25l-3,11.13"/><path class="cls-2" d="M89.94,160.34l-3,11.12"/><path class="cls-2" d="M96.84,134.61l-3,11.12"/><path class="cls-2" d="M55.46,123.52l-3,11.12"/><path class="cls-2" d="M45.62,160.39l41.31,11.07"/><path class="cls-2" d="M55.5,123.53,96.81,134.6"/><path class="cls-2" d="M106.66,141.72,148,152.79"/><path class="cls-2" d="M96.78,178.58l41.32,11.07"/><path class="cls-2" d="M106.63,141.71l-3,11.13"/><path class="cls-2" d="M148,152.79l-3,11.14"/><path class="cls-2" d="M141.11,178.53l-3,11.13"/><path class="cls-2" d="M99.74,167.44l-3,11.13"/><path class="cls-2" d="M142.76,163.32l-3.91,14.6"/><path class="cls-2" d="M105.91,153.44,102,168.05"/><path class="cls-2" d="M103.65,152.84l2.26.6"/><path class="cls-2" d="M142.76,163.32l2.26.61"/><path class="cls-2" d="M99.74,167.44l2.26.61"/><path class="cls-2" d="M138.85,177.92l2.26.61"/><path class="cls-2" d="M159.81,151.52l41.31,11.07"/><path class="cls-2" d="M149.93,188.38l41.32,11.07"/><path class="cls-2" d="M159.78,151.51l-3,11.13"/><path class="cls-2" d="M201.16,162.6l-3,11.13"/><path class="cls-2" d="M194.26,188.33l-3,11.13"/><path class="cls-2" d="M152.88,177.25l-3,11.12"/><path class="cls-2" d="M195.91,173.12,192,187.73"/><path class="cls-2" d="M159.06,163.25l-3.92,14.6"/><path class="cls-2" d="M156.8,162.64l2.26.61"/><path class="cls-2" d="M195.91,173.12l2.26.61"/><path class="cls-2" d="M152.88,177.25l2.26.6"/><path class="cls-2" d="M192,187.73l2.26.6"/><path class="cls-2" d="M215.65,152.34,257,163.41"/><path class="cls-2" d="M205.77,189.21l41.31,11.06"/><path class="cls-2" d="M215.61,152.33l-3,11.14"/><path class="cls-2" d="M257,163.42l-3,11.13"/><path class="cls-2" d="M250.1,189.15l-3,11.13"/><path class="cls-2" d="M208.72,178.07l-3,11.12"/><path class="cls-2" d="M251.75,173.94l-3.91,14.61"/><path class="cls-2" d="M214.89,164.07,211,178.67"/><path class="cls-2" d="M212.63,163.47l2.26.6"/><path class="cls-2" d="M251.75,173.94l2.26.61"/><path class="cls-2" d="M208.72,178.07l2.26.6"/><path class="cls-2" d="M247.84,188.55l2.26.6"/><path class="cls-2" d="M300.79,198.85l2.26.61"/><path class="cls-2" d="M261.67,188.37l2.26.6"/><path class="cls-2" d="M304.71,184.24l2.26.61"/><path class="cls-2" d="M265.59,173.76l2.26.61"/><path class="cls-2" d="M267.85,174.37,263.93,189"/><path class="cls-2" d="M304.71,184.24l-3.92,14.61"/><path class="cls-2" d="M261.67,188.37l-3,11.12"/><path class="cls-2" d="M303.05,199.46l-3,11.12"/><path class="cls-2" d="M310,173.73l-3,11.12"/><path class="cls-2" d="M268.57,162.64l-3,11.12"/><path class="cls-2" d="M258.73,199.51,300,210.57"/><path class="cls-2" d="M268.6,162.64l41.31,11.08"/><path class="cls-2" d="M320.06,180.31l41.3,11.07"/><path class="cls-2" d="M310.18,217.17l41.3,11.07"/><path class="cls-2" d="M320,180.3l-3,11.12"/><path class="cls-2" d="M361.4,191.39l-3,11.12"/><path class="cls-2" d="M354.5,217.12l-3,11.12"/><path class="cls-2" d="M313.12,206l-3,11.13"/><path class="cls-2" d="M356.16,201.91l-3.92,14.6"/><path class="cls-2" d="M319.29,192l-3.91,14.61"/><path class="cls-2" d="M317,191.42l2.25.61"/><path class="cls-2" d="M356.16,201.91l2.26.6"/><path class="cls-2" d="M313.12,206l2.26.61"/><path class="cls-2" d="M352.24,216.51l2.26.61"/><path class="cls-2" d="M402.46,237l2.25.61"/><path class="cls-2" d="M363.34,226.53l2.26.6"/><path class="cls-2" d="M406.37,222.4l2.26.61"/><path class="cls-2" d="M367.25,211.92l2.26.61"/><path class="cls-2" d="M369.51,212.53l-3.91,14.6"/><path class="cls-2" d="M406.37,222.4,402.46,237"/><path class="cls-2" d="M363.34,226.53l-3,11.12"/><path class="cls-2" d="M404.71,237.62l-3,11.12"/><path class="cls-2" d="M411.61,211.89l-3,11.12"/><path class="cls-2" d="M370.23,200.8l-3,11.12"/><path class="cls-2" d="M360.39,237.66l41.31,11.07"/><path class="cls-2" d="M370.27,200.8l41.31,11.07"/><path class="cls-2" d="M452.67,217.5h42.76"/><path class="cls-2" d="M452.67,255.66h42.76"/><path class="cls-2" d="M452.63,217.5V229"/><path class="cls-2" d="M495.47,217.5V229"/><path class="cls-2" d="M495.47,244.14v11.52"/><path class="cls-2" d="M452.63,244.14v11.52"/><path class="cls-2" d="M493.13,229v15.12"/><path class="cls-2" d="M455,229v15.12"/><path class="cls-2" d="M452.63,229H455"/><path class="cls-2" d="M493.13,229h2.34"/><path class="cls-2" d="M452.63,244.14H455"/><path class="cls-2" d="M493.13,244.14h2.34"/><path class="cls-2" d="M547,244.11h2.34"/><path class="cls-2" d="M506.49,244.11h2.34"/><path class="cls-2" d="M547,229h2.34"/><path class="cls-2" d="M506.49,229h2.34"/><path class="cls-2" d="M508.83,229v15.12"/><path class="cls-2" d="M547,229v15.12"/><path class="cls-2" d="M506.49,244.11v11.52"/><path class="cls-2" d="M549.33,244.11v11.52"/><path class="cls-2" d="M549.33,217.47V229"/><path class="cls-2" d="M506.49,217.47V229"/><path class="cls-2" d="M506.52,255.63h42.77"/><path class="cls-2" d="M506.52,217.47h42.77"/><path class="cls-2" d="M560.32,217.44h42.77"/><path class="cls-2" d="M560.32,255.6h42.77"/><path class="cls-2" d="M560.28,217.44V229"/><path class="cls-2" d="M603.12,217.44V229"/><path class="cls-2" d="M603.12,244.08V255.6"/><path class="cls-2" d="M560.28,244.08V255.6"/><path class="cls-2" d="M600.78,229v15.12"/><path class="cls-2" d="M562.62,229v15.12"/><path class="cls-2" d="M560.28,229h2.34"/><path class="cls-2" d="M600.78,229h2.34"/><path class="cls-2" d="M560.28,244.08h2.34"/><path class="cls-2" d="M600.78,244.08h2.34"/><path class="cls-2" d="M654.63,244.11H657"/><path class="cls-2" d="M614.13,244.11h2.34"/><path class="cls-2" d="M654.63,229H657"/><path class="cls-2" d="M614.13,229h2.34"/><path class="cls-2" d="M616.47,229v15.12"/><path class="cls-2" d="M654.63,229v15.12"/><path class="cls-2" d="M614.13,244.11v11.52"/><path class="cls-2" d="M657,244.11v11.52"/><path class="cls-2" d="M657,217.47V229"/><path class="cls-2" d="M614.13,217.47V229"/><path class="cls-2" d="M614.17,255.63h42.77"/><path class="cls-2" d="M614.17,217.47h42.77"/><path class="cls-2" d="M697.62,212.12l41.31-11.07"/><path class="cls-2" d="M707.5,249l41.31-11.07"/><path class="cls-2" d="M697.59,212.13l3,11.12"/><path class="cls-2" d="M739,201l3,11.13"/><path class="cls-2" d="M745.86,226.77l3,11.13"/><path class="cls-2" d="M704.48,237.86l3,11.13"/><path class="cls-2" d="M739.69,212.77l3.91,14.61"/><path class="cls-2" d="M702.83,222.65l3.91,14.6"/><path class="cls-2" d="M700.57,223.25l2.26-.6"/><path class="cls-2" d="M739.69,212.77l2.26-.6"/><path class="cls-2" d="M704.48,237.86l2.26-.61"/><path class="cls-2" d="M743.6,227.38l2.26-.61"/><path class="cls-2" d="M793.92,206.93l2.26-.6"/><path class="cls-2" d="M754.81,217.41l2.26-.61"/><path class="cls-2" d="M790,192.32l2.27-.6"/><path class="cls-2" d="M750.9,202.81l2.25-.61"/><path class="cls-2" d="M753.15,202.2l3.92,14.6"/><path class="cls-2" d="M790,192.32l3.91,14.61"/><path class="cls-2" d="M754.81,217.41l3,11.13"/><path class="cls-2" d="M796.18,206.33l3,11.12"/><path class="cls-2" d="M789.29,180.59l3,11.13"/><path class="cls-2" d="M747.91,191.68l3,11.13"/><path class="cls-2" d="M757.82,228.53l41.32-11.07"/><path class="cls-2" d="M747.94,191.67l41.32-11.07"/><path class="cls-2" d="M799.31,174.12l41.31-11.07"/><path class="cls-2" d="M809.19,211l41.31-11.08"/><path class="cls-2" d="M799.27,174.14l3,11.12"/><path class="cls-2" d="M840.66,163.05l3,11.12"/><path class="cls-2" d="M847.55,188.78l3,11.12"/><path class="cls-2" d="M806.17,199.87l3,11.12"/><path class="cls-2" d="M841.38,174.78l3.91,14.61"/><path class="cls-2" d="M804.52,184.65l3.91,14.61"/><path class="cls-2" d="M802.26,185.26l2.26-.61"/><path class="cls-2" d="M841.38,174.78l2.26-.61"/><path class="cls-2" d="M806.17,199.87l2.26-.61"/><path class="cls-2" d="M845.29,189.39l2.26-.61"/><path class="cls-2" d="M898.21,178.92l2.25-.6"/><path class="cls-2" d="M859.08,189.41l2.26-.61"/><path class="cls-2" d="M894.29,164.32l2.26-.6"/><path class="cls-2" d="M855.17,174.81l2.27-.61"/><path class="cls-2" d="M857.44,174.2l3.9,14.6"/><path class="cls-2" d="M894.29,164.32l3.92,14.6"/><path class="cls-2" d="M859.08,189.41l3,11.13"/><path class="cls-2" d="M900.46,178.32l3,11.13"/><path class="cls-2" d="M893.57,152.59l3,11.13"/><path class="cls-2" d="M852.19,163.67l3,11.14"/><path class="cls-2" d="M862.1,200.52l41.31-11.06"/><path class="cls-2" d="M852.22,163.67l41.32-11.07"/><path class="cls-2" d="M908.09,162.8l41.31-11.07"/><path class="cls-2" d="M918,199.66l41.31-11.07"/><path class="cls-2" d="M908.05,162.81l3,11.12"/><path class="cls-2" d="M949.44,151.72l3,11.13"/><path class="cls-2" d="M956.33,177.45l3,11.13"/><path class="cls-2" d="M915,188.54l3,11.13"/><path class="cls-2" d="M950.16,163.45l3.91,14.61"/><path class="cls-2" d="M913.29,173.33l3.92,14.6"/><path class="cls-2" d="M911,173.93l2.25-.6"/><path class="cls-2" d="M950.16,163.45l2.26-.6"/><path class="cls-2" d="M915,188.54l2.26-.61"/><path class="cls-2" d="M954.07,178.06l2.26-.61"/><path class="cls-2" d="M1007.23,168.15l2.26-.6"/><path class="cls-2" d="M968.11,178.64l2.26-.61"/><path class="cls-2" d="M1003.31,153.55l2.27-.6"/><path class="cls-2" d="M964.2,164l2.26-.6"/><path class="cls-2" d="M966.46,163.43l3.91,14.6"/><path class="cls-2" d="M1003.31,153.55l3.92,14.6"/><path class="cls-2" d="M968.11,178.64l3,11.13"/><path class="cls-2" d="M1009.49,167.55l3,11.13"/><path class="cls-2" d="M1002.59,141.81l3,11.14"/><path class="cls-2" d="M961.22,152.9l3,11.13"/><path class="cls-2" d="M971.12,189.75l41.32-11.06"/><path class="cls-2" d="M961.24,152.9l41.32-11.07"/><path class="cls-2" d="M1012.37,134.91l41.31-11.07"/><path class="cls-2" d="M1022.25,171.77l41.31-11.07"/><path class="cls-2" d="M1012.34,134.92l3,11.13"/><path class="cls-2" d="M1053.71,123.83l3,11.13"/><path class="cls-2" d="M1060.61,149.56l3,11.13"/><path class="cls-2" d="M1019.23,160.65l3,11.13"/><path class="cls-2" d="M1054.43,135.57l3.92,14.6"/><path class="cls-2" d="M1017.58,145.44l3.91,14.61"/><path class="cls-2" d="M1015.32,146.05l2.26-.61"/><path class="cls-2" d="M1054.43,135.57l2.27-.61"/><path class="cls-2" d="M1019.23,160.65l2.26-.6"/><path class="cls-2" d="M1058.35,150.17l2.26-.61"/><path class="cls-2" d="M73.69,211.86l2.26.61"/><path class="cls-2" d="M34.57,201.38l2.26.61"/><path class="cls-2" d="M77.6,197.25l2.26.61"/><path class="cls-2" d="M38.49,186.77l2.25.61"/><path class="cls-2" d="M40.74,187.38,36.83,202"/><path class="cls-2" d="M77.6,197.25l-3.91,14.61"/><path class="cls-2" d="M34.57,201.38l-3,11.12"/><path class="cls-2" d="M76,212.47l-3,11.12"/><path class="cls-2" d="M82.84,186.74l-3,11.12"/><path class="cls-2" d="M41.47,175.65l-3,11.12"/><path class="cls-2" d="M31.62,212.51l41.31,11.08"/><path class="cls-2" d="M41.5,175.65l41.31,11.07"/><path class="cls-2" d="M92.67,193.69,134,204.76"/><path class="cls-2" d="M82.8,230.55l41.31,11.07"/><path class="cls-2" d="M92.64,193.68l-3,11.13"/><path class="cls-2" d="M134,204.77l-3,11.13"/><path class="cls-2" d="M127.12,230.5l-3,11.13"/><path class="cls-2" d="M85.75,219.42l-3,11.12"/><path class="cls-2" d="M128.78,215.29l-3.92,14.61"/><path class="cls-2" d="M91.92,205.41,88,220"/><path class="cls-2" d="M89.66,204.81l2.26.6"/><path class="cls-2" d="M128.78,215.29l2.26.61"/><path class="cls-2" d="M85.75,219.42,88,220"/><path class="cls-2" d="M124.86,229.9l2.26.6"/><path class="cls-2" d="M178.07,239.72l2.26.61"/><path class="cls-2" d="M139,229.24l2.26.61"/><path class="cls-2" d="M182,225.12l2.26.6"/><path class="cls-2" d="M142.86,214.64l2.26.6"/><path class="cls-2" d="M145.12,215.24l-3.91,14.61"/><path class="cls-2" d="M182,225.12l-3.91,14.6"/><path class="cls-2" d="M139,229.24l-3,11.13"/><path class="cls-2" d="M180.33,240.33l-3,11.13"/><path class="cls-2" d="M187.22,214.6l-3,11.12"/><path class="cls-2" d="M145.84,203.51l-3,11.13"/><path class="cls-2" d="M136,240.38l41.32,11.07"/><path class="cls-2" d="M145.88,203.52l41.31,11.07"/><path class="cls-2" d="M201.54,204.69l41.32,11.07"/><path class="cls-2" d="M191.67,241.55,233,252.62"/><path class="cls-2" d="M201.51,204.68l-3,11.13"/><path class="cls-2" d="M242.89,215.77l-3,11.13"/><path class="cls-2" d="M236,241.5l-3,11.13"/><path class="cls-2" d="M194.62,230.41l-3,11.13"/><path class="cls-2" d="M237.65,226.29l-3.91,14.6"/><path class="cls-2" d="M200.79,216.41,196.88,231"/><path class="cls-2" d="M198.53,215.81l2.26.6"/><path class="cls-2" d="M237.65,226.29l2.26.61"/><path class="cls-2" d="M194.62,230.41l2.26.61"/><path class="cls-2" d="M233.74,240.89l2.26.61"/><path class="cls-2" d="M286.89,251l2.26.6"/><path class="cls-2" d="M247.77,240.56l2.26.6"/><path class="cls-2" d="M290.8,236.43l2.26.6"/><path class="cls-2" d="M251.68,226l2.26.6"/><path class="cls-2" d="M253.94,226.55,250,241.16"/><path class="cls-2" d="M290.8,236.43,286.89,251"/><path class="cls-2" d="M247.77,240.56l-3,11.12"/><path class="cls-2" d="M289.15,251.64l-3,11.13"/><path class="cls-2" d="M296,225.91l-3,11.12"/><path class="cls-2" d="M254.67,214.82l-3,11.13"/><path class="cls-2" d="M244.82,251.69l41.31,11.07"/><path class="cls-2" d="M254.69,214.83,296,225.9"/><path class="cls-2" d="M306,232.65l41.31,11.07"/><path class="cls-2" d="M296.13,269.51l41.31,11.07"/><path class="cls-2" d="M306,232.64l-3,11.13"/><path class="cls-2" d="M347.35,243.73l-3,11.12"/><path class="cls-2" d="M340.46,269.46l-3,11.13"/><path class="cls-2" d="M299.08,258.38l-3,11.12"/><path class="cls-2" d="M342.11,254.25l-3.91,14.61"/><path class="cls-2" d="M305.25,244.38,301.34,259"/><path class="cls-2" d="M303,243.77l2.26.61"/><path class="cls-2" d="M342.11,254.25l2.26.6"/><path class="cls-2" d="M299.08,258.38l2.26.6"/><path class="cls-2" d="M338.2,268.86l2.26.6"/><path class="cls-2" d="M388.49,289.08l2.26.6"/><path class="cls-2" d="M349.37,278.59l2.26.61"/><path class="cls-2" d="M392.4,274.47l2.26.6"/><path class="cls-2" d="M353.28,264l2.26.61"/><path class="cls-2" d="M355.54,264.59l-3.91,14.61"/><path class="cls-2" d="M392.4,274.47l-3.91,14.61"/><path class="cls-2" d="M349.37,278.59l-3,11.13"/><path class="cls-2" d="M390.75,289.68l-3,11.13"/><path class="cls-2" d="M397.64,264l-3,11.12"/><path class="cls-2" d="M356.26,252.86l-3,11.12"/><path class="cls-2" d="M346.42,289.73l41.32,11.07"/><path class="cls-2" d="M356.3,252.87l41.31,11.07"/><path class="cls-2" d="M452.69,271.42h42.77"/><path class="cls-2" d="M452.69,309.58h42.77"/><path class="cls-2" d="M452.66,271.42v11.52"/><path class="cls-2" d="M495.5,271.42v11.52"/><path class="cls-2" d="M495.5,298.06v11.52"/><path class="cls-2" d="M452.66,298.06v11.52"/><path class="cls-2" d="M493.16,282.94v15.12"/><path class="cls-2" d="M455,282.94v15.12"/><path class="cls-2" d="M452.66,282.94H455"/><path class="cls-2" d="M493.16,282.94h2.34"/><path class="cls-2" d="M452.66,298.06H455"/><path class="cls-2" d="M493.16,298.06h2.34"/><path class="cls-2" d="M547,298.06h2.34"/><path class="cls-2" d="M506.49,298.06h2.34"/><path class="cls-2" d="M547,282.94h2.34"/><path class="cls-2" d="M506.49,282.94h2.34"/><path class="cls-2" d="M508.83,282.94v15.12"/><path class="cls-2" d="M547,282.94v15.12"/><path class="cls-2" d="M506.49,298.06v11.52"/><path class="cls-2" d="M549.33,298.06v11.52"/><path class="cls-2" d="M549.33,271.42v11.52"/><path class="cls-2" d="M506.49,271.42v11.52"/><path class="cls-2" d="M506.53,309.58H549.3"/><path class="cls-2" d="M506.53,271.42H549.3"/><path class="cls-2" d="M600.83,298h2.34"/><path class="cls-2" d="M560.33,298h2.34"/><path class="cls-2" d="M600.83,282.89h2.34"/><path class="cls-2" d="M560.33,282.89h2.34"/><path class="cls-2" d="M562.67,282.89V298"/><path class="cls-2" d="M600.83,282.89V298"/><path class="cls-2" d="M560.33,298v11.52"/><path class="cls-2" d="M603.17,298v11.52"/><path class="cls-2" d="M603.17,271.37v11.52"/><path class="cls-2" d="M560.33,271.37v11.52"/><path class="cls-2" d="M560.36,309.53h42.77"/><path class="cls-2" d="M560.36,271.37h42.77"/><path class="cls-2" d="M654.66,298H657"/><path class="cls-2" d="M614.16,298h2.34"/><path class="cls-2" d="M654.66,282.88H657"/><path class="cls-2" d="M614.16,282.88h2.34"/><path class="cls-2" d="M616.5,282.88V298"/><path class="cls-2" d="M654.66,282.88V298"/><path class="cls-2" d="M614.16,298v11.52"/><path class="cls-2" d="M657,298v11.52"/><path class="cls-2" d="M657,271.36v11.52"/><path class="cls-2" d="M614.16,271.36v11.52"/><path class="cls-2" d="M614.2,309.52H657"/><path class="cls-2" d="M614.2,271.36H657"/><path class="cls-2" d="M711.61,264.15l41.31-11.07"/><path class="cls-2" d="M721.49,301l41.31-11.07"/><path class="cls-2" d="M711.58,264.16l3,11.13"/><path class="cls-2" d="M753,253.07l3,11.13"/><path class="cls-2" d="M759.85,278.8l3,11.13"/><path class="cls-2" d="M718.48,289.89l3,11.13"/><path class="cls-2" d="M753.68,264.81l3.91,14.6"/><path class="cls-2" d="M716.82,274.68l3.92,14.61"/><path class="cls-2" d="M714.56,275.29l2.26-.61"/><path class="cls-2" d="M753.68,264.81l2.26-.61"/><path class="cls-2" d="M718.48,289.89l2.26-.6"/><path class="cls-2" d="M757.59,279.41l2.26-.61"/><path class="cls-2" d="M807.89,259.12l2.26-.6"/><path class="cls-2" d="M768.77,269.61,771,269"/><path class="cls-2" d="M804,244.52l2.26-.6"/><path class="cls-2" d="M764.86,255l2.26-.61"/><path class="cls-2" d="M767.12,254.4,771,269"/><path class="cls-2" d="M804,244.52l3.91,14.6"/><path class="cls-2" d="M768.77,269.61l3,11.13"/><path class="cls-2" d="M810.15,258.52l3,11.13"/><path class="cls-2" d="M803.26,232.79l3,11.13"/><path class="cls-2" d="M761.88,243.87l3,11.14"/><path class="cls-2" d="M771.79,280.72l41.31-11.06"/><path class="cls-2" d="M761.91,243.87l41.32-11.07"/><path class="cls-2" d="M813.28,226.09,854.6,215"/><path class="cls-2" d="M823.16,263l41.31-11.07"/><path class="cls-2" d="M813.25,226.11l3,11.12"/><path class="cls-2" d="M854.63,215l3,11.12"/><path class="cls-2" d="M861.52,240.74l3,11.13"/><path class="cls-2" d="M820.15,251.83l3,11.13"/><path class="cls-2" d="M855.35,226.75l3.91,14.6"/><path class="cls-2" d="M818.49,236.62l3.92,14.61"/><path class="cls-2" d="M816.23,237.23l2.26-.61"/><path class="cls-2" d="M855.35,226.75l2.27-.61"/><path class="cls-2" d="M820.15,251.83l2.26-.6"/><path class="cls-2" d="M859.26,241.35l2.26-.61"/><path class="cls-2" d="M912.27,231.19l2.25-.61"/><path class="cls-2" d="M873.15,241.67l2.26-.6"/><path class="cls-2" d="M908.35,216.59l2.26-.62"/><path class="cls-2" d="M869.24,227.06l2.26-.6"/><path class="cls-2" d="M871.5,226.46l3.91,14.61"/><path class="cls-2" d="M908.35,216.59l3.92,14.6"/><path class="cls-2" d="M873.15,241.67l3,11.13"/><path class="cls-2" d="M914.52,230.58l3,11.13"/><path class="cls-2" d="M907.63,204.85l3,11.12"/><path class="cls-2" d="M866.26,215.94l3,11.12"/><path class="cls-2" d="M876.16,252.79l41.32-11.07"/><path class="cls-2" d="M866.28,215.93l41.32-11.07"/><path class="cls-2" d="M922.05,214.84l41.31-11.07"/><path class="cls-2" d="M931.93,251.7l41.31-11.07"/><path class="cls-2" d="M922,214.85,925,226"/><path class="cls-2" d="M963.4,203.76l3,11.13"/><path class="cls-2" d="M970.29,229.5l3,11.12"/><path class="cls-2" d="M928.91,240.58l3,11.13"/><path class="cls-2" d="M964.12,215.49,968,230.1"/><path class="cls-2" d="M927.25,225.37,931.17,240"/><path class="cls-2" d="M925,226l2.25-.61"/><path class="cls-2" d="M964.12,215.49l2.26-.6"/><path class="cls-2" d="M928.91,240.58l2.26-.6"/><path class="cls-2" d="M968,230.1l2.26-.6"/><path class="cls-2" d="M1021.25,220.17l2.26-.61"/><path class="cls-2" d="M982.13,230.65l2.26-.61"/><path class="cls-2" d="M1017.34,205.56l2.26-.61"/><path class="cls-2" d="M978.22,216l2.26-.61"/><path class="cls-2" d="M980.48,215.43,984.39,230"/><path class="cls-2" d="M1017.34,205.56l3.91,14.61"/><path class="cls-2" d="M982.13,230.65l3,11.12"/><path class="cls-2" d="M1023.51,219.56l3,11.12"/><path class="cls-2" d="M1016.61,193.83l3,11.12"/><path class="cls-2" d="M975.23,204.92l3,11.12"/><path class="cls-2" d="M985.15,241.77l41.31-11.08"/><path class="cls-2" d="M975.27,204.9l41.31-11.07"/><path class="cls-2" d="M1026.34,186.81l41.31-11.06"/><path class="cls-2" d="M1036.21,223.68l41.31-11.07"/><path class="cls-2" d="M1026.3,186.83l3,11.12"/><path class="cls-2" d="M1067.68,175.74l3,11.13"/><path class="cls-2" d="M1074.58,201.47l3,11.13"/><path class="cls-2" d="M1033.2,212.56l3,11.13"/><path class="cls-2" d="M1068.4,187.47l3.92,14.61"/><path class="cls-2" d="M1031.55,197.35l3.91,14.6"/><path class="cls-2" d="M1029.28,198l2.27-.6"/><path class="cls-2" d="M1068.4,187.47l2.26-.6"/><path class="cls-2" d="M1033.2,212.56l2.26-.61"/><path class="cls-2" d="M1072.32,202.08l2.26-.61"/><path class="cls-2" d="M59.78,264.06l2.26.61"/><path class="cls-2" d="M20.66,253.58l2.26.61"/><path class="cls-2" d="M63.69,249.46l2.26.61"/><path class="cls-2" d="M24.57,239l2.26.6"/><path class="cls-2" d="M26.83,239.58l-3.91,14.61"/><path class="cls-2" d="M63.69,249.46l-3.91,14.6"/><path class="cls-2" d="M20.66,253.58l-3,11.13"/><path class="cls-2" d="M62,264.67l-3,11.13"/><path class="cls-2" d="M68.93,238.94l-3,11.13"/><path class="cls-2" d="M27.55,227.85l-3,11.13"/><path class="cls-2" d="M17.71,264.72,59,275.79"/><path class="cls-2" d="M27.58,227.86,68.9,238.93"/><path class="cls-2" d="M78.63,245.74l41.3,11.07"/><path class="cls-2" d="M68.75,282.6l41.3,11.07"/><path class="cls-2" d="M78.59,245.73l-3,11.13"/><path class="cls-2" d="M120,256.82,117,268"/><path class="cls-2" d="M113.07,282.55l-3,11.13"/><path class="cls-2" d="M71.69,271.47l-3,11.12"/><path class="cls-2" d="M114.73,267.34,110.81,282"/><path class="cls-2" d="M77.87,257.47,74,272.07"/><path class="cls-2" d="M75.61,256.86l2.26.61"/><path class="cls-2" d="M114.73,267.34,117,268"/><path class="cls-2" d="M71.69,271.47l2.26.6"/><path class="cls-2" d="M110.81,282l2.26.6"/><path class="cls-2" d="M164.08,292l2.26.6"/><path class="cls-2" d="M125,281.47l2.27.62"/><path class="cls-2" d="M168,277.35l2.26.61"/><path class="cls-2" d="M128.87,266.87l2.27.61"/><path class="cls-2" d="M131.14,267.48l-3.91,14.61"/><path class="cls-2" d="M168,277.35,164.08,292"/><path class="cls-2" d="M125,281.47l-3,11.13"/><path class="cls-2" d="M166.34,292.56l-3,11.13"/><path class="cls-2" d="M173.24,266.83l-3,11.13"/><path class="cls-2" d="M131.86,255.74l-3,11.13"/><path class="cls-2" d="M122,292.61l41.31,11.08"/><path class="cls-2" d="M131.89,255.75l41.31,11.07"/><path class="cls-2" d="M187.63,256.81l41.3,11.07"/><path class="cls-2" d="M177.75,293.67l41.3,11.07"/><path class="cls-2" d="M187.59,256.81l-3,11.12"/><path class="cls-2" d="M229,267.89,226,279"/><path class="cls-2" d="M222.07,293.63l-3,11.12"/><path class="cls-2" d="M180.69,282.54l-3,11.12"/><path class="cls-2" d="M223.73,278.41,219.81,293"/><path class="cls-2" d="M186.87,268.53,183,283.14"/><path class="cls-2" d="M184.61,267.93l2.26.6"/><path class="cls-2" d="M223.73,278.41,226,279"/><path class="cls-2" d="M180.69,282.54l2.26.6"/><path class="cls-2" d="M219.81,293l2.26.62"/><path class="cls-2" d="M240.72,267,282,278"/><path class="cls-2" d="M230.84,303.83l41.31,11.07"/><path class="cls-2" d="M240.68,267l-3,11.13"/><path class="cls-2" d="M282.06,278.05l-3,11.13"/><path class="cls-2" d="M275.17,303.78l-3,11.13"/><path class="cls-2" d="M233.79,292.69l-3,11.13"/><path class="cls-2" d="M276.82,288.57l-3.91,14.6"/><path class="cls-2" d="M240,278.69l-3.91,14.61"/><path class="cls-2" d="M237.7,278.09l2.26.6"/><path class="cls-2" d="M276.82,288.57l2.26.61"/><path class="cls-2" d="M233.79,292.69l2.26.61"/><path class="cls-2" d="M272.91,303.17l2.26.61"/><path class="cls-2" d="M292,284.72l41.32,11.07"/><path class="cls-2" d="M282.13,321.58l41.31,11.07"/><path class="cls-2" d="M292,284.71l-3,11.13"/><path class="cls-2" d="M333.35,295.8l-3,11.13"/><path class="cls-2" d="M326.46,321.53l-3,11.13"/><path class="cls-2" d="M285.08,310.45l-3,11.13"/><path class="cls-2" d="M328.11,306.32l-3.91,14.61"/><path class="cls-2" d="M291.25,296.45l-3.91,14.6"/><path class="cls-2" d="M289,295.84l2.26.61"/><path class="cls-2" d="M328.11,306.32l2.26.61"/><path class="cls-2" d="M285.08,310.45l2.26.6"/><path class="cls-2" d="M324.2,320.93l2.26.6"/><path class="cls-2" d="M369.3,319.28l42.4,5.58"/><path class="cls-2" d="M364.32,357.11l42.41,5.59"/><path class="cls-2" d="M369.27,319.27l-1.51,11.42"/><path class="cls-2" d="M411.74,324.87l-1.5,11.42"/><path class="cls-2" d="M408.26,351.28l-1.49,11.42"/><path class="cls-2" d="M365.79,345.68l-1.5,11.43"/><path class="cls-2" d="M407.92,336l-2,15"/><path class="cls-2" d="M370.09,331l-2,15"/><path class="cls-2" d="M367.76,330.69l2.33.31"/><path class="cls-2" d="M407.92,336l2.32.31"/><path class="cls-2" d="M365.79,345.68l2.33.31"/><path class="cls-2" d="M405.94,351l2.32.31"/><path class="cls-3" d="M344,328.37l-.93,7"/><path class="cls-3" d="M343.07,335.36l2.44.32"/><path class="cls-3" d="M347.68,319.12l17.85,2.35"/><path class="cls-3" d="M410.35,361.65,428.19,364"/><path class="cls-3" d="M344,328.37l2.42.31"/><path class="cls-3" d="M414.79,328l17.85,2.35"/><path class="cls-3" d="M430.45,346.86l2.43.32"/><path class="cls-3" d="M343.25,352.81l17.85,2.35"/><path class="cls-3" d="M348.29,353.7l-.43,3.28"/><path class="cls-3" d="M415.39,362.52l-.43,3.29"/><path class="cls-3" d="M356,354.71l-.43,3.28"/><path class="cls-3" d="M414.79,328l-4.44,33.7"/><path class="cls-3" d="M347.83,357.19l7.71,1"/><path class="cls-3" d="M423.1,363.54l-.43,3.29"/><path class="cls-3" d="M365.53,321.47l-4.43,33.69"/><path class="cls-3" d="M347.68,319.12l-4.43,33.69"/><path class="cls-3" d="M414.93,366l7.71,1"/><path class="cls-3" d="M431.38,339.87l2.42.32"/><path class="cls-3" d="M433.8,340.19l-.92,7"/><path class="cls-3" d="M432.64,330.3,428.19,364"/><path class="cls-3" d="M431.94,354.32l.92-7"/><path class="cls-3" d="M432.86,347.32l-2.43-.31"/><path class="cls-3" d="M428.25,363.57l-17.84-2.35"/><path class="cls-3" d="M365.59,321l-17.85-2.35"/><path class="cls-3" d="M431.94,354.32l-2.43-.32"/><path class="cls-3" d="M361.15,354.73l-17.85-2.34"/><path class="cls-3" d="M345.49,335.82l-2.43-.32"/><path class="cls-3" d="M432.69,329.87l-17.85-2.35"/><path class="cls-3" d="M427.65,329l.43-3.28"/><path class="cls-3" d="M360.55,320.16l.43-3.28"/><path class="cls-3" d="M419.94,328l.43-3.29"/><path class="cls-3" d="M361.15,354.73,365.59,321"/><path class="cls-3" d="M428.11,325.49l-7.71-1"/><path class="cls-3" d="M352.84,319.14l.43-3.28"/><path class="cls-3" d="M410.41,361.22l4.43-33.7"/><path class="cls-3" d="M428.25,363.57l4.44-33.7"/><path class="cls-3" d="M361,316.66l-7.71-1"/><path class="cls-3" d="M344.56,342.82l-2.42-.32"/><path class="cls-3" d="M342.14,342.5l.92-7"/><path class="cls-3" d="M343.3,352.39l4.44-33.7"/><path class="cls-2" d="M452.73,325.29H495.5"/><path class="cls-2" d="M452.73,363.45H495.5"/><path class="cls-2" d="M452.69,325.29v11.52"/><path class="cls-2" d="M495.53,325.29v11.52"/><path class="cls-2" d="M495.53,351.93v11.52"/><path class="cls-2" d="M452.69,351.93v11.52"/><path class="cls-2" d="M493.19,336.81v15.12"/><path class="cls-2" d="M455,336.81v15.12"/><path class="cls-2" d="M452.69,336.81H455"/><path class="cls-2" d="M493.19,336.81h2.34"/><path class="cls-2" d="M452.69,351.93H455"/><path class="cls-2" d="M493.19,351.93h2.34"/><path class="cls-2" d="M547,351.9h2.34"/><path class="cls-2" d="M506.52,351.9h2.34"/><path class="cls-2" d="M547,336.78h2.34"/><path class="cls-2" d="M506.52,336.78h2.34"/><path class="cls-2" d="M508.86,336.78V351.9"/><path class="cls-2" d="M547,336.78V351.9"/><path class="cls-2" d="M506.52,351.9v11.52"/><path class="cls-2" d="M549.36,351.9v11.52"/><path class="cls-2" d="M549.36,325.26v11.52"/><path class="cls-2" d="M506.52,325.26v11.52"/><path class="cls-2" d="M506.56,363.42h42.77"/><path class="cls-2" d="M506.56,325.26h42.77"/><path class="cls-2" d="M560.44,325.21H603.2"/><path class="cls-2" d="M560.44,363.37H603.2"/><path class="cls-2" d="M560.4,325.21v11.52"/><path class="cls-2" d="M603.24,325.21v11.52"/><path class="cls-2" d="M603.24,351.85v11.52"/><path class="cls-2" d="M560.4,351.85v11.52"/><path class="cls-2" d="M600.9,336.73v15.12"/><path class="cls-2" d="M562.74,336.73v15.12"/><path class="cls-2" d="M560.4,336.73h2.34"/><path class="cls-2" d="M600.9,336.73h2.34"/><path class="cls-2" d="M560.4,351.85h2.34"/><path class="cls-2" d="M600.9,351.85h2.34"/><path class="cls-2" d="M654.65,351.81H657"/><path class="cls-2" d="M614.15,351.81h2.34"/><path class="cls-2" d="M654.65,336.69H657"/><path class="cls-2" d="M614.15,336.69h2.34"/><path class="cls-2" d="M616.49,336.69v15.12"/><path class="cls-2" d="M654.65,336.69v15.12"/><path class="cls-2" d="M614.15,351.81v11.52"/><path class="cls-2" d="M657,351.81v11.52"/><path class="cls-2" d="M657,325.17v11.52"/><path class="cls-2" d="M614.15,325.17v11.52"/><path class="cls-2" d="M614.19,363.33H657"/><path class="cls-2" d="M614.19,325.17H657"/><path class="cls-3" d="M680.78,363.57l-4.44-33.7"/><path class="cls-3" d="M677.09,354.32l-.91-7"/><path class="cls-3" d="M679.52,354l-2.43.32"/><path class="cls-3" d="M688.63,324.48l-7.71,1"/><path class="cls-3" d="M765.73,352.39l-4.44-33.7"/><path class="cls-3" d="M747.88,354.73,743.44,321"/><path class="cls-3" d="M681.38,329l-.43-3.28"/><path class="cls-3" d="M755.74,315.64l-7.72,1"/><path class="cls-3" d="M698.62,361.22l-4.43-33.7"/><path class="cls-3" d="M748.48,320.16l-.43-3.28"/><path class="cls-3" d="M689.09,328l-.43-3.29"/><path class="cls-3" d="M756.2,319.14l-.44-3.28"/><path class="cls-3" d="M761.29,318.69,743.44,321"/><path class="cls-3" d="M678.6,347l-2.42.31"/><path class="cls-3" d="M698.62,361.22l-17.84,2.35"/><path class="cls-3" d="M766.9,342.5l-2.43.32"/><path class="cls-3" d="M694.19,327.52l-17.85,2.35"/><path class="cls-3" d="M765.73,352.39l-17.85,2.34"/><path class="cls-3" d="M766,335.5l-2.42.32"/><path class="cls-3" d="M766.9,342.5l-.93-7"/><path class="cls-3" d="M761.34,319.12l4.44,33.69"/><path class="cls-3" d="M765,328.37l.92,7"/><path class="cls-3" d="M762.6,328.68l2.43-.31"/><path class="cls-3" d="M753.5,358.2l7.7-1"/><path class="cls-3" d="M676.4,330.3,680.83,364"/><path class="cls-3" d="M694.25,328l4.43,33.7"/><path class="cls-3" d="M760.74,353.7l.43,3.28"/><path class="cls-3" d="M686.39,367l7.71-1"/><path class="cls-3" d="M743.5,321.47l4.44,33.69"/><path class="cls-3" d="M693.64,362.52l.43,3.29"/><path class="cls-3" d="M753,354.71l.43,3.28"/><path class="cls-3" d="M685.93,363.54l.43,3.29"/><path class="cls-3" d="M680.83,364l17.85-2.34"/><path class="cls-3" d="M763.53,335.68l2.42-.32"/><path class="cls-3" d="M743.5,321.47l17.84-2.35"/><path class="cls-3" d="M675.23,340.19l2.43-.32"/><path class="cls-3" d="M747.94,355.16l17.84-2.35"/><path class="cls-3" d="M676.4,330.3,694.25,328"/><path class="cls-3" d="M676.15,347.18l2.43-.32"/><path class="cls-3" d="M675.23,340.19l.92,7"/><path class="cls-2" d="M740.92,346l2.32-.31"/><path class="cls-2" d="M700.76,351.28l2.33-.31"/><path class="cls-2" d="M738.94,331l2.32-.31"/><path class="cls-2" d="M698.79,336.29l2.33-.31"/><path class="cls-2" d="M701.12,336l2,15"/><path class="cls-2" d="M738.94,331l2,15"/><path class="cls-2" d="M700.76,351.28l1.51,11.42"/><path class="cls-2" d="M743.24,345.68l1.5,11.43"/><path class="cls-2" d="M739.77,319.27l1.49,11.42"/><path class="cls-2" d="M697.29,324.87l1.5,11.42"/><path class="cls-2" d="M702.3,362.7l42.4-5.59"/><path class="cls-2" d="M697.32,324.86l42.41-5.58"/><path class="cls-2" d="M775.86,296l41.31-11.08"/><path class="cls-2" d="M785.74,332.87,827,321.81"/><path class="cls-2" d="M775.82,296l3,11.14"/><path class="cls-2" d="M817.2,284.94l3,11.13"/><path class="cls-2" d="M824.1,310.67l3,11.12"/><path class="cls-2" d="M782.72,321.76l3,11.12"/><path class="cls-2" d="M817.92,296.67l3.92,14.6"/><path class="cls-2" d="M781.06,306.54,785,321.15"/><path class="cls-2" d="M778.8,307.16l2.26-.62"/><path class="cls-2" d="M817.92,296.67l2.26-.6"/><path class="cls-2" d="M782.72,321.76l2.26-.61"/><path class="cls-2" d="M821.84,311.27l2.26-.6"/><path class="cls-2" d="M873.2,293.44l2.26-.61"/><path class="cls-2" d="M834.08,303.92l2.25-.6"/><path class="cls-2" d="M869.28,278.83l2.26-.6"/><path class="cls-2" d="M830.16,289.31l2.26-.6"/><path class="cls-2" d="M832.42,288.71l3.91,14.61"/><path class="cls-2" d="M869.28,278.83l3.92,14.61"/><path class="cls-2" d="M834.08,303.92l3,11.13"/><path class="cls-2" d="M875.46,292.83l3,11.13"/><path class="cls-2" d="M868.56,267.1l3,11.13"/><path class="cls-2" d="M827.18,278.19l3,11.12"/><path class="cls-2" d="M837.09,315,878.4,304"/><path class="cls-2" d="M827.22,278.18l41.3-11.07"/><path class="cls-2" d="M880.28,268.11,921.59,257"/><path class="cls-2" d="M890.16,305l41.31-11.07"/><path class="cls-2" d="M880.24,268.12l3,11.12"/><path class="cls-2" d="M921.62,257l3,11.12"/><path class="cls-2" d="M928.52,282.76l3,11.13"/><path class="cls-2" d="M887.14,293.85l3,11.12"/><path class="cls-2" d="M922.35,268.77l3.91,14.6"/><path class="cls-2" d="M885.49,278.64l3.91,14.61"/><path class="cls-2" d="M883.23,279.24l2.26-.6"/><path class="cls-2" d="M922.35,268.77l2.26-.62"/><path class="cls-2" d="M887.14,293.85l2.26-.6"/><path class="cls-2" d="M926.26,283.37l2.26-.61"/><path class="cls-2" d="M982.05,282.24l2.26-.6"/><path class="cls-2" d="M942.93,292.73l2.26-.61"/><path class="cls-2" d="M978.14,267.64l2.26-.61"/><path class="cls-2" d="M939,278.12l2.26-.61"/><path class="cls-2" d="M941.28,277.51l3.91,14.61"/><path class="cls-2" d="M978.14,267.64l3.91,14.6"/><path class="cls-2" d="M942.93,292.73l3,11.12"/><path class="cls-2" d="M984.31,281.64l3,11.12"/><path class="cls-2" d="M977.42,255.91l3,11.12"/><path class="cls-2" d="M936,267l3,11.13"/><path class="cls-2" d="M945.94,303.84l41.32-11.06"/><path class="cls-2" d="M936.07,267l41.31-11.08"/><path class="cls-2" d="M989.25,257.14l41.32-11.06"/><path class="cls-2" d="M999.13,294l41.31-11.08"/><path class="cls-2" d="M989.22,257.16l3,11.12"/><path class="cls-2" d="M1030.6,246.07l3,11.12"/><path class="cls-2" d="M1037.49,271.8l3,11.13"/><path class="cls-2" d="M996.11,282.89l3,11.13"/><path class="cls-2" d="M1031.32,257.8l3.91,14.61"/><path class="cls-2" d="M994.46,267.68l3.92,14.6"/><path class="cls-2" d="M992.2,268.28l2.26-.6"/><path class="cls-2" d="M1031.32,257.8l2.26-.61"/><path class="cls-2" d="M996.11,282.89l2.27-.61"/><path class="cls-2" d="M1035.23,272.41l2.26-.61"/><path class="cls-2" d="M1086.31,254.27l2.26-.6"/><path class="cls-2" d="M1047.19,264.75l2.26-.6"/><path class="cls-2" d="M1082.39,239.67l2.26-.6"/><path class="cls-2" d="M1043.27,250.15l2.27-.6"/><path class="cls-2" d="M1045.54,249.55l3.91,14.6"/><path class="cls-2" d="M1082.39,239.67l3.92,14.6"/><path class="cls-2" d="M1047.19,264.75l3,11.14"/><path class="cls-2" d="M1088.57,253.67l3,11.13"/><path class="cls-2" d="M1081.67,227.93l3,11.14"/><path class="cls-2" d="M1040.29,239l3,11.13"/><path class="cls-2" d="M1050.21,275.87l41.3-11.06"/><path class="cls-2" d="M1040.33,239,1081.64,228"/><path class="cls-4" d="M1024.43,1,916.6,29.86"/><path class="cls-5" d="M661.62,56.59l255-26.73"/><path class="cls-5" d="M449.22,56.59h212.4"/><path class="cls-5" d="M449.22,56.59,192.65,29.66"/><path class="cls-5" d="M84.81.77,192.65,29.66"/><path class="cls-5" d="M.76,259.68,67.46,10.79"/><path class="cls-5" d="M61.28,302.32,8.17,276.05"/><path class="cls-5" d="M358.06,382.12,63.89,303.3"/><path class="cls-5" d="M751.19,382.32l-393.13-.2"/><path class="cls-5" d="M1045.35,303.5,751.19,382.32"/><path class="cls-5" d="M1101.07,276.25,1048,302.51"/><path class="cls-5" d="M1108.48,259.88,1041.79,11"/><path class="cls-4" d="M1041.79,11a14.18,14.18,0,0,0-17.36-10h0"/><path class="cls-4" d="M1101.08,276.26a14.18,14.18,0,0,0,7.4-16.37"/><path class="cls-4" d="M1045.36,303.5a14.41,14.41,0,0,0,2.61-1"/><path class="cls-4" d="M61.29,302.32a14.13,14.13,0,0,0,2.61,1"/><path class="cls-4" d="M84.82.77a14.17,14.17,0,0,0-17.36,10"/><path class="cls-4" d="M.77,259.68a14.18,14.18,0,0,0,7.41,16.38"/></g></g></svg>