%TF.GenerationSoftware,KiCad,Pcbnew,(5.99.0-12367-g21313a4c1a)*%
%TF.CreationDate,2021-09-16T15:19:45+01:00*%
%TF.ProjectId,superlyra,73757065-726c-4797-9261-2e6b69636164,0.1*%
%TF.SameCoordinates,Original*%
%TF.FileFunction,Legend,Top*%
%TF.FilePolarity,Positive*%
%FSLAX46Y46*%
G04 Gerber Fmt 4.6, Leading zero omitted, Abs format (unit mm)*
G04 Created by KiCad (PCBNEW (5.99.0-12367-g21313a4c1a)) date 2021-09-16 15:19:45*
%MOMM*%
%LPD*%
G01*
G04 APERTURE LIST*
%ADD10C,0.153000*%
%ADD11C,0.150000*%
%ADD12C,0.125000*%
%ADD13C,0.120000*%
%ADD14C,0.350000*%
%ADD15O,0.600000X1.700000*%
%ADD16O,0.600000X1.200000*%
G04 APERTURE END LIST*
D10*
X202846158Y-78388155D02*
X202765346Y-78415093D01*
X202684534Y-78495905D01*
X202630659Y-78603654D01*
X202630659Y-78711404D01*
X202657597Y-78792216D01*
X202738409Y-78926903D01*
X202819221Y-79007715D01*
X202953908Y-79088528D01*
X203034720Y-79115465D01*
X203142470Y-79115465D01*
X203250219Y-79061590D01*
X203304094Y-79007715D01*
X203357969Y-78899966D01*
X203357969Y-78846091D01*
X203169407Y-78657529D01*
X203061658Y-78765279D01*
X203654280Y-78657529D02*
X203088595Y-78091844D01*
X203977529Y-78334280D01*
X203411844Y-77768595D01*
X204246903Y-78064906D02*
X203681218Y-77499221D01*
X203815905Y-77364534D01*
X203923654Y-77310659D01*
X204031404Y-77310659D01*
X204112216Y-77337597D01*
X204246903Y-77418409D01*
X204327715Y-77499221D01*
X204408528Y-77633908D01*
X204435465Y-77714720D01*
X204435465Y-77822470D01*
X204381590Y-77930219D01*
X204246903Y-78064906D01*
X203166971Y-81824839D02*
X202601285Y-81259154D01*
X203193908Y-81474653D01*
X202978409Y-80882030D01*
X203544094Y-81447715D01*
X203813468Y-81178341D02*
X203247783Y-80612656D01*
X204028967Y-80908967D02*
X204136717Y-80855093D01*
X204271404Y-80720406D01*
X204298341Y-80639593D01*
X204298341Y-80585719D01*
X204271404Y-80504906D01*
X204217529Y-80451032D01*
X204136717Y-80424094D01*
X204082842Y-80424094D01*
X204002030Y-80451032D01*
X203867343Y-80531844D01*
X203786531Y-80558781D01*
X203732656Y-80558781D01*
X203651844Y-80531844D01*
X203597969Y-80477969D01*
X203571032Y-80397157D01*
X203571032Y-80343282D01*
X203597969Y-80262470D01*
X203732656Y-80127783D01*
X203840406Y-80073908D01*
X204163654Y-79696784D02*
X204271404Y-79589035D01*
X204352216Y-79562097D01*
X204459966Y-79562097D01*
X204594653Y-79642910D01*
X204783215Y-79831471D01*
X204864027Y-79966158D01*
X204864027Y-80073908D01*
X204837089Y-80154720D01*
X204729340Y-80262470D01*
X204648528Y-80289407D01*
X204540778Y-80289407D01*
X204406091Y-80208595D01*
X204217529Y-80020033D01*
X204136717Y-79885346D01*
X204136717Y-79777597D01*
X204163654Y-79696784D01*
D11*
X299717652Y-178869878D02*
X299927172Y-179651818D01*
X299905825Y-179756136D01*
X299872153Y-179814457D01*
X299792485Y-179885103D01*
X299654495Y-179922077D01*
X299550178Y-179900730D01*
X299877873Y-179467832D02*
X299798205Y-179538478D01*
X299614219Y-179587777D01*
X299509901Y-179566430D01*
X299451580Y-179532758D01*
X299380934Y-179453090D01*
X299306986Y-179177111D01*
X299328333Y-179072793D01*
X299362005Y-179014472D01*
X299441673Y-178943826D01*
X299625659Y-178894527D01*
X299729976Y-178915874D01*
X300350162Y-179390581D02*
X300177616Y-178746631D01*
X300091343Y-178424656D02*
X300057671Y-178482977D01*
X300115993Y-178516648D01*
X300149664Y-178458327D01*
X300091343Y-178424656D01*
X300115993Y-178516648D01*
X300499592Y-178660358D02*
X300867563Y-178561760D01*
X300551308Y-178301408D02*
X300773153Y-179129345D01*
X300843799Y-179209013D01*
X300948116Y-179230360D01*
X301040109Y-179205711D01*
X301362085Y-179119438D02*
X301103266Y-178153512D01*
X301776053Y-179008515D02*
X301640481Y-178502554D01*
X301569835Y-178422886D01*
X301465517Y-178401539D01*
X301327528Y-178438513D01*
X301247860Y-178509159D01*
X301214188Y-178567480D01*
X302477440Y-178130395D02*
X302649986Y-178774346D01*
X302063471Y-178241317D02*
X302199043Y-178747279D01*
X302269689Y-178826947D01*
X302374007Y-178848294D01*
X302511996Y-178811320D01*
X302591664Y-178740674D01*
X302625336Y-178682353D01*
X303109950Y-178651098D02*
X302851131Y-177685173D01*
X302949729Y-178053144D02*
X303029397Y-177982498D01*
X303213383Y-177933200D01*
X303317701Y-177954547D01*
X303376022Y-177988218D01*
X303446668Y-178067887D01*
X303520616Y-178343865D01*
X303499269Y-178448183D01*
X303465597Y-178506504D01*
X303385929Y-178577150D01*
X303201943Y-178626449D01*
X303097626Y-178605102D01*
X303959234Y-178324936D02*
X304017555Y-178358608D01*
X303983883Y-178416929D01*
X303925562Y-178383257D01*
X303959234Y-178324936D01*
X303983883Y-178416929D01*
X304845491Y-178136763D02*
X304765823Y-178207409D01*
X304581837Y-178256707D01*
X304477520Y-178235360D01*
X304419198Y-178201689D01*
X304348553Y-178122020D01*
X304274604Y-177846042D01*
X304295951Y-177741724D01*
X304329623Y-177683403D01*
X304409291Y-177612757D01*
X304593277Y-177563458D01*
X304697595Y-177584805D01*
X305409774Y-178034863D02*
X305305456Y-178013516D01*
X305247135Y-177979844D01*
X305176489Y-177900176D01*
X305102541Y-177624197D01*
X305123888Y-177519879D01*
X305157559Y-177461558D01*
X305237228Y-177390912D01*
X305375217Y-177353938D01*
X305479535Y-177375285D01*
X305537856Y-177408957D01*
X305608502Y-177488625D01*
X305682450Y-177764604D01*
X305661103Y-177868921D01*
X305627431Y-177927243D01*
X305547763Y-177997888D01*
X305409774Y-178034863D01*
X306145717Y-177837667D02*
X305973171Y-177193717D01*
X305997821Y-177285709D02*
X306031492Y-177227388D01*
X306111161Y-177156742D01*
X306249150Y-177119768D01*
X306353468Y-177141115D01*
X306424114Y-177220784D01*
X306559685Y-177726745D01*
X306424114Y-177220784D02*
X306445461Y-177116466D01*
X306525129Y-177045820D01*
X306663118Y-177008846D01*
X306767436Y-177030193D01*
X306838082Y-177109861D01*
X306973654Y-177615822D01*
X307852422Y-176295782D02*
X307357253Y-177759532D01*
X308445541Y-177221431D02*
X308186722Y-176255505D01*
X308693568Y-176859179D01*
X308830672Y-176082959D01*
X309089491Y-177048885D01*
X309963424Y-176814716D02*
X309827852Y-176308755D01*
X309757206Y-176229086D01*
X309652889Y-176207739D01*
X309468903Y-176257038D01*
X309389235Y-176327684D01*
X309951099Y-176768719D02*
X309871431Y-176839365D01*
X309641449Y-176900989D01*
X309537131Y-176879642D01*
X309466485Y-176799973D01*
X309441836Y-176707980D01*
X309463183Y-176603663D01*
X309542851Y-176533017D01*
X309772833Y-176471393D01*
X309852502Y-176400747D01*
X310561378Y-176654494D02*
X310457060Y-176633147D01*
X310386415Y-176553479D01*
X310164570Y-175725543D01*
X311284997Y-176411302D02*
X311205329Y-176481948D01*
X311021343Y-176531247D01*
X310917025Y-176509900D01*
X310846379Y-176430232D01*
X310747782Y-176062260D01*
X310769129Y-175957943D01*
X310848797Y-175887297D01*
X311032783Y-175837998D01*
X311137100Y-175859345D01*
X311207746Y-175939013D01*
X311232396Y-176031006D01*
X310797080Y-176246246D01*
X311492747Y-175714751D02*
X311895276Y-176297078D01*
X311952712Y-175591503D01*
X312631219Y-176099882D02*
X312526902Y-176078535D01*
X312468580Y-176044863D01*
X312397934Y-175965195D01*
X312323986Y-175689216D01*
X312345333Y-175584899D01*
X312379005Y-175526577D01*
X312458673Y-175455932D01*
X312596663Y-175418957D01*
X312700980Y-175440304D01*
X312759301Y-175473976D01*
X312829947Y-175553644D01*
X312903896Y-175829623D01*
X312882549Y-175933941D01*
X312848877Y-175992262D01*
X312769209Y-176062908D01*
X312631219Y-176099882D01*
X313505152Y-175865712D02*
X313400834Y-175844365D01*
X313330189Y-175764697D01*
X313108344Y-174936761D01*
X313562588Y-175160138D02*
X313930560Y-175061541D01*
X313614305Y-174801189D02*
X313836150Y-175629125D01*
X313906796Y-175708794D01*
X314011113Y-175730141D01*
X314103106Y-175705491D01*
X314425081Y-175619218D02*
X314252535Y-174975268D01*
X314166262Y-174653292D02*
X314132591Y-174711614D01*
X314190912Y-174745285D01*
X314224584Y-174686964D01*
X314166262Y-174653292D01*
X314190912Y-174745285D01*
X315303849Y-174299178D02*
X314808680Y-175762927D01*
X315838647Y-175191155D02*
X315988961Y-175200178D01*
X316218944Y-175138554D01*
X316298612Y-175067908D01*
X316332284Y-175009587D01*
X316353631Y-174905269D01*
X316328981Y-174813277D01*
X316258335Y-174733608D01*
X316200014Y-174699937D01*
X316095697Y-174678590D01*
X315899386Y-174681892D01*
X315795068Y-174660545D01*
X315736747Y-174626873D01*
X315666101Y-174547205D01*
X315641452Y-174455212D01*
X315662799Y-174350894D01*
X315696471Y-174292573D01*
X315776139Y-174221927D01*
X316006121Y-174160304D01*
X316156435Y-174169326D01*
X317058320Y-174223460D02*
X317230866Y-174867410D01*
X316644352Y-174334382D02*
X316779924Y-174840343D01*
X316850570Y-174920012D01*
X316954887Y-174941359D01*
X317092877Y-174904385D01*
X317172545Y-174833739D01*
X317206217Y-174775418D01*
X317518285Y-174100213D02*
X317777104Y-175066139D01*
X317530609Y-174146209D02*
X317610278Y-174075563D01*
X317794263Y-174026264D01*
X317898581Y-174047611D01*
X317956902Y-174081283D01*
X318027548Y-174160951D01*
X318101496Y-174436930D01*
X318080149Y-174541248D01*
X318046478Y-174599569D01*
X317966809Y-174670215D01*
X317782824Y-174719514D01*
X317678506Y-174698167D01*
X318920411Y-174365399D02*
X318840742Y-174436045D01*
X318656756Y-174485344D01*
X318552439Y-174463997D01*
X318481793Y-174384329D01*
X318383195Y-174016357D01*
X318404542Y-173912040D01*
X318484210Y-173841394D01*
X318668196Y-173792095D01*
X318772514Y-173813442D01*
X318843160Y-173893110D01*
X318867809Y-173985103D01*
X318432494Y-174200343D01*
X319392700Y-174288149D02*
X319220154Y-173644198D01*
X319269453Y-173828184D02*
X319290800Y-173723866D01*
X319324472Y-173665545D01*
X319404140Y-173594899D01*
X319496133Y-173570250D01*
X320450619Y-174004680D02*
X319990654Y-174127927D01*
X319731835Y-173162002D01*
X320508055Y-173299106D02*
X320910583Y-173881433D01*
X320968020Y-173175859D02*
X320910583Y-173881433D01*
X320880214Y-174136065D01*
X320846542Y-174194386D01*
X320766874Y-174265032D01*
X321508538Y-173721212D02*
X321335991Y-173077261D01*
X321385290Y-173261247D02*
X321406637Y-173156929D01*
X321440309Y-173098608D01*
X321519977Y-173027962D01*
X321611970Y-173003313D01*
X322520460Y-173450068D02*
X322384888Y-172944107D01*
X322314242Y-172864439D01*
X322209924Y-172843092D01*
X322025938Y-172892391D01*
X321946270Y-172963036D01*
X322508135Y-173404072D02*
X322428467Y-173474717D01*
X322198485Y-173536341D01*
X322094167Y-173514994D01*
X322023521Y-173435326D01*
X321998872Y-173343333D01*
X322020219Y-173239015D01*
X322099887Y-173168369D01*
X322329869Y-173106746D01*
X322409537Y-173036100D01*
X323451829Y-172510324D02*
X323854357Y-173092651D01*
X323911794Y-172387077D01*
X324807958Y-172787836D02*
X324728290Y-172858482D01*
X324544304Y-172907781D01*
X324439987Y-172886434D01*
X324369341Y-172806765D01*
X324270743Y-172438794D01*
X324292090Y-172334476D01*
X324371758Y-172263830D01*
X324555744Y-172214531D01*
X324660062Y-172235878D01*
X324730708Y-172315546D01*
X324755357Y-172407539D01*
X324320042Y-172622779D01*
X325280248Y-172710585D02*
X325107702Y-172066635D01*
X325157001Y-172250620D02*
X325178348Y-172146303D01*
X325212020Y-172087982D01*
X325291688Y-172017336D01*
X325383681Y-171992686D01*
X325853553Y-172458371D02*
X325911874Y-172492043D01*
X325878202Y-172550364D01*
X325819881Y-172516692D01*
X325853553Y-172458371D01*
X325878202Y-172550364D01*
X326999277Y-171214696D02*
X327091270Y-171190047D01*
X327195588Y-171211394D01*
X327253909Y-171245066D01*
X327324555Y-171324734D01*
X327419850Y-171496395D01*
X327481474Y-171726378D01*
X327484776Y-171922688D01*
X327463429Y-172027006D01*
X327429757Y-172085327D01*
X327350089Y-172155973D01*
X327258096Y-172180622D01*
X327153778Y-172159275D01*
X327095457Y-172125603D01*
X327024811Y-172045935D01*
X326929516Y-171874274D01*
X326867892Y-171644292D01*
X326864590Y-171447981D01*
X326885937Y-171343664D01*
X326919609Y-171285342D01*
X326999277Y-171214696D01*
X327969390Y-171891434D02*
X328027711Y-171925106D01*
X327994039Y-171983427D01*
X327935718Y-171949755D01*
X327969390Y-171891434D01*
X327994039Y-171983427D01*
X328655150Y-170771007D02*
X328195185Y-170894254D01*
X328272436Y-171366543D01*
X328306108Y-171308222D01*
X328385776Y-171237576D01*
X328615758Y-171175953D01*
X328720076Y-171197300D01*
X328778397Y-171230971D01*
X328849043Y-171310640D01*
X328910666Y-171540622D01*
X328889319Y-171644940D01*
X328855648Y-171703261D01*
X328775979Y-171773907D01*
X328545997Y-171835530D01*
X328441679Y-171814183D01*
X328383358Y-171780511D01*
X330484454Y-171710513D02*
X330426132Y-171676842D01*
X330297165Y-171563502D01*
X330226519Y-171483833D01*
X330143549Y-171358169D01*
X330035929Y-171140511D01*
X329986630Y-170956525D01*
X329971003Y-170714218D01*
X329980025Y-170563904D01*
X330001372Y-170459586D01*
X330056391Y-170296948D01*
X330090063Y-170238626D01*
X331109475Y-171099350D02*
X331029806Y-171169996D01*
X330845820Y-171219294D01*
X330741503Y-171197947D01*
X330670857Y-171118279D01*
X330572259Y-170750307D01*
X330593606Y-170645990D01*
X330673274Y-170575344D01*
X330857260Y-170526045D01*
X330961578Y-170547392D01*
X331032224Y-170627060D01*
X331056873Y-170719053D01*
X330621558Y-170934293D01*
X331317225Y-170402798D02*
X331719753Y-170985125D01*
X331777190Y-170279551D01*
X332731676Y-170713981D02*
X332596104Y-170208020D01*
X332525458Y-170128352D01*
X332421140Y-170107005D01*
X332237154Y-170156303D01*
X332157486Y-170226949D01*
X332719351Y-170667985D02*
X332639683Y-170738630D01*
X332409700Y-170800254D01*
X332305383Y-170778907D01*
X332234737Y-170699239D01*
X332210087Y-170607246D01*
X332231434Y-170502928D01*
X332311103Y-170432282D01*
X332541085Y-170370659D01*
X332620753Y-170300013D01*
X333329630Y-170553760D02*
X333225312Y-170532413D01*
X333154666Y-170452744D01*
X332932821Y-169624808D01*
X333939024Y-169700289D02*
X334111570Y-170344240D01*
X333525055Y-169811211D02*
X333660627Y-170317173D01*
X333731273Y-170396841D01*
X333835591Y-170418188D01*
X333973580Y-170381214D01*
X334053249Y-170310568D01*
X334086920Y-170252247D01*
X334985503Y-170110070D02*
X334849931Y-169604109D01*
X334779285Y-169524441D01*
X334674967Y-169503094D01*
X334490981Y-169552392D01*
X334411313Y-169623038D01*
X334973178Y-170064073D02*
X334893510Y-170134719D01*
X334663527Y-170196343D01*
X334559210Y-170174996D01*
X334488564Y-170095328D01*
X334463914Y-170003335D01*
X334485261Y-169899017D01*
X334564930Y-169828371D01*
X334794912Y-169766748D01*
X334874580Y-169696102D01*
X335134932Y-169379846D02*
X335502904Y-169281249D01*
X335186648Y-169020897D02*
X335408493Y-169848833D01*
X335479139Y-169928502D01*
X335583457Y-169949849D01*
X335675450Y-169925199D01*
X335997425Y-169838926D02*
X335824879Y-169194976D01*
X335738606Y-168873000D02*
X335704934Y-168931322D01*
X335763255Y-168964993D01*
X335796927Y-168906672D01*
X335738606Y-168873000D01*
X335763255Y-168964993D01*
X336595379Y-169678705D02*
X336491061Y-169657358D01*
X336432740Y-169623686D01*
X336362094Y-169544018D01*
X336288146Y-169268039D01*
X336309493Y-169163721D01*
X336343165Y-169105400D01*
X336422833Y-169034754D01*
X336560822Y-168997780D01*
X336665140Y-169019127D01*
X336723461Y-169052799D01*
X336794107Y-169132467D01*
X336868055Y-169408446D01*
X336846708Y-169512764D01*
X336813037Y-169571085D01*
X336733368Y-169641731D01*
X336595379Y-169678705D01*
X337158776Y-168837559D02*
X337331322Y-169481509D01*
X337183426Y-168929552D02*
X337217098Y-168871231D01*
X337296766Y-168800585D01*
X337434755Y-168763611D01*
X337539073Y-168784958D01*
X337609719Y-168864626D01*
X337745291Y-169370587D01*
X338211860Y-169639961D02*
X338245532Y-169581640D01*
X338300551Y-169419001D01*
X338321898Y-169314683D01*
X338330920Y-169164369D01*
X338315293Y-168922062D01*
X338265994Y-168738076D01*
X338158374Y-168520419D01*
X338075403Y-168394754D01*
X338004758Y-168315086D01*
X337875790Y-168201746D01*
X337817469Y-168168074D01*
X310529552Y-177639633D02*
X310932081Y-178221960D01*
X310989517Y-177516386D02*
X310932081Y-178221960D01*
X310901711Y-178476592D01*
X310868040Y-178534913D01*
X310788371Y-178605559D01*
X311668024Y-178024765D02*
X311563707Y-178003418D01*
X311505385Y-177969746D01*
X311434739Y-177890078D01*
X311360791Y-177614099D01*
X311382138Y-177509781D01*
X311415810Y-177451460D01*
X311495478Y-177380814D01*
X311633468Y-177343840D01*
X311737785Y-177365187D01*
X311796106Y-177398859D01*
X311866752Y-177478527D01*
X311940701Y-177754506D01*
X311919354Y-177858823D01*
X311885682Y-177917145D01*
X311806014Y-177987790D01*
X311668024Y-178024765D01*
X312645390Y-177072696D02*
X312817936Y-177716647D01*
X312231422Y-177183619D02*
X312366994Y-177689580D01*
X312437639Y-177769248D01*
X312541957Y-177790595D01*
X312679946Y-177753621D01*
X312759615Y-177682975D01*
X312793286Y-177624654D01*
X312967365Y-176986423D02*
X313335337Y-176887825D01*
X313019081Y-176627474D02*
X313240926Y-177455410D01*
X313311572Y-177535078D01*
X313415890Y-177556425D01*
X313507883Y-177531776D01*
X314071280Y-176690630D02*
X314243826Y-177334580D01*
X313657312Y-176801552D02*
X313792884Y-177307514D01*
X313863530Y-177387182D01*
X313967848Y-177408529D01*
X314105837Y-177371555D01*
X314185505Y-177300909D01*
X314219177Y-177242588D01*
X314679142Y-177119340D02*
X314737463Y-177153012D01*
X314703791Y-177211333D01*
X314645470Y-177177662D01*
X314679142Y-177119340D01*
X314703791Y-177211333D01*
X315163756Y-177088086D02*
X314904937Y-176122160D01*
X315003534Y-176490132D02*
X315083203Y-176419486D01*
X315267189Y-176370187D01*
X315371506Y-176391534D01*
X315429827Y-176425206D01*
X315500473Y-176504874D01*
X315574422Y-176780853D01*
X315553075Y-176885171D01*
X315519403Y-176943492D01*
X315439735Y-177014138D01*
X315255749Y-177063437D01*
X315151431Y-177042090D01*
X316393336Y-176709322D02*
X316313667Y-176779968D01*
X316129682Y-176829267D01*
X316025364Y-176807920D01*
X315954718Y-176728252D01*
X315856120Y-176360280D01*
X315877467Y-176255962D01*
X315957136Y-176185317D01*
X316141121Y-176136018D01*
X316245439Y-176157365D01*
X316316085Y-176237033D01*
X316340734Y-176329026D01*
X315905419Y-176544266D01*
X317284428Y-175435279D02*
X316789259Y-176899028D01*
X317867640Y-175771996D02*
X317763322Y-175750649D01*
X317705001Y-175716977D01*
X317634355Y-175637309D01*
X317622031Y-175591313D01*
X317643378Y-175486995D01*
X317677049Y-175428674D01*
X317756718Y-175358028D01*
X317940704Y-175308729D01*
X318045021Y-175330076D01*
X318103342Y-175363748D01*
X318173988Y-175443416D01*
X318186313Y-175489413D01*
X318164966Y-175593730D01*
X318131294Y-175652051D01*
X318051626Y-175722697D01*
X317867640Y-175771996D01*
X317787972Y-175842642D01*
X317754300Y-175900963D01*
X317732953Y-176005281D01*
X317782252Y-176189267D01*
X317852898Y-176268935D01*
X317911219Y-176302607D01*
X318015537Y-176323954D01*
X318199523Y-176274655D01*
X318279191Y-176204009D01*
X318312863Y-176145688D01*
X318334210Y-176041370D01*
X318284911Y-175857384D01*
X318214265Y-175777716D01*
X318155944Y-175744044D01*
X318051626Y-175722697D01*
X319324785Y-175874544D02*
X319291113Y-175932865D01*
X319165448Y-176015836D01*
X319073455Y-176040485D01*
X318923141Y-176031463D01*
X318806499Y-175964119D01*
X318735853Y-175884451D01*
X318640558Y-175712790D01*
X318603584Y-175574801D01*
X318600281Y-175378490D01*
X318621628Y-175274172D01*
X318688972Y-175157530D01*
X318814636Y-175074559D01*
X318906629Y-175049910D01*
X319056944Y-175058932D01*
X319115265Y-175092604D01*
X319763403Y-175855614D02*
X319504583Y-174889689D01*
X319872555Y-174791091D01*
X319976873Y-174812438D01*
X320035194Y-174846110D01*
X320105840Y-174925778D01*
X320142814Y-175063767D01*
X320121467Y-175168085D01*
X320087795Y-175226406D01*
X320008127Y-175297052D01*
X319640155Y-175395650D01*
X320884478Y-174519947D02*
X320700492Y-174569246D01*
X320620823Y-174639892D01*
X320587152Y-174698213D01*
X320532133Y-174860852D01*
X320535435Y-175057163D01*
X320634033Y-175425134D01*
X320704679Y-175504803D01*
X320763000Y-175538474D01*
X320867318Y-175559821D01*
X321051304Y-175510522D01*
X321130972Y-175439877D01*
X321164644Y-175381555D01*
X321185991Y-175277238D01*
X321124367Y-175047255D01*
X321053721Y-174967587D01*
X320995400Y-174933915D01*
X320891082Y-174912568D01*
X320707096Y-174961867D01*
X320627428Y-175032513D01*
X320593756Y-175090834D01*
X320572409Y-175195152D01*
X322176566Y-175110412D02*
X322142894Y-175168733D01*
X322017229Y-175251703D01*
X321925237Y-175276353D01*
X321774922Y-175267331D01*
X321658280Y-175199987D01*
X321587634Y-175120319D01*
X321492339Y-174948658D01*
X321455365Y-174810668D01*
X321452062Y-174614358D01*
X321473409Y-174510040D01*
X321540753Y-174393398D01*
X321666417Y-174310427D01*
X321758410Y-174285778D01*
X321908725Y-174294800D01*
X321967046Y-174328472D01*
X322615184Y-175091482D02*
X322356364Y-174125556D01*
X323029152Y-174980560D02*
X322893580Y-174474598D01*
X322822934Y-174394930D01*
X322718616Y-174373583D01*
X322580627Y-174410557D01*
X322500959Y-174481203D01*
X322467287Y-174539524D01*
X323430795Y-174823641D02*
X323535113Y-174844988D01*
X323719099Y-174795689D01*
X323798767Y-174725043D01*
X323820114Y-174620725D01*
X323807789Y-174574729D01*
X323737143Y-174495061D01*
X323632826Y-174473714D01*
X323494836Y-174510688D01*
X323390519Y-174489341D01*
X323319873Y-174409673D01*
X323307548Y-174363676D01*
X323328895Y-174259358D01*
X323408563Y-174188712D01*
X323546553Y-174151738D01*
X323650870Y-174173085D01*
X324212735Y-174614121D02*
X324317053Y-174635468D01*
X324501039Y-174586169D01*
X324580707Y-174515523D01*
X324602054Y-174411205D01*
X324589729Y-174365209D01*
X324519083Y-174285540D01*
X324414766Y-174264193D01*
X324276776Y-174301168D01*
X324172459Y-174279821D01*
X324101813Y-174200152D01*
X324089488Y-174154156D01*
X324110835Y-174049838D01*
X324190503Y-173979192D01*
X324328493Y-173942218D01*
X324432810Y-173963565D01*
X324978163Y-173423047D02*
X325070156Y-173398398D01*
X325174474Y-173419745D01*
X325232795Y-173453417D01*
X325303441Y-173533085D01*
X325398736Y-173704746D01*
X325460360Y-173934728D01*
X325463662Y-174131039D01*
X325442315Y-174235357D01*
X325408643Y-174293678D01*
X325328975Y-174364324D01*
X325236982Y-174388973D01*
X325132665Y-174367626D01*
X325074343Y-174333954D01*
X325003697Y-174254286D01*
X324908402Y-174082625D01*
X324846779Y-173852643D01*
X324843476Y-173656332D01*
X324864823Y-173552015D01*
X324898495Y-173493693D01*
X324978163Y-173423047D01*
X325708387Y-173572477D02*
X326110915Y-174154804D01*
X326168351Y-173449229D02*
X326110915Y-174154804D01*
X326080546Y-174409435D01*
X326046874Y-174467757D01*
X325967206Y-174538402D01*
X326634036Y-172979358D02*
X326726029Y-172954708D01*
X326830347Y-172976055D01*
X326888668Y-173009727D01*
X326959314Y-173089395D01*
X327054609Y-173261056D01*
X327116233Y-173491039D01*
X327119535Y-173687349D01*
X327098188Y-173791667D01*
X327064516Y-173849988D01*
X326984848Y-173920634D01*
X326892855Y-173945283D01*
X326788537Y-173923936D01*
X326730216Y-173890265D01*
X326659570Y-173810596D01*
X326564275Y-173638935D01*
X326502651Y-173408953D01*
X326499349Y-173212642D01*
X326520696Y-173108325D01*
X326554368Y-173050004D01*
X326634036Y-172979358D01*
D10*
X202635972Y-83934467D02*
X203390219Y-84311590D01*
X203013096Y-83557343D01*
X204036717Y-83557343D02*
X204036717Y-83611218D01*
X203982842Y-83718967D01*
X203928967Y-83772842D01*
X203821218Y-83826717D01*
X203713468Y-83826717D01*
X203632656Y-83799780D01*
X203497969Y-83718967D01*
X203417157Y-83638155D01*
X203336345Y-83503468D01*
X203309407Y-83422656D01*
X203309407Y-83314906D01*
X203363282Y-83207157D01*
X203417157Y-83153282D01*
X203524906Y-83099407D01*
X203578781Y-83099407D01*
X204602402Y-82991658D02*
X204602402Y-83045532D01*
X204548528Y-83153282D01*
X204494653Y-83207157D01*
X204386903Y-83261032D01*
X204279154Y-83261032D01*
X204198341Y-83234094D01*
X204063654Y-83153282D01*
X203982842Y-83072470D01*
X203902030Y-82937783D01*
X203875093Y-82856971D01*
X203875093Y-82749221D01*
X203928967Y-82641471D01*
X203982842Y-82587597D01*
X204090592Y-82533722D01*
X204144467Y-82533722D01*
X194816971Y-84444839D02*
X194251285Y-83879154D01*
X194843908Y-84094653D01*
X194628409Y-83502030D01*
X195194094Y-84067715D01*
X195005532Y-83124906D02*
X195113282Y-83017157D01*
X195194094Y-82990219D01*
X195301844Y-82990219D01*
X195436531Y-83071032D01*
X195625093Y-83259593D01*
X195705905Y-83394280D01*
X195705905Y-83502030D01*
X195678967Y-83582842D01*
X195571218Y-83690592D01*
X195490406Y-83717529D01*
X195382656Y-83717529D01*
X195247969Y-83636717D01*
X195059407Y-83448155D01*
X194978595Y-83313468D01*
X194978595Y-83205719D01*
X195005532Y-83124906D01*
X196002216Y-83205719D02*
X196109966Y-83151844D01*
X196244653Y-83017157D01*
X196271590Y-82936345D01*
X196271590Y-82882470D01*
X196244653Y-82801658D01*
X196190778Y-82747783D01*
X196109966Y-82720845D01*
X196056091Y-82720845D01*
X195975279Y-82747783D01*
X195840592Y-82828595D01*
X195759780Y-82855532D01*
X195705905Y-82855532D01*
X195625093Y-82828595D01*
X195571218Y-82774720D01*
X195544280Y-82693908D01*
X195544280Y-82640033D01*
X195571218Y-82559221D01*
X195705905Y-82424534D01*
X195813654Y-82370659D01*
X196594839Y-82666971D02*
X196029154Y-82101285D01*
X195131658Y-81726277D02*
X195239407Y-81672402D01*
X195374094Y-81537715D01*
X195401032Y-81456903D01*
X195401032Y-81403028D01*
X195374094Y-81322216D01*
X195320219Y-81268341D01*
X195239407Y-81241404D01*
X195185532Y-81241404D01*
X195104720Y-81268341D01*
X194970033Y-81349154D01*
X194889221Y-81376091D01*
X194835346Y-81376091D01*
X194754534Y-81349154D01*
X194700659Y-81295279D01*
X194673722Y-81214467D01*
X194673722Y-81160592D01*
X194700659Y-81079780D01*
X194835346Y-80945093D01*
X194943096Y-80891218D01*
X195993654Y-80810406D02*
X195993654Y-80864280D01*
X195939780Y-80972030D01*
X195885905Y-81025905D01*
X195778155Y-81079780D01*
X195670406Y-81079780D01*
X195589593Y-81052842D01*
X195454906Y-80972030D01*
X195374094Y-80891218D01*
X195293282Y-80756531D01*
X195266345Y-80675719D01*
X195266345Y-80567969D01*
X195320219Y-80460219D01*
X195374094Y-80406345D01*
X195481844Y-80352470D01*
X195535719Y-80352470D01*
X196289966Y-80621844D02*
X195724280Y-80056158D01*
X196613215Y-80298595D02*
X196047529Y-80217783D01*
X196047529Y-79732910D02*
X196047529Y-80379407D01*
D11*
X195756125Y-78795685D02*
X195298189Y-78714873D01*
X195432876Y-79118934D02*
X194867190Y-78553248D01*
X195082690Y-78337749D01*
X195163502Y-78310812D01*
X195217377Y-78310812D01*
X195298189Y-78337749D01*
X195379001Y-78418561D01*
X195405938Y-78499374D01*
X195405938Y-78553248D01*
X195379001Y-78634061D01*
X195163502Y-78849560D01*
X195944687Y-78553248D02*
X196052436Y-78499374D01*
X196187123Y-78364687D01*
X196214061Y-78283874D01*
X196214061Y-78230000D01*
X196187123Y-78149187D01*
X196133248Y-78095312D01*
X196052436Y-78068375D01*
X195998561Y-78068375D01*
X195917749Y-78095312D01*
X195783062Y-78176125D01*
X195702250Y-78203062D01*
X195648375Y-78203062D01*
X195567563Y-78176125D01*
X195513688Y-78122250D01*
X195486751Y-78041438D01*
X195486751Y-77987563D01*
X195513688Y-77906751D01*
X195648375Y-77772064D01*
X195756125Y-77718189D01*
X195890812Y-77529627D02*
X196214061Y-77206378D01*
X196618122Y-77933688D02*
X196052436Y-77368003D01*
D10*
X187517142Y-83881904D02*
X187250476Y-83500952D01*
X187060000Y-83881904D02*
X187060000Y-83081904D01*
X187364761Y-83081904D01*
X187440952Y-83120000D01*
X187479047Y-83158095D01*
X187517142Y-83234285D01*
X187517142Y-83348571D01*
X187479047Y-83424761D01*
X187440952Y-83462857D01*
X187364761Y-83500952D01*
X187060000Y-83500952D01*
X187860000Y-83462857D02*
X188126666Y-83462857D01*
X188240952Y-83881904D02*
X187860000Y-83881904D01*
X187860000Y-83081904D01*
X188240952Y-83081904D01*
X188545714Y-83843809D02*
X188660000Y-83881904D01*
X188850476Y-83881904D01*
X188926666Y-83843809D01*
X188964761Y-83805714D01*
X189002857Y-83729523D01*
X189002857Y-83653333D01*
X188964761Y-83577142D01*
X188926666Y-83539047D01*
X188850476Y-83500952D01*
X188698095Y-83462857D01*
X188621904Y-83424761D01*
X188583809Y-83386666D01*
X188545714Y-83310476D01*
X188545714Y-83234285D01*
X188583809Y-83158095D01*
X188621904Y-83120000D01*
X188698095Y-83081904D01*
X188888571Y-83081904D01*
X189002857Y-83120000D01*
X189345714Y-83462857D02*
X189612380Y-83462857D01*
X189726666Y-83881904D02*
X189345714Y-83881904D01*
X189345714Y-83081904D01*
X189726666Y-83081904D01*
X189955238Y-83081904D02*
X190412380Y-83081904D01*
X190183809Y-83881904D02*
X190183809Y-83081904D01*
X191288571Y-83881904D02*
X191288571Y-83081904D01*
X191555238Y-83653333D01*
X191821904Y-83081904D01*
X191821904Y-83881904D01*
X192660000Y-83805714D02*
X192621904Y-83843809D01*
X192507619Y-83881904D01*
X192431428Y-83881904D01*
X192317142Y-83843809D01*
X192240952Y-83767619D01*
X192202857Y-83691428D01*
X192164761Y-83539047D01*
X192164761Y-83424761D01*
X192202857Y-83272380D01*
X192240952Y-83196190D01*
X192317142Y-83120000D01*
X192431428Y-83081904D01*
X192507619Y-83081904D01*
X192621904Y-83120000D01*
X192660000Y-83158095D01*
X193002857Y-83081904D02*
X193002857Y-83729523D01*
X193040952Y-83805714D01*
X193079047Y-83843809D01*
X193155238Y-83881904D01*
X193307619Y-83881904D01*
X193383809Y-83843809D01*
X193421904Y-83805714D01*
X193460000Y-83729523D01*
X193460000Y-83081904D01*
D12*
X175594000Y-92010666D02*
X175594000Y-91310666D01*
X175594000Y-91577333D02*
X175660666Y-91544000D01*
X175794000Y-91544000D01*
X175860666Y-91577333D01*
X175894000Y-91610666D01*
X175927333Y-91677333D01*
X175927333Y-91877333D01*
X175894000Y-91944000D01*
X175860666Y-91977333D01*
X175794000Y-92010666D01*
X175660666Y-92010666D01*
X175594000Y-91977333D01*
X176160666Y-91544000D02*
X176327333Y-92010666D01*
X176494000Y-91544000D02*
X176327333Y-92010666D01*
X176260666Y-92177333D01*
X176227333Y-92210666D01*
X176160666Y-92244000D01*
X177294000Y-92010666D02*
X177294000Y-91310666D01*
X177460666Y-91310666D01*
X177560666Y-91344000D01*
X177627333Y-91410666D01*
X177660666Y-91477333D01*
X177694000Y-91610666D01*
X177694000Y-91710666D01*
X177660666Y-91844000D01*
X177627333Y-91910666D01*
X177560666Y-91977333D01*
X177460666Y-92010666D01*
X177294000Y-92010666D01*
X178094000Y-92010666D02*
X178027333Y-91977333D01*
X177994000Y-91944000D01*
X177960666Y-91877333D01*
X177960666Y-91677333D01*
X177994000Y-91610666D01*
X178027333Y-91577333D01*
X178094000Y-91544000D01*
X178194000Y-91544000D01*
X178260666Y-91577333D01*
X178294000Y-91610666D01*
X178327333Y-91677333D01*
X178327333Y-91877333D01*
X178294000Y-91944000D01*
X178260666Y-91977333D01*
X178194000Y-92010666D01*
X178094000Y-92010666D01*
X178627333Y-92010666D02*
X178627333Y-91544000D01*
X178627333Y-91610666D02*
X178660666Y-91577333D01*
X178727333Y-91544000D01*
X178827333Y-91544000D01*
X178894000Y-91577333D01*
X178927333Y-91644000D01*
X178927333Y-92010666D01*
X178927333Y-91644000D02*
X178960666Y-91577333D01*
X179027333Y-91544000D01*
X179127333Y-91544000D01*
X179194000Y-91577333D01*
X179227333Y-91644000D01*
X179227333Y-92010666D01*
X179860666Y-92010666D02*
X179860666Y-91644000D01*
X179827333Y-91577333D01*
X179760666Y-91544000D01*
X179627333Y-91544000D01*
X179560666Y-91577333D01*
X179860666Y-91977333D02*
X179794000Y-92010666D01*
X179627333Y-92010666D01*
X179560666Y-91977333D01*
X179527333Y-91910666D01*
X179527333Y-91844000D01*
X179560666Y-91777333D01*
X179627333Y-91744000D01*
X179794000Y-91744000D01*
X179860666Y-91710666D01*
X180194000Y-91544000D02*
X180194000Y-92010666D01*
X180194000Y-91610666D02*
X180227333Y-91577333D01*
X180294000Y-91544000D01*
X180394000Y-91544000D01*
X180460666Y-91577333D01*
X180494000Y-91644000D01*
X180494000Y-92010666D01*
X180827333Y-92010666D02*
X180827333Y-91544000D01*
X180827333Y-91310666D02*
X180794000Y-91344000D01*
X180827333Y-91377333D01*
X180860666Y-91344000D01*
X180827333Y-91310666D01*
X180827333Y-91377333D01*
X181460666Y-91977333D02*
X181394000Y-92010666D01*
X181260666Y-92010666D01*
X181194000Y-91977333D01*
X181160666Y-91944000D01*
X181127333Y-91877333D01*
X181127333Y-91677333D01*
X181160666Y-91610666D01*
X181194000Y-91577333D01*
X181260666Y-91544000D01*
X181394000Y-91544000D01*
X181460666Y-91577333D01*
X182694000Y-91944000D02*
X182660666Y-91977333D01*
X182560666Y-92010666D01*
X182494000Y-92010666D01*
X182394000Y-91977333D01*
X182327333Y-91910666D01*
X182294000Y-91844000D01*
X182260666Y-91710666D01*
X182260666Y-91610666D01*
X182294000Y-91477333D01*
X182327333Y-91410666D01*
X182394000Y-91344000D01*
X182494000Y-91310666D01*
X182560666Y-91310666D01*
X182660666Y-91344000D01*
X182694000Y-91377333D01*
X183294000Y-92010666D02*
X183294000Y-91644000D01*
X183260666Y-91577333D01*
X183194000Y-91544000D01*
X183060666Y-91544000D01*
X182994000Y-91577333D01*
X183294000Y-91977333D02*
X183227333Y-92010666D01*
X183060666Y-92010666D01*
X182994000Y-91977333D01*
X182960666Y-91910666D01*
X182960666Y-91844000D01*
X182994000Y-91777333D01*
X183060666Y-91744000D01*
X183227333Y-91744000D01*
X183294000Y-91710666D01*
X183727333Y-92010666D02*
X183660666Y-91977333D01*
X183627333Y-91910666D01*
X183627333Y-91310666D01*
X184094000Y-92010666D02*
X184027333Y-91977333D01*
X183994000Y-91910666D01*
X183994000Y-91310666D01*
X184627333Y-91977333D02*
X184560666Y-92010666D01*
X184427333Y-92010666D01*
X184360666Y-91977333D01*
X184327333Y-91910666D01*
X184327333Y-91644000D01*
X184360666Y-91577333D01*
X184427333Y-91544000D01*
X184560666Y-91544000D01*
X184627333Y-91577333D01*
X184660666Y-91644000D01*
X184660666Y-91710666D01*
X184327333Y-91777333D01*
X184960666Y-91544000D02*
X184960666Y-92144000D01*
X184927333Y-92210666D01*
X184860666Y-92244000D01*
X184827333Y-92244000D01*
X184960666Y-91310666D02*
X184927333Y-91344000D01*
X184960666Y-91377333D01*
X184994000Y-91344000D01*
X184960666Y-91310666D01*
X184960666Y-91377333D01*
X185594000Y-92010666D02*
X185594000Y-91644000D01*
X185560666Y-91577333D01*
X185494000Y-91544000D01*
X185360666Y-91544000D01*
X185294000Y-91577333D01*
X185594000Y-91977333D02*
X185527333Y-92010666D01*
X185360666Y-92010666D01*
X185294000Y-91977333D01*
X185260666Y-91910666D01*
X185260666Y-91844000D01*
X185294000Y-91777333D01*
X185360666Y-91744000D01*
X185527333Y-91744000D01*
X185594000Y-91710666D01*
D11*
%TO.C,Y1*%
X225364190Y-87471190D02*
X225840380Y-87471190D01*
X224840380Y-87804523D02*
X225364190Y-87471190D01*
X224840380Y-87137857D01*
X225840380Y-86280714D02*
X225840380Y-86852142D01*
X225840380Y-86566428D02*
X224840380Y-86566428D01*
X224983238Y-86661666D01*
X225078476Y-86756904D01*
X225126095Y-86852142D01*
D13*
%TO.C,C2*%
X239156080Y-77249239D02*
X237719239Y-78686080D01*
X237719239Y-78686080D02*
X238383920Y-79350761D01*
X238383920Y-79350761D02*
X239820761Y-77913920D01*
X239156080Y-77249239D02*
X239820761Y-77913920D01*
%TO.C,C3*%
X243546080Y-81779239D02*
X244210761Y-82443920D01*
X243546080Y-81779239D02*
X242109239Y-83216080D01*
X242773920Y-83880761D02*
X244210761Y-82443920D01*
X242109239Y-83216080D02*
X242773920Y-83880761D01*
%TO.C,C4*%
X237643920Y-91810761D02*
X236979239Y-91146080D01*
X238416080Y-89709239D02*
X236979239Y-91146080D01*
X237643920Y-91810761D02*
X239080761Y-90373920D01*
X239080761Y-90373920D02*
X238416080Y-89709239D01*
%TO.C,C5*%
X233172000Y-82004000D02*
X233172000Y-81064000D01*
X233172000Y-81064000D02*
X231140000Y-81064000D01*
X231140000Y-82004000D02*
X233172000Y-82004000D01*
X231140000Y-82004000D02*
X231140000Y-81064000D01*
%TO.C,J2*%
X199644000Y-84642000D02*
X199644000Y-82042000D01*
X202244000Y-84642000D02*
X199644000Y-84642000D01*
X202244000Y-84642000D02*
X202244000Y-76902000D01*
X198374000Y-84642000D02*
X197044000Y-84642000D01*
X199644000Y-82042000D02*
X197044000Y-82042000D01*
X197044000Y-84642000D02*
X197044000Y-83312000D01*
X197044000Y-82042000D02*
X197044000Y-76902000D01*
X202244000Y-76902000D02*
X197044000Y-76902000D01*
%TO.C,R1*%
X232323621Y-79884000D02*
X231988379Y-79884000D01*
X232323621Y-80644000D02*
X231988379Y-80644000D01*
%TO.C,R2*%
X232323621Y-78868000D02*
X231988379Y-78868000D01*
X232323621Y-79628000D02*
X231988379Y-79628000D01*
%TO.C,R3*%
X231520000Y-85811379D02*
X231520000Y-86146621D01*
X230760000Y-85811379D02*
X230760000Y-86146621D01*
%TO.C,R4*%
X243039825Y-86787227D02*
X242802773Y-86550175D01*
X243577227Y-86249825D02*
X243340175Y-86012773D01*
%TO.C,R5*%
X215107621Y-84910000D02*
X214772379Y-84910000D01*
X215107621Y-84150000D02*
X214772379Y-84150000D01*
%TO.C,R6*%
X204782379Y-84920000D02*
X205117621Y-84920000D01*
X204782379Y-84160000D02*
X205117621Y-84160000D01*
%TO.C,U1*%
X236977348Y-89174659D02*
X237490000Y-89687311D01*
X238002652Y-79989341D02*
X237490000Y-79476689D01*
X232897341Y-85094652D02*
X232384689Y-84582000D01*
X242595311Y-84582000D02*
X242082659Y-85094652D01*
X242082659Y-84069348D02*
X242595311Y-84582000D01*
X237490000Y-89687311D02*
X238002652Y-89174659D01*
X232384689Y-84582000D02*
X232897341Y-84069348D01*
%TO.C,U2*%
X219340000Y-80686000D02*
X216890000Y-80686000D01*
X217540000Y-83906000D02*
X219340000Y-83906000D01*
%TO.C,C1*%
X235533920Y-79770761D02*
X236970761Y-78333920D01*
X236306080Y-77669239D02*
X236970761Y-78333920D01*
X236306080Y-77669239D02*
X234869239Y-79106080D01*
X234869239Y-79106080D02*
X235533920Y-79770761D01*
%TO.C,J1*%
X205241997Y-80640000D02*
X205241997Y-78640000D01*
X205241997Y-76740000D02*
X205241997Y-74840000D01*
X214641997Y-80640000D02*
X214641997Y-78640000D01*
X214641997Y-76740000D02*
X214641997Y-74840000D01*
X214641997Y-74840000D02*
X205241997Y-74840000D01*
%TO.C,SWRST1*%
X191946000Y-77456000D02*
X191496000Y-77006000D01*
X188996000Y-82506000D02*
X191496000Y-82506000D01*
X188996000Y-77006000D02*
X191496000Y-77006000D01*
X192996000Y-78756000D02*
X192996000Y-80756000D01*
X188546000Y-82056000D02*
X188996000Y-82506000D01*
X188546000Y-77456000D02*
X188996000Y-77006000D01*
X187496000Y-78756000D02*
X187496000Y-80756000D01*
X191946000Y-82056000D02*
X191496000Y-82506000D01*
%TO.C,D1*%
X54971502Y-83210969D02*
X55967956Y-79492154D01*
X54971502Y-83210969D02*
X56903354Y-83728607D01*
X56903354Y-83728607D02*
X57899807Y-80009792D01*
%TO.C,D2*%
X75191354Y-88808607D02*
X76187807Y-85089792D01*
X73259502Y-88290969D02*
X74255956Y-84572154D01*
X73259502Y-88290969D02*
X75191354Y-88808607D01*
%TO.C,D3*%
X92563502Y-90322969D02*
X93559956Y-86604154D01*
X92563502Y-90322969D02*
X94495354Y-90840607D01*
X94495354Y-90840607D02*
X95491807Y-87121792D01*
%TO.C,D4*%
X111613502Y-92100969D02*
X113545354Y-92618607D01*
X113545354Y-92618607D02*
X114541807Y-88899792D01*
X111613502Y-92100969D02*
X112609956Y-88382154D01*
%TO.C,D5*%
X130155502Y-97180969D02*
X131151956Y-93462154D01*
X132087354Y-97698607D02*
X133083807Y-93979792D01*
X130155502Y-97180969D02*
X132087354Y-97698607D01*
%TO.C,D6*%
X149867354Y-104302607D02*
X150863807Y-100583792D01*
X147935502Y-103784969D02*
X149867354Y-104302607D01*
X147935502Y-103784969D02*
X148931956Y-100066154D01*
%TO.C,D7*%
X166885354Y-110144607D02*
X167881807Y-106425792D01*
X164953502Y-109626969D02*
X166885354Y-110144607D01*
X164953502Y-109626969D02*
X165949956Y-105908154D01*
%TO.C,D8*%
X188738000Y-110912000D02*
X188738000Y-107062000D01*
X188738000Y-110912000D02*
X190738000Y-110912000D01*
X190738000Y-110912000D02*
X190738000Y-107062000D01*
%TO.C,D9*%
X207788000Y-110912000D02*
X207788000Y-107062000D01*
X209788000Y-110912000D02*
X209788000Y-107062000D01*
X207788000Y-110912000D02*
X209788000Y-110912000D01*
%TO.C,D10*%
X228838000Y-110912000D02*
X228838000Y-107062000D01*
X226838000Y-110912000D02*
X226838000Y-107062000D01*
X226838000Y-110912000D02*
X228838000Y-110912000D01*
%TO.C,D11*%
X245888000Y-110912000D02*
X247888000Y-110912000D01*
X245888000Y-110912000D02*
X245888000Y-107062000D01*
X247888000Y-110912000D02*
X247888000Y-107062000D01*
%TO.C,D12*%
X271677098Y-103692909D02*
X270680644Y-99974094D01*
X269745246Y-104210547D02*
X271677098Y-103692909D01*
X269745246Y-104210547D02*
X268748793Y-100491732D01*
%TO.C,D13*%
X287779246Y-97606547D02*
X289711098Y-97088909D01*
X287779246Y-97606547D02*
X286782793Y-93887732D01*
X289711098Y-97088909D02*
X288714644Y-93370094D01*
%TO.C,D14*%
X306194246Y-92780547D02*
X308126098Y-92262909D01*
X308126098Y-92262909D02*
X307129644Y-88544094D01*
X306194246Y-92780547D02*
X305197793Y-89061732D01*
%TO.C,D15*%
X327303098Y-90230909D02*
X326306644Y-86512094D01*
X325371246Y-90748547D02*
X324374793Y-87029732D01*
X325371246Y-90748547D02*
X327303098Y-90230909D01*
%TO.C,D16*%
X344548246Y-88716547D02*
X346480098Y-88198909D01*
X346480098Y-88198909D02*
X345483644Y-84480094D01*
X344548246Y-88716547D02*
X343551793Y-84997732D01*
%TO.C,D17*%
X362963246Y-83890547D02*
X364895098Y-83372909D01*
X364895098Y-83372909D02*
X363898644Y-79654094D01*
X362963246Y-83890547D02*
X361966793Y-80171732D01*
%TO.C,D18*%
X381786098Y-78165909D02*
X380789644Y-74447094D01*
X379854246Y-78683547D02*
X378857793Y-74964732D01*
X379854246Y-78683547D02*
X381786098Y-78165909D01*
%TO.C,D19*%
X56793098Y-84140091D02*
X55796644Y-87858906D01*
X56793098Y-84140091D02*
X54861246Y-83622453D01*
X54861246Y-83622453D02*
X53864793Y-87341268D01*
%TO.C,D20*%
X73149246Y-88702453D02*
X72152793Y-92421268D01*
X75081098Y-89220091D02*
X73149246Y-88702453D01*
X75081098Y-89220091D02*
X74084644Y-92938906D01*
%TO.C,D21*%
X94385098Y-91252091D02*
X93388644Y-94970906D01*
X94385098Y-91252091D02*
X92453246Y-90734453D01*
X92453246Y-90734453D02*
X91456793Y-94453268D01*
%TO.C,D22*%
X113435098Y-93030091D02*
X111503246Y-92512453D01*
X111503246Y-92512453D02*
X110506793Y-96231268D01*
X113435098Y-93030091D02*
X112438644Y-96748906D01*
%TO.C,D23*%
X131977098Y-98110091D02*
X130980644Y-101828906D01*
X131977098Y-98110091D02*
X130045246Y-97592453D01*
X130045246Y-97592453D02*
X129048793Y-101311268D01*
%TO.C,D24*%
X149757098Y-104714091D02*
X148760644Y-108432906D01*
X149757098Y-104714091D02*
X147825246Y-104196453D01*
X147825246Y-104196453D02*
X146828793Y-107915268D01*
%TO.C,D25*%
X166775098Y-110556091D02*
X165778644Y-114274906D01*
X164843246Y-110038453D02*
X163846793Y-113757268D01*
X166775098Y-110556091D02*
X164843246Y-110038453D01*
%TO.C,D26*%
X190738000Y-111338000D02*
X190738000Y-115188000D01*
X188738000Y-111338000D02*
X188738000Y-115188000D01*
X190738000Y-111338000D02*
X188738000Y-111338000D01*
%TO.C,D27*%
X209788000Y-111338000D02*
X209788000Y-115188000D01*
X207788000Y-111338000D02*
X207788000Y-115188000D01*
X209788000Y-111338000D02*
X207788000Y-111338000D01*
%TO.C,D28*%
X226838000Y-111338000D02*
X226838000Y-115188000D01*
X228838000Y-111338000D02*
X228838000Y-115188000D01*
X228838000Y-111338000D02*
X226838000Y-111338000D01*
%TO.C,D29*%
X247888000Y-111338000D02*
X245888000Y-111338000D01*
X245888000Y-111338000D02*
X245888000Y-115188000D01*
X247888000Y-111338000D02*
X247888000Y-115188000D01*
%TO.C,D30*%
X271787354Y-104104393D02*
X269855502Y-104622031D01*
X269855502Y-104622031D02*
X270851956Y-108340846D01*
X271787354Y-104104393D02*
X272783807Y-107823208D01*
%TO.C,D31*%
X289821354Y-97500393D02*
X287889502Y-98018031D01*
X287889502Y-98018031D02*
X288885956Y-101736846D01*
X289821354Y-97500393D02*
X290817807Y-101219208D01*
%TO.C,D32*%
X308236354Y-92674393D02*
X309232807Y-96393208D01*
X306304502Y-93192031D02*
X307300956Y-96910846D01*
X308236354Y-92674393D02*
X306304502Y-93192031D01*
%TO.C,D33*%
X327413354Y-90642393D02*
X325481502Y-91160031D01*
X327413354Y-90642393D02*
X328409807Y-94361208D01*
X325481502Y-91160031D02*
X326477956Y-94878846D01*
%TO.C,D34*%
X346590354Y-88610393D02*
X347586807Y-92329208D01*
X346590354Y-88610393D02*
X344658502Y-89128031D01*
X344658502Y-89128031D02*
X345654956Y-92846846D01*
%TO.C,D35*%
X365005354Y-83784393D02*
X366001807Y-87503208D01*
X365005354Y-83784393D02*
X363073502Y-84302031D01*
X363073502Y-84302031D02*
X364069956Y-88020846D01*
%TO.C,D36*%
X379964502Y-79095031D02*
X380960956Y-82813846D01*
X381896354Y-78577393D02*
X379964502Y-79095031D01*
X381896354Y-78577393D02*
X382892807Y-82296208D01*
%TO.C,D37*%
X49895476Y-102010144D02*
X48899023Y-105728959D01*
X51827328Y-102527782D02*
X49895476Y-102010144D01*
X51827328Y-102527782D02*
X50830874Y-106246597D01*
%TO.C,D38*%
X68329129Y-106918440D02*
X67332676Y-110637255D01*
X70260981Y-107436078D02*
X68329129Y-106918440D01*
X70260981Y-107436078D02*
X69264527Y-111154893D01*
%TO.C,D39*%
X89056981Y-110738078D02*
X87125129Y-110220440D01*
X89056981Y-110738078D02*
X88060527Y-114456893D01*
X87125129Y-110220440D02*
X86128676Y-113939255D01*
%TO.C,D40*%
X108614981Y-110992078D02*
X107618527Y-114710893D01*
X108614981Y-110992078D02*
X106683129Y-110474440D01*
X106683129Y-110474440D02*
X105686676Y-114193255D01*
%TO.C,D41*%
X127011328Y-115989782D02*
X126014874Y-119708597D01*
X127011328Y-115989782D02*
X125079476Y-115472144D01*
X125079476Y-115472144D02*
X124083023Y-119190959D01*
%TO.C,D42*%
X142859476Y-122838144D02*
X141863023Y-126556959D01*
X144791328Y-123355782D02*
X143794874Y-127074597D01*
X144791328Y-123355782D02*
X142859476Y-122838144D01*
%TO.C,D43*%
X162063328Y-128943782D02*
X160131476Y-128426144D01*
X162063328Y-128943782D02*
X161066874Y-132662597D01*
X160131476Y-128426144D02*
X159135023Y-132144959D01*
%TO.C,D44*%
X188738000Y-130388000D02*
X188738000Y-134238000D01*
X190738000Y-130388000D02*
X190738000Y-134238000D01*
X190738000Y-130388000D02*
X188738000Y-130388000D01*
%TO.C,D45*%
X207788000Y-130388000D02*
X207788000Y-134238000D01*
X209788000Y-130388000D02*
X209788000Y-134238000D01*
X209788000Y-130388000D02*
X207788000Y-130388000D01*
%TO.C,D46*%
X226838000Y-130388000D02*
X226838000Y-134238000D01*
X228838000Y-130388000D02*
X228838000Y-134238000D01*
X228838000Y-130388000D02*
X226838000Y-130388000D01*
%TO.C,D47*%
X247888000Y-130388000D02*
X245888000Y-130388000D01*
X247888000Y-130388000D02*
X247888000Y-134238000D01*
X245888000Y-130388000D02*
X245888000Y-134238000D01*
%TO.C,D48*%
X274816672Y-123482782D02*
X275813126Y-127201597D01*
X276748524Y-122965144D02*
X274816672Y-123482782D01*
X276748524Y-122965144D02*
X277744977Y-126683959D01*
%TO.C,D49*%
X294655524Y-115726144D02*
X292723672Y-116243782D01*
X294655524Y-115726144D02*
X295651977Y-119444959D01*
X292723672Y-116243782D02*
X293720126Y-119962597D01*
%TO.C,D50*%
X313070524Y-110646144D02*
X314066977Y-114364959D01*
X313070524Y-110646144D02*
X311138672Y-111163782D01*
X311138672Y-111163782D02*
X312135126Y-114882597D01*
%TO.C,D51*%
X330823672Y-110782782D02*
X331820126Y-114501597D01*
X332755524Y-110265144D02*
X333751977Y-113983959D01*
X332755524Y-110265144D02*
X330823672Y-110782782D01*
%TO.C,D52*%
X349619672Y-107480782D02*
X350616126Y-111199597D01*
X351551524Y-106963144D02*
X349619672Y-107480782D01*
X351551524Y-106963144D02*
X352547977Y-110681959D01*
%TO.C,D53*%
X367907672Y-102400782D02*
X368904126Y-106119597D01*
X369839524Y-101883144D02*
X370835977Y-105601959D01*
X369839524Y-101883144D02*
X367907672Y-102400782D01*
%TO.C,D54*%
X386984524Y-96930144D02*
X385052672Y-97447782D01*
X386984524Y-96930144D02*
X387980977Y-100648959D01*
X385052672Y-97447782D02*
X386049126Y-101166597D01*
%TO.C,D55*%
X45069476Y-120298144D02*
X44073023Y-124016959D01*
X47001328Y-120815782D02*
X45069476Y-120298144D01*
X47001328Y-120815782D02*
X46004874Y-124534597D01*
%TO.C,D56*%
X63357476Y-125378144D02*
X62361023Y-129096959D01*
X65289328Y-125895782D02*
X64292874Y-129614597D01*
X65289328Y-125895782D02*
X63357476Y-125378144D01*
%TO.C,D57*%
X84085328Y-129197782D02*
X83088874Y-132916597D01*
X82153476Y-128680144D02*
X81157023Y-132398959D01*
X84085328Y-129197782D02*
X82153476Y-128680144D01*
%TO.C,D58*%
X103643328Y-129705782D02*
X102646874Y-133424597D01*
X103643328Y-129705782D02*
X101711476Y-129188144D01*
X101711476Y-129188144D02*
X100715023Y-132906959D01*
%TO.C,D59*%
X120399129Y-134096440D02*
X119402676Y-137815255D01*
X122330981Y-134614078D02*
X120399129Y-134096440D01*
X122330981Y-134614078D02*
X121334527Y-138332893D01*
%TO.C,D60*%
X140110981Y-141726078D02*
X138179129Y-141208440D01*
X138179129Y-141208440D02*
X137182676Y-144927255D01*
X140110981Y-141726078D02*
X139114527Y-145444893D01*
%TO.C,D61*%
X156983328Y-147231782D02*
X155051476Y-146714144D01*
X155051476Y-146714144D02*
X154055023Y-150432959D01*
X156983328Y-147231782D02*
X155986874Y-150950597D01*
%TO.C,D62*%
X190738000Y-149438000D02*
X188738000Y-149438000D01*
X190738000Y-149438000D02*
X190738000Y-153288000D01*
X188738000Y-149438000D02*
X188738000Y-153288000D01*
%TO.C,D63*%
X207788000Y-149438000D02*
X207788000Y-153288000D01*
X209788000Y-149438000D02*
X207788000Y-149438000D01*
X209788000Y-149438000D02*
X209788000Y-153288000D01*
%TO.C,D64*%
X228838000Y-149438000D02*
X226838000Y-149438000D01*
X226838000Y-149438000D02*
X226838000Y-153288000D01*
X228838000Y-149438000D02*
X228838000Y-153288000D01*
%TO.C,D65*%
X245888000Y-149438000D02*
X245888000Y-153288000D01*
X247888000Y-149438000D02*
X245888000Y-149438000D01*
X247888000Y-149438000D02*
X247888000Y-153288000D01*
%TO.C,D66*%
X281701524Y-141253144D02*
X282697977Y-144971959D01*
X279769672Y-141770782D02*
X280766126Y-145489597D01*
X281701524Y-141253144D02*
X279769672Y-141770782D01*
%TO.C,D67*%
X299608524Y-134141144D02*
X300604977Y-137859959D01*
X297676672Y-134658782D02*
X298673126Y-138377597D01*
X299608524Y-134141144D02*
X297676672Y-134658782D01*
%TO.C,D68*%
X316091672Y-129578782D02*
X317088126Y-133297597D01*
X318023524Y-129061144D02*
X319019977Y-132779959D01*
X318023524Y-129061144D02*
X316091672Y-129578782D01*
%TO.C,D69*%
X337708524Y-128807144D02*
X335776672Y-129324782D01*
X335776672Y-129324782D02*
X336773126Y-133043597D01*
X337708524Y-128807144D02*
X338704977Y-132525959D01*
%TO.C,D70*%
X356504524Y-125378144D02*
X357500977Y-129096959D01*
X354572672Y-125895782D02*
X355569126Y-129614597D01*
X356504524Y-125378144D02*
X354572672Y-125895782D01*
%TO.C,D71*%
X374792524Y-120425144D02*
X372860672Y-120942782D01*
X372860672Y-120942782D02*
X373857126Y-124661597D01*
X374792524Y-120425144D02*
X375788977Y-124143959D01*
%TO.C,D72*%
X391937524Y-115345144D02*
X390005672Y-115862782D01*
X390005672Y-115862782D02*
X391002126Y-119581597D01*
X391937524Y-115345144D02*
X392933977Y-119063959D01*
%TO.C,D73*%
X41921328Y-139103782D02*
X40924874Y-142822597D01*
X41921328Y-139103782D02*
X39989476Y-138586144D01*
X39989476Y-138586144D02*
X38993023Y-142304959D01*
%TO.C,D74*%
X60209328Y-144183782D02*
X58277476Y-143666144D01*
X58277476Y-143666144D02*
X57281023Y-147384959D01*
X60209328Y-144183782D02*
X59212874Y-147902597D01*
%TO.C,D75*%
X79259328Y-147739782D02*
X78262874Y-151458597D01*
X79259328Y-147739782D02*
X77327476Y-147222144D01*
X77327476Y-147222144D02*
X76331023Y-150940959D01*
%TO.C,D76*%
X96885476Y-147476144D02*
X95889023Y-151194959D01*
X98817328Y-147993782D02*
X96885476Y-147476144D01*
X98817328Y-147993782D02*
X97820874Y-151712597D01*
%TO.C,D77*%
X117359328Y-153073782D02*
X115427476Y-152556144D01*
X115427476Y-152556144D02*
X114431023Y-156274959D01*
X117359328Y-153073782D02*
X116362874Y-156792597D01*
%TO.C,D78*%
X133207476Y-159668144D02*
X132211023Y-163386959D01*
X135139328Y-160185782D02*
X133207476Y-159668144D01*
X135139328Y-160185782D02*
X134142874Y-163904597D01*
%TO.C,D79*%
X153427328Y-160439782D02*
X151495476Y-159922144D01*
X151495476Y-159922144D02*
X150499023Y-163640959D01*
X153427328Y-160439782D02*
X152430874Y-164158597D01*
%TO.C,D80*%
X190738000Y-168488000D02*
X188738000Y-168488000D01*
X190738000Y-168488000D02*
X190738000Y-172338000D01*
X188738000Y-168488000D02*
X188738000Y-172338000D01*
%TO.C,D81*%
X209788000Y-168488000D02*
X207788000Y-168488000D01*
X207788000Y-168488000D02*
X207788000Y-172338000D01*
X209788000Y-168488000D02*
X209788000Y-172338000D01*
%TO.C,D82*%
X228838000Y-168488000D02*
X226838000Y-168488000D01*
X228838000Y-168488000D02*
X228838000Y-172338000D01*
X226838000Y-168488000D02*
X226838000Y-172338000D01*
%TO.C,D83*%
X247888000Y-168488000D02*
X247888000Y-172338000D01*
X247888000Y-168488000D02*
X245888000Y-168488000D01*
X245888000Y-168488000D02*
X245888000Y-172338000D01*
%TO.C,D84*%
X266688672Y-161201782D02*
X267685126Y-164920597D01*
X268620524Y-160684144D02*
X269616977Y-164402959D01*
X268620524Y-160684144D02*
X266688672Y-161201782D01*
%TO.C,D85*%
X304434524Y-152556144D02*
X302502672Y-153073782D01*
X302502672Y-153073782D02*
X303499126Y-156792597D01*
X304434524Y-152556144D02*
X305430977Y-156274959D01*
%TO.C,D86*%
X322976524Y-147476144D02*
X321044672Y-147993782D01*
X322976524Y-147476144D02*
X323972977Y-151194959D01*
X321044672Y-147993782D02*
X322041126Y-151712597D01*
%TO.C,D87*%
X342534524Y-147222144D02*
X340602672Y-147739782D01*
X340602672Y-147739782D02*
X341599126Y-151458597D01*
X342534524Y-147222144D02*
X343530977Y-150940959D01*
%TO.C,D88*%
X361330524Y-143666144D02*
X359398672Y-144183782D01*
X359398672Y-144183782D02*
X360395126Y-147902597D01*
X361330524Y-143666144D02*
X362326977Y-147384959D01*
%TO.C,D89*%
X379618524Y-138840144D02*
X377686672Y-139357782D01*
X377686672Y-139357782D02*
X378683126Y-143076597D01*
X379618524Y-138840144D02*
X380614977Y-142558959D01*
%TO.C,D90*%
X394831672Y-134150782D02*
X395828126Y-137869597D01*
X396763524Y-133633144D02*
X397759977Y-137351959D01*
X396763524Y-133633144D02*
X394831672Y-134150782D01*
%TO.C,H25*%
G36*
X175449583Y-88138000D02*
G01*
X175709464Y-88153186D01*
X175832209Y-88204980D01*
X175852667Y-88263756D01*
X175878258Y-88330855D01*
X175978217Y-88306382D01*
X176127833Y-88221739D01*
X176464008Y-88091919D01*
X176793748Y-88053650D01*
X177210453Y-88125955D01*
X177536818Y-88334945D01*
X177761670Y-88667618D01*
X177873841Y-89110974D01*
X177884667Y-89323333D01*
X177804865Y-89831568D01*
X177582136Y-90300905D01*
X177241491Y-90689832D01*
X176936371Y-90897226D01*
X176582020Y-91006593D01*
X176197103Y-91007015D01*
X175848800Y-90903287D01*
X175703827Y-90809252D01*
X175457329Y-90601838D01*
X175354232Y-91296086D01*
X175291242Y-91715813D01*
X175238820Y-91996450D01*
X175179659Y-92165930D01*
X175096456Y-92252188D01*
X174971907Y-92283156D01*
X174788708Y-92286769D01*
X174740589Y-92286667D01*
X174490046Y-92278492D01*
X174372341Y-92244631D01*
X174351384Y-92171078D01*
X174358756Y-92138500D01*
X174384230Y-92015068D01*
X174432877Y-91750317D01*
X174500174Y-91369984D01*
X174581598Y-90899803D01*
X174672625Y-90365509D01*
X174723378Y-90064167D01*
X174796381Y-89628986D01*
X175673503Y-89628986D01*
X175712356Y-89918368D01*
X175823455Y-90099833D01*
X176036893Y-90222876D01*
X176314568Y-90242971D01*
X176585968Y-90159721D01*
X176668257Y-90104618D01*
X176901604Y-89841911D01*
X177019148Y-89551766D01*
X177026095Y-89269163D01*
X176927653Y-89029083D01*
X176729028Y-88866509D01*
X176476353Y-88815334D01*
X176172962Y-88886383D01*
X175924336Y-89072602D01*
X175751006Y-89333600D01*
X175673503Y-89628986D01*
X174796381Y-89628986D01*
X175046500Y-88138000D01*
X175449583Y-88138000D01*
G37*
G36*
X173982568Y-88138000D02*
G01*
X174387059Y-88138000D01*
X174187897Y-89344500D01*
X174097635Y-89897090D01*
X174029095Y-90305028D01*
X173972587Y-90590056D01*
X173918422Y-90773917D01*
X173856909Y-90878353D01*
X173778359Y-90925106D01*
X173673081Y-90935919D01*
X173531385Y-90932534D01*
X173480387Y-90932000D01*
X173239434Y-90916324D01*
X173086781Y-90876258D01*
X173058667Y-90845159D01*
X172994629Y-90818791D01*
X172832085Y-90875818D01*
X172808871Y-90887493D01*
X172417772Y-91012409D01*
X172049187Y-90982577D01*
X171730901Y-90800954D01*
X171697487Y-90769180D01*
X171576070Y-90627969D01*
X171498130Y-90472141D01*
X171462115Y-90272385D01*
X171466477Y-89999392D01*
X171509664Y-89623851D01*
X171590127Y-89116452D01*
X171605342Y-89027000D01*
X171750160Y-88180334D01*
X172203126Y-88154382D01*
X172463165Y-88143930D01*
X172591661Y-88161727D01*
X172625927Y-88223364D01*
X172608388Y-88323716D01*
X172538330Y-88647271D01*
X172470883Y-89021642D01*
X172411869Y-89404956D01*
X172367110Y-89755341D01*
X172342429Y-90030927D01*
X172343647Y-90189840D01*
X172347092Y-90202891D01*
X172475886Y-90310299D01*
X172684773Y-90339334D01*
X172888061Y-90308788D01*
X173043706Y-90201730D01*
X173165281Y-89995024D01*
X173266361Y-89665535D01*
X173360519Y-89190128D01*
X173361123Y-89186596D01*
X173435493Y-88753160D01*
X173494125Y-88459107D01*
X173552993Y-88277481D01*
X173628073Y-88181327D01*
X173735339Y-88143691D01*
X173890766Y-88137617D01*
X173982568Y-88138000D01*
G37*
G36*
X183679060Y-88166008D02*
G01*
X183763241Y-88242455D01*
X183770670Y-88328435D01*
X183691625Y-88470644D01*
X183583965Y-88622672D01*
X183419117Y-88827670D01*
X183299969Y-88907655D01*
X183191145Y-88886280D01*
X183190348Y-88885835D01*
X182960785Y-88844471D01*
X182730666Y-88942794D01*
X182591161Y-89096922D01*
X182527141Y-89258165D01*
X182449834Y-89539724D01*
X182371351Y-89894495D01*
X182331591Y-90106500D01*
X182187015Y-90932000D01*
X181771507Y-90932000D01*
X181533207Y-90928128D01*
X181384362Y-90918243D01*
X181358980Y-90910834D01*
X181373647Y-90824649D01*
X181412296Y-90599908D01*
X181470048Y-90264908D01*
X181542026Y-89847949D01*
X181596097Y-89535000D01*
X181830235Y-88180334D01*
X182228117Y-88154528D01*
X182502687Y-88156714D01*
X182621310Y-88208144D01*
X182626000Y-88227765D01*
X182682307Y-88266601D01*
X182834688Y-88190071D01*
X183129651Y-88074180D01*
X183442317Y-88070581D01*
X183679060Y-88166008D01*
G37*
G36*
X170172022Y-86572393D02*
G01*
X170453699Y-86645636D01*
X170701333Y-86794520D01*
X170918875Y-86991928D01*
X171111545Y-87199148D01*
X171242780Y-87368128D01*
X171280667Y-87447806D01*
X171211610Y-87539469D01*
X171037137Y-87662058D01*
X170937424Y-87717001D01*
X170594181Y-87892111D01*
X170353121Y-87634055D01*
X170082026Y-87436739D01*
X169786754Y-87369776D01*
X169512527Y-87437254D01*
X169375355Y-87545677D01*
X169273674Y-87741430D01*
X169328209Y-87938108D01*
X169542934Y-88141450D01*
X169921820Y-88357197D01*
X169944645Y-88368174D01*
X170398168Y-88620747D01*
X170702376Y-88883784D01*
X170876733Y-89181451D01*
X170940703Y-89537914D01*
X170942000Y-89606509D01*
X170908413Y-89967841D01*
X170790187Y-90262457D01*
X170727451Y-90361762D01*
X170411830Y-90689518D01*
X169998449Y-90924952D01*
X169536222Y-91051964D01*
X169074063Y-91054454D01*
X168818680Y-90990051D01*
X168385072Y-90779582D01*
X168064011Y-90501245D01*
X167996191Y-90418209D01*
X167826710Y-90168342D01*
X167784092Y-89990705D01*
X167873536Y-89839751D01*
X168080089Y-89683195D01*
X168295661Y-89551803D01*
X168413647Y-89516639D01*
X168468847Y-89568352D01*
X168472209Y-89577807D01*
X168602818Y-89795589D01*
X168822445Y-90011826D01*
X169073465Y-90180154D01*
X169298251Y-90254204D01*
X169313448Y-90254667D01*
X169579595Y-90195970D01*
X169818031Y-90047268D01*
X169976041Y-89849644D01*
X170010667Y-89711311D01*
X169966637Y-89529514D01*
X169818898Y-89359756D01*
X169543976Y-89179812D01*
X169333333Y-89070071D01*
X169036807Y-88896249D01*
X168753754Y-88688115D01*
X168678047Y-88621118D01*
X168435541Y-88296356D01*
X168340187Y-87947208D01*
X168376189Y-87595339D01*
X168527747Y-87262413D01*
X168779065Y-86970095D01*
X169114343Y-86740050D01*
X169517783Y-86593941D01*
X169973587Y-86553434D01*
X170172022Y-86572393D01*
G37*
G36*
X185371309Y-86649071D02*
G01*
X185416916Y-86718405D01*
X185419413Y-86757742D01*
X185405135Y-86885872D01*
X185365718Y-87152228D01*
X185305716Y-87528324D01*
X185229682Y-87985677D01*
X185142171Y-88495801D01*
X185134439Y-88540167D01*
X184850051Y-90170000D01*
X186516433Y-90170000D01*
X186468890Y-90445167D01*
X186426152Y-90668958D01*
X186389421Y-90824770D01*
X186388997Y-90826167D01*
X186327044Y-90870019D01*
X186160408Y-90901046D01*
X185871390Y-90920683D01*
X185442292Y-90930365D01*
X185083990Y-90932000D01*
X184566466Y-90928453D01*
X184199664Y-90916781D01*
X183965101Y-90895442D01*
X183844292Y-90862890D01*
X183817175Y-90826167D01*
X183832830Y-90716188D01*
X183873696Y-90463641D01*
X183935698Y-90092741D01*
X184014760Y-89627702D01*
X184106807Y-89092737D01*
X184177008Y-88688334D01*
X184531000Y-86656334D01*
X184975500Y-86630742D01*
X185237467Y-86623654D01*
X185371309Y-86649071D01*
G37*
G36*
X187497539Y-88861322D02*
G01*
X187572089Y-89190325D01*
X187641318Y-89450137D01*
X187694050Y-89600463D01*
X187708259Y-89621063D01*
X187770475Y-89567170D01*
X187891807Y-89392855D01*
X188052847Y-89127722D01*
X188181093Y-88899767D01*
X188595000Y-88142053D01*
X189046555Y-88140027D01*
X189290962Y-88149754D01*
X189442818Y-88176952D01*
X189469889Y-88202911D01*
X189420389Y-88289748D01*
X189294829Y-88502299D01*
X189104697Y-88821337D01*
X188861484Y-89227635D01*
X188576680Y-89701963D01*
X188261774Y-90225094D01*
X188230341Y-90277245D01*
X187019015Y-92286667D01*
X186600507Y-92286667D01*
X186360526Y-92279505D01*
X186209133Y-92261216D01*
X186182000Y-92247310D01*
X186223247Y-92163302D01*
X186334937Y-91966245D01*
X186498995Y-91687445D01*
X186657615Y-91423593D01*
X187133231Y-90639232D01*
X186813099Y-89494450D01*
X186694489Y-89072247D01*
X186590164Y-88704514D01*
X186509520Y-88424106D01*
X186461953Y-88263875D01*
X186455425Y-88243834D01*
X186486101Y-88178806D01*
X186649677Y-88145333D01*
X186881814Y-88138000D01*
X187345746Y-88138000D01*
X187497539Y-88861322D01*
G37*
G36*
X191935397Y-88820173D02*
G01*
X192211724Y-88469060D01*
X192556690Y-88213477D01*
X192946125Y-88071856D01*
X193355860Y-88062627D01*
X193721538Y-88182508D01*
X193892176Y-88293131D01*
X193970748Y-88388215D01*
X193971333Y-88394174D01*
X194035828Y-88474286D01*
X194056000Y-88476667D01*
X194124790Y-88405754D01*
X194140667Y-88307334D01*
X194162746Y-88206123D01*
X194256633Y-88155428D01*
X194463801Y-88138809D01*
X194567836Y-88138000D01*
X194995006Y-88138000D01*
X194943547Y-88413167D01*
X194909760Y-88600349D01*
X194854704Y-88912534D01*
X194785720Y-89307826D01*
X194710151Y-89744330D01*
X194702451Y-89789000D01*
X194512815Y-90889667D01*
X194115074Y-90915472D01*
X193865350Y-90919721D01*
X193745211Y-90883491D01*
X193717333Y-90809475D01*
X193696289Y-90737649D01*
X193608258Y-90746091D01*
X193415896Y-90839252D01*
X193401087Y-90847169D01*
X192973698Y-90993881D01*
X192551964Y-90984023D01*
X192218610Y-90850761D01*
X191916284Y-90578481D01*
X191740080Y-90202699D01*
X191685333Y-89735269D01*
X191705200Y-89589909D01*
X192543893Y-89589909D01*
X192567363Y-89901617D01*
X192722900Y-90143090D01*
X192955333Y-90273000D01*
X193184815Y-90270890D01*
X193449388Y-90163706D01*
X193681528Y-89981074D01*
X193717843Y-89938455D01*
X193847082Y-89660960D01*
X193883900Y-89326195D01*
X193820331Y-89021716D01*
X193804233Y-88988840D01*
X193633003Y-88823230D01*
X193390511Y-88772952D01*
X193120068Y-88828650D01*
X192864987Y-88980970D01*
X192668577Y-89220556D01*
X192660433Y-89235895D01*
X192543893Y-89589909D01*
X191705200Y-89589909D01*
X191751877Y-89248386D01*
X191935397Y-88820173D01*
G37*
G36*
X191637726Y-88166008D02*
G01*
X191721907Y-88242455D01*
X191729337Y-88328435D01*
X191650292Y-88470644D01*
X191542632Y-88622672D01*
X191377784Y-88827670D01*
X191258635Y-88907655D01*
X191149812Y-88886280D01*
X191149014Y-88885835D01*
X190919452Y-88844471D01*
X190689332Y-88942794D01*
X190549828Y-89096922D01*
X190485807Y-89258165D01*
X190408500Y-89539724D01*
X190330017Y-89894495D01*
X190290258Y-90106500D01*
X190145682Y-90932000D01*
X189730174Y-90932000D01*
X189491874Y-90928128D01*
X189343029Y-90918243D01*
X189317646Y-90910834D01*
X189332314Y-90824649D01*
X189370963Y-90599908D01*
X189428714Y-90264908D01*
X189500693Y-89847949D01*
X189554764Y-89535000D01*
X189788901Y-88180334D01*
X190186784Y-88154528D01*
X190461354Y-88156714D01*
X190579977Y-88208144D01*
X190584667Y-88227765D01*
X190640973Y-88266601D01*
X190793354Y-88190071D01*
X191088317Y-88074180D01*
X191400983Y-88070581D01*
X191637726Y-88166008D01*
G37*
G36*
X172636332Y-81226005D02*
G01*
X172913573Y-80957405D01*
X173148138Y-80736626D01*
X173313026Y-80588664D01*
X173378657Y-80538670D01*
X173460243Y-80586468D01*
X173633187Y-80732640D01*
X173871177Y-80953787D01*
X174116614Y-81194945D01*
X174790577Y-81872885D01*
X176192389Y-80478355D01*
X176865928Y-81154344D01*
X177539466Y-81830334D01*
X177542733Y-82782834D01*
X177544875Y-83216610D01*
X177561031Y-83502706D01*
X177611095Y-83662672D01*
X177714960Y-83718061D01*
X177892519Y-83690421D01*
X178163667Y-83601305D01*
X178265667Y-83566000D01*
X178477816Y-83501314D01*
X178701132Y-83455093D01*
X178968888Y-83424434D01*
X179314359Y-83406434D01*
X179770819Y-83398192D01*
X180206957Y-83396667D01*
X181656072Y-83396667D01*
X182355718Y-82693367D01*
X183055365Y-81990067D01*
X182438065Y-81359867D01*
X182118304Y-81032392D01*
X181734888Y-80638174D01*
X181341540Y-80232516D01*
X181065027Y-79946465D01*
X180309287Y-79163263D01*
X183176333Y-76379265D01*
X183874833Y-77070930D01*
X184149965Y-77348737D01*
X184374063Y-77585231D01*
X184523113Y-77754364D01*
X184573333Y-77828606D01*
X184515979Y-77910644D01*
X184360448Y-78082668D01*
X184131536Y-78318253D01*
X183895661Y-78550796D01*
X183217988Y-79206974D01*
X184572994Y-80559995D01*
X184962802Y-80952909D01*
X185308746Y-81308650D01*
X185593778Y-81609105D01*
X185800851Y-81836163D01*
X185912918Y-81971711D01*
X185928000Y-81999667D01*
X185870502Y-82082015D01*
X185709377Y-82265031D01*
X185461676Y-82530599D01*
X185144450Y-82860600D01*
X184774753Y-83236916D01*
X184573720Y-83438613D01*
X183219441Y-84790909D01*
X184611811Y-86190549D01*
X183938392Y-86867941D01*
X183264972Y-87545334D01*
X177611486Y-87545334D01*
X176650117Y-87544436D01*
X175740249Y-87541843D01*
X174895753Y-87537708D01*
X174130502Y-87532180D01*
X173458367Y-87525411D01*
X172893219Y-87517552D01*
X172448931Y-87508755D01*
X172139374Y-87499170D01*
X171978419Y-87488949D01*
X171958000Y-87483707D01*
X172014233Y-87402215D01*
X172166584Y-87228874D01*
X172390530Y-86990661D01*
X172612180Y-86764040D01*
X173266361Y-86106000D01*
X172612180Y-85447960D01*
X171958000Y-84789921D01*
X171958000Y-84543639D01*
X172296667Y-84543639D01*
X172974000Y-85217000D01*
X173312146Y-85563986D01*
X173528685Y-85829274D01*
X173628363Y-86043905D01*
X173615922Y-86238919D01*
X173496105Y-86445355D01*
X173273657Y-86694253D01*
X173209725Y-86759504D01*
X172768118Y-87206667D01*
X183012301Y-87206667D01*
X184018229Y-86190131D01*
X183406781Y-85574575D01*
X183143152Y-85293452D01*
X182938375Y-85044653D01*
X182817367Y-84860043D01*
X182795333Y-84792639D01*
X182855589Y-84675588D01*
X183029244Y-84455336D01*
X183305628Y-84143920D01*
X183674068Y-83753380D01*
X184107714Y-83311952D01*
X185420096Y-81997645D01*
X184150048Y-80729715D01*
X183681156Y-80259774D01*
X183325548Y-79889458D01*
X183077296Y-79598134D01*
X182930469Y-79365168D01*
X182879140Y-79169929D01*
X182917378Y-78991782D01*
X183039255Y-78810095D01*
X183238841Y-78604234D01*
X183476195Y-78384733D01*
X184072389Y-77838821D01*
X183636166Y-77395662D01*
X183422347Y-77185060D01*
X183258808Y-77036397D01*
X183176681Y-76977736D01*
X183173324Y-76978418D01*
X183106200Y-77042117D01*
X182936066Y-77203168D01*
X182682969Y-77442607D01*
X182366958Y-77741466D01*
X182039686Y-78050899D01*
X181684844Y-78389970D01*
X181377151Y-78690877D01*
X181136226Y-78933866D01*
X180981687Y-79099186D01*
X180932667Y-79165517D01*
X180989091Y-79243871D01*
X181146829Y-79424288D01*
X181388576Y-79687989D01*
X181697029Y-80016191D01*
X182054884Y-80390114D01*
X182181500Y-80520992D01*
X182555291Y-80912809D01*
X182887150Y-81273014D01*
X183159061Y-81581040D01*
X183353011Y-81816316D01*
X183450983Y-81958274D01*
X183458971Y-81979614D01*
X183428832Y-82101079D01*
X183300854Y-82291481D01*
X183064567Y-82564087D01*
X182709501Y-82932164D01*
X182698643Y-82943074D01*
X181909678Y-83735334D01*
X180468305Y-83735334D01*
X179927643Y-83737181D01*
X179521435Y-83745153D01*
X179214822Y-83762893D01*
X178972945Y-83794046D01*
X178760942Y-83842254D01*
X178543954Y-83911163D01*
X178443371Y-83947000D01*
X177975265Y-84095174D01*
X177632877Y-84151735D01*
X177400507Y-84118208D01*
X177308933Y-84057067D01*
X177255932Y-83911390D01*
X177222047Y-83602608D01*
X177207787Y-83135925D01*
X177207333Y-83017250D01*
X177207333Y-82079033D01*
X176699065Y-81576068D01*
X176190797Y-81073104D01*
X175575241Y-81684552D01*
X175296945Y-81945544D01*
X175049082Y-82149968D01*
X174864115Y-82272404D01*
X174794333Y-82296000D01*
X174665806Y-82238531D01*
X174454045Y-82083157D01*
X174191719Y-81855428D01*
X174016647Y-81687752D01*
X173404312Y-81079504D01*
X172913989Y-81537482D01*
X172674177Y-81764920D01*
X172481551Y-81953966D01*
X172371071Y-82070152D01*
X172361463Y-82082230D01*
X172338865Y-82194519D01*
X172319743Y-82442844D01*
X172305754Y-82793921D01*
X172298558Y-83214463D01*
X172297963Y-83356320D01*
X172296667Y-84543639D01*
X171958000Y-84543639D01*
X171958000Y-81891676D01*
X172636332Y-81226005D01*
G37*
G36*
X178863562Y-88415931D02*
G01*
X179304899Y-88171295D01*
X179828254Y-88058894D01*
X179977447Y-88053650D01*
X180430981Y-88121888D01*
X180797993Y-88313585D01*
X181056511Y-88610367D01*
X181184561Y-88993859D01*
X181191972Y-89069334D01*
X181210697Y-89345537D01*
X181207232Y-89534494D01*
X181155713Y-89652677D01*
X181030274Y-89716554D01*
X180805050Y-89742599D01*
X180454177Y-89747281D01*
X180128333Y-89746667D01*
X179659021Y-89750175D01*
X179339871Y-89766265D01*
X179151763Y-89803283D01*
X179075578Y-89869575D01*
X179092198Y-89973489D01*
X179182502Y-90123371D01*
X179201801Y-90151161D01*
X179403443Y-90302639D01*
X179686893Y-90332549D01*
X180015695Y-90240517D01*
X180165635Y-90161116D01*
X180384890Y-90049062D01*
X180572103Y-90031214D01*
X180778284Y-90079810D01*
X180979293Y-90150104D01*
X181045773Y-90218929D01*
X181008071Y-90323417D01*
X180994983Y-90344982D01*
X180861919Y-90496367D01*
X180651752Y-90676340D01*
X180563872Y-90740663D01*
X180188313Y-90918072D01*
X179743692Y-91003524D01*
X179295962Y-90991764D01*
X178911072Y-90877535D01*
X178902354Y-90873077D01*
X178543954Y-90597773D01*
X178311850Y-90223485D01*
X178225338Y-89782064D01*
X178225193Y-89755313D01*
X178304356Y-89226734D01*
X178341983Y-89149036D01*
X179112333Y-89149036D01*
X179726167Y-89151518D01*
X180058188Y-89145196D01*
X180250416Y-89119177D01*
X180331803Y-89067872D01*
X180340000Y-89033048D01*
X180265719Y-88846328D01*
X180083866Y-88700530D01*
X179869621Y-88646000D01*
X179681143Y-88701419D01*
X179457530Y-88839971D01*
X179388836Y-88897518D01*
X179112333Y-89149036D01*
X178341983Y-89149036D01*
X178523597Y-88774009D01*
X178863562Y-88415931D01*
G37*
%TO.C,C6*%
X232753000Y-88138000D02*
X232753000Y-86106000D01*
X232753000Y-86106000D02*
X231813000Y-86106000D01*
X232753000Y-88138000D02*
X231813000Y-88138000D01*
X231813000Y-86106000D02*
X231813000Y-88138000D01*
%TO.C,Y1*%
X228638000Y-88795000D02*
X229038000Y-88795000D01*
X229038000Y-87745000D02*
X229038000Y-87795000D01*
X226638000Y-88795000D02*
X226638000Y-88645000D01*
X228638000Y-88795000D02*
X226638000Y-88795000D01*
X226638000Y-88995000D02*
X228638000Y-88995000D01*
X228638000Y-88995000D02*
X229038000Y-88995000D01*
X226638000Y-85195000D02*
X226638000Y-85345000D01*
X229038000Y-88795000D02*
X229038000Y-88645000D01*
X229038000Y-85195000D02*
X229038000Y-85345000D01*
X226638000Y-85195000D02*
X228638000Y-85195000D01*
X228638000Y-85195000D02*
X229038000Y-85195000D01*
X229038000Y-87745000D02*
X229438000Y-87745000D01*
%TD*%
D14*
X231140000Y-87630000D03*
X220850000Y-86400000D03*
X78232000Y-76200000D03*
X135382000Y-83312000D03*
X153162000Y-89916000D03*
X205550000Y-86500000D03*
X244150000Y-82150000D03*
X170434000Y-155194000D03*
X225552000Y-87884000D03*
X230250000Y-81750000D03*
X173228000Y-94996000D03*
X296926000Y-88392000D03*
X221599000Y-83676000D03*
X192532000Y-96266000D03*
X59436000Y-72644000D03*
X214884000Y-95631000D03*
X230124000Y-96266000D03*
X116840000Y-79756000D03*
X211582000Y-107950000D03*
X233934000Y-80772000D03*
X233976000Y-78782000D03*
X221571000Y-81865000D03*
X229997000Y-86614000D03*
X243520000Y-83940000D03*
X237480000Y-79710000D03*
X237570000Y-89670000D03*
X228674000Y-81714000D03*
X229486000Y-110112000D03*
X223520000Y-88646000D03*
X198374000Y-86106000D03*
X171958000Y-112138000D03*
X172850000Y-131188000D03*
X199898000Y-86106000D03*
X193170000Y-150238000D03*
X201168000Y-86106000D03*
X219456000Y-87122000D03*
X212725000Y-169288000D03*
X229997000Y-85344000D03*
X219456000Y-84074000D03*
X219456000Y-85550000D03*
X210081010Y-80494990D03*
X227076000Y-81534000D03*
X198374000Y-83312000D03*
X200914000Y-83312000D03*
X198374000Y-80772000D03*
X200914000Y-80772000D03*
X198374000Y-78232000D03*
X200914000Y-78232000D03*
X140371625Y-166787401D03*
X156582947Y-177247894D03*
X138382406Y-181897021D03*
X151130000Y-176530000D03*
X146093460Y-175866927D03*
X145406448Y-180012722D03*
X162054143Y-185013464D03*
X156166540Y-177193073D03*
X145677053Y-175812106D03*
X164043362Y-169903844D03*
X154195980Y-172394814D03*
X154311343Y-171824997D03*
X156583224Y-173415140D03*
X147684132Y-173514425D03*
X149173493Y-172237905D03*
X151900105Y-170680475D03*
X263977868Y-181375415D03*
X279363375Y-166787401D03*
X257680857Y-185013464D03*
X281352594Y-181897021D03*
X273641540Y-175866927D03*
X263152053Y-177247894D03*
X263568460Y-177193073D03*
X255691638Y-169903844D03*
X268605000Y-176530000D03*
X274057947Y-175812106D03*
X270460197Y-171161924D03*
X273066225Y-172109879D03*
X270496244Y-171742183D03*
X264496059Y-174509035D03*
X265604283Y-172890536D03*
X267834895Y-170680475D03*
X54075933Y-72808264D03*
X43039857Y-74199316D03*
X44262127Y-70178662D03*
X43856438Y-70069958D03*
X54481622Y-72916968D03*
X49169030Y-71493463D03*
X52937282Y-67243960D03*
X54982172Y-69117040D03*
X52748530Y-67793844D03*
X47789492Y-66982712D03*
X46146253Y-68053911D03*
X50696062Y-65794501D03*
X72233932Y-79163835D03*
X61197856Y-80554887D03*
X67327029Y-77849034D03*
X62420126Y-76534233D03*
X72639621Y-79272539D03*
X62014437Y-76425529D03*
X73140171Y-75472611D03*
X70906529Y-74149415D03*
X71095281Y-73599531D03*
X65947491Y-73338283D03*
X64304252Y-74409482D03*
X68854061Y-72150072D03*
X79894380Y-84064145D03*
X86023553Y-81358292D03*
X90930456Y-82673093D03*
X80710961Y-79934787D03*
X91336145Y-82781797D03*
X81116650Y-80043491D03*
X89791805Y-77108789D03*
X89603053Y-77658673D03*
X91836695Y-78981869D03*
X84644015Y-76847541D03*
X83000776Y-77918740D03*
X87550585Y-75659330D03*
X100422124Y-80203996D03*
X100827813Y-80312700D03*
X110641619Y-82942302D03*
X105734716Y-81627501D03*
X111047308Y-83051006D03*
X99605543Y-84333354D03*
X109314216Y-77927882D03*
X111547858Y-79251078D03*
X109502968Y-77377998D03*
X107261748Y-75928539D03*
X104355178Y-77116750D03*
X102711939Y-78187949D03*
X119194668Y-83809695D03*
X118378087Y-87939053D03*
X129819852Y-86656705D03*
X124507260Y-85233200D03*
X129414163Y-86548001D03*
X119600357Y-83918399D03*
X128275512Y-80983697D03*
X128086760Y-81533581D03*
X130320402Y-82856777D03*
X123127722Y-80722449D03*
X126034292Y-79534238D03*
X121484483Y-81793648D03*
X147844394Y-92910124D03*
X142531802Y-91486619D03*
X137624899Y-90171818D03*
X136402629Y-94192472D03*
X137219210Y-90063114D03*
X147438705Y-92801420D03*
X148344944Y-89110196D03*
X146111302Y-87787000D03*
X146300054Y-87237116D03*
X139509025Y-88047067D03*
X144058834Y-85787657D03*
X141152264Y-86975868D03*
X165584699Y-100158943D03*
X154142934Y-101441291D03*
X160272107Y-98735438D03*
X155365204Y-97420637D03*
X165179010Y-100050239D03*
X154959515Y-97311933D03*
X164040359Y-94485935D03*
X166085249Y-96359015D03*
X163851607Y-95035819D03*
X161799139Y-93036476D03*
X157249330Y-95295886D03*
X158892569Y-94224687D03*
X175980027Y-101668860D03*
X186560027Y-101668860D03*
X176260027Y-105868860D03*
X176400027Y-101668860D03*
X186980027Y-101668860D03*
X181480027Y-101668860D03*
X183980027Y-97168860D03*
X184020027Y-96588860D03*
X186480027Y-97868860D03*
X181480027Y-95768860D03*
X177670027Y-99128860D03*
X178980027Y-97668860D03*
X200463938Y-101669622D03*
X195243938Y-105869622D03*
X195383938Y-101669622D03*
X205963938Y-101669622D03*
X205543938Y-101669622D03*
X194963938Y-101669622D03*
X203003938Y-96589622D03*
X202963938Y-97169622D03*
X205463938Y-97869622D03*
X196653938Y-99129622D03*
X200463938Y-95769622D03*
X197963938Y-97669622D03*
X224548099Y-101669850D03*
X214388099Y-101669850D03*
X213968099Y-101669850D03*
X214248099Y-105869850D03*
X219468099Y-101669850D03*
X224968099Y-101669850D03*
X222008099Y-96589850D03*
X224468099Y-97869850D03*
X221968099Y-97169850D03*
X216968099Y-97669850D03*
X215658099Y-99129850D03*
X219468099Y-95769850D03*
X243536946Y-101669702D03*
X233236946Y-105869702D03*
X232956946Y-101669702D03*
X238456946Y-101669702D03*
X233376946Y-101669702D03*
X243956946Y-101669702D03*
X240996946Y-96589702D03*
X243456946Y-97869702D03*
X240956946Y-97169702D03*
X234646946Y-99129702D03*
X235956946Y-97669702D03*
X238456946Y-95769702D03*
X264855515Y-97355110D03*
X254230331Y-100202120D03*
X259542923Y-98778615D03*
X255587830Y-104186539D03*
X264449826Y-97463814D03*
X254636020Y-100093416D03*
X263389040Y-93814002D03*
X260681574Y-93214311D03*
X260793052Y-93784901D03*
X256092832Y-95561959D03*
X258015891Y-93079653D03*
X255205345Y-97311264D03*
X273307922Y-96958937D03*
X277263015Y-91551013D03*
X282169918Y-90236212D03*
X282575607Y-90127508D03*
X272356112Y-92865814D03*
X271950423Y-92974518D03*
X278401666Y-85986709D03*
X281109132Y-86586400D03*
X278513144Y-86557299D03*
X275735983Y-85852051D03*
X273812924Y-88334357D03*
X272925437Y-90083662D03*
X300611615Y-83874893D03*
X289986431Y-86721903D03*
X291343930Y-90706322D03*
X295299023Y-85298398D03*
X300205926Y-83983597D03*
X290392120Y-86613199D03*
X296549152Y-80304684D03*
X299145140Y-80333785D03*
X296437674Y-79734094D03*
X290961445Y-83831047D03*
X293771991Y-79599436D03*
X291848932Y-82081742D03*
X314083964Y-81715986D03*
X309177061Y-83030787D03*
X308771372Y-83139491D03*
X310128871Y-87123910D03*
X318990867Y-80401185D03*
X319396556Y-80292481D03*
X317930081Y-76751373D03*
X315334093Y-76722272D03*
X315222615Y-76151682D03*
X309746386Y-80248635D03*
X310633873Y-78499330D03*
X312556932Y-76017024D03*
X339095382Y-79960634D03*
X328470198Y-82807644D03*
X333782790Y-81384139D03*
X328875887Y-82698940D03*
X338689693Y-80069338D03*
X329827697Y-86792063D03*
X335032919Y-76390425D03*
X337628907Y-76419526D03*
X334921441Y-75819835D03*
X332255758Y-75685177D03*
X330332699Y-78167483D03*
X329445212Y-79916788D03*
X347610863Y-79246791D03*
X348562673Y-83339914D03*
X357424669Y-76617189D03*
X352517766Y-77931990D03*
X357830358Y-76508485D03*
X347205174Y-79355495D03*
X356363883Y-72967377D03*
X353767895Y-72938276D03*
X353656417Y-72367686D03*
X350990734Y-72233028D03*
X348180188Y-76464639D03*
X349067675Y-74715334D03*
X375892053Y-70116196D03*
X370579461Y-71539701D03*
X375486364Y-70224900D03*
X365266869Y-72963206D03*
X365672558Y-72854502D03*
X366624368Y-76947625D03*
X371718112Y-65975397D03*
X371829590Y-66545987D03*
X374425578Y-66575088D03*
X369052429Y-65840739D03*
X366241883Y-70072350D03*
X367129370Y-68323045D03*
X38987901Y-88298939D03*
X39393590Y-88407643D03*
X49613085Y-91145949D03*
X38171320Y-92428297D03*
X49207396Y-91037245D03*
X44300493Y-89722444D03*
X50113635Y-87346021D03*
X48068745Y-85472941D03*
X47879993Y-86022825D03*
X42920955Y-85211693D03*
X45827525Y-84023482D03*
X41277716Y-86282892D03*
X62430262Y-96115170D03*
X57523359Y-94800369D03*
X57117670Y-94691665D03*
X56301089Y-98821023D03*
X67337165Y-97429971D03*
X67742854Y-97538675D03*
X66198514Y-91865667D03*
X66009762Y-92415551D03*
X68243404Y-93738747D03*
X59407485Y-92675618D03*
X61050724Y-91604419D03*
X63957294Y-90416208D03*
X75818579Y-98161670D03*
X86038074Y-100899976D03*
X81131171Y-99585175D03*
X76224268Y-98270374D03*
X86443763Y-101008680D03*
X75001998Y-102291028D03*
X84899423Y-95335672D03*
X86944313Y-97208752D03*
X84710671Y-95885556D03*
X79751633Y-95074424D03*
X78108394Y-96145623D03*
X82658203Y-93886213D03*
X106133976Y-101420055D03*
X105728287Y-101311351D03*
X95914481Y-98681749D03*
X100821384Y-99996550D03*
X94692211Y-102702403D03*
X95508792Y-98573045D03*
X106634526Y-97620127D03*
X104589636Y-95747047D03*
X104400884Y-96296931D03*
X99441846Y-95485799D03*
X102348416Y-94297588D03*
X97798607Y-96556998D03*
X124432456Y-104965212D03*
X114618650Y-102335610D03*
X113396380Y-106356264D03*
X114212961Y-102226906D03*
X119525553Y-103650411D03*
X124838145Y-105073916D03*
X123293805Y-99400908D03*
X125338695Y-101273988D03*
X123105053Y-99950792D03*
X116502776Y-100210859D03*
X121052585Y-97951449D03*
X118146015Y-99139660D03*
X132694801Y-108568105D03*
X131472531Y-112588759D03*
X142508607Y-111197707D03*
X132289112Y-108459401D03*
X137601704Y-109882906D03*
X142914296Y-111306411D03*
X141369956Y-105633403D03*
X141181204Y-106183287D03*
X143414846Y-107506483D03*
X134578927Y-106443354D03*
X139128736Y-104183944D03*
X136222166Y-105372155D03*
X160607546Y-118604285D03*
X149165781Y-119886633D03*
X150388051Y-115865979D03*
X149982362Y-115757275D03*
X155294954Y-117180780D03*
X160201857Y-118495581D03*
X159063206Y-112931277D03*
X158874454Y-113481161D03*
X161108096Y-114804357D03*
X153915416Y-112670029D03*
X152272177Y-113741228D03*
X156821986Y-111481818D03*
X175982461Y-120687059D03*
X181482461Y-120687059D03*
X186562461Y-120687059D03*
X176402461Y-120687059D03*
X176262461Y-124887059D03*
X186982461Y-120687059D03*
X184022461Y-115607059D03*
X186482461Y-116887059D03*
X183982461Y-116187059D03*
X178982461Y-116687059D03*
X181482461Y-114787059D03*
X177672461Y-118147059D03*
X195249234Y-124888156D03*
X205969234Y-120688156D03*
X194969234Y-120688156D03*
X195389234Y-120688156D03*
X200469234Y-120688156D03*
X205549234Y-120688156D03*
X202969234Y-116188156D03*
X205469234Y-116888156D03*
X203009234Y-115608156D03*
X200469234Y-114788156D03*
X196659234Y-118148156D03*
X197969234Y-116688156D03*
X214379244Y-120688139D03*
X213959244Y-120688139D03*
X214239244Y-124888139D03*
X219459244Y-120688139D03*
X224959244Y-120688139D03*
X224539244Y-120688139D03*
X221999244Y-115608139D03*
X224459244Y-116888139D03*
X221959244Y-116188139D03*
X216959244Y-116688139D03*
X219459244Y-114788139D03*
X215649244Y-118148139D03*
X238440303Y-120688345D03*
X233220303Y-124888345D03*
X243520303Y-120688345D03*
X232940303Y-120688345D03*
X243940303Y-120688345D03*
X233360303Y-120688345D03*
X243440303Y-116888345D03*
X240980303Y-115608345D03*
X240940303Y-116188345D03*
X238440303Y-114788345D03*
X235940303Y-116688345D03*
X234630303Y-118148345D03*
X259139704Y-118673038D03*
X259545393Y-118564334D03*
X264452296Y-117249533D03*
X260497203Y-122657457D03*
X269359199Y-115934732D03*
X269764888Y-115826028D03*
X265702425Y-112255819D03*
X268298413Y-112284920D03*
X265590947Y-111685229D03*
X260114718Y-115782182D03*
X261002205Y-114032877D03*
X262925264Y-111550571D03*
X287517001Y-108610731D03*
X282204409Y-110034236D03*
X276891817Y-111457741D03*
X278249316Y-115442160D03*
X287111312Y-108719435D03*
X277297506Y-111349037D03*
X283454538Y-105040522D03*
X283343060Y-104469932D03*
X286050526Y-105069623D03*
X278754318Y-106817580D03*
X277866831Y-108566885D03*
X280677377Y-104335274D03*
X294999323Y-105159717D03*
X296356822Y-109144136D03*
X305218818Y-102421411D03*
X295405012Y-105051013D03*
X300311915Y-103736212D03*
X305624507Y-102312707D03*
X301450566Y-98171908D03*
X301562044Y-98742498D03*
X304158032Y-98771599D03*
X295974337Y-102268861D03*
X298784883Y-98037250D03*
X296861824Y-100519556D03*
X313692131Y-101484283D03*
X314097820Y-101375579D03*
X315049630Y-105468702D03*
X324317315Y-98637273D03*
X319004723Y-100060778D03*
X323911626Y-98745977D03*
X320143374Y-94496474D03*
X320254852Y-95067064D03*
X322850840Y-95096165D03*
X315554632Y-96844122D03*
X317477691Y-94361816D03*
X314667145Y-98593427D03*
X338677427Y-99665571D03*
X343990019Y-98242066D03*
X333770524Y-100980372D03*
X343584330Y-98350770D03*
X333364835Y-101089076D03*
X334722334Y-105073495D03*
X342523544Y-94700958D03*
X339927556Y-94671857D03*
X339816078Y-94101267D03*
X334339849Y-98198220D03*
X335227336Y-96448915D03*
X337150395Y-93966609D03*
X357425807Y-96201247D03*
X352518904Y-97516048D03*
X362332710Y-94886446D03*
X353470714Y-101609171D03*
X362738399Y-94777742D03*
X352113215Y-97624752D03*
X358564458Y-90636943D03*
X358675936Y-91207533D03*
X361271924Y-91236634D03*
X353975716Y-92984591D03*
X353088229Y-94733896D03*
X355898775Y-90502285D03*
X380770215Y-88387067D03*
X370145031Y-91234077D03*
X370550720Y-91125373D03*
X375457623Y-89810572D03*
X371502530Y-95218496D03*
X380364526Y-88495771D03*
X376707752Y-84816858D03*
X379303740Y-84845959D03*
X376596274Y-84246268D03*
X371120045Y-88343221D03*
X372007532Y-86593916D03*
X373930591Y-84111610D03*
X34056395Y-106846303D03*
X34462084Y-106955007D03*
X33239814Y-110975661D03*
X44275890Y-109584609D03*
X44681579Y-109693313D03*
X39368987Y-108269808D03*
X42948487Y-104570189D03*
X45182129Y-105893385D03*
X43137239Y-104020305D03*
X36346210Y-104830256D03*
X37989449Y-103759057D03*
X40896019Y-102570846D03*
X62326470Y-116002356D03*
X52106975Y-113264050D03*
X51290394Y-117393408D03*
X62732159Y-116111060D03*
X57419567Y-114687555D03*
X52512664Y-113372754D03*
X63232709Y-112311132D03*
X60999067Y-110987936D03*
X61187819Y-110438052D03*
X58946599Y-108988593D03*
X56040029Y-110176804D03*
X54396790Y-111248003D03*
X70856690Y-116722305D03*
X81481874Y-119569315D03*
X70040109Y-120851663D03*
X71262379Y-116831009D03*
X76169282Y-118145810D03*
X81076185Y-119460611D03*
X81982424Y-115769387D03*
X79937534Y-113896307D03*
X79748782Y-114446191D03*
X73146505Y-114706258D03*
X74789744Y-113635059D03*
X77696314Y-112446848D03*
X95867582Y-118435457D03*
X90554990Y-117011952D03*
X89738409Y-121141310D03*
X90960679Y-117120656D03*
X101180174Y-119858962D03*
X100774485Y-119750258D03*
X101680724Y-116059034D03*
X99447082Y-114735838D03*
X99635834Y-114185954D03*
X92844805Y-114995905D03*
X97394614Y-112736495D03*
X94488044Y-113924706D03*
X109235410Y-120646390D03*
X114548002Y-122069895D03*
X119860594Y-123493400D03*
X108418829Y-124775748D03*
X119454905Y-123384696D03*
X109641099Y-120755094D03*
X118127502Y-118370276D03*
X118316254Y-117820392D03*
X120361144Y-119693472D03*
X113168464Y-117559144D03*
X116075034Y-116370933D03*
X111525225Y-118630343D03*
X127791737Y-126985791D03*
X132698640Y-128300592D03*
X137605543Y-129615393D03*
X126569467Y-131006445D03*
X138011232Y-129724097D03*
X127386048Y-126877087D03*
X136278140Y-124600973D03*
X138511782Y-125924169D03*
X136466892Y-124051089D03*
X129675863Y-124861040D03*
X134225672Y-122601630D03*
X131319102Y-123789841D03*
X145100389Y-134107526D03*
X150412981Y-135531031D03*
X145506078Y-134216230D03*
X144283808Y-138236884D03*
X155725573Y-136954536D03*
X155319884Y-136845832D03*
X154181233Y-131281528D03*
X156226123Y-133154608D03*
X153992481Y-131831412D03*
X147390204Y-132091479D03*
X151940013Y-129832069D03*
X149033443Y-131020280D03*
X175979982Y-139697890D03*
X176259982Y-143897890D03*
X186559982Y-139697890D03*
X176399982Y-139697890D03*
X186979982Y-139697890D03*
X181479982Y-139697890D03*
X184019982Y-134617890D03*
X186479982Y-135897890D03*
X183979982Y-135197890D03*
X177669982Y-137157890D03*
X178979982Y-135697890D03*
X181479982Y-133797890D03*
X195401210Y-139689145D03*
X200481210Y-139689145D03*
X194981210Y-139689145D03*
X205561210Y-139689145D03*
X205981210Y-139689145D03*
X195261210Y-143889145D03*
X202981210Y-135189145D03*
X205481210Y-135889145D03*
X203021210Y-134609145D03*
X197981210Y-135689145D03*
X200481210Y-133789145D03*
X196671210Y-137149145D03*
X224957600Y-139677803D03*
X214377600Y-139677803D03*
X214237600Y-143877803D03*
X224537600Y-139677803D03*
X219457600Y-139677803D03*
X213957600Y-139677803D03*
X221997600Y-134597803D03*
X221957600Y-135177803D03*
X224457600Y-135877803D03*
X216957600Y-135677803D03*
X219457600Y-133777803D03*
X215647600Y-137137803D03*
X238454704Y-139684832D03*
X243534704Y-139684832D03*
X233234704Y-143884832D03*
X243954704Y-139684832D03*
X233374704Y-139684832D03*
X232954704Y-139684832D03*
X243454704Y-135884832D03*
X240954704Y-135184832D03*
X240994704Y-134604832D03*
X235954704Y-135684832D03*
X238454704Y-133784832D03*
X234644704Y-137144832D03*
X265425119Y-141025350D03*
X274287115Y-134302625D03*
X264067620Y-137040931D03*
X269380212Y-135617426D03*
X274692804Y-134193921D03*
X264473309Y-136932227D03*
X270518863Y-130053122D03*
X273226329Y-130652813D03*
X270630341Y-130623712D03*
X265042634Y-134150075D03*
X265930121Y-132400770D03*
X267853180Y-129918464D03*
X281821864Y-129827357D03*
X292447048Y-126980347D03*
X287134456Y-128403852D03*
X283179363Y-133811776D03*
X292041359Y-127089051D03*
X282227553Y-129718653D03*
X290980573Y-123439239D03*
X288273107Y-122839548D03*
X288384585Y-123410138D03*
X283684365Y-125187196D03*
X285607424Y-122704890D03*
X282796878Y-126936501D03*
X310567469Y-120790605D03*
X310161780Y-120899309D03*
X299942285Y-123637615D03*
X305254877Y-122214110D03*
X300347974Y-123528911D03*
X301299784Y-127622034D03*
X309100994Y-117249497D03*
X306393528Y-116649806D03*
X306505006Y-117220396D03*
X303727845Y-116515148D03*
X300917299Y-120746759D03*
X301804786Y-118997454D03*
X328828492Y-117210213D03*
X319014686Y-119839815D03*
X323921589Y-118525014D03*
X319966496Y-123932938D03*
X329234181Y-117101509D03*
X318608997Y-119948519D03*
X327767706Y-113560401D03*
X325060240Y-112960710D03*
X325171718Y-113531300D03*
X320471498Y-115308358D03*
X322394557Y-112826052D03*
X319584011Y-117057663D03*
X338316417Y-119641977D03*
X339673916Y-123626396D03*
X348535912Y-116903671D03*
X343629009Y-118218472D03*
X348941601Y-116794967D03*
X338722106Y-119533273D03*
X344879138Y-113224758D03*
X344767660Y-112654168D03*
X347475126Y-113253859D03*
X342101977Y-112519510D03*
X340178918Y-115001816D03*
X339291431Y-116751121D03*
X357475482Y-116039785D03*
X367289288Y-113410183D03*
X362382385Y-114724984D03*
X357069793Y-116148489D03*
X367694977Y-113301479D03*
X358427292Y-120132908D03*
X366228502Y-109760371D03*
X363521036Y-109160680D03*
X363632514Y-109731270D03*
X358044807Y-113257633D03*
X358932294Y-111508328D03*
X360855353Y-109026022D03*
X376462274Y-113788366D03*
X385324270Y-107065641D03*
X375510464Y-109695243D03*
X380417367Y-108380442D03*
X385729959Y-106956937D03*
X375104775Y-109803947D03*
X381556018Y-102816138D03*
X384263484Y-103415829D03*
X381667496Y-103386728D03*
X378890335Y-102681480D03*
X376967276Y-105163786D03*
X376079789Y-106913091D03*
X39743551Y-128082367D03*
X34430959Y-126658862D03*
X28301786Y-129364715D03*
X29524056Y-125344061D03*
X39337862Y-127973663D03*
X29118367Y-125235357D03*
X38199211Y-122409359D03*
X38010459Y-122959243D03*
X40244101Y-124282439D03*
X31408182Y-123219310D03*
X35957991Y-120959900D03*
X33051421Y-122148111D03*
X57797753Y-134445742D03*
X47172569Y-131598732D03*
X47578258Y-131707436D03*
X57392064Y-134337038D03*
X46355988Y-135728090D03*
X52485161Y-133022237D03*
X56064661Y-129322618D03*
X58298303Y-130645814D03*
X56253413Y-128772734D03*
X51105623Y-128511486D03*
X54012193Y-127323275D03*
X49462384Y-129582685D03*
X65941843Y-135065034D03*
X76161338Y-137803340D03*
X65125262Y-139194392D03*
X76567027Y-137912044D03*
X71254435Y-136488539D03*
X66347532Y-135173738D03*
X75022687Y-132239036D03*
X74833935Y-132788920D03*
X77067577Y-134112116D03*
X72781467Y-130789577D03*
X69874897Y-131977788D03*
X68231658Y-133048987D03*
X85985267Y-135586774D03*
X85579578Y-135478070D03*
X96204762Y-138325080D03*
X84762997Y-139607428D03*
X95799073Y-138216376D03*
X90892170Y-136901575D03*
X94471670Y-133201956D03*
X96705312Y-134525152D03*
X94660422Y-132652072D03*
X87869393Y-133462023D03*
X92419202Y-131202613D03*
X89512632Y-132390824D03*
X114549607Y-141794056D03*
X103513531Y-143185108D03*
X104330112Y-139055750D03*
X104735801Y-139164454D03*
X109642704Y-140479255D03*
X114955296Y-141902760D03*
X113410956Y-136229752D03*
X115455846Y-138102832D03*
X113222204Y-136779636D03*
X111169736Y-134780293D03*
X108263166Y-135968504D03*
X106619927Y-137039703D03*
X122431183Y-145342987D03*
X127743775Y-146766492D03*
X121614602Y-149472345D03*
X133056367Y-148189997D03*
X132650678Y-148081293D03*
X122836872Y-145451691D03*
X133556917Y-144390069D03*
X131512027Y-142516989D03*
X131323275Y-143066873D03*
X124720998Y-143326940D03*
X126364237Y-142255741D03*
X129270807Y-141067530D03*
X139356683Y-156604204D03*
X140173264Y-152474846D03*
X150798448Y-155321856D03*
X140578953Y-152583550D03*
X145485856Y-153898351D03*
X150392759Y-155213152D03*
X149254108Y-149648848D03*
X149065356Y-150198732D03*
X151298998Y-151521928D03*
X142463079Y-150458799D03*
X144106318Y-149387600D03*
X147012888Y-148199389D03*
X175990210Y-158719962D03*
X186570210Y-158719962D03*
X176410210Y-158719962D03*
X186990210Y-158719962D03*
X176270210Y-162919962D03*
X181490210Y-158719962D03*
X186490210Y-154919962D03*
X184030210Y-153639962D03*
X183990210Y-154219962D03*
X177680210Y-156179962D03*
X178990210Y-154719962D03*
X181490210Y-152819962D03*
X195401345Y-158720277D03*
X205561345Y-158720277D03*
X205981345Y-158720277D03*
X200481345Y-158720277D03*
X195261345Y-162920277D03*
X194981345Y-158720277D03*
X203021345Y-153640277D03*
X205481345Y-154920277D03*
X202981345Y-154220277D03*
X197981345Y-154720277D03*
X200481345Y-152820277D03*
X196671345Y-156180277D03*
X224974685Y-158703844D03*
X219474685Y-158703844D03*
X224554685Y-158703844D03*
X214394685Y-158703844D03*
X213974685Y-158703844D03*
X214254685Y-162903844D03*
X224474685Y-154903844D03*
X221974685Y-154203844D03*
X222014685Y-153623844D03*
X219474685Y-152803844D03*
X215664685Y-156163844D03*
X216974685Y-154703844D03*
X233386643Y-158701118D03*
X243966643Y-158701118D03*
X233246643Y-162901118D03*
X238466643Y-158701118D03*
X243546643Y-158701118D03*
X232966643Y-158701118D03*
X241006643Y-153621118D03*
X240966643Y-154201118D03*
X243466643Y-154901118D03*
X235966643Y-154701118D03*
X234656643Y-156161118D03*
X238466643Y-152801118D03*
X274316445Y-153973288D03*
X269003853Y-155396793D03*
X279223348Y-152658487D03*
X269409542Y-155288089D03*
X279629037Y-152549783D03*
X270361352Y-159381212D03*
X278162562Y-149008675D03*
X275566574Y-148979574D03*
X275455096Y-148408984D03*
X269978867Y-152505937D03*
X272789413Y-148274326D03*
X270866354Y-150756632D03*
X286749382Y-148241269D03*
X296968877Y-145502963D03*
X297374566Y-145394259D03*
X288106881Y-152225688D03*
X287155071Y-148132565D03*
X292061974Y-146817764D03*
X295908091Y-141853151D03*
X293200625Y-141253460D03*
X293312103Y-141824050D03*
X290534942Y-141118802D03*
X287724396Y-145350413D03*
X288611883Y-143601108D03*
X315091101Y-139232538D03*
X310184198Y-140547339D03*
X304871606Y-141970844D03*
X315496790Y-139123834D03*
X306229105Y-145955263D03*
X305277295Y-141862140D03*
X314030315Y-135582726D03*
X311434327Y-135553625D03*
X311322849Y-134983035D03*
X305846620Y-139079988D03*
X306734107Y-137330683D03*
X308657166Y-134848377D03*
X323569603Y-138385456D03*
X334194787Y-135538446D03*
X324927102Y-142369875D03*
X328882195Y-136961951D03*
X333789098Y-135647150D03*
X323975292Y-138276752D03*
X332728312Y-131997338D03*
X330132324Y-131968237D03*
X330020846Y-131397647D03*
X324544617Y-135494600D03*
X327355163Y-131262989D03*
X325432104Y-133745295D03*
X343647265Y-137892852D03*
X344599075Y-141985975D03*
X353866760Y-135154546D03*
X343241576Y-138001556D03*
X353461071Y-135263250D03*
X348554168Y-136578051D03*
X349692819Y-131013747D03*
X352400285Y-131613438D03*
X349804297Y-131584337D03*
X344216590Y-135110700D03*
X345104077Y-133361395D03*
X347027136Y-130879089D03*
X362422272Y-134387296D03*
X362016583Y-134496000D03*
X363374082Y-138480419D03*
X372236078Y-131757694D03*
X372641767Y-131648990D03*
X367329175Y-133072495D03*
X368579304Y-128078781D03*
X371175292Y-128107882D03*
X368467826Y-127508191D03*
X362991597Y-131605144D03*
X365802143Y-127373533D03*
X363879084Y-129855839D03*
X390251625Y-125377142D03*
X385344722Y-126691943D03*
X380032130Y-128115448D03*
X380437819Y-128006744D03*
X390657314Y-125268438D03*
X381389629Y-132099867D03*
X386594851Y-121698229D03*
X386483373Y-121127639D03*
X389190839Y-121727330D03*
X381007144Y-125224592D03*
X383817690Y-120992981D03*
X381894631Y-123475287D03*
X24616014Y-143760984D03*
X34429820Y-146390586D03*
X23393744Y-147781638D03*
X29522917Y-145075785D03*
X24210325Y-143652280D03*
X34835509Y-146499290D03*
X35336059Y-142699362D03*
X33102417Y-141376166D03*
X33291169Y-140826282D03*
X26500140Y-141636233D03*
X31049949Y-139376823D03*
X28143379Y-140565034D03*
X47527553Y-151384381D03*
X52434456Y-152699182D03*
X42214961Y-149960876D03*
X52840145Y-152807886D03*
X41398380Y-154090234D03*
X42620650Y-150069580D03*
X51295805Y-147134878D03*
X51107053Y-147684762D03*
X53340695Y-149007958D03*
X49054585Y-145685419D03*
X44504776Y-147944829D03*
X46148015Y-146873630D03*
X71632929Y-156339476D03*
X71227240Y-156230772D03*
X66320337Y-154915971D03*
X60191164Y-157621824D03*
X61413434Y-153601170D03*
X61007745Y-153492466D03*
X70088589Y-150666468D03*
X69899837Y-151216352D03*
X72133479Y-152539548D03*
X63297560Y-151476419D03*
X64940799Y-150405220D03*
X67847369Y-149217009D03*
X91293142Y-156713263D03*
X79851377Y-157995611D03*
X81073647Y-153974957D03*
X85980550Y-155289758D03*
X90887453Y-156604559D03*
X80667958Y-153866253D03*
X91793692Y-152913335D03*
X89560050Y-151590139D03*
X89748802Y-151040255D03*
X87507582Y-149590796D03*
X84601012Y-150779007D03*
X82957773Y-151850206D03*
X110024000Y-160296260D03*
X104711408Y-158872755D03*
X99804505Y-157557954D03*
X99398816Y-157449250D03*
X109618311Y-160187556D03*
X98582235Y-161578608D03*
X110524550Y-156496332D03*
X108479660Y-154623252D03*
X108290908Y-155173136D03*
X101688631Y-155433203D03*
X103331870Y-154362004D03*
X106238440Y-153173793D03*
X117897435Y-163821182D03*
X122804338Y-165135983D03*
X127711241Y-166450784D03*
X116675165Y-167841836D03*
X128116930Y-166559488D03*
X117491746Y-163712478D03*
X128617480Y-162759560D03*
X126572590Y-160886480D03*
X126383838Y-161436364D03*
X124331370Y-159437021D03*
X119781561Y-161696431D03*
X121424800Y-160625232D03*
X176004206Y-177722335D03*
X176284206Y-181922335D03*
X187004206Y-177722335D03*
X186584206Y-177722335D03*
X176424206Y-177722335D03*
X181504206Y-177722335D03*
X184044206Y-172642335D03*
X186504206Y-173922335D03*
X184004206Y-173222335D03*
X177694206Y-175182335D03*
X181504206Y-171822335D03*
X179004206Y-173722335D03*
X200493711Y-177712896D03*
X205573711Y-177712896D03*
X205993711Y-177712896D03*
X194993711Y-177712896D03*
X195273711Y-181912896D03*
X195413711Y-177712896D03*
X202993711Y-173212896D03*
X203033711Y-172632896D03*
X205493711Y-173912896D03*
X196683711Y-175172896D03*
X197993711Y-173712896D03*
X200493711Y-171812896D03*
X224999599Y-177693491D03*
X213999599Y-177693491D03*
X219499599Y-177693491D03*
X214279599Y-181893491D03*
X214419599Y-177693491D03*
X224579599Y-177693491D03*
X221999599Y-173193491D03*
X222039599Y-172613491D03*
X224499599Y-173893491D03*
X219499599Y-171793491D03*
X216999599Y-173693491D03*
X215689599Y-175153491D03*
X232962754Y-177682742D03*
X238462754Y-177682742D03*
X233242754Y-181882742D03*
X243962754Y-177682742D03*
X233382754Y-177682742D03*
X243542754Y-177682742D03*
X243462754Y-173882742D03*
X240962754Y-173182742D03*
X241002754Y-172602742D03*
X235962754Y-173682742D03*
X238462754Y-171782742D03*
X234652754Y-175142742D03*
X309785873Y-160345966D03*
X310191562Y-160237262D03*
X315098465Y-158922461D03*
X320005368Y-157607660D03*
X320411057Y-157498956D03*
X311143372Y-164330385D03*
X316348594Y-153928747D03*
X318944582Y-153957848D03*
X316237116Y-153358157D03*
X310760887Y-157455110D03*
X311648374Y-155705805D03*
X313571433Y-153223499D03*
X329863878Y-160777152D03*
X328506379Y-156792733D03*
X328912068Y-156684029D03*
X333818971Y-155369228D03*
X338725874Y-154054427D03*
X339131563Y-153945723D03*
X335069100Y-150375514D03*
X337665088Y-150404615D03*
X334957622Y-149804924D03*
X329481393Y-153901877D03*
X332291939Y-149670266D03*
X330368880Y-152152572D03*
X353500171Y-154972970D03*
X349545078Y-160380894D03*
X348593268Y-156287771D03*
X358812763Y-153549465D03*
X358407074Y-153658169D03*
X348187579Y-156396475D03*
X354638822Y-149408666D03*
X357346288Y-150008357D03*
X354750300Y-149979256D03*
X349162593Y-153505619D03*
X350050080Y-151756314D03*
X351973139Y-149274008D03*
X368307098Y-156910526D03*
X377574783Y-150079097D03*
X367355288Y-152817403D03*
X372262191Y-151502602D03*
X377169094Y-150187801D03*
X366949599Y-152926107D03*
X373400842Y-145938298D03*
X376108308Y-146537989D03*
X373512320Y-146508888D03*
X370735159Y-145803640D03*
X368812100Y-148285946D03*
X367924613Y-150035251D03*
X384967714Y-146529810D03*
X385373403Y-146421106D03*
X395592898Y-143682800D03*
X395187209Y-143791504D03*
X386325213Y-150514229D03*
X390280306Y-145106305D03*
X391418957Y-139542001D03*
X391530435Y-140112591D03*
X394126423Y-140141692D03*
X385942728Y-143638954D03*
X386830215Y-141889649D03*
X388753274Y-139407343D03*
X296981020Y-165214572D03*
X291668428Y-166638077D03*
X292074117Y-166529373D03*
X293025927Y-170622496D03*
X302293612Y-163791067D03*
X301887923Y-163899771D03*
X300827137Y-160249959D03*
X298119671Y-159650268D03*
X298231149Y-160220858D03*
X292643442Y-163747221D03*
X293530929Y-161997916D03*
X295453988Y-159515610D03*
X207051997Y-81340000D03*
X212831997Y-81340000D03*
D15*
X205621997Y-81870000D03*
D16*
X214261997Y-77690000D03*
D15*
X214261997Y-81870000D03*
D16*
X205621997Y-77690000D03*
D14*
X59690000Y-68834000D03*
X37084000Y-153924000D03*
X96520000Y-79502000D03*
X84836000Y-125222000D03*
X110998000Y-170434000D03*
X128016000Y-108204000D03*
X168021000Y-121158000D03*
X164973000Y-156591000D03*
X171958000Y-187325000D03*
X165735000Y-84328000D03*
X256413000Y-84074000D03*
X251968000Y-121285000D03*
X255397000Y-156845000D03*
X323342000Y-78867000D03*
X247904000Y-187198000D03*
X308356000Y-170815000D03*
X335280000Y-125095000D03*
X191008000Y-142113000D03*
X291719000Y-108204000D03*
X360426000Y-69596000D03*
X209931000Y-163576000D03*
X229108000Y-141986000D03*
X382905000Y-154686000D03*
X209931000Y-125603000D03*
M02*
