%TF.GenerationSoftware,KiCad,Pcbnew,(5.99.0-12367-g21313a4c1a)*%
%TF.CreationDate,2021-09-16T13:14:42+01:00*%
%TF.ProjectId,superlyra,73757065-726c-4797-9261-2e6b69636164,0.1*%
%TF.SameCoordinates,Original*%
%TF.FileFunction,Soldermask,Bot*%
%TF.FilePolarity,Negative*%
%FSLAX46Y46*%
G04 Gerber Fmt 4.6, Leading zero omitted, Abs format (unit mm)*
G04 Created by KiCad (PCBNEW (5.99.0-12367-g21313a4c1a)) date 2021-09-16 13:14:42*
%MOMM*%
%LPD*%
G01*
G04 APERTURE LIST*
G04 Aperture macros list*
%AMHorizOval*
0 Thick line with rounded ends*
0 $1 width*
0 $2 $3 position (X,Y) of the first rounded end (center of the circle)*
0 $4 $5 position (X,Y) of the second rounded end (center of the circle)*
0 Add line between two ends*
20,1,$1,$2,$3,$4,$5,0*
0 Add two circle primitives to create the rounded ends*
1,1,$1,$2,$3*
1,1,$1,$4,$5*%
G04 Aperture macros list end*
%ADD10R,1.700000X1.700000*%
%ADD11O,1.700000X1.700000*%
%ADD12C,3.987800*%
%ADD13C,1.700000*%
%ADD14C,3.048000*%
%ADD15C,1.750000*%
%ADD16C,1.200000*%
%ADD17HorizOval,2.250000X0.057457X0.284954X-0.057457X-0.284954X0*%
%ADD18C,2.250000*%
%ADD19HorizOval,2.500000X1.030158X-0.708008X-1.030158X0.708008X0*%
%ADD20C,2.000000*%
%ADD21HorizOval,2.300000X1.406107X0.763454X-1.406107X-0.763454X0*%
%ADD22HorizOval,2.250000X0.744677X0.638265X-0.744677X-0.638265X0*%
%ADD23HorizOval,2.500000X1.178302X-0.417259X-1.178302X0.417259X0*%
%ADD24HorizOval,2.250000X-0.018253X0.290115X0.018253X-0.290115X0*%
%ADD25HorizOval,2.300000X1.160599X1.101367X-1.160599X-1.101367X0*%
%ADD26HorizOval,2.250000X0.554107X0.809253X-0.554107X-0.809253X0*%
%ADD27HorizOval,2.500000X0.928931X-0.836413X-0.928931X0.836413X0*%
%ADD28HorizOval,2.250000X0.094159X0.275017X-0.094159X-0.275017X0*%
%ADD29HorizOval,2.300000X1.493729X0.573389X-1.493729X-0.573389X0*%
%ADD30HorizOval,2.250000X0.821616X0.535605X-0.821616X-0.535605X0*%
%ADD31HorizOval,2.500000X1.113758X-0.567488X-1.113758X0.567488X0*%
%ADD32HorizOval,2.250000X0.019771X0.290016X-0.019771X-0.290016X0*%
%ADD33HorizOval,2.250000X0.654995X0.730004X-0.654995X-0.730004X0*%
%ADD34HorizOval,2.300000X1.294427X0.940456X-1.294427X-0.940456X0*%
%ADD35HorizOval,2.500000X1.222685X-0.259890X-1.222685X0.259890X0*%
%ADD36HorizOval,2.250000X-0.055964X0.285251X0.055964X-0.285251X0*%
%ADD37HorizOval,2.300000X1.006913X1.243434X-1.006913X-1.243434X0*%
%ADD38HorizOval,2.250000X0.443738X0.874655X-0.443738X-0.874655X0*%
%ADD39C,0.650000*%
%ADD40O,1.000000X2.100000*%
%ADD41O,1.000000X1.600000*%
%ADD42C,3.500000*%
G04 APERTURE END LIST*
D10*
%TO.C,J2*%
X198374000Y-83312000D03*
D11*
X200914000Y-83312000D03*
X198374000Y-80772000D03*
X200914000Y-80772000D03*
X198374000Y-78232000D03*
X200914000Y-78232000D03*
%TD*%
D12*
%TO.C,SW79*%
X140371625Y-166787401D03*
D13*
X156582947Y-177247894D03*
D14*
X138382406Y-181897021D03*
D12*
X151130000Y-176530000D03*
D15*
X146093460Y-175866927D03*
D16*
X145406448Y-180012722D03*
D14*
X162054143Y-185013464D03*
D15*
X156166540Y-177193073D03*
D13*
X145677053Y-175812106D03*
D12*
X164043362Y-169903844D03*
D17*
X154253437Y-172109860D03*
D18*
X154311343Y-171824997D03*
D19*
X155504171Y-172494419D03*
D20*
X156583224Y-173415140D03*
D19*
X155504171Y-172494419D03*
D21*
X150500784Y-171579519D03*
D22*
X148428809Y-172876160D03*
D21*
X150500784Y-171579519D03*
D18*
X149173493Y-172237905D03*
D20*
X151900105Y-170680475D03*
%TD*%
D16*
%TO.C,SW84*%
X263977868Y-181375415D03*
D12*
X279363375Y-166787401D03*
D14*
X257680857Y-185013464D03*
X281352594Y-181897021D03*
D15*
X273641540Y-175866927D03*
D13*
X263152053Y-177247894D03*
D15*
X263568460Y-177193073D03*
D12*
X255691638Y-169903844D03*
X268605000Y-176530000D03*
D13*
X274057947Y-175812106D03*
D18*
X270460197Y-171161924D03*
D23*
X271785639Y-171499809D03*
D20*
X273066225Y-172109879D03*
D23*
X271785639Y-171499809D03*
D24*
X270477991Y-171452068D03*
D25*
X266715946Y-171911055D03*
X266715946Y-171911055D03*
D26*
X265050166Y-173699782D03*
D18*
X265604283Y-172890536D03*
D20*
X267834895Y-170680475D03*
%TD*%
D15*
%TO.C,SW1*%
X54075933Y-72808264D03*
D16*
X43039857Y-74199316D03*
D15*
X44262127Y-70178662D03*
D13*
X43856438Y-70069958D03*
X54481622Y-72916968D03*
D12*
X49169030Y-71493463D03*
D27*
X53966788Y-68308696D03*
D18*
X52937282Y-67243960D03*
D20*
X54982172Y-69117040D03*
D27*
X53966788Y-68308696D03*
D28*
X52842689Y-67518827D03*
D29*
X49191365Y-66503205D03*
X49191365Y-66503205D03*
D18*
X47789492Y-66982712D03*
D30*
X46967869Y-67518306D03*
D20*
X50696062Y-65794501D03*
%TD*%
D15*
%TO.C,SW2*%
X72233932Y-79163835D03*
D16*
X61197856Y-80554887D03*
D12*
X67327029Y-77849034D03*
D15*
X62420126Y-76534233D03*
D13*
X72639621Y-79272539D03*
X62014437Y-76425529D03*
D27*
X72124787Y-74664267D03*
D20*
X73140171Y-75472611D03*
D27*
X72124787Y-74664267D03*
D28*
X71000688Y-73874398D03*
D18*
X71095281Y-73599531D03*
D29*
X67349364Y-72858776D03*
D18*
X65947491Y-73338283D03*
D29*
X67349364Y-72858776D03*
D30*
X65125868Y-73873877D03*
D20*
X68854061Y-72150072D03*
%TD*%
D16*
%TO.C,SW3*%
X79894380Y-84064145D03*
D12*
X86023553Y-81358292D03*
D15*
X90930456Y-82673093D03*
D13*
X80710961Y-79934787D03*
X91336145Y-82781797D03*
D15*
X81116650Y-80043491D03*
D27*
X90821311Y-78173525D03*
X90821311Y-78173525D03*
D18*
X89791805Y-77108789D03*
D28*
X89697212Y-77383656D03*
D20*
X91836695Y-78981869D03*
D29*
X86045888Y-76368034D03*
D18*
X84644015Y-76847541D03*
D29*
X86045888Y-76368034D03*
D30*
X83822392Y-77383135D03*
D20*
X87550585Y-75659330D03*
%TD*%
D13*
%TO.C,SW4*%
X100422124Y-80203996D03*
D15*
X100827813Y-80312700D03*
X110641619Y-82942302D03*
D12*
X105734716Y-81627501D03*
D13*
X111047308Y-83051006D03*
D16*
X99605543Y-84333354D03*
D27*
X110532474Y-78442734D03*
D28*
X109408375Y-77652865D03*
D20*
X111547858Y-79251078D03*
D27*
X110532474Y-78442734D03*
D18*
X109502968Y-77377998D03*
D29*
X105757051Y-76637243D03*
D20*
X107261748Y-75928539D03*
D18*
X104355178Y-77116750D03*
D30*
X103533555Y-77652344D03*
D29*
X105757051Y-76637243D03*
%TD*%
D13*
%TO.C,SW5*%
X119194668Y-83809695D03*
D16*
X118378087Y-87939053D03*
D13*
X129819852Y-86656705D03*
D12*
X124507260Y-85233200D03*
D15*
X129414163Y-86548001D03*
X119600357Y-83918399D03*
D18*
X128275512Y-80983697D03*
D27*
X129305018Y-82048433D03*
X129305018Y-82048433D03*
D28*
X128180919Y-81258564D03*
D20*
X130320402Y-82856777D03*
D18*
X123127722Y-80722449D03*
D29*
X124529595Y-80242942D03*
D20*
X126034292Y-79534238D03*
D29*
X124529595Y-80242942D03*
D30*
X122306099Y-81258043D03*
%TD*%
D13*
%TO.C,SW6*%
X147844394Y-92910124D03*
D12*
X142531802Y-91486619D03*
D15*
X137624899Y-90171818D03*
D16*
X136402629Y-94192472D03*
D13*
X137219210Y-90063114D03*
D15*
X147438705Y-92801420D03*
D20*
X148344944Y-89110196D03*
D27*
X147329560Y-88301852D03*
D28*
X146205461Y-87511983D03*
D27*
X147329560Y-88301852D03*
D18*
X146300054Y-87237116D03*
D30*
X140330641Y-87511462D03*
D20*
X144058834Y-85787657D03*
D29*
X142554137Y-86496361D03*
X142554137Y-86496361D03*
D18*
X141152264Y-86975868D03*
%TD*%
D13*
%TO.C,SW7*%
X165584699Y-100158943D03*
D16*
X154142934Y-101441291D03*
D12*
X160272107Y-98735438D03*
D15*
X155365204Y-97420637D03*
X165179010Y-100050239D03*
D13*
X154959515Y-97311933D03*
D18*
X164040359Y-94485935D03*
D27*
X165069865Y-95550671D03*
X165069865Y-95550671D03*
D20*
X166085249Y-96359015D03*
D28*
X163945766Y-94760802D03*
D20*
X161799139Y-93036476D03*
D30*
X158070946Y-94760281D03*
D29*
X160294442Y-93745180D03*
D18*
X158892569Y-94224687D03*
D29*
X160294442Y-93745180D03*
%TD*%
D13*
%TO.C,SW8*%
X175980027Y-101668860D03*
D15*
X186560027Y-101668860D03*
D16*
X176260027Y-105868860D03*
D15*
X176400027Y-101668860D03*
D13*
X186980027Y-101668860D03*
D12*
X181480027Y-101668860D03*
D31*
X185290027Y-97350860D03*
D32*
X183999798Y-96878844D03*
D18*
X184020027Y-96588860D03*
D31*
X185290027Y-97350860D03*
D20*
X186480027Y-97868860D03*
X181480027Y-95768860D03*
D33*
X178325022Y-98398856D03*
D34*
X180210027Y-96842860D03*
D18*
X178980027Y-97668860D03*
D34*
X180210027Y-96842860D03*
%TD*%
D12*
%TO.C,SW9*%
X200463938Y-101669622D03*
D16*
X195243938Y-105869622D03*
D15*
X195383938Y-101669622D03*
D13*
X205963938Y-101669622D03*
D15*
X205543938Y-101669622D03*
D13*
X194963938Y-101669622D03*
D18*
X203003938Y-96589622D03*
D31*
X204273938Y-97351622D03*
D32*
X202983709Y-96879606D03*
D31*
X204273938Y-97351622D03*
D20*
X205463938Y-97869622D03*
D33*
X197308933Y-98399618D03*
D34*
X199193938Y-96843622D03*
D20*
X200463938Y-95769622D03*
D18*
X197963938Y-97669622D03*
D34*
X199193938Y-96843622D03*
%TD*%
D15*
%TO.C,SW10*%
X224548099Y-101669850D03*
X214388099Y-101669850D03*
D13*
X213968099Y-101669850D03*
D16*
X214248099Y-105869850D03*
D12*
X219468099Y-101669850D03*
D13*
X224968099Y-101669850D03*
D18*
X222008099Y-96589850D03*
D20*
X224468099Y-97869850D03*
D31*
X223278099Y-97351850D03*
X223278099Y-97351850D03*
D32*
X221987870Y-96879834D03*
D34*
X218198099Y-96843850D03*
D18*
X216968099Y-97669850D03*
D33*
X216313094Y-98399846D03*
D20*
X219468099Y-95769850D03*
D34*
X218198099Y-96843850D03*
%TD*%
D15*
%TO.C,SW11*%
X243536946Y-101669702D03*
D16*
X233236946Y-105869702D03*
D13*
X232956946Y-101669702D03*
D12*
X238456946Y-101669702D03*
D15*
X233376946Y-101669702D03*
D13*
X243956946Y-101669702D03*
D31*
X242266946Y-97351702D03*
D18*
X240996946Y-96589702D03*
D31*
X242266946Y-97351702D03*
D20*
X243456946Y-97869702D03*
D32*
X240976717Y-96879686D03*
D33*
X235301941Y-98399698D03*
D34*
X237186946Y-96843702D03*
D18*
X235956946Y-97669702D03*
D20*
X238456946Y-95769702D03*
D34*
X237186946Y-96843702D03*
%TD*%
D13*
%TO.C,SW12*%
X264855515Y-97355110D03*
X254230331Y-100202120D03*
D12*
X259542923Y-98778615D03*
D16*
X255587830Y-104186539D03*
D15*
X264449826Y-97463814D03*
X254636020Y-100093416D03*
D20*
X263389040Y-93814002D03*
D35*
X262105520Y-93621647D03*
D18*
X260681574Y-93214311D03*
D35*
X262105520Y-93621647D03*
D36*
X260737088Y-93499650D03*
D18*
X256092832Y-95561959D03*
D37*
X257067136Y-94445757D03*
D20*
X258015891Y-93079653D03*
D38*
X255649083Y-96436609D03*
D37*
X257067136Y-94445757D03*
%TD*%
D16*
%TO.C,SW13*%
X273307922Y-96958937D03*
D12*
X277263015Y-91551013D03*
D15*
X282169918Y-90236212D03*
D13*
X282575607Y-90127508D03*
D15*
X272356112Y-92865814D03*
D13*
X271950423Y-92974518D03*
D18*
X278401666Y-85986709D03*
D20*
X281109132Y-86586400D03*
D36*
X278457180Y-86272048D03*
D35*
X279825612Y-86394045D03*
X279825612Y-86394045D03*
D20*
X275735983Y-85852051D03*
D18*
X273812924Y-88334357D03*
D38*
X273369175Y-89209007D03*
D37*
X274787228Y-87218155D03*
X274787228Y-87218155D03*
%TD*%
D13*
%TO.C,SW14*%
X300611615Y-83874893D03*
X289986431Y-86721903D03*
D16*
X291343930Y-90706322D03*
D12*
X295299023Y-85298398D03*
D15*
X300205926Y-83983597D03*
X290392120Y-86613199D03*
D35*
X297861620Y-80141430D03*
D36*
X296493188Y-80019433D03*
D20*
X299145140Y-80333785D03*
D18*
X296437674Y-79734094D03*
D35*
X297861620Y-80141430D03*
D37*
X292823236Y-80965540D03*
D38*
X291405183Y-82956392D03*
D20*
X293771991Y-79599436D03*
D37*
X292823236Y-80965540D03*
D18*
X291848932Y-82081742D03*
%TD*%
D12*
%TO.C,SW15*%
X314083964Y-81715986D03*
D15*
X309177061Y-83030787D03*
D13*
X308771372Y-83139491D03*
D16*
X310128871Y-87123910D03*
D15*
X318990867Y-80401185D03*
D13*
X319396556Y-80292481D03*
D20*
X317930081Y-76751373D03*
D36*
X315278129Y-76437021D03*
D35*
X316646561Y-76559018D03*
X316646561Y-76559018D03*
D18*
X315222615Y-76151682D03*
D38*
X310190124Y-79373980D03*
D37*
X311608177Y-77383128D03*
X311608177Y-77383128D03*
D18*
X310633873Y-78499330D03*
D20*
X312556932Y-76017024D03*
%TD*%
D13*
%TO.C,SW16*%
X339095382Y-79960634D03*
X328470198Y-82807644D03*
D12*
X333782790Y-81384139D03*
D15*
X328875887Y-82698940D03*
X338689693Y-80069338D03*
D16*
X329827697Y-86792063D03*
D36*
X334976955Y-76105174D03*
D20*
X337628907Y-76419526D03*
D35*
X336345387Y-76227171D03*
X336345387Y-76227171D03*
D18*
X334921441Y-75819835D03*
D20*
X332255758Y-75685177D03*
D37*
X331307003Y-77051281D03*
D18*
X330332699Y-78167483D03*
D37*
X331307003Y-77051281D03*
D38*
X329888950Y-79042133D03*
%TD*%
D15*
%TO.C,SW17*%
X347610863Y-79246791D03*
D16*
X348562673Y-83339914D03*
D15*
X357424669Y-76617189D03*
D12*
X352517766Y-77931990D03*
D13*
X357830358Y-76508485D03*
X347205174Y-79355495D03*
D35*
X355080363Y-72775022D03*
D20*
X356363883Y-72967377D03*
D35*
X355080363Y-72775022D03*
D36*
X353711931Y-72653025D03*
D18*
X353656417Y-72367686D03*
D20*
X350990734Y-72233028D03*
D37*
X350041979Y-73599132D03*
D38*
X348623926Y-75589984D03*
D18*
X349067675Y-74715334D03*
D37*
X350041979Y-73599132D03*
%TD*%
D13*
%TO.C,SW18*%
X375892053Y-70116196D03*
D12*
X370579461Y-71539701D03*
D15*
X375486364Y-70224900D03*
D13*
X365266869Y-72963206D03*
D15*
X365672558Y-72854502D03*
D16*
X366624368Y-76947625D03*
D35*
X373142058Y-66382733D03*
X373142058Y-66382733D03*
D18*
X371718112Y-65975397D03*
D36*
X371773626Y-66260736D03*
D20*
X374425578Y-66575088D03*
X369052429Y-65840739D03*
D38*
X366685621Y-69197695D03*
D37*
X368103674Y-67206843D03*
X368103674Y-67206843D03*
D18*
X367129370Y-68323045D03*
%TD*%
D13*
%TO.C,SW19*%
X38987901Y-88298939D03*
D15*
X39393590Y-88407643D03*
D13*
X49613085Y-91145949D03*
D16*
X38171320Y-92428297D03*
D15*
X49207396Y-91037245D03*
D12*
X44300493Y-89722444D03*
D20*
X50113635Y-87346021D03*
D27*
X49098251Y-86537677D03*
D18*
X48068745Y-85472941D03*
D27*
X49098251Y-86537677D03*
D28*
X47974152Y-85747808D03*
D18*
X42920955Y-85211693D03*
D29*
X44322828Y-84732186D03*
X44322828Y-84732186D03*
D20*
X45827525Y-84023482D03*
D30*
X42099332Y-85747287D03*
%TD*%
D12*
%TO.C,SW20*%
X62430262Y-96115170D03*
D15*
X57523359Y-94800369D03*
D13*
X57117670Y-94691665D03*
D16*
X56301089Y-98821023D03*
D15*
X67337165Y-97429971D03*
D13*
X67742854Y-97538675D03*
D27*
X67228020Y-92930403D03*
D18*
X66198514Y-91865667D03*
D28*
X66103921Y-92140534D03*
D27*
X67228020Y-92930403D03*
D20*
X68243404Y-93738747D03*
D29*
X62452597Y-91124912D03*
X62452597Y-91124912D03*
D30*
X60229101Y-92140013D03*
D18*
X61050724Y-91604419D03*
D20*
X63957294Y-90416208D03*
%TD*%
D13*
%TO.C,SW21*%
X75818579Y-98161670D03*
D15*
X86038074Y-100899976D03*
D12*
X81131171Y-99585175D03*
D15*
X76224268Y-98270374D03*
D13*
X86443763Y-101008680D03*
D16*
X75001998Y-102291028D03*
D18*
X84899423Y-95335672D03*
D20*
X86944313Y-97208752D03*
D27*
X85928929Y-96400408D03*
X85928929Y-96400408D03*
D28*
X84804830Y-95610539D03*
D18*
X79751633Y-95074424D03*
D30*
X78930010Y-95610018D03*
D29*
X81153506Y-94594917D03*
D20*
X82658203Y-93886213D03*
D29*
X81153506Y-94594917D03*
%TD*%
D13*
%TO.C,SW22*%
X106133976Y-101420055D03*
D15*
X105728287Y-101311351D03*
X95914481Y-98681749D03*
D12*
X100821384Y-99996550D03*
D16*
X94692211Y-102702403D03*
D13*
X95508792Y-98573045D03*
D27*
X105619142Y-96811783D03*
D20*
X106634526Y-97620127D03*
D18*
X104589636Y-95747047D03*
D27*
X105619142Y-96811783D03*
D28*
X104495043Y-96021914D03*
D18*
X99441846Y-95485799D03*
D29*
X100843719Y-95006292D03*
D20*
X102348416Y-94297588D03*
D29*
X100843719Y-95006292D03*
D30*
X98620223Y-96021393D03*
%TD*%
D15*
%TO.C,SW23*%
X124432456Y-104965212D03*
X114618650Y-102335610D03*
D16*
X113396380Y-106356264D03*
D13*
X114212961Y-102226906D03*
D12*
X119525553Y-103650411D03*
D13*
X124838145Y-105073916D03*
D27*
X124323311Y-100465644D03*
D18*
X123293805Y-99400908D03*
D27*
X124323311Y-100465644D03*
D20*
X125338695Y-101273988D03*
D28*
X123199212Y-99675775D03*
D30*
X117324392Y-99675254D03*
D29*
X119547888Y-98660153D03*
D20*
X121052585Y-97951449D03*
D29*
X119547888Y-98660153D03*
D18*
X118146015Y-99139660D03*
%TD*%
D15*
%TO.C,SW24*%
X132694801Y-108568105D03*
D16*
X131472531Y-112588759D03*
D15*
X142508607Y-111197707D03*
D13*
X132289112Y-108459401D03*
D12*
X137601704Y-109882906D03*
D13*
X142914296Y-111306411D03*
D27*
X142399462Y-106698139D03*
D18*
X141369956Y-105633403D03*
D28*
X141275363Y-105908270D03*
D27*
X142399462Y-106698139D03*
D20*
X143414846Y-107506483D03*
D30*
X135400543Y-105907749D03*
D29*
X137624039Y-104892648D03*
D20*
X139128736Y-104183944D03*
D18*
X136222166Y-105372155D03*
D29*
X137624039Y-104892648D03*
%TD*%
D13*
%TO.C,SW25*%
X160607546Y-118604285D03*
D16*
X149165781Y-119886633D03*
D15*
X150388051Y-115865979D03*
D13*
X149982362Y-115757275D03*
D12*
X155294954Y-117180780D03*
D15*
X160201857Y-118495581D03*
D27*
X160092712Y-113996013D03*
D18*
X159063206Y-112931277D03*
D28*
X158968613Y-113206144D03*
D20*
X161108096Y-114804357D03*
D27*
X160092712Y-113996013D03*
D29*
X155317289Y-112190522D03*
D18*
X153915416Y-112670029D03*
D29*
X155317289Y-112190522D03*
D30*
X153093793Y-113205623D03*
D20*
X156821986Y-111481818D03*
%TD*%
D13*
%TO.C,SW26*%
X175982461Y-120687059D03*
D12*
X181482461Y-120687059D03*
D15*
X186562461Y-120687059D03*
X176402461Y-120687059D03*
D16*
X176262461Y-124887059D03*
D13*
X186982461Y-120687059D03*
D18*
X184022461Y-115607059D03*
D31*
X185292461Y-116369059D03*
X185292461Y-116369059D03*
D20*
X186482461Y-116887059D03*
D32*
X184002232Y-115897043D03*
D18*
X178982461Y-116687059D03*
D20*
X181482461Y-114787059D03*
D34*
X180212461Y-115861059D03*
X180212461Y-115861059D03*
D33*
X178327456Y-117417055D03*
%TD*%
D16*
%TO.C,SW27*%
X195249234Y-124888156D03*
D13*
X205969234Y-120688156D03*
X194969234Y-120688156D03*
D15*
X195389234Y-120688156D03*
D12*
X200469234Y-120688156D03*
D15*
X205549234Y-120688156D03*
D31*
X204279234Y-116370156D03*
D32*
X202989005Y-115898140D03*
D20*
X205469234Y-116888156D03*
D18*
X203009234Y-115608156D03*
D31*
X204279234Y-116370156D03*
D20*
X200469234Y-114788156D03*
D33*
X197314229Y-117418152D03*
D34*
X199199234Y-115862156D03*
D18*
X197969234Y-116688156D03*
D34*
X199199234Y-115862156D03*
%TD*%
D15*
%TO.C,SW28*%
X214379244Y-120688139D03*
D13*
X213959244Y-120688139D03*
D16*
X214239244Y-124888139D03*
D12*
X219459244Y-120688139D03*
D13*
X224959244Y-120688139D03*
D15*
X224539244Y-120688139D03*
D18*
X221999244Y-115608139D03*
D20*
X224459244Y-116888139D03*
D31*
X223269244Y-116370139D03*
X223269244Y-116370139D03*
D32*
X221979015Y-115898123D03*
D34*
X218189244Y-115862139D03*
D18*
X216959244Y-116688139D03*
D20*
X219459244Y-114788139D03*
D34*
X218189244Y-115862139D03*
D33*
X216304239Y-117418135D03*
%TD*%
D12*
%TO.C,SW29*%
X238440303Y-120688345D03*
D16*
X233220303Y-124888345D03*
D15*
X243520303Y-120688345D03*
D13*
X232940303Y-120688345D03*
X243940303Y-120688345D03*
D15*
X233360303Y-120688345D03*
D20*
X243440303Y-116888345D03*
D18*
X240980303Y-115608345D03*
D31*
X242250303Y-116370345D03*
X242250303Y-116370345D03*
D32*
X240960074Y-115898329D03*
D34*
X237170303Y-115862345D03*
X237170303Y-115862345D03*
D20*
X238440303Y-114788345D03*
D18*
X235940303Y-116688345D03*
D33*
X235285298Y-117418341D03*
%TD*%
D13*
%TO.C,SW30*%
X259139704Y-118673038D03*
D15*
X259545393Y-118564334D03*
D12*
X264452296Y-117249533D03*
D16*
X260497203Y-122657457D03*
D15*
X269359199Y-115934732D03*
D13*
X269764888Y-115826028D03*
D36*
X265646461Y-111970568D03*
D20*
X268298413Y-112284920D03*
D35*
X267014893Y-112092565D03*
D18*
X265590947Y-111685229D03*
D35*
X267014893Y-112092565D03*
D38*
X260558456Y-114907527D03*
D37*
X261976509Y-112916675D03*
D18*
X261002205Y-114032877D03*
D37*
X261976509Y-112916675D03*
D20*
X262925264Y-111550571D03*
%TD*%
D13*
%TO.C,SW31*%
X287517001Y-108610731D03*
D12*
X282204409Y-110034236D03*
D13*
X276891817Y-111457741D03*
D16*
X278249316Y-115442160D03*
D15*
X287111312Y-108719435D03*
X277297506Y-111349037D03*
D36*
X283398574Y-104755271D03*
D35*
X284767006Y-104877268D03*
D18*
X283343060Y-104469932D03*
D35*
X284767006Y-104877268D03*
D20*
X286050526Y-105069623D03*
D18*
X278754318Y-106817580D03*
D37*
X279728622Y-105701378D03*
X279728622Y-105701378D03*
D38*
X278310569Y-107692230D03*
D20*
X280677377Y-104335274D03*
%TD*%
D13*
%TO.C,SW32*%
X294999323Y-105159717D03*
D16*
X296356822Y-109144136D03*
D15*
X305218818Y-102421411D03*
X295405012Y-105051013D03*
D12*
X300311915Y-103736212D03*
D13*
X305624507Y-102312707D03*
D18*
X301450566Y-98171908D03*
D36*
X301506080Y-98457247D03*
D35*
X302874512Y-98579244D03*
D20*
X304158032Y-98771599D03*
D35*
X302874512Y-98579244D03*
D38*
X296418075Y-101394206D03*
D20*
X298784883Y-98037250D03*
D18*
X296861824Y-100519556D03*
D37*
X297836128Y-99403354D03*
X297836128Y-99403354D03*
%TD*%
D13*
%TO.C,SW33*%
X313692131Y-101484283D03*
D15*
X314097820Y-101375579D03*
D16*
X315049630Y-105468702D03*
D13*
X324317315Y-98637273D03*
D12*
X319004723Y-100060778D03*
D15*
X323911626Y-98745977D03*
D18*
X320143374Y-94496474D03*
D35*
X321567320Y-94903810D03*
D36*
X320198888Y-94781813D03*
D35*
X321567320Y-94903810D03*
D20*
X322850840Y-95096165D03*
D37*
X316528936Y-95727920D03*
D18*
X315554632Y-96844122D03*
D20*
X317477691Y-94361816D03*
D38*
X315110883Y-97718772D03*
D37*
X316528936Y-95727920D03*
%TD*%
D12*
%TO.C,SW34*%
X338677427Y-99665571D03*
D13*
X343990019Y-98242066D03*
D15*
X333770524Y-100980372D03*
X343584330Y-98350770D03*
D13*
X333364835Y-101089076D03*
D16*
X334722334Y-105073495D03*
D20*
X342523544Y-94700958D03*
D35*
X341240024Y-94508603D03*
D36*
X339871592Y-94386606D03*
D18*
X339816078Y-94101267D03*
D35*
X341240024Y-94508603D03*
D38*
X334783587Y-97323565D03*
D18*
X335227336Y-96448915D03*
D37*
X336201640Y-95332713D03*
X336201640Y-95332713D03*
D20*
X337150395Y-93966609D03*
%TD*%
D12*
%TO.C,SW35*%
X357425807Y-96201247D03*
D15*
X352518904Y-97516048D03*
X362332710Y-94886446D03*
D16*
X353470714Y-101609171D03*
D13*
X362738399Y-94777742D03*
X352113215Y-97624752D03*
D18*
X358564458Y-90636943D03*
D36*
X358619972Y-90922282D03*
D20*
X361271924Y-91236634D03*
D35*
X359988404Y-91044279D03*
X359988404Y-91044279D03*
D18*
X353975716Y-92984591D03*
D38*
X353531967Y-93859241D03*
D37*
X354950020Y-91868389D03*
D20*
X355898775Y-90502285D03*
D37*
X354950020Y-91868389D03*
%TD*%
D13*
%TO.C,SW36*%
X380770215Y-88387067D03*
X370145031Y-91234077D03*
D15*
X370550720Y-91125373D03*
D12*
X375457623Y-89810572D03*
D16*
X371502530Y-95218496D03*
D15*
X380364526Y-88495771D03*
D35*
X378020220Y-84653604D03*
D36*
X376651788Y-84531607D03*
D35*
X378020220Y-84653604D03*
D20*
X379303740Y-84845959D03*
D18*
X376596274Y-84246268D03*
D37*
X372981836Y-85477714D03*
D38*
X371563783Y-87468566D03*
D18*
X372007532Y-86593916D03*
D20*
X373930591Y-84111610D03*
D37*
X372981836Y-85477714D03*
%TD*%
D13*
%TO.C,SW37*%
X34056395Y-106846303D03*
D15*
X34462084Y-106955007D03*
D16*
X33239814Y-110975661D03*
D15*
X44275890Y-109584609D03*
D13*
X44681579Y-109693313D03*
D12*
X39368987Y-108269808D03*
D27*
X44166745Y-105085041D03*
D28*
X43042646Y-104295172D03*
D20*
X45182129Y-105893385D03*
D18*
X43137239Y-104020305D03*
D27*
X44166745Y-105085041D03*
D30*
X37167826Y-104294651D03*
D18*
X37989449Y-103759057D03*
D29*
X39391322Y-103279550D03*
D20*
X40896019Y-102570846D03*
D29*
X39391322Y-103279550D03*
%TD*%
D15*
%TO.C,SW38*%
X62326470Y-116002356D03*
D13*
X52106975Y-113264050D03*
D16*
X51290394Y-117393408D03*
D13*
X62732159Y-116111060D03*
D12*
X57419567Y-114687555D03*
D15*
X52512664Y-113372754D03*
D20*
X63232709Y-112311132D03*
D27*
X62217325Y-111502788D03*
D28*
X61093226Y-110712919D03*
D27*
X62217325Y-111502788D03*
D18*
X61187819Y-110438052D03*
D29*
X57441902Y-109697297D03*
D20*
X58946599Y-108988593D03*
D18*
X56040029Y-110176804D03*
D29*
X57441902Y-109697297D03*
D30*
X55218406Y-110712398D03*
%TD*%
D13*
%TO.C,SW39*%
X70856690Y-116722305D03*
X81481874Y-119569315D03*
D16*
X70040109Y-120851663D03*
D15*
X71262379Y-116831009D03*
D12*
X76169282Y-118145810D03*
D15*
X81076185Y-119460611D03*
D27*
X80967040Y-114961043D03*
D20*
X81982424Y-115769387D03*
D18*
X79937534Y-113896307D03*
D28*
X79842941Y-114171174D03*
D27*
X80967040Y-114961043D03*
D29*
X76191617Y-113155552D03*
D30*
X73968121Y-114170653D03*
D29*
X76191617Y-113155552D03*
D18*
X74789744Y-113635059D03*
D20*
X77696314Y-112446848D03*
%TD*%
D12*
%TO.C,SW40*%
X95867582Y-118435457D03*
D13*
X90554990Y-117011952D03*
D16*
X89738409Y-121141310D03*
D15*
X90960679Y-117120656D03*
D13*
X101180174Y-119858962D03*
D15*
X100774485Y-119750258D03*
D20*
X101680724Y-116059034D03*
D28*
X99541241Y-114460821D03*
D27*
X100665340Y-115250690D03*
D18*
X99635834Y-114185954D03*
D27*
X100665340Y-115250690D03*
D30*
X93666421Y-114460300D03*
D20*
X97394614Y-112736495D03*
D18*
X94488044Y-113924706D03*
D29*
X95889917Y-113445199D03*
X95889917Y-113445199D03*
%TD*%
D13*
%TO.C,SW41*%
X109235410Y-120646390D03*
D12*
X114548002Y-122069895D03*
D13*
X119860594Y-123493400D03*
D16*
X108418829Y-124775748D03*
D15*
X119454905Y-123384696D03*
X109641099Y-120755094D03*
D27*
X119345760Y-118885128D03*
D28*
X118221661Y-118095259D03*
D27*
X119345760Y-118885128D03*
D18*
X118316254Y-117820392D03*
D20*
X120361144Y-119693472D03*
D29*
X114570337Y-117079637D03*
D18*
X113168464Y-117559144D03*
D20*
X116075034Y-116370933D03*
D29*
X114570337Y-117079637D03*
D30*
X112346841Y-118094738D03*
%TD*%
D15*
%TO.C,SW42*%
X127791737Y-126985791D03*
D12*
X132698640Y-128300592D03*
D15*
X137605543Y-129615393D03*
D16*
X126569467Y-131006445D03*
D13*
X138011232Y-129724097D03*
X127386048Y-126877087D03*
D28*
X136372299Y-124325956D03*
D27*
X137496398Y-125115825D03*
D20*
X138511782Y-125924169D03*
D27*
X137496398Y-125115825D03*
D18*
X136466892Y-124051089D03*
D29*
X132720975Y-123310334D03*
X132720975Y-123310334D03*
D30*
X130497479Y-124325435D03*
D20*
X134225672Y-122601630D03*
D18*
X131319102Y-123789841D03*
%TD*%
D13*
%TO.C,SW43*%
X145100389Y-134107526D03*
D12*
X150412981Y-135531031D03*
D15*
X145506078Y-134216230D03*
D16*
X144283808Y-138236884D03*
D13*
X155725573Y-136954536D03*
D15*
X155319884Y-136845832D03*
D18*
X154181233Y-131281528D03*
D27*
X155210739Y-132346264D03*
D20*
X156226123Y-133154608D03*
D27*
X155210739Y-132346264D03*
D28*
X154086640Y-131556395D03*
D29*
X150435316Y-130540773D03*
D30*
X148211820Y-131555874D03*
D20*
X151940013Y-129832069D03*
D29*
X150435316Y-130540773D03*
D18*
X149033443Y-131020280D03*
%TD*%
D13*
%TO.C,SW44*%
X175979982Y-139697890D03*
D16*
X176259982Y-143897890D03*
D15*
X186559982Y-139697890D03*
X176399982Y-139697890D03*
D13*
X186979982Y-139697890D03*
D12*
X181479982Y-139697890D03*
D18*
X184019982Y-134617890D03*
D31*
X185289982Y-135379890D03*
X185289982Y-135379890D03*
D20*
X186479982Y-135897890D03*
D32*
X183999753Y-134907874D03*
D34*
X180209982Y-134871890D03*
D33*
X178324977Y-136427886D03*
D18*
X178979982Y-135697890D03*
D34*
X180209982Y-134871890D03*
D20*
X181479982Y-133797890D03*
%TD*%
D15*
%TO.C,SW45*%
X195401210Y-139689145D03*
D12*
X200481210Y-139689145D03*
D13*
X194981210Y-139689145D03*
D15*
X205561210Y-139689145D03*
D13*
X205981210Y-139689145D03*
D16*
X195261210Y-143889145D03*
D32*
X203000981Y-134899129D03*
D31*
X204291210Y-135371145D03*
D20*
X205481210Y-135889145D03*
D31*
X204291210Y-135371145D03*
D18*
X203021210Y-134609145D03*
D34*
X199211210Y-134863145D03*
X199211210Y-134863145D03*
D18*
X197981210Y-135689145D03*
D20*
X200481210Y-133789145D03*
D33*
X197326205Y-136419141D03*
%TD*%
D13*
%TO.C,SW46*%
X224957600Y-139677803D03*
D15*
X214377600Y-139677803D03*
D16*
X214237600Y-143877803D03*
D15*
X224537600Y-139677803D03*
D12*
X219457600Y-139677803D03*
D13*
X213957600Y-139677803D03*
D18*
X221997600Y-134597803D03*
D31*
X223267600Y-135359803D03*
D32*
X221977371Y-134887787D03*
D20*
X224457600Y-135877803D03*
D31*
X223267600Y-135359803D03*
D18*
X216957600Y-135677803D03*
D34*
X218187600Y-134851803D03*
X218187600Y-134851803D03*
D20*
X219457600Y-133777803D03*
D33*
X216302595Y-136407799D03*
%TD*%
D12*
%TO.C,SW47*%
X238454704Y-139684832D03*
D15*
X243534704Y-139684832D03*
D16*
X233234704Y-143884832D03*
D13*
X243954704Y-139684832D03*
D15*
X233374704Y-139684832D03*
D13*
X232954704Y-139684832D03*
D20*
X243454704Y-135884832D03*
D31*
X242264704Y-135366832D03*
X242264704Y-135366832D03*
D32*
X240974475Y-134894816D03*
D18*
X240994704Y-134604832D03*
D34*
X237184704Y-134858832D03*
D18*
X235954704Y-135684832D03*
D20*
X238454704Y-133784832D03*
D34*
X237184704Y-134858832D03*
D33*
X235299699Y-136414828D03*
%TD*%
D16*
%TO.C,SW48*%
X265425119Y-141025350D03*
D15*
X274287115Y-134302625D03*
D13*
X264067620Y-137040931D03*
D12*
X269380212Y-135617426D03*
D13*
X274692804Y-134193921D03*
D15*
X264473309Y-136932227D03*
D18*
X270518863Y-130053122D03*
D20*
X273226329Y-130652813D03*
D36*
X270574377Y-130338461D03*
D35*
X271942809Y-130460458D03*
X271942809Y-130460458D03*
D38*
X265486372Y-133275420D03*
D18*
X265930121Y-132400770D03*
D20*
X267853180Y-129918464D03*
D37*
X266904425Y-131284568D03*
X266904425Y-131284568D03*
%TD*%
D13*
%TO.C,SW49*%
X281821864Y-129827357D03*
X292447048Y-126980347D03*
D12*
X287134456Y-128403852D03*
D16*
X283179363Y-133811776D03*
D15*
X292041359Y-127089051D03*
X282227553Y-129718653D03*
D20*
X290980573Y-123439239D03*
D18*
X288273107Y-122839548D03*
D35*
X289697053Y-123246884D03*
X289697053Y-123246884D03*
D36*
X288328621Y-123124887D03*
D37*
X284658669Y-124070994D03*
D18*
X283684365Y-125187196D03*
D20*
X285607424Y-122704890D03*
D38*
X283240616Y-126061846D03*
D37*
X284658669Y-124070994D03*
%TD*%
D13*
%TO.C,SW50*%
X310567469Y-120790605D03*
D15*
X310161780Y-120899309D03*
D13*
X299942285Y-123637615D03*
D12*
X305254877Y-122214110D03*
D15*
X300347974Y-123528911D03*
D16*
X301299784Y-127622034D03*
D20*
X309100994Y-117249497D03*
D18*
X306393528Y-116649806D03*
D35*
X307817474Y-117057142D03*
X307817474Y-117057142D03*
D36*
X306449042Y-116935145D03*
D37*
X302779090Y-117881252D03*
D20*
X303727845Y-116515148D03*
D38*
X301361037Y-119872104D03*
D37*
X302779090Y-117881252D03*
D18*
X301804786Y-118997454D03*
%TD*%
D15*
%TO.C,SW51*%
X328828492Y-117210213D03*
X319014686Y-119839815D03*
D12*
X323921589Y-118525014D03*
D16*
X319966496Y-123932938D03*
D13*
X329234181Y-117101509D03*
X318608997Y-119948519D03*
D35*
X326484186Y-113368046D03*
D20*
X327767706Y-113560401D03*
D18*
X325060240Y-112960710D03*
D36*
X325115754Y-113246049D03*
D35*
X326484186Y-113368046D03*
D18*
X320471498Y-115308358D03*
D37*
X321445802Y-114192156D03*
X321445802Y-114192156D03*
D20*
X322394557Y-112826052D03*
D38*
X320027749Y-116183008D03*
%TD*%
D13*
%TO.C,SW52*%
X338316417Y-119641977D03*
D16*
X339673916Y-123626396D03*
D15*
X348535912Y-116903671D03*
D12*
X343629009Y-118218472D03*
D13*
X348941601Y-116794967D03*
D15*
X338722106Y-119533273D03*
D36*
X344823174Y-112939507D03*
D18*
X344767660Y-112654168D03*
D35*
X346191606Y-113061504D03*
X346191606Y-113061504D03*
D20*
X347475126Y-113253859D03*
X342101977Y-112519510D03*
D37*
X341153222Y-113885614D03*
X341153222Y-113885614D03*
D18*
X340178918Y-115001816D03*
D38*
X339735169Y-115876466D03*
%TD*%
D15*
%TO.C,SW53*%
X357475482Y-116039785D03*
X367289288Y-113410183D03*
D12*
X362382385Y-114724984D03*
D13*
X357069793Y-116148489D03*
X367694977Y-113301479D03*
D16*
X358427292Y-120132908D03*
D20*
X366228502Y-109760371D03*
D35*
X364944982Y-109568016D03*
D18*
X363521036Y-109160680D03*
D36*
X363576550Y-109446019D03*
D35*
X364944982Y-109568016D03*
D37*
X359906598Y-110392126D03*
D38*
X358488545Y-112382978D03*
D18*
X358932294Y-111508328D03*
D20*
X360855353Y-109026022D03*
D37*
X359906598Y-110392126D03*
%TD*%
D16*
%TO.C,SW54*%
X376462274Y-113788366D03*
D15*
X385324270Y-107065641D03*
X375510464Y-109695243D03*
D12*
X380417367Y-108380442D03*
D13*
X385729959Y-106956937D03*
X375104775Y-109803947D03*
D35*
X382979964Y-103223474D03*
X382979964Y-103223474D03*
D18*
X381556018Y-102816138D03*
D20*
X384263484Y-103415829D03*
D36*
X381611532Y-103101477D03*
D20*
X378890335Y-102681480D03*
D37*
X377941580Y-104047584D03*
X377941580Y-104047584D03*
D18*
X376967276Y-105163786D03*
D38*
X376523527Y-106038436D03*
%TD*%
D13*
%TO.C,SW55*%
X39743551Y-128082367D03*
D12*
X34430959Y-126658862D03*
D16*
X28301786Y-129364715D03*
D15*
X29524056Y-125344061D03*
X39337862Y-127973663D03*
D13*
X29118367Y-125235357D03*
D27*
X39228717Y-123474095D03*
D18*
X38199211Y-122409359D03*
D28*
X38104618Y-122684226D03*
D20*
X40244101Y-124282439D03*
D27*
X39228717Y-123474095D03*
D30*
X32229798Y-122683705D03*
D29*
X34453294Y-121668604D03*
D20*
X35957991Y-120959900D03*
D18*
X33051421Y-122148111D03*
D29*
X34453294Y-121668604D03*
%TD*%
D13*
%TO.C,SW56*%
X57797753Y-134445742D03*
X47172569Y-131598732D03*
D15*
X47578258Y-131707436D03*
X57392064Y-134337038D03*
D16*
X46355988Y-135728090D03*
D12*
X52485161Y-133022237D03*
D28*
X56158820Y-129047601D03*
D20*
X58298303Y-130645814D03*
D27*
X57282919Y-129837470D03*
X57282919Y-129837470D03*
D18*
X56253413Y-128772734D03*
X51105623Y-128511486D03*
D20*
X54012193Y-127323275D03*
D29*
X52507496Y-128031979D03*
X52507496Y-128031979D03*
D30*
X50284000Y-129047080D03*
%TD*%
D13*
%TO.C,SW57*%
X65941843Y-135065034D03*
D15*
X76161338Y-137803340D03*
D16*
X65125262Y-139194392D03*
D13*
X76567027Y-137912044D03*
D12*
X71254435Y-136488539D03*
D15*
X66347532Y-135173738D03*
D18*
X75022687Y-132239036D03*
D28*
X74928094Y-132513903D03*
D20*
X77067577Y-134112116D03*
D27*
X76052193Y-133303772D03*
X76052193Y-133303772D03*
D29*
X71276770Y-131498281D03*
D20*
X72781467Y-130789577D03*
D18*
X69874897Y-131977788D03*
D30*
X69053274Y-132513382D03*
D29*
X71276770Y-131498281D03*
%TD*%
D15*
%TO.C,SW58*%
X85985267Y-135586774D03*
D13*
X85579578Y-135478070D03*
X96204762Y-138325080D03*
D16*
X84762997Y-139607428D03*
D15*
X95799073Y-138216376D03*
D12*
X90892170Y-136901575D03*
D27*
X95689928Y-133716808D03*
D28*
X94565829Y-132926939D03*
D20*
X96705312Y-134525152D03*
D18*
X94660422Y-132652072D03*
D27*
X95689928Y-133716808D03*
D29*
X90914505Y-131911317D03*
D30*
X88691009Y-132926418D03*
D20*
X92419202Y-131202613D03*
D29*
X90914505Y-131911317D03*
D18*
X89512632Y-132390824D03*
%TD*%
D15*
%TO.C,SW59*%
X114549607Y-141794056D03*
D16*
X103513531Y-143185108D03*
D13*
X104330112Y-139055750D03*
D15*
X104735801Y-139164454D03*
D12*
X109642704Y-140479255D03*
D13*
X114955296Y-141902760D03*
D18*
X113410956Y-136229752D03*
D20*
X115455846Y-138102832D03*
D27*
X114440462Y-137294488D03*
D28*
X113316363Y-136504619D03*
D27*
X114440462Y-137294488D03*
D20*
X111169736Y-134780293D03*
D29*
X109665039Y-135488997D03*
D18*
X108263166Y-135968504D03*
D30*
X107441543Y-136504098D03*
D29*
X109665039Y-135488997D03*
%TD*%
D13*
%TO.C,SW60*%
X122431183Y-145342987D03*
D12*
X127743775Y-146766492D03*
D16*
X121614602Y-149472345D03*
D13*
X133056367Y-148189997D03*
D15*
X132650678Y-148081293D03*
X122836872Y-145451691D03*
D20*
X133556917Y-144390069D03*
D18*
X131512027Y-142516989D03*
D28*
X131417434Y-142791856D03*
D27*
X132541533Y-143581725D03*
X132541533Y-143581725D03*
D30*
X125542614Y-142791335D03*
D29*
X127766110Y-141776234D03*
X127766110Y-141776234D03*
D18*
X126364237Y-142255741D03*
D20*
X129270807Y-141067530D03*
%TD*%
D16*
%TO.C,SW61*%
X139356683Y-156604204D03*
D13*
X140173264Y-152474846D03*
X150798448Y-155321856D03*
D15*
X140578953Y-152583550D03*
D12*
X145485856Y-153898351D03*
D15*
X150392759Y-155213152D03*
D27*
X150283614Y-150713584D03*
X150283614Y-150713584D03*
D18*
X149254108Y-149648848D03*
D28*
X149159515Y-149923715D03*
D20*
X151298998Y-151521928D03*
D30*
X143284695Y-149923194D03*
D18*
X144106318Y-149387600D03*
D20*
X147012888Y-148199389D03*
D29*
X145508191Y-148908093D03*
X145508191Y-148908093D03*
%TD*%
D13*
%TO.C,SW62*%
X175990210Y-158719962D03*
D15*
X186570210Y-158719962D03*
X176410210Y-158719962D03*
D13*
X186990210Y-158719962D03*
D16*
X176270210Y-162919962D03*
D12*
X181490210Y-158719962D03*
D20*
X186490210Y-154919962D03*
D31*
X185300210Y-154401962D03*
X185300210Y-154401962D03*
D18*
X184030210Y-153639962D03*
D32*
X184009981Y-153929946D03*
D34*
X180220210Y-153893962D03*
D33*
X178335205Y-155449958D03*
D18*
X178990210Y-154719962D03*
D20*
X181490210Y-152819962D03*
D34*
X180220210Y-153893962D03*
%TD*%
D15*
%TO.C,SW63*%
X195401345Y-158720277D03*
X205561345Y-158720277D03*
D13*
X205981345Y-158720277D03*
D12*
X200481345Y-158720277D03*
D16*
X195261345Y-162920277D03*
D13*
X194981345Y-158720277D03*
D31*
X204291345Y-154402277D03*
D18*
X203021345Y-153640277D03*
D20*
X205481345Y-154920277D03*
D32*
X203001116Y-153930261D03*
D31*
X204291345Y-154402277D03*
D18*
X197981345Y-154720277D03*
D20*
X200481345Y-152820277D03*
D34*
X199211345Y-153894277D03*
D33*
X197326340Y-155450273D03*
D34*
X199211345Y-153894277D03*
%TD*%
D13*
%TO.C,SW64*%
X224974685Y-158703844D03*
D12*
X219474685Y-158703844D03*
D15*
X224554685Y-158703844D03*
X214394685Y-158703844D03*
D13*
X213974685Y-158703844D03*
D16*
X214254685Y-162903844D03*
D31*
X223284685Y-154385844D03*
D20*
X224474685Y-154903844D03*
D32*
X221994456Y-153913828D03*
D31*
X223284685Y-154385844D03*
D18*
X222014685Y-153623844D03*
D20*
X219474685Y-152803844D03*
D33*
X216319680Y-155433840D03*
D34*
X218204685Y-153877844D03*
D18*
X216974685Y-154703844D03*
D34*
X218204685Y-153877844D03*
%TD*%
D15*
%TO.C,SW65*%
X233386643Y-158701118D03*
D13*
X243966643Y-158701118D03*
D16*
X233246643Y-162901118D03*
D12*
X238466643Y-158701118D03*
D15*
X243546643Y-158701118D03*
D13*
X232966643Y-158701118D03*
D18*
X241006643Y-153621118D03*
D31*
X242276643Y-154383118D03*
D32*
X240986414Y-153911102D03*
D20*
X243466643Y-154901118D03*
D31*
X242276643Y-154383118D03*
D18*
X235966643Y-154701118D03*
D33*
X235311638Y-155431114D03*
D34*
X237196643Y-153875118D03*
D20*
X238466643Y-152801118D03*
D34*
X237196643Y-153875118D03*
%TD*%
D12*
%TO.C,SW66*%
X274316445Y-153973288D03*
D13*
X269003853Y-155396793D03*
D15*
X279223348Y-152658487D03*
X269409542Y-155288089D03*
D13*
X279629037Y-152549783D03*
D16*
X270361352Y-159381212D03*
D35*
X276879042Y-148816320D03*
D20*
X278162562Y-149008675D03*
D36*
X275510610Y-148694323D03*
D35*
X276879042Y-148816320D03*
D18*
X275455096Y-148408984D03*
D37*
X271840658Y-149640430D03*
D38*
X270422605Y-151631282D03*
D37*
X271840658Y-149640430D03*
D20*
X272789413Y-148274326D03*
D18*
X270866354Y-150756632D03*
%TD*%
D13*
%TO.C,SW67*%
X286749382Y-148241269D03*
D15*
X296968877Y-145502963D03*
D13*
X297374566Y-145394259D03*
D16*
X288106881Y-152225688D03*
D15*
X287155071Y-148132565D03*
D12*
X292061974Y-146817764D03*
D35*
X294624571Y-141660796D03*
D20*
X295908091Y-141853151D03*
D35*
X294624571Y-141660796D03*
D18*
X293200625Y-141253460D03*
D36*
X293256139Y-141538799D03*
D20*
X290534942Y-141118802D03*
D38*
X288168134Y-144475758D03*
D37*
X289586187Y-142484906D03*
D18*
X288611883Y-143601108D03*
D37*
X289586187Y-142484906D03*
%TD*%
D15*
%TO.C,SW68*%
X315091101Y-139232538D03*
D12*
X310184198Y-140547339D03*
D13*
X304871606Y-141970844D03*
X315496790Y-139123834D03*
D16*
X306229105Y-145955263D03*
D15*
X305277295Y-141862140D03*
D35*
X312746795Y-135390371D03*
D20*
X314030315Y-135582726D03*
D36*
X311378363Y-135268374D03*
D18*
X311322849Y-134983035D03*
D35*
X312746795Y-135390371D03*
D38*
X306290358Y-138205333D03*
D18*
X306734107Y-137330683D03*
D37*
X307708411Y-136214481D03*
X307708411Y-136214481D03*
D20*
X308657166Y-134848377D03*
%TD*%
D13*
%TO.C,SW69*%
X323569603Y-138385456D03*
X334194787Y-135538446D03*
D16*
X324927102Y-142369875D03*
D12*
X328882195Y-136961951D03*
D15*
X333789098Y-135647150D03*
X323975292Y-138276752D03*
D35*
X331444792Y-131804983D03*
D20*
X332728312Y-131997338D03*
D36*
X330076360Y-131682986D03*
D35*
X331444792Y-131804983D03*
D18*
X330020846Y-131397647D03*
D38*
X324988355Y-134619945D03*
D37*
X326406408Y-132629093D03*
D20*
X327355163Y-131262989D03*
D37*
X326406408Y-132629093D03*
D18*
X325432104Y-133745295D03*
%TD*%
D15*
%TO.C,SW70*%
X343647265Y-137892852D03*
D16*
X344599075Y-141985975D03*
D13*
X353866760Y-135154546D03*
X343241576Y-138001556D03*
D15*
X353461071Y-135263250D03*
D12*
X348554168Y-136578051D03*
D18*
X349692819Y-131013747D03*
D20*
X352400285Y-131613438D03*
D36*
X349748333Y-131299086D03*
D35*
X351116765Y-131421083D03*
X351116765Y-131421083D03*
D38*
X344660328Y-134236045D03*
D37*
X346078381Y-132245193D03*
X346078381Y-132245193D03*
D18*
X345104077Y-133361395D03*
D20*
X347027136Y-130879089D03*
%TD*%
D15*
%TO.C,SW71*%
X362422272Y-134387296D03*
D13*
X362016583Y-134496000D03*
D16*
X363374082Y-138480419D03*
D15*
X372236078Y-131757694D03*
D13*
X372641767Y-131648990D03*
D12*
X367329175Y-133072495D03*
D36*
X368523340Y-127793530D03*
D35*
X369891772Y-127915527D03*
X369891772Y-127915527D03*
D20*
X371175292Y-128107882D03*
D18*
X368467826Y-127508191D03*
D38*
X363435335Y-130730489D03*
D20*
X365802143Y-127373533D03*
D18*
X363879084Y-129855839D03*
D37*
X364853388Y-128739637D03*
X364853388Y-128739637D03*
%TD*%
D15*
%TO.C,SW72*%
X390251625Y-125377142D03*
D12*
X385344722Y-126691943D03*
D13*
X380032130Y-128115448D03*
D15*
X380437819Y-128006744D03*
D13*
X390657314Y-125268438D03*
D16*
X381389629Y-132099867D03*
D35*
X387907319Y-121534975D03*
D36*
X386538887Y-121412978D03*
D35*
X387907319Y-121534975D03*
D18*
X386483373Y-121127639D03*
D20*
X389190839Y-121727330D03*
D37*
X382868935Y-122359085D03*
D38*
X381450882Y-124349937D03*
D20*
X383817690Y-120992981D03*
D37*
X382868935Y-122359085D03*
D18*
X381894631Y-123475287D03*
%TD*%
D15*
%TO.C,SW73*%
X24616014Y-143760984D03*
X34429820Y-146390586D03*
D16*
X23393744Y-147781638D03*
D12*
X29522917Y-145075785D03*
D13*
X24210325Y-143652280D03*
X34835509Y-146499290D03*
D20*
X35336059Y-142699362D03*
D27*
X34320675Y-141891018D03*
D28*
X33196576Y-141101149D03*
D18*
X33291169Y-140826282D03*
D27*
X34320675Y-141891018D03*
D30*
X27321756Y-141100628D03*
D29*
X29545252Y-140085527D03*
D20*
X31049949Y-139376823D03*
D18*
X28143379Y-140565034D03*
D29*
X29545252Y-140085527D03*
%TD*%
D12*
%TO.C,SW74*%
X47527553Y-151384381D03*
D15*
X52434456Y-152699182D03*
D13*
X42214961Y-149960876D03*
X52840145Y-152807886D03*
D16*
X41398380Y-154090234D03*
D15*
X42620650Y-150069580D03*
D27*
X52325311Y-148199614D03*
X52325311Y-148199614D03*
D18*
X51295805Y-147134878D03*
D28*
X51201212Y-147409745D03*
D20*
X53340695Y-149007958D03*
D29*
X47549888Y-146394123D03*
D20*
X49054585Y-145685419D03*
D30*
X45326392Y-147409224D03*
D18*
X46148015Y-146873630D03*
D29*
X47549888Y-146394123D03*
%TD*%
D13*
%TO.C,SW75*%
X71632929Y-156339476D03*
D15*
X71227240Y-156230772D03*
D12*
X66320337Y-154915971D03*
D16*
X60191164Y-157621824D03*
D15*
X61413434Y-153601170D03*
D13*
X61007745Y-153492466D03*
D18*
X70088589Y-150666468D03*
D28*
X69993996Y-150941335D03*
D27*
X71118095Y-151731204D03*
X71118095Y-151731204D03*
D20*
X72133479Y-152539548D03*
D29*
X66342672Y-149925713D03*
X66342672Y-149925713D03*
D30*
X64119176Y-150940814D03*
D18*
X64940799Y-150405220D03*
D20*
X67847369Y-149217009D03*
%TD*%
D13*
%TO.C,SW76*%
X91293142Y-156713263D03*
D16*
X79851377Y-157995611D03*
D15*
X81073647Y-153974957D03*
D12*
X85980550Y-155289758D03*
D15*
X90887453Y-156604559D03*
D13*
X80667958Y-153866253D03*
D20*
X91793692Y-152913335D03*
D27*
X90778308Y-152104991D03*
X90778308Y-152104991D03*
D28*
X89654209Y-151315122D03*
D18*
X89748802Y-151040255D03*
D20*
X87507582Y-149590796D03*
D18*
X84601012Y-150779007D03*
D29*
X86002885Y-150299500D03*
D30*
X83779389Y-151314601D03*
D29*
X86002885Y-150299500D03*
%TD*%
D13*
%TO.C,SW77*%
X110024000Y-160296260D03*
D12*
X104711408Y-158872755D03*
D15*
X99804505Y-157557954D03*
D13*
X99398816Y-157449250D03*
D15*
X109618311Y-160187556D03*
D16*
X98582235Y-161578608D03*
D20*
X110524550Y-156496332D03*
D27*
X109509166Y-155687988D03*
D18*
X108479660Y-154623252D03*
D28*
X108385067Y-154898119D03*
D27*
X109509166Y-155687988D03*
D29*
X104733743Y-153882497D03*
D30*
X102510247Y-154897598D03*
D29*
X104733743Y-153882497D03*
D18*
X103331870Y-154362004D03*
D20*
X106238440Y-153173793D03*
%TD*%
D15*
%TO.C,SW78*%
X117897435Y-163821182D03*
D12*
X122804338Y-165135983D03*
D15*
X127711241Y-166450784D03*
D16*
X116675165Y-167841836D03*
D13*
X128116930Y-166559488D03*
X117491746Y-163712478D03*
D27*
X127602096Y-161951216D03*
D20*
X128617480Y-162759560D03*
D27*
X127602096Y-161951216D03*
D18*
X126572590Y-160886480D03*
D28*
X126477997Y-161161347D03*
D20*
X124331370Y-159437021D03*
D29*
X122826673Y-160145725D03*
D30*
X120603177Y-161160826D03*
D29*
X122826673Y-160145725D03*
D18*
X121424800Y-160625232D03*
%TD*%
D13*
%TO.C,SW80*%
X176004206Y-177722335D03*
D16*
X176284206Y-181922335D03*
D13*
X187004206Y-177722335D03*
D15*
X186584206Y-177722335D03*
X176424206Y-177722335D03*
D12*
X181504206Y-177722335D03*
D31*
X185314206Y-173404335D03*
D18*
X184044206Y-172642335D03*
D20*
X186504206Y-173922335D03*
D31*
X185314206Y-173404335D03*
D32*
X184023977Y-172932319D03*
D33*
X178349201Y-174452331D03*
D20*
X181504206Y-171822335D03*
D34*
X180234206Y-172896335D03*
D18*
X179004206Y-173722335D03*
D34*
X180234206Y-172896335D03*
%TD*%
D12*
%TO.C,SW81*%
X200493711Y-177712896D03*
D15*
X205573711Y-177712896D03*
D13*
X205993711Y-177712896D03*
X194993711Y-177712896D03*
D16*
X195273711Y-181912896D03*
D15*
X195413711Y-177712896D03*
D31*
X204303711Y-173394896D03*
D32*
X203013482Y-172922880D03*
D18*
X203033711Y-172632896D03*
D20*
X205493711Y-173912896D03*
D31*
X204303711Y-173394896D03*
D34*
X199223711Y-172886896D03*
D33*
X197338706Y-174442892D03*
D18*
X197993711Y-173712896D03*
D34*
X199223711Y-172886896D03*
D20*
X200493711Y-171812896D03*
%TD*%
D13*
%TO.C,SW82*%
X224999599Y-177693491D03*
X213999599Y-177693491D03*
D12*
X219499599Y-177693491D03*
D16*
X214279599Y-181893491D03*
D15*
X214419599Y-177693491D03*
X224579599Y-177693491D03*
D32*
X222019370Y-172903475D03*
D31*
X223309599Y-173375491D03*
D18*
X222039599Y-172613491D03*
D20*
X224499599Y-173893491D03*
D31*
X223309599Y-173375491D03*
D34*
X218229599Y-172867491D03*
X218229599Y-172867491D03*
D20*
X219499599Y-171793491D03*
D18*
X216999599Y-173693491D03*
D33*
X216344594Y-174423487D03*
%TD*%
D13*
%TO.C,SW83*%
X232962754Y-177682742D03*
D12*
X238462754Y-177682742D03*
D16*
X233242754Y-181882742D03*
D13*
X243962754Y-177682742D03*
D15*
X233382754Y-177682742D03*
X243542754Y-177682742D03*
D31*
X242272754Y-173364742D03*
D20*
X243462754Y-173882742D03*
D32*
X240982525Y-172892726D03*
D31*
X242272754Y-173364742D03*
D18*
X241002754Y-172602742D03*
D34*
X237192754Y-172856742D03*
D18*
X235962754Y-173682742D03*
D20*
X238462754Y-171782742D03*
D34*
X237192754Y-172856742D03*
D33*
X235307749Y-174412738D03*
%TD*%
D13*
%TO.C,SW86*%
X309785873Y-160345966D03*
D15*
X310191562Y-160237262D03*
D12*
X315098465Y-158922461D03*
D15*
X320005368Y-157607660D03*
D13*
X320411057Y-157498956D03*
D16*
X311143372Y-164330385D03*
D35*
X317661062Y-153765493D03*
D36*
X316292630Y-153643496D03*
D20*
X318944582Y-153957848D03*
D35*
X317661062Y-153765493D03*
D18*
X316237116Y-153358157D03*
D38*
X311204625Y-156580455D03*
D37*
X312622678Y-154589603D03*
X312622678Y-154589603D03*
D18*
X311648374Y-155705805D03*
D20*
X313571433Y-153223499D03*
%TD*%
D16*
%TO.C,SW87*%
X329863878Y-160777152D03*
D13*
X328506379Y-156792733D03*
D15*
X328912068Y-156684029D03*
D12*
X333818971Y-155369228D03*
D15*
X338725874Y-154054427D03*
D13*
X339131563Y-153945723D03*
D35*
X336381568Y-150212260D03*
D36*
X335013136Y-150090263D03*
D35*
X336381568Y-150212260D03*
D20*
X337665088Y-150404615D03*
D18*
X334957622Y-149804924D03*
D38*
X329925131Y-153027222D03*
D20*
X332291939Y-149670266D03*
D18*
X330368880Y-152152572D03*
D37*
X331343184Y-151036370D03*
X331343184Y-151036370D03*
%TD*%
D12*
%TO.C,SW88*%
X353500171Y-154972970D03*
D16*
X349545078Y-160380894D03*
D15*
X348593268Y-156287771D03*
D13*
X358812763Y-153549465D03*
D15*
X358407074Y-153658169D03*
D13*
X348187579Y-156396475D03*
D35*
X356062768Y-149816002D03*
D18*
X354638822Y-149408666D03*
D35*
X356062768Y-149816002D03*
D20*
X357346288Y-150008357D03*
D36*
X354694336Y-149694005D03*
D38*
X349606331Y-152630964D03*
D18*
X350050080Y-151756314D03*
D37*
X351024384Y-150640112D03*
D20*
X351973139Y-149274008D03*
D37*
X351024384Y-150640112D03*
%TD*%
D16*
%TO.C,SW89*%
X368307098Y-156910526D03*
D13*
X377574783Y-150079097D03*
D15*
X367355288Y-152817403D03*
D12*
X372262191Y-151502602D03*
D15*
X377169094Y-150187801D03*
D13*
X366949599Y-152926107D03*
D18*
X373400842Y-145938298D03*
D35*
X374824788Y-146345634D03*
X374824788Y-146345634D03*
D20*
X376108308Y-146537989D03*
D36*
X373456356Y-146223637D03*
D20*
X370735159Y-145803640D03*
D37*
X369786404Y-147169744D03*
D18*
X368812100Y-148285946D03*
D37*
X369786404Y-147169744D03*
D38*
X368368351Y-149160596D03*
%TD*%
D13*
%TO.C,SW90*%
X384967714Y-146529810D03*
D15*
X385373403Y-146421106D03*
D13*
X395592898Y-143682800D03*
D15*
X395187209Y-143791504D03*
D16*
X386325213Y-150514229D03*
D12*
X390280306Y-145106305D03*
D35*
X392842903Y-139949337D03*
X392842903Y-139949337D03*
D18*
X391418957Y-139542001D03*
D36*
X391474471Y-139827340D03*
D20*
X394126423Y-140141692D03*
D37*
X387804519Y-140773447D03*
D38*
X386386466Y-142764299D03*
D18*
X386830215Y-141889649D03*
D37*
X387804519Y-140773447D03*
D20*
X388753274Y-139407343D03*
%TD*%
D12*
%TO.C,SW85*%
X296981020Y-165214572D03*
D13*
X291668428Y-166638077D03*
D15*
X292074117Y-166529373D03*
D16*
X293025927Y-170622496D03*
D13*
X302293612Y-163791067D03*
D15*
X301887923Y-163899771D03*
D20*
X300827137Y-160249959D03*
D18*
X298119671Y-159650268D03*
D35*
X299543617Y-160057604D03*
X299543617Y-160057604D03*
D36*
X298175185Y-159935607D03*
D37*
X294505233Y-160881714D03*
D38*
X293087180Y-162872566D03*
D18*
X293530929Y-161997916D03*
D37*
X294505233Y-160881714D03*
D20*
X295453988Y-159515610D03*
%TD*%
D39*
%TO.C,J1*%
X207051997Y-81340000D03*
X212831997Y-81340000D03*
D40*
X205621997Y-81870000D03*
D41*
X214261997Y-77690000D03*
D40*
X214261997Y-81870000D03*
D41*
X205621997Y-77690000D03*
%TD*%
D42*
%TO.C,H1*%
X59690000Y-68834000D03*
%TD*%
%TO.C,H2*%
X37084000Y-153924000D03*
%TD*%
%TO.C,H3*%
X96520000Y-79502000D03*
%TD*%
%TO.C,H4*%
X84836000Y-125222000D03*
%TD*%
%TO.C,H5*%
X110998000Y-170434000D03*
%TD*%
%TO.C,H6*%
X128016000Y-108204000D03*
%TD*%
%TO.C,H7*%
X168021000Y-121158000D03*
%TD*%
%TO.C,H8*%
X164973000Y-156591000D03*
%TD*%
%TO.C,H9*%
X171958000Y-187325000D03*
%TD*%
%TO.C,H10*%
X165735000Y-84328000D03*
%TD*%
%TO.C,H11*%
X256413000Y-84074000D03*
%TD*%
%TO.C,H12*%
X251968000Y-121285000D03*
%TD*%
%TO.C,H13*%
X255397000Y-156845000D03*
%TD*%
%TO.C,H14*%
X323342000Y-78867000D03*
%TD*%
%TO.C,H15*%
X247904000Y-187198000D03*
%TD*%
%TO.C,H16*%
X308356000Y-170815000D03*
%TD*%
%TO.C,H17*%
X335280000Y-125095000D03*
%TD*%
%TO.C,H18*%
X191008000Y-142113000D03*
%TD*%
%TO.C,H19*%
X291719000Y-108204000D03*
%TD*%
%TO.C,H20*%
X360426000Y-69596000D03*
%TD*%
%TO.C,H21*%
X209931000Y-163576000D03*
%TD*%
%TO.C,H22*%
X229108000Y-141986000D03*
%TD*%
%TO.C,H23*%
X382905000Y-154686000D03*
%TD*%
%TO.C,H24*%
X209931000Y-125603000D03*
%TD*%
M02*
