M48
; DRILL file {KiCad (5.99.0-12367-g21313a4c1a)} date Thu Sep 16 15:19:45 2021
; FORMAT={-:-/ absolute / inch / decimal}
; #@! TF.CreationDate,2021-09-16T15:19:45+01:00
; #@! TF.GenerationSoftware,Kicad,Pcbnew,(5.99.0-12367-g21313a4c1a)
; #@! TF.FileFunction,NonPlated,1,2,NPTH
FMAT,2
INCH
; #@! TA.AperFunction,NonPlated,NPTH,ComponentDrill
T1C0.0256
; #@! TA.AperFunction,NonPlated,NPTH,ComponentDrill
T2C0.0472
; #@! TA.AperFunction,NonPlated,NPTH,ComponentDrill
T3C0.0669
; #@! TA.AperFunction,NonPlated,NPTH,ComponentDrill
T4C0.0689
; #@! TA.AperFunction,NonPlated,NPTH,ComponentDrill
T5C0.1200
; #@! TA.AperFunction,NonPlated,NPTH,ComponentDrill
T6C0.1570
%
G90
G05
T1
X8.1517Y-3.2024
X8.3792Y-3.2024
T2
X0.921Y-5.8182
X1.1142Y-5.0931
X1.3087Y-4.3691
X1.5028Y-3.6389
X1.6299Y-6.0665
X1.6945Y-2.9212
X1.825Y-5.3436
X2.0193Y-4.6218
X2.2166Y-3.8906
X2.3697Y-6.2056
X2.4094Y-3.1715
X2.564Y-5.4801
X2.7575Y-4.7579
X2.9528Y-4.0272
X3.1438Y-6.2203
X3.1454Y-3.3096
X3.3371Y-5.4964
X3.533Y-4.7693
X3.728Y-4.0434
X3.8812Y-6.3614
X3.9215Y-3.3202
X4.0753Y-5.6372
X4.2685Y-4.9124
X4.4644Y-4.1873
X4.5935Y-6.6079
X4.6606Y-3.4622
X4.788Y-5.8847
X4.983Y-5.1577
X5.1761Y-4.4326
X5.3702Y-3.7084
X5.4865Y-6.1655
X5.6805Y-5.4424
X5.7247Y-7.0871
X5.8727Y-4.7199
X6.0686Y-3.9938
X6.9394Y-5.6653
X6.9394Y-4.1681
X6.9395Y-4.9168
X6.9398Y-6.4142
X6.9403Y-7.1623
X7.6868Y-4.1681
X7.687Y-4.9169
X7.6874Y-5.6649
X7.6875Y-6.4142
X7.6879Y-7.1619
X8.4346Y-5.6645
X8.4346Y-4.9169
X8.435Y-4.1681
X8.4352Y-6.4135
X8.4362Y-7.1612
X9.1819Y-4.9169
X9.1825Y-5.6648
X9.1826Y-4.1681
X9.1828Y-7.1607
X9.1829Y-6.4134
X10.0625Y-4.1018
X10.2558Y-4.829
X10.3928Y-7.1408
X10.4498Y-5.5522
X10.6441Y-6.2749
X10.7602Y-3.8173
X10.9547Y-4.545
X11.1488Y-5.2682
X11.3428Y-5.9931
X11.4702Y-3.5711
X11.5365Y-6.7174
X11.6676Y-4.297
X11.8622Y-5.0245
X12.0563Y-5.7463
X12.2098Y-3.4301
X12.2497Y-6.4697
X12.4035Y-4.1523
X12.5971Y-4.8792
X12.7924Y-5.6051
X12.9853Y-3.417
X12.9868Y-6.3298
X13.178Y-4.1368
X13.373Y-4.8672
X13.5669Y-5.59
X13.7229Y-3.2811
X13.7616Y-6.3142
X13.9162Y-4.0004
X14.1113Y-4.7296
X14.3061Y-5.452
X14.434Y-3.0294
X14.5003Y-6.1776
X14.6261Y-3.7488
X14.8213Y-4.4799
X15.0153Y-5.2008
X15.2097Y-5.9258
T3
X0.9532Y-5.6556
X1.1464Y-4.9305
X1.3408Y-4.2065
X1.3715Y-5.7677
X1.535Y-3.4763
X1.5647Y-5.0426
X1.662Y-5.904
X1.7266Y-2.7587
X1.7591Y-4.3186
X1.8572Y-5.1811
X1.9533Y-3.5884
X2.0515Y-4.4592
X2.0803Y-6.0161
X2.1449Y-2.8707
X2.2487Y-3.728
X2.2755Y-5.2931
X2.4019Y-6.043
X2.4415Y-3.0089
X2.4698Y-4.5713
X2.5961Y-5.3175
X2.667Y-3.8401
X2.7896Y-4.5954
X2.8202Y-6.1551
X2.8598Y-3.121
X2.985Y-3.8646
X3.0144Y-5.4296
X3.1759Y-6.0577
X3.1776Y-3.147
X3.2079Y-4.7075
X3.3693Y-5.3338
X3.4033Y-3.9767
X3.5652Y-4.6068
X3.5942Y-6.1698
X3.5959Y-3.2591
X3.7602Y-3.8808
X3.7876Y-5.4459
X3.9133Y-6.1988
X3.9536Y-3.1576
X3.9835Y-4.7189
X4.1075Y-5.4746
X4.1785Y-3.9929
X4.3006Y-4.7499
X4.3317Y-6.3109
X4.3719Y-3.2697
X4.4966Y-4.0247
X4.5258Y-5.5867
X4.6257Y-6.4454
X4.6927Y-3.2996
X4.7189Y-4.8619
X4.8201Y-5.7222
X4.9149Y-4.1368
X5.0152Y-4.9952
X5.044Y-6.5575
X5.111Y-3.4117
X5.2082Y-4.2701
X5.2384Y-5.8343
X5.4023Y-3.5458
X5.4335Y-5.1072
X5.5186Y-6.0029
X5.6265Y-4.3821
X5.7126Y-5.2798
X5.7353Y-6.9217
X5.8206Y-3.6579
X5.9048Y-4.5574
X5.9369Y-6.115
X6.1008Y-3.8312
X6.1309Y-5.3919
X6.1647Y-6.9783
X6.3231Y-4.6695
X6.5191Y-3.9433
X6.9283Y-5.4999
X6.9283Y-4.0027
X6.9284Y-4.7515
X6.9287Y-6.2488
X6.9293Y-6.9969
X7.3614Y-5.4999
X7.3614Y-4.0027
X7.3615Y-4.7515
X7.3618Y-6.2488
X7.3624Y-6.9969
X7.6757Y-4.0027
X7.676Y-4.7515
X7.6764Y-5.4996
X7.6764Y-6.2488
X7.6769Y-6.9966
X8.1088Y-4.0027
X8.109Y-4.7515
X8.1095Y-5.4996
X8.1095Y-6.2488
X8.11Y-6.9966
X8.4235Y-5.4991
X8.4236Y-4.7515
X8.4239Y-4.0027
X8.4242Y-6.2482
X8.4252Y-6.9958
X8.8566Y-5.4991
X8.8567Y-4.7515
X8.857Y-4.0027
X8.8573Y-6.2482
X8.8583Y-6.9958
X9.1709Y-4.7515
X9.1714Y-5.4994
X9.1715Y-4.0027
X9.1718Y-6.9954
X9.1719Y-6.2481
X9.6039Y-4.7515
X9.6045Y-5.4994
X9.6046Y-4.0027
X9.6048Y-6.9954
X9.605Y-6.2481
X10.0091Y-3.945
X10.2024Y-4.6722
X10.3603Y-6.9783
X10.3964Y-5.3953
X10.4274Y-3.8329
X10.5907Y-6.118
X10.6207Y-4.5601
X10.7067Y-3.6604
X10.7897Y-6.9217
X10.8147Y-5.2832
X10.9013Y-4.3881
X11.009Y-6.0059
X11.0953Y-5.1113
X11.125Y-3.5483
X11.2893Y-5.8363
X11.3196Y-4.276
X11.4168Y-3.4142
X11.483Y-6.5606
X11.5137Y-4.9992
X11.6141Y-4.1401
X11.7077Y-5.7242
X11.8088Y-4.8676
X11.8351Y-3.3022
X11.9013Y-6.4485
X12.0028Y-5.5894
X12.0325Y-4.0281
X12.1564Y-3.2732
X12.1963Y-6.3128
X12.2271Y-4.7555
X12.3501Y-3.9954
X12.4211Y-5.4773
X12.5437Y-4.7224
X12.5747Y-3.1611
X12.6146Y-6.2007
X12.739Y-5.4482
X12.7684Y-3.8834
X12.9319Y-3.2601
X12.9333Y-6.1729
X12.962Y-4.6103
X13.1246Y-3.9799
X13.1573Y-5.3362
X13.3195Y-4.7103
X13.3502Y-3.1481
X13.3516Y-6.0609
X13.5134Y-5.4331
X13.5429Y-3.8678
X13.6695Y-3.1242
X13.7082Y-6.1573
X13.7379Y-4.5982
X13.8627Y-3.8435
X13.9318Y-5.321
X14.0579Y-4.5728
X14.0878Y-3.0121
X14.1265Y-6.0453
X14.2526Y-5.2951
X14.281Y-3.7314
X14.3806Y-2.8726
X14.4468Y-6.0207
X14.4762Y-4.4607
X14.5726Y-3.5919
X14.6709Y-5.183
X14.7679Y-4.323
X14.7989Y-2.7605
X14.8651Y-5.9086
X14.9619Y-5.0439
X14.991Y-3.4798
X15.1562Y-5.7689
X15.1862Y-4.2109
X15.3802Y-4.9318
X15.5745Y-5.6568
T4
X0.9691Y-5.6599
X1.1624Y-4.9348
X1.3555Y-5.7634
X1.3568Y-4.2108
X1.5487Y-5.0383
X1.5509Y-3.4806
X1.678Y-5.9083
X1.7426Y-2.7629
X1.7431Y-4.3144
X1.8732Y-5.1853
X1.9373Y-3.5841
X2.0643Y-6.0118
X2.0674Y-4.4635
X2.129Y-2.8665
X2.2595Y-5.2889
X2.2647Y-3.7323
X2.4179Y-6.0473
X2.4538Y-4.567
X2.4575Y-3.0132
X2.6121Y-5.3218
X2.6511Y-3.8358
X2.8042Y-6.1508
X2.8056Y-4.5996
X2.8439Y-3.1167
X2.9985Y-5.4253
X3.001Y-3.8689
X3.1919Y-6.062
X3.192Y-4.7032
X3.1936Y-3.1513
X3.3852Y-5.3381
X3.3873Y-3.9724
X3.5782Y-6.1655
X3.5799Y-3.2548
X3.5811Y-4.611
X3.7716Y-5.4416
X3.7762Y-3.8851
X3.9293Y-6.2031
X3.9675Y-4.7146
X3.9696Y-3.1619
X4.1235Y-5.4789
X4.1625Y-3.9886
X4.3157Y-6.3066
X4.3166Y-4.7541
X4.356Y-3.2654
X4.5098Y-5.5824
X4.5125Y-4.029
X4.6416Y-6.4497
X4.7029Y-4.8577
X4.7087Y-3.3039
X4.8361Y-5.7264
X4.8989Y-4.1325
X5.028Y-6.5532
X5.0312Y-4.9994
X5.095Y-3.4074
X5.2225Y-5.83
X5.2242Y-4.2743
X5.4175Y-5.103
X5.4183Y-3.5501
X5.5346Y-6.0072
X5.6106Y-4.3779
X5.7286Y-5.2841
X5.7517Y-6.9239
X5.8047Y-3.6536
X5.9208Y-4.5617
X5.921Y-6.1108
X6.115Y-5.3876
X6.1167Y-3.8355
X6.1483Y-6.9761
X6.3072Y-4.6652
X6.5031Y-3.939
X6.9449Y-5.4999
X6.9449Y-4.0027
X6.945Y-4.7515
X6.9453Y-6.2488
X6.9458Y-6.9969
X7.3449Y-5.4999
X7.3449Y-4.0027
X7.345Y-4.7515
X7.3453Y-6.2488
X7.3458Y-6.9969
X7.6923Y-4.0027
X7.6925Y-4.7515
X7.693Y-5.4996
X7.693Y-6.2488
X7.6935Y-6.9966
X8.0923Y-4.0027
X8.0925Y-4.7515
X8.093Y-5.4996
X8.093Y-6.2488
X8.0935Y-6.9966
X8.4401Y-5.4991
X8.4401Y-4.7515
X8.4405Y-4.0027
X8.4407Y-6.2482
X8.4417Y-6.9958
X8.8401Y-5.4991
X8.8401Y-4.7515
X8.8405Y-4.0027
X8.8407Y-6.2482
X8.8417Y-6.9958
X9.1874Y-4.7515
X9.188Y-5.4994
X9.1881Y-4.0027
X9.1883Y-6.9954
X9.1885Y-6.2481
X9.5874Y-4.7515
X9.588Y-5.4994
X9.5881Y-4.0027
X9.5883Y-6.9954
X9.5885Y-6.2481
X10.025Y-3.9407
X10.2183Y-4.6679
X10.3767Y-6.9761
X10.4114Y-3.8372
X10.4123Y-5.391
X10.6047Y-4.5644
X10.6067Y-6.1137
X10.7227Y-3.6561
X10.7733Y-6.9239
X10.7987Y-5.2875
X10.9172Y-4.3838
X10.993Y-6.0102
X11.1091Y-3.5526
X11.1113Y-5.107
X11.3036Y-4.2803
X11.3053Y-5.832
X11.4328Y-3.41
X11.4977Y-5.0035
X11.499Y-6.5563
X11.6301Y-4.1359
X11.6917Y-5.7285
X11.8191Y-3.3064
X11.8247Y-4.8633
X11.8854Y-6.4527
X12.0165Y-4.0323
X12.0188Y-5.5851
X12.1723Y-3.2689
X12.2111Y-4.7598
X12.2123Y-6.3086
X12.3661Y-3.9912
X12.4052Y-5.4816
X12.5587Y-3.1654
X12.5596Y-4.7181
X12.5986Y-6.205
X12.7524Y-3.8876
X12.7549Y-5.444
X12.946Y-4.6146
X12.9479Y-3.2559
X12.9493Y-6.1687
X13.1406Y-3.9756
X13.1413Y-5.3404
X13.3342Y-3.1523
X13.3355Y-4.706
X13.3357Y-6.0651
X13.5269Y-3.8721
X13.5294Y-5.4289
X13.6855Y-3.12
X13.7219Y-4.6025
X13.7241Y-6.1531
X13.8787Y-3.8392
X13.9158Y-5.3253
X14.0718Y-3.0164
X14.0738Y-4.5685
X14.1105Y-6.0495
X14.2651Y-3.7357
X14.2686Y-5.2908
X14.3966Y-2.8683
X14.4602Y-4.465
X14.4628Y-6.0164
X14.5886Y-3.5876
X14.655Y-5.1873
X14.7829Y-2.7648
X14.7839Y-4.3187
X14.8492Y-5.9129
X14.975Y-3.4841
X14.9779Y-5.0396
X15.1702Y-4.2152
X15.1722Y-5.7646
X15.3642Y-4.9361
X15.5586Y-5.6611
T5
X5.4481Y-7.1613
X6.3801Y-7.284
X10.1449Y-7.284
X11.0769Y-7.1613
T6
X1.1623Y-5.7116
X1.3555Y-4.9866
X1.55Y-4.2626
X1.7441Y-3.5324
X1.8712Y-5.96
X1.9358Y-2.8147
X2.0663Y-5.2371
X2.2606Y-4.5153
X2.4579Y-3.7841
X2.611Y-6.0991
X2.6507Y-3.0649
X2.8053Y-5.3736
X2.9988Y-4.6514
X3.1941Y-3.9207
X3.3851Y-6.1138
X3.3868Y-3.2031
X3.5784Y-5.3898
X3.7743Y-4.6628
X3.9693Y-3.9369
X4.1225Y-6.2548
X4.1628Y-3.2137
X4.3166Y-5.5307
X4.5098Y-4.8059
X4.7057Y-4.0807
X4.8348Y-6.5014
X4.9019Y-3.3556
X5.0293Y-5.7782
X5.2244Y-5.0512
X5.4174Y-4.3261
X5.5264Y-6.5664
X5.6115Y-3.6018
X5.7278Y-6.059
X5.9218Y-5.3359
X5.95Y-6.95
X6.114Y-4.6134
X6.3099Y-3.8872
X6.4584Y-6.6891
X7.1449Y-5.4999
X7.1449Y-4.0027
X7.145Y-4.7515
X7.1453Y-6.2488
X7.1458Y-6.9969
X7.8923Y-4.0027
X7.8925Y-4.7515
X7.893Y-5.4996
X7.893Y-6.2488
X7.8935Y-6.9966
X8.6401Y-5.4991
X8.6401Y-4.7515
X8.6405Y-4.0027
X8.6407Y-6.2482
X8.6417Y-6.9958
X9.3874Y-4.7515
X9.388Y-5.4994
X9.3881Y-4.0027
X9.3883Y-6.9954
X9.3885Y-6.2481
X10.0666Y-6.6891
X10.2182Y-3.8889
X10.4115Y-4.6161
X10.575Y-6.95
X10.6055Y-5.3393
X10.7999Y-6.0619
X10.9159Y-3.6044
X10.9986Y-6.5664
X11.1104Y-4.3321
X11.3045Y-5.0553
X11.4985Y-5.7802
X11.6259Y-3.3582
X11.6922Y-6.5045
X11.8233Y-4.0841
X12.0179Y-4.8116
X12.212Y-5.5334
X12.3655Y-3.2172
X12.4055Y-6.2568
X12.5592Y-3.9394
X12.7528Y-4.6663
X12.9481Y-5.3922
X13.1411Y-3.2041
X13.1425Y-6.1169
X13.3338Y-3.9238
X13.5287Y-4.6543
X13.7226Y-5.3771
X13.8787Y-3.0682
X13.9173Y-6.1013
X14.0719Y-3.7875
X14.267Y-4.5167
X14.4618Y-5.2391
X14.5897Y-2.8165
X14.656Y-5.9647
X14.7818Y-3.5358
X14.9771Y-4.2669
X15.1711Y-4.9879
X15.3654Y-5.7128
T0
M30
