M48
; DRILL file {KiCad (5.99.0-12367-g21313a4c1a)} date Thu Sep 16 15:19:45 2021
; FORMAT={-:-/ absolute / inch / decimal}
; #@! TF.CreationDate,2021-09-16T15:19:45+01:00
; #@! TF.GenerationSoftware,Kicad,Pcbnew,(5.99.0-12367-g21313a4c1a)
; #@! TF.FileFunction,Plated,1,2,PTH
FMAT,2
INCH
; #@! TA.AperFunction,Plated,PTH,ViaDrill
T1C0.0157
; #@! TA.AperFunction,Plated,PTH,ComponentDrill
T2C0.0236
; #@! TA.AperFunction,Plated,PTH,ComponentDrill
T3C0.0394
; #@! TA.AperFunction,Plated,PTH,ComponentDrill
T4C0.0472
; #@! TA.AperFunction,Plated,PTH,ComponentDrill
T5C0.0579
; #@! TA.AperFunction,Plated,PTH,ComponentDrill
T6C0.0866
%
G90
G05
T1
X2.34Y-2.86
X3.08Y-3.0
X4.6Y-3.14
X5.33Y-3.28
X6.03Y-3.54
X6.71Y-6.11
X6.77Y-4.4149
X6.8051Y-5.1649
X6.82Y-3.74
X7.58Y-3.79
X7.6051Y-5.9149
X7.81Y-3.39
X7.87Y-3.39
X7.92Y-3.39
X8.0925Y-3.4055
X8.2709Y-3.1691
X8.33Y-4.25
X8.375Y-6.6649
X8.46Y-3.765
X8.64Y-3.31
X8.64Y-3.3681
X8.64Y-3.43
X8.6949Y-3.4016
X8.7233Y-3.223
X8.7244Y-3.2943
X8.8Y-3.49
X8.88Y-3.46
X8.94Y-3.21
X9.0029Y-3.2171
X9.0349Y-4.3351
X9.055Y-3.36
X9.055Y-3.41
X9.06Y-3.79
X9.065Y-3.2185
X9.1Y-3.45
X9.21Y-3.18
X9.2117Y-3.1017
X9.3496Y-3.1382
X9.3531Y-3.5303
X9.5874Y-3.3047
X9.6122Y-3.2343
X11.69Y-3.48
T3
X7.81Y-3.08
X7.81Y-3.18
X7.81Y-3.28
X7.91Y-3.08
X7.91Y-3.18
X7.91Y-3.28
T4
X1.2224Y-5.4873
X1.3912Y-5.6181
X1.4157Y-4.7622
X1.5844Y-4.893
X1.6101Y-4.0382
X1.7788Y-4.169
X1.8042Y-3.308
X1.9313Y-5.7356
X1.973Y-3.4388
X1.9959Y-2.5903
X2.1Y-5.8665
X2.1265Y-5.0127
X2.1647Y-2.7211
X2.2952Y-5.1435
X2.3207Y-4.2909
X2.4895Y-4.4217
X2.518Y-3.5597
X2.6712Y-5.8747
X2.6867Y-3.6905
X2.7108Y-2.8406
X2.8399Y-6.0055
X2.8654Y-5.1492
X2.8795Y-2.9714
X3.0342Y-5.28
X3.0589Y-4.427
X3.2277Y-4.5578
X3.2543Y-3.6963
X3.423Y-3.8271
X3.4452Y-5.8894
X3.4469Y-2.9787
X3.6139Y-6.0202
X3.6156Y-3.1095
X3.6386Y-5.1655
X3.8073Y-5.2963
X3.8344Y-4.4384
X4.0032Y-4.5693
X4.0295Y-3.7125
X4.1826Y-6.0305
X4.1982Y-3.8433
X4.2229Y-2.9893
X4.3514Y-6.1613
X4.3768Y-5.3063
X4.3916Y-3.1201
X4.5455Y-5.4371
X4.5699Y-4.5815
X4.7386Y-4.7123
X4.7658Y-3.8564
X4.8949Y-6.277
X4.9346Y-3.9872
X4.962Y-3.1313
X5.0637Y-6.4079
X5.0894Y-5.5538
X5.1307Y-3.2621
X5.2581Y-5.6846
X5.2845Y-4.8268
X5.4532Y-4.9576
X5.4775Y-4.1017
X5.6463Y-4.2325
X5.6716Y-3.3775
X5.7879Y-5.8346
X5.8404Y-3.5083
X5.9567Y-5.9654
X5.9803Y-6.7197
X5.9819Y-5.1115
X6.1506Y-5.2423
X6.1647Y-6.8274
X6.1741Y-4.389
X6.3428Y-4.5199
X6.37Y-3.6629
X6.5388Y-3.7937
X7.1449Y-5.2676
X7.1449Y-3.7704
X7.145Y-4.5192
X7.1453Y-6.0165
X7.1458Y-6.7647
X7.3417Y-5.3503
X7.3417Y-3.8531
X7.3418Y-4.6019
X7.3421Y-6.0992
X7.3427Y-6.8473
X7.8923Y-3.7705
X7.8925Y-4.5192
X7.893Y-5.2673
X7.893Y-6.0165
X7.8935Y-6.7643
X8.0891Y-3.8531
X8.0893Y-4.6019
X8.0898Y-5.35
X8.0898Y-6.0992
X8.0903Y-6.847
X8.6401Y-5.2668
X8.6401Y-4.5192
X8.6405Y-3.7705
X8.6407Y-6.0159
X8.6417Y-6.7635
X8.8369Y-5.3495
X8.837Y-4.6019
X8.8373Y-3.8531
X8.8376Y-6.0986
X8.8386Y-6.8462
X9.3874Y-4.5192
X9.388Y-5.2671
X9.3881Y-3.7705
X9.3883Y-6.7631
X9.3885Y-6.0158
X9.5843Y-4.6019
X9.5848Y-5.3498
X9.5849Y-3.8531
X9.5851Y-6.8458
X9.5853Y-6.0985
X10.1581Y-3.6646
X10.3514Y-4.3918
X10.3696Y-3.6935
X10.5447Y-6.7197
X10.5454Y-5.1149
X10.5629Y-4.4207
X10.7397Y-5.8376
X10.7506Y-6.776
X10.7569Y-5.1438
X10.8557Y-3.38
X10.9513Y-5.8665
X11.0503Y-4.1077
X11.0673Y-3.4089
X11.2444Y-4.8309
X11.2618Y-4.1366
X11.4384Y-5.5559
X11.4559Y-4.8598
X11.5658Y-3.1338
X11.632Y-6.2801
X11.6499Y-5.5848
X11.7632Y-3.8597
X11.7774Y-3.1627
X11.8436Y-6.3091
X11.9578Y-4.5872
X11.9747Y-3.8886
X12.1519Y-5.309
X12.1693Y-4.6161
X12.3054Y-2.9928
X12.3453Y-6.0324
X12.3634Y-5.3379
X12.4991Y-3.715
X12.5169Y-3.0217
X12.5569Y-6.0613
X12.6927Y-4.442
X12.7107Y-3.7439
X12.888Y-5.1678
X12.9042Y-4.4709
X13.0809Y-2.9797
X13.0824Y-5.8925
X13.0995Y-5.1967
X13.2736Y-3.6995
X13.2925Y-3.0086
X13.2939Y-5.9214
X13.4686Y-4.4299
X13.4852Y-3.7284
X13.6625Y-5.1527
X13.6801Y-4.4588
X13.8185Y-2.8438
X13.8572Y-5.8769
X13.874Y-5.1816
X14.0118Y-3.5631
X14.0301Y-2.8727
X14.0688Y-5.9058
X14.2069Y-4.2924
X14.2233Y-3.592
X14.4017Y-5.0147
X14.4184Y-4.3213
X14.5296Y-2.5922
X14.5959Y-5.7403
X14.6132Y-5.0436
X14.7217Y-3.3115
X14.7412Y-2.6211
X14.8074Y-5.7692
X14.9169Y-4.0426
X14.9332Y-3.3404
X15.1109Y-4.7635
X15.1285Y-4.0715
X15.3052Y-5.4885
X15.3225Y-4.7924
X15.5168Y-5.5174
T5
X1.0433Y-5.5762
X1.108Y-5.5341
X1.2365Y-4.8512
X1.3012Y-4.809
X1.3032Y-5.566
X1.3107Y-5.5443
X1.431Y-4.1272
X1.4956Y-4.085
X1.4965Y-4.8409
X1.5039Y-4.8193
X1.6251Y-3.397
X1.6898Y-3.3548
X1.6909Y-4.1169
X1.6983Y-4.0953
X1.7522Y-5.8246
X1.8168Y-2.6793
X1.8169Y-5.7824
X1.8815Y-2.6371
X1.885Y-3.3867
X1.8925Y-3.3651
X1.9473Y-5.1017
X2.012Y-5.0595
X2.0121Y-5.8144
X2.0195Y-5.7927
X2.0767Y-2.669
X2.0841Y-2.6474
X2.1416Y-4.3798
X2.2063Y-4.3377
X2.2073Y-5.0914
X2.2147Y-5.0698
X2.3389Y-3.6486
X2.4015Y-4.3696
X2.4036Y-3.6065
X2.409Y-4.348
X2.492Y-5.9636
X2.5317Y-2.9295
X2.5567Y-5.9215
X2.5964Y-2.8873
X2.5988Y-3.6384
X2.6062Y-3.6168
X2.6863Y-5.2381
X2.751Y-5.196
X2.752Y-5.9534
X2.7594Y-5.9318
X2.7916Y-2.9193
X2.799Y-2.8976
X2.8798Y-4.516
X2.9445Y-4.4738
X2.9462Y-5.2279
X2.9536Y-5.2063
X3.0751Y-3.7853
X3.1397Y-4.5058
X3.1398Y-3.7431
X3.1471Y-4.4841
X3.2661Y-5.9784
X3.2677Y-3.0677
X3.3307Y-5.9362
X3.3324Y-3.0255
X3.3351Y-3.775
X3.3425Y-3.7534
X3.4594Y-5.2544
X3.5241Y-5.2122
X3.526Y-5.9681
X3.5277Y-3.0574
X3.5334Y-5.9465
X3.5351Y-3.0358
X3.6553Y-4.5274
X3.7194Y-5.2442
X3.72Y-4.4852
X3.7268Y-5.2225
X3.8503Y-3.8015
X3.915Y-3.7593
X3.9152Y-4.5172
X3.9227Y-4.4955
X4.0035Y-6.1194
X4.0438Y-3.0783
X4.0682Y-6.0772
X4.1085Y-3.0361
X4.1103Y-3.7912
X4.1177Y-3.7696
X4.1976Y-5.3953
X4.2623Y-5.3531
X4.2634Y-6.1092
X4.2709Y-6.0875
X4.3037Y-3.068
X4.3111Y-3.0464
X4.3908Y-4.6705
X4.4555Y-4.6283
X4.4576Y-5.385
X4.465Y-5.3634
X4.5867Y-3.9453
X4.6507Y-4.6602
X4.6514Y-3.9031
X4.6581Y-4.6386
X4.7158Y-6.366
X4.7805Y-6.3238
X4.7829Y-3.2202
X4.8467Y-3.9351
X4.8475Y-3.178
X4.8541Y-3.9134
X4.9103Y-5.6428
X4.975Y-5.6006
X4.9757Y-6.3558
X4.9832Y-6.3341
X5.0428Y-3.21
X5.0502Y-3.1883
X5.1053Y-4.9158
X5.17Y-4.8736
X5.1702Y-5.6326
X5.1776Y-5.6109
X5.2984Y-4.1907
X5.3631Y-4.1485
X5.3653Y-4.9056
X5.3727Y-4.8839
X5.4925Y-3.4664
X5.5572Y-3.4242
X5.5583Y-4.1804
X5.5657Y-4.1588
X5.6088Y-5.9236
X5.6735Y-5.8814
X5.7524Y-3.4562
X5.7598Y-3.4345
X5.8028Y-5.2005
X5.8143Y-6.8313
X5.8675Y-5.1583
X5.8687Y-5.9133
X5.873Y-6.781
X5.8761Y-5.8917
X5.995Y-4.478
X6.0597Y-4.4358
X6.0627Y-5.1902
X6.0701Y-5.1686
X6.0707Y-6.7872
X6.0752Y-6.7648
X6.1909Y-3.7518
X6.2549Y-4.4678
X6.2556Y-3.7096
X6.2623Y-4.4461
X6.4509Y-3.7416
X6.4583Y-3.7199
X6.9949Y-5.3999
X6.9949Y-3.9027
X6.995Y-4.6515
X6.9953Y-6.1488
X6.9958Y-6.8969
X7.0465Y-5.3424
X7.0465Y-3.8452
X7.0466Y-4.594
X7.0469Y-6.0913
X7.0474Y-6.8395
X7.2433Y-5.3228
X7.2433Y-3.8255
X7.2434Y-4.5743
X7.2437Y-6.0717
X7.2443Y-6.8198
X7.2449Y-5.2999
X7.2449Y-3.8027
X7.245Y-4.5515
X7.2453Y-6.0488
X7.2458Y-6.7969
X7.7423Y-3.9027
X7.7425Y-4.6515
X7.743Y-5.3996
X7.743Y-6.1488
X7.7435Y-6.8966
X7.7939Y-3.8453
X7.7941Y-4.594
X7.7945Y-5.3421
X7.7945Y-6.0913
X7.795Y-6.8391
X7.9907Y-3.8256
X7.9909Y-4.5743
X7.9914Y-5.3224
X7.9914Y-6.0717
X7.9919Y-6.8194
X7.9923Y-3.8027
X7.9925Y-4.5515
X7.993Y-5.2996
X7.993Y-6.0488
X7.9935Y-6.7966
X8.4901Y-5.3991
X8.4901Y-4.6515
X8.4905Y-3.9027
X8.4907Y-6.1482
X8.4917Y-6.8958
X8.5416Y-5.3416
X8.5417Y-4.594
X8.5421Y-3.8453
X8.5423Y-6.0907
X8.5433Y-6.8383
X8.7385Y-5.322
X8.7386Y-4.5743
X8.7389Y-3.8256
X8.7392Y-6.071
X8.7401Y-5.2991
X8.7401Y-4.5515
X8.7401Y-6.8186
X8.7405Y-3.8028
X8.7407Y-6.0482
X8.7417Y-6.7958
X9.2374Y-4.6515
X9.238Y-5.3994
X9.2381Y-3.9027
X9.2383Y-6.8954
X9.2385Y-6.1481
X9.289Y-4.594
X9.2896Y-5.3419
X9.2896Y-3.8453
X9.2899Y-6.8379
X9.29Y-6.0906
X9.4858Y-4.5743
X9.4864Y-5.3222
X9.4865Y-3.8256
X9.4867Y-6.8182
X9.4869Y-6.0709
X9.4874Y-4.5515
X9.488Y-5.2994
X9.4881Y-3.8027
X9.4883Y-6.7954
X9.4885Y-6.0481
X10.0475Y-3.8312
X10.0824Y-3.7623
X10.2407Y-4.5584
X10.2631Y-3.6699
X10.2674Y-3.6923
X10.2757Y-4.4895
X10.4132Y-6.8704
X10.4347Y-5.2815
X10.4563Y-4.3971
X10.4569Y-6.8067
X10.4607Y-4.4195
X10.4697Y-5.2126
X10.6291Y-6.0042
X10.648Y-6.7387
X10.6495Y-6.7615
X10.6503Y-5.1202
X10.6547Y-5.1427
X10.664Y-5.9353
X10.7451Y-3.5466
X10.78Y-3.4777
X10.8447Y-5.8429
X10.8491Y-5.8653
X10.9396Y-4.2743
X10.9607Y-3.3853
X10.9651Y-3.4078
X10.9746Y-4.2054
X11.1337Y-4.9975
X11.1552Y-4.113
X11.1596Y-4.1355
X11.1687Y-4.9286
X11.3277Y-5.7225
X11.3493Y-4.8362
X11.3537Y-4.8587
X11.3627Y-5.6536
X11.4552Y-3.3004
X11.4901Y-3.2316
X11.5214Y-6.4467
X11.5433Y-5.5612
X11.5477Y-5.5836
X11.5563Y-6.3779
X11.6525Y-4.0263
X11.6708Y-3.1391
X11.6752Y-3.1616
X11.6875Y-3.9575
X11.737Y-6.2854
X11.7414Y-6.3079
X11.8471Y-4.7538
X11.8681Y-3.865
X11.8725Y-3.8875
X11.8821Y-4.6849
X12.0412Y-5.4756
X12.0627Y-4.5925
X12.0671Y-4.615
X12.0761Y-5.4067
X12.1947Y-3.1594
X12.2297Y-3.0905
X12.2347Y-6.199
X12.2568Y-5.3143
X12.2612Y-5.3368
X12.2696Y-6.1301
X12.3885Y-3.8816
X12.4103Y-2.9981
X12.4147Y-3.0206
X12.4234Y-3.8128
X12.4503Y-6.0377
X12.4547Y-6.0602
X12.582Y-4.6086
X12.6041Y-3.7203
X12.6085Y-3.7428
X12.617Y-4.5397
X12.7773Y-5.3344
X12.7976Y-4.4473
X12.802Y-4.4697
X12.8123Y-5.2656
X12.9703Y-3.1463
X12.9717Y-6.0591
X12.9929Y-5.1731
X12.9973Y-5.1956
X13.0052Y-3.0775
X13.0066Y-5.9903
X13.163Y-3.8661
X13.1859Y-2.985
X13.1873Y-5.8978
X13.1903Y-3.0075
X13.1917Y-5.9203
X13.1979Y-3.7972
X13.3579Y-4.5965
X13.3786Y-3.7048
X13.383Y-3.7272
X13.3929Y-4.5276
X13.5518Y-5.3193
X13.5735Y-4.4352
X13.5779Y-4.4577
X13.5868Y-5.2504
X13.7079Y-3.0104
X13.7428Y-2.9415
X13.7466Y-6.0435
X13.7674Y-5.158
X13.7718Y-5.1805
X13.7815Y-5.9747
X13.9011Y-3.7297
X13.9235Y-2.8491
X13.9279Y-2.8716
X13.9361Y-3.6608
X13.9622Y-5.8822
X13.9665Y-5.9047
X14.0963Y-4.459
X14.1167Y-3.5684
X14.1211Y-3.5908
X14.1312Y-4.3901
X14.291Y-5.1813
X14.3119Y-4.2977
X14.3162Y-4.3201
X14.3259Y-5.1124
X14.419Y-2.7588
X14.4539Y-2.6899
X14.4852Y-5.9069
X14.5066Y-5.02
X14.511Y-5.0425
X14.5202Y-5.838
X14.611Y-3.4781
X14.6346Y-2.5975
X14.639Y-2.6199
X14.646Y-3.4092
X14.7008Y-5.7456
X14.7052Y-5.7681
X14.8063Y-4.2092
X14.8266Y-3.3168
X14.831Y-3.3392
X14.8412Y-4.1403
X15.0003Y-4.9301
X15.0219Y-4.0479
X15.0263Y-4.0703
X15.0352Y-4.8612
X15.1946Y-5.6551
X15.2159Y-4.7688
X15.2203Y-4.7913
X15.2295Y-5.5862
X15.4102Y-5.4938
X15.4146Y-5.5162
T6
X1.46Y-6.06
X2.35Y-2.71
X3.34Y-4.93
X3.8Y-3.13
X4.37Y-6.71
X5.04Y-4.26
X6.495Y-6.165
X6.525Y-3.32
X6.615Y-4.77
X6.77Y-7.375
X7.52Y-5.595
X8.265Y-4.945
X8.265Y-6.44
X9.02Y-5.59
X9.76Y-7.37
X9.92Y-4.775
X10.055Y-6.175
X10.095Y-3.31
X11.485Y-4.26
X12.14Y-6.725
X12.73Y-3.105
X13.2Y-4.925
X14.19Y-2.74
X15.075Y-6.09
T2
G00X8.0954Y-3.0705
M15
G01X8.0954Y-3.0469
M16
G05
G00X8.0954Y-3.2449
M15
G01X8.0954Y-3.2016
M16
G05
G00X8.4355Y-3.0705
M15
G01X8.4355Y-3.0469
M16
G05
G00X8.4355Y-3.2449
M15
G01X8.4355Y-3.2016
M16
G05
T0
M30
