%FSLAX45Y45*%
G04 Gerber Fmt 4.5, Leading zero omitted, Abs format (unit mm)*
G04 Created by KiCad (PCBNEW (5.1.10)-1) date 2021-09-15 15:45:31*
%MOMM*%
%LPD*%
G01*
G04 APERTURE LIST*
%TA.AperFunction,Profile*%
%ADD10C,0.200000*%
%TD*%
%ADD11C,0.200000*%
%ADD12C,0.300000*%
G04 APERTURE END LIST*
D10*
X3678763Y-16323492D02*
X14056075Y-19104084D01*
X8220936Y-6670164D02*
X17272000Y-7620000D01*
X24765000Y-7620000D02*
X33760064Y-6677270D01*
X17272000Y-7620000D02*
X24765000Y-7620000D01*
X27924925Y-19111191D02*
X14056075Y-19104084D01*
X38302237Y-16330599D02*
G75*
G03*
X38394441Y-16295840I-129410J482963D01*
G01*
X40268025Y-15369453D02*
X38394441Y-16295840D01*
X40268025Y-15369454D02*
G75*
G03*
X40529374Y-14791839I-221613J448205D01*
G01*
X38176684Y-6011479D02*
X40529374Y-14791839D01*
X38176684Y-6011479D02*
G75*
G03*
X37564311Y-5657925I-482963J-129410D01*
G01*
X33760064Y-6677270D02*
X37564311Y-5657925D01*
X38302237Y-16330599D02*
X27924925Y-19111191D01*
X3678763Y-16323492D02*
G75*
G02*
X3586559Y-16288734I129410J482963D01*
G01*
X1712975Y-15362347D02*
G75*
G02*
X1451626Y-14784732I221613J448205D01*
G01*
X3804316Y-6004372D02*
X1451626Y-14784732D01*
X3804316Y-6004372D02*
G75*
G02*
X4416689Y-5650818I482963J-129410D01*
G01*
X8220936Y-6670164D02*
X4416689Y-5650818D01*
X1712975Y-15362346D02*
X3586559Y-16288734D01*
D11*
X5923600Y-7244400D02*
X5963600Y-7284400D01*
X5963600Y-7244400D02*
X5923600Y-7284400D01*
X7803200Y-7600000D02*
X7843200Y-7640000D01*
X7843200Y-7600000D02*
X7803200Y-7640000D01*
X11664000Y-7955600D02*
X11704000Y-7995600D01*
X11704000Y-7955600D02*
X11664000Y-7995600D01*
X13518200Y-8311200D02*
X13558200Y-8351200D01*
X13558200Y-8311200D02*
X13518200Y-8351200D01*
X15296200Y-8971600D02*
X15336200Y-9011600D01*
X15336200Y-8971600D02*
X15296200Y-9011600D01*
X16731600Y-15003800D02*
X16771600Y-15043800D01*
X16771600Y-15003800D02*
X16731600Y-15043800D01*
X17023400Y-15499400D02*
X17063400Y-15539400D01*
X17063400Y-15499400D02*
X17023400Y-15539400D01*
X17175800Y-11193800D02*
X17215800Y-11233800D01*
X17215800Y-11193800D02*
X17175800Y-11233800D01*
X17265000Y-13098800D02*
X17305000Y-13138800D01*
X17305000Y-13098800D02*
X17265000Y-13138800D01*
X17302800Y-9479600D02*
X17342800Y-9519600D01*
X17342800Y-9479600D02*
X17302800Y-9519600D01*
X19233200Y-9606600D02*
X19273200Y-9646600D01*
X19273200Y-9606600D02*
X19233200Y-9646600D01*
X19297000Y-15003800D02*
X19337000Y-15043800D01*
X19337000Y-15003800D02*
X19297000Y-15043800D01*
X19817400Y-8590600D02*
X19857400Y-8630600D01*
X19857400Y-8590600D02*
X19817400Y-8630600D01*
X19969800Y-8590600D02*
X20009800Y-8630600D01*
X20009800Y-8590600D02*
X19969800Y-8630600D01*
X20096800Y-8590600D02*
X20136800Y-8630600D01*
X20136800Y-8590600D02*
X20096800Y-8630600D01*
X20535000Y-8630000D02*
X20575000Y-8670000D01*
X20575000Y-8630000D02*
X20535000Y-8670000D01*
X20988101Y-8029499D02*
X21028101Y-8069499D01*
X21028101Y-8029499D02*
X20988101Y-8069499D01*
X21138200Y-10775000D02*
X21178200Y-10815000D01*
X21178200Y-10775000D02*
X21138200Y-10815000D01*
X21252500Y-16908800D02*
X21292500Y-16948800D01*
X21292500Y-16908800D02*
X21252500Y-16948800D01*
X21468400Y-9543100D02*
X21508400Y-9583100D01*
X21508400Y-9543100D02*
X21468400Y-9583100D01*
X21925600Y-8387400D02*
X21965600Y-8427400D01*
X21965600Y-8387400D02*
X21925600Y-8427400D01*
X21925600Y-8535000D02*
X21965600Y-8575000D01*
X21965600Y-8535000D02*
X21925600Y-8575000D01*
X21925600Y-8692200D02*
X21965600Y-8732200D01*
X21965600Y-8692200D02*
X21925600Y-8732200D01*
X22065000Y-8620000D02*
X22105000Y-8660000D01*
X22105000Y-8620000D02*
X22065000Y-8660000D01*
X22137100Y-8166500D02*
X22177100Y-8206500D01*
X22177100Y-8166500D02*
X22137100Y-8206500D01*
X22139900Y-8347600D02*
X22179900Y-8387600D01*
X22179900Y-8347600D02*
X22139900Y-8387600D01*
X22332000Y-8844600D02*
X22372000Y-8884600D01*
X22372000Y-8844600D02*
X22332000Y-8884600D01*
X22535200Y-8768400D02*
X22575200Y-8808400D01*
X22575200Y-8768400D02*
X22535200Y-8808400D01*
X22687600Y-8133400D02*
X22727600Y-8173400D01*
X22727600Y-8133400D02*
X22687600Y-8173400D01*
X22847400Y-8151400D02*
X22887400Y-8191400D01*
X22887400Y-8151400D02*
X22847400Y-8191400D01*
X22928600Y-10991200D02*
X22968600Y-11031200D01*
X22968600Y-10991200D02*
X22928600Y-11031200D01*
X22979700Y-8514400D02*
X23019700Y-8554400D01*
X23019700Y-8514400D02*
X22979700Y-8554400D01*
X22979700Y-8641400D02*
X23019700Y-8681400D01*
X23019700Y-8641400D02*
X22979700Y-8681400D01*
X22992400Y-9606600D02*
X23032400Y-9646600D01*
X23032400Y-9606600D02*
X22992400Y-9646600D01*
X23005000Y-8155000D02*
X23045000Y-8195000D01*
X23045000Y-8155000D02*
X23005000Y-8195000D01*
X23094000Y-8743000D02*
X23134000Y-8783000D01*
X23134000Y-8743000D02*
X23094000Y-8783000D01*
X23373400Y-8057200D02*
X23413400Y-8097200D01*
X23413400Y-8057200D02*
X23373400Y-8097200D01*
X23377600Y-7858200D02*
X23417600Y-7898200D01*
X23417600Y-7858200D02*
X23377600Y-7898200D01*
X23728000Y-7951000D02*
X23768000Y-7991000D01*
X23768000Y-7951000D02*
X23728000Y-7991000D01*
X23737000Y-8947000D02*
X23777000Y-8987000D01*
X23777000Y-8947000D02*
X23737000Y-8987000D01*
X24332000Y-8374000D02*
X24372000Y-8414000D01*
X24372000Y-8374000D02*
X24332000Y-8414000D01*
X24395000Y-8195000D02*
X24435000Y-8235000D01*
X24435000Y-8195000D02*
X24395000Y-8235000D01*
X29672600Y-8819200D02*
X29712600Y-8859200D01*
X29712600Y-8819200D02*
X29672600Y-8859200D01*
X20592200Y-7769000D02*
G75*
G03*
X20592200Y-7769000I-30000J0D01*
G01*
X20582200Y-7799000D02*
X20582200Y-7739000D01*
X20542200Y-7799000D02*
X20542200Y-7739000D01*
X20582200Y-7739000D02*
G75*
G03*
X20542200Y-7739000I-20000J0D01*
G01*
X20542200Y-7799000D02*
G75*
G03*
X20582200Y-7799000I20000J0D01*
G01*
X20592200Y-8187000D02*
G75*
G03*
X20592200Y-8187000I-30000J0D01*
G01*
X20582200Y-8242000D02*
X20582200Y-8132000D01*
X20542200Y-8242000D02*
X20542200Y-8132000D01*
X20582200Y-8132000D02*
G75*
G03*
X20542200Y-8132000I-20000J0D01*
G01*
X20542200Y-8242000D02*
G75*
G03*
X20582200Y-8242000I20000J0D01*
G01*
X21456200Y-7769000D02*
G75*
G03*
X21456200Y-7769000I-30000J0D01*
G01*
X21446200Y-7799000D02*
X21446200Y-7739000D01*
X21406200Y-7799000D02*
X21406200Y-7739000D01*
X21446200Y-7739000D02*
G75*
G03*
X21406200Y-7739000I-20000J0D01*
G01*
X21406200Y-7799000D02*
G75*
G03*
X21446200Y-7799000I20000J0D01*
G01*
X21456200Y-8187000D02*
G75*
G03*
X21456200Y-8187000I-30000J0D01*
G01*
X21446200Y-8242000D02*
X21446200Y-8132000D01*
X21406200Y-8242000D02*
X21406200Y-8132000D01*
X21446200Y-8132000D02*
G75*
G03*
X21406200Y-8132000I-20000J0D01*
G01*
X21406200Y-8242000D02*
G75*
G03*
X21446200Y-8242000I20000J0D01*
G01*
X19837400Y-7773200D02*
X19837400Y-7873200D01*
X19787400Y-7823200D02*
X19887400Y-7823200D01*
X19837400Y-8027200D02*
X19837400Y-8127200D01*
X19787400Y-8077200D02*
X19887400Y-8077200D01*
X19837400Y-8281200D02*
X19837400Y-8381200D01*
X19787400Y-8331200D02*
X19887400Y-8331200D01*
X20091400Y-7773200D02*
X20091400Y-7873200D01*
X20041400Y-7823200D02*
X20141400Y-7823200D01*
X20091400Y-8027200D02*
X20091400Y-8127200D01*
X20041400Y-8077200D02*
X20141400Y-8077200D01*
X20091400Y-8281200D02*
X20091400Y-8381200D01*
X20041400Y-8331200D02*
X20141400Y-8331200D01*
X3147422Y-13980109D02*
X3147422Y-13895255D01*
X3062568Y-13895255D01*
X3062568Y-13980109D01*
X3147422Y-13980109D01*
X3576033Y-14312363D02*
X3576033Y-14227509D01*
X3491179Y-14227509D01*
X3491179Y-14312363D01*
X3576033Y-14312363D01*
X3638226Y-12138417D02*
X3638226Y-12053563D01*
X3553372Y-12053563D01*
X3553372Y-12138417D01*
X3638226Y-12138417D01*
X4066837Y-12470671D02*
X4066837Y-12385817D01*
X3981983Y-12385817D01*
X3981983Y-12470671D01*
X4066837Y-12470671D01*
X4132029Y-10299511D02*
X4132029Y-10214658D01*
X4047175Y-10214658D01*
X4047175Y-10299511D01*
X4132029Y-10299511D01*
X4560640Y-10631765D02*
X4560640Y-10546912D01*
X4475786Y-10546912D01*
X4475786Y-10631765D01*
X4560640Y-10631765D01*
X4625179Y-8444775D02*
X4625179Y-8359921D01*
X4540326Y-8359921D01*
X4540326Y-8444775D01*
X4625179Y-8444775D01*
X4947885Y-14610969D02*
X4947885Y-14526115D01*
X4863032Y-14526115D01*
X4863032Y-14610969D01*
X4947885Y-14610969D01*
X5053790Y-8777029D02*
X5053790Y-8692175D01*
X4968937Y-8692175D01*
X4968937Y-8777029D01*
X5053790Y-8777029D01*
X5112033Y-6621877D02*
X5112033Y-6537023D01*
X5027179Y-6537023D01*
X5027179Y-6621877D01*
X5112033Y-6621877D01*
X5376496Y-14943223D02*
X5376496Y-14858369D01*
X5291643Y-14858369D01*
X5291643Y-14943223D01*
X5376496Y-14943223D01*
X5443646Y-12774754D02*
X5443646Y-12689901D01*
X5358793Y-12689901D01*
X5358793Y-12774754D01*
X5443646Y-12774754D01*
X5540644Y-6954131D02*
X5540644Y-6869277D01*
X5455790Y-6869277D01*
X5455790Y-6954131D01*
X5540644Y-6954131D01*
X5872257Y-13107008D02*
X5872257Y-13022155D01*
X5787403Y-13022155D01*
X5787403Y-13107008D01*
X5872257Y-13107008D01*
X5937087Y-10941286D02*
X5937087Y-10856433D01*
X5852233Y-10856433D01*
X5852233Y-10941286D01*
X5937087Y-10941286D01*
X6365698Y-11273540D02*
X6365698Y-11188686D01*
X6280844Y-11188686D01*
X6280844Y-11273540D01*
X6365698Y-11273540D01*
X6438156Y-9084048D02*
X6438156Y-8999194D01*
X6353303Y-8999194D01*
X6353303Y-9084048D01*
X6438156Y-9084048D01*
X6827164Y-14964128D02*
X6827164Y-14879274D01*
X6742310Y-14879274D01*
X6742310Y-14964128D01*
X6827164Y-14964128D01*
X6866767Y-9416302D02*
X6866767Y-9331448D01*
X6781914Y-9331448D01*
X6781914Y-9416302D01*
X6866767Y-9416302D01*
X6927833Y-7257434D02*
X6927833Y-7172580D01*
X6842979Y-7172580D01*
X6842979Y-7257434D01*
X6927833Y-7257434D01*
X7255775Y-15296382D02*
X7255775Y-15211528D01*
X7170921Y-15211528D01*
X7170921Y-15296382D01*
X7255775Y-15296382D01*
X7320573Y-13121384D02*
X7320573Y-13036531D01*
X7235720Y-13036531D01*
X7235720Y-13121384D01*
X7320573Y-13121384D01*
X7356444Y-7589688D02*
X7356444Y-7504834D01*
X7271590Y-7504834D01*
X7271590Y-7589688D01*
X7356444Y-7589688D01*
X7749184Y-13453638D02*
X7749184Y-13368785D01*
X7664331Y-13368785D01*
X7664331Y-13453638D01*
X7749184Y-13453638D01*
X7812058Y-11287112D02*
X7812058Y-11202258D01*
X7727205Y-11202258D01*
X7727205Y-11287112D01*
X7812058Y-11287112D01*
X8240669Y-11619365D02*
X8240669Y-11534512D01*
X8155816Y-11534512D01*
X8155816Y-11619365D01*
X8240669Y-11619365D01*
X8308247Y-9431048D02*
X8308247Y-9346195D01*
X8223393Y-9346195D01*
X8223393Y-9431048D01*
X8308247Y-9431048D01*
X8736858Y-9763302D02*
X8736858Y-9678448D01*
X8652005Y-9678448D01*
X8652005Y-9763302D01*
X8736858Y-9763302D01*
X8793185Y-15001506D02*
X8793185Y-14916653D01*
X8708331Y-14916653D01*
X8708331Y-15001506D01*
X8793185Y-15001506D01*
X8797485Y-7608360D02*
X8797485Y-7523506D01*
X8712632Y-7523506D01*
X8712632Y-7608360D01*
X8797485Y-7608360D01*
X9221796Y-15333760D02*
X9221796Y-15248907D01*
X9136942Y-15248907D01*
X9136942Y-15333760D01*
X9221796Y-15333760D01*
X9226096Y-7940614D02*
X9226096Y-7855760D01*
X9141243Y-7855760D01*
X9141243Y-7940614D01*
X9226096Y-7940614D01*
X9284347Y-13162688D02*
X9284347Y-13077834D01*
X9199493Y-13077834D01*
X9199493Y-13162688D01*
X9284347Y-13162688D01*
X9712958Y-13494942D02*
X9712958Y-13410088D01*
X9628104Y-13410088D01*
X9628104Y-13494942D01*
X9712958Y-13494942D01*
X9781888Y-11316076D02*
X9781888Y-11231223D01*
X9697035Y-11231223D01*
X9697035Y-11316076D01*
X9781888Y-11316076D01*
X10210499Y-11648330D02*
X10210499Y-11563477D01*
X10125646Y-11563477D01*
X10125646Y-11648330D01*
X10210499Y-11648330D01*
X10277268Y-9472186D02*
X10277268Y-9387332D01*
X10192415Y-9387332D01*
X10192415Y-9472186D01*
X10277268Y-9472186D01*
X10666271Y-15359806D02*
X10666271Y-15274952D01*
X10581417Y-15274952D01*
X10581417Y-15359806D01*
X10666271Y-15359806D01*
X10705879Y-9804440D02*
X10705879Y-9719586D01*
X10621026Y-9719586D01*
X10621026Y-9804440D01*
X10705879Y-9804440D01*
X10768602Y-7635281D02*
X10768602Y-7550427D01*
X10683748Y-7550427D01*
X10683748Y-7635281D01*
X10768602Y-7635281D01*
X11094882Y-15692060D02*
X11094882Y-15607206D01*
X11010028Y-15607206D01*
X11010028Y-15692060D01*
X11094882Y-15692060D01*
X11159400Y-13520456D02*
X11159400Y-13435602D01*
X11074547Y-13435602D01*
X11074547Y-13520456D01*
X11159400Y-13520456D01*
X11197213Y-7967535D02*
X11197213Y-7882681D01*
X11112359Y-7882681D01*
X11112359Y-7967535D01*
X11197213Y-7967535D01*
X11588011Y-13852710D02*
X11588011Y-13767856D01*
X11503158Y-13767856D01*
X11503158Y-13852710D01*
X11588011Y-13852710D01*
X11649930Y-11679520D02*
X11649930Y-11594666D01*
X11565077Y-11594666D01*
X11565077Y-11679520D01*
X11649930Y-11679520D01*
X12078541Y-12011774D02*
X12078541Y-11926920D01*
X11993688Y-11926920D01*
X11993688Y-12011774D01*
X12078541Y-12011774D01*
X12147685Y-9837572D02*
X12147685Y-9752718D01*
X12062832Y-9752718D01*
X12062832Y-9837572D01*
X12147685Y-9837572D01*
X12475564Y-15986129D02*
X12475564Y-15901275D01*
X12390710Y-15901275D01*
X12390710Y-15986129D01*
X12475564Y-15986129D01*
X12576296Y-10169826D02*
X12576296Y-10084972D01*
X12491443Y-10084972D01*
X12491443Y-10169826D01*
X12576296Y-10169826D01*
X12645856Y-7995851D02*
X12645856Y-7910997D01*
X12561002Y-7910997D01*
X12561002Y-7995851D01*
X12645856Y-7995851D01*
X12904175Y-16318383D02*
X12904175Y-16233529D01*
X12819321Y-16233529D01*
X12819321Y-16318383D01*
X12904175Y-16318383D01*
X12969507Y-14149180D02*
X12969507Y-14064326D01*
X12884654Y-14064326D01*
X12884654Y-14149180D01*
X12969507Y-14149180D01*
X13074467Y-8328104D02*
X13074467Y-8243251D01*
X12989613Y-8243251D01*
X12989613Y-8328104D01*
X13074467Y-8328104D01*
X13398118Y-14481434D02*
X13398118Y-14396580D01*
X13313265Y-14396580D01*
X13313265Y-14481434D01*
X13398118Y-14481434D01*
X13464994Y-12302590D02*
X13464994Y-12217736D01*
X13380140Y-12217736D01*
X13380140Y-12302590D01*
X13464994Y-12302590D01*
X13893605Y-12634844D02*
X13893605Y-12549990D01*
X13808751Y-12549990D01*
X13808751Y-12634844D01*
X13893605Y-12634844D01*
X13955300Y-10460821D02*
X13955300Y-10375968D01*
X13870447Y-10375968D01*
X13870447Y-10460821D01*
X13955300Y-10460821D01*
X14383911Y-10793075D02*
X14383911Y-10708222D01*
X14299058Y-10708222D01*
X14299058Y-10793075D01*
X14383911Y-10793075D01*
X14448310Y-8621193D02*
X14448310Y-8536339D01*
X14363457Y-8536339D01*
X14363457Y-8621193D01*
X14448310Y-8621193D01*
X14743716Y-14862366D02*
X14743716Y-14777512D01*
X14658862Y-14777512D01*
X14658862Y-14862366D01*
X14743716Y-14862366D01*
X14876921Y-8953446D02*
X14876921Y-8868593D01*
X14792068Y-8868593D01*
X14792068Y-8953446D01*
X14876921Y-8953446D01*
X15172327Y-15194620D02*
X15172327Y-15109766D01*
X15087473Y-15109766D01*
X15087473Y-15194620D01*
X15172327Y-15194620D01*
X15232437Y-17110474D02*
X15232437Y-17025621D01*
X15147584Y-17025621D01*
X15147584Y-17110474D01*
X15232437Y-17110474D01*
X15236428Y-13025634D02*
X15236428Y-12940780D01*
X15151574Y-12940780D01*
X15151574Y-13025634D01*
X15236428Y-13025634D01*
X15665039Y-13357888D02*
X15665039Y-13273034D01*
X15580185Y-13273034D01*
X15580185Y-13357888D01*
X15665039Y-13357888D01*
X15700749Y-17383941D02*
X15700749Y-17299087D01*
X15615896Y-17299087D01*
X15615896Y-17383941D01*
X15700749Y-17383941D01*
X15724625Y-11190609D02*
X15724625Y-11105755D01*
X15639772Y-11105755D01*
X15639772Y-11190609D01*
X15724625Y-11190609D01*
X16153236Y-11522862D02*
X16153236Y-11438009D01*
X16068383Y-11438009D01*
X16068383Y-11522862D01*
X16153236Y-11522862D01*
X16222341Y-9346074D02*
X16222341Y-9261221D01*
X16137487Y-9261221D01*
X16137487Y-9346074D01*
X16222341Y-9346074D01*
X16650952Y-9678328D02*
X16650952Y-9593475D01*
X16566098Y-9593475D01*
X16566098Y-9678328D01*
X16650952Y-9678328D01*
X18190425Y-13422216D02*
X18190425Y-13337362D01*
X18105571Y-13337362D01*
X18105571Y-13422216D01*
X18190425Y-13422216D01*
X18190430Y-9619313D02*
X18190430Y-9534459D01*
X18105576Y-9534459D01*
X18105576Y-9619313D01*
X18190430Y-9619313D01*
X18190673Y-11521133D02*
X18190673Y-11436279D01*
X18105819Y-11436279D01*
X18105819Y-11521133D01*
X18190673Y-11521133D01*
X18191448Y-15324423D02*
X18191448Y-15239569D01*
X18106594Y-15239569D01*
X18106594Y-15324423D01*
X18191448Y-15324423D01*
X18192847Y-17224660D02*
X18192847Y-17139807D01*
X18107994Y-17139807D01*
X18107994Y-17224660D01*
X18192847Y-17224660D01*
X18690425Y-13632216D02*
X18690425Y-13547362D01*
X18605571Y-13547362D01*
X18605571Y-13632216D01*
X18690425Y-13632216D01*
X18690430Y-9829313D02*
X18690430Y-9744459D01*
X18605576Y-9744459D01*
X18605576Y-9829313D01*
X18690430Y-9829313D01*
X18690673Y-11731133D02*
X18690673Y-11646279D01*
X18605819Y-11646279D01*
X18605819Y-11731133D01*
X18690673Y-11731133D01*
X18691448Y-15534423D02*
X18691448Y-15449569D01*
X18606594Y-15449569D01*
X18606594Y-15534423D01*
X18691448Y-15534423D01*
X18692847Y-17434660D02*
X18692847Y-17349807D01*
X18607994Y-17349807D01*
X18607994Y-17434660D01*
X18692847Y-17434660D01*
X20088821Y-9619389D02*
X20088821Y-9534535D01*
X20003967Y-9534535D01*
X20003967Y-9619389D01*
X20088821Y-9619389D01*
X20089350Y-11521242D02*
X20089350Y-11436389D01*
X20004497Y-11436389D01*
X20004497Y-11521242D01*
X20089350Y-11521242D01*
X20090548Y-13421341D02*
X20090548Y-13336488D01*
X20005694Y-13336488D01*
X20005694Y-13421341D01*
X20090548Y-13421341D01*
X20090561Y-15324454D02*
X20090561Y-15239601D01*
X20005708Y-15239601D01*
X20005708Y-15324454D01*
X20090561Y-15324454D01*
X20091798Y-17223716D02*
X20091798Y-17138863D01*
X20006944Y-17138863D01*
X20006944Y-17223716D01*
X20091798Y-17223716D01*
X20588821Y-9829389D02*
X20588821Y-9744535D01*
X20503967Y-9744535D01*
X20503967Y-9829389D01*
X20588821Y-9829389D01*
X20589350Y-11731242D02*
X20589350Y-11646389D01*
X20504497Y-11646389D01*
X20504497Y-11731242D01*
X20589350Y-11731242D01*
X20590548Y-13631341D02*
X20590548Y-13546488D01*
X20505694Y-13546488D01*
X20505694Y-13631341D01*
X20590548Y-13631341D01*
X20590561Y-15534454D02*
X20590561Y-15449601D01*
X20505708Y-15449601D01*
X20505708Y-15534454D01*
X20590561Y-15534454D01*
X20591798Y-17433716D02*
X20591798Y-17348863D01*
X20506944Y-17348863D01*
X20506944Y-17433716D01*
X20591798Y-17433716D01*
X21988187Y-13420207D02*
X21988187Y-13335353D01*
X21903333Y-13335353D01*
X21903333Y-13420207D01*
X21988187Y-13420207D01*
X21988351Y-11521241D02*
X21988351Y-11436387D01*
X21903498Y-11436387D01*
X21903498Y-11521241D01*
X21988351Y-11521241D01*
X21989237Y-9619412D02*
X21989237Y-9534558D01*
X21904383Y-9534558D01*
X21904383Y-9619412D01*
X21989237Y-9619412D01*
X21989895Y-15322811D02*
X21989895Y-15237958D01*
X21905042Y-15237958D01*
X21905042Y-15322811D01*
X21989895Y-15322811D01*
X21992387Y-17221776D02*
X21992387Y-17136922D01*
X21907533Y-17136922D01*
X21907533Y-17221776D01*
X21992387Y-17221776D01*
X22488187Y-13630207D02*
X22488187Y-13545353D01*
X22403333Y-13545353D01*
X22403333Y-13630207D01*
X22488187Y-13630207D01*
X22488351Y-11731241D02*
X22488351Y-11646387D01*
X22403498Y-11646387D01*
X22403498Y-11731241D01*
X22488351Y-11731241D01*
X22489237Y-9829412D02*
X22489237Y-9744558D01*
X22404383Y-9744558D01*
X22404383Y-9829412D01*
X22489237Y-9829412D01*
X22489895Y-15532811D02*
X22489895Y-15447958D01*
X22405042Y-15447958D01*
X22405042Y-15532811D01*
X22489895Y-15532811D01*
X22492387Y-17431776D02*
X22492387Y-17346922D01*
X22407533Y-17346922D01*
X22407533Y-17431776D01*
X22492387Y-17431776D01*
X23886457Y-11521261D02*
X23886457Y-11436408D01*
X23801603Y-11436408D01*
X23801603Y-11521261D01*
X23886457Y-11521261D01*
X23887897Y-13420910D02*
X23887897Y-13336056D01*
X23803044Y-13336056D01*
X23803044Y-13420910D01*
X23887897Y-13420910D01*
X23888121Y-9619397D02*
X23888121Y-9534543D01*
X23803268Y-9534543D01*
X23803268Y-9619397D01*
X23888121Y-9619397D01*
X23888702Y-17220701D02*
X23888702Y-17135847D01*
X23803849Y-17135847D01*
X23803849Y-17220701D01*
X23888702Y-17220701D01*
X23889091Y-15322539D02*
X23889091Y-15237685D01*
X23804237Y-15237685D01*
X23804237Y-15322539D01*
X23889091Y-15322539D01*
X24386457Y-11731261D02*
X24386457Y-11646408D01*
X24301603Y-11646408D01*
X24301603Y-11731261D01*
X24386457Y-11731261D01*
X24387897Y-13630910D02*
X24387897Y-13546056D01*
X24303044Y-13546056D01*
X24303044Y-13630910D01*
X24387897Y-13630910D01*
X24388121Y-9829397D02*
X24388121Y-9744543D01*
X24303268Y-9744543D01*
X24303268Y-9829397D01*
X24388121Y-9829397D01*
X24388702Y-17430701D02*
X24388702Y-17345847D01*
X24303849Y-17345847D01*
X24303849Y-17430701D01*
X24388702Y-17430701D01*
X24389091Y-15532539D02*
X24389091Y-15447685D01*
X24304237Y-15447685D01*
X24304237Y-15532539D01*
X24389091Y-15532539D01*
X25844016Y-9350392D02*
X25844016Y-9265539D01*
X25759162Y-9265539D01*
X25759162Y-9350392D01*
X25844016Y-9350392D01*
X26334953Y-11197484D02*
X26334953Y-11112630D01*
X26250100Y-11112630D01*
X26250100Y-11197484D01*
X26334953Y-11197484D01*
X26381331Y-9423827D02*
X26381331Y-9338973D01*
X26296477Y-9338973D01*
X26296477Y-9423827D01*
X26381331Y-9423827D01*
X26825916Y-17110474D02*
X26825916Y-17025621D01*
X26741063Y-17025621D01*
X26741063Y-17110474D01*
X26825916Y-17110474D01*
X26827745Y-13034273D02*
X26827745Y-12949420D01*
X26742891Y-12949420D01*
X26742891Y-13034273D01*
X26827745Y-13034273D01*
X26872268Y-11270919D02*
X26872268Y-11186065D01*
X26787414Y-11186065D01*
X26787414Y-11270919D01*
X26872268Y-11270919D01*
X27321368Y-14869859D02*
X27321368Y-14785006D01*
X27236514Y-14785006D01*
X27236514Y-14869859D01*
X27321368Y-14869859D01*
X27349049Y-17253415D02*
X27349049Y-17168561D01*
X27264196Y-17168561D01*
X27264196Y-17253415D01*
X27349049Y-17253415D01*
X27365060Y-13107708D02*
X27365060Y-13022854D01*
X27280206Y-13022854D01*
X27280206Y-13107708D01*
X27365060Y-13107708D01*
X27616025Y-8627632D02*
X27616025Y-8542778D01*
X27531171Y-8542778D01*
X27531171Y-8627632D01*
X27616025Y-8627632D01*
X27858683Y-14943294D02*
X27858683Y-14858441D01*
X27773829Y-14858441D01*
X27773829Y-14943294D01*
X27858683Y-14943294D01*
X28110164Y-10475954D02*
X28110164Y-10391101D01*
X28025311Y-10391101D01*
X28025311Y-10475954D01*
X28110164Y-10475954D01*
X28153340Y-8701067D02*
X28153340Y-8616213D01*
X28068486Y-8616213D01*
X28068486Y-8701067D01*
X28153340Y-8701067D01*
X28603169Y-12312916D02*
X28603169Y-12228062D01*
X28518316Y-12228062D01*
X28518316Y-12312916D01*
X28603169Y-12312916D01*
X28647479Y-10549389D02*
X28647479Y-10464536D01*
X28562626Y-10464536D01*
X28562626Y-10549389D01*
X28647479Y-10549389D01*
X29095921Y-14154307D02*
X29095921Y-14069453D01*
X29011067Y-14069453D01*
X29011067Y-14154307D01*
X29095921Y-14154307D01*
X29140484Y-12386351D02*
X29140484Y-12301497D01*
X29055630Y-12301497D01*
X29055630Y-12386351D01*
X29140484Y-12386351D01*
X29419626Y-8002370D02*
X29419626Y-7917517D01*
X29334772Y-7917517D01*
X29334772Y-8002370D01*
X29419626Y-8002370D01*
X29587826Y-15993988D02*
X29587826Y-15909134D01*
X29502972Y-15909134D01*
X29502972Y-15993988D01*
X29587826Y-15993988D01*
X29633236Y-14227742D02*
X29633236Y-14142888D01*
X29548382Y-14142888D01*
X29548382Y-14227742D01*
X29633236Y-14227742D01*
X29920915Y-9846152D02*
X29920915Y-9761298D01*
X29836061Y-9761298D01*
X29836061Y-9846152D01*
X29920915Y-9846152D01*
X29956941Y-8075805D02*
X29956941Y-7990952D01*
X29872087Y-7990952D01*
X29872087Y-8075805D01*
X29956941Y-8075805D01*
X30125140Y-16067423D02*
X30125140Y-15982569D01*
X30040287Y-15982569D01*
X30040287Y-16067423D01*
X30125140Y-16067423D01*
X30415211Y-11693942D02*
X30415211Y-11609088D01*
X30330358Y-11609088D01*
X30330358Y-11693942D01*
X30415211Y-11693942D01*
X30458230Y-9919587D02*
X30458230Y-9834733D01*
X30373376Y-9834733D01*
X30373376Y-9919587D01*
X30458230Y-9919587D01*
X30908143Y-13527264D02*
X30908143Y-13442411D01*
X30823290Y-13442411D01*
X30823290Y-13527264D01*
X30908143Y-13527264D01*
X30952526Y-11767376D02*
X30952526Y-11682523D01*
X30867673Y-11682523D01*
X30867673Y-11767376D01*
X30952526Y-11767376D01*
X31298120Y-7644129D02*
X31298120Y-7559276D01*
X31213266Y-7559276D01*
X31213266Y-7644129D01*
X31298120Y-7644129D01*
X31399570Y-15364777D02*
X31399570Y-15279923D01*
X31314716Y-15279923D01*
X31314716Y-15364777D01*
X31399570Y-15364777D01*
X31445458Y-13600699D02*
X31445458Y-13515846D01*
X31360605Y-13515846D01*
X31360605Y-13600699D01*
X31445458Y-13600699D01*
X31790196Y-9478608D02*
X31790196Y-9393755D01*
X31705342Y-9393755D01*
X31705342Y-9478608D01*
X31790196Y-9478608D01*
X31835435Y-7717564D02*
X31835435Y-7632710D01*
X31750581Y-7632710D01*
X31750581Y-7717564D01*
X31835435Y-7717564D01*
X31936885Y-15438212D02*
X31936885Y-15353358D01*
X31852031Y-15353358D01*
X31852031Y-15438212D01*
X31936885Y-15438212D01*
X32281882Y-11325032D02*
X32281882Y-11240178D01*
X32197029Y-11240178D01*
X32197029Y-11325032D01*
X32281882Y-11325032D01*
X32327511Y-9552043D02*
X32327511Y-9467190D01*
X32242657Y-9467190D01*
X32242657Y-9552043D01*
X32327511Y-9552043D01*
X32777943Y-13168726D02*
X32777943Y-13083872D01*
X32693089Y-13083872D01*
X32693089Y-13168726D01*
X32777943Y-13168726D01*
X32819197Y-11398467D02*
X32819197Y-11313613D01*
X32734344Y-11313613D01*
X32734344Y-11398467D01*
X32819197Y-11398467D01*
X33268003Y-7610944D02*
X33268003Y-7526091D01*
X33183149Y-7526091D01*
X33183149Y-7610944D01*
X33268003Y-7610944D01*
X33271621Y-15009453D02*
X33271621Y-14924600D01*
X33186767Y-14924600D01*
X33186767Y-15009453D01*
X33271621Y-15009453D01*
X33315258Y-13242161D02*
X33315258Y-13157307D01*
X33230404Y-13157307D01*
X33230404Y-13242161D01*
X33315258Y-13242161D01*
X33757466Y-9439088D02*
X33757466Y-9354234D01*
X33672613Y-9354234D01*
X33672613Y-9439088D01*
X33757466Y-9439088D01*
X33805318Y-7684379D02*
X33805318Y-7599526D01*
X33720464Y-7599526D01*
X33720464Y-7684379D01*
X33805318Y-7684379D01*
X33808936Y-15082888D02*
X33808936Y-14998035D01*
X33724082Y-14998035D01*
X33724082Y-15082888D01*
X33808936Y-15082888D01*
X34252625Y-11294378D02*
X34252625Y-11209524D01*
X34167771Y-11209524D01*
X34167771Y-11294378D01*
X34252625Y-11294378D01*
X34294781Y-9512523D02*
X34294781Y-9427669D01*
X34209928Y-9427669D01*
X34209928Y-9512523D01*
X34294781Y-9512523D01*
X34745140Y-13130336D02*
X34745140Y-13045482D01*
X34660287Y-13045482D01*
X34660287Y-13130336D01*
X34745140Y-13130336D01*
X34789939Y-11367813D02*
X34789939Y-11282959D01*
X34705086Y-11282959D01*
X34705086Y-11367813D01*
X34789939Y-11367813D01*
X35141500Y-7265730D02*
X35141500Y-7180876D01*
X35056647Y-7180876D01*
X35056647Y-7265730D01*
X35141500Y-7265730D01*
X35239741Y-14969828D02*
X35239741Y-14884974D01*
X35154887Y-14884974D01*
X35154887Y-14969828D01*
X35239741Y-14969828D01*
X35282455Y-13203771D02*
X35282455Y-13118917D01*
X35197602Y-13118917D01*
X35197602Y-13203771D01*
X35282455Y-13203771D01*
X35632304Y-9092655D02*
X35632304Y-9007802D01*
X35547451Y-9007802D01*
X35547451Y-9092655D01*
X35632304Y-9092655D01*
X35678815Y-7339164D02*
X35678815Y-7254311D01*
X35593962Y-7254311D01*
X35593962Y-7339164D01*
X35678815Y-7339164D01*
X35777056Y-15043262D02*
X35777056Y-14958409D01*
X35692202Y-14958409D01*
X35692202Y-15043262D01*
X35777056Y-15043262D01*
X36127962Y-10945029D02*
X36127962Y-10860175D01*
X36043109Y-10860175D01*
X36043109Y-10945029D01*
X36127962Y-10945029D01*
X36169619Y-9166090D02*
X36169619Y-9081237D01*
X36084766Y-9081237D01*
X36084766Y-9166090D01*
X36169619Y-9166090D01*
X36622641Y-12779780D02*
X36622641Y-12694926D01*
X36537788Y-12694926D01*
X36537788Y-12779780D01*
X36622641Y-12779780D01*
X36665277Y-11018464D02*
X36665277Y-10933610D01*
X36580423Y-10933610D01*
X36580423Y-11018464D01*
X36665277Y-11018464D01*
X36947670Y-6626501D02*
X36947670Y-6541647D01*
X36862816Y-6541647D01*
X36862816Y-6626501D01*
X36947670Y-6626501D01*
X37115943Y-14622791D02*
X37115943Y-14537937D01*
X37031089Y-14537937D01*
X37031089Y-14622791D01*
X37115943Y-14622791D01*
X37159956Y-12853215D02*
X37159956Y-12768361D01*
X37075102Y-12768361D01*
X37075102Y-12853215D01*
X37159956Y-12853215D01*
X37435486Y-8453588D02*
X37435486Y-8368734D01*
X37350632Y-8368734D01*
X37350632Y-8453588D01*
X37435486Y-8453588D01*
X37484985Y-6699936D02*
X37484985Y-6615082D01*
X37400131Y-6615082D01*
X37400131Y-6699936D01*
X37484985Y-6699936D01*
X37653258Y-14696226D02*
X37653258Y-14611372D01*
X37568404Y-14611372D01*
X37568404Y-14696226D01*
X37653258Y-14696226D01*
X37931460Y-10310575D02*
X37931460Y-10225721D01*
X37846607Y-10225721D01*
X37846607Y-10310575D01*
X37931460Y-10310575D01*
X37972801Y-8527023D02*
X37972801Y-8442169D01*
X37887947Y-8442169D01*
X37887947Y-8527023D01*
X37972801Y-8527023D01*
X38424196Y-12141725D02*
X38424196Y-12056871D01*
X38339342Y-12056871D01*
X38339342Y-12141725D01*
X38424196Y-12141725D01*
X38468775Y-10384010D02*
X38468775Y-10299156D01*
X38383922Y-10299156D01*
X38383922Y-10384010D01*
X38468775Y-10384010D01*
X38917754Y-13983161D02*
X38917754Y-13898307D01*
X38832901Y-13898307D01*
X38832901Y-13983161D01*
X38917754Y-13983161D01*
X38961511Y-12215160D02*
X38961511Y-12130306D01*
X38876657Y-12130306D01*
X38876657Y-12215160D01*
X38961511Y-12215160D01*
X39455069Y-14056596D02*
X39455069Y-13971742D01*
X39370216Y-13971742D01*
X39370216Y-14056596D01*
X39455069Y-14056596D01*
X2650014Y-14237123D02*
X2723514Y-14163623D01*
X2650014Y-14090123D01*
X2576514Y-14163623D01*
X2650014Y-14237123D01*
X2814338Y-14130003D02*
X2887838Y-14056503D01*
X2814338Y-13983003D01*
X2740838Y-14056503D01*
X2814338Y-14130003D01*
X3140818Y-12395431D02*
X3214318Y-12321931D01*
X3140818Y-12248431D01*
X3067318Y-12321931D01*
X3140818Y-12395431D01*
X3305142Y-12288311D02*
X3378642Y-12214811D01*
X3305142Y-12141311D01*
X3231642Y-12214811D01*
X3305142Y-12288311D01*
X3310242Y-14211117D02*
X3383742Y-14137617D01*
X3310242Y-14064117D01*
X3236742Y-14137617D01*
X3310242Y-14211117D01*
X3329117Y-14156128D02*
X3402617Y-14082628D01*
X3329117Y-14009128D01*
X3255617Y-14082628D01*
X3329117Y-14156128D01*
X3634621Y-10556526D02*
X3708121Y-10483026D01*
X3634621Y-10409526D01*
X3561121Y-10483026D01*
X3634621Y-10556526D01*
X3798945Y-10449406D02*
X3872445Y-10375906D01*
X3798945Y-10302406D01*
X3725445Y-10375906D01*
X3798945Y-10449406D01*
X3801046Y-12369424D02*
X3874546Y-12295924D01*
X3801046Y-12222424D01*
X3727546Y-12295924D01*
X3801046Y-12369424D01*
X3819921Y-12314436D02*
X3893421Y-12240936D01*
X3819921Y-12167436D01*
X3746421Y-12240936D01*
X3819921Y-12314436D01*
X4127772Y-8701789D02*
X4201272Y-8628289D01*
X4127772Y-8554789D01*
X4054272Y-8628289D01*
X4127772Y-8701789D01*
X4292096Y-8594669D02*
X4365596Y-8521169D01*
X4292096Y-8447669D01*
X4218596Y-8521169D01*
X4292096Y-8594669D01*
X4294849Y-10530519D02*
X4368349Y-10457019D01*
X4294849Y-10383519D01*
X4221349Y-10457019D01*
X4294849Y-10530519D01*
X4313724Y-10475531D02*
X4387224Y-10402031D01*
X4313724Y-10328531D01*
X4240224Y-10402031D01*
X4313724Y-10475531D01*
X4450478Y-14867983D02*
X4523978Y-14794483D01*
X4450478Y-14720983D01*
X4376978Y-14794483D01*
X4450478Y-14867983D01*
X4614625Y-6878891D02*
X4688125Y-6805391D01*
X4614625Y-6731891D01*
X4541125Y-6805391D01*
X4614625Y-6878891D01*
X4614802Y-14760863D02*
X4688302Y-14687363D01*
X4614802Y-14613863D01*
X4541302Y-14687363D01*
X4614802Y-14760863D01*
X4778949Y-6771771D02*
X4852449Y-6698271D01*
X4778949Y-6624771D01*
X4705449Y-6698271D01*
X4778949Y-6771771D01*
X4787999Y-8675783D02*
X4861499Y-8602283D01*
X4787999Y-8528783D01*
X4714499Y-8602283D01*
X4787999Y-8675783D01*
X4806875Y-8620794D02*
X4880375Y-8547294D01*
X4806875Y-8473794D01*
X4733375Y-8547294D01*
X4806875Y-8620794D01*
X4946238Y-13031768D02*
X5019738Y-12958268D01*
X4946238Y-12884768D01*
X4872738Y-12958268D01*
X4946238Y-13031768D01*
X5110562Y-12924649D02*
X5184062Y-12851149D01*
X5110562Y-12777649D01*
X5037062Y-12851149D01*
X5110562Y-12924649D01*
X5110705Y-14841976D02*
X5184205Y-14768476D01*
X5110705Y-14694976D01*
X5037205Y-14768476D01*
X5110705Y-14841976D01*
X5129581Y-14786988D02*
X5203081Y-14713488D01*
X5129581Y-14639988D01*
X5056081Y-14713488D01*
X5129581Y-14786988D01*
X5274853Y-6852884D02*
X5348353Y-6779384D01*
X5274853Y-6705884D01*
X5201353Y-6779384D01*
X5274853Y-6852884D01*
X5293728Y-6797896D02*
X5367228Y-6724396D01*
X5293728Y-6650896D01*
X5220228Y-6724396D01*
X5293728Y-6797896D01*
X5439679Y-11198300D02*
X5513179Y-11124800D01*
X5439679Y-11051300D01*
X5366179Y-11124800D01*
X5439679Y-11198300D01*
X5604003Y-11091180D02*
X5677503Y-11017680D01*
X5604003Y-10944180D01*
X5530503Y-11017680D01*
X5604003Y-11091180D01*
X5606466Y-13005762D02*
X5679966Y-12932262D01*
X5606466Y-12858762D01*
X5532966Y-12932262D01*
X5606466Y-13005762D01*
X5625341Y-12950773D02*
X5698841Y-12877273D01*
X5625341Y-12803773D01*
X5551841Y-12877273D01*
X5625341Y-12950773D01*
X5940748Y-9341062D02*
X6014248Y-9267562D01*
X5940748Y-9194062D01*
X5867248Y-9267562D01*
X5940748Y-9341062D01*
X6099907Y-11172294D02*
X6173407Y-11098794D01*
X6099907Y-11025294D01*
X6026407Y-11098794D01*
X6099907Y-11172294D01*
X6105072Y-9233942D02*
X6178572Y-9160442D01*
X6105072Y-9086942D01*
X6031572Y-9160442D01*
X6105072Y-9233942D01*
X6118782Y-11117305D02*
X6192282Y-11043805D01*
X6118782Y-10970305D01*
X6045282Y-11043805D01*
X6118782Y-11117305D01*
X6329756Y-15221142D02*
X6403256Y-15147642D01*
X6329756Y-15074142D01*
X6256256Y-15147642D01*
X6329756Y-15221142D01*
X6430425Y-7514448D02*
X6503925Y-7440948D01*
X6430425Y-7367448D01*
X6356925Y-7440948D01*
X6430425Y-7514448D01*
X6494080Y-15114022D02*
X6567580Y-15040522D01*
X6494080Y-14967022D01*
X6420580Y-15040522D01*
X6494080Y-15114022D01*
X6594749Y-7407328D02*
X6668249Y-7333828D01*
X6594749Y-7260328D01*
X6521249Y-7333828D01*
X6594749Y-7407328D01*
X6600976Y-9315055D02*
X6674476Y-9241555D01*
X6600976Y-9168055D01*
X6527476Y-9241555D01*
X6600976Y-9315055D01*
X6619851Y-9260067D02*
X6693351Y-9186567D01*
X6619851Y-9113067D01*
X6546351Y-9186567D01*
X6619851Y-9260067D01*
X6823166Y-13378399D02*
X6896666Y-13304899D01*
X6823166Y-13231399D01*
X6749666Y-13304899D01*
X6823166Y-13378399D01*
X6987490Y-13271279D02*
X7060990Y-13197779D01*
X6987490Y-13124279D01*
X6913990Y-13197779D01*
X6987490Y-13271279D01*
X6989984Y-15195135D02*
X7063484Y-15121635D01*
X6989984Y-15048135D01*
X6916484Y-15121635D01*
X6989984Y-15195135D01*
X7008859Y-15140147D02*
X7082359Y-15066647D01*
X7008859Y-14993147D01*
X6935359Y-15066647D01*
X7008859Y-15140147D01*
X7090653Y-7488441D02*
X7164153Y-7414941D01*
X7090653Y-7341441D01*
X7017153Y-7414941D01*
X7090653Y-7488441D01*
X7109528Y-7433453D02*
X7183028Y-7359953D01*
X7109528Y-7286453D01*
X7036028Y-7359953D01*
X7109528Y-7433453D01*
X7314650Y-11544126D02*
X7388150Y-11470626D01*
X7314650Y-11397126D01*
X7241150Y-11470626D01*
X7314650Y-11544126D01*
X7478974Y-11437006D02*
X7552474Y-11363506D01*
X7478974Y-11290006D01*
X7405474Y-11363506D01*
X7478974Y-11437006D01*
X7483393Y-13352392D02*
X7556893Y-13278892D01*
X7483393Y-13205392D01*
X7409893Y-13278892D01*
X7483393Y-13352392D01*
X7502269Y-13297404D02*
X7575769Y-13223904D01*
X7502269Y-13150404D01*
X7428769Y-13223904D01*
X7502269Y-13297404D01*
X7810839Y-9688062D02*
X7884339Y-9614562D01*
X7810839Y-9541062D01*
X7737339Y-9614562D01*
X7810839Y-9688062D01*
X7974878Y-11518119D02*
X8048378Y-11444619D01*
X7974878Y-11371119D01*
X7901378Y-11444619D01*
X7974878Y-11518119D01*
X7975163Y-9580942D02*
X8048663Y-9507442D01*
X7975163Y-9433942D01*
X7901663Y-9507442D01*
X7975163Y-9580942D01*
X7993753Y-11463131D02*
X8067253Y-11389631D01*
X7993753Y-11316131D01*
X7920253Y-11389631D01*
X7993753Y-11463131D01*
X8295777Y-15258521D02*
X8369277Y-15185021D01*
X8295777Y-15111521D01*
X8222277Y-15185021D01*
X8295777Y-15258521D01*
X8300078Y-7865374D02*
X8373578Y-7791874D01*
X8300078Y-7718374D01*
X8226578Y-7791874D01*
X8300078Y-7865374D01*
X8460101Y-15151401D02*
X8533601Y-15077901D01*
X8460101Y-15004401D01*
X8386601Y-15077901D01*
X8460101Y-15151401D01*
X8464402Y-7758254D02*
X8537902Y-7684754D01*
X8464402Y-7611254D01*
X8390902Y-7684754D01*
X8464402Y-7758254D01*
X8471067Y-9662056D02*
X8544567Y-9588556D01*
X8471067Y-9515056D01*
X8397567Y-9588556D01*
X8471067Y-9662056D01*
X8489942Y-9607067D02*
X8563442Y-9533567D01*
X8489942Y-9460067D01*
X8416442Y-9533567D01*
X8489942Y-9607067D01*
X8786939Y-13419702D02*
X8860439Y-13346202D01*
X8786939Y-13272702D01*
X8713439Y-13346202D01*
X8786939Y-13419702D01*
X8951263Y-13312582D02*
X9024763Y-13239082D01*
X8951263Y-13165582D01*
X8877763Y-13239082D01*
X8951263Y-13312582D01*
X8956005Y-15232514D02*
X9029505Y-15159014D01*
X8956005Y-15085514D01*
X8882505Y-15159014D01*
X8956005Y-15232514D01*
X8960305Y-7839367D02*
X9033805Y-7765867D01*
X8960305Y-7692367D01*
X8886805Y-7765867D01*
X8960305Y-7839367D01*
X8974880Y-15177525D02*
X9048380Y-15104025D01*
X8974880Y-15030525D01*
X8901380Y-15104025D01*
X8974880Y-15177525D01*
X8979181Y-7784379D02*
X9052681Y-7710879D01*
X8979181Y-7637379D01*
X8905681Y-7710879D01*
X8979181Y-7784379D01*
X9284481Y-11573090D02*
X9357981Y-11499590D01*
X9284481Y-11426090D01*
X9210981Y-11499590D01*
X9284481Y-11573090D01*
X9447167Y-13393696D02*
X9520667Y-13320196D01*
X9447167Y-13246696D01*
X9373667Y-13320196D01*
X9447167Y-13393696D01*
X9448804Y-11465971D02*
X9522304Y-11392471D01*
X9448804Y-11318971D01*
X9375304Y-11392471D01*
X9448804Y-11465971D01*
X9466042Y-13338707D02*
X9539542Y-13265207D01*
X9466042Y-13191707D01*
X9392542Y-13265207D01*
X9466042Y-13338707D01*
X9779861Y-9729200D02*
X9853361Y-9655700D01*
X9779861Y-9582200D01*
X9706361Y-9655700D01*
X9779861Y-9729200D01*
X9944185Y-9622080D02*
X10017685Y-9548580D01*
X9944185Y-9475080D01*
X9870685Y-9548580D01*
X9944185Y-9622080D01*
X9944708Y-11547084D02*
X10018208Y-11473584D01*
X9944708Y-11400084D01*
X9871208Y-11473584D01*
X9944708Y-11547084D01*
X9963583Y-11492095D02*
X10037083Y-11418595D01*
X9963583Y-11345095D01*
X9890083Y-11418595D01*
X9963583Y-11492095D01*
X10168863Y-15616820D02*
X10242363Y-15543320D01*
X10168863Y-15469820D01*
X10095363Y-15543320D01*
X10168863Y-15616820D01*
X10271194Y-7892295D02*
X10344694Y-7818795D01*
X10271194Y-7745295D01*
X10197694Y-7818795D01*
X10271194Y-7892295D01*
X10333187Y-15509700D02*
X10406687Y-15436200D01*
X10333187Y-15362700D01*
X10259687Y-15436200D01*
X10333187Y-15509700D01*
X10435518Y-7785175D02*
X10509018Y-7711675D01*
X10435518Y-7638175D01*
X10362018Y-7711675D01*
X10435518Y-7785175D01*
X10440088Y-9703193D02*
X10513588Y-9629693D01*
X10440088Y-9556193D01*
X10366588Y-9629693D01*
X10440088Y-9703193D01*
X10458964Y-9648205D02*
X10532464Y-9574705D01*
X10458964Y-9501205D01*
X10385464Y-9574705D01*
X10458964Y-9648205D01*
X10661993Y-13777470D02*
X10735493Y-13703970D01*
X10661993Y-13630470D01*
X10588493Y-13703970D01*
X10661993Y-13777470D01*
X10826317Y-13670350D02*
X10899817Y-13596850D01*
X10826317Y-13523350D01*
X10752817Y-13596850D01*
X10826317Y-13670350D01*
X10829091Y-15590814D02*
X10902591Y-15517314D01*
X10829091Y-15443814D01*
X10755591Y-15517314D01*
X10829091Y-15590814D01*
X10847966Y-15535825D02*
X10921466Y-15462325D01*
X10847966Y-15388825D01*
X10774466Y-15462325D01*
X10847966Y-15535825D01*
X10931422Y-7866288D02*
X11004922Y-7792788D01*
X10931422Y-7719288D01*
X10857922Y-7792788D01*
X10931422Y-7866288D01*
X10950297Y-7811300D02*
X11023797Y-7737800D01*
X10950297Y-7664300D01*
X10876797Y-7737800D01*
X10950297Y-7811300D01*
X11152523Y-11936534D02*
X11226022Y-11863034D01*
X11152523Y-11789534D01*
X11079023Y-11863034D01*
X11152523Y-11936534D01*
X11316846Y-11829414D02*
X11390346Y-11755914D01*
X11316846Y-11682414D01*
X11243346Y-11755914D01*
X11316846Y-11829414D01*
X11322220Y-13751464D02*
X11395720Y-13677964D01*
X11322220Y-13604464D01*
X11248720Y-13677964D01*
X11322220Y-13751464D01*
X11341096Y-13696475D02*
X11414596Y-13622975D01*
X11341096Y-13549475D01*
X11267596Y-13622975D01*
X11341096Y-13696475D01*
X11650278Y-10094586D02*
X11723778Y-10021086D01*
X11650278Y-9947586D01*
X11576778Y-10021086D01*
X11650278Y-10094586D01*
X11812750Y-11910528D02*
X11886250Y-11837028D01*
X11812750Y-11763528D01*
X11739250Y-11837028D01*
X11812750Y-11910528D01*
X11814601Y-9987466D02*
X11888101Y-9913966D01*
X11814601Y-9840466D01*
X11741101Y-9913966D01*
X11814601Y-9987466D01*
X11831625Y-11855539D02*
X11905125Y-11782039D01*
X11831625Y-11708539D01*
X11758125Y-11782039D01*
X11831625Y-11855539D01*
X11978156Y-16243143D02*
X12051656Y-16169643D01*
X11978156Y-16096143D01*
X11904656Y-16169643D01*
X11978156Y-16243143D01*
X12142480Y-16136023D02*
X12215980Y-16062523D01*
X12142480Y-15989023D01*
X12068980Y-16062523D01*
X12142480Y-16136023D01*
X12148448Y-8252865D02*
X12221948Y-8179365D01*
X12148448Y-8105865D01*
X12074948Y-8179365D01*
X12148448Y-8252865D01*
X12310505Y-10068579D02*
X12384005Y-9995079D01*
X12310505Y-9921579D01*
X12237005Y-9995079D01*
X12310505Y-10068579D01*
X12312772Y-8145745D02*
X12386272Y-8072245D01*
X12312772Y-7998745D01*
X12239272Y-8072245D01*
X12312772Y-8145745D01*
X12329380Y-10013591D02*
X12402880Y-9940091D01*
X12329380Y-9866591D01*
X12255880Y-9940091D01*
X12329380Y-10013591D01*
X12472100Y-14406194D02*
X12545600Y-14332694D01*
X12472100Y-14259194D01*
X12398600Y-14332694D01*
X12472100Y-14406194D01*
X12636424Y-14299074D02*
X12709924Y-14225574D01*
X12636424Y-14152074D01*
X12562924Y-14225574D01*
X12636424Y-14299074D01*
X12638384Y-16217136D02*
X12711884Y-16143636D01*
X12638384Y-16070136D01*
X12564884Y-16143636D01*
X12638384Y-16217136D01*
X12657259Y-16162148D02*
X12730759Y-16088648D01*
X12657259Y-16015148D01*
X12583759Y-16088648D01*
X12657259Y-16162148D01*
X12808676Y-8226858D02*
X12882176Y-8153358D01*
X12808676Y-8079858D01*
X12735176Y-8153358D01*
X12808676Y-8226858D01*
X12827551Y-8171870D02*
X12901051Y-8098370D01*
X12827551Y-8024870D01*
X12754051Y-8098370D01*
X12827551Y-8171870D01*
X12967586Y-12559604D02*
X13041086Y-12486104D01*
X12967586Y-12412604D01*
X12894086Y-12486104D01*
X12967586Y-12559604D01*
X13131910Y-12452484D02*
X13205410Y-12378984D01*
X13131910Y-12305484D01*
X13058410Y-12378984D01*
X13131910Y-12452484D01*
X13132327Y-14380187D02*
X13205827Y-14306687D01*
X13132327Y-14233187D01*
X13058827Y-14306687D01*
X13132327Y-14380187D01*
X13151203Y-14325199D02*
X13224703Y-14251699D01*
X13151203Y-14178199D01*
X13077703Y-14251699D01*
X13151203Y-14325199D01*
X13457893Y-10717835D02*
X13531393Y-10644335D01*
X13457893Y-10570835D01*
X13384393Y-10644335D01*
X13457893Y-10717835D01*
X13622217Y-10610716D02*
X13695717Y-10537216D01*
X13622217Y-10463716D01*
X13548717Y-10537216D01*
X13622217Y-10610716D01*
X13627814Y-12533597D02*
X13701314Y-12460097D01*
X13627814Y-12386597D01*
X13554314Y-12460097D01*
X13627814Y-12533597D01*
X13646689Y-12478609D02*
X13720189Y-12405109D01*
X13646689Y-12331609D01*
X13573189Y-12405109D01*
X13646689Y-12478609D01*
X13950902Y-8878207D02*
X14024402Y-8804707D01*
X13950902Y-8731207D01*
X13877402Y-8804707D01*
X13950902Y-8878207D01*
X14115226Y-8771087D02*
X14188726Y-8697587D01*
X14115226Y-8624087D01*
X14041726Y-8697587D01*
X14115226Y-8771087D01*
X14118120Y-10691829D02*
X14191620Y-10618329D01*
X14118120Y-10544829D01*
X14044620Y-10618329D01*
X14118120Y-10691829D01*
X14136996Y-10636840D02*
X14210496Y-10563340D01*
X14136996Y-10489840D01*
X14063496Y-10563340D01*
X14136996Y-10636840D01*
X14246308Y-15119380D02*
X14319808Y-15045880D01*
X14246308Y-14972380D01*
X14172808Y-15045880D01*
X14246308Y-15119380D01*
X14410632Y-15012260D02*
X14484132Y-14938760D01*
X14410632Y-14865260D01*
X14337132Y-14938760D01*
X14410632Y-15012260D01*
X14611130Y-8852200D02*
X14684630Y-8778700D01*
X14611130Y-8705200D01*
X14537630Y-8778700D01*
X14611130Y-8852200D01*
X14630005Y-8797212D02*
X14703505Y-8723712D01*
X14630005Y-8650212D01*
X14556505Y-8723712D01*
X14630005Y-8797212D01*
X14739020Y-13282648D02*
X14812520Y-13209148D01*
X14739020Y-13135648D01*
X14665520Y-13209148D01*
X14739020Y-13282648D01*
X14768413Y-17424943D02*
X14841913Y-17351443D01*
X14768413Y-17277943D01*
X14694913Y-17351443D01*
X14768413Y-17424943D01*
X14903344Y-13175528D02*
X14976844Y-13102028D01*
X14903344Y-13028528D01*
X14829844Y-13102028D01*
X14903344Y-13175528D01*
X14906536Y-15093373D02*
X14980036Y-15019873D01*
X14906536Y-14946373D01*
X14833036Y-15019873D01*
X14906536Y-15093373D01*
X14917349Y-17297291D02*
X14990849Y-17223791D01*
X14917349Y-17150291D01*
X14843849Y-17223791D01*
X14917349Y-17297291D01*
X14925411Y-15038385D02*
X14998911Y-14964885D01*
X14925411Y-14891385D01*
X14851911Y-14964885D01*
X14925411Y-15038385D01*
X15227218Y-11447623D02*
X15300718Y-11374123D01*
X15227218Y-11300623D01*
X15153718Y-11374123D01*
X15227218Y-11447623D01*
X15391542Y-11340503D02*
X15465042Y-11267003D01*
X15391542Y-11193503D01*
X15318042Y-11267003D01*
X15391542Y-11340503D01*
X15399248Y-13256641D02*
X15472748Y-13183141D01*
X15399248Y-13109641D01*
X15325748Y-13183141D01*
X15399248Y-13256641D01*
X15418123Y-13201653D02*
X15491623Y-13128153D01*
X15418123Y-13054653D01*
X15344623Y-13128153D01*
X15418123Y-13201653D01*
X15419598Y-17312981D02*
X15493098Y-17239481D01*
X15419598Y-17165981D01*
X15346098Y-17239481D01*
X15419598Y-17312981D01*
X15431134Y-17256000D02*
X15504634Y-17182500D01*
X15431134Y-17109000D01*
X15357634Y-17182500D01*
X15431134Y-17256000D01*
X15724933Y-9603089D02*
X15798433Y-9529589D01*
X15724933Y-9456089D01*
X15651433Y-9529589D01*
X15724933Y-9603089D01*
X15887445Y-11421616D02*
X15960945Y-11348116D01*
X15887445Y-11274616D01*
X15813945Y-11348116D01*
X15887445Y-11421616D01*
X15889257Y-9495969D02*
X15962757Y-9422469D01*
X15889257Y-9348969D01*
X15815757Y-9422469D01*
X15889257Y-9495969D01*
X15906321Y-11366628D02*
X15979821Y-11293128D01*
X15906321Y-11219628D01*
X15832821Y-11293128D01*
X15906321Y-11366628D01*
X16385161Y-9577082D02*
X16458661Y-9503582D01*
X16385161Y-9430082D01*
X16311661Y-9503582D01*
X16385161Y-9577082D01*
X16404036Y-9522094D02*
X16477536Y-9448594D01*
X16404036Y-9375094D01*
X16330536Y-9448594D01*
X16404036Y-9522094D01*
X17766998Y-13789289D02*
X17840498Y-13715789D01*
X17766998Y-13642289D01*
X17693498Y-13715789D01*
X17766998Y-13789289D01*
X17767003Y-9986386D02*
X17840503Y-9912886D01*
X17767003Y-9839386D01*
X17693503Y-9912886D01*
X17767003Y-9986386D01*
X17767246Y-11888206D02*
X17840746Y-11814706D01*
X17767246Y-11741206D01*
X17693746Y-11814706D01*
X17767246Y-11888206D01*
X17768021Y-15691496D02*
X17841521Y-15617996D01*
X17768021Y-15544496D01*
X17694521Y-15617996D01*
X17768021Y-15691496D01*
X17769421Y-17591734D02*
X17842921Y-17518234D01*
X17769421Y-17444734D01*
X17695921Y-17518234D01*
X17769421Y-17591734D01*
X17897998Y-13643289D02*
X17971498Y-13569789D01*
X17897998Y-13496289D01*
X17824498Y-13569789D01*
X17897998Y-13643289D01*
X17898003Y-9840386D02*
X17971503Y-9766886D01*
X17898003Y-9693386D01*
X17824503Y-9766886D01*
X17898003Y-9840386D01*
X17898246Y-11742206D02*
X17971746Y-11668706D01*
X17898246Y-11595206D01*
X17824746Y-11668706D01*
X17898246Y-11742206D01*
X17899021Y-15545496D02*
X17972521Y-15471996D01*
X17899021Y-15398496D01*
X17825521Y-15471996D01*
X17899021Y-15545496D01*
X17900421Y-17445734D02*
X17973921Y-17372234D01*
X17900421Y-17298734D01*
X17826921Y-17372234D01*
X17900421Y-17445734D01*
X18397998Y-13593289D02*
X18471498Y-13519789D01*
X18397998Y-13446289D01*
X18324498Y-13519789D01*
X18397998Y-13593289D01*
X18398003Y-9790386D02*
X18471503Y-9716886D01*
X18398003Y-9643386D01*
X18324503Y-9716886D01*
X18398003Y-9790386D01*
X18398246Y-11692206D02*
X18471746Y-11618706D01*
X18398246Y-11545206D01*
X18324746Y-11618706D01*
X18398246Y-11692206D01*
X18399021Y-15495496D02*
X18472521Y-15421996D01*
X18399021Y-15348496D01*
X18325521Y-15421996D01*
X18399021Y-15495496D01*
X18400421Y-17395734D02*
X18473921Y-17322234D01*
X18400421Y-17248734D01*
X18326921Y-17322234D01*
X18400421Y-17395734D01*
X18401998Y-13535289D02*
X18475498Y-13461789D01*
X18401998Y-13388289D01*
X18328498Y-13461789D01*
X18401998Y-13535289D01*
X18402003Y-9732386D02*
X18475503Y-9658886D01*
X18402003Y-9585386D01*
X18328503Y-9658886D01*
X18402003Y-9732386D01*
X18402246Y-11634206D02*
X18475746Y-11560706D01*
X18402246Y-11487206D01*
X18328746Y-11560706D01*
X18402246Y-11634206D01*
X18403021Y-15437496D02*
X18476521Y-15363996D01*
X18403021Y-15290496D01*
X18329521Y-15363996D01*
X18403021Y-15437496D01*
X18404421Y-17337734D02*
X18477921Y-17264234D01*
X18404421Y-17190734D01*
X18330921Y-17264234D01*
X18404421Y-17337734D01*
X19665394Y-9986462D02*
X19738894Y-9912962D01*
X19665394Y-9839462D01*
X19591894Y-9912962D01*
X19665394Y-9986462D01*
X19665923Y-11888316D02*
X19739423Y-11814816D01*
X19665923Y-11741316D01*
X19592423Y-11814816D01*
X19665923Y-11888316D01*
X19667121Y-13788414D02*
X19740621Y-13714914D01*
X19667121Y-13641414D01*
X19593621Y-13714914D01*
X19667121Y-13788414D01*
X19667135Y-15691528D02*
X19740635Y-15618028D01*
X19667135Y-15544528D01*
X19593635Y-15618028D01*
X19667135Y-15691528D01*
X19668371Y-17590790D02*
X19741871Y-17517290D01*
X19668371Y-17443790D01*
X19594871Y-17517290D01*
X19668371Y-17590790D01*
X19796394Y-9840462D02*
X19869894Y-9766962D01*
X19796394Y-9693462D01*
X19722894Y-9766962D01*
X19796394Y-9840462D01*
X19796923Y-11742316D02*
X19870423Y-11668816D01*
X19796923Y-11595316D01*
X19723423Y-11668816D01*
X19796923Y-11742316D01*
X19798121Y-13642414D02*
X19871621Y-13568914D01*
X19798121Y-13495414D01*
X19724621Y-13568914D01*
X19798121Y-13642414D01*
X19798135Y-15545528D02*
X19871635Y-15472028D01*
X19798135Y-15398528D01*
X19724635Y-15472028D01*
X19798135Y-15545528D01*
X19799371Y-17444790D02*
X19872871Y-17371290D01*
X19799371Y-17297790D01*
X19725871Y-17371290D01*
X19799371Y-17444790D01*
X20296394Y-9790462D02*
X20369894Y-9716962D01*
X20296394Y-9643462D01*
X20222894Y-9716962D01*
X20296394Y-9790462D01*
X20296923Y-11692316D02*
X20370423Y-11618816D01*
X20296923Y-11545316D01*
X20223423Y-11618816D01*
X20296923Y-11692316D01*
X20298121Y-13592414D02*
X20371621Y-13518914D01*
X20298121Y-13445414D01*
X20224621Y-13518914D01*
X20298121Y-13592414D01*
X20298135Y-15495528D02*
X20371635Y-15422028D01*
X20298135Y-15348528D01*
X20224635Y-15422028D01*
X20298135Y-15495528D01*
X20299371Y-17394790D02*
X20372871Y-17321290D01*
X20299371Y-17247790D01*
X20225871Y-17321290D01*
X20299371Y-17394790D01*
X20300394Y-9732462D02*
X20373894Y-9658962D01*
X20300394Y-9585462D01*
X20226894Y-9658962D01*
X20300394Y-9732462D01*
X20300923Y-11634316D02*
X20374423Y-11560816D01*
X20300923Y-11487316D01*
X20227423Y-11560816D01*
X20300923Y-11634316D01*
X20302121Y-13534414D02*
X20375621Y-13460914D01*
X20302121Y-13387414D01*
X20228621Y-13460914D01*
X20302121Y-13534414D01*
X20302135Y-15437528D02*
X20375635Y-15364028D01*
X20302135Y-15290528D01*
X20228635Y-15364028D01*
X20302135Y-15437528D01*
X20303371Y-17336790D02*
X20376871Y-17263290D01*
X20303371Y-17189790D01*
X20229871Y-17263290D01*
X20303371Y-17336790D01*
X21564760Y-13787280D02*
X21638260Y-13713780D01*
X21564760Y-13640280D01*
X21491260Y-13713780D01*
X21564760Y-13787280D01*
X21564924Y-11888314D02*
X21638424Y-11814814D01*
X21564924Y-11741314D01*
X21491424Y-11814814D01*
X21564924Y-11888314D01*
X21565810Y-9986485D02*
X21639310Y-9912985D01*
X21565810Y-9839485D01*
X21492310Y-9912985D01*
X21565810Y-9986485D01*
X21566469Y-15689884D02*
X21639969Y-15616384D01*
X21566469Y-15542884D01*
X21492969Y-15616384D01*
X21566469Y-15689884D01*
X21568960Y-17588849D02*
X21642460Y-17515349D01*
X21568960Y-17441849D01*
X21495460Y-17515349D01*
X21568960Y-17588849D01*
X21695760Y-13641280D02*
X21769260Y-13567780D01*
X21695760Y-13494280D01*
X21622260Y-13567780D01*
X21695760Y-13641280D01*
X21695924Y-11742314D02*
X21769424Y-11668814D01*
X21695924Y-11595314D01*
X21622424Y-11668814D01*
X21695924Y-11742314D01*
X21696810Y-9840485D02*
X21770310Y-9766985D01*
X21696810Y-9693485D01*
X21623310Y-9766985D01*
X21696810Y-9840485D01*
X21697469Y-15543884D02*
X21770969Y-15470384D01*
X21697469Y-15396884D01*
X21623969Y-15470384D01*
X21697469Y-15543884D01*
X21699960Y-17442849D02*
X21773460Y-17369349D01*
X21699960Y-17295849D01*
X21626460Y-17369349D01*
X21699960Y-17442849D01*
X22195760Y-13591280D02*
X22269260Y-13517780D01*
X22195760Y-13444280D01*
X22122260Y-13517780D01*
X22195760Y-13591280D01*
X22195924Y-11692314D02*
X22269424Y-11618814D01*
X22195924Y-11545314D01*
X22122424Y-11618814D01*
X22195924Y-11692314D01*
X22196810Y-9790485D02*
X22270310Y-9716985D01*
X22196810Y-9643485D01*
X22123310Y-9716985D01*
X22196810Y-9790485D01*
X22197469Y-15493884D02*
X22270969Y-15420384D01*
X22197469Y-15346884D01*
X22123969Y-15420384D01*
X22197469Y-15493884D01*
X22199760Y-13533280D02*
X22273260Y-13459780D01*
X22199760Y-13386280D01*
X22126260Y-13459780D01*
X22199760Y-13533280D01*
X22199924Y-11634314D02*
X22273424Y-11560814D01*
X22199924Y-11487314D01*
X22126424Y-11560814D01*
X22199924Y-11634314D01*
X22199960Y-17392849D02*
X22273460Y-17319349D01*
X22199960Y-17245849D01*
X22126460Y-17319349D01*
X22199960Y-17392849D01*
X22200810Y-9732485D02*
X22274310Y-9658985D01*
X22200810Y-9585485D01*
X22127310Y-9658985D01*
X22200810Y-9732485D01*
X22201469Y-15435884D02*
X22274969Y-15362384D01*
X22201469Y-15288884D01*
X22127969Y-15362384D01*
X22201469Y-15435884D01*
X22203960Y-17334849D02*
X22277460Y-17261349D01*
X22203960Y-17187849D01*
X22130460Y-17261349D01*
X22203960Y-17334849D01*
X23463030Y-11888334D02*
X23536530Y-11814834D01*
X23463030Y-11741334D01*
X23389530Y-11814834D01*
X23463030Y-11888334D01*
X23464470Y-13787983D02*
X23537970Y-13714483D01*
X23464470Y-13640983D01*
X23390970Y-13714483D01*
X23464470Y-13787983D01*
X23464695Y-9986470D02*
X23538195Y-9912970D01*
X23464695Y-9839470D01*
X23391195Y-9912970D01*
X23464695Y-9986470D01*
X23465275Y-17587774D02*
X23538775Y-17514274D01*
X23465275Y-17440774D01*
X23391775Y-17514274D01*
X23465275Y-17587774D01*
X23465664Y-15689612D02*
X23539164Y-15616112D01*
X23465664Y-15542612D01*
X23392164Y-15616112D01*
X23465664Y-15689612D01*
X23594030Y-11742334D02*
X23667530Y-11668834D01*
X23594030Y-11595334D01*
X23520530Y-11668834D01*
X23594030Y-11742334D01*
X23595470Y-13641983D02*
X23668970Y-13568483D01*
X23595470Y-13494983D01*
X23521970Y-13568483D01*
X23595470Y-13641983D01*
X23595695Y-9840470D02*
X23669195Y-9766970D01*
X23595695Y-9693470D01*
X23522195Y-9766970D01*
X23595695Y-9840470D01*
X23596275Y-17441774D02*
X23669775Y-17368274D01*
X23596275Y-17294774D01*
X23522775Y-17368274D01*
X23596275Y-17441774D01*
X23596664Y-15543612D02*
X23670164Y-15470112D01*
X23596664Y-15396612D01*
X23523164Y-15470112D01*
X23596664Y-15543612D01*
X24094030Y-11692334D02*
X24167530Y-11618834D01*
X24094030Y-11545334D01*
X24020530Y-11618834D01*
X24094030Y-11692334D01*
X24095470Y-13591983D02*
X24168970Y-13518483D01*
X24095470Y-13444983D01*
X24021970Y-13518483D01*
X24095470Y-13591983D01*
X24095695Y-9790470D02*
X24169195Y-9716970D01*
X24095695Y-9643470D01*
X24022195Y-9716970D01*
X24095695Y-9790470D01*
X24096275Y-17391774D02*
X24169775Y-17318274D01*
X24096275Y-17244774D01*
X24022775Y-17318274D01*
X24096275Y-17391774D01*
X24096664Y-15493612D02*
X24170164Y-15420112D01*
X24096664Y-15346612D01*
X24023164Y-15420112D01*
X24096664Y-15493612D01*
X24098030Y-11634334D02*
X24171530Y-11560834D01*
X24098030Y-11487334D01*
X24024530Y-11560834D01*
X24098030Y-11634334D01*
X24099470Y-13533983D02*
X24172970Y-13460483D01*
X24099470Y-13386983D01*
X24025970Y-13460483D01*
X24099470Y-13533983D01*
X24099695Y-9732470D02*
X24173195Y-9658970D01*
X24099695Y-9585470D01*
X24026195Y-9658970D01*
X24099695Y-9732470D01*
X24100275Y-17333774D02*
X24173775Y-17260274D01*
X24100275Y-17186774D01*
X24026775Y-17260274D01*
X24100275Y-17333774D01*
X24100664Y-15435612D02*
X24174164Y-15362112D01*
X24100664Y-15288612D01*
X24027164Y-15362112D01*
X24100664Y-15435612D01*
X25520534Y-9804626D02*
X25594034Y-9731126D01*
X25520534Y-9657626D01*
X25447034Y-9731126D01*
X25520534Y-9804626D01*
X25609283Y-9629696D02*
X25682783Y-9556196D01*
X25609283Y-9482696D01*
X25535783Y-9556196D01*
X25609283Y-9629696D01*
X26011472Y-11651718D02*
X26084972Y-11578218D01*
X26011472Y-11504718D01*
X25937972Y-11578218D01*
X26011472Y-11651718D01*
X26068157Y-9394931D02*
X26141657Y-9321431D01*
X26068157Y-9247931D01*
X25994657Y-9321431D01*
X26068157Y-9394931D01*
X26079305Y-9451990D02*
X26152805Y-9378490D01*
X26079305Y-9304990D01*
X26005805Y-9378490D01*
X26079305Y-9451990D01*
X26100220Y-11476788D02*
X26173720Y-11403288D01*
X26100220Y-11329788D01*
X26026720Y-11403288D01*
X26100220Y-11476788D01*
X26449606Y-17524404D02*
X26523106Y-17450904D01*
X26449606Y-17377404D01*
X26376106Y-17450904D01*
X26449606Y-17524404D01*
X26504263Y-13488507D02*
X26577763Y-13415007D01*
X26504263Y-13341507D01*
X26430763Y-13415007D01*
X26504263Y-13488507D01*
X26559095Y-11242023D02*
X26632595Y-11168523D01*
X26559095Y-11095023D01*
X26485595Y-11168523D01*
X26559095Y-11242023D01*
X26560428Y-17362554D02*
X26633928Y-17289054D01*
X26560428Y-17215554D01*
X26486928Y-17289054D01*
X26560428Y-17362554D01*
X26570242Y-11299082D02*
X26643742Y-11225582D01*
X26570242Y-11152082D01*
X26496742Y-11225582D01*
X26570242Y-11299082D01*
X26593012Y-13313577D02*
X26666512Y-13240077D01*
X26593012Y-13166577D01*
X26519512Y-13240077D01*
X26593012Y-13313577D01*
X26997887Y-15324094D02*
X27071387Y-15250594D01*
X26997887Y-15177094D01*
X26924387Y-15250594D01*
X26997887Y-15324094D01*
X27046020Y-17189692D02*
X27119520Y-17116192D01*
X27046020Y-17042692D01*
X26972520Y-17116192D01*
X27046020Y-17189692D01*
X27049624Y-17247718D02*
X27123124Y-17174218D01*
X27049624Y-17100718D01*
X26976124Y-17174218D01*
X27049624Y-17247718D01*
X27051886Y-13078812D02*
X27125386Y-13005312D01*
X27051886Y-12931812D01*
X26978386Y-13005312D01*
X27051886Y-13078812D01*
X27063034Y-13135871D02*
X27136534Y-13062371D01*
X27063034Y-12988871D01*
X26989534Y-13062371D01*
X27063034Y-13135871D01*
X27086635Y-15149163D02*
X27160135Y-15075663D01*
X27086635Y-15002163D01*
X27013135Y-15075663D01*
X27086635Y-15149163D01*
X27292544Y-9081866D02*
X27366044Y-9008366D01*
X27292544Y-8934866D01*
X27219044Y-9008366D01*
X27292544Y-9081866D01*
X27381292Y-8906936D02*
X27454792Y-8833436D01*
X27381292Y-8759936D01*
X27307792Y-8833436D01*
X27381292Y-8906936D01*
X27545510Y-14914398D02*
X27619010Y-14840898D01*
X27545510Y-14767398D01*
X27472010Y-14840898D01*
X27545510Y-14914398D01*
X27556657Y-14971457D02*
X27630157Y-14897957D01*
X27556657Y-14824457D01*
X27483157Y-14897957D01*
X27556657Y-14971457D01*
X27786683Y-10930189D02*
X27860183Y-10856689D01*
X27786683Y-10783189D01*
X27713183Y-10856689D01*
X27786683Y-10930189D01*
X27840167Y-8672171D02*
X27913667Y-8598671D01*
X27840167Y-8525171D01*
X27766667Y-8598671D01*
X27840167Y-8672171D01*
X27851314Y-8729230D02*
X27924814Y-8655730D01*
X27851314Y-8582230D01*
X27777814Y-8655730D01*
X27851314Y-8729230D01*
X27875432Y-10755258D02*
X27948932Y-10681758D01*
X27875432Y-10608258D01*
X27801932Y-10681758D01*
X27875432Y-10755258D01*
X28279688Y-12767150D02*
X28353188Y-12693650D01*
X28279688Y-12620150D01*
X28206188Y-12693650D01*
X28279688Y-12767150D01*
X28334306Y-10520493D02*
X28407806Y-10446993D01*
X28334306Y-10373493D01*
X28260806Y-10446993D01*
X28334306Y-10520493D01*
X28345454Y-10577552D02*
X28418954Y-10504052D01*
X28345454Y-10430552D01*
X28271954Y-10504052D01*
X28345454Y-10577552D01*
X28368436Y-12592220D02*
X28441936Y-12518720D01*
X28368436Y-12445220D01*
X28294936Y-12518720D01*
X28368436Y-12592220D01*
X28772440Y-14608541D02*
X28845940Y-14535041D01*
X28772440Y-14461541D01*
X28698940Y-14535041D01*
X28772440Y-14608541D01*
X28827311Y-12357455D02*
X28900811Y-12283955D01*
X28827311Y-12210455D01*
X28753811Y-12283955D01*
X28827311Y-12357455D01*
X28838458Y-12414514D02*
X28911958Y-12341014D01*
X28838458Y-12267514D01*
X28764958Y-12341014D01*
X28838458Y-12414514D01*
X28861188Y-14433611D02*
X28934688Y-14360111D01*
X28861188Y-14286611D01*
X28787688Y-14360111D01*
X28861188Y-14433611D01*
X29096144Y-8456605D02*
X29169644Y-8383105D01*
X29096144Y-8309605D01*
X29022644Y-8383105D01*
X29096144Y-8456605D01*
X29184893Y-8281674D02*
X29258393Y-8208174D01*
X29184893Y-8134674D01*
X29111393Y-8208174D01*
X29184893Y-8281674D01*
X29264344Y-16448222D02*
X29337844Y-16374722D01*
X29264344Y-16301222D01*
X29190844Y-16374722D01*
X29264344Y-16448222D01*
X29320062Y-14198846D02*
X29393562Y-14125346D01*
X29320062Y-14051846D01*
X29246562Y-14125346D01*
X29320062Y-14198846D01*
X29331210Y-14255905D02*
X29404710Y-14182405D01*
X29331210Y-14108905D01*
X29257710Y-14182405D01*
X29331210Y-14255905D01*
X29353093Y-16273292D02*
X29426593Y-16199792D01*
X29353093Y-16126292D01*
X29279593Y-16199792D01*
X29353093Y-16273292D01*
X29597434Y-10300386D02*
X29670934Y-10226886D01*
X29597434Y-10153386D01*
X29523934Y-10226886D01*
X29597434Y-10300386D01*
X29643767Y-8046909D02*
X29717267Y-7973409D01*
X29643767Y-7899909D01*
X29570267Y-7973409D01*
X29643767Y-8046909D01*
X29654915Y-8103968D02*
X29728415Y-8030468D01*
X29654915Y-7956968D01*
X29581415Y-8030468D01*
X29654915Y-8103968D01*
X29686182Y-10125456D02*
X29759682Y-10051956D01*
X29686182Y-9978456D01*
X29612682Y-10051956D01*
X29686182Y-10125456D01*
X29811967Y-16038527D02*
X29885467Y-15965027D01*
X29811967Y-15891527D01*
X29738467Y-15965027D01*
X29811967Y-16038527D01*
X29823115Y-16095586D02*
X29896615Y-16022086D01*
X29823115Y-15948586D01*
X29749615Y-16022086D01*
X29823115Y-16095586D01*
X30091730Y-12148176D02*
X30165230Y-12074676D01*
X30091730Y-12001176D01*
X30018230Y-12074676D01*
X30091730Y-12148176D01*
X30145057Y-9890691D02*
X30218557Y-9817191D01*
X30145057Y-9743691D01*
X30071557Y-9817191D01*
X30145057Y-9890691D01*
X30156204Y-9947750D02*
X30229704Y-9874250D01*
X30156204Y-9800750D01*
X30082704Y-9874250D01*
X30156204Y-9947750D01*
X30180479Y-11973245D02*
X30253979Y-11899745D01*
X30180479Y-11826245D01*
X30106979Y-11899745D01*
X30180479Y-11973245D01*
X30584662Y-13981499D02*
X30658162Y-13907999D01*
X30584662Y-13834499D01*
X30511162Y-13907999D01*
X30584662Y-13981499D01*
X30639353Y-11738481D02*
X30712853Y-11664981D01*
X30639353Y-11591481D01*
X30565853Y-11664981D01*
X30639353Y-11738481D01*
X30650501Y-11795540D02*
X30724001Y-11722040D01*
X30650501Y-11648540D01*
X30577001Y-11722040D01*
X30650501Y-11795540D01*
X30673411Y-13806568D02*
X30746911Y-13733068D01*
X30673411Y-13659568D01*
X30599911Y-13733068D01*
X30673411Y-13806568D01*
X30974639Y-8098363D02*
X31048139Y-8024863D01*
X30974639Y-7951363D01*
X30901139Y-8024863D01*
X30974639Y-8098363D01*
X31063387Y-7923433D02*
X31136887Y-7849933D01*
X31063387Y-7776433D01*
X30989887Y-7849933D01*
X31063387Y-7923433D01*
X31076089Y-15819011D02*
X31149589Y-15745511D01*
X31076089Y-15672011D01*
X31002589Y-15745511D01*
X31076089Y-15819011D01*
X31132285Y-13571803D02*
X31205785Y-13498303D01*
X31132285Y-13424803D01*
X31058785Y-13498303D01*
X31132285Y-13571803D01*
X31143433Y-13628862D02*
X31216933Y-13555362D01*
X31143433Y-13481862D01*
X31069933Y-13555362D01*
X31143433Y-13628862D01*
X31164837Y-15644080D02*
X31238337Y-15570580D01*
X31164837Y-15497080D01*
X31091337Y-15570580D01*
X31164837Y-15644080D01*
X31466714Y-9932843D02*
X31540214Y-9859343D01*
X31466714Y-9785843D01*
X31393214Y-9859343D01*
X31466714Y-9932843D01*
X31522261Y-7688668D02*
X31595761Y-7615168D01*
X31522261Y-7541668D01*
X31448761Y-7615168D01*
X31522261Y-7688668D01*
X31533409Y-7745727D02*
X31606909Y-7672227D01*
X31533409Y-7598727D01*
X31459909Y-7672227D01*
X31533409Y-7745727D01*
X31555463Y-9757912D02*
X31628963Y-9684412D01*
X31555463Y-9610912D01*
X31481963Y-9684412D01*
X31555463Y-9757912D01*
X31623712Y-15409316D02*
X31697212Y-15335816D01*
X31623712Y-15262316D01*
X31550212Y-15335816D01*
X31623712Y-15409316D01*
X31634859Y-15466375D02*
X31708359Y-15392875D01*
X31634859Y-15319375D01*
X31561359Y-15392875D01*
X31634859Y-15466375D01*
X31958401Y-11779266D02*
X32031901Y-11705766D01*
X31958401Y-11632266D01*
X31884901Y-11705766D01*
X31958401Y-11779266D01*
X32014337Y-9523147D02*
X32087837Y-9449647D01*
X32014337Y-9376147D01*
X31940837Y-9449647D01*
X32014337Y-9523147D01*
X32025485Y-9580206D02*
X32098985Y-9506706D01*
X32025485Y-9433206D01*
X31951985Y-9506706D01*
X32025485Y-9580206D01*
X32047150Y-11604336D02*
X32120650Y-11530836D01*
X32047150Y-11457336D01*
X31973650Y-11530836D01*
X32047150Y-11604336D01*
X32454462Y-13622960D02*
X32527962Y-13549460D01*
X32454462Y-13475960D01*
X32380962Y-13549460D01*
X32454462Y-13622960D01*
X32506024Y-11369571D02*
X32579524Y-11296071D01*
X32506024Y-11222571D01*
X32432524Y-11296071D01*
X32506024Y-11369571D01*
X32517172Y-11426630D02*
X32590672Y-11353130D01*
X32517172Y-11279630D01*
X32443672Y-11353130D01*
X32517172Y-11426630D01*
X32543210Y-13448029D02*
X32616710Y-13374529D01*
X32543210Y-13301029D01*
X32469710Y-13374529D01*
X32543210Y-13448029D01*
X32944521Y-8065179D02*
X33018021Y-7991679D01*
X32944521Y-7918179D01*
X32871021Y-7991679D01*
X32944521Y-8065179D01*
X32948139Y-15463688D02*
X33021639Y-15390188D01*
X32948139Y-15316688D01*
X32874639Y-15390188D01*
X32948139Y-15463688D01*
X33002085Y-13213265D02*
X33075585Y-13139765D01*
X33002085Y-13066265D01*
X32928585Y-13139765D01*
X33002085Y-13213265D01*
X33013232Y-13270324D02*
X33086732Y-13196824D01*
X33013232Y-13123324D01*
X32939732Y-13196824D01*
X33013232Y-13270324D01*
X33033270Y-7890248D02*
X33106770Y-7816748D01*
X33033270Y-7743248D01*
X32959770Y-7816748D01*
X33033270Y-7890248D01*
X33036888Y-15288757D02*
X33110388Y-15215257D01*
X33036888Y-15141757D01*
X32963388Y-15215257D01*
X33036888Y-15288757D01*
X33433985Y-9893322D02*
X33507485Y-9819822D01*
X33433985Y-9746322D01*
X33360485Y-9819822D01*
X33433985Y-9893322D01*
X33492144Y-7655483D02*
X33565644Y-7581983D01*
X33492144Y-7508483D01*
X33418644Y-7581983D01*
X33492144Y-7655483D01*
X33495762Y-15053992D02*
X33569262Y-14980492D01*
X33495762Y-14906992D01*
X33422262Y-14980492D01*
X33495762Y-15053992D01*
X33503292Y-7712542D02*
X33576792Y-7639042D01*
X33503292Y-7565542D01*
X33429792Y-7639042D01*
X33503292Y-7712542D01*
X33506910Y-15111051D02*
X33580410Y-15037551D01*
X33506910Y-14964051D01*
X33433410Y-15037551D01*
X33506910Y-15111051D01*
X33522734Y-9718392D02*
X33596234Y-9644892D01*
X33522734Y-9571392D01*
X33449234Y-9644892D01*
X33522734Y-9718392D01*
X33929143Y-11748612D02*
X34002643Y-11675112D01*
X33929143Y-11601612D01*
X33855643Y-11675112D01*
X33929143Y-11748612D01*
X33981608Y-9483627D02*
X34055108Y-9410127D01*
X33981608Y-9336627D01*
X33908108Y-9410127D01*
X33981608Y-9483627D01*
X33992756Y-9540686D02*
X34066256Y-9467186D01*
X33992756Y-9393686D01*
X33919256Y-9467186D01*
X33992756Y-9540686D01*
X34017892Y-11573682D02*
X34091392Y-11500182D01*
X34017892Y-11426682D01*
X33944392Y-11500182D01*
X34017892Y-11573682D01*
X34421659Y-13584570D02*
X34495159Y-13511070D01*
X34421659Y-13437570D01*
X34348159Y-13511070D01*
X34421659Y-13584570D01*
X34476766Y-11338917D02*
X34550266Y-11265417D01*
X34476766Y-11191917D01*
X34403266Y-11265417D01*
X34476766Y-11338917D01*
X34487914Y-11395976D02*
X34561414Y-11322476D01*
X34487914Y-11248976D01*
X34414414Y-11322476D01*
X34487914Y-11395976D01*
X34510408Y-13409639D02*
X34583908Y-13336139D01*
X34510408Y-13262639D01*
X34436908Y-13336139D01*
X34510408Y-13409639D01*
X34818019Y-7719964D02*
X34891519Y-7646464D01*
X34818019Y-7572964D01*
X34744519Y-7646464D01*
X34818019Y-7719964D01*
X34906768Y-7545033D02*
X34980268Y-7471533D01*
X34906768Y-7398033D01*
X34833268Y-7471533D01*
X34906768Y-7545033D01*
X34916259Y-15424062D02*
X34989759Y-15350562D01*
X34916259Y-15277062D01*
X34842759Y-15350562D01*
X34916259Y-15424062D01*
X34969282Y-13174875D02*
X35042782Y-13101375D01*
X34969282Y-13027875D01*
X34895782Y-13101375D01*
X34969282Y-13174875D01*
X34980430Y-13231934D02*
X35053930Y-13158434D01*
X34980430Y-13084934D01*
X34906930Y-13158434D01*
X34980430Y-13231934D01*
X35005008Y-15249131D02*
X35078508Y-15175631D01*
X35005008Y-15102131D01*
X34931508Y-15175631D01*
X35005008Y-15249131D01*
X35308823Y-9546890D02*
X35382323Y-9473390D01*
X35308823Y-9399890D01*
X35235323Y-9473390D01*
X35308823Y-9546890D01*
X35365642Y-7310269D02*
X35439142Y-7236769D01*
X35365642Y-7163269D01*
X35292142Y-7236769D01*
X35365642Y-7310269D01*
X35376790Y-7367328D02*
X35450290Y-7293828D01*
X35376790Y-7220328D01*
X35303290Y-7293828D01*
X35376790Y-7367328D01*
X35397572Y-9371959D02*
X35471072Y-9298459D01*
X35397572Y-9224959D01*
X35324072Y-9298459D01*
X35397572Y-9371959D01*
X35463882Y-15014367D02*
X35537382Y-14940867D01*
X35463882Y-14867367D01*
X35390382Y-14940867D01*
X35463882Y-15014367D01*
X35475030Y-15071426D02*
X35548530Y-14997926D01*
X35475030Y-14924426D01*
X35401530Y-14997926D01*
X35475030Y-15071426D01*
X35804481Y-11399263D02*
X35877981Y-11325763D01*
X35804481Y-11252263D01*
X35730981Y-11325763D01*
X35804481Y-11399263D01*
X35856446Y-9137194D02*
X35929946Y-9063694D01*
X35856446Y-8990194D01*
X35782946Y-9063694D01*
X35856446Y-9137194D01*
X35867594Y-9194253D02*
X35941094Y-9120753D01*
X35867594Y-9047253D01*
X35794094Y-9120753D01*
X35867594Y-9194253D01*
X35893229Y-11224333D02*
X35966729Y-11150833D01*
X35893229Y-11077333D01*
X35819729Y-11150833D01*
X35893229Y-11224333D01*
X36299160Y-13234014D02*
X36372660Y-13160514D01*
X36299160Y-13087014D01*
X36225660Y-13160514D01*
X36299160Y-13234014D01*
X36352104Y-10989568D02*
X36425604Y-10916068D01*
X36352104Y-10842568D01*
X36278604Y-10916068D01*
X36352104Y-10989568D01*
X36363251Y-11046627D02*
X36436751Y-10973127D01*
X36363251Y-10899627D01*
X36289751Y-10973127D01*
X36363251Y-11046627D01*
X36387908Y-13059084D02*
X36461408Y-12985584D01*
X36387908Y-12912084D01*
X36314408Y-12985584D01*
X36387908Y-13059084D01*
X36624188Y-7080735D02*
X36697688Y-7007235D01*
X36624188Y-6933735D01*
X36550688Y-7007235D01*
X36624188Y-7080735D01*
X36712937Y-6905804D02*
X36786437Y-6832304D01*
X36712937Y-6758804D01*
X36639437Y-6832304D01*
X36712937Y-6905804D01*
X36792461Y-15077025D02*
X36865961Y-15003525D01*
X36792461Y-14930025D01*
X36718961Y-15003525D01*
X36792461Y-15077025D01*
X36846783Y-12824319D02*
X36920283Y-12750819D01*
X36846783Y-12677319D01*
X36773283Y-12750819D01*
X36846783Y-12824319D01*
X36857930Y-12881378D02*
X36931430Y-12807878D01*
X36857930Y-12734378D01*
X36784430Y-12807878D01*
X36857930Y-12881378D01*
X36881210Y-14902095D02*
X36954710Y-14828595D01*
X36881210Y-14755095D01*
X36807710Y-14828595D01*
X36881210Y-14902095D01*
X37112005Y-8907822D02*
X37185505Y-8834322D01*
X37112005Y-8760822D01*
X37038505Y-8834322D01*
X37112005Y-8907822D01*
X37171811Y-6671040D02*
X37245311Y-6597540D01*
X37171811Y-6524040D01*
X37098311Y-6597540D01*
X37171811Y-6671040D01*
X37182959Y-6728099D02*
X37256459Y-6654599D01*
X37182959Y-6581099D01*
X37109459Y-6654599D01*
X37182959Y-6728099D01*
X37200753Y-8732892D02*
X37274253Y-8659392D01*
X37200753Y-8585892D01*
X37127253Y-8659392D01*
X37200753Y-8732892D01*
X37340084Y-14667330D02*
X37413584Y-14593830D01*
X37340084Y-14520330D01*
X37266584Y-14593830D01*
X37340084Y-14667330D01*
X37351232Y-14724389D02*
X37424732Y-14650889D01*
X37351232Y-14577389D01*
X37277732Y-14650889D01*
X37351232Y-14724389D01*
X37607979Y-10764809D02*
X37681479Y-10691309D01*
X37607979Y-10617809D01*
X37534479Y-10691309D01*
X37607979Y-10764809D01*
X37659627Y-8498127D02*
X37733127Y-8424627D01*
X37659627Y-8351127D01*
X37586127Y-8424627D01*
X37659627Y-8498127D01*
X37670775Y-8555186D02*
X37744275Y-8481686D01*
X37670775Y-8408186D01*
X37597275Y-8481686D01*
X37670775Y-8555186D01*
X37696728Y-10589879D02*
X37770228Y-10516379D01*
X37696728Y-10442879D01*
X37623228Y-10516379D01*
X37696728Y-10589879D01*
X38100714Y-12595959D02*
X38174214Y-12522459D01*
X38100714Y-12448959D01*
X38027214Y-12522459D01*
X38100714Y-12595959D01*
X38155602Y-10355114D02*
X38229102Y-10281614D01*
X38155602Y-10208114D01*
X38082102Y-10281614D01*
X38155602Y-10355114D01*
X38166750Y-10412173D02*
X38240250Y-10338673D01*
X38166750Y-10265173D01*
X38093250Y-10338673D01*
X38166750Y-10412173D01*
X38189463Y-12421029D02*
X38262963Y-12347529D01*
X38189463Y-12274029D01*
X38115963Y-12347529D01*
X38189463Y-12421029D01*
X38594273Y-14437395D02*
X38667773Y-14363895D01*
X38594273Y-14290395D01*
X38520773Y-14363895D01*
X38594273Y-14437395D01*
X38648337Y-12186264D02*
X38721837Y-12112764D01*
X38648337Y-12039264D01*
X38574837Y-12112764D01*
X38648337Y-12186264D01*
X38659485Y-12243323D02*
X38732985Y-12169823D01*
X38659485Y-12096323D01*
X38585985Y-12169823D01*
X38659485Y-12243323D01*
X38683022Y-14262465D02*
X38756522Y-14188965D01*
X38683022Y-14115465D01*
X38609522Y-14188965D01*
X38683022Y-14262465D01*
X39141896Y-14027700D02*
X39215396Y-13954200D01*
X39141896Y-13880700D01*
X39068396Y-13954200D01*
X39141896Y-14027700D01*
X39153044Y-14084759D02*
X39226544Y-14011259D01*
X39153044Y-13937759D01*
X39079544Y-14011259D01*
X39153044Y-14084759D01*
X3598400Y-15282400D02*
X3818400Y-15502400D01*
X3818400Y-15282400D02*
X3598400Y-15502400D01*
X3818400Y-15392400D02*
G75*
G03*
X3818400Y-15392400I-110000J0D01*
G01*
X5859000Y-6773400D02*
X6079000Y-6993400D01*
X6079000Y-6773400D02*
X5859000Y-6993400D01*
X6079000Y-6883400D02*
G75*
G03*
X6079000Y-6883400I-110000J0D01*
G01*
X8373600Y-12412200D02*
X8593600Y-12632200D01*
X8593600Y-12412200D02*
X8373600Y-12632200D01*
X8593600Y-12522200D02*
G75*
G03*
X8593600Y-12522200I-110000J0D01*
G01*
X9542000Y-7840200D02*
X9762000Y-8060200D01*
X9762000Y-7840200D02*
X9542000Y-8060200D01*
X9762000Y-7950200D02*
G75*
G03*
X9762000Y-7950200I-110000J0D01*
G01*
X10989800Y-16933400D02*
X11209800Y-17153400D01*
X11209800Y-16933400D02*
X10989800Y-17153400D01*
X11209800Y-17043400D02*
G75*
G03*
X11209800Y-17043400I-110000J0D01*
G01*
X12691600Y-10710400D02*
X12911600Y-10930400D01*
X12911600Y-10710400D02*
X12691600Y-10930400D01*
X12911600Y-10820400D02*
G75*
G03*
X12911600Y-10820400I-110000J0D01*
G01*
X16387300Y-15549100D02*
X16607300Y-15769100D01*
X16607300Y-15549100D02*
X16387300Y-15769100D01*
X16607300Y-15659100D02*
G75*
G03*
X16607300Y-15659100I-110000J0D01*
G01*
X16463500Y-8322800D02*
X16683500Y-8542800D01*
X16683500Y-8322800D02*
X16463500Y-8542800D01*
X16683500Y-8432800D02*
G75*
G03*
X16683500Y-8432800I-110000J0D01*
G01*
X16692100Y-12005800D02*
X16912100Y-12225800D01*
X16912100Y-12005800D02*
X16692100Y-12225800D01*
X16912100Y-12115800D02*
G75*
G03*
X16912100Y-12115800I-110000J0D01*
G01*
X17085800Y-18622500D02*
X17305800Y-18842500D01*
X17305800Y-18622500D02*
X17085800Y-18842500D01*
X17305800Y-18732500D02*
G75*
G03*
X17305800Y-18732500I-110000J0D01*
G01*
X18990800Y-14101300D02*
X19210800Y-14321300D01*
X19210800Y-14101300D02*
X18990800Y-14321300D01*
X19210800Y-14211300D02*
G75*
G03*
X19210800Y-14211300I-110000J0D01*
G01*
X20883100Y-12450300D02*
X21103100Y-12670300D01*
X21103100Y-12450300D02*
X20883100Y-12670300D01*
X21103100Y-12560300D02*
G75*
G03*
X21103100Y-12560300I-110000J0D01*
G01*
X20883100Y-16247600D02*
X21103100Y-16467600D01*
X21103100Y-16247600D02*
X20883100Y-16467600D01*
X21103100Y-16357600D02*
G75*
G03*
X21103100Y-16357600I-110000J0D01*
G01*
X22800800Y-14088600D02*
X23020800Y-14308600D01*
X23020800Y-14088600D02*
X22800800Y-14308600D01*
X23020800Y-14198600D02*
G75*
G03*
X23020800Y-14198600I-110000J0D01*
G01*
X24680400Y-18609800D02*
X24900400Y-18829800D01*
X24900400Y-18609800D02*
X24680400Y-18829800D01*
X24900400Y-18719800D02*
G75*
G03*
X24900400Y-18719800I-110000J0D01*
G01*
X25086800Y-12018500D02*
X25306800Y-12238500D01*
X25306800Y-12018500D02*
X25086800Y-12238500D01*
X25306800Y-12128500D02*
G75*
G03*
X25306800Y-12128500I-110000J0D01*
G01*
X25429700Y-15574500D02*
X25649700Y-15794500D01*
X25649700Y-15574500D02*
X25429700Y-15794500D01*
X25649700Y-15684500D02*
G75*
G03*
X25649700Y-15684500I-110000J0D01*
G01*
X25531300Y-8297400D02*
X25751300Y-8517400D01*
X25751300Y-8297400D02*
X25531300Y-8517400D01*
X25751300Y-8407400D02*
G75*
G03*
X25751300Y-8407400I-110000J0D01*
G01*
X29061900Y-10710400D02*
X29281900Y-10930400D01*
X29281900Y-10710400D02*
X29061900Y-10930400D01*
X29281900Y-10820400D02*
G75*
G03*
X29281900Y-10820400I-110000J0D01*
G01*
X30725600Y-16971500D02*
X30945600Y-17191500D01*
X30945600Y-16971500D02*
X30725600Y-17191500D01*
X30945600Y-17081500D02*
G75*
G03*
X30945600Y-17081500I-110000J0D01*
G01*
X32224200Y-7776700D02*
X32444200Y-7996700D01*
X32444200Y-7776700D02*
X32224200Y-7996700D01*
X32444200Y-7886700D02*
G75*
G03*
X32444200Y-7886700I-110000J0D01*
G01*
X33418000Y-12399500D02*
X33638000Y-12619500D01*
X33638000Y-12399500D02*
X33418000Y-12619500D01*
X33638000Y-12509500D02*
G75*
G03*
X33638000Y-12509500I-110000J0D01*
G01*
X35932600Y-6849600D02*
X36152600Y-7069600D01*
X36152600Y-6849600D02*
X35932600Y-7069600D01*
X36152600Y-6959600D02*
G75*
G03*
X36152600Y-6959600I-110000J0D01*
G01*
X38180500Y-15358600D02*
X38400500Y-15578600D01*
X38400500Y-15358600D02*
X38180500Y-15578600D01*
X38400500Y-15468600D02*
G75*
G03*
X38400500Y-15468600I-110000J0D01*
G01*
D12*
X1711017Y-19586905D02*
X1711017Y-19286905D01*
X1782446Y-19286905D01*
X1825303Y-19301191D01*
X1853874Y-19329762D01*
X1868160Y-19358334D01*
X1882446Y-19415477D01*
X1882446Y-19458334D01*
X1868160Y-19515477D01*
X1853874Y-19544048D01*
X1825303Y-19572620D01*
X1782446Y-19586905D01*
X1711017Y-19586905D01*
X2011017Y-19586905D02*
X2011017Y-19386905D01*
X2011017Y-19444048D02*
X2025303Y-19415477D01*
X2039588Y-19401191D01*
X2068160Y-19386905D01*
X2096731Y-19386905D01*
X2196731Y-19586905D02*
X2196731Y-19386905D01*
X2196731Y-19286905D02*
X2182446Y-19301191D01*
X2196731Y-19315477D01*
X2211017Y-19301191D01*
X2196731Y-19286905D01*
X2196731Y-19315477D01*
X2382446Y-19586905D02*
X2353874Y-19572620D01*
X2339589Y-19544048D01*
X2339589Y-19286905D01*
X2539589Y-19586905D02*
X2511017Y-19572620D01*
X2496731Y-19544048D01*
X2496731Y-19286905D01*
X2882446Y-19586905D02*
X2882446Y-19286905D01*
X2982446Y-19501191D01*
X3082446Y-19286905D01*
X3082446Y-19586905D01*
X3353874Y-19586905D02*
X3353874Y-19429762D01*
X3339588Y-19401191D01*
X3311017Y-19386905D01*
X3253874Y-19386905D01*
X3225303Y-19401191D01*
X3353874Y-19572620D02*
X3325303Y-19586905D01*
X3253874Y-19586905D01*
X3225303Y-19572620D01*
X3211017Y-19544048D01*
X3211017Y-19515477D01*
X3225303Y-19486905D01*
X3253874Y-19472620D01*
X3325303Y-19472620D01*
X3353874Y-19458334D01*
X3496731Y-19386905D02*
X3496731Y-19686905D01*
X3496731Y-19401191D02*
X3525303Y-19386905D01*
X3582446Y-19386905D01*
X3611017Y-19401191D01*
X3625303Y-19415477D01*
X3639588Y-19444048D01*
X3639588Y-19529762D01*
X3625303Y-19558334D01*
X3611017Y-19572620D01*
X3582446Y-19586905D01*
X3525303Y-19586905D01*
X3496731Y-19572620D01*
X3768160Y-19558334D02*
X3782446Y-19572620D01*
X3768160Y-19586905D01*
X3753874Y-19572620D01*
X3768160Y-19558334D01*
X3768160Y-19586905D01*
X3768160Y-19401191D02*
X3782446Y-19415477D01*
X3768160Y-19429762D01*
X3753874Y-19415477D01*
X3768160Y-19401191D01*
X3768160Y-19429762D01*
X1384589Y-20061191D02*
X1424588Y-20101191D01*
X1424588Y-20061191D02*
X1384589Y-20101191D01*
X1768160Y-19916905D02*
X1796731Y-19916905D01*
X1825303Y-19931191D01*
X1839588Y-19945477D01*
X1853874Y-19974048D01*
X1868160Y-20031191D01*
X1868160Y-20102620D01*
X1853874Y-20159762D01*
X1839588Y-20188334D01*
X1825303Y-20202620D01*
X1796731Y-20216905D01*
X1768160Y-20216905D01*
X1739588Y-20202620D01*
X1725303Y-20188334D01*
X1711017Y-20159762D01*
X1696731Y-20102620D01*
X1696731Y-20031191D01*
X1711017Y-19974048D01*
X1725303Y-19945477D01*
X1739588Y-19931191D01*
X1768160Y-19916905D01*
X1996731Y-20188334D02*
X2011017Y-20202620D01*
X1996731Y-20216905D01*
X1982446Y-20202620D01*
X1996731Y-20188334D01*
X1996731Y-20216905D01*
X2268160Y-20016905D02*
X2268160Y-20216905D01*
X2196731Y-19902620D02*
X2125303Y-20116905D01*
X2311017Y-20116905D01*
X2482446Y-19916905D02*
X2511017Y-19916905D01*
X2539589Y-19931191D01*
X2553874Y-19945477D01*
X2568160Y-19974048D01*
X2582446Y-20031191D01*
X2582446Y-20102620D01*
X2568160Y-20159762D01*
X2553874Y-20188334D01*
X2539589Y-20202620D01*
X2511017Y-20216905D01*
X2482446Y-20216905D01*
X2453874Y-20202620D01*
X2439589Y-20188334D01*
X2425303Y-20159762D01*
X2411017Y-20102620D01*
X2411017Y-20031191D01*
X2425303Y-19974048D01*
X2439589Y-19945477D01*
X2453874Y-19931191D01*
X2482446Y-19916905D01*
X2768160Y-19916905D02*
X2796731Y-19916905D01*
X2825303Y-19931191D01*
X2839588Y-19945477D01*
X2853874Y-19974048D01*
X2868160Y-20031191D01*
X2868160Y-20102620D01*
X2853874Y-20159762D01*
X2839588Y-20188334D01*
X2825303Y-20202620D01*
X2796731Y-20216905D01*
X2768160Y-20216905D01*
X2739589Y-20202620D01*
X2725303Y-20188334D01*
X2711017Y-20159762D01*
X2696731Y-20102620D01*
X2696731Y-20031191D01*
X2711017Y-19974048D01*
X2725303Y-19945477D01*
X2739589Y-19931191D01*
X2768160Y-19916905D01*
X2996731Y-20216905D02*
X2996731Y-20016905D01*
X2996731Y-20045477D02*
X3011017Y-20031191D01*
X3039588Y-20016905D01*
X3082446Y-20016905D01*
X3111017Y-20031191D01*
X3125303Y-20059762D01*
X3125303Y-20216905D01*
X3125303Y-20059762D02*
X3139588Y-20031191D01*
X3168160Y-20016905D01*
X3211017Y-20016905D01*
X3239588Y-20031191D01*
X3253874Y-20059762D01*
X3253874Y-20216905D01*
X3396731Y-20216905D02*
X3396731Y-20016905D01*
X3396731Y-20045477D02*
X3411017Y-20031191D01*
X3439588Y-20016905D01*
X3482446Y-20016905D01*
X3511017Y-20031191D01*
X3525303Y-20059762D01*
X3525303Y-20216905D01*
X3525303Y-20059762D02*
X3539588Y-20031191D01*
X3568160Y-20016905D01*
X3611017Y-20016905D01*
X3639588Y-20031191D01*
X3653874Y-20059762D01*
X3653874Y-20216905D01*
X4239589Y-19902620D02*
X3982446Y-20288334D01*
X4625303Y-19916905D02*
X4653874Y-19916905D01*
X4682446Y-19931191D01*
X4696731Y-19945477D01*
X4711017Y-19974048D01*
X4725303Y-20031191D01*
X4725303Y-20102620D01*
X4711017Y-20159762D01*
X4696731Y-20188334D01*
X4682446Y-20202620D01*
X4653874Y-20216905D01*
X4625303Y-20216905D01*
X4596731Y-20202620D01*
X4582446Y-20188334D01*
X4568160Y-20159762D01*
X4553874Y-20102620D01*
X4553874Y-20031191D01*
X4568160Y-19974048D01*
X4582446Y-19945477D01*
X4596731Y-19931191D01*
X4625303Y-19916905D01*
X4853874Y-20188334D02*
X4868160Y-20202620D01*
X4853874Y-20216905D01*
X4839589Y-20202620D01*
X4853874Y-20188334D01*
X4853874Y-20216905D01*
X5053874Y-19916905D02*
X5082446Y-19916905D01*
X5111017Y-19931191D01*
X5125303Y-19945477D01*
X5139589Y-19974048D01*
X5153874Y-20031191D01*
X5153874Y-20102620D01*
X5139589Y-20159762D01*
X5125303Y-20188334D01*
X5111017Y-20202620D01*
X5082446Y-20216905D01*
X5053874Y-20216905D01*
X5025303Y-20202620D01*
X5011017Y-20188334D01*
X4996731Y-20159762D01*
X4982446Y-20102620D01*
X4982446Y-20031191D01*
X4996731Y-19974048D01*
X5011017Y-19945477D01*
X5025303Y-19931191D01*
X5053874Y-19916905D01*
X5439588Y-20216905D02*
X5268160Y-20216905D01*
X5353874Y-20216905D02*
X5353874Y-19916905D01*
X5325303Y-19959762D01*
X5296731Y-19988334D01*
X5268160Y-20002620D01*
X5711017Y-19916905D02*
X5568160Y-19916905D01*
X5553874Y-20059762D01*
X5568160Y-20045477D01*
X5596731Y-20031191D01*
X5668160Y-20031191D01*
X5696731Y-20045477D01*
X5711017Y-20059762D01*
X5725303Y-20088334D01*
X5725303Y-20159762D01*
X5711017Y-20188334D01*
X5696731Y-20202620D01*
X5668160Y-20216905D01*
X5596731Y-20216905D01*
X5568160Y-20202620D01*
X5553874Y-20188334D01*
X5825303Y-19916905D02*
X6025303Y-19916905D01*
X5896731Y-20216905D01*
X6125303Y-19916905D02*
X6125303Y-19974048D01*
X6239588Y-19916905D02*
X6239588Y-19974048D01*
X6682446Y-20331191D02*
X6668160Y-20316905D01*
X6639588Y-20274048D01*
X6625303Y-20245477D01*
X6611017Y-20202620D01*
X6596731Y-20131191D01*
X6596731Y-20074048D01*
X6611017Y-20002620D01*
X6625303Y-19959762D01*
X6639588Y-19931191D01*
X6668160Y-19888334D01*
X6682446Y-19874048D01*
X6925303Y-20016905D02*
X6925303Y-20216905D01*
X6853874Y-19902620D02*
X6782446Y-20116905D01*
X6968160Y-20116905D01*
X7053874Y-19916905D02*
X7239588Y-19916905D01*
X7139588Y-20031191D01*
X7182446Y-20031191D01*
X7211017Y-20045477D01*
X7225303Y-20059762D01*
X7239588Y-20088334D01*
X7239588Y-20159762D01*
X7225303Y-20188334D01*
X7211017Y-20202620D01*
X7182446Y-20216905D01*
X7096731Y-20216905D01*
X7068160Y-20202620D01*
X7053874Y-20188334D01*
X7596731Y-20216905D02*
X7596731Y-19916905D01*
X7725303Y-20216905D02*
X7725303Y-20059762D01*
X7711017Y-20031191D01*
X7682446Y-20016905D01*
X7639588Y-20016905D01*
X7611017Y-20031191D01*
X7596731Y-20045477D01*
X7911017Y-20216905D02*
X7882446Y-20202620D01*
X7868160Y-20188334D01*
X7853874Y-20159762D01*
X7853874Y-20074048D01*
X7868160Y-20045477D01*
X7882446Y-20031191D01*
X7911017Y-20016905D01*
X7953874Y-20016905D01*
X7982446Y-20031191D01*
X7996731Y-20045477D01*
X8011017Y-20074048D01*
X8011017Y-20159762D01*
X7996731Y-20188334D01*
X7982446Y-20202620D01*
X7953874Y-20216905D01*
X7911017Y-20216905D01*
X8182446Y-20216905D02*
X8153874Y-20202620D01*
X8139588Y-20174048D01*
X8139588Y-19916905D01*
X8411017Y-20202620D02*
X8382446Y-20216905D01*
X8325303Y-20216905D01*
X8296731Y-20202620D01*
X8282446Y-20174048D01*
X8282446Y-20059762D01*
X8296731Y-20031191D01*
X8325303Y-20016905D01*
X8382446Y-20016905D01*
X8411017Y-20031191D01*
X8425303Y-20059762D01*
X8425303Y-20088334D01*
X8282446Y-20116905D01*
X8539589Y-20202620D02*
X8568160Y-20216905D01*
X8625303Y-20216905D01*
X8653874Y-20202620D01*
X8668160Y-20174048D01*
X8668160Y-20159762D01*
X8653874Y-20131191D01*
X8625303Y-20116905D01*
X8582446Y-20116905D01*
X8553874Y-20102620D01*
X8539589Y-20074048D01*
X8539589Y-20059762D01*
X8553874Y-20031191D01*
X8582446Y-20016905D01*
X8625303Y-20016905D01*
X8653874Y-20031191D01*
X8768160Y-20331191D02*
X8782446Y-20316905D01*
X8811017Y-20274048D01*
X8825303Y-20245477D01*
X8839589Y-20202620D01*
X8853874Y-20131191D01*
X8853874Y-20074048D01*
X8839589Y-20002620D01*
X8825303Y-19959762D01*
X8811017Y-19931191D01*
X8782446Y-19888334D01*
X8768160Y-19874048D01*
X1424588Y-20477191D02*
G75*
G03*
X1424588Y-20477191I-30000J0D01*
G01*
X1768160Y-20312905D02*
X1796731Y-20312905D01*
X1825303Y-20327191D01*
X1839588Y-20341477D01*
X1853874Y-20370048D01*
X1868160Y-20427191D01*
X1868160Y-20498620D01*
X1853874Y-20555762D01*
X1839588Y-20584334D01*
X1825303Y-20598620D01*
X1796731Y-20612905D01*
X1768160Y-20612905D01*
X1739588Y-20598620D01*
X1725303Y-20584334D01*
X1711017Y-20555762D01*
X1696731Y-20498620D01*
X1696731Y-20427191D01*
X1711017Y-20370048D01*
X1725303Y-20341477D01*
X1739588Y-20327191D01*
X1768160Y-20312905D01*
X1996731Y-20584334D02*
X2011017Y-20598620D01*
X1996731Y-20612905D01*
X1982446Y-20598620D01*
X1996731Y-20584334D01*
X1996731Y-20612905D01*
X2268160Y-20312905D02*
X2211017Y-20312905D01*
X2182446Y-20327191D01*
X2168160Y-20341477D01*
X2139589Y-20384334D01*
X2125303Y-20441477D01*
X2125303Y-20555762D01*
X2139589Y-20584334D01*
X2153874Y-20598620D01*
X2182446Y-20612905D01*
X2239589Y-20612905D01*
X2268160Y-20598620D01*
X2282446Y-20584334D01*
X2296731Y-20555762D01*
X2296731Y-20484334D01*
X2282446Y-20455762D01*
X2268160Y-20441477D01*
X2239589Y-20427191D01*
X2182446Y-20427191D01*
X2153874Y-20441477D01*
X2139589Y-20455762D01*
X2125303Y-20484334D01*
X2482446Y-20312905D02*
X2511017Y-20312905D01*
X2539589Y-20327191D01*
X2553874Y-20341477D01*
X2568160Y-20370048D01*
X2582446Y-20427191D01*
X2582446Y-20498620D01*
X2568160Y-20555762D01*
X2553874Y-20584334D01*
X2539589Y-20598620D01*
X2511017Y-20612905D01*
X2482446Y-20612905D01*
X2453874Y-20598620D01*
X2439589Y-20584334D01*
X2425303Y-20555762D01*
X2411017Y-20498620D01*
X2411017Y-20427191D01*
X2425303Y-20370048D01*
X2439589Y-20341477D01*
X2453874Y-20327191D01*
X2482446Y-20312905D01*
X2768160Y-20312905D02*
X2796731Y-20312905D01*
X2825303Y-20327191D01*
X2839588Y-20341477D01*
X2853874Y-20370048D01*
X2868160Y-20427191D01*
X2868160Y-20498620D01*
X2853874Y-20555762D01*
X2839588Y-20584334D01*
X2825303Y-20598620D01*
X2796731Y-20612905D01*
X2768160Y-20612905D01*
X2739589Y-20598620D01*
X2725303Y-20584334D01*
X2711017Y-20555762D01*
X2696731Y-20498620D01*
X2696731Y-20427191D01*
X2711017Y-20370048D01*
X2725303Y-20341477D01*
X2739589Y-20327191D01*
X2768160Y-20312905D01*
X2996731Y-20612905D02*
X2996731Y-20412905D01*
X2996731Y-20441477D02*
X3011017Y-20427191D01*
X3039588Y-20412905D01*
X3082446Y-20412905D01*
X3111017Y-20427191D01*
X3125303Y-20455762D01*
X3125303Y-20612905D01*
X3125303Y-20455762D02*
X3139588Y-20427191D01*
X3168160Y-20412905D01*
X3211017Y-20412905D01*
X3239588Y-20427191D01*
X3253874Y-20455762D01*
X3253874Y-20612905D01*
X3396731Y-20612905D02*
X3396731Y-20412905D01*
X3396731Y-20441477D02*
X3411017Y-20427191D01*
X3439588Y-20412905D01*
X3482446Y-20412905D01*
X3511017Y-20427191D01*
X3525303Y-20455762D01*
X3525303Y-20612905D01*
X3525303Y-20455762D02*
X3539588Y-20427191D01*
X3568160Y-20412905D01*
X3611017Y-20412905D01*
X3639588Y-20427191D01*
X3653874Y-20455762D01*
X3653874Y-20612905D01*
X4239589Y-20298620D02*
X3982446Y-20684334D01*
X4625303Y-20312905D02*
X4653874Y-20312905D01*
X4682446Y-20327191D01*
X4696731Y-20341477D01*
X4711017Y-20370048D01*
X4725303Y-20427191D01*
X4725303Y-20498620D01*
X4711017Y-20555762D01*
X4696731Y-20584334D01*
X4682446Y-20598620D01*
X4653874Y-20612905D01*
X4625303Y-20612905D01*
X4596731Y-20598620D01*
X4582446Y-20584334D01*
X4568160Y-20555762D01*
X4553874Y-20498620D01*
X4553874Y-20427191D01*
X4568160Y-20370048D01*
X4582446Y-20341477D01*
X4596731Y-20327191D01*
X4625303Y-20312905D01*
X4853874Y-20584334D02*
X4868160Y-20598620D01*
X4853874Y-20612905D01*
X4839589Y-20598620D01*
X4853874Y-20584334D01*
X4853874Y-20612905D01*
X5053874Y-20312905D02*
X5082446Y-20312905D01*
X5111017Y-20327191D01*
X5125303Y-20341477D01*
X5139589Y-20370048D01*
X5153874Y-20427191D01*
X5153874Y-20498620D01*
X5139589Y-20555762D01*
X5125303Y-20584334D01*
X5111017Y-20598620D01*
X5082446Y-20612905D01*
X5053874Y-20612905D01*
X5025303Y-20598620D01*
X5011017Y-20584334D01*
X4996731Y-20555762D01*
X4982446Y-20498620D01*
X4982446Y-20427191D01*
X4996731Y-20370048D01*
X5011017Y-20341477D01*
X5025303Y-20327191D01*
X5053874Y-20312905D01*
X5268160Y-20341477D02*
X5282446Y-20327191D01*
X5311017Y-20312905D01*
X5382446Y-20312905D01*
X5411017Y-20327191D01*
X5425303Y-20341477D01*
X5439588Y-20370048D01*
X5439588Y-20398620D01*
X5425303Y-20441477D01*
X5253874Y-20612905D01*
X5439588Y-20612905D01*
X5539588Y-20312905D02*
X5725303Y-20312905D01*
X5625303Y-20427191D01*
X5668160Y-20427191D01*
X5696731Y-20441477D01*
X5711017Y-20455762D01*
X5725303Y-20484334D01*
X5725303Y-20555762D01*
X5711017Y-20584334D01*
X5696731Y-20598620D01*
X5668160Y-20612905D01*
X5582446Y-20612905D01*
X5553874Y-20598620D01*
X5539588Y-20584334D01*
X5982446Y-20312905D02*
X5925303Y-20312905D01*
X5896731Y-20327191D01*
X5882446Y-20341477D01*
X5853874Y-20384334D01*
X5839588Y-20441477D01*
X5839588Y-20555762D01*
X5853874Y-20584334D01*
X5868160Y-20598620D01*
X5896731Y-20612905D01*
X5953874Y-20612905D01*
X5982446Y-20598620D01*
X5996731Y-20584334D01*
X6011017Y-20555762D01*
X6011017Y-20484334D01*
X5996731Y-20455762D01*
X5982446Y-20441477D01*
X5953874Y-20427191D01*
X5896731Y-20427191D01*
X5868160Y-20441477D01*
X5853874Y-20455762D01*
X5839588Y-20484334D01*
X6125303Y-20312905D02*
X6125303Y-20370048D01*
X6239588Y-20312905D02*
X6239588Y-20370048D01*
X6682446Y-20727191D02*
X6668160Y-20712905D01*
X6639588Y-20670048D01*
X6625303Y-20641477D01*
X6611017Y-20598620D01*
X6596731Y-20527191D01*
X6596731Y-20470048D01*
X6611017Y-20398620D01*
X6625303Y-20355762D01*
X6639588Y-20327191D01*
X6668160Y-20284334D01*
X6682446Y-20270048D01*
X6853874Y-20312905D02*
X6882446Y-20312905D01*
X6911017Y-20327191D01*
X6925303Y-20341477D01*
X6939588Y-20370048D01*
X6953874Y-20427191D01*
X6953874Y-20498620D01*
X6939588Y-20555762D01*
X6925303Y-20584334D01*
X6911017Y-20598620D01*
X6882446Y-20612905D01*
X6853874Y-20612905D01*
X6825303Y-20598620D01*
X6811017Y-20584334D01*
X6796731Y-20555762D01*
X6782446Y-20498620D01*
X6782446Y-20427191D01*
X6796731Y-20370048D01*
X6811017Y-20341477D01*
X6825303Y-20327191D01*
X6853874Y-20312905D01*
X7311017Y-20612905D02*
X7311017Y-20312905D01*
X7439588Y-20612905D02*
X7439588Y-20455762D01*
X7425303Y-20427191D01*
X7396731Y-20412905D01*
X7353874Y-20412905D01*
X7325303Y-20427191D01*
X7311017Y-20441477D01*
X7625303Y-20612905D02*
X7596731Y-20598620D01*
X7582446Y-20584334D01*
X7568160Y-20555762D01*
X7568160Y-20470048D01*
X7582446Y-20441477D01*
X7596731Y-20427191D01*
X7625303Y-20412905D01*
X7668160Y-20412905D01*
X7696731Y-20427191D01*
X7711017Y-20441477D01*
X7725303Y-20470048D01*
X7725303Y-20555762D01*
X7711017Y-20584334D01*
X7696731Y-20598620D01*
X7668160Y-20612905D01*
X7625303Y-20612905D01*
X7896731Y-20612905D02*
X7868160Y-20598620D01*
X7853874Y-20570048D01*
X7853874Y-20312905D01*
X8125303Y-20598620D02*
X8096731Y-20612905D01*
X8039588Y-20612905D01*
X8011017Y-20598620D01*
X7996731Y-20570048D01*
X7996731Y-20455762D01*
X8011017Y-20427191D01*
X8039588Y-20412905D01*
X8096731Y-20412905D01*
X8125303Y-20427191D01*
X8139588Y-20455762D01*
X8139588Y-20484334D01*
X7996731Y-20512905D01*
X8253874Y-20598620D02*
X8282446Y-20612905D01*
X8339588Y-20612905D01*
X8368160Y-20598620D01*
X8382446Y-20570048D01*
X8382446Y-20555762D01*
X8368160Y-20527191D01*
X8339588Y-20512905D01*
X8296731Y-20512905D01*
X8268160Y-20498620D01*
X8253874Y-20470048D01*
X8253874Y-20455762D01*
X8268160Y-20427191D01*
X8296731Y-20412905D01*
X8339588Y-20412905D01*
X8368160Y-20427191D01*
X8739589Y-20498620D02*
X8968160Y-20498620D01*
X8853874Y-20612905D02*
X8853874Y-20384334D01*
X9468160Y-20412905D02*
X9468160Y-20612905D01*
X9396731Y-20298620D02*
X9325303Y-20512905D01*
X9511017Y-20512905D01*
X9839588Y-20598620D02*
X9868160Y-20612905D01*
X9925303Y-20612905D01*
X9953874Y-20598620D01*
X9968160Y-20570048D01*
X9968160Y-20555762D01*
X9953874Y-20527191D01*
X9925303Y-20512905D01*
X9882446Y-20512905D01*
X9853874Y-20498620D01*
X9839588Y-20470048D01*
X9839588Y-20455762D01*
X9853874Y-20427191D01*
X9882446Y-20412905D01*
X9925303Y-20412905D01*
X9953874Y-20427191D01*
X10139589Y-20612905D02*
X10111017Y-20598620D01*
X10096731Y-20570048D01*
X10096731Y-20312905D01*
X10296731Y-20612905D02*
X10268160Y-20598620D01*
X10253874Y-20584334D01*
X10239588Y-20555762D01*
X10239588Y-20470048D01*
X10253874Y-20441477D01*
X10268160Y-20427191D01*
X10296731Y-20412905D01*
X10339588Y-20412905D01*
X10368160Y-20427191D01*
X10382446Y-20441477D01*
X10396731Y-20470048D01*
X10396731Y-20555762D01*
X10382446Y-20584334D01*
X10368160Y-20598620D01*
X10339588Y-20612905D01*
X10296731Y-20612905D01*
X10482446Y-20412905D02*
X10596731Y-20412905D01*
X10525303Y-20312905D02*
X10525303Y-20570048D01*
X10539588Y-20598620D01*
X10568160Y-20612905D01*
X10596731Y-20612905D01*
X10682446Y-20598620D02*
X10711017Y-20612905D01*
X10768160Y-20612905D01*
X10796731Y-20598620D01*
X10811017Y-20570048D01*
X10811017Y-20555762D01*
X10796731Y-20527191D01*
X10768160Y-20512905D01*
X10725303Y-20512905D01*
X10696731Y-20498620D01*
X10682446Y-20470048D01*
X10682446Y-20455762D01*
X10696731Y-20427191D01*
X10725303Y-20412905D01*
X10768160Y-20412905D01*
X10796731Y-20427191D01*
X10911017Y-20727191D02*
X10925303Y-20712905D01*
X10953874Y-20670048D01*
X10968160Y-20641477D01*
X10982446Y-20598620D01*
X10996731Y-20527191D01*
X10996731Y-20470048D01*
X10982446Y-20398620D01*
X10968160Y-20355762D01*
X10953874Y-20327191D01*
X10925303Y-20284334D01*
X10911017Y-20270048D01*
X1374589Y-20823191D02*
X1374589Y-20923191D01*
X1324589Y-20873191D02*
X1424588Y-20873191D01*
X1868160Y-21008905D02*
X1696731Y-21008905D01*
X1782446Y-21008905D02*
X1782446Y-20708905D01*
X1753874Y-20751762D01*
X1725303Y-20780334D01*
X1696731Y-20794620D01*
X1996731Y-20980334D02*
X2011017Y-20994620D01*
X1996731Y-21008905D01*
X1982446Y-20994620D01*
X1996731Y-20980334D01*
X1996731Y-21008905D01*
X2196731Y-20708905D02*
X2225303Y-20708905D01*
X2253874Y-20723191D01*
X2268160Y-20737477D01*
X2282446Y-20766048D01*
X2296731Y-20823191D01*
X2296731Y-20894620D01*
X2282446Y-20951762D01*
X2268160Y-20980334D01*
X2253874Y-20994620D01*
X2225303Y-21008905D01*
X2196731Y-21008905D01*
X2168160Y-20994620D01*
X2153874Y-20980334D01*
X2139589Y-20951762D01*
X2125303Y-20894620D01*
X2125303Y-20823191D01*
X2139589Y-20766048D01*
X2153874Y-20737477D01*
X2168160Y-20723191D01*
X2196731Y-20708905D01*
X2482446Y-20708905D02*
X2511017Y-20708905D01*
X2539589Y-20723191D01*
X2553874Y-20737477D01*
X2568160Y-20766048D01*
X2582446Y-20823191D01*
X2582446Y-20894620D01*
X2568160Y-20951762D01*
X2553874Y-20980334D01*
X2539589Y-20994620D01*
X2511017Y-21008905D01*
X2482446Y-21008905D01*
X2453874Y-20994620D01*
X2439589Y-20980334D01*
X2425303Y-20951762D01*
X2411017Y-20894620D01*
X2411017Y-20823191D01*
X2425303Y-20766048D01*
X2439589Y-20737477D01*
X2453874Y-20723191D01*
X2482446Y-20708905D01*
X2768160Y-20708905D02*
X2796731Y-20708905D01*
X2825303Y-20723191D01*
X2839588Y-20737477D01*
X2853874Y-20766048D01*
X2868160Y-20823191D01*
X2868160Y-20894620D01*
X2853874Y-20951762D01*
X2839588Y-20980334D01*
X2825303Y-20994620D01*
X2796731Y-21008905D01*
X2768160Y-21008905D01*
X2739589Y-20994620D01*
X2725303Y-20980334D01*
X2711017Y-20951762D01*
X2696731Y-20894620D01*
X2696731Y-20823191D01*
X2711017Y-20766048D01*
X2725303Y-20737477D01*
X2739589Y-20723191D01*
X2768160Y-20708905D01*
X2996731Y-21008905D02*
X2996731Y-20808905D01*
X2996731Y-20837477D02*
X3011017Y-20823191D01*
X3039588Y-20808905D01*
X3082446Y-20808905D01*
X3111017Y-20823191D01*
X3125303Y-20851762D01*
X3125303Y-21008905D01*
X3125303Y-20851762D02*
X3139588Y-20823191D01*
X3168160Y-20808905D01*
X3211017Y-20808905D01*
X3239588Y-20823191D01*
X3253874Y-20851762D01*
X3253874Y-21008905D01*
X3396731Y-21008905D02*
X3396731Y-20808905D01*
X3396731Y-20837477D02*
X3411017Y-20823191D01*
X3439588Y-20808905D01*
X3482446Y-20808905D01*
X3511017Y-20823191D01*
X3525303Y-20851762D01*
X3525303Y-21008905D01*
X3525303Y-20851762D02*
X3539588Y-20823191D01*
X3568160Y-20808905D01*
X3611017Y-20808905D01*
X3639588Y-20823191D01*
X3653874Y-20851762D01*
X3653874Y-21008905D01*
X4239589Y-20694620D02*
X3982446Y-21080334D01*
X4625303Y-20708905D02*
X4653874Y-20708905D01*
X4682446Y-20723191D01*
X4696731Y-20737477D01*
X4711017Y-20766048D01*
X4725303Y-20823191D01*
X4725303Y-20894620D01*
X4711017Y-20951762D01*
X4696731Y-20980334D01*
X4682446Y-20994620D01*
X4653874Y-21008905D01*
X4625303Y-21008905D01*
X4596731Y-20994620D01*
X4582446Y-20980334D01*
X4568160Y-20951762D01*
X4553874Y-20894620D01*
X4553874Y-20823191D01*
X4568160Y-20766048D01*
X4582446Y-20737477D01*
X4596731Y-20723191D01*
X4625303Y-20708905D01*
X4853874Y-20980334D02*
X4868160Y-20994620D01*
X4853874Y-21008905D01*
X4839589Y-20994620D01*
X4853874Y-20980334D01*
X4853874Y-21008905D01*
X5053874Y-20708905D02*
X5082446Y-20708905D01*
X5111017Y-20723191D01*
X5125303Y-20737477D01*
X5139589Y-20766048D01*
X5153874Y-20823191D01*
X5153874Y-20894620D01*
X5139589Y-20951762D01*
X5125303Y-20980334D01*
X5111017Y-20994620D01*
X5082446Y-21008905D01*
X5053874Y-21008905D01*
X5025303Y-20994620D01*
X5011017Y-20980334D01*
X4996731Y-20951762D01*
X4982446Y-20894620D01*
X4982446Y-20823191D01*
X4996731Y-20766048D01*
X5011017Y-20737477D01*
X5025303Y-20723191D01*
X5053874Y-20708905D01*
X5253874Y-20708905D02*
X5439588Y-20708905D01*
X5339588Y-20823191D01*
X5382446Y-20823191D01*
X5411017Y-20837477D01*
X5425303Y-20851762D01*
X5439588Y-20880334D01*
X5439588Y-20951762D01*
X5425303Y-20980334D01*
X5411017Y-20994620D01*
X5382446Y-21008905D01*
X5296731Y-21008905D01*
X5268160Y-20994620D01*
X5253874Y-20980334D01*
X5582446Y-21008905D02*
X5639588Y-21008905D01*
X5668160Y-20994620D01*
X5682446Y-20980334D01*
X5711017Y-20937477D01*
X5725303Y-20880334D01*
X5725303Y-20766048D01*
X5711017Y-20737477D01*
X5696731Y-20723191D01*
X5668160Y-20708905D01*
X5611017Y-20708905D01*
X5582446Y-20723191D01*
X5568160Y-20737477D01*
X5553874Y-20766048D01*
X5553874Y-20837477D01*
X5568160Y-20866048D01*
X5582446Y-20880334D01*
X5611017Y-20894620D01*
X5668160Y-20894620D01*
X5696731Y-20880334D01*
X5711017Y-20866048D01*
X5725303Y-20837477D01*
X5982446Y-20808905D02*
X5982446Y-21008905D01*
X5911017Y-20694620D02*
X5839588Y-20908905D01*
X6025303Y-20908905D01*
X6125303Y-20708905D02*
X6125303Y-20766048D01*
X6239588Y-20708905D02*
X6239588Y-20766048D01*
X6682446Y-21123191D02*
X6668160Y-21108905D01*
X6639588Y-21066048D01*
X6625303Y-21037477D01*
X6611017Y-20994620D01*
X6596731Y-20923191D01*
X6596731Y-20866048D01*
X6611017Y-20794620D01*
X6625303Y-20751762D01*
X6639588Y-20723191D01*
X6668160Y-20680334D01*
X6682446Y-20666048D01*
X6925303Y-20708905D02*
X6868160Y-20708905D01*
X6839588Y-20723191D01*
X6825303Y-20737477D01*
X6796731Y-20780334D01*
X6782446Y-20837477D01*
X6782446Y-20951762D01*
X6796731Y-20980334D01*
X6811017Y-20994620D01*
X6839588Y-21008905D01*
X6896731Y-21008905D01*
X6925303Y-20994620D01*
X6939588Y-20980334D01*
X6953874Y-20951762D01*
X6953874Y-20880334D01*
X6939588Y-20851762D01*
X6925303Y-20837477D01*
X6896731Y-20823191D01*
X6839588Y-20823191D01*
X6811017Y-20837477D01*
X6796731Y-20851762D01*
X6782446Y-20880334D01*
X7311017Y-21008905D02*
X7311017Y-20708905D01*
X7439588Y-21008905D02*
X7439588Y-20851762D01*
X7425303Y-20823191D01*
X7396731Y-20808905D01*
X7353874Y-20808905D01*
X7325303Y-20823191D01*
X7311017Y-20837477D01*
X7625303Y-21008905D02*
X7596731Y-20994620D01*
X7582446Y-20980334D01*
X7568160Y-20951762D01*
X7568160Y-20866048D01*
X7582446Y-20837477D01*
X7596731Y-20823191D01*
X7625303Y-20808905D01*
X7668160Y-20808905D01*
X7696731Y-20823191D01*
X7711017Y-20837477D01*
X7725303Y-20866048D01*
X7725303Y-20951762D01*
X7711017Y-20980334D01*
X7696731Y-20994620D01*
X7668160Y-21008905D01*
X7625303Y-21008905D01*
X7896731Y-21008905D02*
X7868160Y-20994620D01*
X7853874Y-20966048D01*
X7853874Y-20708905D01*
X8125303Y-20994620D02*
X8096731Y-21008905D01*
X8039588Y-21008905D01*
X8011017Y-20994620D01*
X7996731Y-20966048D01*
X7996731Y-20851762D01*
X8011017Y-20823191D01*
X8039588Y-20808905D01*
X8096731Y-20808905D01*
X8125303Y-20823191D01*
X8139588Y-20851762D01*
X8139588Y-20880334D01*
X7996731Y-20908905D01*
X8253874Y-20994620D02*
X8282446Y-21008905D01*
X8339588Y-21008905D01*
X8368160Y-20994620D01*
X8382446Y-20966048D01*
X8382446Y-20951762D01*
X8368160Y-20923191D01*
X8339588Y-20908905D01*
X8296731Y-20908905D01*
X8268160Y-20894620D01*
X8253874Y-20866048D01*
X8253874Y-20851762D01*
X8268160Y-20823191D01*
X8296731Y-20808905D01*
X8339588Y-20808905D01*
X8368160Y-20823191D01*
X8482446Y-21123191D02*
X8496731Y-21108905D01*
X8525303Y-21066048D01*
X8539589Y-21037477D01*
X8553874Y-20994620D01*
X8568160Y-20923191D01*
X8568160Y-20866048D01*
X8553874Y-20794620D01*
X8539589Y-20751762D01*
X8525303Y-20723191D01*
X8496731Y-20680334D01*
X8482446Y-20666048D01*
X1407015Y-21311618D02*
X1407015Y-21226764D01*
X1322162Y-21226764D01*
X1322162Y-21311618D01*
X1407015Y-21311618D01*
X1868160Y-21404905D02*
X1696731Y-21404905D01*
X1782446Y-21404905D02*
X1782446Y-21104905D01*
X1753874Y-21147762D01*
X1725303Y-21176334D01*
X1696731Y-21190620D01*
X1996731Y-21376334D02*
X2011017Y-21390620D01*
X1996731Y-21404905D01*
X1982446Y-21390620D01*
X1996731Y-21376334D01*
X1996731Y-21404905D01*
X2125303Y-21133477D02*
X2139589Y-21119191D01*
X2168160Y-21104905D01*
X2239589Y-21104905D01*
X2268160Y-21119191D01*
X2282446Y-21133477D01*
X2296731Y-21162048D01*
X2296731Y-21190620D01*
X2282446Y-21233477D01*
X2111017Y-21404905D01*
X2296731Y-21404905D01*
X2482446Y-21104905D02*
X2511017Y-21104905D01*
X2539589Y-21119191D01*
X2553874Y-21133477D01*
X2568160Y-21162048D01*
X2582446Y-21219191D01*
X2582446Y-21290620D01*
X2568160Y-21347762D01*
X2553874Y-21376334D01*
X2539589Y-21390620D01*
X2511017Y-21404905D01*
X2482446Y-21404905D01*
X2453874Y-21390620D01*
X2439589Y-21376334D01*
X2425303Y-21347762D01*
X2411017Y-21290620D01*
X2411017Y-21219191D01*
X2425303Y-21162048D01*
X2439589Y-21133477D01*
X2453874Y-21119191D01*
X2482446Y-21104905D01*
X2768160Y-21104905D02*
X2796731Y-21104905D01*
X2825303Y-21119191D01*
X2839588Y-21133477D01*
X2853874Y-21162048D01*
X2868160Y-21219191D01*
X2868160Y-21290620D01*
X2853874Y-21347762D01*
X2839588Y-21376334D01*
X2825303Y-21390620D01*
X2796731Y-21404905D01*
X2768160Y-21404905D01*
X2739589Y-21390620D01*
X2725303Y-21376334D01*
X2711017Y-21347762D01*
X2696731Y-21290620D01*
X2696731Y-21219191D01*
X2711017Y-21162048D01*
X2725303Y-21133477D01*
X2739589Y-21119191D01*
X2768160Y-21104905D01*
X2996731Y-21404905D02*
X2996731Y-21204905D01*
X2996731Y-21233477D02*
X3011017Y-21219191D01*
X3039588Y-21204905D01*
X3082446Y-21204905D01*
X3111017Y-21219191D01*
X3125303Y-21247762D01*
X3125303Y-21404905D01*
X3125303Y-21247762D02*
X3139588Y-21219191D01*
X3168160Y-21204905D01*
X3211017Y-21204905D01*
X3239588Y-21219191D01*
X3253874Y-21247762D01*
X3253874Y-21404905D01*
X3396731Y-21404905D02*
X3396731Y-21204905D01*
X3396731Y-21233477D02*
X3411017Y-21219191D01*
X3439588Y-21204905D01*
X3482446Y-21204905D01*
X3511017Y-21219191D01*
X3525303Y-21247762D01*
X3525303Y-21404905D01*
X3525303Y-21247762D02*
X3539588Y-21219191D01*
X3568160Y-21204905D01*
X3611017Y-21204905D01*
X3639588Y-21219191D01*
X3653874Y-21247762D01*
X3653874Y-21404905D01*
X4239589Y-21090620D02*
X3982446Y-21476334D01*
X4625303Y-21104905D02*
X4653874Y-21104905D01*
X4682446Y-21119191D01*
X4696731Y-21133477D01*
X4711017Y-21162048D01*
X4725303Y-21219191D01*
X4725303Y-21290620D01*
X4711017Y-21347762D01*
X4696731Y-21376334D01*
X4682446Y-21390620D01*
X4653874Y-21404905D01*
X4625303Y-21404905D01*
X4596731Y-21390620D01*
X4582446Y-21376334D01*
X4568160Y-21347762D01*
X4553874Y-21290620D01*
X4553874Y-21219191D01*
X4568160Y-21162048D01*
X4582446Y-21133477D01*
X4596731Y-21119191D01*
X4625303Y-21104905D01*
X4853874Y-21376334D02*
X4868160Y-21390620D01*
X4853874Y-21404905D01*
X4839589Y-21390620D01*
X4853874Y-21376334D01*
X4853874Y-21404905D01*
X5053874Y-21104905D02*
X5082446Y-21104905D01*
X5111017Y-21119191D01*
X5125303Y-21133477D01*
X5139589Y-21162048D01*
X5153874Y-21219191D01*
X5153874Y-21290620D01*
X5139589Y-21347762D01*
X5125303Y-21376334D01*
X5111017Y-21390620D01*
X5082446Y-21404905D01*
X5053874Y-21404905D01*
X5025303Y-21390620D01*
X5011017Y-21376334D01*
X4996731Y-21347762D01*
X4982446Y-21290620D01*
X4982446Y-21219191D01*
X4996731Y-21162048D01*
X5011017Y-21133477D01*
X5025303Y-21119191D01*
X5053874Y-21104905D01*
X5411017Y-21204905D02*
X5411017Y-21404905D01*
X5339588Y-21090620D02*
X5268160Y-21304905D01*
X5453874Y-21304905D01*
X5539588Y-21104905D02*
X5739588Y-21104905D01*
X5611017Y-21404905D01*
X5839588Y-21133477D02*
X5853874Y-21119191D01*
X5882446Y-21104905D01*
X5953874Y-21104905D01*
X5982446Y-21119191D01*
X5996731Y-21133477D01*
X6011017Y-21162048D01*
X6011017Y-21190620D01*
X5996731Y-21233477D01*
X5825303Y-21404905D01*
X6011017Y-21404905D01*
X6125303Y-21104905D02*
X6125303Y-21162048D01*
X6239588Y-21104905D02*
X6239588Y-21162048D01*
X6682446Y-21519191D02*
X6668160Y-21504905D01*
X6639588Y-21462048D01*
X6625303Y-21433477D01*
X6611017Y-21390620D01*
X6596731Y-21319191D01*
X6596731Y-21262048D01*
X6611017Y-21190620D01*
X6625303Y-21147762D01*
X6639588Y-21119191D01*
X6668160Y-21076334D01*
X6682446Y-21062048D01*
X6953874Y-21404905D02*
X6782446Y-21404905D01*
X6868160Y-21404905D02*
X6868160Y-21104905D01*
X6839588Y-21147762D01*
X6811017Y-21176334D01*
X6782446Y-21190620D01*
X7125303Y-21233477D02*
X7096731Y-21219191D01*
X7082446Y-21204905D01*
X7068160Y-21176334D01*
X7068160Y-21162048D01*
X7082446Y-21133477D01*
X7096731Y-21119191D01*
X7125303Y-21104905D01*
X7182446Y-21104905D01*
X7211017Y-21119191D01*
X7225303Y-21133477D01*
X7239588Y-21162048D01*
X7239588Y-21176334D01*
X7225303Y-21204905D01*
X7211017Y-21219191D01*
X7182446Y-21233477D01*
X7125303Y-21233477D01*
X7096731Y-21247762D01*
X7082446Y-21262048D01*
X7068160Y-21290620D01*
X7068160Y-21347762D01*
X7082446Y-21376334D01*
X7096731Y-21390620D01*
X7125303Y-21404905D01*
X7182446Y-21404905D01*
X7211017Y-21390620D01*
X7225303Y-21376334D01*
X7239588Y-21347762D01*
X7239588Y-21290620D01*
X7225303Y-21262048D01*
X7211017Y-21247762D01*
X7182446Y-21233477D01*
X7425303Y-21104905D02*
X7453874Y-21104905D01*
X7482446Y-21119191D01*
X7496731Y-21133477D01*
X7511017Y-21162048D01*
X7525303Y-21219191D01*
X7525303Y-21290620D01*
X7511017Y-21347762D01*
X7496731Y-21376334D01*
X7482446Y-21390620D01*
X7453874Y-21404905D01*
X7425303Y-21404905D01*
X7396731Y-21390620D01*
X7382446Y-21376334D01*
X7368160Y-21347762D01*
X7353874Y-21290620D01*
X7353874Y-21219191D01*
X7368160Y-21162048D01*
X7382446Y-21133477D01*
X7396731Y-21119191D01*
X7425303Y-21104905D01*
X7882446Y-21404905D02*
X7882446Y-21104905D01*
X8011017Y-21404905D02*
X8011017Y-21247762D01*
X7996731Y-21219191D01*
X7968160Y-21204905D01*
X7925303Y-21204905D01*
X7896731Y-21219191D01*
X7882446Y-21233477D01*
X8196731Y-21404905D02*
X8168160Y-21390620D01*
X8153874Y-21376334D01*
X8139588Y-21347762D01*
X8139588Y-21262048D01*
X8153874Y-21233477D01*
X8168160Y-21219191D01*
X8196731Y-21204905D01*
X8239588Y-21204905D01*
X8268160Y-21219191D01*
X8282446Y-21233477D01*
X8296731Y-21262048D01*
X8296731Y-21347762D01*
X8282446Y-21376334D01*
X8268160Y-21390620D01*
X8239588Y-21404905D01*
X8196731Y-21404905D01*
X8468160Y-21404905D02*
X8439588Y-21390620D01*
X8425303Y-21362048D01*
X8425303Y-21104905D01*
X8696731Y-21390620D02*
X8668160Y-21404905D01*
X8611017Y-21404905D01*
X8582446Y-21390620D01*
X8568160Y-21362048D01*
X8568160Y-21247762D01*
X8582446Y-21219191D01*
X8611017Y-21204905D01*
X8668160Y-21204905D01*
X8696731Y-21219191D01*
X8711017Y-21247762D01*
X8711017Y-21276334D01*
X8568160Y-21304905D01*
X8825303Y-21390620D02*
X8853874Y-21404905D01*
X8911017Y-21404905D01*
X8939588Y-21390620D01*
X8953874Y-21362048D01*
X8953874Y-21347762D01*
X8939588Y-21319191D01*
X8911017Y-21304905D01*
X8868160Y-21304905D01*
X8839588Y-21290620D01*
X8825303Y-21262048D01*
X8825303Y-21247762D01*
X8839588Y-21219191D01*
X8868160Y-21204905D01*
X8911017Y-21204905D01*
X8939588Y-21219191D01*
X9053874Y-21519191D02*
X9068160Y-21504905D01*
X9096731Y-21462048D01*
X9111017Y-21433477D01*
X9125303Y-21390620D01*
X9139588Y-21319191D01*
X9139588Y-21262048D01*
X9125303Y-21190620D01*
X9111017Y-21147762D01*
X9096731Y-21119191D01*
X9068160Y-21076334D01*
X9053874Y-21062048D01*
X1351089Y-21738691D02*
X1424588Y-21665191D01*
X1351089Y-21591691D01*
X1277589Y-21665191D01*
X1351089Y-21738691D01*
X1868160Y-21800905D02*
X1696731Y-21800905D01*
X1782446Y-21800905D02*
X1782446Y-21500905D01*
X1753874Y-21543762D01*
X1725303Y-21572334D01*
X1696731Y-21586620D01*
X1996731Y-21772334D02*
X2011017Y-21786620D01*
X1996731Y-21800905D01*
X1982446Y-21786620D01*
X1996731Y-21772334D01*
X1996731Y-21800905D01*
X2268160Y-21600905D02*
X2268160Y-21800905D01*
X2196731Y-21486620D02*
X2125303Y-21700905D01*
X2311017Y-21700905D01*
X2396731Y-21500905D02*
X2596731Y-21500905D01*
X2468160Y-21800905D01*
X2768160Y-21500905D02*
X2796731Y-21500905D01*
X2825303Y-21515191D01*
X2839588Y-21529477D01*
X2853874Y-21558048D01*
X2868160Y-21615191D01*
X2868160Y-21686620D01*
X2853874Y-21743762D01*
X2839588Y-21772334D01*
X2825303Y-21786620D01*
X2796731Y-21800905D01*
X2768160Y-21800905D01*
X2739589Y-21786620D01*
X2725303Y-21772334D01*
X2711017Y-21743762D01*
X2696731Y-21686620D01*
X2696731Y-21615191D01*
X2711017Y-21558048D01*
X2725303Y-21529477D01*
X2739589Y-21515191D01*
X2768160Y-21500905D01*
X2996731Y-21800905D02*
X2996731Y-21600905D01*
X2996731Y-21629477D02*
X3011017Y-21615191D01*
X3039588Y-21600905D01*
X3082446Y-21600905D01*
X3111017Y-21615191D01*
X3125303Y-21643762D01*
X3125303Y-21800905D01*
X3125303Y-21643762D02*
X3139588Y-21615191D01*
X3168160Y-21600905D01*
X3211017Y-21600905D01*
X3239588Y-21615191D01*
X3253874Y-21643762D01*
X3253874Y-21800905D01*
X3396731Y-21800905D02*
X3396731Y-21600905D01*
X3396731Y-21629477D02*
X3411017Y-21615191D01*
X3439588Y-21600905D01*
X3482446Y-21600905D01*
X3511017Y-21615191D01*
X3525303Y-21643762D01*
X3525303Y-21800905D01*
X3525303Y-21643762D02*
X3539588Y-21615191D01*
X3568160Y-21600905D01*
X3611017Y-21600905D01*
X3639588Y-21615191D01*
X3653874Y-21643762D01*
X3653874Y-21800905D01*
X4239589Y-21486620D02*
X3982446Y-21872334D01*
X4625303Y-21500905D02*
X4653874Y-21500905D01*
X4682446Y-21515191D01*
X4696731Y-21529477D01*
X4711017Y-21558048D01*
X4725303Y-21615191D01*
X4725303Y-21686620D01*
X4711017Y-21743762D01*
X4696731Y-21772334D01*
X4682446Y-21786620D01*
X4653874Y-21800905D01*
X4625303Y-21800905D01*
X4596731Y-21786620D01*
X4582446Y-21772334D01*
X4568160Y-21743762D01*
X4553874Y-21686620D01*
X4553874Y-21615191D01*
X4568160Y-21558048D01*
X4582446Y-21529477D01*
X4596731Y-21515191D01*
X4625303Y-21500905D01*
X4853874Y-21772334D02*
X4868160Y-21786620D01*
X4853874Y-21800905D01*
X4839589Y-21786620D01*
X4853874Y-21772334D01*
X4853874Y-21800905D01*
X5053874Y-21500905D02*
X5082446Y-21500905D01*
X5111017Y-21515191D01*
X5125303Y-21529477D01*
X5139589Y-21558048D01*
X5153874Y-21615191D01*
X5153874Y-21686620D01*
X5139589Y-21743762D01*
X5125303Y-21772334D01*
X5111017Y-21786620D01*
X5082446Y-21800905D01*
X5053874Y-21800905D01*
X5025303Y-21786620D01*
X5011017Y-21772334D01*
X4996731Y-21743762D01*
X4982446Y-21686620D01*
X4982446Y-21615191D01*
X4996731Y-21558048D01*
X5011017Y-21529477D01*
X5025303Y-21515191D01*
X5053874Y-21500905D01*
X5425303Y-21500905D02*
X5282446Y-21500905D01*
X5268160Y-21643762D01*
X5282446Y-21629477D01*
X5311017Y-21615191D01*
X5382446Y-21615191D01*
X5411017Y-21629477D01*
X5425303Y-21643762D01*
X5439588Y-21672334D01*
X5439588Y-21743762D01*
X5425303Y-21772334D01*
X5411017Y-21786620D01*
X5382446Y-21800905D01*
X5311017Y-21800905D01*
X5282446Y-21786620D01*
X5268160Y-21772334D01*
X5539588Y-21500905D02*
X5739588Y-21500905D01*
X5611017Y-21800905D01*
X5868160Y-21800905D02*
X5925303Y-21800905D01*
X5953874Y-21786620D01*
X5968160Y-21772334D01*
X5996731Y-21729477D01*
X6011017Y-21672334D01*
X6011017Y-21558048D01*
X5996731Y-21529477D01*
X5982446Y-21515191D01*
X5953874Y-21500905D01*
X5896731Y-21500905D01*
X5868160Y-21515191D01*
X5853874Y-21529477D01*
X5839588Y-21558048D01*
X5839588Y-21629477D01*
X5853874Y-21658048D01*
X5868160Y-21672334D01*
X5896731Y-21686620D01*
X5953874Y-21686620D01*
X5982446Y-21672334D01*
X5996731Y-21658048D01*
X6011017Y-21629477D01*
X6125303Y-21500905D02*
X6125303Y-21558048D01*
X6239588Y-21500905D02*
X6239588Y-21558048D01*
X6682446Y-21915191D02*
X6668160Y-21900905D01*
X6639588Y-21858048D01*
X6625303Y-21829477D01*
X6611017Y-21786620D01*
X6596731Y-21715191D01*
X6596731Y-21658048D01*
X6611017Y-21586620D01*
X6625303Y-21543762D01*
X6639588Y-21515191D01*
X6668160Y-21472334D01*
X6682446Y-21458048D01*
X6768160Y-21500905D02*
X6953874Y-21500905D01*
X6853874Y-21615191D01*
X6896731Y-21615191D01*
X6925303Y-21629477D01*
X6939588Y-21643762D01*
X6953874Y-21672334D01*
X6953874Y-21743762D01*
X6939588Y-21772334D01*
X6925303Y-21786620D01*
X6896731Y-21800905D01*
X6811017Y-21800905D01*
X6782446Y-21786620D01*
X6768160Y-21772334D01*
X7211017Y-21500905D02*
X7153874Y-21500905D01*
X7125303Y-21515191D01*
X7111017Y-21529477D01*
X7082446Y-21572334D01*
X7068160Y-21629477D01*
X7068160Y-21743762D01*
X7082446Y-21772334D01*
X7096731Y-21786620D01*
X7125303Y-21800905D01*
X7182446Y-21800905D01*
X7211017Y-21786620D01*
X7225303Y-21772334D01*
X7239588Y-21743762D01*
X7239588Y-21672334D01*
X7225303Y-21643762D01*
X7211017Y-21629477D01*
X7182446Y-21615191D01*
X7125303Y-21615191D01*
X7096731Y-21629477D01*
X7082446Y-21643762D01*
X7068160Y-21672334D01*
X7425303Y-21500905D02*
X7453874Y-21500905D01*
X7482446Y-21515191D01*
X7496731Y-21529477D01*
X7511017Y-21558048D01*
X7525303Y-21615191D01*
X7525303Y-21686620D01*
X7511017Y-21743762D01*
X7496731Y-21772334D01*
X7482446Y-21786620D01*
X7453874Y-21800905D01*
X7425303Y-21800905D01*
X7396731Y-21786620D01*
X7382446Y-21772334D01*
X7368160Y-21743762D01*
X7353874Y-21686620D01*
X7353874Y-21615191D01*
X7368160Y-21558048D01*
X7382446Y-21529477D01*
X7396731Y-21515191D01*
X7425303Y-21500905D01*
X7882446Y-21800905D02*
X7882446Y-21500905D01*
X8011017Y-21800905D02*
X8011017Y-21643762D01*
X7996731Y-21615191D01*
X7968160Y-21600905D01*
X7925303Y-21600905D01*
X7896731Y-21615191D01*
X7882446Y-21629477D01*
X8196731Y-21800905D02*
X8168160Y-21786620D01*
X8153874Y-21772334D01*
X8139588Y-21743762D01*
X8139588Y-21658048D01*
X8153874Y-21629477D01*
X8168160Y-21615191D01*
X8196731Y-21600905D01*
X8239588Y-21600905D01*
X8268160Y-21615191D01*
X8282446Y-21629477D01*
X8296731Y-21658048D01*
X8296731Y-21743762D01*
X8282446Y-21772334D01*
X8268160Y-21786620D01*
X8239588Y-21800905D01*
X8196731Y-21800905D01*
X8468160Y-21800905D02*
X8439588Y-21786620D01*
X8425303Y-21758048D01*
X8425303Y-21500905D01*
X8696731Y-21786620D02*
X8668160Y-21800905D01*
X8611017Y-21800905D01*
X8582446Y-21786620D01*
X8568160Y-21758048D01*
X8568160Y-21643762D01*
X8582446Y-21615191D01*
X8611017Y-21600905D01*
X8668160Y-21600905D01*
X8696731Y-21615191D01*
X8711017Y-21643762D01*
X8711017Y-21672334D01*
X8568160Y-21700905D01*
X8825303Y-21786620D02*
X8853874Y-21800905D01*
X8911017Y-21800905D01*
X8939588Y-21786620D01*
X8953874Y-21758048D01*
X8953874Y-21743762D01*
X8939588Y-21715191D01*
X8911017Y-21700905D01*
X8868160Y-21700905D01*
X8839588Y-21686620D01*
X8825303Y-21658048D01*
X8825303Y-21643762D01*
X8839588Y-21615191D01*
X8868160Y-21600905D01*
X8911017Y-21600905D01*
X8939588Y-21615191D01*
X9053874Y-21915191D02*
X9068160Y-21900905D01*
X9096731Y-21858048D01*
X9111017Y-21829477D01*
X9125303Y-21786620D01*
X9139588Y-21715191D01*
X9139588Y-21658048D01*
X9125303Y-21586620D01*
X9111017Y-21543762D01*
X9096731Y-21515191D01*
X9068160Y-21472334D01*
X9053874Y-21458048D01*
X1204589Y-21951191D02*
X1424588Y-22171191D01*
X1424588Y-21951191D02*
X1204589Y-22171191D01*
X1424588Y-22061191D02*
G75*
G03*
X1424588Y-22061191I-110000J0D01*
G01*
X1696731Y-21925477D02*
X1711017Y-21911191D01*
X1739588Y-21896905D01*
X1811017Y-21896905D01*
X1839588Y-21911191D01*
X1853874Y-21925477D01*
X1868160Y-21954048D01*
X1868160Y-21982620D01*
X1853874Y-22025477D01*
X1682446Y-22196905D01*
X1868160Y-22196905D01*
X1996731Y-22168334D02*
X2011017Y-22182620D01*
X1996731Y-22196905D01*
X1982446Y-22182620D01*
X1996731Y-22168334D01*
X1996731Y-22196905D01*
X2125303Y-21925477D02*
X2139589Y-21911191D01*
X2168160Y-21896905D01*
X2239589Y-21896905D01*
X2268160Y-21911191D01*
X2282446Y-21925477D01*
X2296731Y-21954048D01*
X2296731Y-21982620D01*
X2282446Y-22025477D01*
X2111017Y-22196905D01*
X2296731Y-22196905D01*
X2482446Y-21896905D02*
X2511017Y-21896905D01*
X2539589Y-21911191D01*
X2553874Y-21925477D01*
X2568160Y-21954048D01*
X2582446Y-22011191D01*
X2582446Y-22082620D01*
X2568160Y-22139762D01*
X2553874Y-22168334D01*
X2539589Y-22182620D01*
X2511017Y-22196905D01*
X2482446Y-22196905D01*
X2453874Y-22182620D01*
X2439589Y-22168334D01*
X2425303Y-22139762D01*
X2411017Y-22082620D01*
X2411017Y-22011191D01*
X2425303Y-21954048D01*
X2439589Y-21925477D01*
X2453874Y-21911191D01*
X2482446Y-21896905D01*
X2768160Y-21896905D02*
X2796731Y-21896905D01*
X2825303Y-21911191D01*
X2839588Y-21925477D01*
X2853874Y-21954048D01*
X2868160Y-22011191D01*
X2868160Y-22082620D01*
X2853874Y-22139762D01*
X2839588Y-22168334D01*
X2825303Y-22182620D01*
X2796731Y-22196905D01*
X2768160Y-22196905D01*
X2739589Y-22182620D01*
X2725303Y-22168334D01*
X2711017Y-22139762D01*
X2696731Y-22082620D01*
X2696731Y-22011191D01*
X2711017Y-21954048D01*
X2725303Y-21925477D01*
X2739589Y-21911191D01*
X2768160Y-21896905D01*
X2996731Y-22196905D02*
X2996731Y-21996905D01*
X2996731Y-22025477D02*
X3011017Y-22011191D01*
X3039588Y-21996905D01*
X3082446Y-21996905D01*
X3111017Y-22011191D01*
X3125303Y-22039762D01*
X3125303Y-22196905D01*
X3125303Y-22039762D02*
X3139588Y-22011191D01*
X3168160Y-21996905D01*
X3211017Y-21996905D01*
X3239588Y-22011191D01*
X3253874Y-22039762D01*
X3253874Y-22196905D01*
X3396731Y-22196905D02*
X3396731Y-21996905D01*
X3396731Y-22025477D02*
X3411017Y-22011191D01*
X3439588Y-21996905D01*
X3482446Y-21996905D01*
X3511017Y-22011191D01*
X3525303Y-22039762D01*
X3525303Y-22196905D01*
X3525303Y-22039762D02*
X3539588Y-22011191D01*
X3568160Y-21996905D01*
X3611017Y-21996905D01*
X3639588Y-22011191D01*
X3653874Y-22039762D01*
X3653874Y-22196905D01*
X4239589Y-21882620D02*
X3982446Y-22268334D01*
X4625303Y-21896905D02*
X4653874Y-21896905D01*
X4682446Y-21911191D01*
X4696731Y-21925477D01*
X4711017Y-21954048D01*
X4725303Y-22011191D01*
X4725303Y-22082620D01*
X4711017Y-22139762D01*
X4696731Y-22168334D01*
X4682446Y-22182620D01*
X4653874Y-22196905D01*
X4625303Y-22196905D01*
X4596731Y-22182620D01*
X4582446Y-22168334D01*
X4568160Y-22139762D01*
X4553874Y-22082620D01*
X4553874Y-22011191D01*
X4568160Y-21954048D01*
X4582446Y-21925477D01*
X4596731Y-21911191D01*
X4625303Y-21896905D01*
X4853874Y-22168334D02*
X4868160Y-22182620D01*
X4853874Y-22196905D01*
X4839589Y-22182620D01*
X4853874Y-22168334D01*
X4853874Y-22196905D01*
X5053874Y-21896905D02*
X5082446Y-21896905D01*
X5111017Y-21911191D01*
X5125303Y-21925477D01*
X5139589Y-21954048D01*
X5153874Y-22011191D01*
X5153874Y-22082620D01*
X5139589Y-22139762D01*
X5125303Y-22168334D01*
X5111017Y-22182620D01*
X5082446Y-22196905D01*
X5053874Y-22196905D01*
X5025303Y-22182620D01*
X5011017Y-22168334D01*
X4996731Y-22139762D01*
X4982446Y-22082620D01*
X4982446Y-22011191D01*
X4996731Y-21954048D01*
X5011017Y-21925477D01*
X5025303Y-21911191D01*
X5053874Y-21896905D01*
X5325303Y-22025477D02*
X5296731Y-22011191D01*
X5282446Y-21996905D01*
X5268160Y-21968334D01*
X5268160Y-21954048D01*
X5282446Y-21925477D01*
X5296731Y-21911191D01*
X5325303Y-21896905D01*
X5382446Y-21896905D01*
X5411017Y-21911191D01*
X5425303Y-21925477D01*
X5439588Y-21954048D01*
X5439588Y-21968334D01*
X5425303Y-21996905D01*
X5411017Y-22011191D01*
X5382446Y-22025477D01*
X5325303Y-22025477D01*
X5296731Y-22039762D01*
X5282446Y-22054048D01*
X5268160Y-22082620D01*
X5268160Y-22139762D01*
X5282446Y-22168334D01*
X5296731Y-22182620D01*
X5325303Y-22196905D01*
X5382446Y-22196905D01*
X5411017Y-22182620D01*
X5425303Y-22168334D01*
X5439588Y-22139762D01*
X5439588Y-22082620D01*
X5425303Y-22054048D01*
X5411017Y-22039762D01*
X5382446Y-22025477D01*
X5696731Y-21896905D02*
X5639588Y-21896905D01*
X5611017Y-21911191D01*
X5596731Y-21925477D01*
X5568160Y-21968334D01*
X5553874Y-22025477D01*
X5553874Y-22139762D01*
X5568160Y-22168334D01*
X5582446Y-22182620D01*
X5611017Y-22196905D01*
X5668160Y-22196905D01*
X5696731Y-22182620D01*
X5711017Y-22168334D01*
X5725303Y-22139762D01*
X5725303Y-22068334D01*
X5711017Y-22039762D01*
X5696731Y-22025477D01*
X5668160Y-22011191D01*
X5611017Y-22011191D01*
X5582446Y-22025477D01*
X5568160Y-22039762D01*
X5553874Y-22068334D01*
X5982446Y-21896905D02*
X5925303Y-21896905D01*
X5896731Y-21911191D01*
X5882446Y-21925477D01*
X5853874Y-21968334D01*
X5839588Y-22025477D01*
X5839588Y-22139762D01*
X5853874Y-22168334D01*
X5868160Y-22182620D01*
X5896731Y-22196905D01*
X5953874Y-22196905D01*
X5982446Y-22182620D01*
X5996731Y-22168334D01*
X6011017Y-22139762D01*
X6011017Y-22068334D01*
X5996731Y-22039762D01*
X5982446Y-22025477D01*
X5953874Y-22011191D01*
X5896731Y-22011191D01*
X5868160Y-22025477D01*
X5853874Y-22039762D01*
X5839588Y-22068334D01*
X6125303Y-21896905D02*
X6125303Y-21954048D01*
X6239588Y-21896905D02*
X6239588Y-21954048D01*
X6682446Y-22311191D02*
X6668160Y-22296905D01*
X6639588Y-22254048D01*
X6625303Y-22225477D01*
X6611017Y-22182620D01*
X6596731Y-22111191D01*
X6596731Y-22054048D01*
X6611017Y-21982620D01*
X6625303Y-21939762D01*
X6639588Y-21911191D01*
X6668160Y-21868334D01*
X6682446Y-21854048D01*
X6782446Y-21925477D02*
X6796731Y-21911191D01*
X6825303Y-21896905D01*
X6896731Y-21896905D01*
X6925303Y-21911191D01*
X6939588Y-21925477D01*
X6953874Y-21954048D01*
X6953874Y-21982620D01*
X6939588Y-22025477D01*
X6768160Y-22196905D01*
X6953874Y-22196905D01*
X7211017Y-21996905D02*
X7211017Y-22196905D01*
X7139588Y-21882620D02*
X7068160Y-22096905D01*
X7253874Y-22096905D01*
X7596731Y-22196905D02*
X7596731Y-21896905D01*
X7725303Y-22196905D02*
X7725303Y-22039762D01*
X7711017Y-22011191D01*
X7682446Y-21996905D01*
X7639588Y-21996905D01*
X7611017Y-22011191D01*
X7596731Y-22025477D01*
X7911017Y-22196905D02*
X7882446Y-22182620D01*
X7868160Y-22168334D01*
X7853874Y-22139762D01*
X7853874Y-22054048D01*
X7868160Y-22025477D01*
X7882446Y-22011191D01*
X7911017Y-21996905D01*
X7953874Y-21996905D01*
X7982446Y-22011191D01*
X7996731Y-22025477D01*
X8011017Y-22054048D01*
X8011017Y-22139762D01*
X7996731Y-22168334D01*
X7982446Y-22182620D01*
X7953874Y-22196905D01*
X7911017Y-22196905D01*
X8182446Y-22196905D02*
X8153874Y-22182620D01*
X8139588Y-22154048D01*
X8139588Y-21896905D01*
X8411017Y-22182620D02*
X8382446Y-22196905D01*
X8325303Y-22196905D01*
X8296731Y-22182620D01*
X8282446Y-22154048D01*
X8282446Y-22039762D01*
X8296731Y-22011191D01*
X8325303Y-21996905D01*
X8382446Y-21996905D01*
X8411017Y-22011191D01*
X8425303Y-22039762D01*
X8425303Y-22068334D01*
X8282446Y-22096905D01*
X8539589Y-22182620D02*
X8568160Y-22196905D01*
X8625303Y-22196905D01*
X8653874Y-22182620D01*
X8668160Y-22154048D01*
X8668160Y-22139762D01*
X8653874Y-22111191D01*
X8625303Y-22096905D01*
X8582446Y-22096905D01*
X8553874Y-22082620D01*
X8539589Y-22054048D01*
X8539589Y-22039762D01*
X8553874Y-22011191D01*
X8582446Y-21996905D01*
X8625303Y-21996905D01*
X8653874Y-22011191D01*
X8768160Y-22311191D02*
X8782446Y-22296905D01*
X8811017Y-22254048D01*
X8825303Y-22225477D01*
X8839589Y-22182620D01*
X8853874Y-22111191D01*
X8853874Y-22054048D01*
X8839589Y-21982620D01*
X8825303Y-21939762D01*
X8811017Y-21911191D01*
X8782446Y-21868334D01*
X8768160Y-21854048D01*
M02*
