%FSLAX45Y45*%
G04 Gerber Fmt 4.5, Leading zero omitted, Abs format (unit mm)*
G04 Created by KiCad (PCBNEW (5.1.10)-1) date 2021-09-20 10:21:46*
%MOMM*%
%LPD*%
G01*
G04 APERTURE LIST*
%TA.AperFunction,Profile*%
%ADD10C,0.200000*%
%TD*%
%ADD11C,0.200000*%
%ADD12C,0.300000*%
G04 APERTURE END LIST*
D10*
X37564311Y-5657925D02*
X33760064Y-6677270D01*
X40529374Y-14791839D02*
X38176684Y-6011479D01*
X38394441Y-16295840D02*
X40268025Y-15369454D01*
X3804316Y-6004372D02*
X1451626Y-14784732D01*
X3678763Y-16323492D02*
X14056075Y-19104084D01*
X27924925Y-19111191D02*
X14056075Y-19104084D01*
X38176684Y-6011479D02*
G75*
G03*
X37564311Y-5657925I-482963J-129410D01*
G01*
X8220936Y-6670164D02*
X17272000Y-7620000D01*
X24765000Y-7620000D02*
X33760064Y-6677270D01*
X38302237Y-16330599D02*
X27924925Y-19111191D01*
X17272000Y-7620000D02*
X24765000Y-7620000D01*
X40268025Y-15369454D02*
G75*
G03*
X40529374Y-14791839I-221613J448205D01*
G01*
X38302237Y-16330599D02*
G75*
G03*
X38394441Y-16295840I-129410J482963D01*
G01*
X3678763Y-16323492D02*
G75*
G02*
X3586559Y-16288734I129410J482963D01*
G01*
X3804316Y-6004372D02*
G75*
G02*
X4416689Y-5650818I482963J-129410D01*
G01*
X8220936Y-6670164D02*
X4416689Y-5650818D01*
X1712975Y-15362347D02*
G75*
G02*
X1451626Y-14784732I221613J448205D01*
G01*
X1712975Y-15362346D02*
X3586559Y-16288734D01*
D11*
X20672700Y-8101500D02*
X20737700Y-8166500D01*
X20737700Y-8101500D02*
X20672700Y-8166500D01*
X21250700Y-8101500D02*
X21315700Y-8166500D01*
X21315700Y-8101500D02*
X21250700Y-8166500D01*
X2399374Y-14778164D02*
G75*
G03*
X2399374Y-14778164I-60000J0D01*
G01*
X2890179Y-12936471D02*
G75*
G03*
X2890179Y-12936471I-60000J0D01*
G01*
X3383981Y-11097566D02*
G75*
G03*
X3383981Y-11097566I-60000J0D01*
G01*
X3877132Y-9242830D02*
G75*
G03*
X3877132Y-9242830I-60000J0D01*
G01*
X4199838Y-15409023D02*
G75*
G03*
X4199838Y-15409023I-60000J0D01*
G01*
X4363986Y-7419932D02*
G75*
G03*
X4363986Y-7419932I-60000J0D01*
G01*
X4695599Y-13572809D02*
G75*
G03*
X4695599Y-13572809I-60000J0D01*
G01*
X5189039Y-11739341D02*
G75*
G03*
X5189039Y-11739341I-60000J0D01*
G01*
X5690109Y-9882102D02*
G75*
G03*
X5690109Y-9882102I-60000J0D01*
G01*
X6079116Y-15762182D02*
G75*
G03*
X6079116Y-15762182I-60000J0D01*
G01*
X6179786Y-8055489D02*
G75*
G03*
X6179786Y-8055489I-60000J0D01*
G01*
X6572526Y-13919439D02*
G75*
G03*
X6572526Y-13919439I-60000J0D01*
G01*
X7064011Y-12085166D02*
G75*
G03*
X7064011Y-12085166I-60000J0D01*
G01*
X7560200Y-10229103D02*
G75*
G03*
X7560200Y-10229103I-60000J0D01*
G01*
X8045138Y-15799561D02*
G75*
G03*
X8045138Y-15799561I-60000J0D01*
G01*
X8049438Y-8406415D02*
G75*
G03*
X8049438Y-8406415I-60000J0D01*
G01*
X8536300Y-13960743D02*
G75*
G03*
X8536300Y-13960743I-60000J0D01*
G01*
X9033841Y-12114131D02*
G75*
G03*
X9033841Y-12114131I-60000J0D01*
G01*
X9529221Y-10270240D02*
G75*
G03*
X9529221Y-10270240I-60000J0D01*
G01*
X9918224Y-16157861D02*
G75*
G03*
X9918224Y-16157861I-60000J0D01*
G01*
X10020554Y-8433335D02*
G75*
G03*
X10020554Y-8433335I-60000J0D01*
G01*
X10411353Y-14318511D02*
G75*
G03*
X10411353Y-14318511I-60000J0D01*
G01*
X10901883Y-12477575D02*
G75*
G03*
X10901883Y-12477575I-60000J0D01*
G01*
X11399638Y-10635626D02*
G75*
G03*
X11399638Y-10635626I-60000J0D01*
G01*
X11727516Y-16784184D02*
G75*
G03*
X11727516Y-16784184I-60000J0D01*
G01*
X11897809Y-8793905D02*
G75*
G03*
X11897809Y-8793905I-60000J0D01*
G01*
X12221460Y-14947234D02*
G75*
G03*
X12221460Y-14947234I-60000J0D01*
G01*
X12716947Y-13100644D02*
G75*
G03*
X12716947Y-13100644I-60000J0D01*
G01*
X13207253Y-11258876D02*
G75*
G03*
X13207253Y-11258876I-60000J0D01*
G01*
X13700263Y-9419247D02*
G75*
G03*
X13700263Y-9419247I-60000J0D01*
G01*
X13995668Y-15660420D02*
G75*
G03*
X13995668Y-15660420I-60000J0D01*
G01*
X14488381Y-13823688D02*
G75*
G03*
X14488381Y-13823688I-60000J0D01*
G01*
X14600645Y-18001272D02*
G75*
G03*
X14600645Y-18001272I-60000J0D01*
G01*
X14976578Y-11988663D02*
G75*
G03*
X14976578Y-11988663I-60000J0D01*
G01*
X15474293Y-10144129D02*
G75*
G03*
X15474293Y-10144129I-60000J0D01*
G01*
X17685998Y-14389789D02*
G75*
G03*
X17685998Y-14389789I-60000J0D01*
G01*
X17686003Y-10586886D02*
G75*
G03*
X17686003Y-10586886I-60000J0D01*
G01*
X17686246Y-12488706D02*
G75*
G03*
X17686246Y-12488706I-60000J0D01*
G01*
X17687021Y-16291996D02*
G75*
G03*
X17687021Y-16291996I-60000J0D01*
G01*
X17688421Y-18192234D02*
G75*
G03*
X17688421Y-18192234I-60000J0D01*
G01*
X19584394Y-10586962D02*
G75*
G03*
X19584394Y-10586962I-60000J0D01*
G01*
X19584923Y-12488816D02*
G75*
G03*
X19584923Y-12488816I-60000J0D01*
G01*
X19586121Y-14388914D02*
G75*
G03*
X19586121Y-14388914I-60000J0D01*
G01*
X19586135Y-16292028D02*
G75*
G03*
X19586135Y-16292028I-60000J0D01*
G01*
X19587371Y-18191290D02*
G75*
G03*
X19587371Y-18191290I-60000J0D01*
G01*
X21483760Y-14387780D02*
G75*
G03*
X21483760Y-14387780I-60000J0D01*
G01*
X21483924Y-12488814D02*
G75*
G03*
X21483924Y-12488814I-60000J0D01*
G01*
X21484810Y-10586985D02*
G75*
G03*
X21484810Y-10586985I-60000J0D01*
G01*
X21485469Y-16290384D02*
G75*
G03*
X21485469Y-16290384I-60000J0D01*
G01*
X21487960Y-18189349D02*
G75*
G03*
X21487960Y-18189349I-60000J0D01*
G01*
X23382030Y-12488834D02*
G75*
G03*
X23382030Y-12488834I-60000J0D01*
G01*
X23383470Y-14388483D02*
G75*
G03*
X23383470Y-14388483I-60000J0D01*
G01*
X23383695Y-10586970D02*
G75*
G03*
X23383695Y-10586970I-60000J0D01*
G01*
X23384275Y-18188274D02*
G75*
G03*
X23384275Y-18188274I-60000J0D01*
G01*
X23384664Y-16290112D02*
G75*
G03*
X23384664Y-16290112I-60000J0D01*
G01*
X25618783Y-10418654D02*
G75*
G03*
X25618783Y-10418654I-60000J0D01*
G01*
X26109720Y-12265746D02*
G75*
G03*
X26109720Y-12265746I-60000J0D01*
G01*
X26457787Y-18137542D02*
G75*
G03*
X26457787Y-18137542I-60000J0D01*
G01*
X26602512Y-14102535D02*
G75*
G03*
X26602512Y-14102535I-60000J0D01*
G01*
X27096135Y-15938121D02*
G75*
G03*
X27096135Y-15938121I-60000J0D01*
G01*
X27390792Y-9695894D02*
G75*
G03*
X27390792Y-9695894I-60000J0D01*
G01*
X27884932Y-11544216D02*
G75*
G03*
X27884932Y-11544216I-60000J0D01*
G01*
X28377936Y-13381178D02*
G75*
G03*
X28377936Y-13381178I-60000J0D01*
G01*
X28870688Y-15222569D02*
G75*
G03*
X28870688Y-15222569I-60000J0D01*
G01*
X29194393Y-9070632D02*
G75*
G03*
X29194393Y-9070632I-60000J0D01*
G01*
X29362593Y-17062250D02*
G75*
G03*
X29362593Y-17062250I-60000J0D01*
G01*
X29695682Y-10914414D02*
G75*
G03*
X29695682Y-10914414I-60000J0D01*
G01*
X30189978Y-12762203D02*
G75*
G03*
X30189978Y-12762203I-60000J0D01*
G01*
X30682910Y-14595526D02*
G75*
G03*
X30682910Y-14595526I-60000J0D01*
G01*
X31072887Y-8712391D02*
G75*
G03*
X31072887Y-8712391I-60000J0D01*
G01*
X31174337Y-16433038D02*
G75*
G03*
X31174337Y-16433038I-60000J0D01*
G01*
X31564963Y-10546870D02*
G75*
G03*
X31564963Y-10546870I-60000J0D01*
G01*
X32056650Y-12393294D02*
G75*
G03*
X32056650Y-12393294I-60000J0D01*
G01*
X32552710Y-14236987D02*
G75*
G03*
X32552710Y-14236987I-60000J0D01*
G01*
X33042770Y-8679206D02*
G75*
G03*
X33042770Y-8679206I-60000J0D01*
G01*
X33046388Y-16077715D02*
G75*
G03*
X33046388Y-16077715I-60000J0D01*
G01*
X33532233Y-10507350D02*
G75*
G03*
X33532233Y-10507350I-60000J0D01*
G01*
X34027392Y-12362640D02*
G75*
G03*
X34027392Y-12362640I-60000J0D01*
G01*
X34519908Y-14198597D02*
G75*
G03*
X34519908Y-14198597I-60000J0D01*
G01*
X34916267Y-8333991D02*
G75*
G03*
X34916267Y-8333991I-60000J0D01*
G01*
X35014508Y-16038089D02*
G75*
G03*
X35014508Y-16038089I-60000J0D01*
G01*
X35407071Y-10160917D02*
G75*
G03*
X35407071Y-10160917I-60000J0D01*
G01*
X35902729Y-12013291D02*
G75*
G03*
X35902729Y-12013291I-60000J0D01*
G01*
X36397408Y-13848042D02*
G75*
G03*
X36397408Y-13848042I-60000J0D01*
G01*
X36722437Y-7694762D02*
G75*
G03*
X36722437Y-7694762I-60000J0D01*
G01*
X36890710Y-15691053D02*
G75*
G03*
X36890710Y-15691053I-60000J0D01*
G01*
X37210253Y-9521850D02*
G75*
G03*
X37210253Y-9521850I-60000J0D01*
G01*
X37706227Y-11378837D02*
G75*
G03*
X37706227Y-11378837I-60000J0D01*
G01*
X38198963Y-13209987D02*
G75*
G03*
X38198963Y-13209987I-60000J0D01*
G01*
X38692521Y-15051423D02*
G75*
G03*
X38692521Y-15051423I-60000J0D01*
G01*
X2421033Y-14280228D02*
X2421033Y-14450228D01*
X2336033Y-14365228D02*
X2506033Y-14365228D01*
X2911837Y-12438536D02*
X2911837Y-12608536D01*
X2826837Y-12523536D02*
X2996837Y-12523536D01*
X3405639Y-10599630D02*
X3405639Y-10769630D01*
X3320639Y-10684630D02*
X3490639Y-10684630D01*
X3483551Y-14564929D02*
X3483551Y-14734929D01*
X3398551Y-14649929D02*
X3568551Y-14649929D01*
X3898790Y-8744894D02*
X3898790Y-8914894D01*
X3813790Y-8829894D02*
X3983790Y-8829894D01*
X3974355Y-12723237D02*
X3974355Y-12893237D01*
X3889355Y-12808237D02*
X4059355Y-12808237D01*
X4221496Y-14911088D02*
X4221496Y-15081088D01*
X4136496Y-14996088D02*
X4306496Y-14996088D01*
X4385644Y-6921996D02*
X4385644Y-7091996D01*
X4300644Y-7006996D02*
X4470644Y-7006996D01*
X4468158Y-10884331D02*
X4468158Y-11054331D01*
X4383158Y-10969331D02*
X4553158Y-10969331D01*
X4717257Y-13074873D02*
X4717257Y-13244873D01*
X4632257Y-13159873D02*
X4802257Y-13159873D01*
X4961309Y-9029595D02*
X4961309Y-9199595D01*
X4876309Y-9114595D02*
X5046309Y-9114595D01*
X5210698Y-11241405D02*
X5210698Y-11411405D01*
X5125698Y-11326405D02*
X5295698Y-11326405D01*
X5284015Y-15195789D02*
X5284015Y-15365789D01*
X5199015Y-15280789D02*
X5369015Y-15280789D01*
X5448162Y-7206697D02*
X5448162Y-7376697D01*
X5363162Y-7291697D02*
X5533162Y-7291697D01*
X5711767Y-9384167D02*
X5711767Y-9554167D01*
X5626767Y-9469167D02*
X5796767Y-9469167D01*
X5779775Y-13359574D02*
X5779775Y-13529574D01*
X5694775Y-13444574D02*
X5864775Y-13444574D01*
X6100774Y-15264247D02*
X6100774Y-15434247D01*
X6015774Y-15349247D02*
X6185774Y-15349247D01*
X6201444Y-7557553D02*
X6201444Y-7727553D01*
X6116444Y-7642553D02*
X6286444Y-7642553D01*
X6273216Y-11526106D02*
X6273216Y-11696106D01*
X6188216Y-11611106D02*
X6358216Y-11611106D01*
X6594184Y-13421503D02*
X6594184Y-13591503D01*
X6509184Y-13506503D02*
X6679184Y-13506503D01*
X6774285Y-9668868D02*
X6774285Y-9838868D01*
X6689285Y-9753868D02*
X6859285Y-9753868D01*
X7085669Y-11587230D02*
X7085669Y-11757230D01*
X7000669Y-11672230D02*
X7170669Y-11672230D01*
X7163293Y-15548948D02*
X7163293Y-15718948D01*
X7078293Y-15633948D02*
X7248293Y-15633948D01*
X7263962Y-7842254D02*
X7263962Y-8012254D01*
X7178962Y-7927254D02*
X7348962Y-7927254D01*
X7581858Y-9731167D02*
X7581858Y-9901167D01*
X7496858Y-9816167D02*
X7666858Y-9816167D01*
X7656703Y-13706204D02*
X7656703Y-13876204D01*
X7571703Y-13791204D02*
X7741703Y-13791204D01*
X8066796Y-15301625D02*
X8066796Y-15471625D01*
X7981796Y-15386625D02*
X8151796Y-15386625D01*
X8071096Y-7908479D02*
X8071096Y-8078479D01*
X7986096Y-7993479D02*
X8156096Y-7993479D01*
X8148187Y-11871931D02*
X8148187Y-12041931D01*
X8063187Y-11956931D02*
X8233187Y-11956931D01*
X8557958Y-13462807D02*
X8557958Y-13632807D01*
X8472958Y-13547807D02*
X8642958Y-13547807D01*
X8644376Y-10015868D02*
X8644376Y-10185868D01*
X8559376Y-10100868D02*
X8729376Y-10100868D01*
X9055499Y-11616195D02*
X9055499Y-11786195D01*
X8970499Y-11701195D02*
X9140499Y-11701195D01*
X9129314Y-15586326D02*
X9129314Y-15756326D01*
X9044314Y-15671326D02*
X9214314Y-15671326D01*
X9133615Y-8193180D02*
X9133615Y-8363180D01*
X9048615Y-8278180D02*
X9218615Y-8278180D01*
X9550879Y-9772305D02*
X9550879Y-9942305D01*
X9465879Y-9857305D02*
X9635879Y-9857305D01*
X9620476Y-13747508D02*
X9620476Y-13917508D01*
X9535476Y-13832508D02*
X9705476Y-13832508D01*
X9939882Y-15659925D02*
X9939882Y-15829925D01*
X9854882Y-15744925D02*
X10024882Y-15744925D01*
X10042212Y-7935400D02*
X10042212Y-8105400D01*
X9957212Y-8020400D02*
X10127212Y-8020400D01*
X10118017Y-11900896D02*
X10118017Y-12070896D01*
X10033017Y-11985896D02*
X10203017Y-11985896D01*
X10433011Y-13820575D02*
X10433011Y-13990575D01*
X10348011Y-13905575D02*
X10518011Y-13905575D01*
X10613398Y-10057006D02*
X10613398Y-10227006D01*
X10528398Y-10142006D02*
X10698398Y-10142006D01*
X10923541Y-11979639D02*
X10923541Y-12149639D01*
X10838541Y-12064639D02*
X11008541Y-12064639D01*
X11002400Y-15944626D02*
X11002400Y-16114626D01*
X10917400Y-16029626D02*
X11087400Y-16029626D01*
X11104731Y-8220101D02*
X11104731Y-8390101D01*
X11019731Y-8305101D02*
X11189731Y-8305101D01*
X11421296Y-10137691D02*
X11421296Y-10307691D01*
X11336296Y-10222691D02*
X11506296Y-10222691D01*
X11495530Y-14105276D02*
X11495530Y-14275276D01*
X11410530Y-14190276D02*
X11580530Y-14190276D01*
X11749175Y-16286248D02*
X11749175Y-16456248D01*
X11664175Y-16371248D02*
X11834175Y-16371248D01*
X11919467Y-8295969D02*
X11919467Y-8465970D01*
X11834467Y-8380969D02*
X12004467Y-8380969D01*
X11986059Y-12264340D02*
X11986059Y-12434340D01*
X11901059Y-12349340D02*
X12071059Y-12349340D01*
X12243118Y-14449299D02*
X12243118Y-14619299D01*
X12158118Y-14534299D02*
X12328118Y-14534299D01*
X12483814Y-10422392D02*
X12483814Y-10592392D01*
X12398814Y-10507392D02*
X12568814Y-10507392D01*
X12738605Y-12602709D02*
X12738605Y-12772709D01*
X12653605Y-12687709D02*
X12823605Y-12687709D01*
X12811693Y-16570949D02*
X12811693Y-16740949D01*
X12726693Y-16655949D02*
X12896693Y-16655949D01*
X12981985Y-8580671D02*
X12981985Y-8750671D01*
X12896985Y-8665671D02*
X13066985Y-8665671D01*
X13228911Y-10760940D02*
X13228911Y-10930940D01*
X13143911Y-10845940D02*
X13313911Y-10845940D01*
X13305637Y-14734000D02*
X13305637Y-14904000D01*
X13220637Y-14819000D02*
X13390637Y-14819000D01*
X13721921Y-8921311D02*
X13721921Y-9091311D01*
X13636921Y-9006311D02*
X13806921Y-9006311D01*
X13801123Y-12887410D02*
X13801123Y-13057410D01*
X13716123Y-12972410D02*
X13886123Y-12972410D01*
X14017326Y-15162485D02*
X14017326Y-15332485D01*
X13932326Y-15247485D02*
X14102326Y-15247485D01*
X14291430Y-11045641D02*
X14291430Y-11215641D01*
X14206430Y-11130641D02*
X14376430Y-11130641D01*
X14510039Y-13325753D02*
X14510039Y-13495753D01*
X14425039Y-13410753D02*
X14595039Y-13410753D01*
X14567705Y-17496211D02*
X14567705Y-17666211D01*
X14482705Y-17581211D02*
X14652705Y-17581211D01*
X14784439Y-9206012D02*
X14784439Y-9376012D01*
X14699439Y-9291012D02*
X14869439Y-9291012D01*
X14998236Y-11490727D02*
X14998236Y-11660727D01*
X14913236Y-11575727D02*
X15083236Y-11575727D01*
X15079845Y-15447186D02*
X15079845Y-15617186D01*
X14994845Y-15532186D02*
X15164845Y-15532186D01*
X15495951Y-9646193D02*
X15495951Y-9816193D01*
X15410951Y-9731193D02*
X15580951Y-9731193D01*
X15572557Y-13610454D02*
X15572557Y-13780454D01*
X15487557Y-13695454D02*
X15657557Y-13695454D01*
X15658295Y-17639789D02*
X15658295Y-17809789D01*
X15573295Y-17724789D02*
X15743295Y-17724789D01*
X16060755Y-11775428D02*
X16060755Y-11945428D01*
X15975755Y-11860428D02*
X16145755Y-11860428D01*
X16558470Y-9930894D02*
X16558470Y-10100894D01*
X16473470Y-10015894D02*
X16643470Y-10015894D01*
X17597998Y-13884789D02*
X17597998Y-14054789D01*
X17512998Y-13969789D02*
X17682998Y-13969789D01*
X17598003Y-10081886D02*
X17598003Y-10251886D01*
X17513003Y-10166886D02*
X17683003Y-10166886D01*
X17598246Y-11983706D02*
X17598246Y-12153706D01*
X17513246Y-12068706D02*
X17683246Y-12068706D01*
X17599021Y-15786996D02*
X17599021Y-15956996D01*
X17514021Y-15871996D02*
X17684021Y-15871996D01*
X17600421Y-17687234D02*
X17600421Y-17857234D01*
X17515421Y-17772234D02*
X17685421Y-17772234D01*
X18697998Y-13884789D02*
X18697998Y-14054789D01*
X18612998Y-13969789D02*
X18782998Y-13969789D01*
X18698003Y-10081886D02*
X18698003Y-10251886D01*
X18613003Y-10166886D02*
X18783003Y-10166886D01*
X18698246Y-11983706D02*
X18698246Y-12153706D01*
X18613246Y-12068706D02*
X18783246Y-12068706D01*
X18699021Y-15786996D02*
X18699021Y-15956996D01*
X18614021Y-15871996D02*
X18784021Y-15871996D01*
X18700421Y-17687234D02*
X18700421Y-17857234D01*
X18615421Y-17772234D02*
X18785421Y-17772234D01*
X19496394Y-10081962D02*
X19496394Y-10251962D01*
X19411394Y-10166962D02*
X19581394Y-10166962D01*
X19496923Y-11983816D02*
X19496923Y-12153816D01*
X19411923Y-12068816D02*
X19581923Y-12068816D01*
X19498121Y-13883914D02*
X19498121Y-14053914D01*
X19413121Y-13968914D02*
X19583121Y-13968914D01*
X19498135Y-15787028D02*
X19498135Y-15957028D01*
X19413135Y-15872028D02*
X19583135Y-15872028D01*
X19499371Y-17686290D02*
X19499371Y-17856290D01*
X19414371Y-17771290D02*
X19584371Y-17771290D01*
X20596394Y-10081962D02*
X20596394Y-10251962D01*
X20511394Y-10166962D02*
X20681394Y-10166962D01*
X20596923Y-11983816D02*
X20596923Y-12153816D01*
X20511923Y-12068816D02*
X20681923Y-12068816D01*
X20598121Y-13883914D02*
X20598121Y-14053914D01*
X20513121Y-13968914D02*
X20683121Y-13968914D01*
X20598135Y-15787028D02*
X20598135Y-15957028D01*
X20513135Y-15872028D02*
X20683135Y-15872028D01*
X20599371Y-17686290D02*
X20599371Y-17856290D01*
X20514371Y-17771290D02*
X20684371Y-17771290D01*
X21395760Y-13882780D02*
X21395760Y-14052780D01*
X21310760Y-13967780D02*
X21480760Y-13967780D01*
X21395924Y-11983814D02*
X21395924Y-12153814D01*
X21310924Y-12068814D02*
X21480924Y-12068814D01*
X21396810Y-10081985D02*
X21396810Y-10251985D01*
X21311810Y-10166985D02*
X21481810Y-10166985D01*
X21397469Y-15785384D02*
X21397469Y-15955384D01*
X21312469Y-15870384D02*
X21482469Y-15870384D01*
X21399960Y-17684349D02*
X21399960Y-17854349D01*
X21314960Y-17769349D02*
X21484960Y-17769349D01*
X22495760Y-13882780D02*
X22495760Y-14052780D01*
X22410760Y-13967780D02*
X22580760Y-13967780D01*
X22495924Y-11983814D02*
X22495924Y-12153814D01*
X22410924Y-12068814D02*
X22580924Y-12068814D01*
X22496810Y-10081985D02*
X22496810Y-10251985D01*
X22411810Y-10166985D02*
X22581810Y-10166985D01*
X22497468Y-15785384D02*
X22497468Y-15955384D01*
X22412468Y-15870384D02*
X22582468Y-15870384D01*
X22499960Y-17684349D02*
X22499960Y-17854349D01*
X22414960Y-17769349D02*
X22584960Y-17769349D01*
X23294030Y-11983834D02*
X23294030Y-12153834D01*
X23209030Y-12068834D02*
X23379030Y-12068834D01*
X23295470Y-13883483D02*
X23295470Y-14053483D01*
X23210470Y-13968483D02*
X23380470Y-13968483D01*
X23295695Y-10081970D02*
X23295695Y-10251970D01*
X23210695Y-10166970D02*
X23380695Y-10166970D01*
X23296275Y-17683274D02*
X23296275Y-17853274D01*
X23211275Y-17768274D02*
X23381275Y-17768274D01*
X23296664Y-15785112D02*
X23296664Y-15955112D01*
X23211664Y-15870112D02*
X23381664Y-15870112D01*
X24394030Y-11983834D02*
X24394030Y-12153834D01*
X24309030Y-12068834D02*
X24479030Y-12068834D01*
X24395470Y-13883483D02*
X24395470Y-14053483D01*
X24310470Y-13968483D02*
X24480470Y-13968483D01*
X24395695Y-10081970D02*
X24395695Y-10251970D01*
X24310695Y-10166970D02*
X24480695Y-10166970D01*
X24396275Y-17683274D02*
X24396275Y-17853274D01*
X24311275Y-17768274D02*
X24481275Y-17768274D01*
X24396664Y-15785112D02*
X24396664Y-15955112D01*
X24311664Y-15870112D02*
X24481664Y-15870112D01*
X25423033Y-9935212D02*
X25423033Y-10105212D01*
X25338033Y-10020212D02*
X25508033Y-10020212D01*
X25913970Y-11782304D02*
X25913970Y-11952304D01*
X25828970Y-11867304D02*
X25998970Y-11867304D01*
X26315205Y-17639789D02*
X26315205Y-17809789D01*
X26230205Y-17724789D02*
X26400205Y-17724789D01*
X26406762Y-13619093D02*
X26406762Y-13789093D01*
X26321762Y-13704093D02*
X26491762Y-13704093D01*
X26485551Y-9650511D02*
X26485551Y-9820511D01*
X26400551Y-9735511D02*
X26570551Y-9735511D01*
X26900385Y-15454679D02*
X26900385Y-15624679D01*
X26815385Y-15539679D02*
X26985385Y-15539679D01*
X26976489Y-11497603D02*
X26976489Y-11667603D01*
X26891489Y-11582603D02*
X27061489Y-11582603D01*
X27195042Y-9212452D02*
X27195042Y-9382452D01*
X27110042Y-9297452D02*
X27280042Y-9297452D01*
X27405795Y-17496211D02*
X27405795Y-17666211D01*
X27320795Y-17581211D02*
X27490795Y-17581211D01*
X27469280Y-13334392D02*
X27469280Y-13504392D01*
X27384280Y-13419392D02*
X27554280Y-13419392D01*
X27689182Y-11060774D02*
X27689182Y-11230774D01*
X27604182Y-11145774D02*
X27774182Y-11145774D01*
X27962904Y-15169978D02*
X27962904Y-15339978D01*
X27877904Y-15254978D02*
X28047904Y-15254978D01*
X28182186Y-12897736D02*
X28182186Y-13067736D01*
X28097186Y-12982736D02*
X28267186Y-12982736D01*
X28257561Y-8927751D02*
X28257561Y-9097751D01*
X28172561Y-9012751D02*
X28342561Y-9012751D01*
X28674938Y-14739127D02*
X28674938Y-14909127D01*
X28589938Y-14824127D02*
X28759938Y-14824127D01*
X28751700Y-10776073D02*
X28751700Y-10946073D01*
X28666700Y-10861073D02*
X28836700Y-10861073D01*
X28998643Y-8587190D02*
X28998643Y-8757190D01*
X28913643Y-8672190D02*
X29083643Y-8672190D01*
X29166843Y-16578808D02*
X29166843Y-16748808D01*
X29081843Y-16663808D02*
X29251843Y-16663808D01*
X29244705Y-12613035D02*
X29244705Y-12783035D01*
X29159705Y-12698035D02*
X29329705Y-12698035D01*
X29499932Y-10430972D02*
X29499932Y-10600972D01*
X29414932Y-10515972D02*
X29584932Y-10515972D01*
X29737457Y-14454426D02*
X29737457Y-14624426D01*
X29652457Y-14539426D02*
X29822457Y-14539426D01*
X29994228Y-12278761D02*
X29994228Y-12448761D01*
X29909228Y-12363761D02*
X30079228Y-12363761D01*
X30061161Y-8302489D02*
X30061161Y-8472489D01*
X29976161Y-8387489D02*
X30146161Y-8387489D01*
X30229361Y-16294107D02*
X30229361Y-16464107D01*
X30144361Y-16379107D02*
X30314361Y-16379107D01*
X30487161Y-14112084D02*
X30487161Y-14282084D01*
X30402161Y-14197084D02*
X30572161Y-14197084D01*
X30562451Y-10146271D02*
X30562451Y-10316271D01*
X30477451Y-10231271D02*
X30647451Y-10231271D01*
X30877137Y-8228949D02*
X30877137Y-8398949D01*
X30792137Y-8313949D02*
X30962137Y-8313949D01*
X30978587Y-15949597D02*
X30978587Y-16119597D01*
X30893587Y-16034597D02*
X31063587Y-16034597D01*
X31056747Y-11994060D02*
X31056747Y-12164060D01*
X30971747Y-12079060D02*
X31141747Y-12079060D01*
X31369213Y-10063428D02*
X31369213Y-10233428D01*
X31284213Y-10148428D02*
X31454213Y-10148428D01*
X31549679Y-13827383D02*
X31549679Y-13997383D01*
X31464679Y-13912383D02*
X31634679Y-13912383D01*
X31860900Y-11909852D02*
X31860900Y-12079852D01*
X31775900Y-11994852D02*
X31945900Y-11994852D01*
X31939656Y-7944248D02*
X31939656Y-8114248D01*
X31854656Y-8029248D02*
X32024656Y-8029248D01*
X32041106Y-15664896D02*
X32041106Y-15834896D01*
X31956106Y-15749896D02*
X32126106Y-15749896D01*
X32356960Y-13753546D02*
X32356960Y-13923546D01*
X32271960Y-13838546D02*
X32441960Y-13838546D01*
X32431731Y-9778727D02*
X32431731Y-9948727D01*
X32346731Y-9863727D02*
X32516731Y-9863727D01*
X32847020Y-8195764D02*
X32847020Y-8365764D01*
X32762020Y-8280764D02*
X32932020Y-8280764D01*
X32850638Y-15594273D02*
X32850638Y-15764273D01*
X32765638Y-15679273D02*
X32935638Y-15679273D01*
X32923418Y-11625151D02*
X32923418Y-11795151D01*
X32838418Y-11710151D02*
X33008418Y-11710151D01*
X33336483Y-10023908D02*
X33336483Y-10193908D01*
X33251483Y-10108908D02*
X33421483Y-10108908D01*
X33419479Y-13468845D02*
X33419479Y-13638845D01*
X33334479Y-13553845D02*
X33504479Y-13553845D01*
X33831642Y-11879198D02*
X33831642Y-12049198D01*
X33746642Y-11964198D02*
X33916642Y-11964198D01*
X33909538Y-7911063D02*
X33909538Y-8081063D01*
X33824538Y-7996063D02*
X33994538Y-7996063D01*
X33913156Y-15309572D02*
X33913156Y-15479572D01*
X33828156Y-15394572D02*
X33998156Y-15394572D01*
X34324158Y-13715156D02*
X34324158Y-13885156D01*
X34239158Y-13800156D02*
X34409158Y-13800156D01*
X34399002Y-9739207D02*
X34399002Y-9909207D01*
X34314002Y-9824207D02*
X34484002Y-9824207D01*
X34720517Y-7850549D02*
X34720517Y-8020549D01*
X34635517Y-7935549D02*
X34805517Y-7935549D01*
X34818758Y-15554647D02*
X34818758Y-15724647D01*
X34733758Y-15639647D02*
X34903758Y-15639647D01*
X34894160Y-11594497D02*
X34894160Y-11764497D01*
X34809160Y-11679497D02*
X34979160Y-11679497D01*
X35211322Y-9677475D02*
X35211322Y-9847475D01*
X35126322Y-9762475D02*
X35296322Y-9762475D01*
X35386676Y-13430455D02*
X35386676Y-13600455D01*
X35301676Y-13515455D02*
X35471676Y-13515455D01*
X35706979Y-11529849D02*
X35706979Y-11699849D01*
X35621979Y-11614849D02*
X35791979Y-11614849D01*
X35783036Y-7565848D02*
X35783036Y-7735848D01*
X35698036Y-7650848D02*
X35868036Y-7650848D01*
X35881276Y-15269946D02*
X35881276Y-15439946D01*
X35796276Y-15354946D02*
X35966276Y-15354946D01*
X36201658Y-13364600D02*
X36201658Y-13534600D01*
X36116658Y-13449600D02*
X36286658Y-13449600D01*
X36273840Y-9392774D02*
X36273840Y-9562774D01*
X36188840Y-9477774D02*
X36358840Y-9477774D01*
X36526687Y-7211321D02*
X36526687Y-7381321D01*
X36441687Y-7296321D02*
X36611687Y-7296321D01*
X36694960Y-15207611D02*
X36694960Y-15377611D01*
X36609960Y-15292611D02*
X36779960Y-15292611D01*
X36769498Y-11245148D02*
X36769498Y-11415148D01*
X36684498Y-11330148D02*
X36854498Y-11330148D01*
X37014503Y-9038408D02*
X37014503Y-9208408D01*
X36929503Y-9123408D02*
X37099503Y-9123408D01*
X37264177Y-13079899D02*
X37264177Y-13249899D01*
X37179177Y-13164899D02*
X37349177Y-13164899D01*
X37510478Y-10895395D02*
X37510478Y-11065395D01*
X37425478Y-10980395D02*
X37595478Y-10980395D01*
X37589205Y-6926620D02*
X37589205Y-7096620D01*
X37504205Y-7011620D02*
X37674205Y-7011620D01*
X37757478Y-14922910D02*
X37757478Y-15092910D01*
X37672478Y-15007910D02*
X37842478Y-15007910D01*
X38003213Y-12726545D02*
X38003213Y-12896545D01*
X37918213Y-12811545D02*
X38088213Y-12811545D01*
X38077022Y-8753707D02*
X38077022Y-8923707D01*
X37992022Y-8838707D02*
X38162022Y-8838707D01*
X38496771Y-14567981D02*
X38496771Y-14737981D01*
X38411771Y-14652981D02*
X38581771Y-14652981D01*
X38572996Y-10610694D02*
X38572996Y-10780694D01*
X38487996Y-10695694D02*
X38657996Y-10695694D01*
X39065731Y-12441844D02*
X39065731Y-12611844D01*
X38980731Y-12526844D02*
X39150731Y-12526844D01*
X39559290Y-14283280D02*
X39559290Y-14453280D01*
X39474290Y-14368280D02*
X39644290Y-14368280D01*
X2523474Y-14437971D02*
X2523474Y-14314226D01*
X2399729Y-14314226D01*
X2399729Y-14437971D01*
X2523474Y-14437971D01*
X3014278Y-12596278D02*
X3014278Y-12472534D01*
X2890533Y-12472534D01*
X2890533Y-12596278D01*
X3014278Y-12596278D01*
X3504854Y-14700931D02*
X3504854Y-14577186D01*
X3381110Y-14577186D01*
X3381110Y-14700931D01*
X3504854Y-14700931D01*
X3508081Y-10757373D02*
X3508081Y-10633628D01*
X3384336Y-10633628D01*
X3384336Y-10757373D01*
X3508081Y-10757373D01*
X3995659Y-12859239D02*
X3995659Y-12735494D01*
X3871914Y-12735494D01*
X3871914Y-12859239D01*
X3995659Y-12859239D01*
X4001231Y-8902637D02*
X4001231Y-8778892D01*
X3877487Y-8778892D01*
X3877487Y-8902637D01*
X4001231Y-8902637D01*
X4323937Y-15068830D02*
X4323937Y-14945086D01*
X4200193Y-14945086D01*
X4200193Y-15068830D01*
X4323937Y-15068830D01*
X4488085Y-7079739D02*
X4488085Y-6955994D01*
X4364340Y-6955994D01*
X4364340Y-7079739D01*
X4488085Y-7079739D01*
X4489461Y-11020333D02*
X4489461Y-10896589D01*
X4365717Y-10896589D01*
X4365717Y-11020333D01*
X4489461Y-11020333D01*
X4819698Y-13232616D02*
X4819698Y-13108871D01*
X4695953Y-13108871D01*
X4695953Y-13232616D01*
X4819698Y-13232616D01*
X4982612Y-9165597D02*
X4982612Y-9041852D01*
X4858867Y-9041852D01*
X4858867Y-9165597D01*
X4982612Y-9165597D01*
X5305318Y-15331791D02*
X5305318Y-15208046D01*
X5181573Y-15208046D01*
X5181573Y-15331791D01*
X5305318Y-15331791D01*
X5313139Y-11399148D02*
X5313139Y-11275403D01*
X5189394Y-11275403D01*
X5189394Y-11399148D01*
X5313139Y-11399148D01*
X5469466Y-7342699D02*
X5469466Y-7218954D01*
X5345721Y-7218954D01*
X5345721Y-7342699D01*
X5469466Y-7342699D01*
X5801079Y-13495576D02*
X5801079Y-13371831D01*
X5677334Y-13371831D01*
X5677334Y-13495576D01*
X5801079Y-13495576D01*
X5814208Y-9541909D02*
X5814208Y-9418165D01*
X5690463Y-9418165D01*
X5690463Y-9541909D01*
X5814208Y-9541909D01*
X6203216Y-15421989D02*
X6203216Y-15298245D01*
X6079471Y-15298245D01*
X6079471Y-15421989D01*
X6203216Y-15421989D01*
X6294519Y-11662108D02*
X6294519Y-11538363D01*
X6170775Y-11538363D01*
X6170775Y-11662108D01*
X6294519Y-11662108D01*
X6303885Y-7715296D02*
X6303885Y-7591551D01*
X6180140Y-7591551D01*
X6180140Y-7715296D01*
X6303885Y-7715296D01*
X6696626Y-13579246D02*
X6696626Y-13455501D01*
X6572881Y-13455501D01*
X6572881Y-13579246D01*
X6696626Y-13579246D01*
X6795589Y-9804870D02*
X6795589Y-9681125D01*
X6671844Y-9681125D01*
X6671844Y-9804870D01*
X6795589Y-9804870D01*
X7184596Y-15684950D02*
X7184596Y-15561205D01*
X7060852Y-15561205D01*
X7060852Y-15684950D01*
X7184596Y-15684950D01*
X7188110Y-11744973D02*
X7188110Y-11621228D01*
X7064365Y-11621228D01*
X7064365Y-11744973D01*
X7188110Y-11744973D01*
X7285266Y-7978256D02*
X7285266Y-7854511D01*
X7161521Y-7854511D01*
X7161521Y-7978256D01*
X7285266Y-7978256D01*
X7678006Y-13842206D02*
X7678006Y-13718462D01*
X7554261Y-13718462D01*
X7554261Y-13842206D01*
X7678006Y-13842206D01*
X7684299Y-9888910D02*
X7684299Y-9765165D01*
X7560554Y-9765165D01*
X7560554Y-9888910D01*
X7684299Y-9888910D01*
X8169237Y-15459368D02*
X8169237Y-15335623D01*
X8045492Y-15335623D01*
X8045492Y-15459368D01*
X8169237Y-15459368D01*
X8169491Y-12007933D02*
X8169491Y-11884189D01*
X8045746Y-11884189D01*
X8045746Y-12007933D01*
X8169491Y-12007933D01*
X8173537Y-8066221D02*
X8173537Y-7942477D01*
X8049793Y-7942477D01*
X8049793Y-8066221D01*
X8173537Y-8066221D01*
X8660399Y-13620550D02*
X8660399Y-13496805D01*
X8536654Y-13496805D01*
X8536654Y-13620550D01*
X8660399Y-13620550D01*
X8665680Y-10151870D02*
X8665680Y-10028125D01*
X8541935Y-10028125D01*
X8541935Y-10151870D01*
X8665680Y-10151870D01*
X9150618Y-15722328D02*
X9150618Y-15598583D01*
X9026873Y-15598583D01*
X9026873Y-15722328D01*
X9150618Y-15722328D01*
X9154918Y-8329182D02*
X9154918Y-8205437D01*
X9031173Y-8205437D01*
X9031173Y-8329182D01*
X9154918Y-8329182D01*
X9157940Y-11773938D02*
X9157940Y-11650193D01*
X9034196Y-11650193D01*
X9034196Y-11773938D01*
X9157940Y-11773938D01*
X9641780Y-13883510D02*
X9641780Y-13759765D01*
X9518035Y-13759765D01*
X9518035Y-13883510D01*
X9641780Y-13883510D01*
X9653321Y-9930047D02*
X9653321Y-9806303D01*
X9529576Y-9806303D01*
X9529576Y-9930047D01*
X9653321Y-9930047D01*
X10042323Y-15817668D02*
X10042323Y-15693923D01*
X9918578Y-15693923D01*
X9918578Y-15817668D01*
X10042323Y-15817668D01*
X10139321Y-12036898D02*
X10139321Y-11913153D01*
X10015576Y-11913153D01*
X10015576Y-12036898D01*
X10139321Y-12036898D01*
X10144654Y-8093142D02*
X10144654Y-7969398D01*
X10020909Y-7969398D01*
X10020909Y-8093142D01*
X10144654Y-8093142D01*
X10535453Y-13978318D02*
X10535453Y-13854573D01*
X10411708Y-13854573D01*
X10411708Y-13978318D01*
X10535453Y-13978318D01*
X10634701Y-10193008D02*
X10634701Y-10069263D01*
X10510956Y-10069263D01*
X10510956Y-10193008D01*
X10634701Y-10193008D01*
X11023704Y-16080628D02*
X11023704Y-15956883D01*
X10899959Y-15956883D01*
X10899959Y-16080628D01*
X11023704Y-16080628D01*
X11025982Y-12137382D02*
X11025982Y-12013637D01*
X10902238Y-12013637D01*
X10902238Y-12137382D01*
X11025982Y-12137382D01*
X11126034Y-8356103D02*
X11126034Y-8232358D01*
X11002290Y-8232358D01*
X11002290Y-8356103D01*
X11126034Y-8356103D01*
X11516833Y-14241278D02*
X11516833Y-14117533D01*
X11393088Y-14117533D01*
X11393088Y-14241278D01*
X11516833Y-14241278D01*
X11523737Y-10295433D02*
X11523737Y-10171689D01*
X11399993Y-10171689D01*
X11399993Y-10295433D01*
X11523737Y-10295433D01*
X11851616Y-16443991D02*
X11851616Y-16320246D01*
X11727871Y-16320246D01*
X11727871Y-16443991D01*
X11851616Y-16443991D01*
X12007363Y-12400342D02*
X12007363Y-12276597D01*
X11883618Y-12276597D01*
X11883618Y-12400342D01*
X12007363Y-12400342D01*
X12021908Y-8453712D02*
X12021908Y-8329967D01*
X11898163Y-8329967D01*
X11898163Y-8453712D01*
X12021908Y-8453712D01*
X12345560Y-14607041D02*
X12345560Y-14483297D01*
X12221815Y-14483297D01*
X12221815Y-14607041D01*
X12345560Y-14607041D01*
X12505118Y-10558394D02*
X12505118Y-10434649D01*
X12381373Y-10434649D01*
X12381373Y-10558394D01*
X12505118Y-10558394D01*
X12832996Y-16706951D02*
X12832996Y-16583206D01*
X12709252Y-16583206D01*
X12709252Y-16706951D01*
X12832996Y-16706951D01*
X12841046Y-12760451D02*
X12841046Y-12636707D01*
X12717301Y-12636707D01*
X12717301Y-12760451D01*
X12841046Y-12760451D01*
X13003289Y-8716673D02*
X13003289Y-8592928D01*
X12879544Y-8592928D01*
X12879544Y-8716673D01*
X13003289Y-8716673D01*
X13326940Y-14870002D02*
X13326940Y-14746257D01*
X13203195Y-14746257D01*
X13203195Y-14870002D01*
X13326940Y-14870002D01*
X13331352Y-10918683D02*
X13331352Y-10794938D01*
X13207608Y-10794938D01*
X13207608Y-10918683D01*
X13331352Y-10918683D01*
X13822427Y-13023412D02*
X13822427Y-12899667D01*
X13698682Y-12899667D01*
X13698682Y-13023412D01*
X13822427Y-13023412D01*
X13824362Y-9079054D02*
X13824362Y-8955309D01*
X13700617Y-8955309D01*
X13700617Y-9079054D01*
X13824362Y-9079054D01*
X14119768Y-15320227D02*
X14119768Y-15196483D01*
X13996023Y-15196483D01*
X13996023Y-15320227D01*
X14119768Y-15320227D01*
X14312733Y-11181643D02*
X14312733Y-11057898D01*
X14188988Y-11057898D01*
X14188988Y-11181643D01*
X14312733Y-11181643D01*
X14612480Y-13483495D02*
X14612480Y-13359751D01*
X14488735Y-13359751D01*
X14488735Y-13483495D01*
X14612480Y-13483495D01*
X14671218Y-17648565D02*
X14671218Y-17524820D01*
X14547474Y-17524820D01*
X14547474Y-17648565D01*
X14671218Y-17648565D01*
X14805743Y-9342014D02*
X14805743Y-9218270D01*
X14681998Y-9218270D01*
X14681998Y-9342014D01*
X14805743Y-9342014D01*
X15100677Y-11648470D02*
X15100677Y-11524725D01*
X14976933Y-11524725D01*
X14976933Y-11648470D01*
X15100677Y-11648470D01*
X15101148Y-15583188D02*
X15101148Y-15459443D01*
X14977403Y-15459443D01*
X14977403Y-15583188D01*
X15101148Y-15583188D01*
X15593861Y-13746456D02*
X15593861Y-13622711D01*
X15470116Y-13622711D01*
X15470116Y-13746456D01*
X15593861Y-13746456D01*
X15598393Y-9803936D02*
X15598393Y-9680191D01*
X15474648Y-9680191D01*
X15474648Y-9803936D01*
X15598393Y-9803936D01*
X15678526Y-17781180D02*
X15678526Y-17657435D01*
X15554782Y-17657435D01*
X15554782Y-17781180D01*
X15678526Y-17781180D01*
X16082058Y-11911430D02*
X16082058Y-11787686D01*
X15958313Y-11787686D01*
X15958313Y-11911430D01*
X16082058Y-11911430D01*
X16579773Y-10066896D02*
X16579773Y-9943152D01*
X16456029Y-9943152D01*
X16456029Y-10066896D01*
X16579773Y-10066896D01*
X17701871Y-14031661D02*
X17701871Y-13907917D01*
X17578126Y-13907917D01*
X17578126Y-14031661D01*
X17701871Y-14031661D01*
X17701875Y-10228758D02*
X17701875Y-10105014D01*
X17578130Y-10105014D01*
X17578130Y-10228758D01*
X17701875Y-10228758D01*
X17702119Y-12130578D02*
X17702119Y-12006833D01*
X17578374Y-12006833D01*
X17578374Y-12130578D01*
X17702119Y-12130578D01*
X17702893Y-15933869D02*
X17702893Y-15810124D01*
X17579149Y-15810124D01*
X17579149Y-15933869D01*
X17702893Y-15933869D01*
X17704293Y-17834106D02*
X17704293Y-17710361D01*
X17580548Y-17710361D01*
X17580548Y-17834106D01*
X17704293Y-17834106D01*
X18717871Y-14031661D02*
X18717871Y-13907917D01*
X18594126Y-13907917D01*
X18594126Y-14031661D01*
X18717871Y-14031661D01*
X18717875Y-10228758D02*
X18717875Y-10105014D01*
X18594130Y-10105014D01*
X18594130Y-10228758D01*
X18717875Y-10228758D01*
X18718119Y-12130578D02*
X18718119Y-12006833D01*
X18594374Y-12006833D01*
X18594374Y-12130578D01*
X18718119Y-12130578D01*
X18718893Y-15933869D02*
X18718893Y-15810124D01*
X18595149Y-15810124D01*
X18595149Y-15933869D01*
X18718893Y-15933869D01*
X18720293Y-17834106D02*
X18720293Y-17710361D01*
X18596548Y-17710361D01*
X18596548Y-17834106D01*
X18720293Y-17834106D01*
X19600266Y-10228835D02*
X19600266Y-10105090D01*
X19476521Y-10105090D01*
X19476521Y-10228835D01*
X19600266Y-10228835D01*
X19600796Y-12130688D02*
X19600796Y-12006943D01*
X19477051Y-12006943D01*
X19477051Y-12130688D01*
X19600796Y-12130688D01*
X19601993Y-14030787D02*
X19601993Y-13907042D01*
X19478249Y-13907042D01*
X19478249Y-14030787D01*
X19601993Y-14030787D01*
X19602007Y-15933900D02*
X19602007Y-15810155D01*
X19478262Y-15810155D01*
X19478262Y-15933900D01*
X19602007Y-15933900D01*
X19603244Y-17833162D02*
X19603244Y-17709417D01*
X19479499Y-17709417D01*
X19479499Y-17833162D01*
X19603244Y-17833162D01*
X20616266Y-10228835D02*
X20616266Y-10105090D01*
X20492521Y-10105090D01*
X20492521Y-10228835D01*
X20616266Y-10228835D01*
X20616796Y-12130688D02*
X20616796Y-12006943D01*
X20493051Y-12006943D01*
X20493051Y-12130688D01*
X20616796Y-12130688D01*
X20617993Y-14030787D02*
X20617993Y-13907042D01*
X20494249Y-13907042D01*
X20494249Y-14030787D01*
X20617993Y-14030787D01*
X20618007Y-15933900D02*
X20618007Y-15810155D01*
X20494262Y-15810155D01*
X20494262Y-15933900D01*
X20618007Y-15933900D01*
X20619244Y-17833162D02*
X20619244Y-17709417D01*
X20495499Y-17709417D01*
X20495499Y-17833162D01*
X20619244Y-17833162D01*
X21499632Y-14029653D02*
X21499632Y-13905908D01*
X21375888Y-13905908D01*
X21375888Y-14029653D01*
X21499632Y-14029653D01*
X21499797Y-12130686D02*
X21499797Y-12006941D01*
X21376052Y-12006941D01*
X21376052Y-12130686D01*
X21499797Y-12130686D01*
X21500682Y-10228857D02*
X21500682Y-10105113D01*
X21376938Y-10105113D01*
X21376938Y-10228857D01*
X21500682Y-10228857D01*
X21501341Y-15932257D02*
X21501341Y-15808512D01*
X21377596Y-15808512D01*
X21377596Y-15932257D01*
X21501341Y-15932257D01*
X21503832Y-17831222D02*
X21503832Y-17707477D01*
X21380088Y-17707477D01*
X21380088Y-17831222D01*
X21503832Y-17831222D01*
X22515632Y-14029653D02*
X22515632Y-13905908D01*
X22391888Y-13905908D01*
X22391888Y-14029653D01*
X22515632Y-14029653D01*
X22515797Y-12130686D02*
X22515797Y-12006941D01*
X22392052Y-12006941D01*
X22392052Y-12130686D01*
X22515797Y-12130686D01*
X22516682Y-10228857D02*
X22516682Y-10105113D01*
X22392937Y-10105113D01*
X22392937Y-10228857D01*
X22516682Y-10228857D01*
X22517341Y-15932257D02*
X22517341Y-15808512D01*
X22393596Y-15808512D01*
X22393596Y-15932257D01*
X22517341Y-15932257D01*
X22519832Y-17831222D02*
X22519832Y-17707477D01*
X22396087Y-17707477D01*
X22396087Y-17831222D01*
X22519832Y-17831222D01*
X23397903Y-12130707D02*
X23397903Y-12006962D01*
X23274158Y-12006962D01*
X23274158Y-12130707D01*
X23397903Y-12130707D01*
X23399343Y-14030356D02*
X23399343Y-13906611D01*
X23275598Y-13906611D01*
X23275598Y-14030356D01*
X23399343Y-14030356D01*
X23399567Y-10228843D02*
X23399567Y-10105098D01*
X23275822Y-10105098D01*
X23275822Y-10228843D01*
X23399567Y-10228843D01*
X23400148Y-17830147D02*
X23400148Y-17706402D01*
X23276403Y-17706402D01*
X23276403Y-17830147D01*
X23400148Y-17830147D01*
X23400537Y-15931984D02*
X23400537Y-15808239D01*
X23276792Y-15808239D01*
X23276792Y-15931984D01*
X23400537Y-15931984D01*
X24413903Y-12130707D02*
X24413903Y-12006962D01*
X24290158Y-12006962D01*
X24290158Y-12130707D01*
X24413903Y-12130707D01*
X24415343Y-14030356D02*
X24415343Y-13906611D01*
X24291598Y-13906611D01*
X24291598Y-14030356D01*
X24415343Y-14030356D01*
X24415567Y-10228843D02*
X24415567Y-10105098D01*
X24291822Y-10105098D01*
X24291822Y-10228843D01*
X24415567Y-10228843D01*
X24416148Y-17830147D02*
X24416148Y-17706402D01*
X24292403Y-17706402D01*
X24292403Y-17830147D01*
X24416148Y-17830147D01*
X24416537Y-15931984D02*
X24416537Y-15808239D01*
X24292792Y-15808239D01*
X24292792Y-15931984D01*
X24416537Y-15931984D01*
X25525474Y-10071214D02*
X25525474Y-9947469D01*
X25401730Y-9947469D01*
X25401730Y-10071214D01*
X25525474Y-10071214D01*
X26016412Y-11918306D02*
X26016412Y-11794561D01*
X25892667Y-11794561D01*
X25892667Y-11918306D01*
X26016412Y-11918306D01*
X26418718Y-17781180D02*
X26418718Y-17657435D01*
X26294974Y-17657435D01*
X26294974Y-17781180D01*
X26418718Y-17781180D01*
X26506855Y-9808254D02*
X26506855Y-9684509D01*
X26383110Y-9684509D01*
X26383110Y-9808254D01*
X26506855Y-9808254D01*
X26509203Y-13755095D02*
X26509203Y-13631350D01*
X26385458Y-13631350D01*
X26385458Y-13755095D01*
X26509203Y-13755095D01*
X26997792Y-11655346D02*
X26997792Y-11531601D01*
X26874047Y-11531601D01*
X26874047Y-11655346D01*
X26997792Y-11655346D01*
X27002827Y-15590681D02*
X27002827Y-15466936D01*
X26879082Y-15466936D01*
X26879082Y-15590681D01*
X27002827Y-15590681D01*
X27297484Y-9348454D02*
X27297484Y-9224709D01*
X27173739Y-9224709D01*
X27173739Y-9348454D01*
X27297484Y-9348454D01*
X27426026Y-17648565D02*
X27426026Y-17524820D01*
X27302282Y-17524820D01*
X27302282Y-17648565D01*
X27426026Y-17648565D01*
X27490584Y-13492135D02*
X27490584Y-13368390D01*
X27366839Y-13368390D01*
X27366839Y-13492135D01*
X27490584Y-13492135D01*
X27791623Y-11196776D02*
X27791623Y-11073031D01*
X27667878Y-11073031D01*
X27667878Y-11196776D01*
X27791623Y-11196776D01*
X27984207Y-15327721D02*
X27984207Y-15203976D01*
X27860462Y-15203976D01*
X27860462Y-15327721D01*
X27984207Y-15327721D01*
X28278864Y-9085494D02*
X28278864Y-8961749D01*
X28155119Y-8961749D01*
X28155119Y-9085494D01*
X28278864Y-9085494D01*
X28284628Y-13033738D02*
X28284628Y-12909993D01*
X28160883Y-12909993D01*
X28160883Y-13033738D01*
X28284628Y-13033738D01*
X28773004Y-10933816D02*
X28773004Y-10810071D01*
X28649259Y-10810071D01*
X28649259Y-10933816D01*
X28773004Y-10933816D01*
X28777379Y-14875129D02*
X28777379Y-14751384D01*
X28653635Y-14751384D01*
X28653635Y-14875129D01*
X28777379Y-14875129D01*
X29101084Y-8723192D02*
X29101084Y-8599448D01*
X28977340Y-8599448D01*
X28977340Y-8723192D01*
X29101084Y-8723192D01*
X29266008Y-12770777D02*
X29266008Y-12647033D01*
X29142263Y-12647033D01*
X29142263Y-12770777D01*
X29266008Y-12770777D01*
X29269284Y-16714810D02*
X29269284Y-16591065D01*
X29145539Y-16591065D01*
X29145539Y-16714810D01*
X29269284Y-16714810D01*
X29602374Y-10566974D02*
X29602374Y-10443229D01*
X29478629Y-10443229D01*
X29478629Y-10566974D01*
X29602374Y-10566974D01*
X29758760Y-14612169D02*
X29758760Y-14488424D01*
X29635015Y-14488424D01*
X29635015Y-14612169D01*
X29758760Y-14612169D01*
X30082465Y-8460232D02*
X30082465Y-8336487D01*
X29958720Y-8336487D01*
X29958720Y-8460232D01*
X30082465Y-8460232D01*
X30096670Y-12414763D02*
X30096670Y-12291019D01*
X29972925Y-12291019D01*
X29972925Y-12414763D01*
X30096670Y-12414763D01*
X30250665Y-16451849D02*
X30250665Y-16328105D01*
X30126920Y-16328105D01*
X30126920Y-16451849D01*
X30250665Y-16451849D01*
X30583754Y-10304014D02*
X30583754Y-10180269D01*
X30460009Y-10180269D01*
X30460009Y-10304014D01*
X30583754Y-10304014D01*
X30589602Y-14248086D02*
X30589602Y-14124342D01*
X30465857Y-14124342D01*
X30465857Y-14248086D01*
X30589602Y-14248086D01*
X30979578Y-8364951D02*
X30979578Y-8241206D01*
X30855834Y-8241206D01*
X30855834Y-8364951D01*
X30979578Y-8364951D01*
X31078050Y-12151803D02*
X31078050Y-12028058D01*
X30954306Y-12028058D01*
X30954306Y-12151803D01*
X31078050Y-12151803D01*
X31081029Y-16085599D02*
X31081029Y-15961854D01*
X30957284Y-15961854D01*
X30957284Y-16085599D01*
X31081029Y-16085599D01*
X31471654Y-10199430D02*
X31471654Y-10075686D01*
X31347910Y-10075686D01*
X31347910Y-10199430D01*
X31471654Y-10199430D01*
X31570982Y-13985126D02*
X31570982Y-13861381D01*
X31447238Y-13861381D01*
X31447238Y-13985126D01*
X31570982Y-13985126D01*
X31960959Y-8101991D02*
X31960959Y-7978246D01*
X31837214Y-7978246D01*
X31837214Y-8101991D01*
X31960959Y-8101991D01*
X31963341Y-12045854D02*
X31963341Y-11922109D01*
X31839596Y-11922109D01*
X31839596Y-12045854D01*
X31963341Y-12045854D01*
X32062409Y-15822638D02*
X32062409Y-15698894D01*
X31938664Y-15698894D01*
X31938664Y-15822638D01*
X32062409Y-15822638D01*
X32453035Y-9936470D02*
X32453035Y-9812725D01*
X32329290Y-9812725D01*
X32329290Y-9936470D01*
X32453035Y-9936470D01*
X32459402Y-13889548D02*
X32459402Y-13765803D01*
X32335657Y-13765803D01*
X32335657Y-13889548D01*
X32459402Y-13889548D01*
X32944722Y-11782894D02*
X32944722Y-11659149D01*
X32820977Y-11659149D01*
X32820977Y-11782894D01*
X32944722Y-11782894D01*
X32949461Y-8331766D02*
X32949461Y-8208022D01*
X32825716Y-8208022D01*
X32825716Y-8331766D01*
X32949461Y-8331766D01*
X32953079Y-15730275D02*
X32953079Y-15606530D01*
X32829334Y-15606530D01*
X32829334Y-15730275D01*
X32953079Y-15730275D01*
X33438925Y-10159910D02*
X33438925Y-10036165D01*
X33315180Y-10036165D01*
X33315180Y-10159910D01*
X33438925Y-10159910D01*
X33440782Y-13626587D02*
X33440782Y-13502843D01*
X33317037Y-13502843D01*
X33317037Y-13626587D01*
X33440782Y-13626587D01*
X33930842Y-8068806D02*
X33930842Y-7945061D01*
X33807097Y-7945061D01*
X33807097Y-8068806D01*
X33930842Y-8068806D01*
X33934083Y-12015200D02*
X33934083Y-11891455D01*
X33810338Y-11891455D01*
X33810338Y-12015200D01*
X33934083Y-12015200D01*
X33934460Y-15467315D02*
X33934460Y-15343570D01*
X33810715Y-15343570D01*
X33810715Y-15467315D01*
X33934460Y-15467315D01*
X34420305Y-9896949D02*
X34420305Y-9773205D01*
X34296561Y-9773205D01*
X34296561Y-9896949D01*
X34420305Y-9896949D01*
X34426599Y-13851158D02*
X34426599Y-13727413D01*
X34302854Y-13727413D01*
X34302854Y-13851158D01*
X34426599Y-13851158D01*
X34822959Y-7986551D02*
X34822959Y-7862807D01*
X34699214Y-7862807D01*
X34699214Y-7986551D01*
X34822959Y-7986551D01*
X34915464Y-11752239D02*
X34915464Y-11628495D01*
X34791719Y-11628495D01*
X34791719Y-11752239D01*
X34915464Y-11752239D01*
X34921199Y-15690649D02*
X34921199Y-15566905D01*
X34797454Y-15566905D01*
X34797454Y-15690649D01*
X34921199Y-15690649D01*
X35313763Y-9813477D02*
X35313763Y-9689732D01*
X35190018Y-9689732D01*
X35190018Y-9813477D01*
X35313763Y-9813477D01*
X35407980Y-13588197D02*
X35407980Y-13464453D01*
X35284235Y-13464453D01*
X35284235Y-13588197D01*
X35407980Y-13588197D01*
X35804339Y-7723591D02*
X35804339Y-7599846D01*
X35680595Y-7599846D01*
X35680595Y-7723591D01*
X35804339Y-7723591D01*
X35809421Y-11665851D02*
X35809421Y-11542106D01*
X35685676Y-11542106D01*
X35685676Y-11665851D01*
X35809421Y-11665851D01*
X35902580Y-15427689D02*
X35902580Y-15303944D01*
X35778835Y-15303944D01*
X35778835Y-15427689D01*
X35902580Y-15427689D01*
X36295143Y-9550517D02*
X36295143Y-9426772D01*
X36171399Y-9426772D01*
X36171399Y-9550517D01*
X36295143Y-9550517D01*
X36304100Y-13500602D02*
X36304100Y-13376857D01*
X36180355Y-13376857D01*
X36180355Y-13500602D01*
X36304100Y-13500602D01*
X36629128Y-7347323D02*
X36629128Y-7223578D01*
X36505383Y-7223578D01*
X36505383Y-7347323D01*
X36629128Y-7347323D01*
X36790801Y-11402891D02*
X36790801Y-11279146D01*
X36667056Y-11279146D01*
X36667056Y-11402891D01*
X36790801Y-11402891D01*
X36797401Y-15343613D02*
X36797401Y-15219868D01*
X36673656Y-15219868D01*
X36673656Y-15343613D01*
X36797401Y-15343613D01*
X37116944Y-9174410D02*
X37116944Y-9050665D01*
X36993200Y-9050665D01*
X36993200Y-9174410D01*
X37116944Y-9174410D01*
X37285480Y-13237642D02*
X37285480Y-13113897D01*
X37161735Y-13113897D01*
X37161735Y-13237642D01*
X37285480Y-13237642D01*
X37610509Y-7084362D02*
X37610509Y-6960618D01*
X37486764Y-6960618D01*
X37486764Y-7084362D01*
X37610509Y-7084362D01*
X37612919Y-11031397D02*
X37612919Y-10907652D01*
X37489174Y-10907652D01*
X37489174Y-11031397D01*
X37612919Y-11031397D01*
X37778782Y-15080652D02*
X37778782Y-14956908D01*
X37655037Y-14956908D01*
X37655037Y-15080652D01*
X37778782Y-15080652D01*
X38098325Y-8911450D02*
X38098325Y-8787705D01*
X37974580Y-8787705D01*
X37974580Y-8911450D01*
X38098325Y-8911450D01*
X38105654Y-12862547D02*
X38105654Y-12738802D01*
X37981910Y-12738802D01*
X37981910Y-12862547D01*
X38105654Y-12862547D01*
X38594299Y-10768437D02*
X38594299Y-10644692D01*
X38470555Y-10644692D01*
X38470555Y-10768437D01*
X38594299Y-10768437D01*
X38599213Y-14703983D02*
X38599213Y-14580238D01*
X38475468Y-14580238D01*
X38475468Y-14703983D01*
X38599213Y-14703983D01*
X39087035Y-12599587D02*
X39087035Y-12475842D01*
X38963290Y-12475842D01*
X38963290Y-12599587D01*
X39087035Y-12599587D01*
X39580593Y-14441023D02*
X39580593Y-14317278D01*
X39456849Y-14317278D01*
X39456849Y-14441023D01*
X39580593Y-14441023D01*
X13838241Y-18342102D02*
X13990641Y-18189702D01*
X13838241Y-18037302D01*
X13685841Y-18189702D01*
X13838241Y-18342102D01*
X16205414Y-18653746D02*
X16357814Y-18501346D01*
X16205414Y-18348946D01*
X16053014Y-18501346D01*
X16205414Y-18653746D01*
X25768086Y-18653746D02*
X25920486Y-18501346D01*
X25768086Y-18348946D01*
X25615686Y-18501346D01*
X25768086Y-18653746D01*
X28135259Y-18342102D02*
X28287659Y-18189702D01*
X28135259Y-18037302D01*
X27982859Y-18189702D01*
X28135259Y-18342102D01*
X2752902Y-14308188D02*
X3151682Y-14706968D01*
X3151682Y-14308188D02*
X2752902Y-14706968D01*
X3151682Y-14507578D02*
G75*
G03*
X3151682Y-14507578I-199390J0D01*
G01*
X3243706Y-12466496D02*
X3642486Y-12865276D01*
X3642486Y-12466496D02*
X3243706Y-12865276D01*
X3642486Y-12665886D02*
G75*
G03*
X3642486Y-12665886I-199390J0D01*
G01*
X3737509Y-10627591D02*
X4136289Y-11026371D01*
X4136289Y-10627591D02*
X3737509Y-11026371D01*
X4136289Y-10826981D02*
G75*
G03*
X4136289Y-10826981I-199390J0D01*
G01*
X4230659Y-8772854D02*
X4629439Y-9171634D01*
X4629439Y-8772854D02*
X4230659Y-9171634D01*
X4629439Y-8972244D02*
G75*
G03*
X4629439Y-8972244I-199390J0D01*
G01*
X4553365Y-14939048D02*
X4952145Y-15337828D01*
X4952145Y-14939048D02*
X4553365Y-15337828D01*
X4952145Y-15138438D02*
G75*
G03*
X4952145Y-15138438I-199390J0D01*
G01*
X4717513Y-6949956D02*
X5116293Y-7348736D01*
X5116293Y-6949956D02*
X4717513Y-7348736D01*
X5116293Y-7149346D02*
G75*
G03*
X5116293Y-7149346I-199390J0D01*
G01*
X5049126Y-13102834D02*
X5447906Y-13501614D01*
X5447906Y-13102834D02*
X5049126Y-13501614D01*
X5447906Y-13302224D02*
G75*
G03*
X5447906Y-13302224I-199390J0D01*
G01*
X5542567Y-11269365D02*
X5941347Y-11668145D01*
X5941347Y-11269365D02*
X5542567Y-11668145D01*
X5941347Y-11468755D02*
G75*
G03*
X5941347Y-11468755I-199390J0D01*
G01*
X6043636Y-9412127D02*
X6442416Y-9810907D01*
X6442416Y-9412127D02*
X6043636Y-9810907D01*
X6442416Y-9611517D02*
G75*
G03*
X6442416Y-9611517I-199390J0D01*
G01*
X6432644Y-15292207D02*
X6831424Y-15690987D01*
X6831424Y-15292207D02*
X6432644Y-15690987D01*
X6831424Y-15491597D02*
G75*
G03*
X6831424Y-15491597I-199390J0D01*
G01*
X6533313Y-7585513D02*
X6932093Y-7984293D01*
X6932093Y-7585513D02*
X6533313Y-7984293D01*
X6932093Y-7784903D02*
G75*
G03*
X6932093Y-7784903I-199390J0D01*
G01*
X6926053Y-13449464D02*
X7324833Y-13848244D01*
X7324833Y-13449464D02*
X6926053Y-13848244D01*
X7324833Y-13648854D02*
G75*
G03*
X7324833Y-13648854I-199390J0D01*
G01*
X7417538Y-11615191D02*
X7816318Y-12013971D01*
X7816318Y-11615191D02*
X7417538Y-12013971D01*
X7816318Y-11814581D02*
G75*
G03*
X7816318Y-11814581I-199390J0D01*
G01*
X7913727Y-9759128D02*
X8312507Y-10157908D01*
X8312507Y-9759128D02*
X7913727Y-10157908D01*
X8312507Y-9958518D02*
G75*
G03*
X8312507Y-9958518I-199390J0D01*
G01*
X8398665Y-15329586D02*
X8797445Y-15728366D01*
X8797445Y-15329586D02*
X8398665Y-15728366D01*
X8797445Y-15528976D02*
G75*
G03*
X8797445Y-15528976I-199390J0D01*
G01*
X8402965Y-7936439D02*
X8801745Y-8335219D01*
X8801745Y-7936439D02*
X8402965Y-8335219D01*
X8801745Y-8135829D02*
G75*
G03*
X8801745Y-8135829I-199390J0D01*
G01*
X8889827Y-13490767D02*
X9288607Y-13889547D01*
X9288607Y-13490767D02*
X8889827Y-13889547D01*
X9288607Y-13690157D02*
G75*
G03*
X9288607Y-13690157I-199390J0D01*
G01*
X9387368Y-11644156D02*
X9786148Y-12042936D01*
X9786148Y-11644156D02*
X9387368Y-12042936D01*
X9786148Y-11843546D02*
G75*
G03*
X9786148Y-11843546I-199390J0D01*
G01*
X9882748Y-9800265D02*
X10281528Y-10199045D01*
X10281528Y-9800265D02*
X9882748Y-10199045D01*
X10281528Y-9999655D02*
G75*
G03*
X10281528Y-9999655I-199390J0D01*
G01*
X10271751Y-15687885D02*
X10670531Y-16086665D01*
X10670531Y-15687885D02*
X10271751Y-16086665D01*
X10670531Y-15887275D02*
G75*
G03*
X10670531Y-15887275I-199390J0D01*
G01*
X10374082Y-7963360D02*
X10772862Y-8362140D01*
X10772862Y-7963360D02*
X10374082Y-8362140D01*
X10772862Y-8162750D02*
G75*
G03*
X10772862Y-8162750I-199390J0D01*
G01*
X10764880Y-13848535D02*
X11163660Y-14247315D01*
X11163660Y-13848535D02*
X10764880Y-14247315D01*
X11163660Y-14047925D02*
G75*
G03*
X11163660Y-14047925I-199390J0D01*
G01*
X11255410Y-12007599D02*
X11654190Y-12406379D01*
X11654190Y-12007599D02*
X11255410Y-12406379D01*
X11654190Y-12206989D02*
G75*
G03*
X11654190Y-12206989I-199390J0D01*
G01*
X11753165Y-10165651D02*
X12151945Y-10564431D01*
X12151945Y-10165651D02*
X11753165Y-10564431D01*
X12151945Y-10365041D02*
G75*
G03*
X12151945Y-10365041I-199390J0D01*
G01*
X12081044Y-16314208D02*
X12479824Y-16712988D01*
X12479824Y-16314208D02*
X12081044Y-16712988D01*
X12479824Y-16513598D02*
G75*
G03*
X12479824Y-16513598I-199390J0D01*
G01*
X12251336Y-8323930D02*
X12650116Y-8722710D01*
X12650116Y-8323930D02*
X12251336Y-8722710D01*
X12650116Y-8523320D02*
G75*
G03*
X12650116Y-8523320I-199390J0D01*
G01*
X12574987Y-14477259D02*
X12973767Y-14876039D01*
X12973767Y-14477259D02*
X12574987Y-14876039D01*
X12973767Y-14676649D02*
G75*
G03*
X12973767Y-14676649I-199390J0D01*
G01*
X13070474Y-12630669D02*
X13469254Y-13029449D01*
X13469254Y-12630669D02*
X13070474Y-13029449D01*
X13469254Y-12830059D02*
G75*
G03*
X13469254Y-12830059I-199390J0D01*
G01*
X13560780Y-10788901D02*
X13959560Y-11187681D01*
X13959560Y-10788901D02*
X13560780Y-11187681D01*
X13959560Y-10988291D02*
G75*
G03*
X13959560Y-10988291I-199390J0D01*
G01*
X13837772Y-16479350D02*
X14236552Y-16878130D01*
X14236552Y-16479350D02*
X13837772Y-16878130D01*
X14236552Y-16678740D02*
G75*
G03*
X14236552Y-16678740I-199390J0D01*
G01*
X14053790Y-8949272D02*
X14452570Y-9348052D01*
X14452570Y-8949272D02*
X14053790Y-9348052D01*
X14452570Y-9148662D02*
G75*
G03*
X14452570Y-9148662I-199390J0D01*
G01*
X14349196Y-15190445D02*
X14747976Y-15589225D01*
X14747976Y-15190445D02*
X14349196Y-15589225D01*
X14747976Y-15389835D02*
G75*
G03*
X14747976Y-15389835I-199390J0D01*
G01*
X14841908Y-13353713D02*
X15240688Y-13752493D01*
X15240688Y-13353713D02*
X14841908Y-13752493D01*
X15240688Y-13553103D02*
G75*
G03*
X15240688Y-13553103I-199390J0D01*
G01*
X14913610Y-17453610D02*
X15312390Y-17852390D01*
X15312390Y-17453610D02*
X14913610Y-17852390D01*
X15312390Y-17653000D02*
G75*
G03*
X15312390Y-17653000I-199390J0D01*
G01*
X15330105Y-11518688D02*
X15728885Y-11917468D01*
X15728885Y-11518688D02*
X15330105Y-11917468D01*
X15728885Y-11718078D02*
G75*
G03*
X15728885Y-11718078I-199390J0D01*
G01*
X15827821Y-9674154D02*
X16226601Y-10072934D01*
X16226601Y-9674154D02*
X15827821Y-10072934D01*
X16226601Y-9873544D02*
G75*
G03*
X16226601Y-9873544I-199390J0D01*
G01*
X16204946Y-16790994D02*
X16603726Y-17189774D01*
X16603726Y-16790994D02*
X16204946Y-17189774D01*
X16603726Y-16990384D02*
G75*
G03*
X16603726Y-16990384I-199390J0D01*
G01*
X17948608Y-13770399D02*
X18347388Y-14169179D01*
X18347388Y-13770399D02*
X17948608Y-14169179D01*
X18347388Y-13969789D02*
G75*
G03*
X18347388Y-13969789I-199390J0D01*
G01*
X17948613Y-9967496D02*
X18347393Y-10366276D01*
X18347393Y-9967496D02*
X17948613Y-10366276D01*
X18347393Y-10166886D02*
G75*
G03*
X18347393Y-10166886I-199390J0D01*
G01*
X17948856Y-11869316D02*
X18347636Y-12268096D01*
X18347636Y-11869316D02*
X17948856Y-12268096D01*
X18347636Y-12068706D02*
G75*
G03*
X18347636Y-12068706I-199390J0D01*
G01*
X17949631Y-15672606D02*
X18348411Y-16071386D01*
X18348411Y-15672606D02*
X17949631Y-16071386D01*
X18348411Y-15871996D02*
G75*
G03*
X18348411Y-15871996I-199390J0D01*
G01*
X17951031Y-17572844D02*
X18349811Y-17971624D01*
X18349811Y-17572844D02*
X17951031Y-17971624D01*
X18349811Y-17772234D02*
G75*
G03*
X18349811Y-17772234I-199390J0D01*
G01*
X19847004Y-9967572D02*
X20245784Y-10366352D01*
X20245784Y-9967572D02*
X19847004Y-10366352D01*
X20245784Y-10166962D02*
G75*
G03*
X20245784Y-10166962I-199390J0D01*
G01*
X19847533Y-11869426D02*
X20246313Y-12268206D01*
X20246313Y-11869426D02*
X19847533Y-12268206D01*
X20246313Y-12068816D02*
G75*
G03*
X20246313Y-12068816I-199390J0D01*
G01*
X19848731Y-13769524D02*
X20247511Y-14168304D01*
X20247511Y-13769524D02*
X19848731Y-14168304D01*
X20247511Y-13968914D02*
G75*
G03*
X20247511Y-13968914I-199390J0D01*
G01*
X19848745Y-15672638D02*
X20247525Y-16071418D01*
X20247525Y-15672638D02*
X19848745Y-16071418D01*
X20247525Y-15872028D02*
G75*
G03*
X20247525Y-15872028I-199390J0D01*
G01*
X19849981Y-17571900D02*
X20248761Y-17970680D01*
X20248761Y-17571900D02*
X19849981Y-17970680D01*
X20248761Y-17771290D02*
G75*
G03*
X20248761Y-17771290I-199390J0D01*
G01*
X21746370Y-13768390D02*
X22145150Y-14167170D01*
X22145150Y-13768390D02*
X21746370Y-14167170D01*
X22145150Y-13967780D02*
G75*
G03*
X22145150Y-13967780I-199390J0D01*
G01*
X21746534Y-11869424D02*
X22145314Y-12268204D01*
X22145314Y-11869424D02*
X21746534Y-12268204D01*
X22145314Y-12068814D02*
G75*
G03*
X22145314Y-12068814I-199390J0D01*
G01*
X21747420Y-9967595D02*
X22146200Y-10366375D01*
X22146200Y-9967595D02*
X21747420Y-10366375D01*
X22146200Y-10166985D02*
G75*
G03*
X22146200Y-10166985I-199390J0D01*
G01*
X21748079Y-15670994D02*
X22146859Y-16069774D01*
X22146859Y-15670994D02*
X21748079Y-16069774D01*
X22146859Y-15870384D02*
G75*
G03*
X22146859Y-15870384I-199390J0D01*
G01*
X21750570Y-17569959D02*
X22149350Y-17968739D01*
X22149350Y-17569959D02*
X21750570Y-17968739D01*
X22149350Y-17769349D02*
G75*
G03*
X22149350Y-17769349I-199390J0D01*
G01*
X23644640Y-11869444D02*
X24043420Y-12268224D01*
X24043420Y-11869444D02*
X23644640Y-12268224D01*
X24043420Y-12068834D02*
G75*
G03*
X24043420Y-12068834I-199390J0D01*
G01*
X23646080Y-13769093D02*
X24044860Y-14167873D01*
X24044860Y-13769093D02*
X23646080Y-14167873D01*
X24044860Y-13968483D02*
G75*
G03*
X24044860Y-13968483I-199390J0D01*
G01*
X23646305Y-9967580D02*
X24045085Y-10366360D01*
X24045085Y-9967580D02*
X23646305Y-10366360D01*
X24045085Y-10166970D02*
G75*
G03*
X24045085Y-10166970I-199390J0D01*
G01*
X23646885Y-17568884D02*
X24045665Y-17967664D01*
X24045665Y-17568884D02*
X23646885Y-17967664D01*
X24045665Y-17768274D02*
G75*
G03*
X24045665Y-17768274I-199390J0D01*
G01*
X23647274Y-15670722D02*
X24046054Y-16069502D01*
X24046054Y-15670722D02*
X23647274Y-16069502D01*
X24046054Y-15870112D02*
G75*
G03*
X24046054Y-15870112I-199390J0D01*
G01*
X25369774Y-16790994D02*
X25768554Y-17189774D01*
X25768554Y-16790994D02*
X25369774Y-17189774D01*
X25768554Y-16990384D02*
G75*
G03*
X25768554Y-16990384I-199390J0D01*
G01*
X25754902Y-9678472D02*
X26153682Y-10077252D01*
X26153682Y-9678472D02*
X25754902Y-10077252D01*
X26153682Y-9877862D02*
G75*
G03*
X26153682Y-9877862I-199390J0D01*
G01*
X26245840Y-11525563D02*
X26644620Y-11924343D01*
X26644620Y-11525563D02*
X26245840Y-11924343D01*
X26644620Y-11724953D02*
G75*
G03*
X26644620Y-11724953I-199390J0D01*
G01*
X26661110Y-17453610D02*
X27059890Y-17852390D01*
X27059890Y-17453610D02*
X26661110Y-17852390D01*
X27059890Y-17653000D02*
G75*
G03*
X27059890Y-17653000I-199390J0D01*
G01*
X26738631Y-13362353D02*
X27137411Y-13761133D01*
X27137411Y-13362353D02*
X26738631Y-13761133D01*
X27137411Y-13561743D02*
G75*
G03*
X27137411Y-13561743I-199390J0D01*
G01*
X27232254Y-15197939D02*
X27631034Y-15596719D01*
X27631034Y-15197939D02*
X27232254Y-15596719D01*
X27631034Y-15397329D02*
G75*
G03*
X27631034Y-15397329I-199390J0D01*
G01*
X27526911Y-8955711D02*
X27925691Y-9354491D01*
X27925691Y-8955711D02*
X27526911Y-9354491D01*
X27925691Y-9155101D02*
G75*
G03*
X27925691Y-9155101I-199390J0D01*
G01*
X27736947Y-16479350D02*
X28135727Y-16878130D01*
X28135727Y-16479350D02*
X27736947Y-16878130D01*
X28135727Y-16678740D02*
G75*
G03*
X28135727Y-16678740I-199390J0D01*
G01*
X28021051Y-10804034D02*
X28419831Y-11202814D01*
X28419831Y-10804034D02*
X28021051Y-11202814D01*
X28419831Y-11003424D02*
G75*
G03*
X28419831Y-11003424I-199390J0D01*
G01*
X28514056Y-12640995D02*
X28912836Y-13039775D01*
X28912836Y-12640995D02*
X28514056Y-13039775D01*
X28912836Y-12840385D02*
G75*
G03*
X28912836Y-12840385I-199390J0D01*
G01*
X29006807Y-14482386D02*
X29405587Y-14881166D01*
X29405587Y-14482386D02*
X29006807Y-14881166D01*
X29405587Y-14681776D02*
G75*
G03*
X29405587Y-14681776I-199390J0D01*
G01*
X29330512Y-8330450D02*
X29729292Y-8729230D01*
X29729292Y-8330450D02*
X29330512Y-8729230D01*
X29729292Y-8529840D02*
G75*
G03*
X29729292Y-8529840I-199390J0D01*
G01*
X29498712Y-16322067D02*
X29897492Y-16720847D01*
X29897492Y-16322067D02*
X29498712Y-16720847D01*
X29897492Y-16521457D02*
G75*
G03*
X29897492Y-16521457I-199390J0D01*
G01*
X29831801Y-10174231D02*
X30230581Y-10573011D01*
X30230581Y-10174231D02*
X29831801Y-10573011D01*
X30230581Y-10373621D02*
G75*
G03*
X30230581Y-10373621I-199390J0D01*
G01*
X30326098Y-12022021D02*
X30724878Y-12420801D01*
X30724878Y-12022021D02*
X30326098Y-12420801D01*
X30724878Y-12221411D02*
G75*
G03*
X30724878Y-12221411I-199390J0D01*
G01*
X30819030Y-13855344D02*
X31217810Y-14254124D01*
X31217810Y-13855344D02*
X30819030Y-14254124D01*
X31217810Y-14054734D02*
G75*
G03*
X31217810Y-14054734I-199390J0D01*
G01*
X31209006Y-7972209D02*
X31607786Y-8370989D01*
X31607786Y-7972209D02*
X31209006Y-8370989D01*
X31607786Y-8171599D02*
G75*
G03*
X31607786Y-8171599I-199390J0D01*
G01*
X31310456Y-15692856D02*
X31709236Y-16091636D01*
X31709236Y-15692856D02*
X31310456Y-16091636D01*
X31709236Y-15892246D02*
G75*
G03*
X31709236Y-15892246I-199390J0D01*
G01*
X31701082Y-9806688D02*
X32099862Y-10205468D01*
X32099862Y-9806688D02*
X31701082Y-10205468D01*
X32099862Y-10006078D02*
G75*
G03*
X32099862Y-10006078I-199390J0D01*
G01*
X32192769Y-11653111D02*
X32591549Y-12051891D01*
X32591549Y-11653111D02*
X32192769Y-12051891D01*
X32591549Y-11852501D02*
G75*
G03*
X32591549Y-11852501I-199390J0D01*
G01*
X32688829Y-13496805D02*
X33087609Y-13895585D01*
X33087609Y-13496805D02*
X32688829Y-13895585D01*
X33087609Y-13696195D02*
G75*
G03*
X33087609Y-13696195I-199390J0D01*
G01*
X33178889Y-7939024D02*
X33577669Y-8337804D01*
X33577669Y-7939024D02*
X33178889Y-8337804D01*
X33577669Y-8138414D02*
G75*
G03*
X33577669Y-8138414I-199390J0D01*
G01*
X33182507Y-15337533D02*
X33581287Y-15736313D01*
X33581287Y-15337533D02*
X33182507Y-15736313D01*
X33581287Y-15536923D02*
G75*
G03*
X33581287Y-15536923I-199390J0D01*
G01*
X33668353Y-9767167D02*
X34067133Y-10165947D01*
X34067133Y-9767167D02*
X33668353Y-10165947D01*
X34067133Y-9966557D02*
G75*
G03*
X34067133Y-9966557I-199390J0D01*
G01*
X34163511Y-11622457D02*
X34562291Y-12021237D01*
X34562291Y-11622457D02*
X34163511Y-12021237D01*
X34562291Y-11821847D02*
G75*
G03*
X34562291Y-11821847I-199390J0D01*
G01*
X34656027Y-13458415D02*
X35054807Y-13857195D01*
X35054807Y-13458415D02*
X34656027Y-13857195D01*
X35054807Y-13657805D02*
G75*
G03*
X35054807Y-13657805I-199390J0D01*
G01*
X35052387Y-7593809D02*
X35451167Y-7992589D01*
X35451167Y-7593809D02*
X35052387Y-7992589D01*
X35451167Y-7793199D02*
G75*
G03*
X35451167Y-7793199I-199390J0D01*
G01*
X35150627Y-15297907D02*
X35549407Y-15696687D01*
X35549407Y-15297907D02*
X35150627Y-15696687D01*
X35549407Y-15497297D02*
G75*
G03*
X35549407Y-15497297I-199390J0D01*
G01*
X35543191Y-9420735D02*
X35941971Y-9819515D01*
X35941971Y-9420735D02*
X35543191Y-9819515D01*
X35941971Y-9620125D02*
G75*
G03*
X35941971Y-9620125I-199390J0D01*
G01*
X36038849Y-11273108D02*
X36437629Y-11671888D01*
X36437629Y-11273108D02*
X36038849Y-11671888D01*
X36437629Y-11472498D02*
G75*
G03*
X36437629Y-11472498I-199390J0D01*
G01*
X36533528Y-13107859D02*
X36932308Y-13506639D01*
X36932308Y-13107859D02*
X36533528Y-13506639D01*
X36932308Y-13307249D02*
G75*
G03*
X36932308Y-13307249I-199390J0D01*
G01*
X36858556Y-6954580D02*
X37257336Y-7353360D01*
X37257336Y-6954580D02*
X36858556Y-7353360D01*
X37257336Y-7153970D02*
G75*
G03*
X37257336Y-7153970I-199390J0D01*
G01*
X37026829Y-14950870D02*
X37425609Y-15349650D01*
X37425609Y-14950870D02*
X37026829Y-15349650D01*
X37425609Y-15150260D02*
G75*
G03*
X37425609Y-15150260I-199390J0D01*
G01*
X37346372Y-8781667D02*
X37745152Y-9180447D01*
X37745152Y-8781667D02*
X37346372Y-9180447D01*
X37745152Y-8981057D02*
G75*
G03*
X37745152Y-8981057I-199390J0D01*
G01*
X37842347Y-10638654D02*
X38241127Y-11037434D01*
X38241127Y-10638654D02*
X37842347Y-11037434D01*
X38241127Y-10838044D02*
G75*
G03*
X38241127Y-10838044I-199390J0D01*
G01*
X38335082Y-12469804D02*
X38733862Y-12868584D01*
X38733862Y-12469804D02*
X38335082Y-12868584D01*
X38733862Y-12669194D02*
G75*
G03*
X38733862Y-12669194I-199390J0D01*
G01*
X38828641Y-14311240D02*
X39227421Y-14710020D01*
X39227421Y-14311240D02*
X38828641Y-14710020D01*
X39227421Y-14510630D02*
G75*
G03*
X39227421Y-14510630I-199390J0D01*
G01*
D12*
X1711017Y-19586905D02*
X1711017Y-19286905D01*
X1782446Y-19286905D01*
X1825303Y-19301191D01*
X1853874Y-19329762D01*
X1868160Y-19358334D01*
X1882446Y-19415477D01*
X1882446Y-19458334D01*
X1868160Y-19515477D01*
X1853874Y-19544048D01*
X1825303Y-19572620D01*
X1782446Y-19586905D01*
X1711017Y-19586905D01*
X2011017Y-19586905D02*
X2011017Y-19386905D01*
X2011017Y-19444048D02*
X2025303Y-19415477D01*
X2039588Y-19401191D01*
X2068160Y-19386905D01*
X2096731Y-19386905D01*
X2196731Y-19586905D02*
X2196731Y-19386905D01*
X2196731Y-19286905D02*
X2182446Y-19301191D01*
X2196731Y-19315477D01*
X2211017Y-19301191D01*
X2196731Y-19286905D01*
X2196731Y-19315477D01*
X2382446Y-19586905D02*
X2353874Y-19572620D01*
X2339589Y-19544048D01*
X2339589Y-19286905D01*
X2539589Y-19586905D02*
X2511017Y-19572620D01*
X2496731Y-19544048D01*
X2496731Y-19286905D01*
X2882446Y-19586905D02*
X2882446Y-19286905D01*
X2982446Y-19501191D01*
X3082446Y-19286905D01*
X3082446Y-19586905D01*
X3353874Y-19586905D02*
X3353874Y-19429762D01*
X3339588Y-19401191D01*
X3311017Y-19386905D01*
X3253874Y-19386905D01*
X3225303Y-19401191D01*
X3353874Y-19572620D02*
X3325303Y-19586905D01*
X3253874Y-19586905D01*
X3225303Y-19572620D01*
X3211017Y-19544048D01*
X3211017Y-19515477D01*
X3225303Y-19486905D01*
X3253874Y-19472620D01*
X3325303Y-19472620D01*
X3353874Y-19458334D01*
X3496731Y-19386905D02*
X3496731Y-19686905D01*
X3496731Y-19401191D02*
X3525303Y-19386905D01*
X3582446Y-19386905D01*
X3611017Y-19401191D01*
X3625303Y-19415477D01*
X3639588Y-19444048D01*
X3639588Y-19529762D01*
X3625303Y-19558334D01*
X3611017Y-19572620D01*
X3582446Y-19586905D01*
X3525303Y-19586905D01*
X3496731Y-19572620D01*
X3768160Y-19558334D02*
X3782446Y-19572620D01*
X3768160Y-19586905D01*
X3753874Y-19572620D01*
X3768160Y-19558334D01*
X3768160Y-19586905D01*
X3768160Y-19401191D02*
X3782446Y-19415477D01*
X3768160Y-19429762D01*
X3753874Y-19415477D01*
X3768160Y-19401191D01*
X3768160Y-19429762D01*
X1359589Y-20048691D02*
X1424588Y-20113691D01*
X1424588Y-20048691D02*
X1359589Y-20113691D01*
X1768160Y-19916905D02*
X1796731Y-19916905D01*
X1825303Y-19931191D01*
X1839588Y-19945477D01*
X1853874Y-19974048D01*
X1868160Y-20031191D01*
X1868160Y-20102620D01*
X1853874Y-20159762D01*
X1839588Y-20188334D01*
X1825303Y-20202620D01*
X1796731Y-20216905D01*
X1768160Y-20216905D01*
X1739588Y-20202620D01*
X1725303Y-20188334D01*
X1711017Y-20159762D01*
X1696731Y-20102620D01*
X1696731Y-20031191D01*
X1711017Y-19974048D01*
X1725303Y-19945477D01*
X1739588Y-19931191D01*
X1768160Y-19916905D01*
X1996731Y-20188334D02*
X2011017Y-20202620D01*
X1996731Y-20216905D01*
X1982446Y-20202620D01*
X1996731Y-20188334D01*
X1996731Y-20216905D01*
X2268160Y-19916905D02*
X2211017Y-19916905D01*
X2182446Y-19931191D01*
X2168160Y-19945477D01*
X2139589Y-19988334D01*
X2125303Y-20045477D01*
X2125303Y-20159762D01*
X2139589Y-20188334D01*
X2153874Y-20202620D01*
X2182446Y-20216905D01*
X2239589Y-20216905D01*
X2268160Y-20202620D01*
X2282446Y-20188334D01*
X2296731Y-20159762D01*
X2296731Y-20088334D01*
X2282446Y-20059762D01*
X2268160Y-20045477D01*
X2239589Y-20031191D01*
X2182446Y-20031191D01*
X2153874Y-20045477D01*
X2139589Y-20059762D01*
X2125303Y-20088334D01*
X2568160Y-19916905D02*
X2425303Y-19916905D01*
X2411017Y-20059762D01*
X2425303Y-20045477D01*
X2453874Y-20031191D01*
X2525303Y-20031191D01*
X2553874Y-20045477D01*
X2568160Y-20059762D01*
X2582446Y-20088334D01*
X2582446Y-20159762D01*
X2568160Y-20188334D01*
X2553874Y-20202620D01*
X2525303Y-20216905D01*
X2453874Y-20216905D01*
X2425303Y-20202620D01*
X2411017Y-20188334D01*
X2768160Y-19916905D02*
X2796731Y-19916905D01*
X2825303Y-19931191D01*
X2839588Y-19945477D01*
X2853874Y-19974048D01*
X2868160Y-20031191D01*
X2868160Y-20102620D01*
X2853874Y-20159762D01*
X2839588Y-20188334D01*
X2825303Y-20202620D01*
X2796731Y-20216905D01*
X2768160Y-20216905D01*
X2739589Y-20202620D01*
X2725303Y-20188334D01*
X2711017Y-20159762D01*
X2696731Y-20102620D01*
X2696731Y-20031191D01*
X2711017Y-19974048D01*
X2725303Y-19945477D01*
X2739589Y-19931191D01*
X2768160Y-19916905D01*
X2996731Y-20216905D02*
X2996731Y-20016905D01*
X2996731Y-20045477D02*
X3011017Y-20031191D01*
X3039588Y-20016905D01*
X3082446Y-20016905D01*
X3111017Y-20031191D01*
X3125303Y-20059762D01*
X3125303Y-20216905D01*
X3125303Y-20059762D02*
X3139588Y-20031191D01*
X3168160Y-20016905D01*
X3211017Y-20016905D01*
X3239588Y-20031191D01*
X3253874Y-20059762D01*
X3253874Y-20216905D01*
X3396731Y-20216905D02*
X3396731Y-20016905D01*
X3396731Y-20045477D02*
X3411017Y-20031191D01*
X3439588Y-20016905D01*
X3482446Y-20016905D01*
X3511017Y-20031191D01*
X3525303Y-20059762D01*
X3525303Y-20216905D01*
X3525303Y-20059762D02*
X3539588Y-20031191D01*
X3568160Y-20016905D01*
X3611017Y-20016905D01*
X3639588Y-20031191D01*
X3653874Y-20059762D01*
X3653874Y-20216905D01*
X4239589Y-19902620D02*
X3982446Y-20288334D01*
X4625303Y-19916905D02*
X4653874Y-19916905D01*
X4682446Y-19931191D01*
X4696731Y-19945477D01*
X4711017Y-19974048D01*
X4725303Y-20031191D01*
X4725303Y-20102620D01*
X4711017Y-20159762D01*
X4696731Y-20188334D01*
X4682446Y-20202620D01*
X4653874Y-20216905D01*
X4625303Y-20216905D01*
X4596731Y-20202620D01*
X4582446Y-20188334D01*
X4568160Y-20159762D01*
X4553874Y-20102620D01*
X4553874Y-20031191D01*
X4568160Y-19974048D01*
X4582446Y-19945477D01*
X4596731Y-19931191D01*
X4625303Y-19916905D01*
X4853874Y-20188334D02*
X4868160Y-20202620D01*
X4853874Y-20216905D01*
X4839589Y-20202620D01*
X4853874Y-20188334D01*
X4853874Y-20216905D01*
X5053874Y-19916905D02*
X5082446Y-19916905D01*
X5111017Y-19931191D01*
X5125303Y-19945477D01*
X5139589Y-19974048D01*
X5153874Y-20031191D01*
X5153874Y-20102620D01*
X5139589Y-20159762D01*
X5125303Y-20188334D01*
X5111017Y-20202620D01*
X5082446Y-20216905D01*
X5053874Y-20216905D01*
X5025303Y-20202620D01*
X5011017Y-20188334D01*
X4996731Y-20159762D01*
X4982446Y-20102620D01*
X4982446Y-20031191D01*
X4996731Y-19974048D01*
X5011017Y-19945477D01*
X5025303Y-19931191D01*
X5053874Y-19916905D01*
X5268160Y-19945477D02*
X5282446Y-19931191D01*
X5311017Y-19916905D01*
X5382446Y-19916905D01*
X5411017Y-19931191D01*
X5425303Y-19945477D01*
X5439588Y-19974048D01*
X5439588Y-20002620D01*
X5425303Y-20045477D01*
X5253874Y-20216905D01*
X5439588Y-20216905D01*
X5711017Y-19916905D02*
X5568160Y-19916905D01*
X5553874Y-20059762D01*
X5568160Y-20045477D01*
X5596731Y-20031191D01*
X5668160Y-20031191D01*
X5696731Y-20045477D01*
X5711017Y-20059762D01*
X5725303Y-20088334D01*
X5725303Y-20159762D01*
X5711017Y-20188334D01*
X5696731Y-20202620D01*
X5668160Y-20216905D01*
X5596731Y-20216905D01*
X5568160Y-20202620D01*
X5553874Y-20188334D01*
X5982446Y-19916905D02*
X5925303Y-19916905D01*
X5896731Y-19931191D01*
X5882446Y-19945477D01*
X5853874Y-19988334D01*
X5839588Y-20045477D01*
X5839588Y-20159762D01*
X5853874Y-20188334D01*
X5868160Y-20202620D01*
X5896731Y-20216905D01*
X5953874Y-20216905D01*
X5982446Y-20202620D01*
X5996731Y-20188334D01*
X6011017Y-20159762D01*
X6011017Y-20088334D01*
X5996731Y-20059762D01*
X5982446Y-20045477D01*
X5953874Y-20031191D01*
X5896731Y-20031191D01*
X5868160Y-20045477D01*
X5853874Y-20059762D01*
X5839588Y-20088334D01*
X6125303Y-19916905D02*
X6125303Y-19974048D01*
X6239588Y-19916905D02*
X6239588Y-19974048D01*
X6682446Y-20331191D02*
X6668160Y-20316905D01*
X6639588Y-20274048D01*
X6625303Y-20245477D01*
X6611017Y-20202620D01*
X6596731Y-20131191D01*
X6596731Y-20074048D01*
X6611017Y-20002620D01*
X6625303Y-19959762D01*
X6639588Y-19931191D01*
X6668160Y-19888334D01*
X6682446Y-19874048D01*
X6782446Y-19945477D02*
X6796731Y-19931191D01*
X6825303Y-19916905D01*
X6896731Y-19916905D01*
X6925303Y-19931191D01*
X6939588Y-19945477D01*
X6953874Y-19974048D01*
X6953874Y-20002620D01*
X6939588Y-20045477D01*
X6768160Y-20216905D01*
X6953874Y-20216905D01*
X7311017Y-20216905D02*
X7311017Y-19916905D01*
X7439588Y-20216905D02*
X7439588Y-20059762D01*
X7425303Y-20031191D01*
X7396731Y-20016905D01*
X7353874Y-20016905D01*
X7325303Y-20031191D01*
X7311017Y-20045477D01*
X7625303Y-20216905D02*
X7596731Y-20202620D01*
X7582446Y-20188334D01*
X7568160Y-20159762D01*
X7568160Y-20074048D01*
X7582446Y-20045477D01*
X7596731Y-20031191D01*
X7625303Y-20016905D01*
X7668160Y-20016905D01*
X7696731Y-20031191D01*
X7711017Y-20045477D01*
X7725303Y-20074048D01*
X7725303Y-20159762D01*
X7711017Y-20188334D01*
X7696731Y-20202620D01*
X7668160Y-20216905D01*
X7625303Y-20216905D01*
X7896731Y-20216905D02*
X7868160Y-20202620D01*
X7853874Y-20174048D01*
X7853874Y-19916905D01*
X8125303Y-20202620D02*
X8096731Y-20216905D01*
X8039588Y-20216905D01*
X8011017Y-20202620D01*
X7996731Y-20174048D01*
X7996731Y-20059762D01*
X8011017Y-20031191D01*
X8039588Y-20016905D01*
X8096731Y-20016905D01*
X8125303Y-20031191D01*
X8139588Y-20059762D01*
X8139588Y-20088334D01*
X7996731Y-20116905D01*
X8253874Y-20202620D02*
X8282446Y-20216905D01*
X8339588Y-20216905D01*
X8368160Y-20202620D01*
X8382446Y-20174048D01*
X8382446Y-20159762D01*
X8368160Y-20131191D01*
X8339588Y-20116905D01*
X8296731Y-20116905D01*
X8268160Y-20102620D01*
X8253874Y-20074048D01*
X8253874Y-20059762D01*
X8268160Y-20031191D01*
X8296731Y-20016905D01*
X8339588Y-20016905D01*
X8368160Y-20031191D01*
X8482446Y-20331191D02*
X8496731Y-20316905D01*
X8525303Y-20274048D01*
X8539589Y-20245477D01*
X8553874Y-20202620D01*
X8568160Y-20131191D01*
X8568160Y-20074048D01*
X8553874Y-20002620D01*
X8539589Y-19959762D01*
X8525303Y-19931191D01*
X8496731Y-19888334D01*
X8482446Y-19874048D01*
X9025303Y-20331191D02*
X9011017Y-20316905D01*
X8982446Y-20274048D01*
X8968160Y-20245477D01*
X8953874Y-20202620D01*
X8939589Y-20131191D01*
X8939589Y-20074048D01*
X8953874Y-20002620D01*
X8968160Y-19959762D01*
X8982446Y-19931191D01*
X9011017Y-19888334D01*
X9025303Y-19874048D01*
X9139589Y-20016905D02*
X9139589Y-20216905D01*
X9139589Y-20045477D02*
X9153874Y-20031191D01*
X9182446Y-20016905D01*
X9225303Y-20016905D01*
X9253874Y-20031191D01*
X9268160Y-20059762D01*
X9268160Y-20216905D01*
X9453874Y-20216905D02*
X9425303Y-20202620D01*
X9411017Y-20188334D01*
X9396731Y-20159762D01*
X9396731Y-20074048D01*
X9411017Y-20045477D01*
X9425303Y-20031191D01*
X9453874Y-20016905D01*
X9496731Y-20016905D01*
X9525303Y-20031191D01*
X9539589Y-20045477D01*
X9553874Y-20074048D01*
X9553874Y-20159762D01*
X9539589Y-20188334D01*
X9525303Y-20202620D01*
X9496731Y-20216905D01*
X9453874Y-20216905D01*
X9639589Y-20016905D02*
X9753874Y-20016905D01*
X9682446Y-19916905D02*
X9682446Y-20174048D01*
X9696731Y-20202620D01*
X9725303Y-20216905D01*
X9753874Y-20216905D01*
X10082446Y-20016905D02*
X10082446Y-20316905D01*
X10082446Y-20031191D02*
X10111017Y-20016905D01*
X10168160Y-20016905D01*
X10196731Y-20031191D01*
X10211017Y-20045477D01*
X10225303Y-20074048D01*
X10225303Y-20159762D01*
X10211017Y-20188334D01*
X10196731Y-20202620D01*
X10168160Y-20216905D01*
X10111017Y-20216905D01*
X10082446Y-20202620D01*
X10396731Y-20216905D02*
X10368160Y-20202620D01*
X10353874Y-20174048D01*
X10353874Y-19916905D01*
X10639589Y-20216905D02*
X10639589Y-20059762D01*
X10625303Y-20031191D01*
X10596731Y-20016905D01*
X10539589Y-20016905D01*
X10511017Y-20031191D01*
X10639589Y-20202620D02*
X10611017Y-20216905D01*
X10539589Y-20216905D01*
X10511017Y-20202620D01*
X10496731Y-20174048D01*
X10496731Y-20145477D01*
X10511017Y-20116905D01*
X10539589Y-20102620D01*
X10611017Y-20102620D01*
X10639589Y-20088334D01*
X10739589Y-20016905D02*
X10853874Y-20016905D01*
X10782446Y-19916905D02*
X10782446Y-20174048D01*
X10796731Y-20202620D01*
X10825303Y-20216905D01*
X10853874Y-20216905D01*
X11068160Y-20202620D02*
X11039589Y-20216905D01*
X10982446Y-20216905D01*
X10953874Y-20202620D01*
X10939589Y-20174048D01*
X10939589Y-20059762D01*
X10953874Y-20031191D01*
X10982446Y-20016905D01*
X11039589Y-20016905D01*
X11068160Y-20031191D01*
X11082446Y-20059762D01*
X11082446Y-20088334D01*
X10939589Y-20116905D01*
X11339588Y-20216905D02*
X11339588Y-19916905D01*
X11339588Y-20202620D02*
X11311017Y-20216905D01*
X11253874Y-20216905D01*
X11225303Y-20202620D01*
X11211017Y-20188334D01*
X11196731Y-20159762D01*
X11196731Y-20074048D01*
X11211017Y-20045477D01*
X11225303Y-20031191D01*
X11253874Y-20016905D01*
X11311017Y-20016905D01*
X11339588Y-20031191D01*
X11453874Y-20331191D02*
X11468160Y-20316905D01*
X11496731Y-20274048D01*
X11511017Y-20245477D01*
X11525303Y-20202620D01*
X11539588Y-20131191D01*
X11539588Y-20074048D01*
X11525303Y-20002620D01*
X11511017Y-19959762D01*
X11496731Y-19931191D01*
X11468160Y-19888334D01*
X11453874Y-19874048D01*
X1424588Y-20477191D02*
G75*
G03*
X1424588Y-20477191I-60000J0D01*
G01*
X1868160Y-20612905D02*
X1696731Y-20612905D01*
X1782446Y-20612905D02*
X1782446Y-20312905D01*
X1753874Y-20355762D01*
X1725303Y-20384334D01*
X1696731Y-20398620D01*
X1996731Y-20584334D02*
X2011017Y-20598620D01*
X1996731Y-20612905D01*
X1982446Y-20598620D01*
X1996731Y-20584334D01*
X1996731Y-20612905D01*
X2125303Y-20341477D02*
X2139589Y-20327191D01*
X2168160Y-20312905D01*
X2239589Y-20312905D01*
X2268160Y-20327191D01*
X2282446Y-20341477D01*
X2296731Y-20370048D01*
X2296731Y-20398620D01*
X2282446Y-20441477D01*
X2111017Y-20612905D01*
X2296731Y-20612905D01*
X2482446Y-20312905D02*
X2511017Y-20312905D01*
X2539589Y-20327191D01*
X2553874Y-20341477D01*
X2568160Y-20370048D01*
X2582446Y-20427191D01*
X2582446Y-20498620D01*
X2568160Y-20555762D01*
X2553874Y-20584334D01*
X2539589Y-20598620D01*
X2511017Y-20612905D01*
X2482446Y-20612905D01*
X2453874Y-20598620D01*
X2439589Y-20584334D01*
X2425303Y-20555762D01*
X2411017Y-20498620D01*
X2411017Y-20427191D01*
X2425303Y-20370048D01*
X2439589Y-20341477D01*
X2453874Y-20327191D01*
X2482446Y-20312905D01*
X2768160Y-20312905D02*
X2796731Y-20312905D01*
X2825303Y-20327191D01*
X2839588Y-20341477D01*
X2853874Y-20370048D01*
X2868160Y-20427191D01*
X2868160Y-20498620D01*
X2853874Y-20555762D01*
X2839588Y-20584334D01*
X2825303Y-20598620D01*
X2796731Y-20612905D01*
X2768160Y-20612905D01*
X2739589Y-20598620D01*
X2725303Y-20584334D01*
X2711017Y-20555762D01*
X2696731Y-20498620D01*
X2696731Y-20427191D01*
X2711017Y-20370048D01*
X2725303Y-20341477D01*
X2739589Y-20327191D01*
X2768160Y-20312905D01*
X2996731Y-20612905D02*
X2996731Y-20412905D01*
X2996731Y-20441477D02*
X3011017Y-20427191D01*
X3039588Y-20412905D01*
X3082446Y-20412905D01*
X3111017Y-20427191D01*
X3125303Y-20455762D01*
X3125303Y-20612905D01*
X3125303Y-20455762D02*
X3139588Y-20427191D01*
X3168160Y-20412905D01*
X3211017Y-20412905D01*
X3239588Y-20427191D01*
X3253874Y-20455762D01*
X3253874Y-20612905D01*
X3396731Y-20612905D02*
X3396731Y-20412905D01*
X3396731Y-20441477D02*
X3411017Y-20427191D01*
X3439588Y-20412905D01*
X3482446Y-20412905D01*
X3511017Y-20427191D01*
X3525303Y-20455762D01*
X3525303Y-20612905D01*
X3525303Y-20455762D02*
X3539588Y-20427191D01*
X3568160Y-20412905D01*
X3611017Y-20412905D01*
X3639588Y-20427191D01*
X3653874Y-20455762D01*
X3653874Y-20612905D01*
X4239589Y-20298620D02*
X3982446Y-20684334D01*
X4625303Y-20312905D02*
X4653874Y-20312905D01*
X4682446Y-20327191D01*
X4696731Y-20341477D01*
X4711017Y-20370048D01*
X4725303Y-20427191D01*
X4725303Y-20498620D01*
X4711017Y-20555762D01*
X4696731Y-20584334D01*
X4682446Y-20598620D01*
X4653874Y-20612905D01*
X4625303Y-20612905D01*
X4596731Y-20598620D01*
X4582446Y-20584334D01*
X4568160Y-20555762D01*
X4553874Y-20498620D01*
X4553874Y-20427191D01*
X4568160Y-20370048D01*
X4582446Y-20341477D01*
X4596731Y-20327191D01*
X4625303Y-20312905D01*
X4853874Y-20584334D02*
X4868160Y-20598620D01*
X4853874Y-20612905D01*
X4839589Y-20598620D01*
X4853874Y-20584334D01*
X4853874Y-20612905D01*
X5053874Y-20312905D02*
X5082446Y-20312905D01*
X5111017Y-20327191D01*
X5125303Y-20341477D01*
X5139589Y-20370048D01*
X5153874Y-20427191D01*
X5153874Y-20498620D01*
X5139589Y-20555762D01*
X5125303Y-20584334D01*
X5111017Y-20598620D01*
X5082446Y-20612905D01*
X5053874Y-20612905D01*
X5025303Y-20598620D01*
X5011017Y-20584334D01*
X4996731Y-20555762D01*
X4982446Y-20498620D01*
X4982446Y-20427191D01*
X4996731Y-20370048D01*
X5011017Y-20341477D01*
X5025303Y-20327191D01*
X5053874Y-20312905D01*
X5411017Y-20412905D02*
X5411017Y-20612905D01*
X5339588Y-20298620D02*
X5268160Y-20512905D01*
X5453874Y-20512905D01*
X5539588Y-20312905D02*
X5739588Y-20312905D01*
X5611017Y-20612905D01*
X5839588Y-20341477D02*
X5853874Y-20327191D01*
X5882446Y-20312905D01*
X5953874Y-20312905D01*
X5982446Y-20327191D01*
X5996731Y-20341477D01*
X6011017Y-20370048D01*
X6011017Y-20398620D01*
X5996731Y-20441477D01*
X5825303Y-20612905D01*
X6011017Y-20612905D01*
X6125303Y-20312905D02*
X6125303Y-20370048D01*
X6239588Y-20312905D02*
X6239588Y-20370048D01*
X6682446Y-20727191D02*
X6668160Y-20712905D01*
X6639588Y-20670048D01*
X6625303Y-20641477D01*
X6611017Y-20598620D01*
X6596731Y-20527191D01*
X6596731Y-20470048D01*
X6611017Y-20398620D01*
X6625303Y-20355762D01*
X6639588Y-20327191D01*
X6668160Y-20284334D01*
X6682446Y-20270048D01*
X6811017Y-20612905D02*
X6868160Y-20612905D01*
X6896731Y-20598620D01*
X6911017Y-20584334D01*
X6939588Y-20541477D01*
X6953874Y-20484334D01*
X6953874Y-20370048D01*
X6939588Y-20341477D01*
X6925303Y-20327191D01*
X6896731Y-20312905D01*
X6839588Y-20312905D01*
X6811017Y-20327191D01*
X6796731Y-20341477D01*
X6782446Y-20370048D01*
X6782446Y-20441477D01*
X6796731Y-20470048D01*
X6811017Y-20484334D01*
X6839588Y-20498620D01*
X6896731Y-20498620D01*
X6925303Y-20484334D01*
X6939588Y-20470048D01*
X6953874Y-20441477D01*
X7139588Y-20312905D02*
X7168160Y-20312905D01*
X7196731Y-20327191D01*
X7211017Y-20341477D01*
X7225303Y-20370048D01*
X7239588Y-20427191D01*
X7239588Y-20498620D01*
X7225303Y-20555762D01*
X7211017Y-20584334D01*
X7196731Y-20598620D01*
X7168160Y-20612905D01*
X7139588Y-20612905D01*
X7111017Y-20598620D01*
X7096731Y-20584334D01*
X7082446Y-20555762D01*
X7068160Y-20498620D01*
X7068160Y-20427191D01*
X7082446Y-20370048D01*
X7096731Y-20341477D01*
X7111017Y-20327191D01*
X7139588Y-20312905D01*
X7596731Y-20612905D02*
X7596731Y-20312905D01*
X7725303Y-20612905D02*
X7725303Y-20455762D01*
X7711017Y-20427191D01*
X7682446Y-20412905D01*
X7639588Y-20412905D01*
X7611017Y-20427191D01*
X7596731Y-20441477D01*
X7911017Y-20612905D02*
X7882446Y-20598620D01*
X7868160Y-20584334D01*
X7853874Y-20555762D01*
X7853874Y-20470048D01*
X7868160Y-20441477D01*
X7882446Y-20427191D01*
X7911017Y-20412905D01*
X7953874Y-20412905D01*
X7982446Y-20427191D01*
X7996731Y-20441477D01*
X8011017Y-20470048D01*
X8011017Y-20555762D01*
X7996731Y-20584334D01*
X7982446Y-20598620D01*
X7953874Y-20612905D01*
X7911017Y-20612905D01*
X8182446Y-20612905D02*
X8153874Y-20598620D01*
X8139588Y-20570048D01*
X8139588Y-20312905D01*
X8411017Y-20598620D02*
X8382446Y-20612905D01*
X8325303Y-20612905D01*
X8296731Y-20598620D01*
X8282446Y-20570048D01*
X8282446Y-20455762D01*
X8296731Y-20427191D01*
X8325303Y-20412905D01*
X8382446Y-20412905D01*
X8411017Y-20427191D01*
X8425303Y-20455762D01*
X8425303Y-20484334D01*
X8282446Y-20512905D01*
X8539589Y-20598620D02*
X8568160Y-20612905D01*
X8625303Y-20612905D01*
X8653874Y-20598620D01*
X8668160Y-20570048D01*
X8668160Y-20555762D01*
X8653874Y-20527191D01*
X8625303Y-20512905D01*
X8582446Y-20512905D01*
X8553874Y-20498620D01*
X8539589Y-20470048D01*
X8539589Y-20455762D01*
X8553874Y-20427191D01*
X8582446Y-20412905D01*
X8625303Y-20412905D01*
X8653874Y-20427191D01*
X8768160Y-20727191D02*
X8782446Y-20712905D01*
X8811017Y-20670048D01*
X8825303Y-20641477D01*
X8839589Y-20598620D01*
X8853874Y-20527191D01*
X8853874Y-20470048D01*
X8839589Y-20398620D01*
X8825303Y-20355762D01*
X8811017Y-20327191D01*
X8782446Y-20284334D01*
X8768160Y-20270048D01*
X9311017Y-20727191D02*
X9296731Y-20712905D01*
X9268160Y-20670048D01*
X9253874Y-20641477D01*
X9239589Y-20598620D01*
X9225303Y-20527191D01*
X9225303Y-20470048D01*
X9239589Y-20398620D01*
X9253874Y-20355762D01*
X9268160Y-20327191D01*
X9296731Y-20284334D01*
X9311017Y-20270048D01*
X9425303Y-20412905D02*
X9425303Y-20612905D01*
X9425303Y-20441477D02*
X9439589Y-20427191D01*
X9468160Y-20412905D01*
X9511017Y-20412905D01*
X9539589Y-20427191D01*
X9553874Y-20455762D01*
X9553874Y-20612905D01*
X9739589Y-20612905D02*
X9711017Y-20598620D01*
X9696731Y-20584334D01*
X9682446Y-20555762D01*
X9682446Y-20470048D01*
X9696731Y-20441477D01*
X9711017Y-20427191D01*
X9739589Y-20412905D01*
X9782446Y-20412905D01*
X9811017Y-20427191D01*
X9825303Y-20441477D01*
X9839589Y-20470048D01*
X9839589Y-20555762D01*
X9825303Y-20584334D01*
X9811017Y-20598620D01*
X9782446Y-20612905D01*
X9739589Y-20612905D01*
X9925303Y-20412905D02*
X10039589Y-20412905D01*
X9968160Y-20312905D02*
X9968160Y-20570048D01*
X9982446Y-20598620D01*
X10011017Y-20612905D01*
X10039589Y-20612905D01*
X10368160Y-20412905D02*
X10368160Y-20712905D01*
X10368160Y-20427191D02*
X10396731Y-20412905D01*
X10453874Y-20412905D01*
X10482446Y-20427191D01*
X10496731Y-20441477D01*
X10511017Y-20470048D01*
X10511017Y-20555762D01*
X10496731Y-20584334D01*
X10482446Y-20598620D01*
X10453874Y-20612905D01*
X10396731Y-20612905D01*
X10368160Y-20598620D01*
X10682446Y-20612905D02*
X10653874Y-20598620D01*
X10639589Y-20570048D01*
X10639589Y-20312905D01*
X10925303Y-20612905D02*
X10925303Y-20455762D01*
X10911017Y-20427191D01*
X10882446Y-20412905D01*
X10825303Y-20412905D01*
X10796731Y-20427191D01*
X10925303Y-20598620D02*
X10896731Y-20612905D01*
X10825303Y-20612905D01*
X10796731Y-20598620D01*
X10782446Y-20570048D01*
X10782446Y-20541477D01*
X10796731Y-20512905D01*
X10825303Y-20498620D01*
X10896731Y-20498620D01*
X10925303Y-20484334D01*
X11025303Y-20412905D02*
X11139589Y-20412905D01*
X11068160Y-20312905D02*
X11068160Y-20570048D01*
X11082446Y-20598620D01*
X11111017Y-20612905D01*
X11139589Y-20612905D01*
X11353874Y-20598620D02*
X11325303Y-20612905D01*
X11268160Y-20612905D01*
X11239588Y-20598620D01*
X11225303Y-20570048D01*
X11225303Y-20455762D01*
X11239588Y-20427191D01*
X11268160Y-20412905D01*
X11325303Y-20412905D01*
X11353874Y-20427191D01*
X11368160Y-20455762D01*
X11368160Y-20484334D01*
X11225303Y-20512905D01*
X11625303Y-20612905D02*
X11625303Y-20312905D01*
X11625303Y-20598620D02*
X11596731Y-20612905D01*
X11539588Y-20612905D01*
X11511017Y-20598620D01*
X11496731Y-20584334D01*
X11482446Y-20555762D01*
X11482446Y-20470048D01*
X11496731Y-20441477D01*
X11511017Y-20427191D01*
X11539588Y-20412905D01*
X11596731Y-20412905D01*
X11625303Y-20427191D01*
X11739588Y-20727191D02*
X11753874Y-20712905D01*
X11782446Y-20670048D01*
X11796731Y-20641477D01*
X11811017Y-20598620D01*
X11825303Y-20527191D01*
X11825303Y-20470048D01*
X11811017Y-20398620D01*
X11796731Y-20355762D01*
X11782446Y-20327191D01*
X11753874Y-20284334D01*
X11739588Y-20270048D01*
X1339589Y-20788191D02*
X1339589Y-20958191D01*
X1254589Y-20873191D02*
X1424588Y-20873191D01*
X1868160Y-21008905D02*
X1696731Y-21008905D01*
X1782446Y-21008905D02*
X1782446Y-20708905D01*
X1753874Y-20751762D01*
X1725303Y-20780334D01*
X1696731Y-20794620D01*
X1996731Y-20980334D02*
X2011017Y-20994620D01*
X1996731Y-21008905D01*
X1982446Y-20994620D01*
X1996731Y-20980334D01*
X1996731Y-21008905D01*
X2111017Y-20708905D02*
X2311017Y-20708905D01*
X2182446Y-21008905D01*
X2482446Y-20708905D02*
X2511017Y-20708905D01*
X2539589Y-20723191D01*
X2553874Y-20737477D01*
X2568160Y-20766048D01*
X2582446Y-20823191D01*
X2582446Y-20894620D01*
X2568160Y-20951762D01*
X2553874Y-20980334D01*
X2539589Y-20994620D01*
X2511017Y-21008905D01*
X2482446Y-21008905D01*
X2453874Y-20994620D01*
X2439589Y-20980334D01*
X2425303Y-20951762D01*
X2411017Y-20894620D01*
X2411017Y-20823191D01*
X2425303Y-20766048D01*
X2439589Y-20737477D01*
X2453874Y-20723191D01*
X2482446Y-20708905D01*
X2768160Y-20708905D02*
X2796731Y-20708905D01*
X2825303Y-20723191D01*
X2839588Y-20737477D01*
X2853874Y-20766048D01*
X2868160Y-20823191D01*
X2868160Y-20894620D01*
X2853874Y-20951762D01*
X2839588Y-20980334D01*
X2825303Y-20994620D01*
X2796731Y-21008905D01*
X2768160Y-21008905D01*
X2739589Y-20994620D01*
X2725303Y-20980334D01*
X2711017Y-20951762D01*
X2696731Y-20894620D01*
X2696731Y-20823191D01*
X2711017Y-20766048D01*
X2725303Y-20737477D01*
X2739589Y-20723191D01*
X2768160Y-20708905D01*
X2996731Y-21008905D02*
X2996731Y-20808905D01*
X2996731Y-20837477D02*
X3011017Y-20823191D01*
X3039588Y-20808905D01*
X3082446Y-20808905D01*
X3111017Y-20823191D01*
X3125303Y-20851762D01*
X3125303Y-21008905D01*
X3125303Y-20851762D02*
X3139588Y-20823191D01*
X3168160Y-20808905D01*
X3211017Y-20808905D01*
X3239588Y-20823191D01*
X3253874Y-20851762D01*
X3253874Y-21008905D01*
X3396731Y-21008905D02*
X3396731Y-20808905D01*
X3396731Y-20837477D02*
X3411017Y-20823191D01*
X3439588Y-20808905D01*
X3482446Y-20808905D01*
X3511017Y-20823191D01*
X3525303Y-20851762D01*
X3525303Y-21008905D01*
X3525303Y-20851762D02*
X3539588Y-20823191D01*
X3568160Y-20808905D01*
X3611017Y-20808905D01*
X3639588Y-20823191D01*
X3653874Y-20851762D01*
X3653874Y-21008905D01*
X4239589Y-20694620D02*
X3982446Y-21080334D01*
X4625303Y-20708905D02*
X4653874Y-20708905D01*
X4682446Y-20723191D01*
X4696731Y-20737477D01*
X4711017Y-20766048D01*
X4725303Y-20823191D01*
X4725303Y-20894620D01*
X4711017Y-20951762D01*
X4696731Y-20980334D01*
X4682446Y-20994620D01*
X4653874Y-21008905D01*
X4625303Y-21008905D01*
X4596731Y-20994620D01*
X4582446Y-20980334D01*
X4568160Y-20951762D01*
X4553874Y-20894620D01*
X4553874Y-20823191D01*
X4568160Y-20766048D01*
X4582446Y-20737477D01*
X4596731Y-20723191D01*
X4625303Y-20708905D01*
X4853874Y-20980334D02*
X4868160Y-20994620D01*
X4853874Y-21008905D01*
X4839589Y-20994620D01*
X4853874Y-20980334D01*
X4853874Y-21008905D01*
X5053874Y-20708905D02*
X5082446Y-20708905D01*
X5111017Y-20723191D01*
X5125303Y-20737477D01*
X5139589Y-20766048D01*
X5153874Y-20823191D01*
X5153874Y-20894620D01*
X5139589Y-20951762D01*
X5125303Y-20980334D01*
X5111017Y-20994620D01*
X5082446Y-21008905D01*
X5053874Y-21008905D01*
X5025303Y-20994620D01*
X5011017Y-20980334D01*
X4996731Y-20951762D01*
X4982446Y-20894620D01*
X4982446Y-20823191D01*
X4996731Y-20766048D01*
X5011017Y-20737477D01*
X5025303Y-20723191D01*
X5053874Y-20708905D01*
X5411017Y-20708905D02*
X5353874Y-20708905D01*
X5325303Y-20723191D01*
X5311017Y-20737477D01*
X5282446Y-20780334D01*
X5268160Y-20837477D01*
X5268160Y-20951762D01*
X5282446Y-20980334D01*
X5296731Y-20994620D01*
X5325303Y-21008905D01*
X5382446Y-21008905D01*
X5411017Y-20994620D01*
X5425303Y-20980334D01*
X5439588Y-20951762D01*
X5439588Y-20880334D01*
X5425303Y-20851762D01*
X5411017Y-20837477D01*
X5382446Y-20823191D01*
X5325303Y-20823191D01*
X5296731Y-20837477D01*
X5282446Y-20851762D01*
X5268160Y-20880334D01*
X5696731Y-20708905D02*
X5639588Y-20708905D01*
X5611017Y-20723191D01*
X5596731Y-20737477D01*
X5568160Y-20780334D01*
X5553874Y-20837477D01*
X5553874Y-20951762D01*
X5568160Y-20980334D01*
X5582446Y-20994620D01*
X5611017Y-21008905D01*
X5668160Y-21008905D01*
X5696731Y-20994620D01*
X5711017Y-20980334D01*
X5725303Y-20951762D01*
X5725303Y-20880334D01*
X5711017Y-20851762D01*
X5696731Y-20837477D01*
X5668160Y-20823191D01*
X5611017Y-20823191D01*
X5582446Y-20837477D01*
X5568160Y-20851762D01*
X5553874Y-20880334D01*
X5868160Y-21008905D02*
X5925303Y-21008905D01*
X5953874Y-20994620D01*
X5968160Y-20980334D01*
X5996731Y-20937477D01*
X6011017Y-20880334D01*
X6011017Y-20766048D01*
X5996731Y-20737477D01*
X5982446Y-20723191D01*
X5953874Y-20708905D01*
X5896731Y-20708905D01*
X5868160Y-20723191D01*
X5853874Y-20737477D01*
X5839588Y-20766048D01*
X5839588Y-20837477D01*
X5853874Y-20866048D01*
X5868160Y-20880334D01*
X5896731Y-20894620D01*
X5953874Y-20894620D01*
X5982446Y-20880334D01*
X5996731Y-20866048D01*
X6011017Y-20837477D01*
X6125303Y-20708905D02*
X6125303Y-20766048D01*
X6239588Y-20708905D02*
X6239588Y-20766048D01*
X6682446Y-21123191D02*
X6668160Y-21108905D01*
X6639588Y-21066048D01*
X6625303Y-21037477D01*
X6611017Y-20994620D01*
X6596731Y-20923191D01*
X6596731Y-20866048D01*
X6611017Y-20794620D01*
X6625303Y-20751762D01*
X6639588Y-20723191D01*
X6668160Y-20680334D01*
X6682446Y-20666048D01*
X6953874Y-21008905D02*
X6782446Y-21008905D01*
X6868160Y-21008905D02*
X6868160Y-20708905D01*
X6839588Y-20751762D01*
X6811017Y-20780334D01*
X6782446Y-20794620D01*
X7125303Y-20837477D02*
X7096731Y-20823191D01*
X7082446Y-20808905D01*
X7068160Y-20780334D01*
X7068160Y-20766048D01*
X7082446Y-20737477D01*
X7096731Y-20723191D01*
X7125303Y-20708905D01*
X7182446Y-20708905D01*
X7211017Y-20723191D01*
X7225303Y-20737477D01*
X7239588Y-20766048D01*
X7239588Y-20780334D01*
X7225303Y-20808905D01*
X7211017Y-20823191D01*
X7182446Y-20837477D01*
X7125303Y-20837477D01*
X7096731Y-20851762D01*
X7082446Y-20866048D01*
X7068160Y-20894620D01*
X7068160Y-20951762D01*
X7082446Y-20980334D01*
X7096731Y-20994620D01*
X7125303Y-21008905D01*
X7182446Y-21008905D01*
X7211017Y-20994620D01*
X7225303Y-20980334D01*
X7239588Y-20951762D01*
X7239588Y-20894620D01*
X7225303Y-20866048D01*
X7211017Y-20851762D01*
X7182446Y-20837477D01*
X7425303Y-20708905D02*
X7453874Y-20708905D01*
X7482446Y-20723191D01*
X7496731Y-20737477D01*
X7511017Y-20766048D01*
X7525303Y-20823191D01*
X7525303Y-20894620D01*
X7511017Y-20951762D01*
X7496731Y-20980334D01*
X7482446Y-20994620D01*
X7453874Y-21008905D01*
X7425303Y-21008905D01*
X7396731Y-20994620D01*
X7382446Y-20980334D01*
X7368160Y-20951762D01*
X7353874Y-20894620D01*
X7353874Y-20823191D01*
X7368160Y-20766048D01*
X7382446Y-20737477D01*
X7396731Y-20723191D01*
X7425303Y-20708905D01*
X7882446Y-21008905D02*
X7882446Y-20708905D01*
X8011017Y-21008905D02*
X8011017Y-20851762D01*
X7996731Y-20823191D01*
X7968160Y-20808905D01*
X7925303Y-20808905D01*
X7896731Y-20823191D01*
X7882446Y-20837477D01*
X8196731Y-21008905D02*
X8168160Y-20994620D01*
X8153874Y-20980334D01*
X8139588Y-20951762D01*
X8139588Y-20866048D01*
X8153874Y-20837477D01*
X8168160Y-20823191D01*
X8196731Y-20808905D01*
X8239588Y-20808905D01*
X8268160Y-20823191D01*
X8282446Y-20837477D01*
X8296731Y-20866048D01*
X8296731Y-20951762D01*
X8282446Y-20980334D01*
X8268160Y-20994620D01*
X8239588Y-21008905D01*
X8196731Y-21008905D01*
X8468160Y-21008905D02*
X8439588Y-20994620D01*
X8425303Y-20966048D01*
X8425303Y-20708905D01*
X8696731Y-20994620D02*
X8668160Y-21008905D01*
X8611017Y-21008905D01*
X8582446Y-20994620D01*
X8568160Y-20966048D01*
X8568160Y-20851762D01*
X8582446Y-20823191D01*
X8611017Y-20808905D01*
X8668160Y-20808905D01*
X8696731Y-20823191D01*
X8711017Y-20851762D01*
X8711017Y-20880334D01*
X8568160Y-20908905D01*
X8825303Y-20994620D02*
X8853874Y-21008905D01*
X8911017Y-21008905D01*
X8939588Y-20994620D01*
X8953874Y-20966048D01*
X8953874Y-20951762D01*
X8939588Y-20923191D01*
X8911017Y-20908905D01*
X8868160Y-20908905D01*
X8839588Y-20894620D01*
X8825303Y-20866048D01*
X8825303Y-20851762D01*
X8839588Y-20823191D01*
X8868160Y-20808905D01*
X8911017Y-20808905D01*
X8939588Y-20823191D01*
X9053874Y-21123191D02*
X9068160Y-21108905D01*
X9096731Y-21066048D01*
X9111017Y-21037477D01*
X9125303Y-20994620D01*
X9139588Y-20923191D01*
X9139588Y-20866048D01*
X9125303Y-20794620D01*
X9111017Y-20751762D01*
X9096731Y-20723191D01*
X9068160Y-20680334D01*
X9053874Y-20666048D01*
X9596731Y-21123191D02*
X9582446Y-21108905D01*
X9553874Y-21066048D01*
X9539588Y-21037477D01*
X9525303Y-20994620D01*
X9511017Y-20923191D01*
X9511017Y-20866048D01*
X9525303Y-20794620D01*
X9539588Y-20751762D01*
X9553874Y-20723191D01*
X9582446Y-20680334D01*
X9596731Y-20666048D01*
X9711017Y-20808905D02*
X9711017Y-21008905D01*
X9711017Y-20837477D02*
X9725303Y-20823191D01*
X9753874Y-20808905D01*
X9796731Y-20808905D01*
X9825303Y-20823191D01*
X9839588Y-20851762D01*
X9839588Y-21008905D01*
X10025303Y-21008905D02*
X9996731Y-20994620D01*
X9982446Y-20980334D01*
X9968160Y-20951762D01*
X9968160Y-20866048D01*
X9982446Y-20837477D01*
X9996731Y-20823191D01*
X10025303Y-20808905D01*
X10068160Y-20808905D01*
X10096731Y-20823191D01*
X10111017Y-20837477D01*
X10125303Y-20866048D01*
X10125303Y-20951762D01*
X10111017Y-20980334D01*
X10096731Y-20994620D01*
X10068160Y-21008905D01*
X10025303Y-21008905D01*
X10211017Y-20808905D02*
X10325303Y-20808905D01*
X10253874Y-20708905D02*
X10253874Y-20966048D01*
X10268160Y-20994620D01*
X10296731Y-21008905D01*
X10325303Y-21008905D01*
X10653874Y-20808905D02*
X10653874Y-21108905D01*
X10653874Y-20823191D02*
X10682446Y-20808905D01*
X10739588Y-20808905D01*
X10768160Y-20823191D01*
X10782446Y-20837477D01*
X10796731Y-20866048D01*
X10796731Y-20951762D01*
X10782446Y-20980334D01*
X10768160Y-20994620D01*
X10739588Y-21008905D01*
X10682446Y-21008905D01*
X10653874Y-20994620D01*
X10968160Y-21008905D02*
X10939588Y-20994620D01*
X10925303Y-20966048D01*
X10925303Y-20708905D01*
X11211017Y-21008905D02*
X11211017Y-20851762D01*
X11196731Y-20823191D01*
X11168160Y-20808905D01*
X11111017Y-20808905D01*
X11082446Y-20823191D01*
X11211017Y-20994620D02*
X11182446Y-21008905D01*
X11111017Y-21008905D01*
X11082446Y-20994620D01*
X11068160Y-20966048D01*
X11068160Y-20937477D01*
X11082446Y-20908905D01*
X11111017Y-20894620D01*
X11182446Y-20894620D01*
X11211017Y-20880334D01*
X11311017Y-20808905D02*
X11425303Y-20808905D01*
X11353874Y-20708905D02*
X11353874Y-20966048D01*
X11368160Y-20994620D01*
X11396731Y-21008905D01*
X11425303Y-21008905D01*
X11639588Y-20994620D02*
X11611017Y-21008905D01*
X11553874Y-21008905D01*
X11525303Y-20994620D01*
X11511017Y-20966048D01*
X11511017Y-20851762D01*
X11525303Y-20823191D01*
X11553874Y-20808905D01*
X11611017Y-20808905D01*
X11639588Y-20823191D01*
X11653874Y-20851762D01*
X11653874Y-20880334D01*
X11511017Y-20908905D01*
X11911017Y-21008905D02*
X11911017Y-20708905D01*
X11911017Y-20994620D02*
X11882446Y-21008905D01*
X11825303Y-21008905D01*
X11796731Y-20994620D01*
X11782446Y-20980334D01*
X11768160Y-20951762D01*
X11768160Y-20866048D01*
X11782446Y-20837477D01*
X11796731Y-20823191D01*
X11825303Y-20808905D01*
X11882446Y-20808905D01*
X11911017Y-20823191D01*
X12025303Y-21123191D02*
X12039588Y-21108905D01*
X12068160Y-21066048D01*
X12082446Y-21037477D01*
X12096731Y-20994620D01*
X12111017Y-20923191D01*
X12111017Y-20866048D01*
X12096731Y-20794620D01*
X12082446Y-20751762D01*
X12068160Y-20723191D01*
X12039588Y-20680334D01*
X12025303Y-20666048D01*
X1398961Y-21331063D02*
X1398961Y-21207319D01*
X1275216Y-21207319D01*
X1275216Y-21331063D01*
X1398961Y-21331063D01*
X1868160Y-21404905D02*
X1696731Y-21404905D01*
X1782446Y-21404905D02*
X1782446Y-21104905D01*
X1753874Y-21147762D01*
X1725303Y-21176334D01*
X1696731Y-21190620D01*
X1996731Y-21376334D02*
X2011017Y-21390620D01*
X1996731Y-21404905D01*
X1982446Y-21390620D01*
X1996731Y-21376334D01*
X1996731Y-21404905D01*
X2111017Y-21104905D02*
X2311017Y-21104905D01*
X2182446Y-21404905D01*
X2568160Y-21104905D02*
X2425303Y-21104905D01*
X2411017Y-21247762D01*
X2425303Y-21233477D01*
X2453874Y-21219191D01*
X2525303Y-21219191D01*
X2553874Y-21233477D01*
X2568160Y-21247762D01*
X2582446Y-21276334D01*
X2582446Y-21347762D01*
X2568160Y-21376334D01*
X2553874Y-21390620D01*
X2525303Y-21404905D01*
X2453874Y-21404905D01*
X2425303Y-21390620D01*
X2411017Y-21376334D01*
X2768160Y-21104905D02*
X2796731Y-21104905D01*
X2825303Y-21119191D01*
X2839588Y-21133477D01*
X2853874Y-21162048D01*
X2868160Y-21219191D01*
X2868160Y-21290620D01*
X2853874Y-21347762D01*
X2839588Y-21376334D01*
X2825303Y-21390620D01*
X2796731Y-21404905D01*
X2768160Y-21404905D01*
X2739589Y-21390620D01*
X2725303Y-21376334D01*
X2711017Y-21347762D01*
X2696731Y-21290620D01*
X2696731Y-21219191D01*
X2711017Y-21162048D01*
X2725303Y-21133477D01*
X2739589Y-21119191D01*
X2768160Y-21104905D01*
X2996731Y-21404905D02*
X2996731Y-21204905D01*
X2996731Y-21233477D02*
X3011017Y-21219191D01*
X3039588Y-21204905D01*
X3082446Y-21204905D01*
X3111017Y-21219191D01*
X3125303Y-21247762D01*
X3125303Y-21404905D01*
X3125303Y-21247762D02*
X3139588Y-21219191D01*
X3168160Y-21204905D01*
X3211017Y-21204905D01*
X3239588Y-21219191D01*
X3253874Y-21247762D01*
X3253874Y-21404905D01*
X3396731Y-21404905D02*
X3396731Y-21204905D01*
X3396731Y-21233477D02*
X3411017Y-21219191D01*
X3439588Y-21204905D01*
X3482446Y-21204905D01*
X3511017Y-21219191D01*
X3525303Y-21247762D01*
X3525303Y-21404905D01*
X3525303Y-21247762D02*
X3539588Y-21219191D01*
X3568160Y-21204905D01*
X3611017Y-21204905D01*
X3639588Y-21219191D01*
X3653874Y-21247762D01*
X3653874Y-21404905D01*
X4239589Y-21090620D02*
X3982446Y-21476334D01*
X4625303Y-21104905D02*
X4653874Y-21104905D01*
X4682446Y-21119191D01*
X4696731Y-21133477D01*
X4711017Y-21162048D01*
X4725303Y-21219191D01*
X4725303Y-21290620D01*
X4711017Y-21347762D01*
X4696731Y-21376334D01*
X4682446Y-21390620D01*
X4653874Y-21404905D01*
X4625303Y-21404905D01*
X4596731Y-21390620D01*
X4582446Y-21376334D01*
X4568160Y-21347762D01*
X4553874Y-21290620D01*
X4553874Y-21219191D01*
X4568160Y-21162048D01*
X4582446Y-21133477D01*
X4596731Y-21119191D01*
X4625303Y-21104905D01*
X4853874Y-21376334D02*
X4868160Y-21390620D01*
X4853874Y-21404905D01*
X4839589Y-21390620D01*
X4853874Y-21376334D01*
X4853874Y-21404905D01*
X5053874Y-21104905D02*
X5082446Y-21104905D01*
X5111017Y-21119191D01*
X5125303Y-21133477D01*
X5139589Y-21162048D01*
X5153874Y-21219191D01*
X5153874Y-21290620D01*
X5139589Y-21347762D01*
X5125303Y-21376334D01*
X5111017Y-21390620D01*
X5082446Y-21404905D01*
X5053874Y-21404905D01*
X5025303Y-21390620D01*
X5011017Y-21376334D01*
X4996731Y-21347762D01*
X4982446Y-21290620D01*
X4982446Y-21219191D01*
X4996731Y-21162048D01*
X5011017Y-21133477D01*
X5025303Y-21119191D01*
X5053874Y-21104905D01*
X5411017Y-21104905D02*
X5353874Y-21104905D01*
X5325303Y-21119191D01*
X5311017Y-21133477D01*
X5282446Y-21176334D01*
X5268160Y-21233477D01*
X5268160Y-21347762D01*
X5282446Y-21376334D01*
X5296731Y-21390620D01*
X5325303Y-21404905D01*
X5382446Y-21404905D01*
X5411017Y-21390620D01*
X5425303Y-21376334D01*
X5439588Y-21347762D01*
X5439588Y-21276334D01*
X5425303Y-21247762D01*
X5411017Y-21233477D01*
X5382446Y-21219191D01*
X5325303Y-21219191D01*
X5296731Y-21233477D01*
X5282446Y-21247762D01*
X5268160Y-21276334D01*
X5611017Y-21233477D02*
X5582446Y-21219191D01*
X5568160Y-21204905D01*
X5553874Y-21176334D01*
X5553874Y-21162048D01*
X5568160Y-21133477D01*
X5582446Y-21119191D01*
X5611017Y-21104905D01*
X5668160Y-21104905D01*
X5696731Y-21119191D01*
X5711017Y-21133477D01*
X5725303Y-21162048D01*
X5725303Y-21176334D01*
X5711017Y-21204905D01*
X5696731Y-21219191D01*
X5668160Y-21233477D01*
X5611017Y-21233477D01*
X5582446Y-21247762D01*
X5568160Y-21262048D01*
X5553874Y-21290620D01*
X5553874Y-21347762D01*
X5568160Y-21376334D01*
X5582446Y-21390620D01*
X5611017Y-21404905D01*
X5668160Y-21404905D01*
X5696731Y-21390620D01*
X5711017Y-21376334D01*
X5725303Y-21347762D01*
X5725303Y-21290620D01*
X5711017Y-21262048D01*
X5696731Y-21247762D01*
X5668160Y-21233477D01*
X5868160Y-21404905D02*
X5925303Y-21404905D01*
X5953874Y-21390620D01*
X5968160Y-21376334D01*
X5996731Y-21333477D01*
X6011017Y-21276334D01*
X6011017Y-21162048D01*
X5996731Y-21133477D01*
X5982446Y-21119191D01*
X5953874Y-21104905D01*
X5896731Y-21104905D01*
X5868160Y-21119191D01*
X5853874Y-21133477D01*
X5839588Y-21162048D01*
X5839588Y-21233477D01*
X5853874Y-21262048D01*
X5868160Y-21276334D01*
X5896731Y-21290620D01*
X5953874Y-21290620D01*
X5982446Y-21276334D01*
X5996731Y-21262048D01*
X6011017Y-21233477D01*
X6125303Y-21104905D02*
X6125303Y-21162048D01*
X6239588Y-21104905D02*
X6239588Y-21162048D01*
X6682446Y-21519191D02*
X6668160Y-21504905D01*
X6639588Y-21462048D01*
X6625303Y-21433477D01*
X6611017Y-21390620D01*
X6596731Y-21319191D01*
X6596731Y-21262048D01*
X6611017Y-21190620D01*
X6625303Y-21147762D01*
X6639588Y-21119191D01*
X6668160Y-21076334D01*
X6682446Y-21062048D01*
X6953874Y-21404905D02*
X6782446Y-21404905D01*
X6868160Y-21404905D02*
X6868160Y-21104905D01*
X6839588Y-21147762D01*
X6811017Y-21176334D01*
X6782446Y-21190620D01*
X7125303Y-21233477D02*
X7096731Y-21219191D01*
X7082446Y-21204905D01*
X7068160Y-21176334D01*
X7068160Y-21162048D01*
X7082446Y-21133477D01*
X7096731Y-21119191D01*
X7125303Y-21104905D01*
X7182446Y-21104905D01*
X7211017Y-21119191D01*
X7225303Y-21133477D01*
X7239588Y-21162048D01*
X7239588Y-21176334D01*
X7225303Y-21204905D01*
X7211017Y-21219191D01*
X7182446Y-21233477D01*
X7125303Y-21233477D01*
X7096731Y-21247762D01*
X7082446Y-21262048D01*
X7068160Y-21290620D01*
X7068160Y-21347762D01*
X7082446Y-21376334D01*
X7096731Y-21390620D01*
X7125303Y-21404905D01*
X7182446Y-21404905D01*
X7211017Y-21390620D01*
X7225303Y-21376334D01*
X7239588Y-21347762D01*
X7239588Y-21290620D01*
X7225303Y-21262048D01*
X7211017Y-21247762D01*
X7182446Y-21233477D01*
X7425303Y-21104905D02*
X7453874Y-21104905D01*
X7482446Y-21119191D01*
X7496731Y-21133477D01*
X7511017Y-21162048D01*
X7525303Y-21219191D01*
X7525303Y-21290620D01*
X7511017Y-21347762D01*
X7496731Y-21376334D01*
X7482446Y-21390620D01*
X7453874Y-21404905D01*
X7425303Y-21404905D01*
X7396731Y-21390620D01*
X7382446Y-21376334D01*
X7368160Y-21347762D01*
X7353874Y-21290620D01*
X7353874Y-21219191D01*
X7368160Y-21162048D01*
X7382446Y-21133477D01*
X7396731Y-21119191D01*
X7425303Y-21104905D01*
X7882446Y-21404905D02*
X7882446Y-21104905D01*
X8011017Y-21404905D02*
X8011017Y-21247762D01*
X7996731Y-21219191D01*
X7968160Y-21204905D01*
X7925303Y-21204905D01*
X7896731Y-21219191D01*
X7882446Y-21233477D01*
X8196731Y-21404905D02*
X8168160Y-21390620D01*
X8153874Y-21376334D01*
X8139588Y-21347762D01*
X8139588Y-21262048D01*
X8153874Y-21233477D01*
X8168160Y-21219191D01*
X8196731Y-21204905D01*
X8239588Y-21204905D01*
X8268160Y-21219191D01*
X8282446Y-21233477D01*
X8296731Y-21262048D01*
X8296731Y-21347762D01*
X8282446Y-21376334D01*
X8268160Y-21390620D01*
X8239588Y-21404905D01*
X8196731Y-21404905D01*
X8468160Y-21404905D02*
X8439588Y-21390620D01*
X8425303Y-21362048D01*
X8425303Y-21104905D01*
X8696731Y-21390620D02*
X8668160Y-21404905D01*
X8611017Y-21404905D01*
X8582446Y-21390620D01*
X8568160Y-21362048D01*
X8568160Y-21247762D01*
X8582446Y-21219191D01*
X8611017Y-21204905D01*
X8668160Y-21204905D01*
X8696731Y-21219191D01*
X8711017Y-21247762D01*
X8711017Y-21276334D01*
X8568160Y-21304905D01*
X8825303Y-21390620D02*
X8853874Y-21404905D01*
X8911017Y-21404905D01*
X8939588Y-21390620D01*
X8953874Y-21362048D01*
X8953874Y-21347762D01*
X8939588Y-21319191D01*
X8911017Y-21304905D01*
X8868160Y-21304905D01*
X8839588Y-21290620D01*
X8825303Y-21262048D01*
X8825303Y-21247762D01*
X8839588Y-21219191D01*
X8868160Y-21204905D01*
X8911017Y-21204905D01*
X8939588Y-21219191D01*
X9053874Y-21519191D02*
X9068160Y-21504905D01*
X9096731Y-21462048D01*
X9111017Y-21433477D01*
X9125303Y-21390620D01*
X9139588Y-21319191D01*
X9139588Y-21262048D01*
X9125303Y-21190620D01*
X9111017Y-21147762D01*
X9096731Y-21119191D01*
X9068160Y-21076334D01*
X9053874Y-21062048D01*
X9596731Y-21519191D02*
X9582446Y-21504905D01*
X9553874Y-21462048D01*
X9539588Y-21433477D01*
X9525303Y-21390620D01*
X9511017Y-21319191D01*
X9511017Y-21262048D01*
X9525303Y-21190620D01*
X9539588Y-21147762D01*
X9553874Y-21119191D01*
X9582446Y-21076334D01*
X9596731Y-21062048D01*
X9711017Y-21204905D02*
X9711017Y-21404905D01*
X9711017Y-21233477D02*
X9725303Y-21219191D01*
X9753874Y-21204905D01*
X9796731Y-21204905D01*
X9825303Y-21219191D01*
X9839588Y-21247762D01*
X9839588Y-21404905D01*
X10025303Y-21404905D02*
X9996731Y-21390620D01*
X9982446Y-21376334D01*
X9968160Y-21347762D01*
X9968160Y-21262048D01*
X9982446Y-21233477D01*
X9996731Y-21219191D01*
X10025303Y-21204905D01*
X10068160Y-21204905D01*
X10096731Y-21219191D01*
X10111017Y-21233477D01*
X10125303Y-21262048D01*
X10125303Y-21347762D01*
X10111017Y-21376334D01*
X10096731Y-21390620D01*
X10068160Y-21404905D01*
X10025303Y-21404905D01*
X10211017Y-21204905D02*
X10325303Y-21204905D01*
X10253874Y-21104905D02*
X10253874Y-21362048D01*
X10268160Y-21390620D01*
X10296731Y-21404905D01*
X10325303Y-21404905D01*
X10653874Y-21204905D02*
X10653874Y-21504905D01*
X10653874Y-21219191D02*
X10682446Y-21204905D01*
X10739588Y-21204905D01*
X10768160Y-21219191D01*
X10782446Y-21233477D01*
X10796731Y-21262048D01*
X10796731Y-21347762D01*
X10782446Y-21376334D01*
X10768160Y-21390620D01*
X10739588Y-21404905D01*
X10682446Y-21404905D01*
X10653874Y-21390620D01*
X10968160Y-21404905D02*
X10939588Y-21390620D01*
X10925303Y-21362048D01*
X10925303Y-21104905D01*
X11211017Y-21404905D02*
X11211017Y-21247762D01*
X11196731Y-21219191D01*
X11168160Y-21204905D01*
X11111017Y-21204905D01*
X11082446Y-21219191D01*
X11211017Y-21390620D02*
X11182446Y-21404905D01*
X11111017Y-21404905D01*
X11082446Y-21390620D01*
X11068160Y-21362048D01*
X11068160Y-21333477D01*
X11082446Y-21304905D01*
X11111017Y-21290620D01*
X11182446Y-21290620D01*
X11211017Y-21276334D01*
X11311017Y-21204905D02*
X11425303Y-21204905D01*
X11353874Y-21104905D02*
X11353874Y-21362048D01*
X11368160Y-21390620D01*
X11396731Y-21404905D01*
X11425303Y-21404905D01*
X11639588Y-21390620D02*
X11611017Y-21404905D01*
X11553874Y-21404905D01*
X11525303Y-21390620D01*
X11511017Y-21362048D01*
X11511017Y-21247762D01*
X11525303Y-21219191D01*
X11553874Y-21204905D01*
X11611017Y-21204905D01*
X11639588Y-21219191D01*
X11653874Y-21247762D01*
X11653874Y-21276334D01*
X11511017Y-21304905D01*
X11911017Y-21404905D02*
X11911017Y-21104905D01*
X11911017Y-21390620D02*
X11882446Y-21404905D01*
X11825303Y-21404905D01*
X11796731Y-21390620D01*
X11782446Y-21376334D01*
X11768160Y-21347762D01*
X11768160Y-21262048D01*
X11782446Y-21233477D01*
X11796731Y-21219191D01*
X11825303Y-21204905D01*
X11882446Y-21204905D01*
X11911017Y-21219191D01*
X12025303Y-21519191D02*
X12039588Y-21504905D01*
X12068160Y-21462048D01*
X12082446Y-21433477D01*
X12096731Y-21390620D01*
X12111017Y-21319191D01*
X12111017Y-21262048D01*
X12096731Y-21190620D01*
X12082446Y-21147762D01*
X12068160Y-21119191D01*
X12039588Y-21076334D01*
X12025303Y-21062048D01*
X1272189Y-21817591D02*
X1424588Y-21665191D01*
X1272189Y-21512791D01*
X1119789Y-21665191D01*
X1272189Y-21817591D01*
X1682446Y-21500905D02*
X1868160Y-21500905D01*
X1768160Y-21615191D01*
X1811017Y-21615191D01*
X1839588Y-21629477D01*
X1853874Y-21643762D01*
X1868160Y-21672334D01*
X1868160Y-21743762D01*
X1853874Y-21772334D01*
X1839588Y-21786620D01*
X1811017Y-21800905D01*
X1725303Y-21800905D01*
X1696731Y-21786620D01*
X1682446Y-21772334D01*
X1996731Y-21772334D02*
X2011017Y-21786620D01*
X1996731Y-21800905D01*
X1982446Y-21786620D01*
X1996731Y-21772334D01*
X1996731Y-21800905D01*
X2196731Y-21500905D02*
X2225303Y-21500905D01*
X2253874Y-21515191D01*
X2268160Y-21529477D01*
X2282446Y-21558048D01*
X2296731Y-21615191D01*
X2296731Y-21686620D01*
X2282446Y-21743762D01*
X2268160Y-21772334D01*
X2253874Y-21786620D01*
X2225303Y-21800905D01*
X2196731Y-21800905D01*
X2168160Y-21786620D01*
X2153874Y-21772334D01*
X2139589Y-21743762D01*
X2125303Y-21686620D01*
X2125303Y-21615191D01*
X2139589Y-21558048D01*
X2153874Y-21529477D01*
X2168160Y-21515191D01*
X2196731Y-21500905D01*
X2553874Y-21600905D02*
X2553874Y-21800905D01*
X2482446Y-21486620D02*
X2411017Y-21700905D01*
X2596731Y-21700905D01*
X2753874Y-21629477D02*
X2725303Y-21615191D01*
X2711017Y-21600905D01*
X2696731Y-21572334D01*
X2696731Y-21558048D01*
X2711017Y-21529477D01*
X2725303Y-21515191D01*
X2753874Y-21500905D01*
X2811017Y-21500905D01*
X2839588Y-21515191D01*
X2853874Y-21529477D01*
X2868160Y-21558048D01*
X2868160Y-21572334D01*
X2853874Y-21600905D01*
X2839588Y-21615191D01*
X2811017Y-21629477D01*
X2753874Y-21629477D01*
X2725303Y-21643762D01*
X2711017Y-21658048D01*
X2696731Y-21686620D01*
X2696731Y-21743762D01*
X2711017Y-21772334D01*
X2725303Y-21786620D01*
X2753874Y-21800905D01*
X2811017Y-21800905D01*
X2839588Y-21786620D01*
X2853874Y-21772334D01*
X2868160Y-21743762D01*
X2868160Y-21686620D01*
X2853874Y-21658048D01*
X2839588Y-21643762D01*
X2811017Y-21629477D01*
X2996731Y-21800905D02*
X2996731Y-21600905D01*
X2996731Y-21629477D02*
X3011017Y-21615191D01*
X3039588Y-21600905D01*
X3082446Y-21600905D01*
X3111017Y-21615191D01*
X3125303Y-21643762D01*
X3125303Y-21800905D01*
X3125303Y-21643762D02*
X3139588Y-21615191D01*
X3168160Y-21600905D01*
X3211017Y-21600905D01*
X3239588Y-21615191D01*
X3253874Y-21643762D01*
X3253874Y-21800905D01*
X3396731Y-21800905D02*
X3396731Y-21600905D01*
X3396731Y-21629477D02*
X3411017Y-21615191D01*
X3439588Y-21600905D01*
X3482446Y-21600905D01*
X3511017Y-21615191D01*
X3525303Y-21643762D01*
X3525303Y-21800905D01*
X3525303Y-21643762D02*
X3539588Y-21615191D01*
X3568160Y-21600905D01*
X3611017Y-21600905D01*
X3639588Y-21615191D01*
X3653874Y-21643762D01*
X3653874Y-21800905D01*
X4239589Y-21486620D02*
X3982446Y-21872334D01*
X4625303Y-21500905D02*
X4653874Y-21500905D01*
X4682446Y-21515191D01*
X4696731Y-21529477D01*
X4711017Y-21558048D01*
X4725303Y-21615191D01*
X4725303Y-21686620D01*
X4711017Y-21743762D01*
X4696731Y-21772334D01*
X4682446Y-21786620D01*
X4653874Y-21800905D01*
X4625303Y-21800905D01*
X4596731Y-21786620D01*
X4582446Y-21772334D01*
X4568160Y-21743762D01*
X4553874Y-21686620D01*
X4553874Y-21615191D01*
X4568160Y-21558048D01*
X4582446Y-21529477D01*
X4596731Y-21515191D01*
X4625303Y-21500905D01*
X4853874Y-21772334D02*
X4868160Y-21786620D01*
X4853874Y-21800905D01*
X4839589Y-21786620D01*
X4853874Y-21772334D01*
X4853874Y-21800905D01*
X5153874Y-21800905D02*
X4982446Y-21800905D01*
X5068160Y-21800905D02*
X5068160Y-21500905D01*
X5039589Y-21543762D01*
X5011017Y-21572334D01*
X4982446Y-21586620D01*
X5268160Y-21529477D02*
X5282446Y-21515191D01*
X5311017Y-21500905D01*
X5382446Y-21500905D01*
X5411017Y-21515191D01*
X5425303Y-21529477D01*
X5439588Y-21558048D01*
X5439588Y-21586620D01*
X5425303Y-21629477D01*
X5253874Y-21800905D01*
X5439588Y-21800905D01*
X5625303Y-21500905D02*
X5653874Y-21500905D01*
X5682446Y-21515191D01*
X5696731Y-21529477D01*
X5711017Y-21558048D01*
X5725303Y-21615191D01*
X5725303Y-21686620D01*
X5711017Y-21743762D01*
X5696731Y-21772334D01*
X5682446Y-21786620D01*
X5653874Y-21800905D01*
X5625303Y-21800905D01*
X5596731Y-21786620D01*
X5582446Y-21772334D01*
X5568160Y-21743762D01*
X5553874Y-21686620D01*
X5553874Y-21615191D01*
X5568160Y-21558048D01*
X5582446Y-21529477D01*
X5596731Y-21515191D01*
X5625303Y-21500905D01*
X5911017Y-21500905D02*
X5939588Y-21500905D01*
X5968160Y-21515191D01*
X5982446Y-21529477D01*
X5996731Y-21558048D01*
X6011017Y-21615191D01*
X6011017Y-21686620D01*
X5996731Y-21743762D01*
X5982446Y-21772334D01*
X5968160Y-21786620D01*
X5939588Y-21800905D01*
X5911017Y-21800905D01*
X5882446Y-21786620D01*
X5868160Y-21772334D01*
X5853874Y-21743762D01*
X5839588Y-21686620D01*
X5839588Y-21615191D01*
X5853874Y-21558048D01*
X5868160Y-21529477D01*
X5882446Y-21515191D01*
X5911017Y-21500905D01*
X6125303Y-21500905D02*
X6125303Y-21558048D01*
X6239588Y-21500905D02*
X6239588Y-21558048D01*
X6682446Y-21915191D02*
X6668160Y-21900905D01*
X6639588Y-21858048D01*
X6625303Y-21829477D01*
X6611017Y-21786620D01*
X6596731Y-21715191D01*
X6596731Y-21658048D01*
X6611017Y-21586620D01*
X6625303Y-21543762D01*
X6639588Y-21515191D01*
X6668160Y-21472334D01*
X6682446Y-21458048D01*
X6925303Y-21600905D02*
X6925303Y-21800905D01*
X6853874Y-21486620D02*
X6782446Y-21700905D01*
X6968160Y-21700905D01*
X7311017Y-21800905D02*
X7311017Y-21500905D01*
X7439588Y-21800905D02*
X7439588Y-21643762D01*
X7425303Y-21615191D01*
X7396731Y-21600905D01*
X7353874Y-21600905D01*
X7325303Y-21615191D01*
X7311017Y-21629477D01*
X7625303Y-21800905D02*
X7596731Y-21786620D01*
X7582446Y-21772334D01*
X7568160Y-21743762D01*
X7568160Y-21658048D01*
X7582446Y-21629477D01*
X7596731Y-21615191D01*
X7625303Y-21600905D01*
X7668160Y-21600905D01*
X7696731Y-21615191D01*
X7711017Y-21629477D01*
X7725303Y-21658048D01*
X7725303Y-21743762D01*
X7711017Y-21772334D01*
X7696731Y-21786620D01*
X7668160Y-21800905D01*
X7625303Y-21800905D01*
X7896731Y-21800905D02*
X7868160Y-21786620D01*
X7853874Y-21758048D01*
X7853874Y-21500905D01*
X8125303Y-21786620D02*
X8096731Y-21800905D01*
X8039588Y-21800905D01*
X8011017Y-21786620D01*
X7996731Y-21758048D01*
X7996731Y-21643762D01*
X8011017Y-21615191D01*
X8039588Y-21600905D01*
X8096731Y-21600905D01*
X8125303Y-21615191D01*
X8139588Y-21643762D01*
X8139588Y-21672334D01*
X7996731Y-21700905D01*
X8253874Y-21786620D02*
X8282446Y-21800905D01*
X8339588Y-21800905D01*
X8368160Y-21786620D01*
X8382446Y-21758048D01*
X8382446Y-21743762D01*
X8368160Y-21715191D01*
X8339588Y-21700905D01*
X8296731Y-21700905D01*
X8268160Y-21686620D01*
X8253874Y-21658048D01*
X8253874Y-21643762D01*
X8268160Y-21615191D01*
X8296731Y-21600905D01*
X8339588Y-21600905D01*
X8368160Y-21615191D01*
X8482446Y-21915191D02*
X8496731Y-21900905D01*
X8525303Y-21858048D01*
X8539589Y-21829477D01*
X8553874Y-21786620D01*
X8568160Y-21715191D01*
X8568160Y-21658048D01*
X8553874Y-21586620D01*
X8539589Y-21543762D01*
X8525303Y-21515191D01*
X8496731Y-21472334D01*
X8482446Y-21458048D01*
X9025303Y-21915191D02*
X9011017Y-21900905D01*
X8982446Y-21858048D01*
X8968160Y-21829477D01*
X8953874Y-21786620D01*
X8939589Y-21715191D01*
X8939589Y-21658048D01*
X8953874Y-21586620D01*
X8968160Y-21543762D01*
X8982446Y-21515191D01*
X9011017Y-21472334D01*
X9025303Y-21458048D01*
X9139589Y-21600905D02*
X9139589Y-21800905D01*
X9139589Y-21629477D02*
X9153874Y-21615191D01*
X9182446Y-21600905D01*
X9225303Y-21600905D01*
X9253874Y-21615191D01*
X9268160Y-21643762D01*
X9268160Y-21800905D01*
X9453874Y-21800905D02*
X9425303Y-21786620D01*
X9411017Y-21772334D01*
X9396731Y-21743762D01*
X9396731Y-21658048D01*
X9411017Y-21629477D01*
X9425303Y-21615191D01*
X9453874Y-21600905D01*
X9496731Y-21600905D01*
X9525303Y-21615191D01*
X9539589Y-21629477D01*
X9553874Y-21658048D01*
X9553874Y-21743762D01*
X9539589Y-21772334D01*
X9525303Y-21786620D01*
X9496731Y-21800905D01*
X9453874Y-21800905D01*
X9639589Y-21600905D02*
X9753874Y-21600905D01*
X9682446Y-21500905D02*
X9682446Y-21758048D01*
X9696731Y-21786620D01*
X9725303Y-21800905D01*
X9753874Y-21800905D01*
X10082446Y-21600905D02*
X10082446Y-21900905D01*
X10082446Y-21615191D02*
X10111017Y-21600905D01*
X10168160Y-21600905D01*
X10196731Y-21615191D01*
X10211017Y-21629477D01*
X10225303Y-21658048D01*
X10225303Y-21743762D01*
X10211017Y-21772334D01*
X10196731Y-21786620D01*
X10168160Y-21800905D01*
X10111017Y-21800905D01*
X10082446Y-21786620D01*
X10396731Y-21800905D02*
X10368160Y-21786620D01*
X10353874Y-21758048D01*
X10353874Y-21500905D01*
X10639589Y-21800905D02*
X10639589Y-21643762D01*
X10625303Y-21615191D01*
X10596731Y-21600905D01*
X10539589Y-21600905D01*
X10511017Y-21615191D01*
X10639589Y-21786620D02*
X10611017Y-21800905D01*
X10539589Y-21800905D01*
X10511017Y-21786620D01*
X10496731Y-21758048D01*
X10496731Y-21729477D01*
X10511017Y-21700905D01*
X10539589Y-21686620D01*
X10611017Y-21686620D01*
X10639589Y-21672334D01*
X10739589Y-21600905D02*
X10853874Y-21600905D01*
X10782446Y-21500905D02*
X10782446Y-21758048D01*
X10796731Y-21786620D01*
X10825303Y-21800905D01*
X10853874Y-21800905D01*
X11068160Y-21786620D02*
X11039589Y-21800905D01*
X10982446Y-21800905D01*
X10953874Y-21786620D01*
X10939589Y-21758048D01*
X10939589Y-21643762D01*
X10953874Y-21615191D01*
X10982446Y-21600905D01*
X11039589Y-21600905D01*
X11068160Y-21615191D01*
X11082446Y-21643762D01*
X11082446Y-21672334D01*
X10939589Y-21700905D01*
X11339588Y-21800905D02*
X11339588Y-21500905D01*
X11339588Y-21786620D02*
X11311017Y-21800905D01*
X11253874Y-21800905D01*
X11225303Y-21786620D01*
X11211017Y-21772334D01*
X11196731Y-21743762D01*
X11196731Y-21658048D01*
X11211017Y-21629477D01*
X11225303Y-21615191D01*
X11253874Y-21600905D01*
X11311017Y-21600905D01*
X11339588Y-21615191D01*
X11453874Y-21915191D02*
X11468160Y-21900905D01*
X11496731Y-21858048D01*
X11511017Y-21829477D01*
X11525303Y-21786620D01*
X11539588Y-21715191D01*
X11539588Y-21658048D01*
X11525303Y-21586620D01*
X11511017Y-21543762D01*
X11496731Y-21515191D01*
X11468160Y-21472334D01*
X11453874Y-21458048D01*
X1025808Y-21900601D02*
X1424588Y-22299381D01*
X1424588Y-21900601D02*
X1025808Y-22299381D01*
X1424588Y-22099991D02*
G75*
G03*
X1424588Y-22099991I-199390J0D01*
G01*
X1682446Y-21935705D02*
X1868160Y-21935705D01*
X1768160Y-22049991D01*
X1811017Y-22049991D01*
X1839588Y-22064277D01*
X1853874Y-22078562D01*
X1868160Y-22107134D01*
X1868160Y-22178562D01*
X1853874Y-22207134D01*
X1839588Y-22221420D01*
X1811017Y-22235705D01*
X1725303Y-22235705D01*
X1696731Y-22221420D01*
X1682446Y-22207134D01*
X1996731Y-22207134D02*
X2011017Y-22221420D01*
X1996731Y-22235705D01*
X1982446Y-22221420D01*
X1996731Y-22207134D01*
X1996731Y-22235705D01*
X2153874Y-22235705D02*
X2211017Y-22235705D01*
X2239589Y-22221420D01*
X2253874Y-22207134D01*
X2282446Y-22164277D01*
X2296731Y-22107134D01*
X2296731Y-21992848D01*
X2282446Y-21964277D01*
X2268160Y-21949991D01*
X2239589Y-21935705D01*
X2182446Y-21935705D01*
X2153874Y-21949991D01*
X2139589Y-21964277D01*
X2125303Y-21992848D01*
X2125303Y-22064277D01*
X2139589Y-22092848D01*
X2153874Y-22107134D01*
X2182446Y-22121420D01*
X2239589Y-22121420D01*
X2268160Y-22107134D01*
X2282446Y-22092848D01*
X2296731Y-22064277D01*
X2468160Y-22064277D02*
X2439589Y-22049991D01*
X2425303Y-22035705D01*
X2411017Y-22007134D01*
X2411017Y-21992848D01*
X2425303Y-21964277D01*
X2439589Y-21949991D01*
X2468160Y-21935705D01*
X2525303Y-21935705D01*
X2553874Y-21949991D01*
X2568160Y-21964277D01*
X2582446Y-21992848D01*
X2582446Y-22007134D01*
X2568160Y-22035705D01*
X2553874Y-22049991D01*
X2525303Y-22064277D01*
X2468160Y-22064277D01*
X2439589Y-22078562D01*
X2425303Y-22092848D01*
X2411017Y-22121420D01*
X2411017Y-22178562D01*
X2425303Y-22207134D01*
X2439589Y-22221420D01*
X2468160Y-22235705D01*
X2525303Y-22235705D01*
X2553874Y-22221420D01*
X2568160Y-22207134D01*
X2582446Y-22178562D01*
X2582446Y-22121420D01*
X2568160Y-22092848D01*
X2553874Y-22078562D01*
X2525303Y-22064277D01*
X2753874Y-22064277D02*
X2725303Y-22049991D01*
X2711017Y-22035705D01*
X2696731Y-22007134D01*
X2696731Y-21992848D01*
X2711017Y-21964277D01*
X2725303Y-21949991D01*
X2753874Y-21935705D01*
X2811017Y-21935705D01*
X2839588Y-21949991D01*
X2853874Y-21964277D01*
X2868160Y-21992848D01*
X2868160Y-22007134D01*
X2853874Y-22035705D01*
X2839588Y-22049991D01*
X2811017Y-22064277D01*
X2753874Y-22064277D01*
X2725303Y-22078562D01*
X2711017Y-22092848D01*
X2696731Y-22121420D01*
X2696731Y-22178562D01*
X2711017Y-22207134D01*
X2725303Y-22221420D01*
X2753874Y-22235705D01*
X2811017Y-22235705D01*
X2839588Y-22221420D01*
X2853874Y-22207134D01*
X2868160Y-22178562D01*
X2868160Y-22121420D01*
X2853874Y-22092848D01*
X2839588Y-22078562D01*
X2811017Y-22064277D01*
X2996731Y-22235705D02*
X2996731Y-22035705D01*
X2996731Y-22064277D02*
X3011017Y-22049991D01*
X3039588Y-22035705D01*
X3082446Y-22035705D01*
X3111017Y-22049991D01*
X3125303Y-22078562D01*
X3125303Y-22235705D01*
X3125303Y-22078562D02*
X3139588Y-22049991D01*
X3168160Y-22035705D01*
X3211017Y-22035705D01*
X3239588Y-22049991D01*
X3253874Y-22078562D01*
X3253874Y-22235705D01*
X3396731Y-22235705D02*
X3396731Y-22035705D01*
X3396731Y-22064277D02*
X3411017Y-22049991D01*
X3439588Y-22035705D01*
X3482446Y-22035705D01*
X3511017Y-22049991D01*
X3525303Y-22078562D01*
X3525303Y-22235705D01*
X3525303Y-22078562D02*
X3539588Y-22049991D01*
X3568160Y-22035705D01*
X3611017Y-22035705D01*
X3639588Y-22049991D01*
X3653874Y-22078562D01*
X3653874Y-22235705D01*
X4239589Y-21921420D02*
X3982446Y-22307134D01*
X4625303Y-21935705D02*
X4653874Y-21935705D01*
X4682446Y-21949991D01*
X4696731Y-21964277D01*
X4711017Y-21992848D01*
X4725303Y-22049991D01*
X4725303Y-22121420D01*
X4711017Y-22178562D01*
X4696731Y-22207134D01*
X4682446Y-22221420D01*
X4653874Y-22235705D01*
X4625303Y-22235705D01*
X4596731Y-22221420D01*
X4582446Y-22207134D01*
X4568160Y-22178562D01*
X4553874Y-22121420D01*
X4553874Y-22049991D01*
X4568160Y-21992848D01*
X4582446Y-21964277D01*
X4596731Y-21949991D01*
X4625303Y-21935705D01*
X4853874Y-22207134D02*
X4868160Y-22221420D01*
X4853874Y-22235705D01*
X4839589Y-22221420D01*
X4853874Y-22207134D01*
X4853874Y-22235705D01*
X5153874Y-22235705D02*
X4982446Y-22235705D01*
X5068160Y-22235705D02*
X5068160Y-21935705D01*
X5039589Y-21978562D01*
X5011017Y-22007134D01*
X4982446Y-22021420D01*
X5425303Y-21935705D02*
X5282446Y-21935705D01*
X5268160Y-22078562D01*
X5282446Y-22064277D01*
X5311017Y-22049991D01*
X5382446Y-22049991D01*
X5411017Y-22064277D01*
X5425303Y-22078562D01*
X5439588Y-22107134D01*
X5439588Y-22178562D01*
X5425303Y-22207134D01*
X5411017Y-22221420D01*
X5382446Y-22235705D01*
X5311017Y-22235705D01*
X5282446Y-22221420D01*
X5268160Y-22207134D01*
X5539588Y-21935705D02*
X5739588Y-21935705D01*
X5611017Y-22235705D01*
X5911017Y-21935705D02*
X5939588Y-21935705D01*
X5968160Y-21949991D01*
X5982446Y-21964277D01*
X5996731Y-21992848D01*
X6011017Y-22049991D01*
X6011017Y-22121420D01*
X5996731Y-22178562D01*
X5982446Y-22207134D01*
X5968160Y-22221420D01*
X5939588Y-22235705D01*
X5911017Y-22235705D01*
X5882446Y-22221420D01*
X5868160Y-22207134D01*
X5853874Y-22178562D01*
X5839588Y-22121420D01*
X5839588Y-22049991D01*
X5853874Y-21992848D01*
X5868160Y-21964277D01*
X5882446Y-21949991D01*
X5911017Y-21935705D01*
X6125303Y-21935705D02*
X6125303Y-21992848D01*
X6239588Y-21935705D02*
X6239588Y-21992848D01*
X6682446Y-22349991D02*
X6668160Y-22335705D01*
X6639588Y-22292848D01*
X6625303Y-22264277D01*
X6611017Y-22221420D01*
X6596731Y-22149991D01*
X6596731Y-22092848D01*
X6611017Y-22021420D01*
X6625303Y-21978562D01*
X6639588Y-21949991D01*
X6668160Y-21907134D01*
X6682446Y-21892848D01*
X6811017Y-22235705D02*
X6868160Y-22235705D01*
X6896731Y-22221420D01*
X6911017Y-22207134D01*
X6939588Y-22164277D01*
X6953874Y-22107134D01*
X6953874Y-21992848D01*
X6939588Y-21964277D01*
X6925303Y-21949991D01*
X6896731Y-21935705D01*
X6839588Y-21935705D01*
X6811017Y-21949991D01*
X6796731Y-21964277D01*
X6782446Y-21992848D01*
X6782446Y-22064277D01*
X6796731Y-22092848D01*
X6811017Y-22107134D01*
X6839588Y-22121420D01*
X6896731Y-22121420D01*
X6925303Y-22107134D01*
X6939588Y-22092848D01*
X6953874Y-22064277D01*
X7211017Y-22035705D02*
X7211017Y-22235705D01*
X7139588Y-21921420D02*
X7068160Y-22135705D01*
X7253874Y-22135705D01*
X7596731Y-22235705D02*
X7596731Y-21935705D01*
X7725303Y-22235705D02*
X7725303Y-22078562D01*
X7711017Y-22049991D01*
X7682446Y-22035705D01*
X7639588Y-22035705D01*
X7611017Y-22049991D01*
X7596731Y-22064277D01*
X7911017Y-22235705D02*
X7882446Y-22221420D01*
X7868160Y-22207134D01*
X7853874Y-22178562D01*
X7853874Y-22092848D01*
X7868160Y-22064277D01*
X7882446Y-22049991D01*
X7911017Y-22035705D01*
X7953874Y-22035705D01*
X7982446Y-22049991D01*
X7996731Y-22064277D01*
X8011017Y-22092848D01*
X8011017Y-22178562D01*
X7996731Y-22207134D01*
X7982446Y-22221420D01*
X7953874Y-22235705D01*
X7911017Y-22235705D01*
X8182446Y-22235705D02*
X8153874Y-22221420D01*
X8139588Y-22192848D01*
X8139588Y-21935705D01*
X8411017Y-22221420D02*
X8382446Y-22235705D01*
X8325303Y-22235705D01*
X8296731Y-22221420D01*
X8282446Y-22192848D01*
X8282446Y-22078562D01*
X8296731Y-22049991D01*
X8325303Y-22035705D01*
X8382446Y-22035705D01*
X8411017Y-22049991D01*
X8425303Y-22078562D01*
X8425303Y-22107134D01*
X8282446Y-22135705D01*
X8539589Y-22221420D02*
X8568160Y-22235705D01*
X8625303Y-22235705D01*
X8653874Y-22221420D01*
X8668160Y-22192848D01*
X8668160Y-22178562D01*
X8653874Y-22149991D01*
X8625303Y-22135705D01*
X8582446Y-22135705D01*
X8553874Y-22121420D01*
X8539589Y-22092848D01*
X8539589Y-22078562D01*
X8553874Y-22049991D01*
X8582446Y-22035705D01*
X8625303Y-22035705D01*
X8653874Y-22049991D01*
X8768160Y-22349991D02*
X8782446Y-22335705D01*
X8811017Y-22292848D01*
X8825303Y-22264277D01*
X8839589Y-22221420D01*
X8853874Y-22149991D01*
X8853874Y-22092848D01*
X8839589Y-22021420D01*
X8825303Y-21978562D01*
X8811017Y-21949991D01*
X8782446Y-21907134D01*
X8768160Y-21892848D01*
X9311017Y-22349991D02*
X9296731Y-22335705D01*
X9268160Y-22292848D01*
X9253874Y-22264277D01*
X9239589Y-22221420D01*
X9225303Y-22149991D01*
X9225303Y-22092848D01*
X9239589Y-22021420D01*
X9253874Y-21978562D01*
X9268160Y-21949991D01*
X9296731Y-21907134D01*
X9311017Y-21892848D01*
X9425303Y-22035705D02*
X9425303Y-22235705D01*
X9425303Y-22064277D02*
X9439589Y-22049991D01*
X9468160Y-22035705D01*
X9511017Y-22035705D01*
X9539589Y-22049991D01*
X9553874Y-22078562D01*
X9553874Y-22235705D01*
X9739589Y-22235705D02*
X9711017Y-22221420D01*
X9696731Y-22207134D01*
X9682446Y-22178562D01*
X9682446Y-22092848D01*
X9696731Y-22064277D01*
X9711017Y-22049991D01*
X9739589Y-22035705D01*
X9782446Y-22035705D01*
X9811017Y-22049991D01*
X9825303Y-22064277D01*
X9839589Y-22092848D01*
X9839589Y-22178562D01*
X9825303Y-22207134D01*
X9811017Y-22221420D01*
X9782446Y-22235705D01*
X9739589Y-22235705D01*
X9925303Y-22035705D02*
X10039589Y-22035705D01*
X9968160Y-21935705D02*
X9968160Y-22192848D01*
X9982446Y-22221420D01*
X10011017Y-22235705D01*
X10039589Y-22235705D01*
X10368160Y-22035705D02*
X10368160Y-22335705D01*
X10368160Y-22049991D02*
X10396731Y-22035705D01*
X10453874Y-22035705D01*
X10482446Y-22049991D01*
X10496731Y-22064277D01*
X10511017Y-22092848D01*
X10511017Y-22178562D01*
X10496731Y-22207134D01*
X10482446Y-22221420D01*
X10453874Y-22235705D01*
X10396731Y-22235705D01*
X10368160Y-22221420D01*
X10682446Y-22235705D02*
X10653874Y-22221420D01*
X10639589Y-22192848D01*
X10639589Y-21935705D01*
X10925303Y-22235705D02*
X10925303Y-22078562D01*
X10911017Y-22049991D01*
X10882446Y-22035705D01*
X10825303Y-22035705D01*
X10796731Y-22049991D01*
X10925303Y-22221420D02*
X10896731Y-22235705D01*
X10825303Y-22235705D01*
X10796731Y-22221420D01*
X10782446Y-22192848D01*
X10782446Y-22164277D01*
X10796731Y-22135705D01*
X10825303Y-22121420D01*
X10896731Y-22121420D01*
X10925303Y-22107134D01*
X11025303Y-22035705D02*
X11139589Y-22035705D01*
X11068160Y-21935705D02*
X11068160Y-22192848D01*
X11082446Y-22221420D01*
X11111017Y-22235705D01*
X11139589Y-22235705D01*
X11353874Y-22221420D02*
X11325303Y-22235705D01*
X11268160Y-22235705D01*
X11239588Y-22221420D01*
X11225303Y-22192848D01*
X11225303Y-22078562D01*
X11239588Y-22049991D01*
X11268160Y-22035705D01*
X11325303Y-22035705D01*
X11353874Y-22049991D01*
X11368160Y-22078562D01*
X11368160Y-22107134D01*
X11225303Y-22135705D01*
X11625303Y-22235705D02*
X11625303Y-21935705D01*
X11625303Y-22221420D02*
X11596731Y-22235705D01*
X11539588Y-22235705D01*
X11511017Y-22221420D01*
X11496731Y-22207134D01*
X11482446Y-22178562D01*
X11482446Y-22092848D01*
X11496731Y-22064277D01*
X11511017Y-22049991D01*
X11539588Y-22035705D01*
X11596731Y-22035705D01*
X11625303Y-22049991D01*
X11739588Y-22349991D02*
X11753874Y-22335705D01*
X11782446Y-22292848D01*
X11796731Y-22264277D01*
X11811017Y-22221420D01*
X11825303Y-22149991D01*
X11825303Y-22092848D01*
X11811017Y-22021420D01*
X11796731Y-21978562D01*
X11782446Y-21949991D01*
X11753874Y-21907134D01*
X11739588Y-21892848D01*
M02*
