M48
; DRILL file {KiCad (5.1.10)-1} date 09/15/21 15:45:30
; FORMAT={-:-/ absolute / metric / decimal}
; #@! TF.CreationDate,2021-09-15T15:45:30+01:00
; #@! TF.GenerationSoftware,Kicad,Pcbnew,(5.1.10)-1
; #@! TF.FileFunction,Plated,1,2,PTH
FMAT,2
METRIC
T1C0.400
T2C0.600
T3C1.000
T4C1.200
T5C1.470
T6C2.200
%
G90
G05
T1
X59.436Y-72.644
X78.232Y-76.2
X116.84Y-79.756
X135.382Y-83.312
X153.162Y-89.916
X167.516Y-150.238
X170.434Y-155.194
X171.958Y-112.138
X172.85Y-131.188
X173.228Y-94.996
X192.532Y-96.266
X193.17Y-150.238
X198.374Y-86.106
X199.898Y-86.106
X201.168Y-86.106
X205.55Y-86.5
X210.081Y-80.495
X211.582Y-107.95
X212.725Y-169.288
X214.884Y-95.631
X219.456Y-84.074
X219.456Y-85.55
X219.456Y-87.122
X220.85Y-86.4
X221.571Y-81.865
X221.599Y-83.676
X223.52Y-88.646
X225.552Y-87.884
X227.076Y-81.534
X228.674Y-81.714
X229.486Y-110.112
X229.997Y-85.344
X229.997Y-86.614
X230.124Y-96.266
X230.25Y-81.75
X231.14Y-87.63
X233.934Y-80.772
X233.976Y-78.782
X237.48Y-79.71
X237.57Y-89.67
X243.52Y-83.94
X244.15Y-82.15
X296.926Y-88.392
T3
X198.374Y-78.232
X198.374Y-80.772
X198.374Y-83.312
X200.914Y-78.232
X200.914Y-80.772
X200.914Y-83.312
T4
X31.05Y-139.377
X35.336Y-142.699
X35.958Y-120.96
X40.244Y-124.282
X40.896Y-102.571
X45.182Y-105.893
X45.828Y-84.023
X49.055Y-145.685
X50.114Y-87.346
X50.696Y-65.795
X53.341Y-149.008
X54.012Y-127.323
X54.982Y-69.117
X58.298Y-130.646
X58.947Y-108.989
X63.233Y-112.311
X63.957Y-90.416
X67.847Y-149.217
X68.243Y-93.739
X68.854Y-72.15
X72.133Y-152.54
X72.781Y-130.79
X73.14Y-75.473
X77.068Y-134.112
X77.696Y-112.447
X81.982Y-115.769
X82.658Y-93.886
X86.944Y-97.209
X87.508Y-149.591
X87.551Y-75.659
X91.794Y-152.913
X91.837Y-78.982
X92.419Y-131.203
X96.705Y-134.525
X97.395Y-112.736
X101.681Y-116.059
X102.348Y-94.298
X106.238Y-153.174
X106.635Y-97.62
X107.262Y-75.929
X110.525Y-156.496
X111.17Y-134.78
X111.548Y-79.251
X115.456Y-138.103
X116.075Y-116.371
X120.361Y-119.693
X121.053Y-97.951
X124.331Y-159.437
X125.339Y-101.274
X126.034Y-79.534
X128.617Y-162.76
X129.271Y-141.068
X130.32Y-82.857
X133.557Y-144.39
X134.226Y-122.602
X138.512Y-125.924
X139.129Y-104.184
X143.415Y-107.506
X144.059Y-85.788
X147.013Y-148.199
X148.345Y-89.11
X151.299Y-151.522
X151.9Y-170.68
X151.94Y-129.832
X156.226Y-133.155
X156.583Y-173.415
X156.822Y-111.482
X161.108Y-114.804
X161.799Y-93.036
X166.085Y-96.359
X181.48Y-133.798
X181.48Y-95.769
X181.482Y-114.787
X181.49Y-152.82
X181.504Y-171.822
X186.48Y-135.898
X186.48Y-97.869
X186.482Y-116.887
X186.49Y-154.92
X186.504Y-173.922
X200.464Y-95.77
X200.469Y-114.788
X200.481Y-133.789
X200.481Y-152.82
X200.494Y-171.813
X205.464Y-97.87
X205.469Y-116.888
X205.481Y-135.889
X205.481Y-154.92
X205.494Y-173.913
X219.458Y-133.778
X219.459Y-114.788
X219.468Y-95.77
X219.475Y-152.804
X219.5Y-171.793
X224.458Y-135.878
X224.459Y-116.888
X224.468Y-97.87
X224.475Y-154.904
X224.5Y-173.893
X238.44Y-114.788
X238.455Y-133.785
X238.457Y-95.77
X238.463Y-171.783
X238.467Y-152.801
X243.44Y-116.888
X243.455Y-135.885
X243.457Y-97.87
X243.463Y-173.883
X243.467Y-154.901
X258.016Y-93.08
X262.925Y-111.551
X263.389Y-93.814
X267.835Y-170.68
X267.853Y-129.918
X268.298Y-112.285
X272.789Y-148.274
X273.066Y-172.11
X273.226Y-130.653
X275.736Y-85.852
X278.163Y-149.009
X280.677Y-104.335
X281.109Y-86.586
X285.607Y-122.705
X286.051Y-105.07
X290.535Y-141.119
X290.981Y-123.439
X293.772Y-79.599
X295.454Y-159.516
X295.908Y-141.853
X298.785Y-98.037
X299.145Y-80.334
X300.827Y-160.25
X303.728Y-116.515
X304.158Y-98.772
X308.657Y-134.848
X309.101Y-117.249
X312.557Y-76.017
X313.571Y-153.223
X314.03Y-135.583
X317.478Y-94.362
X317.93Y-76.751
X318.945Y-153.958
X322.395Y-112.826
X322.851Y-95.096
X327.355Y-131.263
X327.768Y-113.56
X332.256Y-75.685
X332.292Y-149.67
X332.728Y-131.997
X337.15Y-93.967
X337.629Y-76.42
X337.665Y-150.405
X342.102Y-112.52
X342.524Y-94.701
X347.027Y-130.879
X347.475Y-113.254
X350.991Y-72.233
X351.973Y-149.274
X352.4Y-131.613
X355.899Y-90.502
X356.364Y-72.967
X357.346Y-150.008
X360.855Y-109.026
X361.272Y-91.237
X365.802Y-127.374
X366.229Y-109.76
X369.052Y-65.841
X370.735Y-145.804
X371.175Y-128.108
X373.931Y-84.112
X374.426Y-66.575
X376.108Y-146.538
X378.89Y-102.681
X379.304Y-84.846
X383.818Y-120.993
X384.263Y-103.416
X388.753Y-139.407
X389.191Y-121.727
X394.126Y-140.142
T5
X26.5Y-141.636
X28.143Y-140.565
X31.408Y-123.219
X33.051Y-122.148
X33.102Y-141.376
X33.291Y-140.826
X36.346Y-104.83
X37.989Y-103.759
X38.01Y-122.959
X38.199Y-122.409
X41.278Y-86.283
X42.921Y-85.212
X42.948Y-104.57
X43.137Y-104.02
X44.505Y-147.945
X46.146Y-68.054
X46.148Y-146.874
X47.789Y-66.983
X47.88Y-86.023
X48.069Y-85.473
X49.462Y-129.583
X51.106Y-128.511
X51.107Y-147.685
X51.296Y-147.135
X52.749Y-67.794
X52.937Y-67.244
X54.397Y-111.248
X56.04Y-110.177
X56.065Y-129.323
X56.253Y-128.773
X59.407Y-92.676
X60.999Y-110.988
X61.051Y-91.604
X61.188Y-110.438
X63.298Y-151.476
X64.304Y-74.409
X64.941Y-150.405
X65.947Y-73.338
X66.01Y-92.416
X66.199Y-91.866
X68.232Y-133.049
X69.875Y-131.978
X69.9Y-151.216
X70.089Y-150.666
X70.907Y-74.149
X71.095Y-73.6
X73.147Y-114.706
X74.79Y-113.635
X74.834Y-132.789
X75.023Y-132.239
X78.108Y-96.146
X79.749Y-114.446
X79.752Y-95.074
X79.938Y-113.896
X82.958Y-151.85
X83.001Y-77.919
X84.601Y-150.779
X84.644Y-76.848
X84.711Y-95.886
X84.899Y-95.336
X87.869Y-133.462
X89.513Y-132.391
X89.56Y-151.59
X89.603Y-77.659
X89.749Y-151.04
X89.792Y-77.109
X92.845Y-114.996
X94.472Y-133.202
X94.488Y-113.925
X94.66Y-132.652
X97.799Y-96.557
X99.442Y-95.486
X99.447Y-114.736
X99.636Y-114.186
X101.689Y-155.433
X102.712Y-78.188
X103.332Y-154.362
X104.355Y-77.117
X104.401Y-96.297
X104.59Y-95.747
X106.62Y-137.04
X108.263Y-135.969
X108.291Y-155.173
X108.48Y-154.623
X109.314Y-77.928
X109.503Y-77.378
X111.525Y-118.63
X113.168Y-117.559
X113.222Y-136.78
X113.411Y-136.23
X116.503Y-100.211
X118.128Y-118.37
X118.146Y-99.14
X118.316Y-117.82
X119.782Y-161.696
X121.425Y-160.625
X121.484Y-81.794
X123.105Y-99.951
X123.128Y-80.722
X123.294Y-99.401
X124.721Y-143.327
X126.364Y-142.256
X126.384Y-161.436
X126.573Y-160.886
X128.087Y-81.534
X128.276Y-80.984
X129.676Y-124.861
X131.319Y-123.79
X131.323Y-143.067
X131.512Y-142.517
X134.579Y-106.443
X136.222Y-105.372
X136.278Y-124.601
X136.467Y-124.051
X139.509Y-88.047
X141.152Y-86.976
X141.181Y-106.183
X141.37Y-105.633
X142.463Y-150.459
X144.106Y-149.388
X146.111Y-87.787
X146.3Y-87.237
X147.39Y-132.091
X147.684Y-173.514
X149.033Y-131.02
X149.065Y-150.199
X149.173Y-172.238
X149.254Y-149.649
X152.272Y-113.741
X153.915Y-112.67
X153.992Y-131.831
X154.181Y-131.282
X154.196Y-172.395
X154.311Y-171.825
X157.249Y-95.296
X158.874Y-113.481
X158.893Y-94.225
X159.063Y-112.931
X163.852Y-95.036
X164.04Y-94.486
X177.67Y-137.158
X177.67Y-99.129
X177.672Y-118.147
X177.68Y-156.18
X177.694Y-175.182
X178.98Y-135.698
X178.98Y-97.669
X178.982Y-116.687
X178.99Y-154.72
X179.004Y-173.722
X183.98Y-135.198
X183.98Y-97.169
X183.982Y-116.187
X183.99Y-154.22
X184.004Y-173.222
X184.02Y-134.618
X184.02Y-96.589
X184.022Y-115.607
X184.03Y-153.64
X184.044Y-172.642
X196.654Y-99.13
X196.659Y-118.148
X196.671Y-137.149
X196.671Y-156.18
X196.684Y-175.173
X197.964Y-97.67
X197.969Y-116.688
X197.981Y-135.689
X197.981Y-154.72
X197.994Y-173.713
X202.964Y-97.17
X202.969Y-116.188
X202.981Y-135.189
X202.981Y-154.22
X202.994Y-173.213
X203.004Y-96.59
X203.009Y-115.608
X203.021Y-134.609
X203.021Y-153.64
X203.034Y-172.633
X215.648Y-137.138
X215.649Y-118.148
X215.658Y-99.13
X215.665Y-156.164
X215.69Y-175.153
X216.958Y-135.678
X216.959Y-116.688
X216.968Y-97.67
X216.975Y-154.704
X217.0Y-173.693
X221.958Y-135.178
X221.959Y-116.188
X221.968Y-97.17
X221.975Y-154.204
X221.998Y-134.598
X221.999Y-115.608
X222.0Y-173.193
X222.008Y-96.59
X222.015Y-153.624
X222.04Y-172.613
X234.63Y-118.148
X234.645Y-137.145
X234.647Y-99.13
X234.653Y-175.143
X234.657Y-156.161
X235.94Y-116.688
X235.955Y-135.685
X235.957Y-97.67
X235.963Y-173.683
X235.967Y-154.701
X240.94Y-116.188
X240.955Y-135.185
X240.957Y-97.17
X240.963Y-173.183
X240.967Y-154.201
X240.98Y-115.608
X240.995Y-134.605
X240.997Y-96.59
X241.003Y-172.603
X241.007Y-153.621
X255.205Y-97.311
X256.093Y-95.562
X260.115Y-115.782
X260.682Y-93.214
X260.793Y-93.785
X261.002Y-114.033
X264.496Y-174.509
X265.043Y-134.15
X265.591Y-111.685
X265.604Y-172.891
X265.702Y-112.256
X265.93Y-132.401
X269.979Y-152.506
X270.46Y-171.162
X270.496Y-171.742
X270.519Y-130.053
X270.63Y-130.624
X270.866Y-150.757
X272.925Y-90.084
X273.813Y-88.334
X275.455Y-148.409
X275.567Y-148.98
X277.867Y-108.567
X278.402Y-85.987
X278.513Y-86.557
X278.754Y-106.818
X282.797Y-126.937
X283.343Y-104.47
X283.455Y-105.041
X283.684Y-125.187
X287.724Y-145.35
X288.273Y-122.84
X288.385Y-123.41
X288.612Y-143.601
X290.961Y-83.831
X291.849Y-82.082
X292.643Y-163.747
X293.201Y-141.253
X293.312Y-141.824
X293.531Y-161.998
X295.974Y-102.269
X296.438Y-79.734
X296.549Y-80.305
X296.862Y-100.52
X298.12Y-159.65
X298.231Y-160.221
X300.917Y-120.747
X301.451Y-98.172
X301.562Y-98.742
X301.805Y-118.997
X305.847Y-139.08
X306.394Y-116.65
X306.505Y-117.22
X306.734Y-137.331
X309.746Y-80.249
X310.634Y-78.499
X310.761Y-157.455
X311.323Y-134.983
X311.434Y-135.554
X311.648Y-155.706
X314.667Y-98.593
X315.223Y-76.152
X315.334Y-76.722
X315.555Y-96.844
X316.237Y-153.358
X316.349Y-153.929
X319.584Y-117.058
X320.143Y-94.496
X320.255Y-95.067
X320.471Y-115.308
X324.545Y-135.495
X325.06Y-112.961
X325.172Y-113.531
X325.432Y-133.745
X329.445Y-79.917
X329.481Y-153.902
X330.021Y-131.398
X330.132Y-131.968
X330.333Y-78.167
X330.369Y-152.153
X334.34Y-98.198
X334.921Y-75.82
X334.958Y-149.805
X335.033Y-76.39
X335.069Y-150.376
X335.227Y-96.449
X339.291Y-116.751
X339.816Y-94.101
X339.928Y-94.672
X340.179Y-115.002
X344.217Y-135.111
X344.768Y-112.654
X344.879Y-113.225
X345.104Y-133.361
X348.18Y-76.465
X349.068Y-74.715
X349.163Y-153.506
X349.693Y-131.014
X349.804Y-131.584
X350.05Y-151.756
X353.088Y-94.734
X353.656Y-72.368
X353.768Y-72.938
X353.976Y-92.985
X354.639Y-149.409
X354.75Y-149.979
X358.045Y-113.258
X358.564Y-90.637
X358.676Y-91.208
X358.932Y-111.508
X362.992Y-131.605
X363.521Y-109.161
X363.633Y-109.731
X363.879Y-129.856
X366.242Y-70.072
X367.129Y-68.323
X367.925Y-150.035
X368.468Y-127.508
X368.579Y-128.079
X368.812Y-148.286
X371.12Y-88.343
X371.718Y-65.975
X371.83Y-66.546
X372.008Y-86.594
X373.401Y-145.938
X373.512Y-146.509
X376.08Y-106.913
X376.596Y-84.246
X376.708Y-84.817
X376.967Y-105.164
X381.007Y-125.225
X381.556Y-102.816
X381.667Y-103.387
X381.895Y-123.475
X385.943Y-143.639
X386.483Y-121.128
X386.595Y-121.698
X386.83Y-141.89
X391.419Y-139.542
X391.53Y-140.113
T6
X37.084Y-153.924
X59.69Y-68.834
X84.836Y-125.222
X96.52Y-79.502
X110.998Y-170.434
X128.016Y-108.204
X164.973Y-156.591
X165.735Y-84.328
X168.021Y-121.158
X171.958Y-187.325
X191.008Y-142.113
X209.931Y-125.603
X209.931Y-163.576
X229.108Y-141.986
X247.904Y-187.198
X251.968Y-121.285
X255.397Y-156.845
X256.413Y-84.074
X291.719Y-108.204
X308.356Y-170.815
X323.342Y-78.867
X335.28Y-125.095
X360.426Y-69.596
X382.905Y-154.686
T2
X205.622Y-77.99G85X205.622Y-77.39
G05
X205.622Y-82.42G85X205.622Y-81.32
G05
X214.262Y-77.99G85X214.262Y-77.39
G05
X214.262Y-82.42G85X214.262Y-81.32
G05
T0
M30
