M48
; DRILL file {KiCad (5.1.10)-1} date 09/20/21 10:21:46
; FORMAT={-:-/ absolute / metric / decimal}
; #@! TF.CreationDate,2021-09-20T10:21:46+01:00
; #@! TF.GenerationSoftware,Kicad,Pcbnew,(5.1.10)-1
; #@! TF.FileFunction,NonPlated,1,2,NPTH
FMAT,2
METRIC
T1C0.650
T2C1.200
T3C1.700
T4C1.750
T5C3.048
T6C3.988
%
G90
G05
T1
X207.052Y-81.34
X212.832Y-81.34
T2
X23.394Y-147.782
X28.302Y-129.365
X33.24Y-110.976
X38.171Y-92.428
X41.398Y-154.09
X43.04Y-74.199
X46.356Y-135.728
X51.29Y-117.393
X56.301Y-98.821
X60.191Y-157.622
X61.198Y-80.555
X65.125Y-139.194
X70.04Y-120.852
X75.002Y-102.291
X79.851Y-157.996
X79.894Y-84.064
X84.763Y-139.607
X89.738Y-121.141
X94.692Y-102.702
X98.582Y-161.579
X99.606Y-84.333
X103.514Y-143.185
X108.419Y-124.776
X113.396Y-106.356
X116.675Y-167.842
X118.378Y-87.939
X121.615Y-149.472
X126.569Y-131.006
X131.473Y-112.589
X136.403Y-94.192
X139.357Y-156.604
X144.284Y-138.237
X145.406Y-180.013
X149.166Y-119.887
X154.143Y-101.441
X176.26Y-143.898
X176.26Y-105.869
X176.262Y-124.887
X176.27Y-162.92
X176.284Y-181.922
X195.244Y-105.87
X195.249Y-124.888
X195.261Y-143.889
X195.261Y-162.92
X195.274Y-181.913
X214.238Y-143.878
X214.239Y-124.888
X214.248Y-105.87
X214.255Y-162.904
X214.28Y-181.893
X233.22Y-124.888
X233.235Y-143.885
X233.237Y-105.87
X233.243Y-181.883
X233.247Y-162.901
X255.588Y-104.187
X260.497Y-122.657
X263.978Y-181.375
X265.425Y-141.025
X270.361Y-159.381
X273.308Y-96.959
X278.249Y-115.442
X283.179Y-133.812
X288.107Y-152.226
X291.344Y-90.706
X293.026Y-170.622
X296.357Y-109.144
X301.3Y-127.622
X306.229Y-145.955
X310.129Y-87.124
X311.143Y-164.33
X315.05Y-105.469
X319.966Y-123.933
X324.927Y-142.37
X329.828Y-86.792
X329.864Y-160.777
X334.722Y-105.073
X339.674Y-123.626
X344.599Y-141.986
X348.563Y-83.34
X349.545Y-160.381
X353.471Y-101.609
X358.427Y-120.133
X363.374Y-138.48
X366.624Y-76.948
X368.307Y-156.911
X371.503Y-95.218
X376.462Y-113.788
X381.39Y-132.1
X386.325Y-150.514
T3
X24.21Y-143.652
X29.118Y-125.235
X34.056Y-106.846
X34.836Y-146.499
X38.988Y-88.299
X39.744Y-128.082
X42.215Y-149.961
X43.856Y-70.07
X44.682Y-109.693
X47.173Y-131.599
X49.613Y-91.146
X52.107Y-113.264
X52.84Y-152.808
X54.482Y-72.917
X57.118Y-94.692
X57.798Y-134.446
X61.008Y-153.492
X62.014Y-76.426
X62.732Y-116.111
X65.942Y-135.065
X67.743Y-97.539
X70.857Y-116.722
X71.633Y-156.339
X72.64Y-79.273
X75.819Y-98.162
X76.567Y-137.912
X80.668Y-153.866
X80.711Y-79.935
X81.482Y-119.569
X85.58Y-135.478
X86.444Y-101.009
X90.555Y-117.012
X91.293Y-156.713
X91.336Y-82.782
X95.509Y-98.573
X96.205Y-138.325
X99.399Y-157.449
X100.422Y-80.204
X101.18Y-119.859
X104.33Y-139.056
X106.134Y-101.42
X109.235Y-120.646
X110.024Y-160.296
X111.047Y-83.051
X114.213Y-102.227
X114.955Y-141.903
X117.492Y-163.712
X119.195Y-83.81
X119.861Y-123.493
X122.431Y-145.343
X124.838Y-105.074
X127.386Y-126.877
X128.117Y-166.559
X129.82Y-86.657
X132.289Y-108.459
X133.056Y-148.19
X137.219Y-90.063
X138.011Y-129.724
X140.173Y-152.475
X142.914Y-111.306
X145.1Y-134.108
X145.677Y-175.812
X147.844Y-92.91
X149.982Y-115.757
X150.798Y-155.322
X154.96Y-97.312
X155.726Y-136.955
X156.583Y-177.248
X160.608Y-118.604
X165.585Y-100.159
X175.98Y-139.698
X175.98Y-101.669
X175.982Y-120.687
X175.99Y-158.72
X176.004Y-177.722
X186.98Y-139.698
X186.98Y-101.669
X186.982Y-120.687
X186.99Y-158.72
X187.004Y-177.722
X194.964Y-101.67
X194.969Y-120.688
X194.981Y-139.689
X194.981Y-158.72
X194.994Y-177.713
X205.964Y-101.67
X205.969Y-120.688
X205.981Y-139.689
X205.981Y-158.72
X205.994Y-177.713
X213.958Y-139.678
X213.959Y-120.688
X213.968Y-101.67
X213.975Y-158.704
X214.0Y-177.693
X224.958Y-139.678
X224.959Y-120.688
X224.968Y-101.67
X224.975Y-158.704
X225.0Y-177.693
X232.94Y-120.688
X232.955Y-139.685
X232.957Y-101.67
X232.963Y-177.683
X232.967Y-158.701
X243.94Y-120.688
X243.955Y-139.685
X243.957Y-101.67
X243.963Y-177.683
X243.967Y-158.701
X254.23Y-100.202
X259.14Y-118.673
X263.152Y-177.248
X264.068Y-137.041
X264.856Y-97.355
X269.004Y-155.397
X269.765Y-115.826
X271.95Y-92.975
X274.058Y-175.812
X274.693Y-134.194
X276.892Y-111.458
X279.629Y-152.55
X281.822Y-129.827
X282.576Y-90.128
X286.749Y-148.241
X287.517Y-108.611
X289.986Y-86.722
X291.668Y-166.638
X292.447Y-126.98
X294.999Y-105.16
X297.375Y-145.394
X299.942Y-123.638
X300.612Y-83.875
X302.294Y-163.791
X304.872Y-141.971
X305.625Y-102.313
X308.771Y-83.139
X309.786Y-160.346
X310.567Y-120.791
X313.692Y-101.484
X315.497Y-139.124
X318.609Y-119.949
X319.397Y-80.292
X320.411Y-157.499
X323.57Y-138.385
X324.317Y-98.637
X328.47Y-82.808
X328.506Y-156.793
X329.234Y-117.102
X333.365Y-101.089
X334.195Y-135.538
X338.316Y-119.642
X339.095Y-79.961
X339.132Y-153.946
X343.242Y-138.002
X343.99Y-98.242
X347.205Y-79.355
X348.188Y-156.396
X348.942Y-116.795
X352.113Y-97.625
X353.867Y-135.155
X357.07Y-116.148
X357.83Y-76.508
X358.813Y-153.549
X362.017Y-134.496
X362.738Y-94.778
X365.267Y-72.963
X366.95Y-152.926
X367.695Y-113.301
X370.145Y-91.234
X372.642Y-131.649
X375.105Y-109.804
X375.892Y-70.116
X377.575Y-150.079
X380.032Y-128.115
X380.77Y-88.387
X384.968Y-146.53
X385.73Y-106.957
X390.657Y-125.268
X395.593Y-143.683
T4
X24.616Y-143.761
X29.524Y-125.344
X34.43Y-146.391
X34.462Y-106.955
X39.338Y-127.974
X39.394Y-88.408
X42.621Y-150.07
X44.262Y-70.179
X44.276Y-109.585
X47.578Y-131.707
X49.207Y-91.037
X52.434Y-152.699
X52.513Y-113.373
X54.076Y-72.808
X57.392Y-134.337
X57.523Y-94.8
X61.413Y-153.601
X62.326Y-116.002
X62.42Y-76.534
X66.348Y-135.174
X67.337Y-97.43
X71.227Y-156.231
X71.262Y-116.831
X72.234Y-79.164
X76.161Y-137.803
X76.224Y-98.27
X81.074Y-153.975
X81.076Y-119.461
X81.117Y-80.043
X85.985Y-135.587
X86.038Y-100.9
X90.887Y-156.605
X90.93Y-82.673
X90.961Y-117.121
X95.799Y-138.216
X95.914Y-98.682
X99.805Y-157.558
X100.774Y-119.75
X100.828Y-80.313
X104.736Y-139.164
X105.728Y-101.311
X109.618Y-160.188
X109.641Y-120.755
X110.642Y-82.942
X114.55Y-141.794
X114.619Y-102.336
X117.897Y-163.821
X119.455Y-123.385
X119.6Y-83.918
X122.837Y-145.452
X124.432Y-104.965
X127.711Y-166.451
X127.792Y-126.986
X129.414Y-86.548
X132.651Y-148.081
X132.695Y-108.568
X137.606Y-129.615
X137.625Y-90.172
X140.579Y-152.584
X142.509Y-111.198
X145.506Y-134.216
X146.093Y-175.867
X147.439Y-92.801
X150.388Y-115.866
X150.393Y-155.213
X155.32Y-136.846
X155.365Y-97.421
X156.167Y-177.193
X160.202Y-118.496
X165.179Y-100.05
X176.4Y-139.698
X176.4Y-101.669
X176.402Y-120.687
X176.41Y-158.72
X176.424Y-177.722
X186.56Y-139.698
X186.56Y-101.669
X186.562Y-120.687
X186.57Y-158.72
X186.584Y-177.722
X195.384Y-101.67
X195.389Y-120.688
X195.401Y-139.689
X195.401Y-158.72
X195.414Y-177.713
X205.544Y-101.67
X205.549Y-120.688
X205.561Y-139.689
X205.561Y-158.72
X205.574Y-177.713
X214.378Y-139.678
X214.379Y-120.688
X214.388Y-101.67
X214.395Y-158.704
X214.42Y-177.693
X224.538Y-139.678
X224.539Y-120.688
X224.548Y-101.67
X224.555Y-158.704
X224.58Y-177.693
X233.36Y-120.688
X233.375Y-139.685
X233.377Y-101.67
X233.383Y-177.683
X233.387Y-158.701
X243.52Y-120.688
X243.535Y-139.685
X243.537Y-101.67
X243.543Y-177.683
X243.547Y-158.701
X254.636Y-100.093
X259.545Y-118.564
X263.568Y-177.193
X264.45Y-97.464
X264.473Y-136.932
X269.359Y-115.935
X269.41Y-155.288
X272.356Y-92.866
X273.642Y-175.867
X274.287Y-134.303
X277.298Y-111.349
X279.223Y-152.658
X282.17Y-90.236
X282.228Y-129.719
X287.111Y-108.719
X287.155Y-148.133
X290.392Y-86.613
X292.041Y-127.089
X292.074Y-166.529
X295.405Y-105.051
X296.969Y-145.503
X300.206Y-83.984
X300.348Y-123.529
X301.888Y-163.9
X305.219Y-102.421
X305.277Y-141.862
X309.177Y-83.031
X310.162Y-120.899
X310.192Y-160.237
X314.098Y-101.376
X315.091Y-139.233
X318.991Y-80.401
X319.015Y-119.84
X320.005Y-157.608
X323.912Y-98.746
X323.975Y-138.277
X328.828Y-117.21
X328.876Y-82.699
X328.912Y-156.684
X333.771Y-100.98
X333.789Y-135.647
X338.69Y-80.069
X338.722Y-119.533
X338.726Y-154.054
X343.584Y-98.351
X343.647Y-137.893
X347.611Y-79.247
X348.536Y-116.904
X348.593Y-156.288
X352.519Y-97.516
X353.461Y-135.263
X357.425Y-76.617
X357.475Y-116.04
X358.407Y-153.658
X362.333Y-94.886
X362.422Y-134.387
X365.673Y-72.855
X367.289Y-113.41
X367.355Y-152.817
X370.551Y-91.125
X372.236Y-131.758
X375.486Y-70.225
X375.51Y-109.695
X377.169Y-150.188
X380.365Y-88.496
X380.438Y-128.007
X385.324Y-107.066
X385.373Y-146.421
X390.252Y-125.377
X395.187Y-143.792
T5
X138.382Y-181.897
X162.054Y-185.013
X257.681Y-185.013
X281.353Y-181.897
T6
X29.523Y-145.076
X34.431Y-126.659
X39.369Y-108.27
X44.3Y-89.722
X47.528Y-151.384
X49.169Y-71.493
X52.485Y-133.022
X57.42Y-114.688
X62.43Y-96.115
X66.32Y-154.916
X67.327Y-77.849
X71.254Y-136.489
X76.169Y-118.146
X81.131Y-99.585
X85.981Y-155.29
X86.024Y-81.358
X90.892Y-136.902
X95.868Y-118.435
X100.821Y-99.997
X104.711Y-158.873
X105.735Y-81.628
X109.643Y-140.479
X114.548Y-122.07
X119.526Y-103.65
X122.804Y-165.136
X124.507Y-85.233
X127.744Y-146.766
X132.699Y-128.301
X137.602Y-109.883
X140.372Y-166.787
X142.532Y-91.487
X145.486Y-153.898
X150.413Y-135.531
X151.13Y-176.53
X155.295Y-117.181
X160.272Y-98.735
X164.043Y-169.904
X181.48Y-139.698
X181.48Y-101.669
X181.482Y-120.687
X181.49Y-158.72
X181.504Y-177.722
X200.464Y-101.67
X200.469Y-120.688
X200.481Y-139.689
X200.481Y-158.72
X200.494Y-177.713
X219.458Y-139.678
X219.459Y-120.688
X219.468Y-101.67
X219.475Y-158.704
X219.5Y-177.693
X238.44Y-120.688
X238.455Y-139.685
X238.457Y-101.67
X238.463Y-177.683
X238.467Y-158.701
X255.692Y-169.904
X259.543Y-98.779
X264.452Y-117.25
X268.605Y-176.53
X269.38Y-135.617
X274.316Y-153.973
X277.263Y-91.551
X279.363Y-166.787
X282.204Y-110.034
X287.134Y-128.404
X292.062Y-146.818
X295.299Y-85.298
X296.981Y-165.215
X300.312Y-103.736
X305.255Y-122.214
X310.184Y-140.547
X314.084Y-81.716
X315.098Y-158.922
X319.005Y-100.061
X323.922Y-118.525
X328.882Y-136.962
X333.783Y-81.384
X333.819Y-155.369
X338.677Y-99.666
X343.629Y-118.218
X348.554Y-136.578
X352.518Y-77.932
X353.5Y-154.973
X357.426Y-96.201
X362.382Y-114.725
X367.329Y-133.072
X370.579Y-71.54
X372.262Y-151.503
X375.458Y-89.811
X380.417Y-108.38
X385.345Y-126.692
X390.28Y-145.106
T0
M30
