<?xml version="1.0" standalone="no"?>
 <!DOCTYPE svg PUBLIC "-//W3C//DTD SVG 1.1//EN" 
 "http://www.w3.org/Graphics/SVG/1.1/DTD/svg11.dtd"> 
<svg
  xmlns:svg="http://www.w3.org/2000/svg"
  xmlns="http://www.w3.org/2000/svg"
  xmlns:xlink="http://www.w3.org/1999/xlink"
  version="1.1"
  width="39.131240cm" height="13.487400cm" viewBox="0 0 154060 53100">
<title>SVG Picture created as _autosave-superlyra-hs-plate-brd.svg date 2021/11/06 13:25:09 </title>
  <desc>Picture generated by PCBNEW </desc>
<g style="fill:#000000; fill-opacity:1;stroke:#000000; stroke-opacity:1;
stroke-linecap:round; stroke-linejoin:round;"
 transform="translate(0 0) scale(1 1)">
</g>
<g style="fill:#000000; fill-opacity:0.0; 
stroke:#000000; stroke-width:-0.000393701; stroke-opacity:1; 
stroke-linecap:round; stroke-linejoin:round;">
<g >
</g>
<g >
</g>
<g >
</g>
<g style="fill:#000000; fill-opacity:0.0; 
stroke:#000000; stroke-width:-0.000393701; stroke-opacity:1; 
stroke-linecap:round; stroke-linejoin:round;">
</g>
<g style="fill:#000000; fill-opacity:1.0; 
stroke:#000000; stroke-width:0; stroke-opacity:1; 
stroke-linecap:round; stroke-linejoin:round;">
<circle cx="11141.4" cy="1809.13" r="688.976" /> 
</g>
<g style="fill:#000000; fill-opacity:1.0; 
stroke:#000000; stroke-width:39.3701; stroke-opacity:1; 
stroke-linecap:round; stroke-linejoin:round;">
</g>
<g >
</g>
<g style="fill:#000000; fill-opacity:1.0; 
stroke:#000000; stroke-width:39.3701; stroke-opacity:1; 
stroke-linecap:round; stroke-linejoin:round;">
</g>
<g style="fill:#000000; fill-opacity:1.0; 
stroke:#000000; stroke-width:0; stroke-opacity:1; 
stroke-linecap:round; stroke-linejoin:round;">
<circle cx="44741.4" cy="49559.1" r="688.976" /> 
</g>
<g style="fill:#000000; fill-opacity:1.0; 
stroke:#000000; stroke-width:39.3701; stroke-opacity:1; 
stroke-linecap:round; stroke-linejoin:round;">
</g>
<g >
</g>
<g style="fill:#000000; fill-opacity:1.0; 
stroke:#000000; stroke-width:39.3701; stroke-opacity:1; 
stroke-linecap:round; stroke-linejoin:round;">
</g>
<g style="fill:#000000; fill-opacity:1.0; 
stroke:#000000; stroke-width:0; stroke-opacity:1; 
stroke-linecap:round; stroke-linejoin:round;">
<circle cx="59691.4" cy="33359.1" r="688.976" /> 
</g>
<g style="fill:#000000; fill-opacity:1.0; 
stroke:#000000; stroke-width:39.3701; stroke-opacity:1; 
stroke-linecap:round; stroke-linejoin:round;">
</g>
<g >
</g>
<g style="fill:#000000; fill-opacity:1.0; 
stroke:#000000; stroke-width:39.3701; stroke-opacity:1; 
stroke-linecap:round; stroke-linejoin:round;">
</g>
<g style="fill:#000000; fill-opacity:1.0; 
stroke:#000000; stroke-width:0; stroke-opacity:1; 
stroke-linecap:round; stroke-linejoin:round;">
<circle cx="1291.38" cy="36859.1" r="688.976" /> 
</g>
<g style="fill:#000000; fill-opacity:1.0; 
stroke:#000000; stroke-width:39.3701; stroke-opacity:1; 
stroke-linecap:round; stroke-linejoin:round;">
</g>
<g >
</g>
<g style="fill:#000000; fill-opacity:1.0; 
stroke:#000000; stroke-width:39.3701; stroke-opacity:1; 
stroke-linecap:round; stroke-linejoin:round;">
</g>
<g style="fill:#000000; fill-opacity:1.0; 
stroke:#000000; stroke-width:0; stroke-opacity:1; 
stroke-linecap:round; stroke-linejoin:round;">
<circle cx="62091.4" cy="51609.1" r="688.976" /> 
</g>
<g style="fill:#000000; fill-opacity:1.0; 
stroke:#000000; stroke-width:39.3701; stroke-opacity:1; 
stroke-linecap:round; stroke-linejoin:round;">
</g>
<g >
</g>
<g style="fill:#000000; fill-opacity:1.0; 
stroke:#000000; stroke-width:39.3701; stroke-opacity:1; 
stroke-linecap:round; stroke-linejoin:round;">
</g>
<g style="fill:#000000; fill-opacity:1.0; 
stroke:#000000; stroke-width:0; stroke-opacity:1; 
stroke-linecap:round; stroke-linejoin:round;">
<circle cx="59091.4" cy="10909.1" r="688.976" /> 
</g>
<g style="fill:#000000; fill-opacity:1.0; 
stroke:#000000; stroke-width:39.3701; stroke-opacity:1; 
stroke-linecap:round; stroke-linejoin:round;">
</g>
<g >
</g>
<g style="fill:#000000; fill-opacity:1.0; 
stroke:#000000; stroke-width:39.3701; stroke-opacity:1; 
stroke-linecap:round; stroke-linejoin:round;">
</g>
<g style="fill:#000000; fill-opacity:1.0; 
stroke:#000000; stroke-width:0; stroke-opacity:1; 
stroke-linecap:round; stroke-linejoin:round;">
<circle cx="95341.4" cy="10959.1" r="688.976" /> 
</g>
<g style="fill:#000000; fill-opacity:1.0; 
stroke:#000000; stroke-width:39.3701; stroke-opacity:1; 
stroke-linecap:round; stroke-linejoin:round;">
</g>
<g >
</g>
<g style="fill:#000000; fill-opacity:1.0; 
stroke:#000000; stroke-width:39.3701; stroke-opacity:1; 
stroke-linecap:round; stroke-linejoin:round;">
</g>
<g style="fill:#000000; fill-opacity:1.0; 
stroke:#000000; stroke-width:0; stroke-opacity:1; 
stroke-linecap:round; stroke-linejoin:round;">
<circle cx="94141.4" cy="33259.1" r="688.976" /> 
</g>
<g style="fill:#000000; fill-opacity:1.0; 
stroke:#000000; stroke-width:39.3701; stroke-opacity:1; 
stroke-linecap:round; stroke-linejoin:round;">
</g>
<g >
</g>
<g style="fill:#000000; fill-opacity:1.0; 
stroke:#000000; stroke-width:39.3701; stroke-opacity:1; 
stroke-linecap:round; stroke-linejoin:round;">
</g>
<g style="fill:#000000; fill-opacity:1.0; 
stroke:#000000; stroke-width:0; stroke-opacity:1; 
stroke-linecap:round; stroke-linejoin:round;">
<circle cx="152641" cy="36659.1" r="688.976" /> 
</g>
<g style="fill:#000000; fill-opacity:1.0; 
stroke:#000000; stroke-width:39.3701; stroke-opacity:1; 
stroke-linecap:round; stroke-linejoin:round;">
</g>
<g >
</g>
<g style="fill:#000000; fill-opacity:1.0; 
stroke:#000000; stroke-width:39.3701; stroke-opacity:1; 
stroke-linecap:round; stroke-linejoin:round;">
</g>
<g style="fill:#000000; fill-opacity:1.0; 
stroke:#000000; stroke-width:0; stroke-opacity:1; 
stroke-linecap:round; stroke-linejoin:round;">
<circle cx="91991.4" cy="51559.1" r="688.976" /> 
</g>
<g style="fill:#000000; fill-opacity:1.0; 
stroke:#000000; stroke-width:39.3701; stroke-opacity:1; 
stroke-linecap:round; stroke-linejoin:round;">
</g>
<g >
</g>
<g style="fill:#000000; fill-opacity:1.0; 
stroke:#000000; stroke-width:39.3701; stroke-opacity:1; 
stroke-linecap:round; stroke-linejoin:round;">
</g>
<g style="fill:#000000; fill-opacity:1.0; 
stroke:#000000; stroke-width:0; stroke-opacity:1; 
stroke-linecap:round; stroke-linejoin:round;">
<circle cx="109391" cy="49559.1" r="688.976" /> 
</g>
<g style="fill:#000000; fill-opacity:1.0; 
stroke:#000000; stroke-width:39.3701; stroke-opacity:1; 
stroke-linecap:round; stroke-linejoin:round;">
</g>
<g >
</g>
<g style="fill:#000000; fill-opacity:1.0; 
stroke:#000000; stroke-width:39.3701; stroke-opacity:1; 
stroke-linecap:round; stroke-linejoin:round;">
</g>
<g style="fill:#000000; fill-opacity:1.0; 
stroke:#000000; stroke-width:0; stroke-opacity:1; 
stroke-linecap:round; stroke-linejoin:round;">
<circle cx="143091" cy="1409.13" r="688.976" /> 
</g>
<g style="fill:#000000; fill-opacity:1.0; 
stroke:#000000; stroke-width:39.3701; stroke-opacity:1; 
stroke-linecap:round; stroke-linejoin:round;">
</g>
<g >
</g>
<g style="fill:#000000; fill-opacity:1.0; 
stroke:#000000; stroke-width:39.3701; stroke-opacity:1; 
stroke-linecap:round; stroke-linejoin:round;">
</g>
<g style="fill:#000000; fill-opacity:1.0; 
stroke:#000000; stroke-width:0; stroke-opacity:1; 
stroke-linecap:round; stroke-linejoin:round;">
<circle cx="76991.4" cy="29009.1" r="345" /> 
</g>
<g style="fill:#000000; fill-opacity:1.0; 
stroke:#000000; stroke-width:39.3701; stroke-opacity:1; 
stroke-linecap:round; stroke-linejoin:round;">
</g>
<g >
</g>
<g style="fill:#000000; fill-opacity:1.0; 
stroke:#000000; stroke-width:39.3701; stroke-opacity:1; 
stroke-linecap:round; stroke-linejoin:round;">
</g>
<g style="fill:#000000; fill-opacity:1.0; 
stroke:#000000; stroke-width:200; stroke-opacity:1; 
stroke-linecap:round; stroke-linejoin:round;">
</g>
<g style="fill:#000000; fill-opacity:0.0; 
stroke:#000000; stroke-width:200; stroke-opacity:1; 
stroke-linecap:round; stroke-linejoin:round;">
<path d="M16037 7706
L16351 7790
" />
<path d="M10603 6250
L10917 6334
" />
<path d="M16580 5677
L16894 5761
" />
<path d="M11147 4221
L11461 4306
" />
<path d="M11461 4306
L10917 6334
" />
<path d="M16580 5677
L16037 7706
" />
<path d="M10603 6250
L10189 7795
" />
<path d="M16351 7790
L15937 9335
" />
<path d="M17308 4216
L16894 5761
" />
<path d="M11561 2676
L11147 4221
" />
<path d="M10194 7797
L15932 9334
" />
<path d="M11566 2677
L17303 4215
" />
</g>
<g >
</g>
<g style="fill:#000000; fill-opacity:0.0; 
stroke:#000000; stroke-width:200; stroke-opacity:1; 
stroke-linecap:round; stroke-linejoin:round;">
<path d="M18715 5179
L24452 6717
" />
<path d="M17343 10299
L23081 11836
" />
<path d="M18710 5178
L18296 6724
" />
<path d="M24457 6718
L24043 8264
" />
<path d="M23499 10292
L23085 11838
" />
<path d="M17752 8752
L17338 10298
" />
<path d="M23729 8180
L23186 10208
" />
<path d="M18610 6808
L18066 8836
" />
<path d="M18296 6724
L18610 6808
" />
<path d="M23729 8180
L24043 8264
" />
<path d="M17752 8752
L18066 8836
" />
<path d="M23186 10208
L23499 10292
" />
</g>
<g >
</g>
<g style="fill:#000000; fill-opacity:0.0; 
stroke:#000000; stroke-width:200; stroke-opacity:1; 
stroke-linecap:round; stroke-linejoin:round;">
<path d="M30546 11590
L30860 11674
" />
<path d="M25113 10134
L25427 10218
" />
<path d="M31090 9561
L31404 9645
" />
<path d="M25657 8105
L25970 8189
" />
<path d="M25970 8189
L25427 10218
" />
<path d="M31090 9561
L30546 11590
" />
<path d="M25113 10134
L24699 11679
" />
<path d="M30860 11674
L30446 13219
" />
<path d="M31818 8100
L31404 9645
" />
<path d="M26071 6560
L25657 8105
" />
<path d="M24704 11680
L30441 13218
" />
<path d="M26075 6561
L31813 8098
" />
</g>
<g >
</g>
<g style="fill:#000000; fill-opacity:0.0; 
stroke:#000000; stroke-width:200; stroke-opacity:1; 
stroke-linecap:round; stroke-linejoin:round;">
<path d="M33836 6667
L39573 8204
" />
<path d="M32464 11786
L38202 13324
" />
<path d="M33831 6666
L33417 8211
" />
<path d="M39578 8206
L39164 9751
" />
<path d="M38621 11780
L38206 13325
" />
<path d="M32873 10240
L32459 11785
" />
<path d="M38850 9667
L38307 11696
" />
<path d="M33731 8295
L33187 10324
" />
<path d="M33417 8211
L33731 8295
" />
<path d="M38850 9667
L39164 9751
" />
<path d="M32873 10240
L33187 10324
" />
<path d="M38307 11696
L38621 11780
" />
</g>
<g >
</g>
<g style="fill:#000000; fill-opacity:0.0; 
stroke:#000000; stroke-width:200; stroke-opacity:1; 
stroke-linecap:round; stroke-linejoin:round;">
<path d="M45697 13115
L46011 13199
" />
<path d="M40264 11659
L40578 11743
" />
<path d="M46241 11087
L46555 11171
" />
<path d="M40808 9631
L41122 9715
" />
<path d="M41122 9715
L40578 11743
" />
<path d="M46241 11087
L45697 13115
" />
<path d="M40264 11659
L39850 13205
" />
<path d="M46011 13199
L45597 14745
" />
<path d="M46969 9625
L46555 11171
" />
<path d="M41222 8085
L40808 9631
" />
<path d="M39855 13206
L45592 14743
" />
<path d="M41227 8087
L46964 9624
" />
</g>
<g >
</g>
<g style="fill:#000000; fill-opacity:0.0; 
stroke:#000000; stroke-width:200; stroke-opacity:1; 
stroke-linecap:round; stroke-linejoin:round;">
<path d="M48323 10549
L54060 12086
" />
<path d="M46951 15668
L52689 17205
" />
<path d="M48318 10547
L47904 12093
" />
<path d="M54065 12087
L53651 13633
" />
<path d="M53108 15661
L52694 17207
" />
<path d="M47360 14121
L46946 15667
" />
<path d="M53337 13549
L52794 15577
" />
<path d="M48218 12177
L47674 14205
" />
<path d="M47904 12093
L48218 12177
" />
<path d="M53337 13549
L53651 13633
" />
<path d="M47360 14121
L47674 14205
" />
<path d="M52794 15577
L53108 15661
" />
</g>
<g >
</g>
<g style="fill:#000000; fill-opacity:0.0; 
stroke:#000000; stroke-width:200; stroke-opacity:1; 
stroke-linecap:round; stroke-linejoin:round;">
<path d="M59778 18431
L60092 18515
" />
<path d="M54345 16975
L54659 17059
" />
<path d="M60322 16402
L60636 16487
" />
<path d="M54888 14947
L55202 15031
" />
<path d="M55202 15031
L54659 17059
" />
<path d="M60322 16402
L59778 18431
" />
<path d="M54345 16975
L53931 18521
" />
<path d="M60092 18515
L59678 20061
" />
<path d="M61050 14941
L60636 16487
" />
<path d="M55302 13401
L54888 14947
" />
<path d="M53935 18522
L59673 20059
" />
<path d="M55307 13402
L61045 14940
" />
</g>
<g >
</g>
<g style="fill:#000000; fill-opacity:0.0; 
stroke:#000000; stroke-width:200; stroke-opacity:1; 
stroke-linecap:round; stroke-linejoin:round;">
<path d="M62870 15236
L68810 15236
" />
<path d="M62870 20536
L68810 20536
" />
<path d="M62865 15236
L62865 16836
" />
<path d="M68815 15236
L68815 16836
" />
<path d="M68815 18936
L68815 20536
" />
<path d="M62865 18936
L62865 20536
" />
<path d="M68490 16836
L68490 18936
" />
<path d="M63190 16836
L63190 18936
" />
<path d="M62865 16836
L63190 16836
" />
<path d="M68490 16836
L68815 16836
" />
<path d="M62865 18936
L63190 18936
" />
<path d="M68490 18936
L68815 18936
" />
</g>
<g >
</g>
<g style="fill:#000000; fill-opacity:0.0; 
stroke:#000000; stroke-width:200; stroke-opacity:1; 
stroke-linecap:round; stroke-linejoin:round;">
<path d="M75964 18936
L76289 18936
" />
<path d="M70339 18936
L70664 18936
" />
<path d="M75964 16836
L76289 16836
" />
<path d="M70339 16836
L70664 16836
" />
<path d="M70664 16836
L70664 18936
" />
<path d="M75964 16836
L75964 18936
" />
<path d="M70339 18936
L70339 20536
" />
<path d="M76289 18936
L76289 20536
" />
<path d="M76289 15236
L76289 16836
" />
<path d="M70339 15236
L70339 16836
" />
<path d="M70344 20536
L76284 20536
" />
<path d="M70344 15236
L76284 15236
" />
</g>
<g >
</g>
<g style="fill:#000000; fill-opacity:0.0; 
stroke:#000000; stroke-width:200; stroke-opacity:1; 
stroke-linecap:round; stroke-linejoin:round;">
<path d="M77826 15236
L83766 15236
" />
<path d="M77826 20536
L83766 20536
" />
<path d="M77821 15236
L77821 16836
" />
<path d="M83771 15236
L83771 16836
" />
<path d="M83771 18936
L83771 20536
" />
<path d="M77821 18936
L77821 20536
" />
<path d="M83446 16836
L83446 18936
" />
<path d="M78146 16836
L78146 18936
" />
<path d="M77821 16836
L78146 16836
" />
<path d="M83446 16836
L83771 16836
" />
<path d="M77821 18936
L78146 18936
" />
<path d="M83446 18936
L83771 18936
" />
</g>
<g >
</g>
<g style="fill:#000000; fill-opacity:0.0; 
stroke:#000000; stroke-width:200; stroke-opacity:1; 
stroke-linecap:round; stroke-linejoin:round;">
<path d="M90922 18936
L91247 18936
" />
<path d="M85297 18936
L85622 18936
" />
<path d="M90922 16836
L91247 16836
" />
<path d="M85297 16836
L85622 16836
" />
<path d="M85622 16836
L85622 18936
" />
<path d="M90922 16836
L90922 18936
" />
<path d="M85297 18936
L85297 20536
" />
<path d="M91247 18936
L91247 20536
" />
<path d="M91247 15236
L91247 16836
" />
<path d="M85297 15236
L85297 16836
" />
<path d="M85302 20536
L91242 20536
" />
<path d="M85302 15236
L91242 15236
" />
</g>
<g >
</g>
<g style="fill:#000000; fill-opacity:0.0; 
stroke:#000000; stroke-width:200; stroke-opacity:1; 
stroke-linecap:round; stroke-linejoin:round;">
<path d="M93018 14957
L98756 13419
" />
<path d="M94390 20076
L100128 18539
" />
<path d="M93014 14958
L93428 16504
" />
<path d="M98761 13418
L99175 14964
" />
<path d="M99719 16992
L100133 18538
" />
<path d="M93971 18532
L94385 20078
" />
<path d="M98861 15048
L99405 17076
" />
<path d="M93742 16419
L94285 18448
" />
<path d="M93428 16504
L93742 16419
" />
<path d="M98861 15048
L99175 14964
" />
<path d="M93971 18532
L94285 18448
" />
<path d="M99405 17076
L99719 16992
" />
</g>
<g >
</g>
<g style="fill:#000000; fill-opacity:0.0; 
stroke:#000000; stroke-width:200; stroke-opacity:1; 
stroke-linecap:round; stroke-linejoin:round;">
<path d="M106381 14231
L106695 14147
" />
<path d="M100948 15687
L101262 15602
" />
<path d="M105837 12202
L106151 12118
" />
<path d="M100404 13658
L100718 13574
" />
<path d="M100718 13574
L101262 15602
" />
<path d="M105837 12202
L106381 14231
" />
<path d="M100948 15687
L101362 17232
" />
<path d="M106695 14147
L107109 15692
" />
<path d="M105737 10573
L106151 12118
" />
<path d="M99990 12113
L100404 13658
" />
<path d="M101367 17231
L107104 15693
" />
<path d="M99995 12111
L105732 10574
" />
</g>
<g >
</g>
<g style="fill:#000000; fill-opacity:0.0; 
stroke:#000000; stroke-width:200; stroke-opacity:1; 
stroke-linecap:round; stroke-linejoin:round;">
<path d="M107096 9650
L112833 8112
" />
<path d="M108467 14769
L114205 13232
" />
<path d="M107091 9651
L107505 11196
" />
<path d="M112838 8111
L113252 9656
" />
<path d="M113796 11685
L114210 13230
" />
<path d="M108048 13225
L108463 14770
" />
<path d="M112938 9741
L113482 11769
" />
<path d="M107819 11112
L108362 13141
" />
<path d="M107505 11196
L107819 11112
" />
<path d="M112938 9741
L113252 9656
" />
<path d="M108048 13225
L108362 13141
" />
<path d="M113482 11769
L113796 11685
" />
</g>
<g >
</g>
<g style="fill:#000000; fill-opacity:0.0; 
stroke:#000000; stroke-width:200; stroke-opacity:1; 
stroke-linecap:round; stroke-linejoin:round;">
<path d="M120877 10359
L121191 10275
" />
<path d="M115444 11814
L115758 11730
" />
<path d="M120334 8330
L120648 8246
" />
<path d="M114901 9786
L115215 9702
" />
<path d="M115215 9702
L115758 11730
" />
<path d="M120334 8330
L120877 10359
" />
<path d="M115444 11814
L115858 13360
" />
<path d="M121191 10275
L121605 11820
" />
<path d="M120234 6701
L120648 8246
" />
<path d="M114486 8241
L114901 9786
" />
<path d="M115863 13359
L121601 11821
" />
<path d="M114491 8239
L120229 6702
" />
</g>
<g >
</g>
<g style="fill:#000000; fill-opacity:0.0; 
stroke:#000000; stroke-width:200; stroke-opacity:1; 
stroke-linecap:round; stroke-linejoin:round;">
<path d="M122247 8109
L127984 6571
" />
<path d="M123619 13228
L129356 11691
" />
<path d="M122242 8110
L122656 9655
" />
<path d="M127989 6570
L128403 8115
" />
<path d="M128947 10144
L129361 11689
" />
<path d="M123200 11684
L123614 13229
" />
<path d="M128089 8200
L128633 10228
" />
<path d="M122970 9571
L123513 11600
" />
<path d="M122656 9655
L122970 9571
" />
<path d="M128089 8200
L128403 8115
" />
<path d="M123200 11684
L123513 11600
" />
<path d="M128633 10228
L128947 10144
" />
</g>
<g >
</g>
<g style="fill:#000000; fill-opacity:0.0; 
stroke:#000000; stroke-width:200; stroke-opacity:1; 
stroke-linecap:round; stroke-linejoin:round;">
<path d="M136009 8869
L136323 8785
" />
<path d="M130576 10325
L130889 10241
" />
<path d="M135465 6840
L135779 6756
" />
<path d="M130032 8296
L130346 8212
" />
<path d="M130346 8212
L130889 10241
" />
<path d="M135465 6840
L136009 8869
" />
<path d="M130576 10325
L130990 11870
" />
<path d="M136323 8785
L136737 10330
" />
<path d="M135365 5211
L135779 6756
" />
<path d="M129618 6751
L130032 8296
" />
<path d="M130994 11869
L136732 10332
" />
<path d="M129623 6750
L135360 5212
" />
</g>
<g >
</g>
<g style="fill:#000000; fill-opacity:0.0; 
stroke:#000000; stroke-width:200; stroke-opacity:1; 
stroke-linecap:round; stroke-linejoin:round;">
<path d="M136734 4233
L142471 2695
" />
<path d="M138105 9352
L143843 7815
" />
<path d="M136729 4234
L137143 5780
" />
<path d="M142476 2694
L142890 4240
" />
<path d="M143434 6268
L143848 7814
" />
<path d="M137686 7808
L138101 9354
" />
<path d="M142576 4324
L143120 6352
" />
<path d="M137457 5696
L138000 7724
" />
<path d="M137143 5780
L137457 5696
" />
<path d="M142576 4324
L142890 4240
" />
<path d="M137686 7808
L138000 7724
" />
<path d="M143120 6352
L143434 6268
" />
</g>
<g >
</g>
<g style="fill:#000000; fill-opacity:0.0; 
stroke:#000000; stroke-width:200; stroke-opacity:1; 
stroke-linecap:round; stroke-linejoin:round;">
<path d="M14120 14883
L14434 14967
" />
<path d="M8687 13427
L9001 13511
" />
<path d="M14663 12854
L14977 12938
" />
<path d="M9230 11398
L9544 11482
" />
<path d="M9544 11482
L9001 13511
" />
<path d="M14663 12854
L14120 14883
" />
<path d="M8687 13427
L8273 14972
" />
<path d="M14434 14967
L14020 16512
" />
<path d="M15392 11393
L14977 12938
" />
<path d="M9644 9853
L9230 11398
" />
<path d="M8277 14973
L14015 16511
" />
<path d="M9649 9854
L15387 11391
" />
</g>
<g >
</g>
<g style="fill:#000000; fill-opacity:0.0; 
stroke:#000000; stroke-width:200; stroke-opacity:1; 
stroke-linecap:round; stroke-linejoin:round;">
<path d="M21258 17399
L21572 17483
" />
<path d="M15824 15943
L16138 16028
" />
<path d="M21801 15371
L22115 15455
" />
<path d="M16368 13915
L16682 13999
" />
<path d="M16682 13999
L16138 16028
" />
<path d="M21801 15371
L21258 17399
" />
<path d="M15824 15943
L15410 17489
" />
<path d="M21572 17483
L21157 19029
" />
<path d="M22529 13910
L22115 15455
" />
<path d="M16782 12370
L16368 13915
" />
<path d="M15415 17490
L21153 19028
" />
<path d="M16787 12371
L22524 13908
" />
</g>
<g >
</g>
<g style="fill:#000000; fill-opacity:0.0; 
stroke:#000000; stroke-width:200; stroke-opacity:1; 
stroke-linecap:round; stroke-linejoin:round;">
<path d="M28620 18765
L28934 18850
" />
<path d="M23187 17310
L23501 17394
" />
<path d="M29164 16737
L29478 16821
" />
<path d="M23730 15281
L24044 15365
" />
<path d="M24044 15365
L23501 17394
" />
<path d="M29164 16737
L28620 18765
" />
<path d="M23187 17310
L22773 18855
" />
<path d="M28934 18850
L28520 20395
" />
<path d="M29892 15276
L29478 16821
" />
<path d="M24145 13736
L23730 15281
" />
<path d="M22778 18856
L28515 20394
" />
<path d="M24149 13737
L29887 15274
" />
</g>
<g >
</g>
<g style="fill:#000000; fill-opacity:0.0; 
stroke:#000000; stroke-width:200; stroke-opacity:1; 
stroke-linecap:round; stroke-linejoin:round;">
<path d="M31901 13899
L37639 15436
" />
<path d="M30530 19018
L36267 20556
" />
<path d="M31897 13898
L31482 15443
" />
<path d="M37644 15438
L37230 16983
" />
<path d="M36686 19012
L36272 20557
" />
<path d="M30939 17472
L30525 19017
" />
<path d="M36916 16899
L36372 18927
" />
<path d="M31796 15527
L31253 17556
" />
<path d="M31482 15443
L31796 15527
" />
<path d="M36916 16899
L37230 16983
" />
<path d="M30939 17472
L31253 17556
" />
<path d="M36372 18927
L36686 19012
" />
</g>
<g >
</g>
<g style="fill:#000000; fill-opacity:0.0; 
stroke:#000000; stroke-width:200; stroke-opacity:1; 
stroke-linecap:round; stroke-linejoin:round;">
<path d="M43736 20366
L44050 20450
" />
<path d="M38303 18910
L38617 18994
" />
<path d="M44280 18338
L44594 18422
" />
<path d="M38846 16882
L39160 16966
" />
<path d="M39160 16966
L38617 18994
" />
<path d="M44280 18338
L43736 20366
" />
<path d="M38303 18910
L37889 20456
" />
<path d="M44050 20450
L43636 21996
" />
<path d="M45008 16876
L44594 18422
" />
<path d="M39260 15336
L38846 16882
" />
<path d="M37894 20457
L43631 21994
" />
<path d="M39265 15337
L45003 16875
" />
</g>
<g >
</g>
<g style="fill:#000000; fill-opacity:0.0; 
stroke:#000000; stroke-width:200; stroke-opacity:1; 
stroke-linecap:round; stroke-linejoin:round;">
<path d="M46382 17791
L52119 19329
" />
<path d="M45010 22911
L50748 24448
" />
<path d="M46377 17790
L45963 19335
" />
<path d="M52124 19330
L51710 20875
" />
<path d="M51167 22904
L50753 24449
" />
<path d="M45419 21364
L45005 22909
" />
<path d="M51396 20791
L50853 22820
" />
<path d="M46277 19420
L45733 21448
" />
<path d="M45963 19335
L46277 19420
" />
<path d="M51396 20791
L51710 20875
" />
<path d="M45419 21364
L45733 21448
" />
<path d="M50853 22820
L51167 22904
" />
</g>
<g >
</g>
<g style="fill:#000000; fill-opacity:0.0; 
stroke:#000000; stroke-width:200; stroke-opacity:1; 
stroke-linecap:round; stroke-linejoin:round;">
<path d="M57819 25693
L58132 25777
" />
<path d="M52385 24237
L52699 24321
" />
<path d="M58362 23664
L58676 23749
" />
<path d="M52929 22209
L53243 22293
" />
<path d="M53243 22293
L52699 24321
" />
<path d="M58362 23664
L57819 25693
" />
<path d="M52385 24237
L51971 25783
" />
<path d="M58132 25777
L57718 27322
" />
<path d="M59090 22203
L58676 23749
" />
<path d="M53343 20663
L52929 22209
" />
<path d="M51976 25784
L57714 27321
" />
<path d="M53348 20664
L59085 22202
" />
</g>
<g >
</g>
<g style="fill:#000000; fill-opacity:0.0; 
stroke:#000000; stroke-width:200; stroke-opacity:1; 
stroke-linecap:round; stroke-linejoin:round;">
<path d="M62871 22723
L68811 22723
" />
<path d="M62871 28023
L68811 28023
" />
<path d="M62866 22723
L62866 24323
" />
<path d="M68816 22723
L68816 24323
" />
<path d="M68816 26423
L68816 28023
" />
<path d="M62866 26423
L62866 28023
" />
<path d="M68491 24323
L68491 26423
" />
<path d="M63191 24323
L63191 26423
" />
<path d="M62866 24323
L63191 24323
" />
<path d="M68491 24323
L68816 24323
" />
<path d="M62866 26423
L63191 26423
" />
<path d="M68491 26423
L68816 26423
" />
</g>
<g >
</g>
<g style="fill:#000000; fill-opacity:0.0; 
stroke:#000000; stroke-width:200; stroke-opacity:1; 
stroke-linecap:round; stroke-linejoin:round;">
<path d="M75966 26424
L76291 26424
" />
<path d="M70341 26424
L70666 26424
" />
<path d="M75966 24324
L76291 24324
" />
<path d="M70341 24324
L70666 24324
" />
<path d="M70666 24324
L70666 26424
" />
<path d="M75966 24324
L75966 26424
" />
<path d="M70341 26424
L70341 28024
" />
<path d="M76291 26424
L76291 28024
" />
<path d="M76291 22724
L76291 24324
" />
<path d="M70341 22724
L70341 24324
" />
<path d="M70346 28024
L76286 28024
" />
<path d="M70346 22724
L76286 22724
" />
</g>
<g >
</g>
<g style="fill:#000000; fill-opacity:0.0; 
stroke:#000000; stroke-width:200; stroke-opacity:1; 
stroke-linecap:round; stroke-linejoin:round;">
<path d="M77822 22724
L83762 22724
" />
<path d="M77822 28024
L83762 28024
" />
<path d="M77817 22724
L77817 24324
" />
<path d="M83767 22724
L83767 24324
" />
<path d="M83767 26424
L83767 28024
" />
<path d="M77817 26424
L77817 28024
" />
<path d="M83442 24324
L83442 26424
" />
<path d="M78142 24324
L78142 26424
" />
<path d="M77817 24324
L78142 24324
" />
<path d="M83442 24324
L83767 24324
" />
<path d="M77817 26424
L78142 26424
" />
<path d="M83442 26424
L83767 26424
" />
</g>
<g >
</g>
<g style="fill:#000000; fill-opacity:0.0; 
stroke:#000000; stroke-width:200; stroke-opacity:1; 
stroke-linecap:round; stroke-linejoin:round;">
<path d="M90915 26424
L91240 26424
" />
<path d="M85290 26424
L85615 26424
" />
<path d="M90915 24324
L91240 24324
" />
<path d="M85290 24324
L85615 24324
" />
<path d="M85615 24324
L85615 26424
" />
<path d="M90915 24324
L90915 26424
" />
<path d="M85290 26424
L85290 28024
" />
<path d="M91240 26424
L91240 28024
" />
<path d="M91240 22724
L91240 24324
" />
<path d="M85290 22724
L85290 24324
" />
<path d="M85295 28024
L91235 28024
" />
<path d="M85295 22724
L91235 22724
" />
</g>
<g >
</g>
<g style="fill:#000000; fill-opacity:0.0; 
stroke:#000000; stroke-width:200; stroke-opacity:1; 
stroke-linecap:round; stroke-linejoin:round;">
<path d="M94951 22229
L100689 20691
" />
<path d="M96323 27348
L102061 25811
" />
<path d="M94946 22230
L95361 23776
" />
<path d="M100694 20690
L101108 22236
" />
<path d="M101651 24264
L102065 25810
" />
<path d="M95904 25804
L96318 27350
" />
<path d="M100794 22320
L101337 24348
" />
<path d="M95674 23692
L96218 25720
" />
<path d="M95361 23776
L95674 23692
" />
<path d="M100794 22320
L101108 22236
" />
<path d="M95904 25804
L96218 25720
" />
<path d="M101337 24348
L101651 24264
" />
</g>
<g >
</g>
<g style="fill:#000000; fill-opacity:0.0; 
stroke:#000000; stroke-width:200; stroke-opacity:1; 
stroke-linecap:round; stroke-linejoin:round;">
<path d="M108326 21508
L108640 21423
" />
<path d="M102893 22963
L103207 22879
" />
<path d="M107783 19479
L108097 19395
" />
<path d="M102350 20935
L102664 20851
" />
<path d="M102664 20851
L103207 22879
" />
<path d="M107783 19479
L108326 21508
" />
<path d="M102893 22963
L103307 24509
" />
<path d="M108640 21423
L109054 22969
" />
<path d="M107683 17850
L108097 19395
" />
<path d="M101935 19389
L102350 20935
" />
<path d="M103312 24508
L109050 22970
" />
<path d="M101940 19388
L107678 17851
" />
</g>
<g >
</g>
<g style="fill:#000000; fill-opacity:0.0; 
stroke:#000000; stroke-width:200; stroke-opacity:1; 
stroke-linecap:round; stroke-linejoin:round;">
<path d="M109069 16909
L114807 15371
" />
<path d="M110441 22028
L116179 20491
" />
<path d="M109064 16910
L109479 18455
" />
<path d="M114812 15370
L115226 16915
" />
<path d="M115769 18944
L116183 20489
" />
<path d="M110022 20484
L110436 22029
" />
<path d="M114912 17000
L115455 19028
" />
<path d="M109792 18371
L110336 20400
" />
<path d="M109479 18455
L109792 18371
" />
<path d="M114912 17000
L115226 16915
" />
<path d="M110022 20484
L110336 20400
" />
<path d="M115455 19028
L115769 18944
" />
</g>
<g >
</g>
<g style="fill:#000000; fill-opacity:0.0; 
stroke:#000000; stroke-width:200; stroke-opacity:1; 
stroke-linecap:round; stroke-linejoin:round;">
<path d="M122815 17581
L123129 17497
" />
<path d="M117381 19037
L117695 18953
" />
<path d="M122271 15553
L122585 15468
" />
<path d="M116838 17008
L117152 16924
" />
<path d="M117152 16924
L117695 18953
" />
<path d="M122271 15553
L122815 17581
" />
<path d="M117381 19037
L117796 20582
" />
<path d="M123129 17497
L123543 19042
" />
<path d="M122171 13923
L122585 15468
" />
<path d="M116424 15463
L116838 17008
" />
<path d="M117800 20581
L123538 19044
" />
<path d="M116429 15462
L122166 13924
" />
</g>
<g >
</g>
<g style="fill:#000000; fill-opacity:0.0; 
stroke:#000000; stroke-width:200; stroke-opacity:1; 
stroke-linecap:round; stroke-linejoin:round;">
<path d="M124174 15306
L129911 13769
" />
<path d="M125546 20425
L131283 18888
" />
<path d="M124169 15307
L124583 16853
" />
<path d="M129916 13767
L130330 15313
" />
<path d="M130874 17341
L131288 18887
" />
<path d="M125127 18881
L125541 20427
" />
<path d="M130016 15397
L130560 17425
" />
<path d="M124897 16769
L125441 18797
" />
<path d="M124583 16853
L124897 16769
" />
<path d="M130016 15397
L130330 15313
" />
<path d="M125127 18881
L125441 18797
" />
<path d="M130560 17425
L130874 17341
" />
</g>
<g >
</g>
<g style="fill:#000000; fill-opacity:0.0; 
stroke:#000000; stroke-width:200; stroke-opacity:1; 
stroke-linecap:round; stroke-linejoin:round;">
<path d="M137941 16061
L138255 15977
" />
<path d="M132508 17517
L132822 17433
" />
<path d="M137398 14033
L137712 13949
" />
<path d="M131964 15489
L132278 15405
" />
<path d="M132278 15405
L132822 17433
" />
<path d="M137398 14033
L137941 16061
" />
<path d="M132508 17517
L132922 19063
" />
<path d="M138255 15977
L138669 17523
" />
<path d="M137297 12403
L137712 13949
" />
<path d="M131550 13943
L131964 15489
" />
<path d="M132927 19062
L138664 17524
" />
<path d="M131555 13942
L137293 12405
" />
</g>
<g >
</g>
<g style="fill:#000000; fill-opacity:0.0; 
stroke:#000000; stroke-width:200; stroke-opacity:1; 
stroke-linecap:round; stroke-linejoin:round;">
<path d="M138654 11426
L144392 9889
" />
<path d="M140026 16546
L145764 15008
" />
<path d="M138649 11427
L139063 12973
" />
<path d="M144397 9887
L144811 11433
" />
<path d="M145354 13461
L145768 15007
" />
<path d="M139607 15001
L140021 16547
" />
<path d="M144497 11517
L145040 13545
" />
<path d="M139377 12889
L139921 14917
" />
<path d="M139063 12973
L139377 12889
" />
<path d="M144497 11517
L144811 11433
" />
<path d="M139607 15001
L139921 14917
" />
<path d="M145040 13545
L145354 13461
" />
</g>
<g >
</g>
<g style="fill:#000000; fill-opacity:0.0; 
stroke:#000000; stroke-width:200; stroke-opacity:1; 
stroke-linecap:round; stroke-linejoin:round;">
<path d="M12178 22185
L12492 22269
" />
<path d="M6745 20729
L7059 20813
" />
<path d="M12722 20156
L13036 20240
" />
<path d="M7289 18700
L7603 18784
" />
<path d="M7603 18784
L7059 20813
" />
<path d="M12722 20156
L12178 22185
" />
<path d="M6745 20729
L6331 22274
" />
<path d="M12492 22269
L12078 23814
" />
<path d="M13450 18695
L13036 20240
" />
<path d="M7703 17155
L7289 18700
" />
<path d="M6336 22276
L12073 23813
" />
<path d="M7708 17156
L13445 18694
" />
</g>
<g >
</g>
<g style="fill:#000000; fill-opacity:0.0; 
stroke:#000000; stroke-width:200; stroke-opacity:1; 
stroke-linecap:round; stroke-linejoin:round;">
<path d="M14814 19683
L20552 21220
" />
<path d="M13442 24802
L19180 26340
" />
<path d="M14809 19682
L14395 21227
" />
<path d="M20557 21221
L20142 22767
" />
<path d="M19599 24795
L19185 26341
" />
<path d="M13852 23255
L13438 24801
" />
<path d="M19828 22683
L19285 24711
" />
<path d="M14709 21311
L14166 23340
" />
<path d="M14395 21227
L14709 21311
" />
<path d="M19828 22683
L20142 22767
" />
<path d="M13852 23255
L14166 23340
" />
<path d="M19285 24711
L19599 24795
" />
</g>
<g >
</g>
<g style="fill:#000000; fill-opacity:0.0; 
stroke:#000000; stroke-width:200; stroke-opacity:1; 
stroke-linecap:round; stroke-linejoin:round;">
<path d="M22196 21044
L27933 22582
" />
<path d="M20824 26164
L26562 27701
" />
<path d="M22191 21043
L21777 22589
" />
<path d="M27938 22583
L27524 24128
" />
<path d="M26981 26157
L26567 27702
" />
<path d="M21233 24617
L20819 26162
" />
<path d="M27210 24044
L26667 26073
" />
<path d="M22091 22673
L21547 24701
" />
<path d="M21777 22589
L22091 22673
" />
<path d="M27210 24044
L27524 24128
" />
<path d="M21233 24617
L21547 24701
" />
<path d="M26667 26073
L26981 26157
" />
</g>
<g >
</g>
<g style="fill:#000000; fill-opacity:0.0; 
stroke:#000000; stroke-width:200; stroke-opacity:1; 
stroke-linecap:round; stroke-linejoin:round;">
<path d="M29951 21158
L35689 22696
" />
<path d="M28579 26278
L34317 27815
" />
<path d="M29946 21157
L29532 22703
" />
<path d="M35694 22697
L35279 24243
" />
<path d="M34736 26271
L34322 27816
" />
<path d="M28989 24731
L28575 26276
" />
<path d="M34965 24158
L34422 26187
" />
<path d="M29846 22787
L29303 24815
" />
<path d="M29532 22703
L29846 22787
" />
<path d="M34965 24158
L35279 24243
" />
<path d="M28989 24731
L29303 24815
" />
<path d="M34422 26187
L34736 26271
" />
</g>
<g >
</g>
<g style="fill:#000000; fill-opacity:0.0; 
stroke:#000000; stroke-width:200; stroke-opacity:1; 
stroke-linecap:round; stroke-linejoin:round;">
<path d="M41776 27618
L42090 27702
" />
<path d="M36343 26162
L36657 26246
" />
<path d="M42320 25589
L42634 25673
" />
<path d="M36887 24133
L37201 24218
" />
<path d="M37201 24218
L36657 26246
" />
<path d="M42320 25589
L41776 27618
" />
<path d="M36343 26162
L35929 27707
" />
<path d="M42090 27702
L41676 29247
" />
<path d="M43048 24128
L42634 25673
" />
<path d="M37301 22588
L36887 24133
" />
<path d="M35934 27709
L41671 29246
" />
<path d="M37306 22589
L43043 24127
" />
</g>
<g >
</g>
<g style="fill:#000000; fill-opacity:0.0; 
stroke:#000000; stroke-width:200; stroke-opacity:1; 
stroke-linecap:round; stroke-linejoin:round;">
<path d="M44452 25042
L50189 26580
" />
<path d="M43080 30162
L48817 31699
" />
<path d="M44447 25041
L44033 26586
" />
<path d="M50194 26581
L49780 28126
" />
<path d="M49236 30155
L48822 31700
" />
<path d="M43489 28615
L43075 30160
" />
<path d="M49466 28042
L48922 30071
" />
<path d="M44346 26671
L43803 28699
" />
<path d="M44033 26586
L44346 26671
" />
<path d="M49466 28042
L49780 28126
" />
<path d="M43489 28615
L43803 28699
" />
<path d="M48922 30071
L49236 30155
" />
</g>
<g >
</g>
<g style="fill:#000000; fill-opacity:0.0; 
stroke:#000000; stroke-width:200; stroke-opacity:1; 
stroke-linecap:round; stroke-linejoin:round;">
<path d="M55897 32917
L56210 33002
" />
<path d="M50463 31462
L50777 31546
" />
<path d="M56440 30889
L56754 30973
" />
<path d="M51007 29433
L51321 29517
" />
<path d="M51321 29517
L50777 31546
" />
<path d="M56440 30889
L55897 32917
" />
<path d="M50463 31462
L50049 33007
" />
<path d="M56210 33002
L55796 34547
" />
<path d="M57168 29428
L56754 30973
" />
<path d="M51421 27888
L51007 29433
" />
<path d="M50054 33008
L55792 34546
" />
<path d="M51426 27889
L57163 29426
" />
</g>
<g >
</g>
<g style="fill:#000000; fill-opacity:0.0; 
stroke:#000000; stroke-width:200; stroke-opacity:1; 
stroke-linecap:round; stroke-linejoin:round;">
<path d="M62870 30208
L68810 30208
" />
<path d="M62870 35508
L68810 35508
" />
<path d="M62865 30208
L62865 31808
" />
<path d="M68815 30208
L68815 31808
" />
<path d="M68815 33908
L68815 35508
" />
<path d="M62865 33908
L62865 35508
" />
<path d="M68490 31808
L68490 33908
" />
<path d="M63190 31808
L63190 33908
" />
<path d="M62865 31808
L63190 31808
" />
<path d="M68490 31808
L68815 31808
" />
<path d="M62865 33908
L63190 33908
" />
<path d="M68490 33908
L68815 33908
" />
</g>
<g >
</g>
<g style="fill:#000000; fill-opacity:0.0; 
stroke:#000000; stroke-width:200; stroke-opacity:1; 
stroke-linecap:round; stroke-linejoin:round;">
<path d="M75970 33904
L76295 33904
" />
<path d="M70345 33904
L70670 33904
" />
<path d="M75970 31804
L76295 31804
" />
<path d="M70345 31804
L70670 31804
" />
<path d="M70670 31804
L70670 33904
" />
<path d="M75970 31804
L75970 33904
" />
<path d="M70345 33904
L70345 35504
" />
<path d="M76295 33904
L76295 35504
" />
<path d="M76295 30204
L76295 31804
" />
<path d="M70345 30204
L70345 31804
" />
<path d="M70350 35504
L76290 35504
" />
<path d="M70350 30204
L76290 30204
" />
</g>
<g >
</g>
<g style="fill:#000000; fill-opacity:0.0; 
stroke:#000000; stroke-width:200; stroke-opacity:1; 
stroke-linecap:round; stroke-linejoin:round;">
<path d="M77822 30200
L83762 30200
" />
<path d="M77822 35500
L83762 35500
" />
<path d="M77817 30200
L77817 31800
" />
<path d="M83767 30200
L83767 31800
" />
<path d="M83767 33900
L83767 35500
" />
<path d="M77817 33900
L77817 35500
" />
<path d="M83442 31800
L83442 33900
" />
<path d="M78142 31800
L78142 33900
" />
<path d="M77817 31800
L78142 31800
" />
<path d="M83442 31800
L83767 31800
" />
<path d="M77817 33900
L78142 33900
" />
<path d="M83442 33900
L83767 33900
" />
</g>
<g >
</g>
<g style="fill:#000000; fill-opacity:0.0; 
stroke:#000000; stroke-width:200; stroke-opacity:1; 
stroke-linecap:round; stroke-linejoin:round;">
<path d="M90921 33903
L91246 33903
" />
<path d="M85296 33903
L85621 33903
" />
<path d="M90921 31803
L91246 31803
" />
<path d="M85296 31803
L85621 31803
" />
<path d="M85621 31803
L85621 33903
" />
<path d="M90921 31803
L90921 33903
" />
<path d="M85296 33903
L85296 35503
" />
<path d="M91246 33903
L91246 35503
" />
<path d="M91246 30203
L91246 31803
" />
<path d="M85296 30203
L85296 31803
" />
<path d="M85301 35503
L91241 35503
" />
<path d="M85301 30203
L91241 30203
" />
</g>
<g >
</g>
<g style="fill:#000000; fill-opacity:0.0; 
stroke:#000000; stroke-width:200; stroke-opacity:1; 
stroke-linecap:round; stroke-linejoin:round;">
<path d="M96891 29460
L102629 27923
" />
<path d="M98263 34580
L104001 33042
" />
<path d="M96887 29462
L97301 31007
" />
<path d="M102634 27922
L103048 29467
" />
<path d="M103591 31496
L104006 33041
" />
<path d="M97844 33036
L98258 34581
" />
<path d="M102734 29551
L103278 31580
" />
<path d="M97615 30923
L98158 32951
" />
<path d="M97301 31007
L97615 30923
" />
<path d="M102734 29551
L103048 29467
" />
<path d="M97844 33036
L98158 32951
" />
<path d="M103278 31580
L103591 31496
" />
</g>
<g >
</g>
<g style="fill:#000000; fill-opacity:0.0; 
stroke:#000000; stroke-width:200; stroke-opacity:1; 
stroke-linecap:round; stroke-linejoin:round;">
<path d="M110267 28740
L110581 28656
" />
<path d="M104834 30196
L105148 30111
" />
<path d="M109724 26711
L110038 26627
" />
<path d="M104291 28167
L104604 28083
" />
<path d="M104604 28083
L105148 30111
" />
<path d="M109724 26711
L110267 28740
" />
<path d="M104834 30196
L105248 31741
" />
<path d="M110581 28656
L110995 30201
" />
<path d="M109624 25082
L110038 26627
" />
<path d="M103876 26622
L104291 28167
" />
<path d="M105253 31740
L110991 30202
" />
<path d="M103881 26620
L109619 25083
" />
</g>
<g >
</g>
<g style="fill:#000000; fill-opacity:0.0; 
stroke:#000000; stroke-width:200; stroke-opacity:1; 
stroke-linecap:round; stroke-linejoin:round;">
<path d="M111015 24183
L116753 22646
" />
<path d="M112387 29303
L118125 27765
" />
<path d="M111010 24185
L111425 25730
" />
<path d="M116758 22645
L117172 24190
" />
<path d="M117715 26219
L118129 27764
" />
<path d="M111968 27759
L112382 29304
" />
<path d="M116858 24274
L117401 26303
" />
<path d="M111739 25646
L112282 27675
" />
<path d="M111425 25730
L111739 25646
" />
<path d="M116858 24274
L117172 24190
" />
<path d="M111968 27759
L112282 27675
" />
<path d="M117401 26303
L117715 26219
" />
</g>
<g >
</g>
<g style="fill:#000000; fill-opacity:0.0; 
stroke:#000000; stroke-width:200; stroke-opacity:1; 
stroke-linecap:round; stroke-linejoin:round;">
<path d="M124751 24850
L125064 24766
" />
<path d="M119317 26306
L119631 26222
" />
<path d="M124207 22822
L124521 22738
" />
<path d="M118774 24278
L119088 24194
" />
<path d="M119088 24194
L119631 26222
" />
<path d="M124207 22822
L124751 24850
" />
<path d="M119317 26306
L119731 27852
" />
<path d="M125064 24766
L125479 26312
" />
<path d="M124107 21192
L124521 22738
" />
<path d="M118360 22732
L118774 24278
" />
<path d="M119736 27850
L125474 26313
" />
<path d="M118364 22731
L124102 21194
" />
</g>
<g >
</g>
<g style="fill:#000000; fill-opacity:0.0; 
stroke:#000000; stroke-width:200; stroke-opacity:1; 
stroke-linecap:round; stroke-linejoin:round;">
<path d="M126123 22610
L131861 21073
" />
<path d="M127495 27730
L133233 26192
" />
<path d="M126118 22612
L126533 24157
" />
<path d="M131866 21072
L132280 22617
" />
<path d="M132823 24646
L133237 26191
" />
<path d="M127076 26186
L127490 27731
" />
<path d="M131966 22701
L132509 24730
" />
<path d="M126846 24073
L127390 26101
" />
<path d="M126533 24157
L126846 24073
" />
<path d="M131966 22701
L132280 22617
" />
<path d="M127076 26186
L127390 26101
" />
<path d="M132509 24730
L132823 24646
" />
</g>
<g >
</g>
<g style="fill:#000000; fill-opacity:0.0; 
stroke:#000000; stroke-width:200; stroke-opacity:1; 
stroke-linecap:round; stroke-linejoin:round;">
<path d="M139893 23354
L140207 23270
" />
<path d="M134459 24810
L134773 24726
" />
<path d="M139349 21326
L139663 21242
" />
<path d="M133916 22782
L134230 22698
" />
<path d="M134230 22698
L134773 24726
" />
<path d="M139349 21326
L139893 23354
" />
<path d="M134459 24810
L134873 26356
" />
<path d="M140207 23270
L140621 24816
" />
<path d="M139249 19696
L139663 21242
" />
<path d="M133502 21236
L133916 22782
" />
<path d="M134878 26354
L140616 24817
" />
<path d="M133506 21235
L139244 19698
" />
</g>
<g >
</g>
<g style="fill:#000000; fill-opacity:0.0; 
stroke:#000000; stroke-width:200; stroke-opacity:1; 
stroke-linecap:round; stroke-linejoin:round;">
<path d="M140607 18737
L146344 17200
" />
<path d="M141979 23856
L147716 22319
" />
<path d="M140602 18738
L141016 20284
" />
<path d="M146349 17198
L146763 18744
" />
<path d="M147307 20772
L147721 22318
" />
<path d="M141560 22312
L141974 23858
" />
<path d="M146449 18828
L146993 20856
" />
<path d="M141330 20200
L141874 22228
" />
<path d="M141016 20284
L141330 20200
" />
<path d="M146449 18828
L146763 18744
" />
<path d="M141560 22312
L141874 22228
" />
<path d="M146993 20856
L147307 20772
" />
</g>
<g >
</g>
<g style="fill:#000000; fill-opacity:0.0; 
stroke:#000000; stroke-width:200; stroke-opacity:1; 
stroke-linecap:round; stroke-linejoin:round;">
<path d="M10234 29424
L10548 29509
" />
<path d="M4801 27969
L5115 28053
" />
<path d="M10778 27396
L11092 27480
" />
<path d="M5345 25940
L5658 26024
" />
<path d="M5658 26024
L5115 28053
" />
<path d="M10778 27396
L10234 29424
" />
<path d="M4801 27969
L4387 29514
" />
<path d="M10548 29509
L10134 31054
" />
<path d="M11506 25935
L11092 27480
" />
<path d="M5759 24395
L5345 25940
" />
<path d="M4392 29515
L10129 31053
" />
<path d="M5763 24396
L11501 25933
" />
</g>
<g >
</g>
<g style="fill:#000000; fill-opacity:0.0; 
stroke:#000000; stroke-width:200; stroke-opacity:1; 
stroke-linecap:round; stroke-linejoin:round;">
<path d="M12871 26901
L18609 28439
" />
<path d="M11500 32021
L17237 33558
" />
<path d="M12867 26900
L12452 28445
" />
<path d="M18614 28440
L18200 29985
" />
<path d="M17656 32014
L17242 33559
" />
<path d="M11909 30474
L11495 32019
" />
<path d="M17886 29901
L17342 31930
" />
<path d="M12766 28529
L12223 30558
" />
<path d="M12452 28445
L12766 28529
" />
<path d="M17886 29901
L18200 29985
" />
<path d="M11909 30474
L12223 30558
" />
<path d="M17342 31930
L17656 32014
" />
</g>
<g >
</g>
<g style="fill:#000000; fill-opacity:0.0; 
stroke:#000000; stroke-width:200; stroke-opacity:1; 
stroke-linecap:round; stroke-linejoin:round;">
<path d="M24732 33294
L25046 33378
" />
<path d="M19298 31839
L19612 31923
" />
<path d="M25275 31266
L25589 31350
" />
<path d="M19842 29810
L20156 29894
" />
<path d="M20156 29894
L19612 31923
" />
<path d="M25275 31266
L24732 33294
" />
<path d="M19298 31839
L18884 33384
" />
<path d="M25046 33378
L24632 34924
" />
<path d="M26003 29805
L25589 31350
" />
<path d="M20256 28265
L19842 29810
" />
<path d="M18889 33385
L24627 34923
" />
<path d="M20261 28266
L25998 29803
" />
</g>
<g >
</g>
<g style="fill:#000000; fill-opacity:0.0; 
stroke:#000000; stroke-width:200; stroke-opacity:1; 
stroke-linecap:round; stroke-linejoin:round;">
<path d="M27992 28428
L33730 29966
" />
<path d="M26621 33548
L32358 35085
" />
<path d="M27987 28427
L27573 29973
" />
<path d="M33735 29967
L33321 31513
" />
<path d="M32777 33541
L32363 35087
" />
<path d="M27030 32001
L26616 33547
" />
<path d="M33007 31429
L32463 33457
" />
<path d="M27887 30057
L27344 32085
" />
<path d="M27573 29973
L27887 30057
" />
<path d="M33007 31429
L33321 31513
" />
<path d="M27030 32001
L27344 32085
" />
<path d="M32463 33457
L32777 33541
" />
</g>
<g >
</g>
<g style="fill:#000000; fill-opacity:0.0; 
stroke:#000000; stroke-width:200; stroke-opacity:1; 
stroke-linecap:round; stroke-linejoin:round;">
<path d="M39845 34866
L40159 34950
" />
<path d="M34412 33410
L34726 33494
" />
<path d="M40389 32837
L40703 32921
" />
<path d="M34955 31381
L35269 31465
" />
<path d="M35269 31465
L34726 33494
" />
<path d="M40389 32837
L39845 34866
" />
<path d="M34412 33410
L33998 34955
" />
<path d="M40159 34950
L39745 36495
" />
<path d="M41117 31376
L40703 32921
" />
<path d="M35370 29836
L34955 31381
" />
<path d="M34003 34956
L39740 36494
" />
<path d="M35374 29837
L41112 31374
" />
</g>
<g >
</g>
<g style="fill:#000000; fill-opacity:0.0; 
stroke:#000000; stroke-width:200; stroke-opacity:1; 
stroke-linecap:round; stroke-linejoin:round;">
<path d="M42501 32312
L48238 33850
" />
<path d="M41129 37432
L46867 38969
" />
<path d="M42496 32311
L42082 33857
" />
<path d="M48243 33851
L47829 35396
" />
<path d="M47286 37425
L46871 38970
" />
<path d="M41538 35885
L41124 37430
" />
<path d="M47515 35312
L46972 37341
" />
<path d="M42396 33941
L41852 35969
" />
<path d="M42082 33857
L42396 33941
" />
<path d="M47515 35312
L47829 35396
" />
<path d="M41538 35885
L41852 35969
" />
<path d="M46972 37341
L47286 37425
" />
</g>
<g >
</g>
<g style="fill:#000000; fill-opacity:0.0; 
stroke:#000000; stroke-width:200; stroke-opacity:1; 
stroke-linecap:round; stroke-linejoin:round;">
<path d="M53957 40149
L54271 40233
" />
<path d="M48523 38693
L48837 38777
" />
<path d="M54500 38120
L54814 38204
" />
<path d="M49067 36664
L49381 36748
" />
<path d="M49381 36748
L48837 38777
" />
<path d="M54500 38120
L53957 40149
" />
<path d="M48523 38693
L48109 40238
" />
<path d="M54271 40233
L53857 41778
" />
<path d="M55228 36659
L54814 38204
" />
<path d="M49481 35119
L49067 36664
" />
<path d="M48114 40240
L53852 41777
" />
<path d="M49486 35120
L55223 36658
" />
</g>
<g >
</g>
<g style="fill:#000000; fill-opacity:0.0; 
stroke:#000000; stroke-width:200; stroke-opacity:1; 
stroke-linecap:round; stroke-linejoin:round;">
<path d="M62874 37697
L68814 37697
" />
<path d="M62874 42997
L68814 42997
" />
<path d="M62869 37697
L62869 39297
" />
<path d="M68819 37697
L68819 39297
" />
<path d="M68819 41397
L68819 42997
" />
<path d="M62869 41397
L62869 42997
" />
<path d="M68494 39297
L68494 41397
" />
<path d="M63194 39297
L63194 41397
" />
<path d="M62869 39297
L63194 39297
" />
<path d="M68494 39297
L68819 39297
" />
<path d="M62869 41397
L63194 41397
" />
<path d="M68494 41397
L68819 41397
" />
</g>
<g >
</g>
<g style="fill:#000000; fill-opacity:0.0; 
stroke:#000000; stroke-width:200; stroke-opacity:1; 
stroke-linecap:round; stroke-linejoin:round;">
<path d="M75971 41397
L76296 41397
" />
<path d="M70346 41397
L70671 41397
" />
<path d="M75971 39297
L76296 39297
" />
<path d="M70346 39297
L70671 39297
" />
<path d="M70671 39297
L70671 41397
" />
<path d="M75971 39297
L75971 41397
" />
<path d="M70346 41397
L70346 42997
" />
<path d="M76296 41397
L76296 42997
" />
<path d="M76296 37697
L76296 39297
" />
<path d="M70346 37697
L70346 39297
" />
<path d="M70351 42997
L76291 42997
" />
<path d="M70351 37697
L76291 37697
" />
</g>
<g >
</g>
<g style="fill:#000000; fill-opacity:0.0; 
stroke:#000000; stroke-width:200; stroke-opacity:1; 
stroke-linecap:round; stroke-linejoin:round;">
<path d="M83448 41390
L83773 41390
" />
<path d="M77823 41390
L78148 41390
" />
<path d="M83448 39290
L83773 39290
" />
<path d="M77823 39290
L78148 39290
" />
<path d="M78148 39290
L78148 41390
" />
<path d="M83448 39290
L83448 41390
" />
<path d="M77823 41390
L77823 42990
" />
<path d="M83773 41390
L83773 42990
" />
<path d="M83773 37690
L83773 39290
" />
<path d="M77823 37690
L77823 39290
" />
<path d="M77828 42990
L83768 42990
" />
<path d="M77828 37690
L83768 37690
" />
</g>
<g >
</g>
<g style="fill:#000000; fill-opacity:0.0; 
stroke:#000000; stroke-width:200; stroke-opacity:1; 
stroke-linecap:round; stroke-linejoin:round;">
<path d="M90925 41389
L91250 41389
" />
<path d="M85300 41389
L85625 41389
" />
<path d="M90925 39289
L91250 39289
" />
<path d="M85300 39289
L85625 39289
" />
<path d="M85625 39289
L85625 41389
" />
<path d="M90925 39289
L90925 41389
" />
<path d="M85300 41389
L85300 42989
" />
<path d="M91250 41389
L91250 42989
" />
<path d="M91250 37689
L91250 39289
" />
<path d="M85300 37689
L85300 39289
" />
<path d="M85305 42989
L91245 42989
" />
<path d="M85305 37689
L91245 37689
" />
</g>
<g >
</g>
<g style="fill:#000000; fill-opacity:0.0; 
stroke:#000000; stroke-width:200; stroke-opacity:1; 
stroke-linecap:round; stroke-linejoin:round;">
<path d="M98835 36687
L104572 35150
" />
<path d="M100207 41806
L105944 40269
" />
<path d="M98830 36688
L99244 38234
" />
<path d="M104577 35148
L104991 36694
" />
<path d="M105535 38722
L105949 40268
" />
<path d="M99788 40262
L100202 41808
" />
<path d="M104677 36778
L105221 38806
" />
<path d="M99558 38150
L100102 40178
" />
<path d="M99244 38234
L99558 38150
" />
<path d="M104677 36778
L104991 36694
" />
<path d="M99788 40262
L100102 40178
" />
<path d="M105221 38806
L105535 38722
" />
</g>
<g >
</g>
<g style="fill:#000000; fill-opacity:0.0; 
stroke:#000000; stroke-width:200; stroke-opacity:1; 
stroke-linecap:round; stroke-linejoin:round;">
<path d="M112207 35989
L112521 35905
" />
<path d="M106774 37445
L107088 37361
" />
<path d="M111664 33961
L111978 33877
" />
<path d="M106231 35417
L106544 35333
" />
<path d="M106544 35333
L107088 37361
" />
<path d="M111664 33961
L112207 35989
" />
<path d="M106774 37445
L107188 38991
" />
<path d="M112521 35905
L112935 37451
" />
<path d="M111564 32331
L111978 33877
" />
<path d="M105816 33871
L106231 35417
" />
<path d="M107193 38989
L112931 37452
" />
<path d="M105821 33870
L111559 32333
" />
</g>
<g >
</g>
<g style="fill:#000000; fill-opacity:0.0; 
stroke:#000000; stroke-width:200; stroke-opacity:1; 
stroke-linecap:round; stroke-linejoin:round;">
<path d="M112956 31401
L118694 29864
" />
<path d="M114328 36521
L120065 34983
" />
<path d="M112951 31403
L113365 32948
" />
<path d="M118698 29863
L119113 31408
" />
<path d="M119656 33436
L120070 34982
" />
<path d="M113909 34976
L114323 36522
" />
<path d="M118799 31492
L119342 33521
" />
<path d="M113679 32864
L114223 34892
" />
<path d="M113365 32948
L113679 32864
" />
<path d="M118799 31492
L119113 31408
" />
<path d="M113909 34976
L114223 34892
" />
<path d="M119342 33521
L119656 33436
" />
</g>
<g >
</g>
<g style="fill:#000000; fill-opacity:0.0; 
stroke:#000000; stroke-width:200; stroke-opacity:1; 
stroke-linecap:round; stroke-linejoin:round;">
<path d="M126704 32109
L127017 32025
" />
<path d="M121270 33565
L121584 33481
" />
<path d="M126160 30081
L126474 29996
" />
<path d="M120727 31536
L121041 31452
" />
<path d="M121041 31452
L121584 33481
" />
<path d="M126160 30081
L126704 32109
" />
<path d="M121270 33565
L121684 35110
" />
<path d="M127017 32025
L127432 33570
" />
<path d="M126060 28451
L126474 29996
" />
<path d="M120313 29991
L120727 31536
" />
<path d="M121689 35109
L127427 33572
" />
<path d="M120317 29990
L126055 28452
" />
</g>
<g >
</g>
<g style="fill:#000000; fill-opacity:0.0; 
stroke:#000000; stroke-width:200; stroke-opacity:1; 
stroke-linecap:round; stroke-linejoin:round;">
<path d="M128062 29839
L133800 28301
" />
<path d="M129434 34958
L135172 33421
" />
<path d="M128057 29840
L128472 31385
" />
<path d="M133805 28300
L134219 29845
" />
<path d="M134762 31874
L135176 33419
" />
<path d="M129015 33414
L129429 34959
" />
<path d="M133905 29929
L134448 31958
" />
<path d="M128785 31301
L129329 33330
" />
<path d="M128472 31385
L128785 31301
" />
<path d="M133905 29929
L134219 29845
" />
<path d="M129015 33414
L129329 33330
" />
<path d="M134448 31958
L134762 31874
" />
</g>
<g >
</g>
<g style="fill:#000000; fill-opacity:0.0; 
stroke:#000000; stroke-width:200; stroke-opacity:1; 
stroke-linecap:round; stroke-linejoin:round;">
<path d="M141840 30578
L142154 30494
" />
<path d="M136407 32034
L136721 31949
" />
<path d="M141297 28549
L141611 28465
" />
<path d="M135863 30005
L136177 29921
" />
<path d="M136177 29921
L136721 31949
" />
<path d="M141297 28549
L141840 30578
" />
<path d="M136407 32034
L136821 33579
" />
<path d="M142154 30494
L142568 32039
" />
<path d="M141196 26920
L141611 28465
" />
<path d="M135449 28460
L135863 30005
" />
<path d="M136826 33578
L142563 32040
" />
<path d="M135454 28458
L141192 26921
" />
</g>
<g >
</g>
<g style="fill:#000000; fill-opacity:0.0; 
stroke:#000000; stroke-width:200; stroke-opacity:1; 
stroke-linecap:round; stroke-linejoin:round;">
<path d="M142547 25946
L148284 24409
" />
<path d="M143918 31066
L149656 29528
" />
<path d="M142542 25948
L142956 27493
" />
<path d="M148289 24408
L148703 25953
" />
<path d="M149247 27982
L149661 29527
" />
<path d="M143500 29522
L143914 31067
" />
<path d="M148389 26037
L148933 28066
" />
<path d="M143270 27409
L143813 29437
" />
<path d="M142956 27493
L143270 27409
" />
<path d="M148389 26037
L148703 25953
" />
<path d="M143500 29522
L143813 29437
" />
<path d="M148933 28066
L149247 27982
" />
</g>
<g >
</g>
<g style="fill:#000000; fill-opacity:0.0; 
stroke:#000000; stroke-width:200; stroke-opacity:1; 
stroke-linecap:round; stroke-linejoin:round;">
<path d="M8302 36675
L8616 36759
" />
<path d="M2869 35219
L3183 35303
" />
<path d="M8846 34647
L9159 34731
" />
<path d="M3412 33191
L3726 33275
" />
<path d="M3726 33275
L3183 35303
" />
<path d="M8846 34647
L8302 36675
" />
<path d="M2869 35219
L2455 36765
" />
<path d="M8616 36759
L8202 38305
" />
<path d="M9574 33185
L9159 34731
" />
<path d="M3826 31645
L3412 33191
" />
<path d="M2459 36766
L8197 38303
" />
<path d="M3831 31647
L9569 33184
" />
</g>
<g >
</g>
<g style="fill:#000000; fill-opacity:0.0; 
stroke:#000000; stroke-width:200; stroke-opacity:1; 
stroke-linecap:round; stroke-linejoin:round;">
<path d="M10920 34130
L16657 35668
" />
<path d="M9548 39250
L15285 40787
" />
<path d="M10915 34129
L10501 35675
" />
<path d="M16662 35669
L16248 37215
" />
<path d="M15704 39243
L15290 40788
" />
<path d="M9957 37703
L9543 39248
" />
<path d="M15934 37130
L15390 39159
" />
<path d="M10815 35759
L10271 37787
" />
<path d="M10501 35675
L10815 35759
" />
<path d="M15934 37130
L16248 37215
" />
<path d="M9957 37703
L10271 37787
" />
<path d="M15390 39159
L15704 39243
" />
</g>
<g >
</g>
<g style="fill:#000000; fill-opacity:0.0; 
stroke:#000000; stroke-width:200; stroke-opacity:1; 
stroke-linecap:round; stroke-linejoin:round;">
<path d="M22789 40549
L23103 40633
" />
<path d="M17356 39093
L17670 39178
" />
<path d="M23333 38521
L23647 38605
" />
<path d="M17899 37065
L18213 37149
" />
<path d="M18213 37149
L17670 39178
" />
<path d="M23333 38521
L22789 40549
" />
<path d="M17356 39093
L16942 40639
" />
<path d="M23103 40633
L22689 42179
" />
<path d="M24061 37059
L23647 38605
" />
<path d="M18313 35519
L17899 37065
" />
<path d="M16947 40640
L22684 42178
" />
<path d="M18318 35521
L24056 37058
" />
</g>
<g >
</g>
<g style="fill:#000000; fill-opacity:0.0; 
stroke:#000000; stroke-width:200; stroke-opacity:1; 
stroke-linecap:round; stroke-linejoin:round;">
<path d="M26059 35668
L31796 37205
" />
<path d="M24687 40787
L30424 42325
" />
<path d="M26054 35667
L25640 37212
" />
<path d="M31801 37207
L31387 38752
" />
<path d="M30843 40781
L30429 42326
" />
<path d="M25096 39241
L24682 40786
" />
<path d="M31073 38668
L30529 40696
" />
<path d="M25954 37296
L25410 39325
" />
<path d="M25640 37212
L25954 37296
" />
<path d="M31073 38668
L31387 38752
" />
<path d="M25096 39241
L25410 39325
" />
<path d="M30529 40696
L30843 40781
" />
</g>
<g >
</g>
<g style="fill:#000000; fill-opacity:0.0; 
stroke:#000000; stroke-width:200; stroke-opacity:1; 
stroke-linecap:round; stroke-linejoin:round;">
<path d="M33433 37079
L39171 38616
" />
<path d="M32061 42198
L37799 43735
" />
<path d="M33428 37077
L33014 38623
" />
<path d="M39175 38617
L38761 40163
" />
<path d="M38218 42191
L37804 43737
" />
<path d="M32470 40651
L32056 42197
" />
<path d="M38447 40079
L37904 42107
" />
<path d="M33328 38707
L32784 40735
" />
<path d="M33014 38623
L33328 38707
" />
<path d="M38447 40079
L38761 40163
" />
<path d="M32470 40651
L32784 40735
" />
<path d="M37904 42107
L38218 42191
" />
</g>
<g >
</g>
<g style="fill:#000000; fill-opacity:0.0; 
stroke:#000000; stroke-width:200; stroke-opacity:1; 
stroke-linecap:round; stroke-linejoin:round;">
<path d="M40556 39544
L46294 41082
" />
<path d="M39184 44664
L44922 46201
" />
<path d="M40551 39543
L40137 41089
" />
<path d="M46299 41083
L45884 42629
" />
<path d="M45341 44657
L44927 46202
" />
<path d="M39594 43117
L39180 44663
" />
<path d="M45571 42544
L45027 44573
" />
<path d="M40451 41173
L39908 43201
" />
<path d="M40137 41089
L40451 41173
" />
<path d="M45571 42544
L45884 42629
" />
<path d="M39594 43117
L39908 43201
" />
<path d="M45027 44573
L45341 44657
" />
</g>
<g >
</g>
<g style="fill:#000000; fill-opacity:0.0; 
stroke:#000000; stroke-width:200; stroke-opacity:1; 
stroke-linecap:round; stroke-linejoin:round;">
<path d="M51292 44344
L57181 45119
" />
<path d="M50600 49598
L56490 50374
" />
<path d="M51287 44343
L51078 45929
" />
<path d="M57186 45120
L56977 46706
" />
<path d="M56703 48788
L56495 50374
" />
<path d="M50804 48011
L50595 49598
" />
<path d="M56655 46664
L56381 48746
" />
<path d="M51401 45972
L51127 48054
" />
<path d="M51078 45929
L51401 45972
" />
<path d="M56655 46664
L56977 46706
" />
<path d="M50804 48011
L51127 48054
" />
<path d="M56381 48746
L56703 48788
" />
</g>
<g style="fill:#000000; fill-opacity:0.0; 
stroke:#000000; stroke-width:120; stroke-opacity:1; 
stroke-linecap:round; stroke-linejoin:round;">
<path d="M47777 45606
L47649 46577
" />
<path d="M47649 46577
L47987 46622
" />
<path d="M48289 44322
L50768 44648
" />
<path d="M56993 50228
L59471 50554
" />
<path d="M47777 45606
L48114 45650
" />
<path d="M57609 45548
L60088 45875
" />
<path d="M59785 48175
L60122 48219
" />
<path d="M47673 49001
L50152 49327
" />
<path d="M48373 49124
L48313 49580
" />
<path d="M57693 50350
L57633 50807
" />
<path d="M49444 49265
L49384 49721
" />
<path d="M57609 45548
L56993 50228
" />
<path d="M48309 49609
L49380 49750
" />
<path d="M58764 50491
L58704 50948
" />
<path d="M50768 44648
L50152 49327
" />
<path d="M48289 44322
L47673 49001
" />
<path d="M57629 50836
L58700 50977
" />
<path d="M59913 47203
L60250 47248
" />
<path d="M60250 47248
L60122 48219
" />
<path d="M60088 45875
L59471 50554
" />
<path d="M59991 49211
L60119 48239
" />
<path d="M60119 48239
L59782 48195
" />
<path d="M59479 50495
L57001 50169
" />
<path d="M50776 44588
L48297 44262
" />
<path d="M59991 49211
L59654 49166
" />
<path d="M50160 49268
L47681 48942
" />
<path d="M47984 46641
L47647 46597
" />
<path d="M60095 45815
L57617 45489
" />
<path d="M59395 45693
L59455 45237
" />
<path d="M50076 44466
L50136 44010
" />
<path d="M58325 45552
L58385 45096
" />
<path d="M50160 49268
L50776 44588
" />
<path d="M59459 45207
L58389 45066
" />
<path d="M49005 44325
L49065 43869
" />
<path d="M57001 50169
L57617 45489
" />
<path d="M59479 50495
L60095 45815
" />
<path d="M50140 43980
L49069 43839
" />
<path d="M47856 47613
L47519 47569
" />
<path d="M47519 47569
L47647 46597
" />
<path d="M47681 48942
L48297 44262
" />
</g>
<g >
</g>
<g style="fill:#000000; fill-opacity:0.0; 
stroke:#000000; stroke-width:120; stroke-opacity:1; 
stroke-linecap:round; stroke-linejoin:round;">
</g>
<g style="fill:#000000; fill-opacity:0.0; 
stroke:#000000; stroke-width:200; stroke-opacity:1; 
stroke-linecap:round; stroke-linejoin:round;">
<path d="M62879 45178
L68819 45178
" />
<path d="M62879 50478
L68819 50478
" />
<path d="M62874 45178
L62874 46778
" />
<path d="M68824 45178
L68824 46778
" />
<path d="M68824 48878
L68824 50478
" />
<path d="M62874 48878
L62874 50478
" />
<path d="M68499 46778
L68499 48878
" />
<path d="M63199 46778
L63199 48878
" />
<path d="M62874 46778
L63199 46778
" />
<path d="M68499 46778
L68824 46778
" />
<path d="M62874 48878
L63199 48878
" />
<path d="M68499 48878
L68824 48878
" />
</g>
<g >
</g>
<g style="fill:#000000; fill-opacity:0.0; 
stroke:#000000; stroke-width:200; stroke-opacity:1; 
stroke-linecap:round; stroke-linejoin:round;">
<path d="M75975 48874
L76300 48874
" />
<path d="M70350 48874
L70675 48874
" />
<path d="M75975 46774
L76300 46774
" />
<path d="M70350 46774
L70675 46774
" />
<path d="M70675 46774
L70675 48874
" />
<path d="M75975 46774
L75975 48874
" />
<path d="M70350 48874
L70350 50474
" />
<path d="M76300 48874
L76300 50474
" />
<path d="M76300 45174
L76300 46774
" />
<path d="M70350 45174
L70350 46774
" />
<path d="M70355 50474
L76295 50474
" />
<path d="M70355 45174
L76295 45174
" />
</g>
<g >
</g>
<g style="fill:#000000; fill-opacity:0.0; 
stroke:#000000; stroke-width:200; stroke-opacity:1; 
stroke-linecap:round; stroke-linejoin:round;">
<path d="M77838 45167
L83778 45167
" />
<path d="M77838 50467
L83778 50467
" />
<path d="M77833 45167
L77833 46767
" />
<path d="M83783 45167
L83783 46767
" />
<path d="M83783 48867
L83783 50467
" />
<path d="M77833 48867
L77833 50467
" />
<path d="M83458 46767
L83458 48867
" />
<path d="M78158 46767
L78158 48867
" />
<path d="M77833 46767
L78158 46767
" />
<path d="M83458 46767
L83783 46767
" />
<path d="M77833 48867
L78158 48867
" />
<path d="M83458 48867
L83783 48867
" />
</g>
<g >
</g>
<g style="fill:#000000; fill-opacity:0.0; 
stroke:#000000; stroke-width:200; stroke-opacity:1; 
stroke-linecap:round; stroke-linejoin:round;">
<path d="M90924 48862
L91249 48862
" />
<path d="M85299 48862
L85624 48862
" />
<path d="M90924 46762
L91249 46762
" />
<path d="M85299 46762
L85624 46762
" />
<path d="M85624 46762
L85624 48862
" />
<path d="M90924 46762
L90924 48862
" />
<path d="M85299 48862
L85299 50462
" />
<path d="M91249 48862
L91249 50462
" />
<path d="M91249 45162
L91249 46762
" />
<path d="M85299 45162
L85299 46762
" />
<path d="M85304 50462
L91244 50462
" />
<path d="M85304 45162
L91244 45162
" />
</g>
<g >
</g>
<g style="fill:#000000; fill-opacity:0.0; 
stroke:#000000; stroke-width:200; stroke-opacity:1; 
stroke-linecap:round; stroke-linejoin:round;">
</g>
<g style="fill:#000000; fill-opacity:0.0; 
stroke:#000000; stroke-width:120; stroke-opacity:1; 
stroke-linecap:round; stroke-linejoin:round;">
<path d="M94552 50495
L93936 45815
" />
<path d="M94040 49211
L93913 48239
" />
<path d="M94378 49166
L94040 49211
" />
<path d="M95643 45066
L94572 45207
" />
<path d="M106351 48942
L105735 44262
" />
<path d="M103872 49268
L103256 44588
" />
<path d="M94636 45693
L94576 45237
" />
<path d="M104963 43839
L103892 43980
" />
<path d="M97031 50169
L96415 45489
" />
<path d="M103956 44466
L103896 44010
" />
<path d="M95707 45552
L95647 45096
" />
<path d="M105027 44325
L104967 43869
" />
<path d="M105735 44262
L103256 44588
" />
<path d="M94250 48195
L93913 48239
" />
<path d="M97031 50169
L94552 50495
" />
<path d="M106513 47569
L106176 47613
" />
<path d="M96415 45489
L93936 45815
" />
<path d="M106351 48942
L103872 49268
" />
<path d="M106385 46597
L106048 46641
" />
<path d="M106513 47569
L106385 46597
" />
<path d="M105742 44322
L106358 49001
" />
<path d="M106254 45606
L106382 46577
" />
<path d="M105917 45650
L106254 45606
" />
<path d="M104652 49750
L105722 49609
" />
<path d="M93944 45875
L94560 50554
" />
<path d="M96423 45548
L97039 50228
" />
<path d="M105658 49124
L105718 49580
" />
<path d="M95332 50977
L96403 50836
" />
<path d="M103264 44648
L103880 49327
" />
<path d="M96339 50350
L96399 50807
" />
<path d="M104588 49265
L104648 49721
" />
<path d="M95268 50491
L95328 50948
" />
<path d="M94560 50554
L97039 50228
" />
<path d="M106045 46622
L106382 46577
" />
<path d="M103264 44648
L105742 44322
" />
<path d="M93782 47248
L94119 47203
" />
<path d="M103880 49327
L106358 49001
" />
<path d="M93944 45875
L96423 45548
" />
<path d="M93910 48219
L94247 48175
" />
<path d="M93782 47248
L93910 48219
" />
</g>
<g style="fill:#000000; fill-opacity:0.0; 
stroke:#000000; stroke-width:200; stroke-opacity:1; 
stroke-linecap:round; stroke-linejoin:round;">
<path d="M102905 48054
L103227 48011
" />
<path d="M97328 48788
L97651 48746
" />
<path d="M102631 45972
L102953 45929
" />
<path d="M97054 46706
L97377 46664
" />
<path d="M97377 46664
L97651 48746
" />
<path d="M102631 45972
L102905 48054
" />
<path d="M97328 48788
L97537 50374
" />
<path d="M103227 48011
L103436 49598
" />
<path d="M102745 44343
L102953 45929
" />
<path d="M96845 45120
L97054 46706
" />
<path d="M97542 50374
L103431 49598
" />
<path d="M96850 45119
L102740 44344
" />
</g>
<g >
</g>
<g style="fill:#000000; fill-opacity:0.0; 
stroke:#000000; stroke-width:200; stroke-opacity:1; 
stroke-linecap:round; stroke-linejoin:round;">
<path d="M107758 41113
L113495 39575
" />
<path d="M109130 46232
L114867 44695
" />
<path d="M107753 41114
L108167 42660
" />
<path d="M113500 39574
L113914 41120
" />
<path d="M114458 43148
L114872 44693
" />
<path d="M108711 44688
L109125 46233
" />
<path d="M113600 41204
L114144 43232
" />
<path d="M108481 42575
L109025 44604
" />
<path d="M108167 42660
L108481 42575
" />
<path d="M113600 41204
L113914 41120
" />
<path d="M108711 44688
L109025 44604
" />
<path d="M114144 43232
L114458 43148
" />
</g>
<g >
</g>
<g style="fill:#000000; fill-opacity:0.0; 
stroke:#000000; stroke-width:200; stroke-opacity:1; 
stroke-linecap:round; stroke-linejoin:round;">
<path d="M121277 40755
L121591 40671
" />
<path d="M115844 42211
L116157 42127
" />
<path d="M120733 38726
L121047 38642
" />
<path d="M115300 40182
L115614 40098
" />
<path d="M115614 40098
L116157 42127
" />
<path d="M120733 38726
L121277 40755
" />
<path d="M115844 42211
L116258 43756
" />
<path d="M121591 40671
L122005 42216
" />
<path d="M120633 37097
L121047 38642
" />
<path d="M114886 38637
L115300 40182
" />
<path d="M116262 43755
L122000 42218
" />
<path d="M114891 38636
L120628 37098
" />
</g>
<g >
</g>
<g style="fill:#000000; fill-opacity:0.0; 
stroke:#000000; stroke-width:200; stroke-opacity:1; 
stroke-linecap:round; stroke-linejoin:round;">
<path d="M122261 37237
L127999 35699
" />
<path d="M123633 42356
L129370 40819
" />
<path d="M122256 37238
L122670 38783
" />
<path d="M128003 35698
L128418 37243
" />
<path d="M128961 39272
L129375 40817
" />
<path d="M123214 40812
L123628 42357
" />
<path d="M128104 37328
L128647 39356
" />
<path d="M122984 38699
L123528 40728
" />
<path d="M122670 38783
L122984 38699
" />
<path d="M128104 37328
L128418 37243
" />
<path d="M123214 40812
L123528 40728
" />
<path d="M128647 39356
L128961 39272
" />
</g>
<g >
</g>
<g style="fill:#000000; fill-opacity:0.0; 
stroke:#000000; stroke-width:200; stroke-opacity:1; 
stroke-linecap:round; stroke-linejoin:round;">
<path d="M136396 39200
L136710 39116
" />
<path d="M130962 40656
L131276 40572
" />
<path d="M135852 37172
L136166 37087
" />
<path d="M130419 38627
L130733 38543
" />
<path d="M130733 38543
L131276 40572
" />
<path d="M135852 37172
L136396 39200
" />
<path d="M130962 40656
L131376 42201
" />
<path d="M136710 39116
L137124 40661
" />
<path d="M135752 35542
L136166 37087
" />
<path d="M130005 37082
L130419 38627
" />
<path d="M131381 42200
L137119 40663
" />
<path d="M130010 37081
L135747 35543
" />
</g>
<g >
</g>
<g style="fill:#000000; fill-opacity:0.0; 
stroke:#000000; stroke-width:200; stroke-opacity:1; 
stroke-linecap:round; stroke-linejoin:round;">
<path d="M137396 35714
L143134 34177
" />
<path d="M138768 40834
L144505 39296
" />
<path d="M137391 35716
L137805 37261
" />
<path d="M143139 34176
L143553 35721
" />
<path d="M144096 37750
L144510 39295
" />
<path d="M138349 39290
L138763 40835
" />
<path d="M143239 35805
L143782 37834
" />
<path d="M138119 37177
L138663 39205
" />
<path d="M137805 37261
L138119 37177
" />
<path d="M143239 35805
L143553 35721
" />
<path d="M138349 39290
L138663 39205
" />
<path d="M143782 37834
L144096 37750
" />
</g>
<g >
</g>
<g style="fill:#000000; fill-opacity:0.0; 
stroke:#000000; stroke-width:200; stroke-opacity:1; 
stroke-linecap:round; stroke-linejoin:round;">
<path d="M150876 35315
L151190 35231
" />
<path d="M145443 36771
L145757 36687
" />
<path d="M150332 33287
L150646 33203
" />
<path d="M144899 34743
L145213 34659
" />
<path d="M145213 34659
L145757 36687
" />
<path d="M150332 33287
L150876 35315
" />
<path d="M145443 36771
L145857 38317
" />
<path d="M151190 35231
L151604 36777
" />
<path d="M150232 31657
L150646 33203
" />
<path d="M144485 33197
L144899 34743
" />
<path d="M145862 38315
L151599 36778
" />
<path d="M144490 33196
L150227 31659
" />
</g>
<g >
</g>
<g >
</g>
<g >
</g>
</g>
<g style="fill:#000000; fill-opacity:0.0; 
stroke:#000000; stroke-width:200; stroke-opacity:1; 
stroke-linecap:round; stroke-linejoin:round;">
</g>
<g style="fill:#000000; fill-opacity:0.0; 
stroke:#000000; stroke-width:78.7402; stroke-opacity:1; 
stroke-linecap:round; stroke-linejoin:round;">
<path d="M142282 134
L127305 4147
" />
</g>
<g style="fill:#000000; fill-opacity:0.0; 
stroke:#000000; stroke-width:19.685; stroke-opacity:1; 
stroke-linecap:round; stroke-linejoin:round;">
<path d="M91891 7859
L127305 4147
" />
<path d="M62391 7859
L91891 7859
" />
<path d="M62391 7859
L26757 4119
" />
<path d="M11779 106
L26757 4119
" />
<path d="M106 36066
L9369 1498
" />
<path d="M8511 41988
L1135 38340
" />
<path d="M49730 53072
L8874 42124
" />
<path d="M104332 53100
L49730 53072
" />
<path d="M145187 42152
L104332 53100
" />
<path d="M152926 38368
L145550 42015
" />
<path d="M153955 36094
L144693 1526
" />
</g>
<g style="fill:#000000; fill-opacity:0.0; 
stroke:#000000; stroke-width:78.7402; stroke-opacity:1; 
stroke-linecap:round; stroke-linejoin:round;">
<path d="M144693 1526.37 A1968.5 1968.5 0.0 0 0 142282 134.426" />
<path d="M152927 38368.8 A1968.5 1968.5 0.0 0 0 153956 36094.7" />
<path d="M145188 42152.8 A1968.5 1968.5 0.0 0 0 145551 42016" />
<path d="M8511.7 41988 A1968.5 1968.5 0.0 0 0 8874.7 42124.8" />
<path d="M11779.9 106.446 A1968.5 1968.5 0.0 0 0 9369.01 1498.39" />
<path d="M106.446 36066.7 A1968.5 1968.5 0.0 0 0 1135.38 38340.8" />
<g >
</g>
<g >
</g>
<g >
</g>
<g >
</g>
<g >
</g>
<g >
</g>
<g >
</g>
<g >
</g>
<g >
</g>
<g >
</g>
<g >
</g>
<g >
</g>
<g >
</g>
<g >
</g>
<g >
</g>
<g >
</g>
<g >
</g>
<g >
</g>
<g >
</g>
<g >
</g>
<g >
</g>
<g >
</g>
<g >
</g>
<g >
</g>
<g >
</g>
<g >
</g>
<g >
</g>
<g >
</g>
<g >
</g>
<g >
</g>
<g >
</g>
<g >
</g>
<g >
</g>
<g >
</g>
<g >
</g>
<g >
</g>
<g >
</g>
<g >
</g>
<g >
</g>
<g >
</g>
<g >
</g>
<g >
</g>
<g >
</g>
<g >
</g>
<g >
</g>
<g >
</g>
<g >
</g>
<g >
</g>
<g >
</g>
<g >
</g>
<g >
</g>
<g >
</g>
<g >
</g>
<g >
</g>
<g >
</g>
<g >
</g>
<g >
</g>
<g >
</g>
<g >
</g>
<g >
</g>
<g >
</g>
<g >
</g>
<g >
</g>
<g >
</g>
<g >
</g>
<g >
</g>
<g >
</g>
<g >
</g>
<g >
</g>
<g >
</g>
<g >
</g>
<g >
</g>
<g >
</g>
<g >
</g>
<g >
</g>
<g >
</g>
<g >
</g>
<g >
</g>
<g >
</g>
<g >
</g>
<g >
</g>
<g >
</g>
<g >
</g>
<g >
</g>
<g >
</g>
<g >
</g>
<g >
</g>
<g >
</g>
<g >
</g>
<g >
</g>
<g >
</g>
<g >
</g>
<g >
</g>
<g >
</g>
<g >
</g>
<g >
</g>
<g >
</g>
<g >
</g>
<g >
</g>
<g >
</g>
<g >
</g>
<g >
</g>
<g >
</g>
<g >
</g>
<g >
</g>
<g >
</g>
</g> 
</svg>
