%FSLAX45Y45*%
G04 Gerber Fmt 4.5, Leading zero omitted, Abs format (unit mm)*
G04 Created by KiCad (PCBNEW (5.1.10)-1) date 2021-09-21 17:17:31*
%MOMM*%
%LPD*%
G01*
G04 APERTURE LIST*
%TA.AperFunction,Profile*%
%ADD10C,0.050000*%
%TD*%
%TA.AperFunction,Profile*%
%ADD11C,0.200000*%
%TD*%
%ADD12C,0.200000*%
%ADD13C,0.300000*%
G04 APERTURE END LIST*
D10*
X33760064Y-6677270D02*
X37564311Y-5657925D01*
X24765000Y-7620000D02*
X33760064Y-6677270D01*
X17272000Y-7620000D02*
X24765000Y-7620000D01*
X17272000Y-7620000D02*
X8220936Y-6670164D01*
X4416689Y-5650818D02*
X8220936Y-6670164D01*
X1451626Y-14784732D02*
X3804316Y-6004372D01*
X3586559Y-16288734D02*
X1712975Y-15362347D01*
X14056075Y-19104084D02*
X3678763Y-16323492D01*
X27924925Y-19111191D02*
X14056075Y-19104084D01*
X38302237Y-16330599D02*
X27924925Y-19111191D01*
X40268025Y-15369454D02*
X38394441Y-16295840D01*
X40529374Y-14791839D02*
X38176684Y-6011479D01*
D11*
X38176684Y-6011479D02*
G75*
G03*
X37564311Y-5657925I-482963J-129410D01*
G01*
X40268025Y-15369454D02*
G75*
G03*
X40529374Y-14791839I-221613J448205D01*
G01*
X38302237Y-16330599D02*
G75*
G03*
X38394441Y-16295840I-129410J482963D01*
G01*
X3678763Y-16323492D02*
G75*
G02*
X3586559Y-16288734I129410J482963D01*
G01*
X3804316Y-6004372D02*
G75*
G02*
X4416689Y-5650818I482963J-129410D01*
G01*
X1712975Y-15362347D02*
G75*
G02*
X1451626Y-14784732I221613J448205D01*
G01*
D12*
X20672700Y-8101500D02*
X20737700Y-8166500D01*
X20737700Y-8101500D02*
X20672700Y-8166500D01*
X21250700Y-8101500D02*
X21315700Y-8166500D01*
X21315700Y-8101500D02*
X21250700Y-8166500D01*
X2551601Y-14376098D02*
G75*
G03*
X2551601Y-14376098I-90000J0D01*
G01*
X3042406Y-12534406D02*
G75*
G03*
X3042406Y-12534406I-90000J0D01*
G01*
X3532982Y-14639059D02*
G75*
G03*
X3532982Y-14639059I-90000J0D01*
G01*
X3536208Y-10695501D02*
G75*
G03*
X3536208Y-10695501I-90000J0D01*
G01*
X4023786Y-12797366D02*
G75*
G03*
X4023786Y-12797366I-90000J0D01*
G01*
X4029359Y-8840764D02*
G75*
G03*
X4029359Y-8840764I-90000J0D01*
G01*
X4352065Y-15006958D02*
G75*
G03*
X4352065Y-15006958I-90000J0D01*
G01*
X4516213Y-7017866D02*
G75*
G03*
X4516213Y-7017866I-90000J0D01*
G01*
X4517589Y-10958461D02*
G75*
G03*
X4517589Y-10958461I-90000J0D01*
G01*
X4847826Y-13170744D02*
G75*
G03*
X4847826Y-13170744I-90000J0D01*
G01*
X5010740Y-9103725D02*
G75*
G03*
X5010740Y-9103725I-90000J0D01*
G01*
X5333446Y-15269918D02*
G75*
G03*
X5333446Y-15269918I-90000J0D01*
G01*
X5341266Y-11337275D02*
G75*
G03*
X5341266Y-11337275I-90000J0D01*
G01*
X5497593Y-7280826D02*
G75*
G03*
X5497593Y-7280826I-90000J0D01*
G01*
X5829206Y-13433704D02*
G75*
G03*
X5829206Y-13433704I-90000J0D01*
G01*
X5842336Y-9480037D02*
G75*
G03*
X5842336Y-9480037I-90000J0D01*
G01*
X6231343Y-15360117D02*
G75*
G03*
X6231343Y-15360117I-90000J0D01*
G01*
X6322647Y-11600236D02*
G75*
G03*
X6322647Y-11600236I-90000J0D01*
G01*
X6332013Y-7653423D02*
G75*
G03*
X6332013Y-7653423I-90000J0D01*
G01*
X6724753Y-13517374D02*
G75*
G03*
X6724753Y-13517374I-90000J0D01*
G01*
X6823716Y-9742997D02*
G75*
G03*
X6823716Y-9742997I-90000J0D01*
G01*
X7212724Y-15623077D02*
G75*
G03*
X7212724Y-15623077I-90000J0D01*
G01*
X7216238Y-11683101D02*
G75*
G03*
X7216238Y-11683101I-90000J0D01*
G01*
X7313393Y-7916383D02*
G75*
G03*
X7313393Y-7916383I-90000J0D01*
G01*
X7706134Y-13780334D02*
G75*
G03*
X7706134Y-13780334I-90000J0D01*
G01*
X7712427Y-9827037D02*
G75*
G03*
X7712427Y-9827037I-90000J0D01*
G01*
X8197365Y-15397496D02*
G75*
G03*
X8197365Y-15397496I-90000J0D01*
G01*
X8197618Y-11946061D02*
G75*
G03*
X8197618Y-11946061I-90000J0D01*
G01*
X8201665Y-8004349D02*
G75*
G03*
X8201665Y-8004349I-90000J0D01*
G01*
X8688527Y-13558677D02*
G75*
G03*
X8688527Y-13558677I-90000J0D01*
G01*
X8693807Y-10089998D02*
G75*
G03*
X8693807Y-10089998I-90000J0D01*
G01*
X9178745Y-15660456D02*
G75*
G03*
X9178745Y-15660456I-90000J0D01*
G01*
X9183046Y-8267309D02*
G75*
G03*
X9183046Y-8267309I-90000J0D01*
G01*
X9186068Y-11712066D02*
G75*
G03*
X9186068Y-11712066I-90000J0D01*
G01*
X9669907Y-13821638D02*
G75*
G03*
X9669907Y-13821638I-90000J0D01*
G01*
X9681448Y-9868175D02*
G75*
G03*
X9681448Y-9868175I-90000J0D01*
G01*
X10070451Y-15755795D02*
G75*
G03*
X10070451Y-15755795I-90000J0D01*
G01*
X10167449Y-11975026D02*
G75*
G03*
X10167449Y-11975026I-90000J0D01*
G01*
X10172781Y-8031270D02*
G75*
G03*
X10172781Y-8031270I-90000J0D01*
G01*
X10563580Y-13916445D02*
G75*
G03*
X10563580Y-13916445I-90000J0D01*
G01*
X10662829Y-10131135D02*
G75*
G03*
X10662829Y-10131135I-90000J0D01*
G01*
X11051831Y-16018756D02*
G75*
G03*
X11051831Y-16018756I-90000J0D01*
G01*
X11054110Y-12075509D02*
G75*
G03*
X11054110Y-12075509I-90000J0D01*
G01*
X11154162Y-8294230D02*
G75*
G03*
X11154162Y-8294230I-90000J0D01*
G01*
X11544961Y-14179406D02*
G75*
G03*
X11544961Y-14179406I-90000J0D01*
G01*
X11551865Y-10233561D02*
G75*
G03*
X11551865Y-10233561I-90000J0D01*
G01*
X11879743Y-16382118D02*
G75*
G03*
X11879743Y-16382118I-90000J0D01*
G01*
X12035490Y-12338470D02*
G75*
G03*
X12035490Y-12338470I-90000J0D01*
G01*
X12050036Y-8391840D02*
G75*
G03*
X12050036Y-8391840I-90000J0D01*
G01*
X12373687Y-14545169D02*
G75*
G03*
X12373687Y-14545169I-90000J0D01*
G01*
X12533246Y-10496521D02*
G75*
G03*
X12533246Y-10496521I-90000J0D01*
G01*
X12861124Y-16645078D02*
G75*
G03*
X12861124Y-16645078I-90000J0D01*
G01*
X12869174Y-12698579D02*
G75*
G03*
X12869174Y-12698579I-90000J0D01*
G01*
X13031416Y-8654800D02*
G75*
G03*
X13031416Y-8654800I-90000J0D01*
G01*
X13355068Y-14808129D02*
G75*
G03*
X13355068Y-14808129I-90000J0D01*
G01*
X13359480Y-10856811D02*
G75*
G03*
X13359480Y-10856811I-90000J0D01*
G01*
X13850554Y-12961539D02*
G75*
G03*
X13850554Y-12961539I-90000J0D01*
G01*
X13852490Y-9017182D02*
G75*
G03*
X13852490Y-9017182I-90000J0D01*
G01*
X14147895Y-15258355D02*
G75*
G03*
X14147895Y-15258355I-90000J0D01*
G01*
X14340861Y-11119771D02*
G75*
G03*
X14340861Y-11119771I-90000J0D01*
G01*
X14640608Y-13421623D02*
G75*
G03*
X14640608Y-13421623I-90000J0D01*
G01*
X14699346Y-17586693D02*
G75*
G03*
X14699346Y-17586693I-90000J0D01*
G01*
X14833870Y-9280142D02*
G75*
G03*
X14833870Y-9280142I-90000J0D01*
G01*
X15128805Y-11586598D02*
G75*
G03*
X15128805Y-11586598I-90000J0D01*
G01*
X15129276Y-15521315D02*
G75*
G03*
X15129276Y-15521315I-90000J0D01*
G01*
X15621988Y-13684583D02*
G75*
G03*
X15621988Y-13684583I-90000J0D01*
G01*
X15626520Y-9742064D02*
G75*
G03*
X15626520Y-9742064I-90000J0D01*
G01*
X15706654Y-17719307D02*
G75*
G03*
X15706654Y-17719307I-90000J0D01*
G01*
X16110186Y-11849558D02*
G75*
G03*
X16110186Y-11849558I-90000J0D01*
G01*
X16607901Y-10005024D02*
G75*
G03*
X16607901Y-10005024I-90000J0D01*
G01*
X17729998Y-13969789D02*
G75*
G03*
X17729998Y-13969789I-90000J0D01*
G01*
X17730003Y-10166886D02*
G75*
G03*
X17730003Y-10166886I-90000J0D01*
G01*
X17730246Y-12068706D02*
G75*
G03*
X17730246Y-12068706I-90000J0D01*
G01*
X17731021Y-15871996D02*
G75*
G03*
X17731021Y-15871996I-90000J0D01*
G01*
X17732421Y-17772234D02*
G75*
G03*
X17732421Y-17772234I-90000J0D01*
G01*
X18745998Y-13969789D02*
G75*
G03*
X18745998Y-13969789I-90000J0D01*
G01*
X18746003Y-10166886D02*
G75*
G03*
X18746003Y-10166886I-90000J0D01*
G01*
X18746246Y-12068706D02*
G75*
G03*
X18746246Y-12068706I-90000J0D01*
G01*
X18747021Y-15871996D02*
G75*
G03*
X18747021Y-15871996I-90000J0D01*
G01*
X18748421Y-17772234D02*
G75*
G03*
X18748421Y-17772234I-90000J0D01*
G01*
X19628394Y-10166962D02*
G75*
G03*
X19628394Y-10166962I-90000J0D01*
G01*
X19628923Y-12068816D02*
G75*
G03*
X19628923Y-12068816I-90000J0D01*
G01*
X19630121Y-13968914D02*
G75*
G03*
X19630121Y-13968914I-90000J0D01*
G01*
X19630135Y-15872028D02*
G75*
G03*
X19630135Y-15872028I-90000J0D01*
G01*
X19631371Y-17771290D02*
G75*
G03*
X19631371Y-17771290I-90000J0D01*
G01*
X20644394Y-10166962D02*
G75*
G03*
X20644394Y-10166962I-90000J0D01*
G01*
X20644923Y-12068816D02*
G75*
G03*
X20644923Y-12068816I-90000J0D01*
G01*
X20646121Y-13968914D02*
G75*
G03*
X20646121Y-13968914I-90000J0D01*
G01*
X20646135Y-15872028D02*
G75*
G03*
X20646135Y-15872028I-90000J0D01*
G01*
X20647371Y-17771290D02*
G75*
G03*
X20647371Y-17771290I-90000J0D01*
G01*
X21527760Y-13967780D02*
G75*
G03*
X21527760Y-13967780I-90000J0D01*
G01*
X21527924Y-12068814D02*
G75*
G03*
X21527924Y-12068814I-90000J0D01*
G01*
X21528810Y-10166985D02*
G75*
G03*
X21528810Y-10166985I-90000J0D01*
G01*
X21529469Y-15870384D02*
G75*
G03*
X21529469Y-15870384I-90000J0D01*
G01*
X21531960Y-17769349D02*
G75*
G03*
X21531960Y-17769349I-90000J0D01*
G01*
X22543760Y-13967780D02*
G75*
G03*
X22543760Y-13967780I-90000J0D01*
G01*
X22543924Y-12068814D02*
G75*
G03*
X22543924Y-12068814I-90000J0D01*
G01*
X22544810Y-10166985D02*
G75*
G03*
X22544810Y-10166985I-90000J0D01*
G01*
X22545468Y-15870384D02*
G75*
G03*
X22545468Y-15870384I-90000J0D01*
G01*
X22547960Y-17769349D02*
G75*
G03*
X22547960Y-17769349I-90000J0D01*
G01*
X23426030Y-12068834D02*
G75*
G03*
X23426030Y-12068834I-90000J0D01*
G01*
X23427470Y-13968483D02*
G75*
G03*
X23427470Y-13968483I-90000J0D01*
G01*
X23427695Y-10166970D02*
G75*
G03*
X23427695Y-10166970I-90000J0D01*
G01*
X23428275Y-17768274D02*
G75*
G03*
X23428275Y-17768274I-90000J0D01*
G01*
X23428664Y-15870112D02*
G75*
G03*
X23428664Y-15870112I-90000J0D01*
G01*
X24442030Y-12068834D02*
G75*
G03*
X24442030Y-12068834I-90000J0D01*
G01*
X24443470Y-13968483D02*
G75*
G03*
X24443470Y-13968483I-90000J0D01*
G01*
X24443695Y-10166970D02*
G75*
G03*
X24443695Y-10166970I-90000J0D01*
G01*
X24444275Y-17768274D02*
G75*
G03*
X24444275Y-17768274I-90000J0D01*
G01*
X24444664Y-15870112D02*
G75*
G03*
X24444664Y-15870112I-90000J0D01*
G01*
X25553602Y-10009342D02*
G75*
G03*
X25553602Y-10009342I-90000J0D01*
G01*
X26044539Y-11856433D02*
G75*
G03*
X26044539Y-11856433I-90000J0D01*
G01*
X26446846Y-17719307D02*
G75*
G03*
X26446846Y-17719307I-90000J0D01*
G01*
X26534983Y-9746381D02*
G75*
G03*
X26534983Y-9746381I-90000J0D01*
G01*
X26537331Y-13693223D02*
G75*
G03*
X26537331Y-13693223I-90000J0D01*
G01*
X27025920Y-11593473D02*
G75*
G03*
X27025920Y-11593473I-90000J0D01*
G01*
X27030954Y-15528809D02*
G75*
G03*
X27030954Y-15528809I-90000J0D01*
G01*
X27325611Y-9286581D02*
G75*
G03*
X27325611Y-9286581I-90000J0D01*
G01*
X27454154Y-17586693D02*
G75*
G03*
X27454154Y-17586693I-90000J0D01*
G01*
X27518711Y-13430262D02*
G75*
G03*
X27518711Y-13430262I-90000J0D01*
G01*
X27819751Y-11134904D02*
G75*
G03*
X27819751Y-11134904I-90000J0D01*
G01*
X28012335Y-15265849D02*
G75*
G03*
X28012335Y-15265849I-90000J0D01*
G01*
X28306992Y-9023621D02*
G75*
G03*
X28306992Y-9023621I-90000J0D01*
G01*
X28312755Y-12971865D02*
G75*
G03*
X28312755Y-12971865I-90000J0D01*
G01*
X28801131Y-10871944D02*
G75*
G03*
X28801131Y-10871944I-90000J0D01*
G01*
X28805507Y-14813256D02*
G75*
G03*
X28805507Y-14813256I-90000J0D01*
G01*
X29129212Y-8661320D02*
G75*
G03*
X29129212Y-8661320I-90000J0D01*
G01*
X29294136Y-12708905D02*
G75*
G03*
X29294136Y-12708905I-90000J0D01*
G01*
X29297412Y-16652937D02*
G75*
G03*
X29297412Y-16652937I-90000J0D01*
G01*
X29630501Y-10505101D02*
G75*
G03*
X29630501Y-10505101I-90000J0D01*
G01*
X29786888Y-14550296D02*
G75*
G03*
X29786888Y-14550296I-90000J0D01*
G01*
X30110593Y-8398360D02*
G75*
G03*
X30110593Y-8398360I-90000J0D01*
G01*
X30124797Y-12352891D02*
G75*
G03*
X30124797Y-12352891I-90000J0D01*
G01*
X30278792Y-16389977D02*
G75*
G03*
X30278792Y-16389977I-90000J0D01*
G01*
X30611882Y-10242141D02*
G75*
G03*
X30611882Y-10242141I-90000J0D01*
G01*
X30617729Y-14186214D02*
G75*
G03*
X30617729Y-14186214I-90000J0D01*
G01*
X31007706Y-8303079D02*
G75*
G03*
X31007706Y-8303079I-90000J0D01*
G01*
X31106178Y-12089931D02*
G75*
G03*
X31106178Y-12089931I-90000J0D01*
G01*
X31109156Y-16023726D02*
G75*
G03*
X31109156Y-16023726I-90000J0D01*
G01*
X31499782Y-10137558D02*
G75*
G03*
X31499782Y-10137558I-90000J0D01*
G01*
X31599110Y-13923254D02*
G75*
G03*
X31599110Y-13923254I-90000J0D01*
G01*
X31989087Y-8040118D02*
G75*
G03*
X31989087Y-8040118I-90000J0D01*
G01*
X31991469Y-11983981D02*
G75*
G03*
X31991469Y-11983981I-90000J0D01*
G01*
X32090537Y-15760766D02*
G75*
G03*
X32090537Y-15760766I-90000J0D01*
G01*
X32481163Y-9874598D02*
G75*
G03*
X32481163Y-9874598I-90000J0D01*
G01*
X32487529Y-13827675D02*
G75*
G03*
X32487529Y-13827675I-90000J0D01*
G01*
X32972849Y-11721021D02*
G75*
G03*
X32972849Y-11721021I-90000J0D01*
G01*
X32977589Y-8269894D02*
G75*
G03*
X32977589Y-8269894I-90000J0D01*
G01*
X32981207Y-15668403D02*
G75*
G03*
X32981207Y-15668403I-90000J0D01*
G01*
X33467052Y-10098037D02*
G75*
G03*
X33467052Y-10098037I-90000J0D01*
G01*
X33468910Y-13564715D02*
G75*
G03*
X33468910Y-13564715I-90000J0D01*
G01*
X33958969Y-8006934D02*
G75*
G03*
X33958969Y-8006934I-90000J0D01*
G01*
X33962211Y-11953327D02*
G75*
G03*
X33962211Y-11953327I-90000J0D01*
G01*
X33962587Y-15405443D02*
G75*
G03*
X33962587Y-15405443I-90000J0D01*
G01*
X34448433Y-9835077D02*
G75*
G03*
X34448433Y-9835077I-90000J0D01*
G01*
X34454727Y-13789285D02*
G75*
G03*
X34454727Y-13789285I-90000J0D01*
G01*
X34851086Y-7924679D02*
G75*
G03*
X34851086Y-7924679I-90000J0D01*
G01*
X34943591Y-11690367D02*
G75*
G03*
X34943591Y-11690367I-90000J0D01*
G01*
X34949327Y-15628777D02*
G75*
G03*
X34949327Y-15628777I-90000J0D01*
G01*
X35341890Y-9751605D02*
G75*
G03*
X35341890Y-9751605I-90000J0D01*
G01*
X35436107Y-13526325D02*
G75*
G03*
X35436107Y-13526325I-90000J0D01*
G01*
X35832467Y-7661719D02*
G75*
G03*
X35832467Y-7661719I-90000J0D01*
G01*
X35837548Y-11603978D02*
G75*
G03*
X35837548Y-11603978I-90000J0D01*
G01*
X35930707Y-15365817D02*
G75*
G03*
X35930707Y-15365817I-90000J0D01*
G01*
X36323271Y-9488645D02*
G75*
G03*
X36323271Y-9488645I-90000J0D01*
G01*
X36332227Y-13438730D02*
G75*
G03*
X36332227Y-13438730I-90000J0D01*
G01*
X36657256Y-7285450D02*
G75*
G03*
X36657256Y-7285450I-90000J0D01*
G01*
X36818929Y-11341018D02*
G75*
G03*
X36818929Y-11341018I-90000J0D01*
G01*
X36825529Y-15281740D02*
G75*
G03*
X36825529Y-15281740I-90000J0D01*
G01*
X37145072Y-9112537D02*
G75*
G03*
X37145072Y-9112537I-90000J0D01*
G01*
X37313608Y-13175769D02*
G75*
G03*
X37313608Y-13175769I-90000J0D01*
G01*
X37638636Y-7022490D02*
G75*
G03*
X37638636Y-7022490I-90000J0D01*
G01*
X37641046Y-10969524D02*
G75*
G03*
X37641046Y-10969524I-90000J0D01*
G01*
X37806909Y-15018780D02*
G75*
G03*
X37806909Y-15018780I-90000J0D01*
G01*
X38126453Y-8849577D02*
G75*
G03*
X38126453Y-8849577I-90000J0D01*
G01*
X38133782Y-12800674D02*
G75*
G03*
X38133782Y-12800674I-90000J0D01*
G01*
X38622427Y-10706564D02*
G75*
G03*
X38622427Y-10706564I-90000J0D01*
G01*
X38627340Y-14642111D02*
G75*
G03*
X38627340Y-14642111I-90000J0D01*
G01*
X39115163Y-12537714D02*
G75*
G03*
X39115163Y-12537714I-90000J0D01*
G01*
X39608721Y-14379150D02*
G75*
G03*
X39608721Y-14379150I-90000J0D01*
G01*
X2650014Y-14013623D02*
X2650014Y-14313623D01*
X2500014Y-14163623D02*
X2800014Y-14163623D01*
X3140818Y-12171931D02*
X3140818Y-12471931D01*
X2990818Y-12321931D02*
X3290818Y-12321931D01*
X3329117Y-13932628D02*
X3329117Y-14232628D01*
X3179117Y-14082628D02*
X3479117Y-14082628D01*
X3634621Y-10333026D02*
X3634621Y-10633026D01*
X3484621Y-10483026D02*
X3784621Y-10483026D01*
X3819921Y-12090936D02*
X3819921Y-12390936D01*
X3669921Y-12240936D02*
X3969921Y-12240936D01*
X4127772Y-8478289D02*
X4127772Y-8778289D01*
X3977772Y-8628289D02*
X4277772Y-8628289D01*
X4313724Y-10252031D02*
X4313724Y-10552031D01*
X4163724Y-10402031D02*
X4463724Y-10402031D01*
X4450478Y-14644483D02*
X4450478Y-14944483D01*
X4300478Y-14794483D02*
X4600478Y-14794483D01*
X4614625Y-6655391D02*
X4614625Y-6955391D01*
X4464625Y-6805391D02*
X4764625Y-6805391D01*
X4806875Y-8397294D02*
X4806875Y-8697294D01*
X4656875Y-8547294D02*
X4956875Y-8547294D01*
X4946238Y-12808268D02*
X4946238Y-13108268D01*
X4796238Y-12958268D02*
X5096238Y-12958268D01*
X5129581Y-14563488D02*
X5129581Y-14863488D01*
X4979581Y-14713488D02*
X5279581Y-14713488D01*
X5293728Y-6574396D02*
X5293728Y-6874396D01*
X5143728Y-6724396D02*
X5443728Y-6724396D01*
X5439679Y-10974800D02*
X5439679Y-11274800D01*
X5289679Y-11124800D02*
X5589679Y-11124800D01*
X5625341Y-12727273D02*
X5625341Y-13027273D01*
X5475341Y-12877273D02*
X5775341Y-12877273D01*
X5940748Y-9117562D02*
X5940748Y-9417562D01*
X5790748Y-9267562D02*
X6090748Y-9267562D01*
X6118782Y-10893805D02*
X6118782Y-11193805D01*
X5968782Y-11043805D02*
X6268782Y-11043805D01*
X6329756Y-14997642D02*
X6329756Y-15297642D01*
X6179756Y-15147642D02*
X6479756Y-15147642D01*
X6430425Y-7290948D02*
X6430425Y-7590948D01*
X6280425Y-7440948D02*
X6580425Y-7440948D01*
X6619851Y-9036567D02*
X6619851Y-9336567D01*
X6469851Y-9186567D02*
X6769851Y-9186567D01*
X6823166Y-13154899D02*
X6823166Y-13454899D01*
X6673166Y-13304899D02*
X6973166Y-13304899D01*
X7008859Y-14916647D02*
X7008859Y-15216647D01*
X6858859Y-15066647D02*
X7158859Y-15066647D01*
X7109528Y-7209953D02*
X7109528Y-7509953D01*
X6959528Y-7359953D02*
X7259528Y-7359953D01*
X7314650Y-11320626D02*
X7314650Y-11620626D01*
X7164650Y-11470626D02*
X7464650Y-11470626D01*
X7502269Y-13073904D02*
X7502269Y-13373904D01*
X7352269Y-13223904D02*
X7652269Y-13223904D01*
X7810839Y-9464562D02*
X7810839Y-9764562D01*
X7660839Y-9614562D02*
X7960839Y-9614562D01*
X7993753Y-11239631D02*
X7993753Y-11539631D01*
X7843753Y-11389631D02*
X8143753Y-11389631D01*
X8295777Y-15035021D02*
X8295777Y-15335021D01*
X8145777Y-15185021D02*
X8445777Y-15185021D01*
X8300078Y-7641874D02*
X8300078Y-7941874D01*
X8150078Y-7791874D02*
X8450078Y-7791874D01*
X8489942Y-9383567D02*
X8489942Y-9683567D01*
X8339942Y-9533567D02*
X8639942Y-9533567D01*
X8786939Y-13196202D02*
X8786939Y-13496202D01*
X8636939Y-13346202D02*
X8936939Y-13346202D01*
X8974880Y-14954025D02*
X8974880Y-15254025D01*
X8824880Y-15104025D02*
X9124880Y-15104025D01*
X8979181Y-7560879D02*
X8979181Y-7860879D01*
X8829181Y-7710879D02*
X9129181Y-7710879D01*
X9284481Y-11349590D02*
X9284481Y-11649590D01*
X9134481Y-11499590D02*
X9434481Y-11499590D01*
X9466042Y-13115207D02*
X9466042Y-13415207D01*
X9316042Y-13265207D02*
X9616042Y-13265207D01*
X9779861Y-9505700D02*
X9779861Y-9805700D01*
X9629861Y-9655700D02*
X9929861Y-9655700D01*
X9963583Y-11268595D02*
X9963583Y-11568595D01*
X9813583Y-11418595D02*
X10113583Y-11418595D01*
X10168863Y-15393320D02*
X10168863Y-15693320D01*
X10018863Y-15543320D02*
X10318863Y-15543320D01*
X10271194Y-7668795D02*
X10271194Y-7968795D01*
X10121194Y-7818795D02*
X10421194Y-7818795D01*
X10458964Y-9424705D02*
X10458964Y-9724705D01*
X10308964Y-9574705D02*
X10608964Y-9574705D01*
X10661993Y-13553970D02*
X10661993Y-13853970D01*
X10511993Y-13703970D02*
X10811993Y-13703970D01*
X10847966Y-15312325D02*
X10847966Y-15612325D01*
X10697966Y-15462325D02*
X10997966Y-15462325D01*
X10950297Y-7587800D02*
X10950297Y-7887800D01*
X10800297Y-7737800D02*
X11100297Y-7737800D01*
X11152523Y-11713034D02*
X11152523Y-12013034D01*
X11002523Y-11863034D02*
X11302522Y-11863034D01*
X11341096Y-13472975D02*
X11341096Y-13772975D01*
X11191096Y-13622975D02*
X11491096Y-13622975D01*
X11650278Y-9871086D02*
X11650278Y-10171086D01*
X11500278Y-10021086D02*
X11800278Y-10021086D01*
X11831625Y-11632039D02*
X11831625Y-11932039D01*
X11681625Y-11782039D02*
X11981625Y-11782039D01*
X11978156Y-16019643D02*
X11978156Y-16319643D01*
X11828156Y-16169643D02*
X12128156Y-16169643D01*
X12148448Y-8029365D02*
X12148448Y-8329365D01*
X11998448Y-8179365D02*
X12298448Y-8179365D01*
X12329380Y-9790091D02*
X12329380Y-10090091D01*
X12179380Y-9940091D02*
X12479380Y-9940091D01*
X12472100Y-14182694D02*
X12472100Y-14482694D01*
X12322100Y-14332694D02*
X12622100Y-14332694D01*
X12657259Y-15938648D02*
X12657259Y-16238648D01*
X12507259Y-16088648D02*
X12807259Y-16088648D01*
X12827551Y-7948370D02*
X12827551Y-8248370D01*
X12677551Y-8098370D02*
X12977551Y-8098370D01*
X12967586Y-12336104D02*
X12967586Y-12636104D01*
X12817586Y-12486104D02*
X13117586Y-12486104D01*
X13151203Y-14101699D02*
X13151203Y-14401699D01*
X13001203Y-14251699D02*
X13301203Y-14251699D01*
X13457893Y-10494335D02*
X13457893Y-10794335D01*
X13307893Y-10644335D02*
X13607893Y-10644335D01*
X13646689Y-12255109D02*
X13646689Y-12555109D01*
X13496689Y-12405109D02*
X13796689Y-12405109D01*
X13950902Y-8654707D02*
X13950902Y-8954707D01*
X13800902Y-8804707D02*
X14100902Y-8804707D01*
X14136996Y-10413340D02*
X14136996Y-10713340D01*
X13986996Y-10563340D02*
X14286996Y-10563340D01*
X14246308Y-14895880D02*
X14246308Y-15195880D01*
X14096308Y-15045880D02*
X14396308Y-15045880D01*
X14630005Y-8573712D02*
X14630005Y-8873712D01*
X14480005Y-8723712D02*
X14780005Y-8723712D01*
X14739020Y-13059148D02*
X14739020Y-13359148D01*
X14589020Y-13209148D02*
X14889020Y-13209148D01*
X14768413Y-17201443D02*
X14768413Y-17501443D01*
X14618413Y-17351443D02*
X14918413Y-17351443D01*
X14925411Y-14814885D02*
X14925411Y-15114885D01*
X14775411Y-14964885D02*
X15075411Y-14964885D01*
X15227218Y-11224123D02*
X15227218Y-11524123D01*
X15077218Y-11374123D02*
X15377218Y-11374123D01*
X15418123Y-12978153D02*
X15418123Y-13278153D01*
X15268123Y-13128153D02*
X15568123Y-13128153D01*
X15431134Y-17032500D02*
X15431134Y-17332500D01*
X15281134Y-17182500D02*
X15581134Y-17182500D01*
X15724933Y-9379589D02*
X15724933Y-9679589D01*
X15574933Y-9529589D02*
X15874933Y-9529589D01*
X15906321Y-11143128D02*
X15906321Y-11443128D01*
X15756321Y-11293128D02*
X16056321Y-11293128D01*
X16404036Y-9298594D02*
X16404036Y-9598594D01*
X16254036Y-9448594D02*
X16554036Y-9448594D01*
X17766998Y-13565789D02*
X17766998Y-13865789D01*
X17616998Y-13715789D02*
X17916998Y-13715789D01*
X17767003Y-9762886D02*
X17767003Y-10062886D01*
X17617003Y-9912886D02*
X17917003Y-9912886D01*
X17767246Y-11664706D02*
X17767246Y-11964706D01*
X17617246Y-11814706D02*
X17917246Y-11814706D01*
X17768021Y-15467996D02*
X17768021Y-15767996D01*
X17618021Y-15617996D02*
X17918021Y-15617996D01*
X17769421Y-17368234D02*
X17769421Y-17668234D01*
X17619421Y-17518234D02*
X17919421Y-17518234D01*
X18401998Y-13311789D02*
X18401998Y-13611789D01*
X18251998Y-13461789D02*
X18551998Y-13461789D01*
X18402003Y-9508886D02*
X18402003Y-9808886D01*
X18252003Y-9658886D02*
X18552003Y-9658886D01*
X18402246Y-11410706D02*
X18402246Y-11710706D01*
X18252246Y-11560706D02*
X18552246Y-11560706D01*
X18403021Y-15213996D02*
X18403021Y-15513996D01*
X18253021Y-15363996D02*
X18553021Y-15363996D01*
X18404421Y-17114234D02*
X18404421Y-17414234D01*
X18254421Y-17264234D02*
X18554421Y-17264234D01*
X19665394Y-9762962D02*
X19665394Y-10062962D01*
X19515394Y-9912962D02*
X19815394Y-9912962D01*
X19665923Y-11664816D02*
X19665923Y-11964816D01*
X19515923Y-11814816D02*
X19815923Y-11814816D01*
X19667121Y-13564914D02*
X19667121Y-13864914D01*
X19517121Y-13714914D02*
X19817121Y-13714914D01*
X19667135Y-15468028D02*
X19667135Y-15768028D01*
X19517135Y-15618028D02*
X19817135Y-15618028D01*
X19668371Y-17367290D02*
X19668371Y-17667290D01*
X19518371Y-17517290D02*
X19818371Y-17517290D01*
X20300394Y-9508962D02*
X20300394Y-9808962D01*
X20150394Y-9658962D02*
X20450394Y-9658962D01*
X20300923Y-11410816D02*
X20300923Y-11710816D01*
X20150923Y-11560816D02*
X20450923Y-11560816D01*
X20302121Y-13310914D02*
X20302121Y-13610914D01*
X20152121Y-13460914D02*
X20452121Y-13460914D01*
X20302135Y-15214028D02*
X20302135Y-15514028D01*
X20152135Y-15364028D02*
X20452135Y-15364028D01*
X20303371Y-17113290D02*
X20303371Y-17413290D01*
X20153371Y-17263290D02*
X20453371Y-17263290D01*
X21564760Y-13563780D02*
X21564760Y-13863780D01*
X21414760Y-13713780D02*
X21714760Y-13713780D01*
X21564924Y-11664814D02*
X21564924Y-11964814D01*
X21414924Y-11814814D02*
X21714924Y-11814814D01*
X21565810Y-9762985D02*
X21565810Y-10062985D01*
X21415810Y-9912985D02*
X21715810Y-9912985D01*
X21566469Y-15466384D02*
X21566469Y-15766384D01*
X21416469Y-15616384D02*
X21716469Y-15616384D01*
X21568960Y-17365349D02*
X21568960Y-17665349D01*
X21418960Y-17515349D02*
X21718960Y-17515349D01*
X22199760Y-13309780D02*
X22199760Y-13609780D01*
X22049760Y-13459780D02*
X22349760Y-13459780D01*
X22199924Y-11410814D02*
X22199924Y-11710814D01*
X22049924Y-11560814D02*
X22349924Y-11560814D01*
X22200810Y-9508985D02*
X22200810Y-9808985D01*
X22050810Y-9658985D02*
X22350810Y-9658985D01*
X22201469Y-15212384D02*
X22201469Y-15512384D01*
X22051469Y-15362384D02*
X22351469Y-15362384D01*
X22203960Y-17111349D02*
X22203960Y-17411349D01*
X22053960Y-17261349D02*
X22353960Y-17261349D01*
X23463030Y-11664834D02*
X23463030Y-11964834D01*
X23313030Y-11814834D02*
X23613030Y-11814834D01*
X23464470Y-13564483D02*
X23464470Y-13864483D01*
X23314470Y-13714483D02*
X23614470Y-13714483D01*
X23464695Y-9762970D02*
X23464695Y-10062970D01*
X23314695Y-9912970D02*
X23614695Y-9912970D01*
X23465275Y-17364274D02*
X23465275Y-17664274D01*
X23315275Y-17514274D02*
X23615275Y-17514274D01*
X23465664Y-15466112D02*
X23465664Y-15766112D01*
X23315664Y-15616112D02*
X23615664Y-15616112D01*
X24098030Y-11410834D02*
X24098030Y-11710834D01*
X23948030Y-11560834D02*
X24248030Y-11560834D01*
X24099470Y-13310483D02*
X24099470Y-13610483D01*
X23949470Y-13460483D02*
X24249470Y-13460483D01*
X24099695Y-9508970D02*
X24099695Y-9808970D01*
X23949695Y-9658970D02*
X24249695Y-9658970D01*
X24100275Y-17110274D02*
X24100275Y-17410274D01*
X23950275Y-17260274D02*
X24250275Y-17260274D01*
X24100664Y-15212112D02*
X24100664Y-15512112D01*
X23950664Y-15362112D02*
X24250664Y-15362112D01*
X25520534Y-9581126D02*
X25520534Y-9881126D01*
X25370534Y-9731126D02*
X25670534Y-9731126D01*
X26011472Y-11428218D02*
X26011472Y-11728218D01*
X25861472Y-11578218D02*
X26161472Y-11578218D01*
X26068157Y-9171431D02*
X26068157Y-9471431D01*
X25918157Y-9321431D02*
X26218157Y-9321431D01*
X26449606Y-17300904D02*
X26449606Y-17600904D01*
X26299606Y-17450904D02*
X26599606Y-17450904D01*
X26504263Y-13265007D02*
X26504263Y-13565007D01*
X26354263Y-13415007D02*
X26654263Y-13415007D01*
X26559095Y-11018523D02*
X26559095Y-11318523D01*
X26409095Y-11168523D02*
X26709095Y-11168523D01*
X26997887Y-15100594D02*
X26997887Y-15400594D01*
X26847887Y-15250594D02*
X27147887Y-15250594D01*
X27046020Y-16966192D02*
X27046020Y-17266192D01*
X26896020Y-17116192D02*
X27196020Y-17116192D01*
X27051886Y-12855312D02*
X27051886Y-13155312D01*
X26901886Y-13005312D02*
X27201886Y-13005312D01*
X27292544Y-8858366D02*
X27292544Y-9158366D01*
X27142544Y-9008366D02*
X27442544Y-9008366D01*
X27545510Y-14690898D02*
X27545510Y-14990898D01*
X27395510Y-14840898D02*
X27695510Y-14840898D01*
X27786683Y-10706689D02*
X27786683Y-11006689D01*
X27636683Y-10856689D02*
X27936683Y-10856689D01*
X27840167Y-8448671D02*
X27840167Y-8748671D01*
X27690167Y-8598671D02*
X27990167Y-8598671D01*
X28279688Y-12543650D02*
X28279688Y-12843650D01*
X28129688Y-12693650D02*
X28429688Y-12693650D01*
X28334306Y-10296993D02*
X28334306Y-10596993D01*
X28184306Y-10446993D02*
X28484306Y-10446993D01*
X28772440Y-14385041D02*
X28772440Y-14685041D01*
X28622440Y-14535041D02*
X28922440Y-14535041D01*
X28827311Y-12133955D02*
X28827311Y-12433955D01*
X28677311Y-12283955D02*
X28977311Y-12283955D01*
X29096144Y-8233105D02*
X29096144Y-8533105D01*
X28946144Y-8383105D02*
X29246144Y-8383105D01*
X29264344Y-16224722D02*
X29264344Y-16524722D01*
X29114344Y-16374722D02*
X29414344Y-16374722D01*
X29320062Y-13975346D02*
X29320062Y-14275346D01*
X29170062Y-14125346D02*
X29470062Y-14125346D01*
X29597434Y-10076886D02*
X29597434Y-10376886D01*
X29447434Y-10226886D02*
X29747434Y-10226886D01*
X29643767Y-7823409D02*
X29643767Y-8123409D01*
X29493767Y-7973409D02*
X29793767Y-7973409D01*
X29811967Y-15815027D02*
X29811967Y-16115027D01*
X29661967Y-15965027D02*
X29961967Y-15965027D01*
X30091730Y-11924676D02*
X30091730Y-12224676D01*
X29941730Y-12074676D02*
X30241730Y-12074676D01*
X30145057Y-9667191D02*
X30145057Y-9967191D01*
X29995057Y-9817191D02*
X30295057Y-9817191D01*
X30584662Y-13757999D02*
X30584662Y-14057999D01*
X30434662Y-13907999D02*
X30734662Y-13907999D01*
X30639353Y-11514981D02*
X30639353Y-11814981D01*
X30489353Y-11664981D02*
X30789353Y-11664981D01*
X30974639Y-7874863D02*
X30974639Y-8174863D01*
X30824639Y-8024863D02*
X31124639Y-8024863D01*
X31076089Y-15595511D02*
X31076089Y-15895511D01*
X30926089Y-15745511D02*
X31226089Y-15745511D01*
X31132285Y-13348303D02*
X31132285Y-13648303D01*
X30982285Y-13498303D02*
X31282285Y-13498303D01*
X31466714Y-9709343D02*
X31466714Y-10009343D01*
X31316714Y-9859343D02*
X31616714Y-9859343D01*
X31522261Y-7465168D02*
X31522261Y-7765168D01*
X31372261Y-7615168D02*
X31672261Y-7615168D01*
X31623712Y-15185816D02*
X31623712Y-15485816D01*
X31473712Y-15335816D02*
X31773712Y-15335816D01*
X31958401Y-11555766D02*
X31958401Y-11855766D01*
X31808401Y-11705766D02*
X32108401Y-11705766D01*
X32014337Y-9299647D02*
X32014337Y-9599647D01*
X31864337Y-9449647D02*
X32164337Y-9449647D01*
X32454462Y-13399460D02*
X32454462Y-13699460D01*
X32304462Y-13549460D02*
X32604462Y-13549460D01*
X32506024Y-11146071D02*
X32506024Y-11446071D01*
X32356024Y-11296071D02*
X32656024Y-11296071D01*
X32944521Y-7841679D02*
X32944521Y-8141679D01*
X32794521Y-7991679D02*
X33094521Y-7991679D01*
X32948139Y-15240188D02*
X32948139Y-15540188D01*
X32798139Y-15390188D02*
X33098139Y-15390188D01*
X33002085Y-12989765D02*
X33002085Y-13289765D01*
X32852085Y-13139765D02*
X33152085Y-13139765D01*
X33433985Y-9669822D02*
X33433985Y-9969822D01*
X33283985Y-9819822D02*
X33583985Y-9819822D01*
X33492144Y-7431983D02*
X33492144Y-7731983D01*
X33342144Y-7581983D02*
X33642144Y-7581983D01*
X33495762Y-14830492D02*
X33495762Y-15130492D01*
X33345762Y-14980492D02*
X33645762Y-14980492D01*
X33929143Y-11525112D02*
X33929143Y-11825112D01*
X33779143Y-11675112D02*
X34079143Y-11675112D01*
X33981608Y-9260127D02*
X33981608Y-9560127D01*
X33831608Y-9410127D02*
X34131608Y-9410127D01*
X34421659Y-13361070D02*
X34421659Y-13661070D01*
X34271659Y-13511070D02*
X34571659Y-13511070D01*
X34476766Y-11115417D02*
X34476766Y-11415417D01*
X34326766Y-11265417D02*
X34626766Y-11265417D01*
X34818019Y-7496464D02*
X34818019Y-7796464D01*
X34668019Y-7646464D02*
X34968019Y-7646464D01*
X34916259Y-15200562D02*
X34916259Y-15500562D01*
X34766259Y-15350562D02*
X35066259Y-15350562D01*
X34969282Y-12951375D02*
X34969282Y-13251375D01*
X34819282Y-13101375D02*
X35119282Y-13101375D01*
X35308823Y-9323390D02*
X35308823Y-9623390D01*
X35158823Y-9473390D02*
X35458823Y-9473390D01*
X35365642Y-7086769D02*
X35365642Y-7386769D01*
X35215642Y-7236769D02*
X35515642Y-7236769D01*
X35463882Y-14790867D02*
X35463882Y-15090867D01*
X35313882Y-14940867D02*
X35613882Y-14940867D01*
X35804481Y-11175763D02*
X35804481Y-11475763D01*
X35654481Y-11325763D02*
X35954481Y-11325763D01*
X35856446Y-8913694D02*
X35856446Y-9213694D01*
X35706446Y-9063694D02*
X36006446Y-9063694D01*
X36299160Y-13010514D02*
X36299160Y-13310514D01*
X36149160Y-13160514D02*
X36449160Y-13160514D01*
X36352104Y-10766068D02*
X36352104Y-11066068D01*
X36202104Y-10916068D02*
X36502104Y-10916068D01*
X36624188Y-6857235D02*
X36624188Y-7157235D01*
X36474188Y-7007235D02*
X36774188Y-7007235D01*
X36792461Y-14853525D02*
X36792461Y-15153525D01*
X36642461Y-15003525D02*
X36942461Y-15003525D01*
X36846783Y-12600819D02*
X36846783Y-12900819D01*
X36696783Y-12750819D02*
X36996783Y-12750819D01*
X37112005Y-8684322D02*
X37112005Y-8984322D01*
X36962005Y-8834322D02*
X37262005Y-8834322D01*
X37171811Y-6447540D02*
X37171811Y-6747540D01*
X37021811Y-6597540D02*
X37321811Y-6597540D01*
X37340084Y-14443830D02*
X37340084Y-14743830D01*
X37190084Y-14593830D02*
X37490084Y-14593830D01*
X37607979Y-10541309D02*
X37607979Y-10841309D01*
X37457979Y-10691309D02*
X37757979Y-10691309D01*
X37659627Y-8274627D02*
X37659627Y-8574627D01*
X37509627Y-8424627D02*
X37809627Y-8424627D01*
X38100714Y-12372459D02*
X38100714Y-12672459D01*
X37950714Y-12522459D02*
X38250714Y-12522459D01*
X38155602Y-10131614D02*
X38155602Y-10431614D01*
X38005602Y-10281614D02*
X38305602Y-10281614D01*
X38594273Y-14213895D02*
X38594273Y-14513895D01*
X38444273Y-14363895D02*
X38744273Y-14363895D01*
X38648337Y-11962764D02*
X38648337Y-12262764D01*
X38498337Y-12112764D02*
X38798337Y-12112764D01*
X39141896Y-13804200D02*
X39141896Y-14104200D01*
X38991896Y-13954200D02*
X39291896Y-13954200D01*
X13946005Y-18297466D02*
X13946005Y-18081938D01*
X13730476Y-18081938D01*
X13730476Y-18297466D01*
X13946005Y-18297466D01*
X16313178Y-18609111D02*
X16313178Y-18393582D01*
X16097650Y-18393582D01*
X16097650Y-18609111D01*
X16313178Y-18609111D01*
X25875850Y-18609111D02*
X25875850Y-18393582D01*
X25660322Y-18393582D01*
X25660322Y-18609111D01*
X25875850Y-18609111D01*
X28243023Y-18297466D02*
X28243023Y-18081938D01*
X28027495Y-18081938D01*
X28027495Y-18297466D01*
X28243023Y-18297466D01*
X14037162Y-16878130D02*
X14236552Y-16678740D01*
X14037162Y-16479350D01*
X13837772Y-16678740D01*
X14037162Y-16878130D01*
X16404336Y-17189774D02*
X16603726Y-16990384D01*
X16404336Y-16790994D01*
X16204946Y-16990384D01*
X16404336Y-17189774D01*
X25569164Y-17189774D02*
X25768554Y-16990384D01*
X25569164Y-16790994D01*
X25369774Y-16990384D01*
X25569164Y-17189774D01*
X27936337Y-16878130D02*
X28135727Y-16678740D01*
X27936337Y-16479350D01*
X27736947Y-16678740D01*
X27936337Y-16878130D01*
X2752292Y-14307578D02*
X3152292Y-14707578D01*
X3152292Y-14307578D02*
X2752292Y-14707578D01*
X3152292Y-14507578D02*
G75*
G03*
X3152292Y-14507578I-200000J0D01*
G01*
X3243096Y-12465886D02*
X3643096Y-12865886D01*
X3643096Y-12465886D02*
X3243096Y-12865886D01*
X3643096Y-12665886D02*
G75*
G03*
X3643096Y-12665886I-200000J0D01*
G01*
X3736899Y-10626981D02*
X4136899Y-11026981D01*
X4136899Y-10626981D02*
X3736899Y-11026981D01*
X4136899Y-10826981D02*
G75*
G03*
X4136899Y-10826981I-200000J0D01*
G01*
X4230049Y-8772244D02*
X4630049Y-9172244D01*
X4630049Y-8772244D02*
X4230049Y-9172244D01*
X4630049Y-8972244D02*
G75*
G03*
X4630049Y-8972244I-200000J0D01*
G01*
X4552755Y-14938438D02*
X4952755Y-15338438D01*
X4952755Y-14938438D02*
X4552755Y-15338438D01*
X4952755Y-15138438D02*
G75*
G03*
X4952755Y-15138438I-200000J0D01*
G01*
X4716903Y-6949346D02*
X5116903Y-7349346D01*
X5116903Y-6949346D02*
X4716903Y-7349346D01*
X5116903Y-7149346D02*
G75*
G03*
X5116903Y-7149346I-200000J0D01*
G01*
X5048516Y-13102224D02*
X5448516Y-13502224D01*
X5448516Y-13102224D02*
X5048516Y-13502224D01*
X5448516Y-13302224D02*
G75*
G03*
X5448516Y-13302224I-200000J0D01*
G01*
X5541957Y-11268755D02*
X5941957Y-11668755D01*
X5941957Y-11268755D02*
X5541957Y-11668755D01*
X5941957Y-11468755D02*
G75*
G03*
X5941957Y-11468755I-200000J0D01*
G01*
X6043026Y-9411517D02*
X6443026Y-9811517D01*
X6443026Y-9411517D02*
X6043026Y-9811517D01*
X6443026Y-9611517D02*
G75*
G03*
X6443026Y-9611517I-200000J0D01*
G01*
X6432034Y-15291597D02*
X6832034Y-15691597D01*
X6832034Y-15291597D02*
X6432034Y-15691597D01*
X6832034Y-15491597D02*
G75*
G03*
X6832034Y-15491597I-200000J0D01*
G01*
X6532703Y-7584903D02*
X6932703Y-7984903D01*
X6932703Y-7584903D02*
X6532703Y-7984903D01*
X6932703Y-7784903D02*
G75*
G03*
X6932703Y-7784903I-200000J0D01*
G01*
X6925443Y-13448854D02*
X7325443Y-13848854D01*
X7325443Y-13448854D02*
X6925443Y-13848854D01*
X7325443Y-13648854D02*
G75*
G03*
X7325443Y-13648854I-200000J0D01*
G01*
X7416928Y-11614581D02*
X7816928Y-12014581D01*
X7816928Y-11614581D02*
X7416928Y-12014581D01*
X7816928Y-11814581D02*
G75*
G03*
X7816928Y-11814581I-200000J0D01*
G01*
X7913117Y-9758518D02*
X8313117Y-10158518D01*
X8313117Y-9758518D02*
X7913117Y-10158518D01*
X8313117Y-9958518D02*
G75*
G03*
X8313117Y-9958518I-200000J0D01*
G01*
X8398055Y-15328976D02*
X8798055Y-15728976D01*
X8798055Y-15328976D02*
X8398055Y-15728976D01*
X8798055Y-15528976D02*
G75*
G03*
X8798055Y-15528976I-200000J0D01*
G01*
X8402355Y-7935829D02*
X8802355Y-8335829D01*
X8802355Y-7935829D02*
X8402355Y-8335829D01*
X8802355Y-8135829D02*
G75*
G03*
X8802355Y-8135829I-200000J0D01*
G01*
X8889217Y-13490157D02*
X9289217Y-13890157D01*
X9289217Y-13490157D02*
X8889217Y-13890157D01*
X9289217Y-13690157D02*
G75*
G03*
X9289217Y-13690157I-200000J0D01*
G01*
X9386758Y-11643546D02*
X9786758Y-12043546D01*
X9786758Y-11643546D02*
X9386758Y-12043546D01*
X9786758Y-11843546D02*
G75*
G03*
X9786758Y-11843546I-200000J0D01*
G01*
X9882138Y-9799655D02*
X10282138Y-10199655D01*
X10282138Y-9799655D02*
X9882138Y-10199655D01*
X10282138Y-9999655D02*
G75*
G03*
X10282138Y-9999655I-200000J0D01*
G01*
X10271141Y-15687275D02*
X10671141Y-16087275D01*
X10671141Y-15687275D02*
X10271141Y-16087275D01*
X10671141Y-15887275D02*
G75*
G03*
X10671141Y-15887275I-200000J0D01*
G01*
X10373472Y-7962750D02*
X10773472Y-8362750D01*
X10773472Y-7962750D02*
X10373472Y-8362750D01*
X10773472Y-8162750D02*
G75*
G03*
X10773472Y-8162750I-200000J0D01*
G01*
X10764270Y-13847925D02*
X11164270Y-14247925D01*
X11164270Y-13847925D02*
X10764270Y-14247925D01*
X11164270Y-14047925D02*
G75*
G03*
X11164270Y-14047925I-200000J0D01*
G01*
X11254800Y-12006989D02*
X11654800Y-12406989D01*
X11654800Y-12006989D02*
X11254800Y-12406989D01*
X11654800Y-12206989D02*
G75*
G03*
X11654800Y-12206989I-200000J0D01*
G01*
X11752555Y-10165041D02*
X12152555Y-10565041D01*
X12152555Y-10165041D02*
X11752555Y-10565041D01*
X12152555Y-10365041D02*
G75*
G03*
X12152555Y-10365041I-200000J0D01*
G01*
X12080434Y-16313598D02*
X12480434Y-16713598D01*
X12480434Y-16313598D02*
X12080434Y-16713598D01*
X12480434Y-16513598D02*
G75*
G03*
X12480434Y-16513598I-200000J0D01*
G01*
X12250726Y-8323320D02*
X12650726Y-8723320D01*
X12650726Y-8323320D02*
X12250726Y-8723320D01*
X12650726Y-8523320D02*
G75*
G03*
X12650726Y-8523320I-200000J0D01*
G01*
X12574377Y-14476649D02*
X12974377Y-14876649D01*
X12974377Y-14476649D02*
X12574377Y-14876649D01*
X12974377Y-14676649D02*
G75*
G03*
X12974377Y-14676649I-200000J0D01*
G01*
X13069864Y-12630059D02*
X13469864Y-13030059D01*
X13469864Y-12630059D02*
X13069864Y-13030059D01*
X13469864Y-12830059D02*
G75*
G03*
X13469864Y-12830059I-200000J0D01*
G01*
X13560170Y-10788291D02*
X13960170Y-11188291D01*
X13960170Y-10788291D02*
X13560170Y-11188291D01*
X13960170Y-10988291D02*
G75*
G03*
X13960170Y-10988291I-200000J0D01*
G01*
X14053180Y-8948662D02*
X14453180Y-9348662D01*
X14453180Y-8948662D02*
X14053180Y-9348662D01*
X14453180Y-9148662D02*
G75*
G03*
X14453180Y-9148662I-200000J0D01*
G01*
X14348586Y-15189835D02*
X14748586Y-15589835D01*
X14748586Y-15189835D02*
X14348586Y-15589835D01*
X14748586Y-15389835D02*
G75*
G03*
X14748586Y-15389835I-200000J0D01*
G01*
X14841298Y-13353103D02*
X15241298Y-13753103D01*
X15241298Y-13353103D02*
X14841298Y-13753103D01*
X15241298Y-13553103D02*
G75*
G03*
X15241298Y-13553103I-200000J0D01*
G01*
X14913000Y-17453000D02*
X15313000Y-17853000D01*
X15313000Y-17453000D02*
X14913000Y-17853000D01*
X15313000Y-17653000D02*
G75*
G03*
X15313000Y-17653000I-200000J0D01*
G01*
X15329495Y-11518078D02*
X15729495Y-11918078D01*
X15729495Y-11518078D02*
X15329495Y-11918078D01*
X15729495Y-11718078D02*
G75*
G03*
X15729495Y-11718078I-200000J0D01*
G01*
X15827211Y-9673544D02*
X16227211Y-10073544D01*
X16227211Y-9673544D02*
X15827211Y-10073544D01*
X16227211Y-9873544D02*
G75*
G03*
X16227211Y-9873544I-200000J0D01*
G01*
X17947998Y-13769789D02*
X18347998Y-14169789D01*
X18347998Y-13769789D02*
X17947998Y-14169789D01*
X18347998Y-13969789D02*
G75*
G03*
X18347998Y-13969789I-200000J0D01*
G01*
X17948003Y-9966886D02*
X18348003Y-10366886D01*
X18348003Y-9966886D02*
X17948003Y-10366886D01*
X18348003Y-10166886D02*
G75*
G03*
X18348003Y-10166886I-200000J0D01*
G01*
X17948246Y-11868706D02*
X18348246Y-12268706D01*
X18348246Y-11868706D02*
X17948246Y-12268706D01*
X18348246Y-12068706D02*
G75*
G03*
X18348246Y-12068706I-200000J0D01*
G01*
X17949021Y-15671996D02*
X18349021Y-16071996D01*
X18349021Y-15671996D02*
X17949021Y-16071996D01*
X18349021Y-15871996D02*
G75*
G03*
X18349021Y-15871996I-200000J0D01*
G01*
X17950421Y-17572234D02*
X18350421Y-17972234D01*
X18350421Y-17572234D02*
X17950421Y-17972234D01*
X18350421Y-17772234D02*
G75*
G03*
X18350421Y-17772234I-200000J0D01*
G01*
X19846394Y-9966962D02*
X20246394Y-10366962D01*
X20246394Y-9966962D02*
X19846394Y-10366962D01*
X20246394Y-10166962D02*
G75*
G03*
X20246394Y-10166962I-200000J0D01*
G01*
X19846923Y-11868816D02*
X20246923Y-12268816D01*
X20246923Y-11868816D02*
X19846923Y-12268816D01*
X20246923Y-12068816D02*
G75*
G03*
X20246923Y-12068816I-200000J0D01*
G01*
X19848121Y-13768914D02*
X20248121Y-14168914D01*
X20248121Y-13768914D02*
X19848121Y-14168914D01*
X20248121Y-13968914D02*
G75*
G03*
X20248121Y-13968914I-200000J0D01*
G01*
X19848135Y-15672028D02*
X20248135Y-16072028D01*
X20248135Y-15672028D02*
X19848135Y-16072028D01*
X20248135Y-15872028D02*
G75*
G03*
X20248135Y-15872028I-200000J0D01*
G01*
X19849371Y-17571290D02*
X20249371Y-17971290D01*
X20249371Y-17571290D02*
X19849371Y-17971290D01*
X20249371Y-17771290D02*
G75*
G03*
X20249371Y-17771290I-200000J0D01*
G01*
X21745760Y-13767780D02*
X22145760Y-14167780D01*
X22145760Y-13767780D02*
X21745760Y-14167780D01*
X22145760Y-13967780D02*
G75*
G03*
X22145760Y-13967780I-200000J0D01*
G01*
X21745924Y-11868814D02*
X22145924Y-12268814D01*
X22145924Y-11868814D02*
X21745924Y-12268814D01*
X22145924Y-12068814D02*
G75*
G03*
X22145924Y-12068814I-200000J0D01*
G01*
X21746810Y-9966985D02*
X22146810Y-10366985D01*
X22146810Y-9966985D02*
X21746810Y-10366985D01*
X22146810Y-10166985D02*
G75*
G03*
X22146810Y-10166985I-200000J0D01*
G01*
X21747469Y-15670384D02*
X22147469Y-16070384D01*
X22147469Y-15670384D02*
X21747469Y-16070384D01*
X22147469Y-15870384D02*
G75*
G03*
X22147469Y-15870384I-200000J0D01*
G01*
X21749960Y-17569349D02*
X22149960Y-17969349D01*
X22149960Y-17569349D02*
X21749960Y-17969349D01*
X22149960Y-17769349D02*
G75*
G03*
X22149960Y-17769349I-200000J0D01*
G01*
X23644030Y-11868834D02*
X24044030Y-12268834D01*
X24044030Y-11868834D02*
X23644030Y-12268834D01*
X24044030Y-12068834D02*
G75*
G03*
X24044030Y-12068834I-200000J0D01*
G01*
X23645470Y-13768483D02*
X24045470Y-14168483D01*
X24045470Y-13768483D02*
X23645470Y-14168483D01*
X24045470Y-13968483D02*
G75*
G03*
X24045470Y-13968483I-200000J0D01*
G01*
X23645695Y-9966970D02*
X24045695Y-10366970D01*
X24045695Y-9966970D02*
X23645695Y-10366970D01*
X24045695Y-10166970D02*
G75*
G03*
X24045695Y-10166970I-200000J0D01*
G01*
X23646275Y-17568274D02*
X24046275Y-17968274D01*
X24046275Y-17568274D02*
X23646275Y-17968274D01*
X24046275Y-17768274D02*
G75*
G03*
X24046275Y-17768274I-200000J0D01*
G01*
X23646664Y-15670112D02*
X24046664Y-16070112D01*
X24046664Y-15670112D02*
X23646664Y-16070112D01*
X24046664Y-15870112D02*
G75*
G03*
X24046664Y-15870112I-200000J0D01*
G01*
X25754292Y-9677862D02*
X26154292Y-10077862D01*
X26154292Y-9677862D02*
X25754292Y-10077862D01*
X26154292Y-9877862D02*
G75*
G03*
X26154292Y-9877862I-200000J0D01*
G01*
X26245230Y-11524953D02*
X26645230Y-11924953D01*
X26645230Y-11524953D02*
X26245230Y-11924953D01*
X26645230Y-11724953D02*
G75*
G03*
X26645230Y-11724953I-200000J0D01*
G01*
X26660500Y-17453000D02*
X27060500Y-17853000D01*
X27060500Y-17453000D02*
X26660500Y-17853000D01*
X27060500Y-17653000D02*
G75*
G03*
X27060500Y-17653000I-200000J0D01*
G01*
X26738021Y-13361743D02*
X27138021Y-13761743D01*
X27138021Y-13361743D02*
X26738021Y-13761743D01*
X27138021Y-13561743D02*
G75*
G03*
X27138021Y-13561743I-200000J0D01*
G01*
X27231644Y-15197329D02*
X27631644Y-15597329D01*
X27631644Y-15197329D02*
X27231644Y-15597329D01*
X27631644Y-15397329D02*
G75*
G03*
X27631644Y-15397329I-200000J0D01*
G01*
X27526301Y-8955101D02*
X27926301Y-9355101D01*
X27926301Y-8955101D02*
X27526301Y-9355101D01*
X27926301Y-9155101D02*
G75*
G03*
X27926301Y-9155101I-200000J0D01*
G01*
X28020441Y-10803424D02*
X28420441Y-11203424D01*
X28420441Y-10803424D02*
X28020441Y-11203424D01*
X28420441Y-11003424D02*
G75*
G03*
X28420441Y-11003424I-200000J0D01*
G01*
X28513446Y-12640385D02*
X28913446Y-13040385D01*
X28913446Y-12640385D02*
X28513446Y-13040385D01*
X28913446Y-12840385D02*
G75*
G03*
X28913446Y-12840385I-200000J0D01*
G01*
X29006197Y-14481776D02*
X29406197Y-14881776D01*
X29406197Y-14481776D02*
X29006197Y-14881776D01*
X29406197Y-14681776D02*
G75*
G03*
X29406197Y-14681776I-200000J0D01*
G01*
X29329902Y-8329840D02*
X29729902Y-8729840D01*
X29729902Y-8329840D02*
X29329902Y-8729840D01*
X29729902Y-8529840D02*
G75*
G03*
X29729902Y-8529840I-200000J0D01*
G01*
X29498102Y-16321457D02*
X29898102Y-16721457D01*
X29898102Y-16321457D02*
X29498102Y-16721457D01*
X29898102Y-16521457D02*
G75*
G03*
X29898102Y-16521457I-200000J0D01*
G01*
X29831191Y-10173621D02*
X30231191Y-10573621D01*
X30231191Y-10173621D02*
X29831191Y-10573621D01*
X30231191Y-10373621D02*
G75*
G03*
X30231191Y-10373621I-200000J0D01*
G01*
X30325488Y-12021411D02*
X30725488Y-12421411D01*
X30725488Y-12021411D02*
X30325488Y-12421411D01*
X30725488Y-12221411D02*
G75*
G03*
X30725488Y-12221411I-200000J0D01*
G01*
X30818420Y-13854734D02*
X31218420Y-14254734D01*
X31218420Y-13854734D02*
X30818420Y-14254734D01*
X31218420Y-14054734D02*
G75*
G03*
X31218420Y-14054734I-200000J0D01*
G01*
X31208396Y-7971599D02*
X31608396Y-8371599D01*
X31608396Y-7971599D02*
X31208396Y-8371599D01*
X31608396Y-8171599D02*
G75*
G03*
X31608396Y-8171599I-200000J0D01*
G01*
X31309846Y-15692246D02*
X31709846Y-16092246D01*
X31709846Y-15692246D02*
X31309846Y-16092246D01*
X31709846Y-15892246D02*
G75*
G03*
X31709846Y-15892246I-200000J0D01*
G01*
X31700472Y-9806078D02*
X32100472Y-10206078D01*
X32100472Y-9806078D02*
X31700472Y-10206078D01*
X32100472Y-10006078D02*
G75*
G03*
X32100472Y-10006078I-200000J0D01*
G01*
X32192159Y-11652501D02*
X32592159Y-12052501D01*
X32592159Y-11652501D02*
X32192159Y-12052501D01*
X32592159Y-11852501D02*
G75*
G03*
X32592159Y-11852501I-200000J0D01*
G01*
X32688219Y-13496195D02*
X33088219Y-13896195D01*
X33088219Y-13496195D02*
X32688219Y-13896195D01*
X33088219Y-13696195D02*
G75*
G03*
X33088219Y-13696195I-200000J0D01*
G01*
X33178279Y-7938414D02*
X33578279Y-8338414D01*
X33578279Y-7938414D02*
X33178279Y-8338414D01*
X33578279Y-8138414D02*
G75*
G03*
X33578279Y-8138414I-200000J0D01*
G01*
X33181897Y-15336923D02*
X33581897Y-15736923D01*
X33581897Y-15336923D02*
X33181897Y-15736923D01*
X33581897Y-15536923D02*
G75*
G03*
X33581897Y-15536923I-200000J0D01*
G01*
X33667743Y-9766557D02*
X34067743Y-10166557D01*
X34067743Y-9766557D02*
X33667743Y-10166557D01*
X34067743Y-9966557D02*
G75*
G03*
X34067743Y-9966557I-200000J0D01*
G01*
X34162901Y-11621847D02*
X34562901Y-12021847D01*
X34562901Y-11621847D02*
X34162901Y-12021847D01*
X34562901Y-11821847D02*
G75*
G03*
X34562901Y-11821847I-200000J0D01*
G01*
X34655417Y-13457805D02*
X35055417Y-13857805D01*
X35055417Y-13457805D02*
X34655417Y-13857805D01*
X35055417Y-13657805D02*
G75*
G03*
X35055417Y-13657805I-200000J0D01*
G01*
X35051777Y-7593199D02*
X35451777Y-7993199D01*
X35451777Y-7593199D02*
X35051777Y-7993199D01*
X35451777Y-7793199D02*
G75*
G03*
X35451777Y-7793199I-200000J0D01*
G01*
X35150017Y-15297297D02*
X35550017Y-15697297D01*
X35550017Y-15297297D02*
X35150017Y-15697297D01*
X35550017Y-15497297D02*
G75*
G03*
X35550017Y-15497297I-200000J0D01*
G01*
X35542581Y-9420125D02*
X35942581Y-9820125D01*
X35942581Y-9420125D02*
X35542581Y-9820125D01*
X35942581Y-9620125D02*
G75*
G03*
X35942581Y-9620125I-200000J0D01*
G01*
X36038239Y-11272498D02*
X36438239Y-11672498D01*
X36438239Y-11272498D02*
X36038239Y-11672498D01*
X36438239Y-11472498D02*
G75*
G03*
X36438239Y-11472498I-200000J0D01*
G01*
X36532918Y-13107249D02*
X36932918Y-13507249D01*
X36932918Y-13107249D02*
X36532918Y-13507249D01*
X36932918Y-13307249D02*
G75*
G03*
X36932918Y-13307249I-200000J0D01*
G01*
X36857946Y-6953970D02*
X37257946Y-7353970D01*
X37257946Y-6953970D02*
X36857946Y-7353970D01*
X37257946Y-7153970D02*
G75*
G03*
X37257946Y-7153970I-200000J0D01*
G01*
X37026219Y-14950260D02*
X37426219Y-15350260D01*
X37426219Y-14950260D02*
X37026219Y-15350260D01*
X37426219Y-15150260D02*
G75*
G03*
X37426219Y-15150260I-200000J0D01*
G01*
X37345762Y-8781057D02*
X37745762Y-9181057D01*
X37745762Y-8781057D02*
X37345762Y-9181057D01*
X37745762Y-8981057D02*
G75*
G03*
X37745762Y-8981057I-200000J0D01*
G01*
X37841737Y-10638044D02*
X38241737Y-11038044D01*
X38241737Y-10638044D02*
X37841737Y-11038044D01*
X38241737Y-10838044D02*
G75*
G03*
X38241737Y-10838044I-200000J0D01*
G01*
X38334472Y-12469194D02*
X38734472Y-12869194D01*
X38734472Y-12469194D02*
X38334472Y-12869194D01*
X38734472Y-12669194D02*
G75*
G03*
X38734472Y-12669194I-200000J0D01*
G01*
X38828031Y-14310630D02*
X39228031Y-14710630D01*
X39228031Y-14310630D02*
X38828031Y-14710630D01*
X39228031Y-14510630D02*
G75*
G03*
X39228031Y-14510630I-200000J0D01*
G01*
D13*
X1711017Y-19579405D02*
X1711017Y-19279405D01*
X1782446Y-19279405D01*
X1825303Y-19293691D01*
X1853874Y-19322262D01*
X1868160Y-19350834D01*
X1882446Y-19407977D01*
X1882446Y-19450834D01*
X1868160Y-19507977D01*
X1853874Y-19536548D01*
X1825303Y-19565120D01*
X1782446Y-19579405D01*
X1711017Y-19579405D01*
X2011017Y-19579405D02*
X2011017Y-19379405D01*
X2011017Y-19436548D02*
X2025303Y-19407977D01*
X2039588Y-19393691D01*
X2068160Y-19379405D01*
X2096731Y-19379405D01*
X2196731Y-19579405D02*
X2196731Y-19379405D01*
X2196731Y-19279405D02*
X2182446Y-19293691D01*
X2196731Y-19307977D01*
X2211017Y-19293691D01*
X2196731Y-19279405D01*
X2196731Y-19307977D01*
X2382446Y-19579405D02*
X2353874Y-19565120D01*
X2339589Y-19536548D01*
X2339589Y-19279405D01*
X2539589Y-19579405D02*
X2511017Y-19565120D01*
X2496731Y-19536548D01*
X2496731Y-19279405D01*
X2882446Y-19579405D02*
X2882446Y-19279405D01*
X2982446Y-19493691D01*
X3082446Y-19279405D01*
X3082446Y-19579405D01*
X3353874Y-19579405D02*
X3353874Y-19422262D01*
X3339588Y-19393691D01*
X3311017Y-19379405D01*
X3253874Y-19379405D01*
X3225303Y-19393691D01*
X3353874Y-19565120D02*
X3325303Y-19579405D01*
X3253874Y-19579405D01*
X3225303Y-19565120D01*
X3211017Y-19536548D01*
X3211017Y-19507977D01*
X3225303Y-19479405D01*
X3253874Y-19465120D01*
X3325303Y-19465120D01*
X3353874Y-19450834D01*
X3496731Y-19379405D02*
X3496731Y-19679405D01*
X3496731Y-19393691D02*
X3525303Y-19379405D01*
X3582446Y-19379405D01*
X3611017Y-19393691D01*
X3625303Y-19407977D01*
X3639588Y-19436548D01*
X3639588Y-19522262D01*
X3625303Y-19550834D01*
X3611017Y-19565120D01*
X3582446Y-19579405D01*
X3525303Y-19579405D01*
X3496731Y-19565120D01*
X3768160Y-19550834D02*
X3782446Y-19565120D01*
X3768160Y-19579405D01*
X3753874Y-19565120D01*
X3768160Y-19550834D01*
X3768160Y-19579405D01*
X3768160Y-19393691D02*
X3782446Y-19407977D01*
X3768160Y-19422262D01*
X3753874Y-19407977D01*
X3768160Y-19393691D01*
X3768160Y-19422262D01*
X1359589Y-20041191D02*
X1424588Y-20106191D01*
X1424588Y-20041191D02*
X1359589Y-20106191D01*
X1768160Y-19909405D02*
X1796731Y-19909405D01*
X1825303Y-19923691D01*
X1839588Y-19937977D01*
X1853874Y-19966548D01*
X1868160Y-20023691D01*
X1868160Y-20095120D01*
X1853874Y-20152262D01*
X1839588Y-20180834D01*
X1825303Y-20195120D01*
X1796731Y-20209405D01*
X1768160Y-20209405D01*
X1739588Y-20195120D01*
X1725303Y-20180834D01*
X1711017Y-20152262D01*
X1696731Y-20095120D01*
X1696731Y-20023691D01*
X1711017Y-19966548D01*
X1725303Y-19937977D01*
X1739588Y-19923691D01*
X1768160Y-19909405D01*
X1996731Y-20180834D02*
X2011017Y-20195120D01*
X1996731Y-20209405D01*
X1982446Y-20195120D01*
X1996731Y-20180834D01*
X1996731Y-20209405D01*
X2268160Y-19909405D02*
X2211017Y-19909405D01*
X2182446Y-19923691D01*
X2168160Y-19937977D01*
X2139589Y-19980834D01*
X2125303Y-20037977D01*
X2125303Y-20152262D01*
X2139589Y-20180834D01*
X2153874Y-20195120D01*
X2182446Y-20209405D01*
X2239589Y-20209405D01*
X2268160Y-20195120D01*
X2282446Y-20180834D01*
X2296731Y-20152262D01*
X2296731Y-20080834D01*
X2282446Y-20052262D01*
X2268160Y-20037977D01*
X2239589Y-20023691D01*
X2182446Y-20023691D01*
X2153874Y-20037977D01*
X2139589Y-20052262D01*
X2125303Y-20080834D01*
X2568160Y-19909405D02*
X2425303Y-19909405D01*
X2411017Y-20052262D01*
X2425303Y-20037977D01*
X2453874Y-20023691D01*
X2525303Y-20023691D01*
X2553874Y-20037977D01*
X2568160Y-20052262D01*
X2582446Y-20080834D01*
X2582446Y-20152262D01*
X2568160Y-20180834D01*
X2553874Y-20195120D01*
X2525303Y-20209405D01*
X2453874Y-20209405D01*
X2425303Y-20195120D01*
X2411017Y-20180834D01*
X2768160Y-19909405D02*
X2796731Y-19909405D01*
X2825303Y-19923691D01*
X2839588Y-19937977D01*
X2853874Y-19966548D01*
X2868160Y-20023691D01*
X2868160Y-20095120D01*
X2853874Y-20152262D01*
X2839588Y-20180834D01*
X2825303Y-20195120D01*
X2796731Y-20209405D01*
X2768160Y-20209405D01*
X2739589Y-20195120D01*
X2725303Y-20180834D01*
X2711017Y-20152262D01*
X2696731Y-20095120D01*
X2696731Y-20023691D01*
X2711017Y-19966548D01*
X2725303Y-19937977D01*
X2739589Y-19923691D01*
X2768160Y-19909405D01*
X2996731Y-20209405D02*
X2996731Y-20009405D01*
X2996731Y-20037977D02*
X3011017Y-20023691D01*
X3039588Y-20009405D01*
X3082446Y-20009405D01*
X3111017Y-20023691D01*
X3125303Y-20052262D01*
X3125303Y-20209405D01*
X3125303Y-20052262D02*
X3139588Y-20023691D01*
X3168160Y-20009405D01*
X3211017Y-20009405D01*
X3239588Y-20023691D01*
X3253874Y-20052262D01*
X3253874Y-20209405D01*
X3396731Y-20209405D02*
X3396731Y-20009405D01*
X3396731Y-20037977D02*
X3411017Y-20023691D01*
X3439588Y-20009405D01*
X3482446Y-20009405D01*
X3511017Y-20023691D01*
X3525303Y-20052262D01*
X3525303Y-20209405D01*
X3525303Y-20052262D02*
X3539588Y-20023691D01*
X3568160Y-20009405D01*
X3611017Y-20009405D01*
X3639588Y-20023691D01*
X3653874Y-20052262D01*
X3653874Y-20209405D01*
X4239589Y-19895120D02*
X3982446Y-20280834D01*
X4625303Y-19909405D02*
X4653874Y-19909405D01*
X4682446Y-19923691D01*
X4696731Y-19937977D01*
X4711017Y-19966548D01*
X4725303Y-20023691D01*
X4725303Y-20095120D01*
X4711017Y-20152262D01*
X4696731Y-20180834D01*
X4682446Y-20195120D01*
X4653874Y-20209405D01*
X4625303Y-20209405D01*
X4596731Y-20195120D01*
X4582446Y-20180834D01*
X4568160Y-20152262D01*
X4553874Y-20095120D01*
X4553874Y-20023691D01*
X4568160Y-19966548D01*
X4582446Y-19937977D01*
X4596731Y-19923691D01*
X4625303Y-19909405D01*
X4853874Y-20180834D02*
X4868160Y-20195120D01*
X4853874Y-20209405D01*
X4839589Y-20195120D01*
X4853874Y-20180834D01*
X4853874Y-20209405D01*
X5053874Y-19909405D02*
X5082446Y-19909405D01*
X5111017Y-19923691D01*
X5125303Y-19937977D01*
X5139589Y-19966548D01*
X5153874Y-20023691D01*
X5153874Y-20095120D01*
X5139589Y-20152262D01*
X5125303Y-20180834D01*
X5111017Y-20195120D01*
X5082446Y-20209405D01*
X5053874Y-20209405D01*
X5025303Y-20195120D01*
X5011017Y-20180834D01*
X4996731Y-20152262D01*
X4982446Y-20095120D01*
X4982446Y-20023691D01*
X4996731Y-19966548D01*
X5011017Y-19937977D01*
X5025303Y-19923691D01*
X5053874Y-19909405D01*
X5268160Y-19937977D02*
X5282446Y-19923691D01*
X5311017Y-19909405D01*
X5382446Y-19909405D01*
X5411017Y-19923691D01*
X5425303Y-19937977D01*
X5439588Y-19966548D01*
X5439588Y-19995120D01*
X5425303Y-20037977D01*
X5253874Y-20209405D01*
X5439588Y-20209405D01*
X5711017Y-19909405D02*
X5568160Y-19909405D01*
X5553874Y-20052262D01*
X5568160Y-20037977D01*
X5596731Y-20023691D01*
X5668160Y-20023691D01*
X5696731Y-20037977D01*
X5711017Y-20052262D01*
X5725303Y-20080834D01*
X5725303Y-20152262D01*
X5711017Y-20180834D01*
X5696731Y-20195120D01*
X5668160Y-20209405D01*
X5596731Y-20209405D01*
X5568160Y-20195120D01*
X5553874Y-20180834D01*
X5982446Y-19909405D02*
X5925303Y-19909405D01*
X5896731Y-19923691D01*
X5882446Y-19937977D01*
X5853874Y-19980834D01*
X5839588Y-20037977D01*
X5839588Y-20152262D01*
X5853874Y-20180834D01*
X5868160Y-20195120D01*
X5896731Y-20209405D01*
X5953874Y-20209405D01*
X5982446Y-20195120D01*
X5996731Y-20180834D01*
X6011017Y-20152262D01*
X6011017Y-20080834D01*
X5996731Y-20052262D01*
X5982446Y-20037977D01*
X5953874Y-20023691D01*
X5896731Y-20023691D01*
X5868160Y-20037977D01*
X5853874Y-20052262D01*
X5839588Y-20080834D01*
X6125303Y-19909405D02*
X6125303Y-19966548D01*
X6239588Y-19909405D02*
X6239588Y-19966548D01*
X6682446Y-20323691D02*
X6668160Y-20309405D01*
X6639588Y-20266548D01*
X6625303Y-20237977D01*
X6611017Y-20195120D01*
X6596731Y-20123691D01*
X6596731Y-20066548D01*
X6611017Y-19995120D01*
X6625303Y-19952262D01*
X6639588Y-19923691D01*
X6668160Y-19880834D01*
X6682446Y-19866548D01*
X6782446Y-19937977D02*
X6796731Y-19923691D01*
X6825303Y-19909405D01*
X6896731Y-19909405D01*
X6925303Y-19923691D01*
X6939588Y-19937977D01*
X6953874Y-19966548D01*
X6953874Y-19995120D01*
X6939588Y-20037977D01*
X6768160Y-20209405D01*
X6953874Y-20209405D01*
X7311017Y-20209405D02*
X7311017Y-19909405D01*
X7439588Y-20209405D02*
X7439588Y-20052262D01*
X7425303Y-20023691D01*
X7396731Y-20009405D01*
X7353874Y-20009405D01*
X7325303Y-20023691D01*
X7311017Y-20037977D01*
X7625303Y-20209405D02*
X7596731Y-20195120D01*
X7582446Y-20180834D01*
X7568160Y-20152262D01*
X7568160Y-20066548D01*
X7582446Y-20037977D01*
X7596731Y-20023691D01*
X7625303Y-20009405D01*
X7668160Y-20009405D01*
X7696731Y-20023691D01*
X7711017Y-20037977D01*
X7725303Y-20066548D01*
X7725303Y-20152262D01*
X7711017Y-20180834D01*
X7696731Y-20195120D01*
X7668160Y-20209405D01*
X7625303Y-20209405D01*
X7896731Y-20209405D02*
X7868160Y-20195120D01*
X7853874Y-20166548D01*
X7853874Y-19909405D01*
X8125303Y-20195120D02*
X8096731Y-20209405D01*
X8039588Y-20209405D01*
X8011017Y-20195120D01*
X7996731Y-20166548D01*
X7996731Y-20052262D01*
X8011017Y-20023691D01*
X8039588Y-20009405D01*
X8096731Y-20009405D01*
X8125303Y-20023691D01*
X8139588Y-20052262D01*
X8139588Y-20080834D01*
X7996731Y-20109405D01*
X8253874Y-20195120D02*
X8282446Y-20209405D01*
X8339588Y-20209405D01*
X8368160Y-20195120D01*
X8382446Y-20166548D01*
X8382446Y-20152262D01*
X8368160Y-20123691D01*
X8339588Y-20109405D01*
X8296731Y-20109405D01*
X8268160Y-20095120D01*
X8253874Y-20066548D01*
X8253874Y-20052262D01*
X8268160Y-20023691D01*
X8296731Y-20009405D01*
X8339588Y-20009405D01*
X8368160Y-20023691D01*
X8482446Y-20323691D02*
X8496731Y-20309405D01*
X8525303Y-20266548D01*
X8539589Y-20237977D01*
X8553874Y-20195120D01*
X8568160Y-20123691D01*
X8568160Y-20066548D01*
X8553874Y-19995120D01*
X8539589Y-19952262D01*
X8525303Y-19923691D01*
X8496731Y-19880834D01*
X8482446Y-19866548D01*
X9025303Y-20323691D02*
X9011017Y-20309405D01*
X8982446Y-20266548D01*
X8968160Y-20237977D01*
X8953874Y-20195120D01*
X8939589Y-20123691D01*
X8939589Y-20066548D01*
X8953874Y-19995120D01*
X8968160Y-19952262D01*
X8982446Y-19923691D01*
X9011017Y-19880834D01*
X9025303Y-19866548D01*
X9139589Y-20009405D02*
X9139589Y-20209405D01*
X9139589Y-20037977D02*
X9153874Y-20023691D01*
X9182446Y-20009405D01*
X9225303Y-20009405D01*
X9253874Y-20023691D01*
X9268160Y-20052262D01*
X9268160Y-20209405D01*
X9453874Y-20209405D02*
X9425303Y-20195120D01*
X9411017Y-20180834D01*
X9396731Y-20152262D01*
X9396731Y-20066548D01*
X9411017Y-20037977D01*
X9425303Y-20023691D01*
X9453874Y-20009405D01*
X9496731Y-20009405D01*
X9525303Y-20023691D01*
X9539589Y-20037977D01*
X9553874Y-20066548D01*
X9553874Y-20152262D01*
X9539589Y-20180834D01*
X9525303Y-20195120D01*
X9496731Y-20209405D01*
X9453874Y-20209405D01*
X9639589Y-20009405D02*
X9753874Y-20009405D01*
X9682446Y-19909405D02*
X9682446Y-20166548D01*
X9696731Y-20195120D01*
X9725303Y-20209405D01*
X9753874Y-20209405D01*
X10082446Y-20009405D02*
X10082446Y-20309405D01*
X10082446Y-20023691D02*
X10111017Y-20009405D01*
X10168160Y-20009405D01*
X10196731Y-20023691D01*
X10211017Y-20037977D01*
X10225303Y-20066548D01*
X10225303Y-20152262D01*
X10211017Y-20180834D01*
X10196731Y-20195120D01*
X10168160Y-20209405D01*
X10111017Y-20209405D01*
X10082446Y-20195120D01*
X10396731Y-20209405D02*
X10368160Y-20195120D01*
X10353874Y-20166548D01*
X10353874Y-19909405D01*
X10639589Y-20209405D02*
X10639589Y-20052262D01*
X10625303Y-20023691D01*
X10596731Y-20009405D01*
X10539589Y-20009405D01*
X10511017Y-20023691D01*
X10639589Y-20195120D02*
X10611017Y-20209405D01*
X10539589Y-20209405D01*
X10511017Y-20195120D01*
X10496731Y-20166548D01*
X10496731Y-20137977D01*
X10511017Y-20109405D01*
X10539589Y-20095120D01*
X10611017Y-20095120D01*
X10639589Y-20080834D01*
X10739589Y-20009405D02*
X10853874Y-20009405D01*
X10782446Y-19909405D02*
X10782446Y-20166548D01*
X10796731Y-20195120D01*
X10825303Y-20209405D01*
X10853874Y-20209405D01*
X11068160Y-20195120D02*
X11039589Y-20209405D01*
X10982446Y-20209405D01*
X10953874Y-20195120D01*
X10939589Y-20166548D01*
X10939589Y-20052262D01*
X10953874Y-20023691D01*
X10982446Y-20009405D01*
X11039589Y-20009405D01*
X11068160Y-20023691D01*
X11082446Y-20052262D01*
X11082446Y-20080834D01*
X10939589Y-20109405D01*
X11339588Y-20209405D02*
X11339588Y-19909405D01*
X11339588Y-20195120D02*
X11311017Y-20209405D01*
X11253874Y-20209405D01*
X11225303Y-20195120D01*
X11211017Y-20180834D01*
X11196731Y-20152262D01*
X11196731Y-20066548D01*
X11211017Y-20037977D01*
X11225303Y-20023691D01*
X11253874Y-20009405D01*
X11311017Y-20009405D01*
X11339588Y-20023691D01*
X11453874Y-20323691D02*
X11468160Y-20309405D01*
X11496731Y-20266548D01*
X11511017Y-20237977D01*
X11525303Y-20195120D01*
X11539588Y-20123691D01*
X11539588Y-20066548D01*
X11525303Y-19995120D01*
X11511017Y-19952262D01*
X11496731Y-19923691D01*
X11468160Y-19880834D01*
X11453874Y-19866548D01*
X1424588Y-20469691D02*
G75*
G03*
X1424588Y-20469691I-90000J0D01*
G01*
X1868160Y-20605405D02*
X1696731Y-20605405D01*
X1782446Y-20605405D02*
X1782446Y-20305405D01*
X1753874Y-20348262D01*
X1725303Y-20376834D01*
X1696731Y-20391120D01*
X1996731Y-20576834D02*
X2011017Y-20591120D01*
X1996731Y-20605405D01*
X1982446Y-20591120D01*
X1996731Y-20576834D01*
X1996731Y-20605405D01*
X2182446Y-20433977D02*
X2153874Y-20419691D01*
X2139589Y-20405405D01*
X2125303Y-20376834D01*
X2125303Y-20362548D01*
X2139589Y-20333977D01*
X2153874Y-20319691D01*
X2182446Y-20305405D01*
X2239589Y-20305405D01*
X2268160Y-20319691D01*
X2282446Y-20333977D01*
X2296731Y-20362548D01*
X2296731Y-20376834D01*
X2282446Y-20405405D01*
X2268160Y-20419691D01*
X2239589Y-20433977D01*
X2182446Y-20433977D01*
X2153874Y-20448262D01*
X2139589Y-20462548D01*
X2125303Y-20491120D01*
X2125303Y-20548262D01*
X2139589Y-20576834D01*
X2153874Y-20591120D01*
X2182446Y-20605405D01*
X2239589Y-20605405D01*
X2268160Y-20591120D01*
X2282446Y-20576834D01*
X2296731Y-20548262D01*
X2296731Y-20491120D01*
X2282446Y-20462548D01*
X2268160Y-20448262D01*
X2239589Y-20433977D01*
X2482446Y-20305405D02*
X2511017Y-20305405D01*
X2539589Y-20319691D01*
X2553874Y-20333977D01*
X2568160Y-20362548D01*
X2582446Y-20419691D01*
X2582446Y-20491120D01*
X2568160Y-20548262D01*
X2553874Y-20576834D01*
X2539589Y-20591120D01*
X2511017Y-20605405D01*
X2482446Y-20605405D01*
X2453874Y-20591120D01*
X2439589Y-20576834D01*
X2425303Y-20548262D01*
X2411017Y-20491120D01*
X2411017Y-20419691D01*
X2425303Y-20362548D01*
X2439589Y-20333977D01*
X2453874Y-20319691D01*
X2482446Y-20305405D01*
X2768160Y-20305405D02*
X2796731Y-20305405D01*
X2825303Y-20319691D01*
X2839588Y-20333977D01*
X2853874Y-20362548D01*
X2868160Y-20419691D01*
X2868160Y-20491120D01*
X2853874Y-20548262D01*
X2839588Y-20576834D01*
X2825303Y-20591120D01*
X2796731Y-20605405D01*
X2768160Y-20605405D01*
X2739589Y-20591120D01*
X2725303Y-20576834D01*
X2711017Y-20548262D01*
X2696731Y-20491120D01*
X2696731Y-20419691D01*
X2711017Y-20362548D01*
X2725303Y-20333977D01*
X2739589Y-20319691D01*
X2768160Y-20305405D01*
X2996731Y-20605405D02*
X2996731Y-20405405D01*
X2996731Y-20433977D02*
X3011017Y-20419691D01*
X3039588Y-20405405D01*
X3082446Y-20405405D01*
X3111017Y-20419691D01*
X3125303Y-20448262D01*
X3125303Y-20605405D01*
X3125303Y-20448262D02*
X3139588Y-20419691D01*
X3168160Y-20405405D01*
X3211017Y-20405405D01*
X3239588Y-20419691D01*
X3253874Y-20448262D01*
X3253874Y-20605405D01*
X3396731Y-20605405D02*
X3396731Y-20405405D01*
X3396731Y-20433977D02*
X3411017Y-20419691D01*
X3439588Y-20405405D01*
X3482446Y-20405405D01*
X3511017Y-20419691D01*
X3525303Y-20448262D01*
X3525303Y-20605405D01*
X3525303Y-20448262D02*
X3539588Y-20419691D01*
X3568160Y-20405405D01*
X3611017Y-20405405D01*
X3639588Y-20419691D01*
X3653874Y-20448262D01*
X3653874Y-20605405D01*
X4239589Y-20291120D02*
X3982446Y-20676834D01*
X4625303Y-20305405D02*
X4653874Y-20305405D01*
X4682446Y-20319691D01*
X4696731Y-20333977D01*
X4711017Y-20362548D01*
X4725303Y-20419691D01*
X4725303Y-20491120D01*
X4711017Y-20548262D01*
X4696731Y-20576834D01*
X4682446Y-20591120D01*
X4653874Y-20605405D01*
X4625303Y-20605405D01*
X4596731Y-20591120D01*
X4582446Y-20576834D01*
X4568160Y-20548262D01*
X4553874Y-20491120D01*
X4553874Y-20419691D01*
X4568160Y-20362548D01*
X4582446Y-20333977D01*
X4596731Y-20319691D01*
X4625303Y-20305405D01*
X4853874Y-20576834D02*
X4868160Y-20591120D01*
X4853874Y-20605405D01*
X4839589Y-20591120D01*
X4853874Y-20576834D01*
X4853874Y-20605405D01*
X5053874Y-20305405D02*
X5082446Y-20305405D01*
X5111017Y-20319691D01*
X5125303Y-20333977D01*
X5139589Y-20362548D01*
X5153874Y-20419691D01*
X5153874Y-20491120D01*
X5139589Y-20548262D01*
X5125303Y-20576834D01*
X5111017Y-20591120D01*
X5082446Y-20605405D01*
X5053874Y-20605405D01*
X5025303Y-20591120D01*
X5011017Y-20576834D01*
X4996731Y-20548262D01*
X4982446Y-20491120D01*
X4982446Y-20419691D01*
X4996731Y-20362548D01*
X5011017Y-20333977D01*
X5025303Y-20319691D01*
X5053874Y-20305405D01*
X5253874Y-20305405D02*
X5453874Y-20305405D01*
X5325303Y-20605405D01*
X5625303Y-20305405D02*
X5653874Y-20305405D01*
X5682446Y-20319691D01*
X5696731Y-20333977D01*
X5711017Y-20362548D01*
X5725303Y-20419691D01*
X5725303Y-20491120D01*
X5711017Y-20548262D01*
X5696731Y-20576834D01*
X5682446Y-20591120D01*
X5653874Y-20605405D01*
X5625303Y-20605405D01*
X5596731Y-20591120D01*
X5582446Y-20576834D01*
X5568160Y-20548262D01*
X5553874Y-20491120D01*
X5553874Y-20419691D01*
X5568160Y-20362548D01*
X5582446Y-20333977D01*
X5596731Y-20319691D01*
X5625303Y-20305405D01*
X5868160Y-20605405D02*
X5925303Y-20605405D01*
X5953874Y-20591120D01*
X5968160Y-20576834D01*
X5996731Y-20533977D01*
X6011017Y-20476834D01*
X6011017Y-20362548D01*
X5996731Y-20333977D01*
X5982446Y-20319691D01*
X5953874Y-20305405D01*
X5896731Y-20305405D01*
X5868160Y-20319691D01*
X5853874Y-20333977D01*
X5839588Y-20362548D01*
X5839588Y-20433977D01*
X5853874Y-20462548D01*
X5868160Y-20476834D01*
X5896731Y-20491120D01*
X5953874Y-20491120D01*
X5982446Y-20476834D01*
X5996731Y-20462548D01*
X6011017Y-20433977D01*
X6125303Y-20305405D02*
X6125303Y-20362548D01*
X6239588Y-20305405D02*
X6239588Y-20362548D01*
X6682446Y-20719691D02*
X6668160Y-20705405D01*
X6639588Y-20662548D01*
X6625303Y-20633977D01*
X6611017Y-20591120D01*
X6596731Y-20519691D01*
X6596731Y-20462548D01*
X6611017Y-20391120D01*
X6625303Y-20348262D01*
X6639588Y-20319691D01*
X6668160Y-20276834D01*
X6682446Y-20262548D01*
X6953874Y-20605405D02*
X6782446Y-20605405D01*
X6868160Y-20605405D02*
X6868160Y-20305405D01*
X6839588Y-20348262D01*
X6811017Y-20376834D01*
X6782446Y-20391120D01*
X7125303Y-20433977D02*
X7096731Y-20419691D01*
X7082446Y-20405405D01*
X7068160Y-20376834D01*
X7068160Y-20362548D01*
X7082446Y-20333977D01*
X7096731Y-20319691D01*
X7125303Y-20305405D01*
X7182446Y-20305405D01*
X7211017Y-20319691D01*
X7225303Y-20333977D01*
X7239588Y-20362548D01*
X7239588Y-20376834D01*
X7225303Y-20405405D01*
X7211017Y-20419691D01*
X7182446Y-20433977D01*
X7125303Y-20433977D01*
X7096731Y-20448262D01*
X7082446Y-20462548D01*
X7068160Y-20491120D01*
X7068160Y-20548262D01*
X7082446Y-20576834D01*
X7096731Y-20591120D01*
X7125303Y-20605405D01*
X7182446Y-20605405D01*
X7211017Y-20591120D01*
X7225303Y-20576834D01*
X7239588Y-20548262D01*
X7239588Y-20491120D01*
X7225303Y-20462548D01*
X7211017Y-20448262D01*
X7182446Y-20433977D01*
X7425303Y-20305405D02*
X7453874Y-20305405D01*
X7482446Y-20319691D01*
X7496731Y-20333977D01*
X7511017Y-20362548D01*
X7525303Y-20419691D01*
X7525303Y-20491120D01*
X7511017Y-20548262D01*
X7496731Y-20576834D01*
X7482446Y-20591120D01*
X7453874Y-20605405D01*
X7425303Y-20605405D01*
X7396731Y-20591120D01*
X7382446Y-20576834D01*
X7368160Y-20548262D01*
X7353874Y-20491120D01*
X7353874Y-20419691D01*
X7368160Y-20362548D01*
X7382446Y-20333977D01*
X7396731Y-20319691D01*
X7425303Y-20305405D01*
X7882446Y-20605405D02*
X7882446Y-20305405D01*
X8011017Y-20605405D02*
X8011017Y-20448262D01*
X7996731Y-20419691D01*
X7968160Y-20405405D01*
X7925303Y-20405405D01*
X7896731Y-20419691D01*
X7882446Y-20433977D01*
X8196731Y-20605405D02*
X8168160Y-20591120D01*
X8153874Y-20576834D01*
X8139588Y-20548262D01*
X8139588Y-20462548D01*
X8153874Y-20433977D01*
X8168160Y-20419691D01*
X8196731Y-20405405D01*
X8239588Y-20405405D01*
X8268160Y-20419691D01*
X8282446Y-20433977D01*
X8296731Y-20462548D01*
X8296731Y-20548262D01*
X8282446Y-20576834D01*
X8268160Y-20591120D01*
X8239588Y-20605405D01*
X8196731Y-20605405D01*
X8468160Y-20605405D02*
X8439588Y-20591120D01*
X8425303Y-20562548D01*
X8425303Y-20305405D01*
X8696731Y-20591120D02*
X8668160Y-20605405D01*
X8611017Y-20605405D01*
X8582446Y-20591120D01*
X8568160Y-20562548D01*
X8568160Y-20448262D01*
X8582446Y-20419691D01*
X8611017Y-20405405D01*
X8668160Y-20405405D01*
X8696731Y-20419691D01*
X8711017Y-20448262D01*
X8711017Y-20476834D01*
X8568160Y-20505405D01*
X8825303Y-20591120D02*
X8853874Y-20605405D01*
X8911017Y-20605405D01*
X8939588Y-20591120D01*
X8953874Y-20562548D01*
X8953874Y-20548262D01*
X8939588Y-20519691D01*
X8911017Y-20505405D01*
X8868160Y-20505405D01*
X8839588Y-20491120D01*
X8825303Y-20462548D01*
X8825303Y-20448262D01*
X8839588Y-20419691D01*
X8868160Y-20405405D01*
X8911017Y-20405405D01*
X8939588Y-20419691D01*
X9053874Y-20719691D02*
X9068160Y-20705405D01*
X9096731Y-20662548D01*
X9111017Y-20633977D01*
X9125303Y-20591120D01*
X9139588Y-20519691D01*
X9139588Y-20462548D01*
X9125303Y-20391120D01*
X9111017Y-20348262D01*
X9096731Y-20319691D01*
X9068160Y-20276834D01*
X9053874Y-20262548D01*
X9596731Y-20719691D02*
X9582446Y-20705405D01*
X9553874Y-20662548D01*
X9539588Y-20633977D01*
X9525303Y-20591120D01*
X9511017Y-20519691D01*
X9511017Y-20462548D01*
X9525303Y-20391120D01*
X9539588Y-20348262D01*
X9553874Y-20319691D01*
X9582446Y-20276834D01*
X9596731Y-20262548D01*
X9711017Y-20405405D02*
X9711017Y-20605405D01*
X9711017Y-20433977D02*
X9725303Y-20419691D01*
X9753874Y-20405405D01*
X9796731Y-20405405D01*
X9825303Y-20419691D01*
X9839588Y-20448262D01*
X9839588Y-20605405D01*
X10025303Y-20605405D02*
X9996731Y-20591120D01*
X9982446Y-20576834D01*
X9968160Y-20548262D01*
X9968160Y-20462548D01*
X9982446Y-20433977D01*
X9996731Y-20419691D01*
X10025303Y-20405405D01*
X10068160Y-20405405D01*
X10096731Y-20419691D01*
X10111017Y-20433977D01*
X10125303Y-20462548D01*
X10125303Y-20548262D01*
X10111017Y-20576834D01*
X10096731Y-20591120D01*
X10068160Y-20605405D01*
X10025303Y-20605405D01*
X10211017Y-20405405D02*
X10325303Y-20405405D01*
X10253874Y-20305405D02*
X10253874Y-20562548D01*
X10268160Y-20591120D01*
X10296731Y-20605405D01*
X10325303Y-20605405D01*
X10653874Y-20405405D02*
X10653874Y-20705405D01*
X10653874Y-20419691D02*
X10682446Y-20405405D01*
X10739588Y-20405405D01*
X10768160Y-20419691D01*
X10782446Y-20433977D01*
X10796731Y-20462548D01*
X10796731Y-20548262D01*
X10782446Y-20576834D01*
X10768160Y-20591120D01*
X10739588Y-20605405D01*
X10682446Y-20605405D01*
X10653874Y-20591120D01*
X10968160Y-20605405D02*
X10939588Y-20591120D01*
X10925303Y-20562548D01*
X10925303Y-20305405D01*
X11211017Y-20605405D02*
X11211017Y-20448262D01*
X11196731Y-20419691D01*
X11168160Y-20405405D01*
X11111017Y-20405405D01*
X11082446Y-20419691D01*
X11211017Y-20591120D02*
X11182446Y-20605405D01*
X11111017Y-20605405D01*
X11082446Y-20591120D01*
X11068160Y-20562548D01*
X11068160Y-20533977D01*
X11082446Y-20505405D01*
X11111017Y-20491120D01*
X11182446Y-20491120D01*
X11211017Y-20476834D01*
X11311017Y-20405405D02*
X11425303Y-20405405D01*
X11353874Y-20305405D02*
X11353874Y-20562548D01*
X11368160Y-20591120D01*
X11396731Y-20605405D01*
X11425303Y-20605405D01*
X11639588Y-20591120D02*
X11611017Y-20605405D01*
X11553874Y-20605405D01*
X11525303Y-20591120D01*
X11511017Y-20562548D01*
X11511017Y-20448262D01*
X11525303Y-20419691D01*
X11553874Y-20405405D01*
X11611017Y-20405405D01*
X11639588Y-20419691D01*
X11653874Y-20448262D01*
X11653874Y-20476834D01*
X11511017Y-20505405D01*
X11911017Y-20605405D02*
X11911017Y-20305405D01*
X11911017Y-20591120D02*
X11882446Y-20605405D01*
X11825303Y-20605405D01*
X11796731Y-20591120D01*
X11782446Y-20576834D01*
X11768160Y-20548262D01*
X11768160Y-20462548D01*
X11782446Y-20433977D01*
X11796731Y-20419691D01*
X11825303Y-20405405D01*
X11882446Y-20405405D01*
X11911017Y-20419691D01*
X12025303Y-20719691D02*
X12039588Y-20705405D01*
X12068160Y-20662548D01*
X12082446Y-20633977D01*
X12096731Y-20591120D01*
X12111017Y-20519691D01*
X12111017Y-20462548D01*
X12096731Y-20391120D01*
X12082446Y-20348262D01*
X12068160Y-20319691D01*
X12039588Y-20276834D01*
X12025303Y-20262548D01*
X1274589Y-20715691D02*
X1274589Y-21015691D01*
X1124589Y-20865691D02*
X1424588Y-20865691D01*
X1682446Y-20701405D02*
X1868160Y-20701405D01*
X1768160Y-20815691D01*
X1811017Y-20815691D01*
X1839588Y-20829977D01*
X1853874Y-20844262D01*
X1868160Y-20872834D01*
X1868160Y-20944262D01*
X1853874Y-20972834D01*
X1839588Y-20987120D01*
X1811017Y-21001405D01*
X1725303Y-21001405D01*
X1696731Y-20987120D01*
X1682446Y-20972834D01*
X1996731Y-20972834D02*
X2011017Y-20987120D01*
X1996731Y-21001405D01*
X1982446Y-20987120D01*
X1996731Y-20972834D01*
X1996731Y-21001405D01*
X2196731Y-20701405D02*
X2225303Y-20701405D01*
X2253874Y-20715691D01*
X2268160Y-20729977D01*
X2282446Y-20758548D01*
X2296731Y-20815691D01*
X2296731Y-20887120D01*
X2282446Y-20944262D01*
X2268160Y-20972834D01*
X2253874Y-20987120D01*
X2225303Y-21001405D01*
X2196731Y-21001405D01*
X2168160Y-20987120D01*
X2153874Y-20972834D01*
X2139589Y-20944262D01*
X2125303Y-20887120D01*
X2125303Y-20815691D01*
X2139589Y-20758548D01*
X2153874Y-20729977D01*
X2168160Y-20715691D01*
X2196731Y-20701405D01*
X2482446Y-20701405D02*
X2511017Y-20701405D01*
X2539589Y-20715691D01*
X2553874Y-20729977D01*
X2568160Y-20758548D01*
X2582446Y-20815691D01*
X2582446Y-20887120D01*
X2568160Y-20944262D01*
X2553874Y-20972834D01*
X2539589Y-20987120D01*
X2511017Y-21001405D01*
X2482446Y-21001405D01*
X2453874Y-20987120D01*
X2439589Y-20972834D01*
X2425303Y-20944262D01*
X2411017Y-20887120D01*
X2411017Y-20815691D01*
X2425303Y-20758548D01*
X2439589Y-20729977D01*
X2453874Y-20715691D01*
X2482446Y-20701405D01*
X2768160Y-20701405D02*
X2796731Y-20701405D01*
X2825303Y-20715691D01*
X2839588Y-20729977D01*
X2853874Y-20758548D01*
X2868160Y-20815691D01*
X2868160Y-20887120D01*
X2853874Y-20944262D01*
X2839588Y-20972834D01*
X2825303Y-20987120D01*
X2796731Y-21001405D01*
X2768160Y-21001405D01*
X2739589Y-20987120D01*
X2725303Y-20972834D01*
X2711017Y-20944262D01*
X2696731Y-20887120D01*
X2696731Y-20815691D01*
X2711017Y-20758548D01*
X2725303Y-20729977D01*
X2739589Y-20715691D01*
X2768160Y-20701405D01*
X2996731Y-21001405D02*
X2996731Y-20801405D01*
X2996731Y-20829977D02*
X3011017Y-20815691D01*
X3039588Y-20801405D01*
X3082446Y-20801405D01*
X3111017Y-20815691D01*
X3125303Y-20844262D01*
X3125303Y-21001405D01*
X3125303Y-20844262D02*
X3139588Y-20815691D01*
X3168160Y-20801405D01*
X3211017Y-20801405D01*
X3239588Y-20815691D01*
X3253874Y-20844262D01*
X3253874Y-21001405D01*
X3396731Y-21001405D02*
X3396731Y-20801405D01*
X3396731Y-20829977D02*
X3411017Y-20815691D01*
X3439588Y-20801405D01*
X3482446Y-20801405D01*
X3511017Y-20815691D01*
X3525303Y-20844262D01*
X3525303Y-21001405D01*
X3525303Y-20844262D02*
X3539588Y-20815691D01*
X3568160Y-20801405D01*
X3611017Y-20801405D01*
X3639588Y-20815691D01*
X3653874Y-20844262D01*
X3653874Y-21001405D01*
X4239589Y-20687120D02*
X3982446Y-21072834D01*
X4625303Y-20701405D02*
X4653874Y-20701405D01*
X4682446Y-20715691D01*
X4696731Y-20729977D01*
X4711017Y-20758548D01*
X4725303Y-20815691D01*
X4725303Y-20887120D01*
X4711017Y-20944262D01*
X4696731Y-20972834D01*
X4682446Y-20987120D01*
X4653874Y-21001405D01*
X4625303Y-21001405D01*
X4596731Y-20987120D01*
X4582446Y-20972834D01*
X4568160Y-20944262D01*
X4553874Y-20887120D01*
X4553874Y-20815691D01*
X4568160Y-20758548D01*
X4582446Y-20729977D01*
X4596731Y-20715691D01*
X4625303Y-20701405D01*
X4853874Y-20972834D02*
X4868160Y-20987120D01*
X4853874Y-21001405D01*
X4839589Y-20987120D01*
X4853874Y-20972834D01*
X4853874Y-21001405D01*
X5153874Y-21001405D02*
X4982446Y-21001405D01*
X5068160Y-21001405D02*
X5068160Y-20701405D01*
X5039589Y-20744262D01*
X5011017Y-20772834D01*
X4982446Y-20787120D01*
X5439588Y-21001405D02*
X5268160Y-21001405D01*
X5353874Y-21001405D02*
X5353874Y-20701405D01*
X5325303Y-20744262D01*
X5296731Y-20772834D01*
X5268160Y-20787120D01*
X5611017Y-20829977D02*
X5582446Y-20815691D01*
X5568160Y-20801405D01*
X5553874Y-20772834D01*
X5553874Y-20758548D01*
X5568160Y-20729977D01*
X5582446Y-20715691D01*
X5611017Y-20701405D01*
X5668160Y-20701405D01*
X5696731Y-20715691D01*
X5711017Y-20729977D01*
X5725303Y-20758548D01*
X5725303Y-20772834D01*
X5711017Y-20801405D01*
X5696731Y-20815691D01*
X5668160Y-20829977D01*
X5611017Y-20829977D01*
X5582446Y-20844262D01*
X5568160Y-20858548D01*
X5553874Y-20887120D01*
X5553874Y-20944262D01*
X5568160Y-20972834D01*
X5582446Y-20987120D01*
X5611017Y-21001405D01*
X5668160Y-21001405D01*
X5696731Y-20987120D01*
X5711017Y-20972834D01*
X5725303Y-20944262D01*
X5725303Y-20887120D01*
X5711017Y-20858548D01*
X5696731Y-20844262D01*
X5668160Y-20829977D01*
X6011017Y-21001405D02*
X5839588Y-21001405D01*
X5925303Y-21001405D02*
X5925303Y-20701405D01*
X5896731Y-20744262D01*
X5868160Y-20772834D01*
X5839588Y-20787120D01*
X6125303Y-20701405D02*
X6125303Y-20758548D01*
X6239588Y-20701405D02*
X6239588Y-20758548D01*
X6682446Y-21115691D02*
X6668160Y-21101405D01*
X6639588Y-21058548D01*
X6625303Y-21029977D01*
X6611017Y-20987120D01*
X6596731Y-20915691D01*
X6596731Y-20858548D01*
X6611017Y-20787120D01*
X6625303Y-20744262D01*
X6639588Y-20715691D01*
X6668160Y-20672834D01*
X6682446Y-20658548D01*
X6953874Y-21001405D02*
X6782446Y-21001405D01*
X6868160Y-21001405D02*
X6868160Y-20701405D01*
X6839588Y-20744262D01*
X6811017Y-20772834D01*
X6782446Y-20787120D01*
X7125303Y-20829977D02*
X7096731Y-20815691D01*
X7082446Y-20801405D01*
X7068160Y-20772834D01*
X7068160Y-20758548D01*
X7082446Y-20729977D01*
X7096731Y-20715691D01*
X7125303Y-20701405D01*
X7182446Y-20701405D01*
X7211017Y-20715691D01*
X7225303Y-20729977D01*
X7239588Y-20758548D01*
X7239588Y-20772834D01*
X7225303Y-20801405D01*
X7211017Y-20815691D01*
X7182446Y-20829977D01*
X7125303Y-20829977D01*
X7096731Y-20844262D01*
X7082446Y-20858548D01*
X7068160Y-20887120D01*
X7068160Y-20944262D01*
X7082446Y-20972834D01*
X7096731Y-20987120D01*
X7125303Y-21001405D01*
X7182446Y-21001405D01*
X7211017Y-20987120D01*
X7225303Y-20972834D01*
X7239588Y-20944262D01*
X7239588Y-20887120D01*
X7225303Y-20858548D01*
X7211017Y-20844262D01*
X7182446Y-20829977D01*
X7425303Y-20701405D02*
X7453874Y-20701405D01*
X7482446Y-20715691D01*
X7496731Y-20729977D01*
X7511017Y-20758548D01*
X7525303Y-20815691D01*
X7525303Y-20887120D01*
X7511017Y-20944262D01*
X7496731Y-20972834D01*
X7482446Y-20987120D01*
X7453874Y-21001405D01*
X7425303Y-21001405D01*
X7396731Y-20987120D01*
X7382446Y-20972834D01*
X7368160Y-20944262D01*
X7353874Y-20887120D01*
X7353874Y-20815691D01*
X7368160Y-20758548D01*
X7382446Y-20729977D01*
X7396731Y-20715691D01*
X7425303Y-20701405D01*
X7882446Y-21001405D02*
X7882446Y-20701405D01*
X8011017Y-21001405D02*
X8011017Y-20844262D01*
X7996731Y-20815691D01*
X7968160Y-20801405D01*
X7925303Y-20801405D01*
X7896731Y-20815691D01*
X7882446Y-20829977D01*
X8196731Y-21001405D02*
X8168160Y-20987120D01*
X8153874Y-20972834D01*
X8139588Y-20944262D01*
X8139588Y-20858548D01*
X8153874Y-20829977D01*
X8168160Y-20815691D01*
X8196731Y-20801405D01*
X8239588Y-20801405D01*
X8268160Y-20815691D01*
X8282446Y-20829977D01*
X8296731Y-20858548D01*
X8296731Y-20944262D01*
X8282446Y-20972834D01*
X8268160Y-20987120D01*
X8239588Y-21001405D01*
X8196731Y-21001405D01*
X8468160Y-21001405D02*
X8439588Y-20987120D01*
X8425303Y-20958548D01*
X8425303Y-20701405D01*
X8696731Y-20987120D02*
X8668160Y-21001405D01*
X8611017Y-21001405D01*
X8582446Y-20987120D01*
X8568160Y-20958548D01*
X8568160Y-20844262D01*
X8582446Y-20815691D01*
X8611017Y-20801405D01*
X8668160Y-20801405D01*
X8696731Y-20815691D01*
X8711017Y-20844262D01*
X8711017Y-20872834D01*
X8568160Y-20901405D01*
X8825303Y-20987120D02*
X8853874Y-21001405D01*
X8911017Y-21001405D01*
X8939588Y-20987120D01*
X8953874Y-20958548D01*
X8953874Y-20944262D01*
X8939588Y-20915691D01*
X8911017Y-20901405D01*
X8868160Y-20901405D01*
X8839588Y-20887120D01*
X8825303Y-20858548D01*
X8825303Y-20844262D01*
X8839588Y-20815691D01*
X8868160Y-20801405D01*
X8911017Y-20801405D01*
X8939588Y-20815691D01*
X9053874Y-21115691D02*
X9068160Y-21101405D01*
X9096731Y-21058548D01*
X9111017Y-21029977D01*
X9125303Y-20987120D01*
X9139588Y-20915691D01*
X9139588Y-20858548D01*
X9125303Y-20787120D01*
X9111017Y-20744262D01*
X9096731Y-20715691D01*
X9068160Y-20672834D01*
X9053874Y-20658548D01*
X9596731Y-21115691D02*
X9582446Y-21101405D01*
X9553874Y-21058548D01*
X9539588Y-21029977D01*
X9525303Y-20987120D01*
X9511017Y-20915691D01*
X9511017Y-20858548D01*
X9525303Y-20787120D01*
X9539588Y-20744262D01*
X9553874Y-20715691D01*
X9582446Y-20672834D01*
X9596731Y-20658548D01*
X9711017Y-20801405D02*
X9711017Y-21001405D01*
X9711017Y-20829977D02*
X9725303Y-20815691D01*
X9753874Y-20801405D01*
X9796731Y-20801405D01*
X9825303Y-20815691D01*
X9839588Y-20844262D01*
X9839588Y-21001405D01*
X10025303Y-21001405D02*
X9996731Y-20987120D01*
X9982446Y-20972834D01*
X9968160Y-20944262D01*
X9968160Y-20858548D01*
X9982446Y-20829977D01*
X9996731Y-20815691D01*
X10025303Y-20801405D01*
X10068160Y-20801405D01*
X10096731Y-20815691D01*
X10111017Y-20829977D01*
X10125303Y-20858548D01*
X10125303Y-20944262D01*
X10111017Y-20972834D01*
X10096731Y-20987120D01*
X10068160Y-21001405D01*
X10025303Y-21001405D01*
X10211017Y-20801405D02*
X10325303Y-20801405D01*
X10253874Y-20701405D02*
X10253874Y-20958548D01*
X10268160Y-20987120D01*
X10296731Y-21001405D01*
X10325303Y-21001405D01*
X10653874Y-20801405D02*
X10653874Y-21101405D01*
X10653874Y-20815691D02*
X10682446Y-20801405D01*
X10739588Y-20801405D01*
X10768160Y-20815691D01*
X10782446Y-20829977D01*
X10796731Y-20858548D01*
X10796731Y-20944262D01*
X10782446Y-20972834D01*
X10768160Y-20987120D01*
X10739588Y-21001405D01*
X10682446Y-21001405D01*
X10653874Y-20987120D01*
X10968160Y-21001405D02*
X10939588Y-20987120D01*
X10925303Y-20958548D01*
X10925303Y-20701405D01*
X11211017Y-21001405D02*
X11211017Y-20844262D01*
X11196731Y-20815691D01*
X11168160Y-20801405D01*
X11111017Y-20801405D01*
X11082446Y-20815691D01*
X11211017Y-20987120D02*
X11182446Y-21001405D01*
X11111017Y-21001405D01*
X11082446Y-20987120D01*
X11068160Y-20958548D01*
X11068160Y-20929977D01*
X11082446Y-20901405D01*
X11111017Y-20887120D01*
X11182446Y-20887120D01*
X11211017Y-20872834D01*
X11311017Y-20801405D02*
X11425303Y-20801405D01*
X11353874Y-20701405D02*
X11353874Y-20958548D01*
X11368160Y-20987120D01*
X11396731Y-21001405D01*
X11425303Y-21001405D01*
X11639588Y-20987120D02*
X11611017Y-21001405D01*
X11553874Y-21001405D01*
X11525303Y-20987120D01*
X11511017Y-20958548D01*
X11511017Y-20844262D01*
X11525303Y-20815691D01*
X11553874Y-20801405D01*
X11611017Y-20801405D01*
X11639588Y-20815691D01*
X11653874Y-20844262D01*
X11653874Y-20872834D01*
X11511017Y-20901405D01*
X11911017Y-21001405D02*
X11911017Y-20701405D01*
X11911017Y-20987120D02*
X11882446Y-21001405D01*
X11825303Y-21001405D01*
X11796731Y-20987120D01*
X11782446Y-20972834D01*
X11768160Y-20944262D01*
X11768160Y-20858548D01*
X11782446Y-20829977D01*
X11796731Y-20815691D01*
X11825303Y-20801405D01*
X11882446Y-20801405D01*
X11911017Y-20815691D01*
X12025303Y-21115691D02*
X12039588Y-21101405D01*
X12068160Y-21058548D01*
X12082446Y-21029977D01*
X12096731Y-20987120D01*
X12111017Y-20915691D01*
X12111017Y-20858548D01*
X12096731Y-20787120D01*
X12082446Y-20744262D01*
X12068160Y-20715691D01*
X12039588Y-20672834D01*
X12025303Y-20658548D01*
X1379953Y-21403455D02*
X1379953Y-21187927D01*
X1164424Y-21187927D01*
X1164424Y-21403455D01*
X1379953Y-21403455D01*
X1682446Y-21131405D02*
X1868160Y-21131405D01*
X1768160Y-21245691D01*
X1811017Y-21245691D01*
X1839588Y-21259977D01*
X1853874Y-21274262D01*
X1868160Y-21302834D01*
X1868160Y-21374262D01*
X1853874Y-21402834D01*
X1839588Y-21417120D01*
X1811017Y-21431405D01*
X1725303Y-21431405D01*
X1696731Y-21417120D01*
X1682446Y-21402834D01*
X1996731Y-21402834D02*
X2011017Y-21417120D01*
X1996731Y-21431405D01*
X1982446Y-21417120D01*
X1996731Y-21402834D01*
X1996731Y-21431405D01*
X2196731Y-21131405D02*
X2225303Y-21131405D01*
X2253874Y-21145691D01*
X2268160Y-21159977D01*
X2282446Y-21188548D01*
X2296731Y-21245691D01*
X2296731Y-21317120D01*
X2282446Y-21374262D01*
X2268160Y-21402834D01*
X2253874Y-21417120D01*
X2225303Y-21431405D01*
X2196731Y-21431405D01*
X2168160Y-21417120D01*
X2153874Y-21402834D01*
X2139589Y-21374262D01*
X2125303Y-21317120D01*
X2125303Y-21245691D01*
X2139589Y-21188548D01*
X2153874Y-21159977D01*
X2168160Y-21145691D01*
X2196731Y-21131405D01*
X2553874Y-21231405D02*
X2553874Y-21431405D01*
X2482446Y-21117120D02*
X2411017Y-21331405D01*
X2596731Y-21331405D01*
X2753874Y-21259977D02*
X2725303Y-21245691D01*
X2711017Y-21231405D01*
X2696731Y-21202834D01*
X2696731Y-21188548D01*
X2711017Y-21159977D01*
X2725303Y-21145691D01*
X2753874Y-21131405D01*
X2811017Y-21131405D01*
X2839588Y-21145691D01*
X2853874Y-21159977D01*
X2868160Y-21188548D01*
X2868160Y-21202834D01*
X2853874Y-21231405D01*
X2839588Y-21245691D01*
X2811017Y-21259977D01*
X2753874Y-21259977D01*
X2725303Y-21274262D01*
X2711017Y-21288548D01*
X2696731Y-21317120D01*
X2696731Y-21374262D01*
X2711017Y-21402834D01*
X2725303Y-21417120D01*
X2753874Y-21431405D01*
X2811017Y-21431405D01*
X2839588Y-21417120D01*
X2853874Y-21402834D01*
X2868160Y-21374262D01*
X2868160Y-21317120D01*
X2853874Y-21288548D01*
X2839588Y-21274262D01*
X2811017Y-21259977D01*
X2996731Y-21431405D02*
X2996731Y-21231405D01*
X2996731Y-21259977D02*
X3011017Y-21245691D01*
X3039588Y-21231405D01*
X3082446Y-21231405D01*
X3111017Y-21245691D01*
X3125303Y-21274262D01*
X3125303Y-21431405D01*
X3125303Y-21274262D02*
X3139588Y-21245691D01*
X3168160Y-21231405D01*
X3211017Y-21231405D01*
X3239588Y-21245691D01*
X3253874Y-21274262D01*
X3253874Y-21431405D01*
X3396731Y-21431405D02*
X3396731Y-21231405D01*
X3396731Y-21259977D02*
X3411017Y-21245691D01*
X3439588Y-21231405D01*
X3482446Y-21231405D01*
X3511017Y-21245691D01*
X3525303Y-21274262D01*
X3525303Y-21431405D01*
X3525303Y-21274262D02*
X3539588Y-21245691D01*
X3568160Y-21231405D01*
X3611017Y-21231405D01*
X3639588Y-21245691D01*
X3653874Y-21274262D01*
X3653874Y-21431405D01*
X4239589Y-21117120D02*
X3982446Y-21502834D01*
X4625303Y-21131405D02*
X4653874Y-21131405D01*
X4682446Y-21145691D01*
X4696731Y-21159977D01*
X4711017Y-21188548D01*
X4725303Y-21245691D01*
X4725303Y-21317120D01*
X4711017Y-21374262D01*
X4696731Y-21402834D01*
X4682446Y-21417120D01*
X4653874Y-21431405D01*
X4625303Y-21431405D01*
X4596731Y-21417120D01*
X4582446Y-21402834D01*
X4568160Y-21374262D01*
X4553874Y-21317120D01*
X4553874Y-21245691D01*
X4568160Y-21188548D01*
X4582446Y-21159977D01*
X4596731Y-21145691D01*
X4625303Y-21131405D01*
X4853874Y-21402834D02*
X4868160Y-21417120D01*
X4853874Y-21431405D01*
X4839589Y-21417120D01*
X4853874Y-21402834D01*
X4853874Y-21431405D01*
X5153874Y-21431405D02*
X4982446Y-21431405D01*
X5068160Y-21431405D02*
X5068160Y-21131405D01*
X5039589Y-21174262D01*
X5011017Y-21202834D01*
X4982446Y-21217120D01*
X5268160Y-21159977D02*
X5282446Y-21145691D01*
X5311017Y-21131405D01*
X5382446Y-21131405D01*
X5411017Y-21145691D01*
X5425303Y-21159977D01*
X5439588Y-21188548D01*
X5439588Y-21217120D01*
X5425303Y-21259977D01*
X5253874Y-21431405D01*
X5439588Y-21431405D01*
X5625303Y-21131405D02*
X5653874Y-21131405D01*
X5682446Y-21145691D01*
X5696731Y-21159977D01*
X5711017Y-21188548D01*
X5725303Y-21245691D01*
X5725303Y-21317120D01*
X5711017Y-21374262D01*
X5696731Y-21402834D01*
X5682446Y-21417120D01*
X5653874Y-21431405D01*
X5625303Y-21431405D01*
X5596731Y-21417120D01*
X5582446Y-21402834D01*
X5568160Y-21374262D01*
X5553874Y-21317120D01*
X5553874Y-21245691D01*
X5568160Y-21188548D01*
X5582446Y-21159977D01*
X5596731Y-21145691D01*
X5625303Y-21131405D01*
X5911017Y-21131405D02*
X5939588Y-21131405D01*
X5968160Y-21145691D01*
X5982446Y-21159977D01*
X5996731Y-21188548D01*
X6011017Y-21245691D01*
X6011017Y-21317120D01*
X5996731Y-21374262D01*
X5982446Y-21402834D01*
X5968160Y-21417120D01*
X5939588Y-21431405D01*
X5911017Y-21431405D01*
X5882446Y-21417120D01*
X5868160Y-21402834D01*
X5853874Y-21374262D01*
X5839588Y-21317120D01*
X5839588Y-21245691D01*
X5853874Y-21188548D01*
X5868160Y-21159977D01*
X5882446Y-21145691D01*
X5911017Y-21131405D01*
X6125303Y-21131405D02*
X6125303Y-21188548D01*
X6239588Y-21131405D02*
X6239588Y-21188548D01*
X6682446Y-21545691D02*
X6668160Y-21531405D01*
X6639588Y-21488548D01*
X6625303Y-21459977D01*
X6611017Y-21417120D01*
X6596731Y-21345691D01*
X6596731Y-21288548D01*
X6611017Y-21217120D01*
X6625303Y-21174262D01*
X6639588Y-21145691D01*
X6668160Y-21102834D01*
X6682446Y-21088548D01*
X6925303Y-21231405D02*
X6925303Y-21431405D01*
X6853874Y-21117120D02*
X6782446Y-21331405D01*
X6968160Y-21331405D01*
X7311017Y-21431405D02*
X7311017Y-21131405D01*
X7439588Y-21431405D02*
X7439588Y-21274262D01*
X7425303Y-21245691D01*
X7396731Y-21231405D01*
X7353874Y-21231405D01*
X7325303Y-21245691D01*
X7311017Y-21259977D01*
X7625303Y-21431405D02*
X7596731Y-21417120D01*
X7582446Y-21402834D01*
X7568160Y-21374262D01*
X7568160Y-21288548D01*
X7582446Y-21259977D01*
X7596731Y-21245691D01*
X7625303Y-21231405D01*
X7668160Y-21231405D01*
X7696731Y-21245691D01*
X7711017Y-21259977D01*
X7725303Y-21288548D01*
X7725303Y-21374262D01*
X7711017Y-21402834D01*
X7696731Y-21417120D01*
X7668160Y-21431405D01*
X7625303Y-21431405D01*
X7896731Y-21431405D02*
X7868160Y-21417120D01*
X7853874Y-21388548D01*
X7853874Y-21131405D01*
X8125303Y-21417120D02*
X8096731Y-21431405D01*
X8039588Y-21431405D01*
X8011017Y-21417120D01*
X7996731Y-21388548D01*
X7996731Y-21274262D01*
X8011017Y-21245691D01*
X8039588Y-21231405D01*
X8096731Y-21231405D01*
X8125303Y-21245691D01*
X8139588Y-21274262D01*
X8139588Y-21302834D01*
X7996731Y-21331405D01*
X8253874Y-21417120D02*
X8282446Y-21431405D01*
X8339588Y-21431405D01*
X8368160Y-21417120D01*
X8382446Y-21388548D01*
X8382446Y-21374262D01*
X8368160Y-21345691D01*
X8339588Y-21331405D01*
X8296731Y-21331405D01*
X8268160Y-21317120D01*
X8253874Y-21288548D01*
X8253874Y-21274262D01*
X8268160Y-21245691D01*
X8296731Y-21231405D01*
X8339588Y-21231405D01*
X8368160Y-21245691D01*
X8482446Y-21545691D02*
X8496731Y-21531405D01*
X8525303Y-21488548D01*
X8539589Y-21459977D01*
X8553874Y-21417120D01*
X8568160Y-21345691D01*
X8568160Y-21288548D01*
X8553874Y-21217120D01*
X8539589Y-21174262D01*
X8525303Y-21145691D01*
X8496731Y-21102834D01*
X8482446Y-21088548D01*
X9025303Y-21545691D02*
X9011017Y-21531405D01*
X8982446Y-21488548D01*
X8968160Y-21459977D01*
X8953874Y-21417120D01*
X8939589Y-21345691D01*
X8939589Y-21288548D01*
X8953874Y-21217120D01*
X8968160Y-21174262D01*
X8982446Y-21145691D01*
X9011017Y-21102834D01*
X9025303Y-21088548D01*
X9139589Y-21231405D02*
X9139589Y-21431405D01*
X9139589Y-21259977D02*
X9153874Y-21245691D01*
X9182446Y-21231405D01*
X9225303Y-21231405D01*
X9253874Y-21245691D01*
X9268160Y-21274262D01*
X9268160Y-21431405D01*
X9453874Y-21431405D02*
X9425303Y-21417120D01*
X9411017Y-21402834D01*
X9396731Y-21374262D01*
X9396731Y-21288548D01*
X9411017Y-21259977D01*
X9425303Y-21245691D01*
X9453874Y-21231405D01*
X9496731Y-21231405D01*
X9525303Y-21245691D01*
X9539589Y-21259977D01*
X9553874Y-21288548D01*
X9553874Y-21374262D01*
X9539589Y-21402834D01*
X9525303Y-21417120D01*
X9496731Y-21431405D01*
X9453874Y-21431405D01*
X9639589Y-21231405D02*
X9753874Y-21231405D01*
X9682446Y-21131405D02*
X9682446Y-21388548D01*
X9696731Y-21417120D01*
X9725303Y-21431405D01*
X9753874Y-21431405D01*
X10082446Y-21231405D02*
X10082446Y-21531405D01*
X10082446Y-21245691D02*
X10111017Y-21231405D01*
X10168160Y-21231405D01*
X10196731Y-21245691D01*
X10211017Y-21259977D01*
X10225303Y-21288548D01*
X10225303Y-21374262D01*
X10211017Y-21402834D01*
X10196731Y-21417120D01*
X10168160Y-21431405D01*
X10111017Y-21431405D01*
X10082446Y-21417120D01*
X10396731Y-21431405D02*
X10368160Y-21417120D01*
X10353874Y-21388548D01*
X10353874Y-21131405D01*
X10639589Y-21431405D02*
X10639589Y-21274262D01*
X10625303Y-21245691D01*
X10596731Y-21231405D01*
X10539589Y-21231405D01*
X10511017Y-21245691D01*
X10639589Y-21417120D02*
X10611017Y-21431405D01*
X10539589Y-21431405D01*
X10511017Y-21417120D01*
X10496731Y-21388548D01*
X10496731Y-21359977D01*
X10511017Y-21331405D01*
X10539589Y-21317120D01*
X10611017Y-21317120D01*
X10639589Y-21302834D01*
X10739589Y-21231405D02*
X10853874Y-21231405D01*
X10782446Y-21131405D02*
X10782446Y-21388548D01*
X10796731Y-21417120D01*
X10825303Y-21431405D01*
X10853874Y-21431405D01*
X11068160Y-21417120D02*
X11039589Y-21431405D01*
X10982446Y-21431405D01*
X10953874Y-21417120D01*
X10939589Y-21388548D01*
X10939589Y-21274262D01*
X10953874Y-21245691D01*
X10982446Y-21231405D01*
X11039589Y-21231405D01*
X11068160Y-21245691D01*
X11082446Y-21274262D01*
X11082446Y-21302834D01*
X10939589Y-21331405D01*
X11339588Y-21431405D02*
X11339588Y-21131405D01*
X11339588Y-21417120D02*
X11311017Y-21431405D01*
X11253874Y-21431405D01*
X11225303Y-21417120D01*
X11211017Y-21402834D01*
X11196731Y-21374262D01*
X11196731Y-21288548D01*
X11211017Y-21259977D01*
X11225303Y-21245691D01*
X11253874Y-21231405D01*
X11311017Y-21231405D01*
X11339588Y-21245691D01*
X11453874Y-21545691D02*
X11468160Y-21531405D01*
X11496731Y-21488548D01*
X11511017Y-21459977D01*
X11525303Y-21417120D01*
X11539588Y-21345691D01*
X11539588Y-21288548D01*
X11525303Y-21217120D01*
X11511017Y-21174262D01*
X11496731Y-21145691D01*
X11468160Y-21102834D01*
X11453874Y-21088548D01*
X1225199Y-21929881D02*
X1424588Y-21730491D01*
X1225199Y-21531101D01*
X1025808Y-21730491D01*
X1225199Y-21929881D01*
X1682446Y-21566205D02*
X1868160Y-21566205D01*
X1768160Y-21680491D01*
X1811017Y-21680491D01*
X1839588Y-21694777D01*
X1853874Y-21709062D01*
X1868160Y-21737634D01*
X1868160Y-21809062D01*
X1853874Y-21837634D01*
X1839588Y-21851920D01*
X1811017Y-21866205D01*
X1725303Y-21866205D01*
X1696731Y-21851920D01*
X1682446Y-21837634D01*
X1996731Y-21837634D02*
X2011017Y-21851920D01*
X1996731Y-21866205D01*
X1982446Y-21851920D01*
X1996731Y-21837634D01*
X1996731Y-21866205D01*
X2153874Y-21866205D02*
X2211017Y-21866205D01*
X2239589Y-21851920D01*
X2253874Y-21837634D01*
X2282446Y-21794777D01*
X2296731Y-21737634D01*
X2296731Y-21623348D01*
X2282446Y-21594777D01*
X2268160Y-21580491D01*
X2239589Y-21566205D01*
X2182446Y-21566205D01*
X2153874Y-21580491D01*
X2139589Y-21594777D01*
X2125303Y-21623348D01*
X2125303Y-21694777D01*
X2139589Y-21723348D01*
X2153874Y-21737634D01*
X2182446Y-21751920D01*
X2239589Y-21751920D01*
X2268160Y-21737634D01*
X2282446Y-21723348D01*
X2296731Y-21694777D01*
X2468160Y-21694777D02*
X2439589Y-21680491D01*
X2425303Y-21666205D01*
X2411017Y-21637634D01*
X2411017Y-21623348D01*
X2425303Y-21594777D01*
X2439589Y-21580491D01*
X2468160Y-21566205D01*
X2525303Y-21566205D01*
X2553874Y-21580491D01*
X2568160Y-21594777D01*
X2582446Y-21623348D01*
X2582446Y-21637634D01*
X2568160Y-21666205D01*
X2553874Y-21680491D01*
X2525303Y-21694777D01*
X2468160Y-21694777D01*
X2439589Y-21709062D01*
X2425303Y-21723348D01*
X2411017Y-21751920D01*
X2411017Y-21809062D01*
X2425303Y-21837634D01*
X2439589Y-21851920D01*
X2468160Y-21866205D01*
X2525303Y-21866205D01*
X2553874Y-21851920D01*
X2568160Y-21837634D01*
X2582446Y-21809062D01*
X2582446Y-21751920D01*
X2568160Y-21723348D01*
X2553874Y-21709062D01*
X2525303Y-21694777D01*
X2753874Y-21694777D02*
X2725303Y-21680491D01*
X2711017Y-21666205D01*
X2696731Y-21637634D01*
X2696731Y-21623348D01*
X2711017Y-21594777D01*
X2725303Y-21580491D01*
X2753874Y-21566205D01*
X2811017Y-21566205D01*
X2839588Y-21580491D01*
X2853874Y-21594777D01*
X2868160Y-21623348D01*
X2868160Y-21637634D01*
X2853874Y-21666205D01*
X2839588Y-21680491D01*
X2811017Y-21694777D01*
X2753874Y-21694777D01*
X2725303Y-21709062D01*
X2711017Y-21723348D01*
X2696731Y-21751920D01*
X2696731Y-21809062D01*
X2711017Y-21837634D01*
X2725303Y-21851920D01*
X2753874Y-21866205D01*
X2811017Y-21866205D01*
X2839588Y-21851920D01*
X2853874Y-21837634D01*
X2868160Y-21809062D01*
X2868160Y-21751920D01*
X2853874Y-21723348D01*
X2839588Y-21709062D01*
X2811017Y-21694777D01*
X2996731Y-21866205D02*
X2996731Y-21666205D01*
X2996731Y-21694777D02*
X3011017Y-21680491D01*
X3039588Y-21666205D01*
X3082446Y-21666205D01*
X3111017Y-21680491D01*
X3125303Y-21709062D01*
X3125303Y-21866205D01*
X3125303Y-21709062D02*
X3139588Y-21680491D01*
X3168160Y-21666205D01*
X3211017Y-21666205D01*
X3239588Y-21680491D01*
X3253874Y-21709062D01*
X3253874Y-21866205D01*
X3396731Y-21866205D02*
X3396731Y-21666205D01*
X3396731Y-21694777D02*
X3411017Y-21680491D01*
X3439588Y-21666205D01*
X3482446Y-21666205D01*
X3511017Y-21680491D01*
X3525303Y-21709062D01*
X3525303Y-21866205D01*
X3525303Y-21709062D02*
X3539588Y-21680491D01*
X3568160Y-21666205D01*
X3611017Y-21666205D01*
X3639588Y-21680491D01*
X3653874Y-21709062D01*
X3653874Y-21866205D01*
X4239589Y-21551920D02*
X3982446Y-21937634D01*
X4625303Y-21566205D02*
X4653874Y-21566205D01*
X4682446Y-21580491D01*
X4696731Y-21594777D01*
X4711017Y-21623348D01*
X4725303Y-21680491D01*
X4725303Y-21751920D01*
X4711017Y-21809062D01*
X4696731Y-21837634D01*
X4682446Y-21851920D01*
X4653874Y-21866205D01*
X4625303Y-21866205D01*
X4596731Y-21851920D01*
X4582446Y-21837634D01*
X4568160Y-21809062D01*
X4553874Y-21751920D01*
X4553874Y-21680491D01*
X4568160Y-21623348D01*
X4582446Y-21594777D01*
X4596731Y-21580491D01*
X4625303Y-21566205D01*
X4853874Y-21837634D02*
X4868160Y-21851920D01*
X4853874Y-21866205D01*
X4839589Y-21851920D01*
X4853874Y-21837634D01*
X4853874Y-21866205D01*
X5153874Y-21866205D02*
X4982446Y-21866205D01*
X5068160Y-21866205D02*
X5068160Y-21566205D01*
X5039589Y-21609062D01*
X5011017Y-21637634D01*
X4982446Y-21651920D01*
X5425303Y-21566205D02*
X5282446Y-21566205D01*
X5268160Y-21709062D01*
X5282446Y-21694777D01*
X5311017Y-21680491D01*
X5382446Y-21680491D01*
X5411017Y-21694777D01*
X5425303Y-21709062D01*
X5439588Y-21737634D01*
X5439588Y-21809062D01*
X5425303Y-21837634D01*
X5411017Y-21851920D01*
X5382446Y-21866205D01*
X5311017Y-21866205D01*
X5282446Y-21851920D01*
X5268160Y-21837634D01*
X5539588Y-21566205D02*
X5739588Y-21566205D01*
X5611017Y-21866205D01*
X5911017Y-21566205D02*
X5939588Y-21566205D01*
X5968160Y-21580491D01*
X5982446Y-21594777D01*
X5996731Y-21623348D01*
X6011017Y-21680491D01*
X6011017Y-21751920D01*
X5996731Y-21809062D01*
X5982446Y-21837634D01*
X5968160Y-21851920D01*
X5939588Y-21866205D01*
X5911017Y-21866205D01*
X5882446Y-21851920D01*
X5868160Y-21837634D01*
X5853874Y-21809062D01*
X5839588Y-21751920D01*
X5839588Y-21680491D01*
X5853874Y-21623348D01*
X5868160Y-21594777D01*
X5882446Y-21580491D01*
X5911017Y-21566205D01*
X6125303Y-21566205D02*
X6125303Y-21623348D01*
X6239588Y-21566205D02*
X6239588Y-21623348D01*
X6682446Y-21980491D02*
X6668160Y-21966205D01*
X6639588Y-21923348D01*
X6625303Y-21894777D01*
X6611017Y-21851920D01*
X6596731Y-21780491D01*
X6596731Y-21723348D01*
X6611017Y-21651920D01*
X6625303Y-21609062D01*
X6639588Y-21580491D01*
X6668160Y-21537634D01*
X6682446Y-21523348D01*
X6925303Y-21666205D02*
X6925303Y-21866205D01*
X6853874Y-21551920D02*
X6782446Y-21766205D01*
X6968160Y-21766205D01*
X7311017Y-21866205D02*
X7311017Y-21566205D01*
X7439588Y-21866205D02*
X7439588Y-21709062D01*
X7425303Y-21680491D01*
X7396731Y-21666205D01*
X7353874Y-21666205D01*
X7325303Y-21680491D01*
X7311017Y-21694777D01*
X7625303Y-21866205D02*
X7596731Y-21851920D01*
X7582446Y-21837634D01*
X7568160Y-21809062D01*
X7568160Y-21723348D01*
X7582446Y-21694777D01*
X7596731Y-21680491D01*
X7625303Y-21666205D01*
X7668160Y-21666205D01*
X7696731Y-21680491D01*
X7711017Y-21694777D01*
X7725303Y-21723348D01*
X7725303Y-21809062D01*
X7711017Y-21837634D01*
X7696731Y-21851920D01*
X7668160Y-21866205D01*
X7625303Y-21866205D01*
X7896731Y-21866205D02*
X7868160Y-21851920D01*
X7853874Y-21823348D01*
X7853874Y-21566205D01*
X8125303Y-21851920D02*
X8096731Y-21866205D01*
X8039588Y-21866205D01*
X8011017Y-21851920D01*
X7996731Y-21823348D01*
X7996731Y-21709062D01*
X8011017Y-21680491D01*
X8039588Y-21666205D01*
X8096731Y-21666205D01*
X8125303Y-21680491D01*
X8139588Y-21709062D01*
X8139588Y-21737634D01*
X7996731Y-21766205D01*
X8253874Y-21851920D02*
X8282446Y-21866205D01*
X8339588Y-21866205D01*
X8368160Y-21851920D01*
X8382446Y-21823348D01*
X8382446Y-21809062D01*
X8368160Y-21780491D01*
X8339588Y-21766205D01*
X8296731Y-21766205D01*
X8268160Y-21751920D01*
X8253874Y-21723348D01*
X8253874Y-21709062D01*
X8268160Y-21680491D01*
X8296731Y-21666205D01*
X8339588Y-21666205D01*
X8368160Y-21680491D01*
X8482446Y-21980491D02*
X8496731Y-21966205D01*
X8525303Y-21923348D01*
X8539589Y-21894777D01*
X8553874Y-21851920D01*
X8568160Y-21780491D01*
X8568160Y-21723348D01*
X8553874Y-21651920D01*
X8539589Y-21609062D01*
X8525303Y-21580491D01*
X8496731Y-21537634D01*
X8482446Y-21523348D01*
X9025303Y-21980491D02*
X9011017Y-21966205D01*
X8982446Y-21923348D01*
X8968160Y-21894777D01*
X8953874Y-21851920D01*
X8939589Y-21780491D01*
X8939589Y-21723348D01*
X8953874Y-21651920D01*
X8968160Y-21609062D01*
X8982446Y-21580491D01*
X9011017Y-21537634D01*
X9025303Y-21523348D01*
X9139589Y-21666205D02*
X9139589Y-21866205D01*
X9139589Y-21694777D02*
X9153874Y-21680491D01*
X9182446Y-21666205D01*
X9225303Y-21666205D01*
X9253874Y-21680491D01*
X9268160Y-21709062D01*
X9268160Y-21866205D01*
X9453874Y-21866205D02*
X9425303Y-21851920D01*
X9411017Y-21837634D01*
X9396731Y-21809062D01*
X9396731Y-21723348D01*
X9411017Y-21694777D01*
X9425303Y-21680491D01*
X9453874Y-21666205D01*
X9496731Y-21666205D01*
X9525303Y-21680491D01*
X9539589Y-21694777D01*
X9553874Y-21723348D01*
X9553874Y-21809062D01*
X9539589Y-21837634D01*
X9525303Y-21851920D01*
X9496731Y-21866205D01*
X9453874Y-21866205D01*
X9639589Y-21666205D02*
X9753874Y-21666205D01*
X9682446Y-21566205D02*
X9682446Y-21823348D01*
X9696731Y-21851920D01*
X9725303Y-21866205D01*
X9753874Y-21866205D01*
X10082446Y-21666205D02*
X10082446Y-21966205D01*
X10082446Y-21680491D02*
X10111017Y-21666205D01*
X10168160Y-21666205D01*
X10196731Y-21680491D01*
X10211017Y-21694777D01*
X10225303Y-21723348D01*
X10225303Y-21809062D01*
X10211017Y-21837634D01*
X10196731Y-21851920D01*
X10168160Y-21866205D01*
X10111017Y-21866205D01*
X10082446Y-21851920D01*
X10396731Y-21866205D02*
X10368160Y-21851920D01*
X10353874Y-21823348D01*
X10353874Y-21566205D01*
X10639589Y-21866205D02*
X10639589Y-21709062D01*
X10625303Y-21680491D01*
X10596731Y-21666205D01*
X10539589Y-21666205D01*
X10511017Y-21680491D01*
X10639589Y-21851920D02*
X10611017Y-21866205D01*
X10539589Y-21866205D01*
X10511017Y-21851920D01*
X10496731Y-21823348D01*
X10496731Y-21794777D01*
X10511017Y-21766205D01*
X10539589Y-21751920D01*
X10611017Y-21751920D01*
X10639589Y-21737634D01*
X10739589Y-21666205D02*
X10853874Y-21666205D01*
X10782446Y-21566205D02*
X10782446Y-21823348D01*
X10796731Y-21851920D01*
X10825303Y-21866205D01*
X10853874Y-21866205D01*
X11068160Y-21851920D02*
X11039589Y-21866205D01*
X10982446Y-21866205D01*
X10953874Y-21851920D01*
X10939589Y-21823348D01*
X10939589Y-21709062D01*
X10953874Y-21680491D01*
X10982446Y-21666205D01*
X11039589Y-21666205D01*
X11068160Y-21680491D01*
X11082446Y-21709062D01*
X11082446Y-21737634D01*
X10939589Y-21766205D01*
X11339588Y-21866205D02*
X11339588Y-21566205D01*
X11339588Y-21851920D02*
X11311017Y-21866205D01*
X11253874Y-21866205D01*
X11225303Y-21851920D01*
X11211017Y-21837634D01*
X11196731Y-21809062D01*
X11196731Y-21723348D01*
X11211017Y-21694777D01*
X11225303Y-21680491D01*
X11253874Y-21666205D01*
X11311017Y-21666205D01*
X11339588Y-21680491D01*
X11453874Y-21980491D02*
X11468160Y-21966205D01*
X11496731Y-21923348D01*
X11511017Y-21894777D01*
X11525303Y-21851920D01*
X11539588Y-21780491D01*
X11539588Y-21723348D01*
X11525303Y-21651920D01*
X11511017Y-21609062D01*
X11496731Y-21580491D01*
X11468160Y-21537634D01*
X11453874Y-21523348D01*
X1024588Y-22059271D02*
X1424588Y-22459271D01*
X1424588Y-22059271D02*
X1024588Y-22459271D01*
X1424588Y-22259271D02*
G75*
G03*
X1424588Y-22259271I-200000J0D01*
G01*
X1839588Y-22194985D02*
X1839588Y-22394985D01*
X1768160Y-22080700D02*
X1696731Y-22294985D01*
X1882446Y-22294985D01*
X1996731Y-22366414D02*
X2011017Y-22380699D01*
X1996731Y-22394985D01*
X1982446Y-22380699D01*
X1996731Y-22366414D01*
X1996731Y-22394985D01*
X2196731Y-22094985D02*
X2225303Y-22094985D01*
X2253874Y-22109271D01*
X2268160Y-22123557D01*
X2282446Y-22152128D01*
X2296731Y-22209271D01*
X2296731Y-22280700D01*
X2282446Y-22337842D01*
X2268160Y-22366414D01*
X2253874Y-22380699D01*
X2225303Y-22394985D01*
X2196731Y-22394985D01*
X2168160Y-22380699D01*
X2153874Y-22366414D01*
X2139589Y-22337842D01*
X2125303Y-22280700D01*
X2125303Y-22209271D01*
X2139589Y-22152128D01*
X2153874Y-22123557D01*
X2168160Y-22109271D01*
X2196731Y-22094985D01*
X2482446Y-22094985D02*
X2511017Y-22094985D01*
X2539589Y-22109271D01*
X2553874Y-22123557D01*
X2568160Y-22152128D01*
X2582446Y-22209271D01*
X2582446Y-22280700D01*
X2568160Y-22337842D01*
X2553874Y-22366414D01*
X2539589Y-22380699D01*
X2511017Y-22394985D01*
X2482446Y-22394985D01*
X2453874Y-22380699D01*
X2439589Y-22366414D01*
X2425303Y-22337842D01*
X2411017Y-22280700D01*
X2411017Y-22209271D01*
X2425303Y-22152128D01*
X2439589Y-22123557D01*
X2453874Y-22109271D01*
X2482446Y-22094985D01*
X2768160Y-22094985D02*
X2796731Y-22094985D01*
X2825303Y-22109271D01*
X2839588Y-22123557D01*
X2853874Y-22152128D01*
X2868160Y-22209271D01*
X2868160Y-22280700D01*
X2853874Y-22337842D01*
X2839588Y-22366414D01*
X2825303Y-22380699D01*
X2796731Y-22394985D01*
X2768160Y-22394985D01*
X2739589Y-22380699D01*
X2725303Y-22366414D01*
X2711017Y-22337842D01*
X2696731Y-22280700D01*
X2696731Y-22209271D01*
X2711017Y-22152128D01*
X2725303Y-22123557D01*
X2739589Y-22109271D01*
X2768160Y-22094985D01*
X2996731Y-22394985D02*
X2996731Y-22194985D01*
X2996731Y-22223557D02*
X3011017Y-22209271D01*
X3039588Y-22194985D01*
X3082446Y-22194985D01*
X3111017Y-22209271D01*
X3125303Y-22237842D01*
X3125303Y-22394985D01*
X3125303Y-22237842D02*
X3139588Y-22209271D01*
X3168160Y-22194985D01*
X3211017Y-22194985D01*
X3239588Y-22209271D01*
X3253874Y-22237842D01*
X3253874Y-22394985D01*
X3396731Y-22394985D02*
X3396731Y-22194985D01*
X3396731Y-22223557D02*
X3411017Y-22209271D01*
X3439588Y-22194985D01*
X3482446Y-22194985D01*
X3511017Y-22209271D01*
X3525303Y-22237842D01*
X3525303Y-22394985D01*
X3525303Y-22237842D02*
X3539588Y-22209271D01*
X3568160Y-22194985D01*
X3611017Y-22194985D01*
X3639588Y-22209271D01*
X3653874Y-22237842D01*
X3653874Y-22394985D01*
X4239589Y-22080700D02*
X3982446Y-22466414D01*
X4625303Y-22094985D02*
X4653874Y-22094985D01*
X4682446Y-22109271D01*
X4696731Y-22123557D01*
X4711017Y-22152128D01*
X4725303Y-22209271D01*
X4725303Y-22280700D01*
X4711017Y-22337842D01*
X4696731Y-22366414D01*
X4682446Y-22380699D01*
X4653874Y-22394985D01*
X4625303Y-22394985D01*
X4596731Y-22380699D01*
X4582446Y-22366414D01*
X4568160Y-22337842D01*
X4553874Y-22280700D01*
X4553874Y-22209271D01*
X4568160Y-22152128D01*
X4582446Y-22123557D01*
X4596731Y-22109271D01*
X4625303Y-22094985D01*
X4853874Y-22366414D02*
X4868160Y-22380699D01*
X4853874Y-22394985D01*
X4839589Y-22380699D01*
X4853874Y-22366414D01*
X4853874Y-22394985D01*
X5153874Y-22394985D02*
X4982446Y-22394985D01*
X5068160Y-22394985D02*
X5068160Y-22094985D01*
X5039589Y-22137842D01*
X5011017Y-22166414D01*
X4982446Y-22180700D01*
X5425303Y-22094985D02*
X5282446Y-22094985D01*
X5268160Y-22237842D01*
X5282446Y-22223557D01*
X5311017Y-22209271D01*
X5382446Y-22209271D01*
X5411017Y-22223557D01*
X5425303Y-22237842D01*
X5439588Y-22266414D01*
X5439588Y-22337842D01*
X5425303Y-22366414D01*
X5411017Y-22380699D01*
X5382446Y-22394985D01*
X5311017Y-22394985D01*
X5282446Y-22380699D01*
X5268160Y-22366414D01*
X5539588Y-22094985D02*
X5739588Y-22094985D01*
X5611017Y-22394985D01*
X5996731Y-22094985D02*
X5853874Y-22094985D01*
X5839588Y-22237842D01*
X5853874Y-22223557D01*
X5882446Y-22209271D01*
X5953874Y-22209271D01*
X5982446Y-22223557D01*
X5996731Y-22237842D01*
X6011017Y-22266414D01*
X6011017Y-22337842D01*
X5996731Y-22366414D01*
X5982446Y-22380699D01*
X5953874Y-22394985D01*
X5882446Y-22394985D01*
X5853874Y-22380699D01*
X5839588Y-22366414D01*
X6125303Y-22094985D02*
X6125303Y-22152128D01*
X6239588Y-22094985D02*
X6239588Y-22152128D01*
X6682446Y-22509271D02*
X6668160Y-22494985D01*
X6639588Y-22452128D01*
X6625303Y-22423557D01*
X6611017Y-22380699D01*
X6596731Y-22309271D01*
X6596731Y-22252128D01*
X6611017Y-22180700D01*
X6625303Y-22137842D01*
X6639588Y-22109271D01*
X6668160Y-22066414D01*
X6682446Y-22052128D01*
X6811017Y-22394985D02*
X6868160Y-22394985D01*
X6896731Y-22380699D01*
X6911017Y-22366414D01*
X6939588Y-22323557D01*
X6953874Y-22266414D01*
X6953874Y-22152128D01*
X6939588Y-22123557D01*
X6925303Y-22109271D01*
X6896731Y-22094985D01*
X6839588Y-22094985D01*
X6811017Y-22109271D01*
X6796731Y-22123557D01*
X6782446Y-22152128D01*
X6782446Y-22223557D01*
X6796731Y-22252128D01*
X6811017Y-22266414D01*
X6839588Y-22280700D01*
X6896731Y-22280700D01*
X6925303Y-22266414D01*
X6939588Y-22252128D01*
X6953874Y-22223557D01*
X7139588Y-22094985D02*
X7168160Y-22094985D01*
X7196731Y-22109271D01*
X7211017Y-22123557D01*
X7225303Y-22152128D01*
X7239588Y-22209271D01*
X7239588Y-22280700D01*
X7225303Y-22337842D01*
X7211017Y-22366414D01*
X7196731Y-22380699D01*
X7168160Y-22394985D01*
X7139588Y-22394985D01*
X7111017Y-22380699D01*
X7096731Y-22366414D01*
X7082446Y-22337842D01*
X7068160Y-22280700D01*
X7068160Y-22209271D01*
X7082446Y-22152128D01*
X7096731Y-22123557D01*
X7111017Y-22109271D01*
X7139588Y-22094985D01*
X7596731Y-22394985D02*
X7596731Y-22094985D01*
X7725303Y-22394985D02*
X7725303Y-22237842D01*
X7711017Y-22209271D01*
X7682446Y-22194985D01*
X7639588Y-22194985D01*
X7611017Y-22209271D01*
X7596731Y-22223557D01*
X7911017Y-22394985D02*
X7882446Y-22380699D01*
X7868160Y-22366414D01*
X7853874Y-22337842D01*
X7853874Y-22252128D01*
X7868160Y-22223557D01*
X7882446Y-22209271D01*
X7911017Y-22194985D01*
X7953874Y-22194985D01*
X7982446Y-22209271D01*
X7996731Y-22223557D01*
X8011017Y-22252128D01*
X8011017Y-22337842D01*
X7996731Y-22366414D01*
X7982446Y-22380699D01*
X7953874Y-22394985D01*
X7911017Y-22394985D01*
X8182446Y-22394985D02*
X8153874Y-22380699D01*
X8139588Y-22352128D01*
X8139588Y-22094985D01*
X8411017Y-22380699D02*
X8382446Y-22394985D01*
X8325303Y-22394985D01*
X8296731Y-22380699D01*
X8282446Y-22352128D01*
X8282446Y-22237842D01*
X8296731Y-22209271D01*
X8325303Y-22194985D01*
X8382446Y-22194985D01*
X8411017Y-22209271D01*
X8425303Y-22237842D01*
X8425303Y-22266414D01*
X8282446Y-22294985D01*
X8539589Y-22380699D02*
X8568160Y-22394985D01*
X8625303Y-22394985D01*
X8653874Y-22380699D01*
X8668160Y-22352128D01*
X8668160Y-22337842D01*
X8653874Y-22309271D01*
X8625303Y-22294985D01*
X8582446Y-22294985D01*
X8553874Y-22280700D01*
X8539589Y-22252128D01*
X8539589Y-22237842D01*
X8553874Y-22209271D01*
X8582446Y-22194985D01*
X8625303Y-22194985D01*
X8653874Y-22209271D01*
X8768160Y-22509271D02*
X8782446Y-22494985D01*
X8811017Y-22452128D01*
X8825303Y-22423557D01*
X8839589Y-22380699D01*
X8853874Y-22309271D01*
X8853874Y-22252128D01*
X8839589Y-22180700D01*
X8825303Y-22137842D01*
X8811017Y-22109271D01*
X8782446Y-22066414D01*
X8768160Y-22052128D01*
X9311017Y-22509271D02*
X9296731Y-22494985D01*
X9268160Y-22452128D01*
X9253874Y-22423557D01*
X9239589Y-22380699D01*
X9225303Y-22309271D01*
X9225303Y-22252128D01*
X9239589Y-22180700D01*
X9253874Y-22137842D01*
X9268160Y-22109271D01*
X9296731Y-22066414D01*
X9311017Y-22052128D01*
X9425303Y-22194985D02*
X9425303Y-22394985D01*
X9425303Y-22223557D02*
X9439589Y-22209271D01*
X9468160Y-22194985D01*
X9511017Y-22194985D01*
X9539589Y-22209271D01*
X9553874Y-22237842D01*
X9553874Y-22394985D01*
X9739589Y-22394985D02*
X9711017Y-22380699D01*
X9696731Y-22366414D01*
X9682446Y-22337842D01*
X9682446Y-22252128D01*
X9696731Y-22223557D01*
X9711017Y-22209271D01*
X9739589Y-22194985D01*
X9782446Y-22194985D01*
X9811017Y-22209271D01*
X9825303Y-22223557D01*
X9839589Y-22252128D01*
X9839589Y-22337842D01*
X9825303Y-22366414D01*
X9811017Y-22380699D01*
X9782446Y-22394985D01*
X9739589Y-22394985D01*
X9925303Y-22194985D02*
X10039589Y-22194985D01*
X9968160Y-22094985D02*
X9968160Y-22352128D01*
X9982446Y-22380699D01*
X10011017Y-22394985D01*
X10039589Y-22394985D01*
X10368160Y-22194985D02*
X10368160Y-22494985D01*
X10368160Y-22209271D02*
X10396731Y-22194985D01*
X10453874Y-22194985D01*
X10482446Y-22209271D01*
X10496731Y-22223557D01*
X10511017Y-22252128D01*
X10511017Y-22337842D01*
X10496731Y-22366414D01*
X10482446Y-22380699D01*
X10453874Y-22394985D01*
X10396731Y-22394985D01*
X10368160Y-22380699D01*
X10682446Y-22394985D02*
X10653874Y-22380699D01*
X10639589Y-22352128D01*
X10639589Y-22094985D01*
X10925303Y-22394985D02*
X10925303Y-22237842D01*
X10911017Y-22209271D01*
X10882446Y-22194985D01*
X10825303Y-22194985D01*
X10796731Y-22209271D01*
X10925303Y-22380699D02*
X10896731Y-22394985D01*
X10825303Y-22394985D01*
X10796731Y-22380699D01*
X10782446Y-22352128D01*
X10782446Y-22323557D01*
X10796731Y-22294985D01*
X10825303Y-22280700D01*
X10896731Y-22280700D01*
X10925303Y-22266414D01*
X11025303Y-22194985D02*
X11139589Y-22194985D01*
X11068160Y-22094985D02*
X11068160Y-22352128D01*
X11082446Y-22380699D01*
X11111017Y-22394985D01*
X11139589Y-22394985D01*
X11353874Y-22380699D02*
X11325303Y-22394985D01*
X11268160Y-22394985D01*
X11239588Y-22380699D01*
X11225303Y-22352128D01*
X11225303Y-22237842D01*
X11239588Y-22209271D01*
X11268160Y-22194985D01*
X11325303Y-22194985D01*
X11353874Y-22209271D01*
X11368160Y-22237842D01*
X11368160Y-22266414D01*
X11225303Y-22294985D01*
X11625303Y-22394985D02*
X11625303Y-22094985D01*
X11625303Y-22380699D02*
X11596731Y-22394985D01*
X11539588Y-22394985D01*
X11511017Y-22380699D01*
X11496731Y-22366414D01*
X11482446Y-22337842D01*
X11482446Y-22252128D01*
X11496731Y-22223557D01*
X11511017Y-22209271D01*
X11539588Y-22194985D01*
X11596731Y-22194985D01*
X11625303Y-22209271D01*
X11739588Y-22509271D02*
X11753874Y-22494985D01*
X11782446Y-22452128D01*
X11796731Y-22423557D01*
X11811017Y-22380699D01*
X11825303Y-22309271D01*
X11825303Y-22252128D01*
X11811017Y-22180700D01*
X11796731Y-22137842D01*
X11782446Y-22109271D01*
X11753874Y-22066414D01*
X11739588Y-22052128D01*
M02*
