M48
; DRILL file {KiCad (5.1.10)-1} date 10/14/21 20:38:59
; FORMAT={-:-/ absolute / metric / decimal}
; #@! TF.CreationDate,2021-10-14T20:38:59+01:00
; #@! TF.GenerationSoftware,Kicad,Pcbnew,(5.1.10)-1
; #@! TF.FileFunction,NonPlated,1,2,NPTH
FMAT,2
METRIC
T1C0.650
T2C1.700
T3C1.800
T4C1.900
T5C3.000
T6C3.048
T7C3.988
T8C4.000
%
G90
G05
T1
X207.052Y-81.34
X212.832Y-81.34
T2
X24.616Y-143.761
X29.524Y-125.344
X34.43Y-146.391
X34.462Y-106.955
X39.338Y-127.974
X39.394Y-88.408
X42.621Y-150.07
X44.262Y-70.179
X44.276Y-109.585
X47.578Y-131.707
X49.207Y-91.037
X52.434Y-152.699
X52.513Y-113.373
X54.076Y-72.808
X57.392Y-134.337
X57.523Y-94.8
X61.413Y-153.601
X62.326Y-116.002
X62.42Y-76.534
X66.348Y-135.174
X67.337Y-97.43
X71.227Y-156.231
X71.262Y-116.831
X72.234Y-79.164
X76.161Y-137.803
X76.224Y-98.27
X81.074Y-153.975
X81.076Y-119.461
X81.117Y-80.043
X85.985Y-135.587
X86.038Y-100.9
X90.887Y-156.605
X90.93Y-82.673
X90.961Y-117.121
X95.799Y-138.216
X95.914Y-98.682
X99.805Y-157.558
X100.774Y-119.75
X100.828Y-80.313
X104.736Y-139.164
X105.728Y-101.311
X109.618Y-160.188
X109.641Y-120.755
X110.642Y-82.942
X114.55Y-141.794
X114.619Y-102.336
X117.897Y-163.821
X119.455Y-123.385
X119.6Y-83.918
X122.837Y-145.452
X124.432Y-104.965
X127.711Y-166.451
X127.792Y-126.986
X129.414Y-86.548
X132.651Y-148.081
X132.695Y-108.568
X137.606Y-129.615
X137.625Y-90.172
X140.579Y-152.584
X142.509Y-111.198
X145.506Y-134.216
X146.079Y-175.848
X147.439Y-92.801
X150.388Y-115.866
X150.393Y-155.213
X155.32Y-136.846
X155.365Y-97.421
X156.152Y-177.174
X160.202Y-118.496
X165.179Y-100.05
X176.4Y-139.698
X176.4Y-101.669
X176.402Y-120.687
X176.41Y-158.72
X176.424Y-177.722
X186.56Y-139.698
X186.56Y-101.669
X186.562Y-120.687
X186.57Y-158.72
X186.584Y-177.722
X195.384Y-101.67
X195.389Y-120.688
X195.401Y-139.689
X195.401Y-158.72
X195.414Y-177.713
X205.544Y-101.67
X205.549Y-120.688
X205.561Y-139.689
X205.561Y-158.72
X205.574Y-177.713
X214.378Y-139.678
X214.379Y-120.688
X214.388Y-101.67
X214.395Y-158.704
X214.42Y-177.693
X224.538Y-139.678
X224.539Y-120.688
X224.548Y-101.67
X224.555Y-158.704
X224.58Y-177.693
X233.36Y-120.688
X233.375Y-139.685
X233.377Y-101.67
X233.383Y-177.683
X233.387Y-158.701
X243.52Y-120.688
X243.535Y-139.685
X243.537Y-101.67
X243.543Y-177.683
X243.547Y-158.701
X254.636Y-100.093
X259.545Y-118.564
X263.549Y-177.178
X264.45Y-97.464
X264.473Y-136.932
X269.359Y-115.935
X269.41Y-155.288
X272.356Y-92.866
X273.622Y-175.852
X274.287Y-134.303
X277.298Y-111.349
X279.223Y-152.658
X282.17Y-90.236
X282.228Y-129.719
X287.111Y-108.719
X287.155Y-148.133
X290.392Y-86.613
X292.041Y-127.089
X292.074Y-166.529
X295.405Y-105.051
X296.969Y-145.503
X300.206Y-83.984
X300.348Y-123.529
X301.888Y-163.9
X305.219Y-102.421
X305.277Y-141.862
X309.177Y-83.031
X310.162Y-120.899
X310.192Y-160.237
X314.098Y-101.376
X315.091Y-139.233
X318.991Y-80.401
X319.015Y-119.84
X320.005Y-157.608
X323.912Y-98.746
X323.975Y-138.277
X328.828Y-117.21
X328.876Y-82.699
X328.912Y-156.684
X333.771Y-100.98
X333.789Y-135.647
X338.69Y-80.069
X338.722Y-119.533
X338.726Y-154.054
X343.584Y-98.351
X343.647Y-137.893
X347.611Y-79.247
X348.536Y-116.904
X348.593Y-156.288
X352.519Y-97.516
X353.461Y-135.263
X357.425Y-76.617
X357.475Y-116.04
X358.407Y-153.658
X362.333Y-94.886
X362.422Y-134.387
X365.673Y-72.855
X367.289Y-113.41
X367.355Y-152.817
X370.551Y-91.125
X372.236Y-131.758
X375.486Y-70.225
X375.51Y-109.695
X377.169Y-150.188
X380.365Y-88.496
X380.438Y-128.007
X385.324Y-107.066
X385.373Y-146.421
X390.252Y-125.377
X395.187Y-143.792
T3
X24.616Y-143.761
X29.524Y-125.344
X34.43Y-146.391
X34.462Y-106.955
X39.338Y-127.974
X39.394Y-88.408
X42.621Y-150.07
X44.262Y-70.179
X44.276Y-109.585
X47.578Y-131.707
X49.207Y-91.037
X52.434Y-152.699
X52.513Y-113.373
X54.076Y-72.808
X57.392Y-134.337
X57.523Y-94.8
X61.413Y-153.601
X62.326Y-116.002
X62.42Y-76.534
X66.348Y-135.174
X67.337Y-97.43
X71.227Y-156.231
X71.262Y-116.831
X72.234Y-79.164
X76.161Y-137.803
X76.224Y-98.27
X81.074Y-153.975
X81.076Y-119.461
X81.117Y-80.043
X85.985Y-135.587
X86.038Y-100.9
X90.887Y-156.605
X90.93Y-82.673
X90.961Y-117.121
X95.799Y-138.216
X95.914Y-98.682
X99.805Y-157.558
X100.774Y-119.75
X100.828Y-80.313
X104.736Y-139.164
X105.728Y-101.311
X109.618Y-160.188
X109.641Y-120.755
X110.642Y-82.942
X114.55Y-141.794
X114.619Y-102.336
X117.897Y-163.821
X119.455Y-123.385
X119.6Y-83.918
X122.837Y-145.452
X124.432Y-104.965
X127.711Y-166.451
X127.792Y-126.986
X129.414Y-86.548
X132.651Y-148.081
X132.695Y-108.568
X137.606Y-129.615
X137.625Y-90.172
X140.579Y-152.584
X142.509Y-111.198
X145.506Y-134.216
X146.079Y-175.848
X147.439Y-92.801
X150.388Y-115.866
X150.393Y-155.213
X155.32Y-136.846
X155.365Y-97.421
X156.152Y-177.174
X160.202Y-118.496
X165.179Y-100.05
X176.4Y-139.698
X176.4Y-101.669
X176.402Y-120.687
X176.41Y-158.72
X176.424Y-177.722
X186.56Y-139.698
X186.56Y-101.669
X186.562Y-120.687
X186.57Y-158.72
X186.584Y-177.722
X195.384Y-101.67
X195.389Y-120.688
X195.401Y-139.689
X195.401Y-158.72
X195.414Y-177.713
X205.544Y-101.67
X205.549Y-120.688
X205.561Y-139.689
X205.561Y-158.72
X205.574Y-177.713
X214.378Y-139.678
X214.379Y-120.688
X214.388Y-101.67
X214.395Y-158.704
X214.42Y-177.693
X224.538Y-139.678
X224.539Y-120.688
X224.548Y-101.67
X224.555Y-158.704
X224.58Y-177.693
X233.36Y-120.688
X233.375Y-139.685
X233.377Y-101.67
X233.383Y-177.683
X233.387Y-158.701
X243.52Y-120.688
X243.535Y-139.685
X243.537Y-101.67
X243.543Y-177.683
X243.547Y-158.701
X254.636Y-100.093
X259.545Y-118.564
X263.549Y-177.178
X264.45Y-97.464
X264.473Y-136.932
X269.359Y-115.935
X269.41Y-155.288
X272.356Y-92.866
X273.622Y-175.852
X274.287Y-134.303
X277.298Y-111.349
X279.223Y-152.658
X282.17Y-90.236
X282.228Y-129.719
X287.111Y-108.719
X287.155Y-148.133
X290.392Y-86.613
X292.041Y-127.089
X292.074Y-166.529
X295.405Y-105.051
X296.969Y-145.503
X300.206Y-83.984
X300.348Y-123.529
X301.888Y-163.9
X305.219Y-102.421
X305.277Y-141.862
X309.177Y-83.031
X310.162Y-120.899
X310.192Y-160.237
X314.098Y-101.376
X315.091Y-139.233
X318.991Y-80.401
X319.015Y-119.84
X320.005Y-157.608
X323.912Y-98.746
X323.975Y-138.277
X328.828Y-117.21
X328.876Y-82.699
X328.912Y-156.684
X333.771Y-100.98
X333.789Y-135.647
X338.69Y-80.069
X338.722Y-119.533
X338.726Y-154.054
X343.584Y-98.351
X343.647Y-137.893
X347.611Y-79.247
X348.536Y-116.904
X348.593Y-156.288
X352.519Y-97.516
X353.461Y-135.263
X357.425Y-76.617
X357.475Y-116.04
X358.407Y-153.658
X362.333Y-94.886
X362.422Y-134.387
X365.673Y-72.855
X367.289Y-113.41
X367.355Y-152.817
X370.551Y-91.125
X372.236Y-131.758
X375.486Y-70.225
X375.51Y-109.695
X377.169Y-150.188
X380.365Y-88.496
X380.438Y-128.007
X385.324Y-107.066
X385.373Y-146.421
X390.252Y-125.377
X395.187Y-143.792
T4
X24.21Y-143.652
X29.118Y-125.235
X34.056Y-106.846
X34.836Y-146.499
X38.988Y-88.299
X39.744Y-128.082
X42.215Y-149.961
X43.856Y-70.07
X44.682Y-109.693
X47.173Y-131.599
X49.613Y-91.146
X52.107Y-113.264
X52.84Y-152.808
X54.482Y-72.917
X57.118Y-94.692
X57.798Y-134.446
X61.008Y-153.492
X62.014Y-76.426
X62.732Y-116.111
X65.942Y-135.065
X67.743Y-97.539
X70.857Y-116.722
X71.633Y-156.339
X72.64Y-79.273
X75.819Y-98.162
X76.567Y-137.912
X80.668Y-153.866
X80.711Y-79.935
X81.482Y-119.569
X85.58Y-135.478
X86.444Y-101.009
X90.555Y-117.012
X91.293Y-156.713
X91.336Y-82.782
X95.509Y-98.573
X96.205Y-138.325
X99.399Y-157.449
X100.422Y-80.204
X101.18Y-119.859
X104.33Y-139.056
X106.134Y-101.42
X109.235Y-120.646
X110.024Y-160.296
X111.047Y-83.051
X114.213Y-102.227
X114.955Y-141.903
X117.492Y-163.712
X119.195Y-83.81
X119.861Y-123.493
X122.431Y-145.343
X124.838Y-105.074
X127.386Y-126.877
X128.117Y-166.559
X129.82Y-86.657
X132.289Y-108.459
X133.056Y-148.19
X137.219Y-90.063
X138.011Y-129.724
X140.173Y-152.475
X142.914Y-111.306
X145.1Y-134.108
X145.662Y-175.793
X147.844Y-92.91
X149.982Y-115.757
X150.798Y-155.322
X154.96Y-97.312
X155.726Y-136.955
X156.568Y-177.229
X160.608Y-118.604
X165.585Y-100.159
X175.98Y-139.698
X175.98Y-101.669
X175.982Y-120.687
X175.99Y-158.72
X176.004Y-177.722
X186.98Y-139.698
X186.98Y-101.669
X186.982Y-120.687
X186.99Y-158.72
X187.004Y-177.722
X194.964Y-101.67
X194.969Y-120.688
X194.981Y-139.689
X194.981Y-158.72
X194.994Y-177.713
X205.964Y-101.67
X205.969Y-120.688
X205.981Y-139.689
X205.981Y-158.72
X205.994Y-177.713
X213.958Y-139.678
X213.959Y-120.688
X213.968Y-101.67
X213.975Y-158.704
X214.0Y-177.693
X224.958Y-139.678
X224.959Y-120.688
X224.968Y-101.67
X224.975Y-158.704
X225.0Y-177.693
X232.94Y-120.688
X232.955Y-139.685
X232.957Y-101.67
X232.963Y-177.683
X232.967Y-158.701
X243.94Y-120.688
X243.955Y-139.685
X243.957Y-101.67
X243.963Y-177.683
X243.967Y-158.701
X254.23Y-100.202
X259.14Y-118.673
X263.133Y-177.233
X264.068Y-137.041
X264.856Y-97.355
X269.004Y-155.397
X269.765Y-115.826
X271.95Y-92.975
X274.039Y-175.797
X274.693Y-134.194
X276.892Y-111.458
X279.629Y-152.55
X281.822Y-129.827
X282.576Y-90.128
X286.749Y-148.241
X287.517Y-108.611
X289.986Y-86.722
X291.668Y-166.638
X292.447Y-126.98
X294.999Y-105.16
X297.375Y-145.394
X299.942Y-123.638
X300.612Y-83.875
X302.294Y-163.791
X304.872Y-141.971
X305.625Y-102.313
X308.771Y-83.139
X309.786Y-160.346
X310.567Y-120.791
X313.692Y-101.484
X315.497Y-139.124
X318.609Y-119.949
X319.397Y-80.292
X320.411Y-157.499
X323.57Y-138.385
X324.317Y-98.637
X328.47Y-82.808
X328.506Y-156.793
X329.234Y-117.102
X333.365Y-101.089
X334.195Y-135.538
X338.316Y-119.642
X339.095Y-79.961
X339.132Y-153.946
X343.242Y-138.002
X343.99Y-98.242
X347.205Y-79.355
X348.188Y-156.396
X348.942Y-116.795
X352.113Y-97.625
X353.867Y-135.155
X357.07Y-116.148
X357.83Y-76.508
X358.813Y-153.549
X362.017Y-134.496
X362.738Y-94.778
X365.267Y-72.963
X366.95Y-152.926
X367.695Y-113.301
X370.145Y-91.234
X372.642Y-131.649
X375.105Y-109.804
X375.892Y-70.116
X377.575Y-150.079
X380.032Y-128.115
X380.77Y-88.387
X384.968Y-146.53
X385.73Y-106.957
X390.657Y-125.268
X395.593Y-143.683
T5
X23.71Y-147.452
X26.5Y-141.636
X27.996Y-150.775
X28.618Y-129.035
X31.408Y-123.219
X32.904Y-132.358
X33.291Y-140.826
X33.556Y-110.646
X36.346Y-104.83
X37.842Y-113.969
X38.199Y-122.409
X38.487Y-92.099
X41.278Y-86.283
X41.714Y-153.761
X42.773Y-95.421
X43.137Y-104.02
X43.356Y-73.87
X44.505Y-147.945
X46.001Y-157.083
X46.146Y-68.054
X46.672Y-135.399
X47.642Y-77.192
X48.069Y-85.473
X49.462Y-129.583
X50.958Y-138.721
X51.296Y-147.135
X51.606Y-117.064
X52.937Y-67.244
X54.397Y-111.248
X55.893Y-120.387
X56.253Y-128.773
X56.617Y-98.492
X59.407Y-92.676
X60.507Y-157.292
X60.903Y-101.814
X61.188Y-110.438
X61.514Y-80.225
X63.298Y-151.476
X64.304Y-74.409
X64.793Y-160.615
X65.441Y-138.865
X65.8Y-83.548
X66.199Y-91.866
X68.232Y-133.049
X69.727Y-142.188
X70.089Y-150.666
X70.356Y-120.522
X71.095Y-73.6
X73.147Y-114.706
X74.642Y-123.845
X75.023Y-132.239
X75.318Y-101.962
X78.108Y-96.146
X79.604Y-105.284
X79.938Y-113.896
X80.167Y-157.666
X80.21Y-83.735
X82.958Y-151.85
X83.001Y-77.919
X84.454Y-160.989
X84.497Y-87.057
X84.899Y-95.336
X85.079Y-139.278
X87.869Y-133.462
X89.365Y-142.601
X89.749Y-151.04
X89.792Y-77.109
X90.054Y-120.812
X92.845Y-114.996
X94.341Y-124.134
X94.66Y-132.652
X95.008Y-102.373
X97.799Y-96.557
X98.898Y-161.249
X99.294Y-105.696
X99.636Y-114.186
X99.922Y-84.004
X101.689Y-155.433
X102.712Y-78.188
X103.184Y-164.572
X103.83Y-142.856
X104.208Y-87.326
X104.59Y-95.747
X106.62Y-137.04
X108.116Y-146.178
X108.48Y-154.623
X108.735Y-124.446
X109.503Y-77.378
X111.525Y-118.63
X113.021Y-127.769
X113.411Y-136.23
X113.712Y-106.027
X116.503Y-100.211
X116.991Y-167.512
X117.999Y-109.349
X118.316Y-117.82
X118.694Y-87.61
X119.782Y-161.696
X121.277Y-170.835
X121.484Y-81.794
X121.931Y-149.143
X122.98Y-90.932
X123.294Y-99.401
X124.721Y-143.327
X126.217Y-152.465
X126.573Y-160.886
X126.885Y-130.677
X128.276Y-80.984
X129.676Y-124.861
X131.172Y-134.0
X131.512Y-142.517
X131.789Y-112.259
X134.579Y-106.443
X136.075Y-115.582
X136.467Y-124.051
X136.719Y-93.863
X139.509Y-88.047
X139.673Y-156.275
X141.005Y-97.186
X141.37Y-105.633
X142.463Y-150.459
X143.959Y-159.597
X144.6Y-137.907
X145.662Y-179.626
X146.3Y-87.237
X147.39Y-132.091
X147.669Y-173.495
X148.886Y-141.23
X149.254Y-149.649
X149.482Y-119.557
X150.345Y-182.36
X152.272Y-113.741
X153.768Y-122.88
X154.181Y-131.282
X154.297Y-171.806
X154.459Y-101.112
X157.249Y-95.296
X158.745Y-104.434
X159.063Y-112.931
X164.04Y-94.486
X176.48Y-143.498
X176.48Y-105.469
X176.482Y-124.487
X176.49Y-162.52
X176.504Y-181.522
X177.67Y-137.158
X177.67Y-99.129
X177.672Y-118.147
X177.68Y-156.18
X177.694Y-175.182
X181.48Y-145.598
X181.48Y-107.569
X181.482Y-126.587
X181.49Y-164.62
X181.504Y-183.622
X184.02Y-134.618
X184.02Y-96.589
X184.022Y-115.607
X184.03Y-153.64
X184.044Y-172.642
X195.464Y-105.47
X195.469Y-124.488
X195.481Y-143.489
X195.481Y-162.52
X195.494Y-181.513
X196.654Y-99.13
X196.659Y-118.148
X196.671Y-137.149
X196.671Y-156.18
X196.684Y-175.173
X200.464Y-107.57
X200.469Y-126.588
X200.481Y-145.589
X200.481Y-164.62
X200.494Y-183.613
X203.004Y-96.59
X203.009Y-115.608
X203.021Y-134.609
X203.021Y-153.64
X203.034Y-172.633
X214.458Y-143.478
X214.459Y-124.488
X214.468Y-105.47
X214.475Y-162.504
X214.5Y-181.493
X215.648Y-137.138
X215.649Y-118.148
X215.658Y-99.13
X215.665Y-156.164
X215.69Y-175.153
X219.458Y-145.578
X219.459Y-126.588
X219.468Y-107.57
X219.475Y-164.604
X219.5Y-183.593
X221.998Y-134.598
X221.999Y-115.608
X222.008Y-96.59
X222.015Y-153.624
X222.04Y-172.613
X233.44Y-124.488
X233.455Y-143.485
X233.457Y-105.47
X233.463Y-181.483
X233.467Y-162.501
X234.63Y-118.148
X234.645Y-137.145
X234.647Y-99.13
X234.653Y-175.143
X234.657Y-156.161
X238.44Y-126.588
X238.455Y-145.585
X238.457Y-107.57
X238.463Y-183.583
X238.467Y-164.601
X240.98Y-115.608
X240.995Y-134.605
X240.997Y-96.59
X241.003Y-172.603
X241.007Y-153.621
X255.205Y-97.311
X255.697Y-103.743
X260.115Y-115.782
X260.606Y-122.214
X260.682Y-93.214
X261.07Y-104.478
X264.125Y-180.935
X264.477Y-174.494
X265.043Y-134.15
X265.534Y-140.582
X265.591Y-111.685
X265.979Y-122.948
X269.356Y-182.365
X269.979Y-152.506
X270.441Y-171.147
X270.47Y-158.938
X270.519Y-130.053
X270.907Y-141.316
X272.925Y-90.084
X273.417Y-96.516
X275.455Y-148.409
X275.843Y-159.672
X277.867Y-108.567
X278.358Y-114.999
X278.402Y-85.987
X278.79Y-97.25
X282.797Y-126.937
X283.288Y-133.368
X283.343Y-104.47
X283.731Y-115.733
X287.724Y-145.35
X288.216Y-151.782
X288.273Y-122.84
X288.661Y-134.103
X290.961Y-83.831
X291.453Y-90.263
X292.643Y-163.747
X293.135Y-170.179
X293.201Y-141.253
X293.589Y-152.517
X295.974Y-102.269
X296.438Y-79.734
X296.466Y-108.701
X296.826Y-90.997
X298.12Y-159.65
X298.508Y-170.914
X300.917Y-120.747
X301.409Y-127.179
X301.451Y-98.172
X301.839Y-109.435
X305.847Y-139.08
X306.338Y-145.512
X306.394Y-116.65
X306.782Y-127.913
X309.746Y-80.249
X310.238Y-86.681
X310.761Y-157.455
X311.252Y-163.887
X311.323Y-134.983
X311.711Y-146.246
X314.667Y-98.593
X315.159Y-105.025
X315.223Y-76.152
X315.611Y-87.415
X316.237Y-153.358
X316.625Y-164.621
X319.584Y-117.058
X320.075Y-123.49
X320.143Y-94.496
X320.532Y-105.76
X324.545Y-135.495
X325.036Y-141.927
X325.06Y-112.961
X325.449Y-124.224
X329.445Y-79.917
X329.481Y-153.902
X329.937Y-86.349
X329.973Y-160.334
X330.021Y-131.398
X330.409Y-142.661
X334.34Y-98.198
X334.831Y-104.63
X334.921Y-75.82
X334.958Y-149.805
X335.31Y-87.083
X335.346Y-161.068
X339.291Y-116.751
X339.783Y-123.183
X339.816Y-94.101
X340.204Y-105.365
X344.217Y-135.111
X344.708Y-141.543
X344.768Y-112.654
X345.156Y-123.917
X348.18Y-76.465
X348.672Y-82.897
X349.163Y-153.506
X349.654Y-159.938
X349.693Y-131.014
X350.081Y-142.277
X353.088Y-94.734
X353.58Y-101.166
X353.656Y-72.368
X354.045Y-83.631
X354.639Y-149.409
X355.027Y-160.672
X358.045Y-113.258
X358.536Y-119.69
X358.564Y-90.637
X358.953Y-101.9
X362.992Y-131.605
X363.483Y-138.037
X363.521Y-109.161
X363.909Y-120.424
X366.242Y-70.072
X366.733Y-76.504
X367.925Y-150.035
X368.416Y-156.467
X368.468Y-127.508
X368.856Y-138.771
X371.12Y-88.343
X371.612Y-94.775
X371.718Y-65.975
X372.106Y-77.239
X373.401Y-145.938
X373.789Y-157.202
X376.08Y-106.913
X376.571Y-113.345
X376.596Y-84.246
X376.985Y-95.51
X381.007Y-125.225
X381.499Y-131.657
X381.556Y-102.816
X381.944Y-114.079
X385.943Y-143.639
X386.434Y-150.071
X386.483Y-121.128
X386.872Y-132.391
X391.419Y-139.542
X391.807Y-150.805
T6
X138.382Y-181.897
X162.054Y-185.013
X257.681Y-185.013
X281.353Y-181.897
T7
X140.372Y-166.787
X164.043Y-169.904
X255.692Y-169.904
X279.363Y-166.787
T8
X29.523Y-145.076
X29.523Y-145.076
X34.431Y-126.659
X34.431Y-126.659
X39.369Y-108.27
X39.369Y-108.27
X44.3Y-89.722
X44.3Y-89.722
X47.528Y-151.384
X47.528Y-151.384
X49.169Y-71.493
X49.169Y-71.493
X52.485Y-133.022
X52.485Y-133.022
X57.42Y-114.688
X57.42Y-114.688
X62.43Y-96.115
X62.43Y-96.115
X66.32Y-154.916
X66.32Y-154.916
X67.327Y-77.849
X67.327Y-77.849
X71.254Y-136.489
X71.254Y-136.489
X76.169Y-118.146
X76.169Y-118.146
X81.131Y-99.585
X81.131Y-99.585
X85.981Y-155.29
X85.981Y-155.29
X86.024Y-81.358
X86.024Y-81.358
X90.892Y-136.902
X90.892Y-136.902
X95.868Y-118.435
X95.868Y-118.435
X100.821Y-99.997
X100.821Y-99.997
X104.711Y-158.873
X104.711Y-158.873
X105.735Y-81.628
X105.735Y-81.628
X109.643Y-140.479
X109.643Y-140.479
X114.548Y-122.07
X114.548Y-122.07
X119.526Y-103.65
X119.526Y-103.65
X122.804Y-165.136
X122.804Y-165.136
X124.507Y-85.233
X124.507Y-85.233
X127.744Y-146.766
X127.744Y-146.766
X132.699Y-128.301
X132.699Y-128.301
X137.602Y-109.883
X137.602Y-109.883
X142.532Y-91.487
X142.532Y-91.487
X145.486Y-153.898
X145.486Y-153.898
X150.413Y-135.531
X150.413Y-135.531
X151.115Y-176.511
X151.115Y-176.511
X155.295Y-117.181
X155.295Y-117.181
X160.272Y-98.735
X160.272Y-98.735
X181.48Y-139.698
X181.48Y-139.698
X181.48Y-101.669
X181.48Y-101.669
X181.482Y-120.687
X181.482Y-120.687
X181.49Y-158.72
X181.49Y-158.72
X181.504Y-177.722
X181.504Y-177.722
X200.464Y-101.67
X200.464Y-101.67
X200.469Y-120.688
X200.469Y-120.688
X200.481Y-139.689
X200.481Y-139.689
X200.481Y-158.72
X200.481Y-158.72
X200.494Y-177.713
X200.494Y-177.713
X219.458Y-139.678
X219.458Y-139.678
X219.459Y-120.688
X219.459Y-120.688
X219.468Y-101.67
X219.468Y-101.67
X219.475Y-158.704
X219.475Y-158.704
X219.5Y-177.693
X219.5Y-177.693
X238.44Y-120.688
X238.44Y-120.688
X238.455Y-139.685
X238.455Y-139.685
X238.457Y-101.67
X238.457Y-101.67
X238.463Y-177.683
X238.463Y-177.683
X238.467Y-158.701
X238.467Y-158.701
X259.543Y-98.779
X259.543Y-98.779
X264.452Y-117.25
X264.452Y-117.25
X268.586Y-176.515
X268.586Y-176.515
X269.38Y-135.617
X269.38Y-135.617
X274.316Y-153.973
X274.316Y-153.973
X277.263Y-91.551
X277.263Y-91.551
X282.204Y-110.034
X282.204Y-110.034
X287.134Y-128.404
X287.134Y-128.404
X292.062Y-146.818
X292.062Y-146.818
X295.299Y-85.298
X295.299Y-85.298
X296.981Y-165.215
X296.981Y-165.215
X300.312Y-103.736
X300.312Y-103.736
X305.255Y-122.214
X305.255Y-122.214
X310.184Y-140.547
X310.184Y-140.547
X314.084Y-81.716
X314.084Y-81.716
X315.098Y-158.922
X315.098Y-158.922
X319.005Y-100.061
X319.005Y-100.061
X323.922Y-118.525
X323.922Y-118.525
X328.882Y-136.962
X328.882Y-136.962
X333.783Y-81.384
X333.783Y-81.384
X333.819Y-155.369
X333.819Y-155.369
X338.677Y-99.666
X338.677Y-99.666
X343.629Y-118.218
X343.629Y-118.218
X348.554Y-136.578
X348.554Y-136.578
X352.518Y-77.932
X352.518Y-77.932
X353.5Y-154.973
X353.5Y-154.973
X357.426Y-96.201
X357.426Y-96.201
X362.382Y-114.725
X362.382Y-114.725
X367.329Y-133.072
X367.329Y-133.072
X370.579Y-71.54
X370.579Y-71.54
X372.262Y-151.503
X372.262Y-151.503
X375.458Y-89.811
X375.458Y-89.811
X380.417Y-108.38
X380.417Y-108.38
X385.345Y-126.692
X385.345Y-126.692
X390.28Y-145.106
X390.28Y-145.106
T0
M30
