G04 #@! TF.GenerationSoftware,KiCad,Pcbnew,(5.1.10)-1*
G04 #@! TF.CreationDate,2021-09-21T17:17:46+01:00*
G04 #@! TF.ProjectId,superlyra-hs,73757065-726c-4797-9261-2d68732e6b69,0.1*
G04 #@! TF.SameCoordinates,Original*
G04 #@! TF.FileFunction,Paste,Bot*
G04 #@! TF.FilePolarity,Positive*
%FSLAX46Y46*%
G04 Gerber Fmt 4.6, Leading zero omitted, Abs format (unit mm)*
G04 Created by KiCad (PCBNEW (5.1.10)-1) date 2021-09-21 17:17:46*
%MOMM*%
%LPD*%
G01*
G04 APERTURE LIST*
%ADD10C,0.100000*%
%ADD11R,2.550000X2.500000*%
G04 APERTURE END LIST*
D10*
G04 #@! TO.C,SW79*
G36*
X158876780Y-171124917D02*
G01*
X158550464Y-173603529D01*
X156022280Y-173270687D01*
X156348596Y-170792075D01*
X158876780Y-171124917D01*
G37*
G36*
X145953894Y-171985504D02*
G01*
X145627578Y-174464116D01*
X143099394Y-174131274D01*
X143425710Y-171652662D01*
X145953894Y-171985504D01*
G37*
G04 #@! TD*
G04 #@! TO.C,SW84*
G36*
X274688876Y-169304076D02*
G01*
X275015192Y-171782688D01*
X272487008Y-172115530D01*
X272160692Y-169636918D01*
X274688876Y-169304076D01*
G37*
G36*
X262429062Y-173480029D02*
G01*
X262755378Y-175958641D01*
X260227194Y-176291483D01*
X259900878Y-173812871D01*
X262429062Y-173480029D01*
G37*
G04 #@! TD*
G04 #@! TO.C,SW16*
G36*
X338871446Y-73425928D02*
G01*
X339518493Y-75840743D01*
X337055382Y-76500732D01*
X336408335Y-74085917D01*
X338871446Y-73425928D01*
G37*
G36*
X327261588Y-79166382D02*
G01*
X327908635Y-81581197D01*
X325445524Y-82241186D01*
X324798477Y-79826371D01*
X327261588Y-79166382D01*
G37*
G04 #@! TD*
G04 #@! TO.C,SW1*
G36*
X44630381Y-66312228D02*
G01*
X43983334Y-68727043D01*
X41520223Y-68067054D01*
X42167270Y-65652239D01*
X44630381Y-66312228D01*
G37*
G36*
X57555040Y-67145778D02*
G01*
X56907993Y-69560593D01*
X54444882Y-68900604D01*
X55091929Y-66485789D01*
X57555040Y-67145778D01*
G37*
G04 #@! TD*
G04 #@! TO.C,SW2*
G36*
X62788380Y-72667799D02*
G01*
X62141333Y-75082614D01*
X59678222Y-74422625D01*
X60325269Y-72007810D01*
X62788380Y-72667799D01*
G37*
G36*
X75713039Y-73501349D02*
G01*
X75065992Y-75916164D01*
X72602881Y-75256175D01*
X73249928Y-72841360D01*
X75713039Y-73501349D01*
G37*
G04 #@! TD*
G04 #@! TO.C,SW3*
G36*
X81484904Y-76177057D02*
G01*
X80837857Y-78591872D01*
X78374746Y-77931883D01*
X79021793Y-75517068D01*
X81484904Y-76177057D01*
G37*
G36*
X94409563Y-77010607D02*
G01*
X93762516Y-79425422D01*
X91299405Y-78765433D01*
X91946452Y-76350618D01*
X94409563Y-77010607D01*
G37*
G04 #@! TD*
G04 #@! TO.C,SW4*
G36*
X114120726Y-77279816D02*
G01*
X113473679Y-79694631D01*
X111010568Y-79034642D01*
X111657615Y-76619827D01*
X114120726Y-77279816D01*
G37*
G36*
X101196067Y-76446266D02*
G01*
X100549020Y-78861081D01*
X98085909Y-78201092D01*
X98732956Y-75786277D01*
X101196067Y-76446266D01*
G37*
G04 #@! TD*
G04 #@! TO.C,SW5*
G36*
X119968611Y-80051965D02*
G01*
X119321564Y-82466780D01*
X116858453Y-81806791D01*
X117505500Y-79391976D01*
X119968611Y-80051965D01*
G37*
G36*
X132893270Y-80885515D02*
G01*
X132246223Y-83300330D01*
X129783112Y-82640341D01*
X130430159Y-80225526D01*
X132893270Y-80885515D01*
G37*
G04 #@! TD*
G04 #@! TO.C,SW6*
G36*
X150917812Y-87138934D02*
G01*
X150270765Y-89553749D01*
X147807654Y-88893760D01*
X148454701Y-86478945D01*
X150917812Y-87138934D01*
G37*
G36*
X137993153Y-86305384D02*
G01*
X137346106Y-88720199D01*
X134882995Y-88060210D01*
X135530042Y-85645395D01*
X137993153Y-86305384D01*
G37*
G04 #@! TD*
G04 #@! TO.C,SW7*
G36*
X155733458Y-93554203D02*
G01*
X155086411Y-95969018D01*
X152623300Y-95309029D01*
X153270347Y-92894214D01*
X155733458Y-93554203D01*
G37*
G36*
X168658117Y-94387753D02*
G01*
X168011070Y-96802568D01*
X165547959Y-96142579D01*
X166195006Y-93727764D01*
X168658117Y-94387753D01*
G37*
G04 #@! TD*
D11*
G04 #@! TO.C,SW8*
X187180027Y-96548860D03*
X174480027Y-99088860D03*
G04 #@! TD*
G04 #@! TO.C,SW9*
X193463938Y-99089622D03*
X206163938Y-96549622D03*
G04 #@! TD*
G04 #@! TO.C,SW10*
X225168099Y-96549850D03*
X212468099Y-99089850D03*
G04 #@! TD*
G04 #@! TO.C,SW11*
X231456946Y-99089702D03*
X244156946Y-96549702D03*
G04 #@! TD*
D10*
G04 #@! TO.C,SW12*
G36*
X264631579Y-90820404D02*
G01*
X265278626Y-93235219D01*
X262815515Y-93895208D01*
X262168468Y-91480393D01*
X264631579Y-90820404D01*
G37*
G36*
X253021721Y-96560858D02*
G01*
X253668768Y-98975673D01*
X251205657Y-99635662D01*
X250558610Y-97220847D01*
X253021721Y-96560858D01*
G37*
G04 #@! TD*
G04 #@! TO.C,SW13*
G36*
X282351671Y-83592802D02*
G01*
X282998718Y-86007617D01*
X280535607Y-86667606D01*
X279888560Y-84252791D01*
X282351671Y-83592802D01*
G37*
G36*
X270741813Y-89333256D02*
G01*
X271388860Y-91748071D01*
X268925749Y-92408060D01*
X268278702Y-89993245D01*
X270741813Y-89333256D01*
G37*
G04 #@! TD*
G04 #@! TO.C,SW14*
G36*
X300387679Y-77340187D02*
G01*
X301034726Y-79755002D01*
X298571615Y-80414991D01*
X297924568Y-78000176D01*
X300387679Y-77340187D01*
G37*
G36*
X288777821Y-83080641D02*
G01*
X289424868Y-85495456D01*
X286961757Y-86155445D01*
X286314710Y-83740630D01*
X288777821Y-83080641D01*
G37*
G04 #@! TD*
G04 #@! TO.C,SW15*
G36*
X307562762Y-79498229D02*
G01*
X308209809Y-81913044D01*
X305746698Y-82573033D01*
X305099651Y-80158218D01*
X307562762Y-79498229D01*
G37*
G36*
X319172620Y-73757775D02*
G01*
X319819667Y-76172590D01*
X317356556Y-76832579D01*
X316709509Y-74417764D01*
X319172620Y-73757775D01*
G37*
G04 #@! TD*
G04 #@! TO.C,SW17*
G36*
X345996564Y-75714233D02*
G01*
X346643611Y-78129048D01*
X344180500Y-78789037D01*
X343533453Y-76374222D01*
X345996564Y-75714233D01*
G37*
G36*
X357606422Y-69973779D02*
G01*
X358253469Y-72388594D01*
X355790358Y-73048583D01*
X355143311Y-70633768D01*
X357606422Y-69973779D01*
G37*
G04 #@! TD*
G04 #@! TO.C,SW18*
G36*
X375668117Y-63581490D02*
G01*
X376315164Y-65996305D01*
X373852053Y-66656294D01*
X373205006Y-64241479D01*
X375668117Y-63581490D01*
G37*
G36*
X364058259Y-69321944D02*
G01*
X364705306Y-71736759D01*
X362242195Y-72396748D01*
X361595148Y-69981933D01*
X364058259Y-69321944D01*
G37*
G04 #@! TD*
G04 #@! TO.C,SW19*
G36*
X39761844Y-84541209D02*
G01*
X39114797Y-86956024D01*
X36651686Y-86296035D01*
X37298733Y-83881220D01*
X39761844Y-84541209D01*
G37*
G36*
X52686503Y-85374759D02*
G01*
X52039456Y-87789574D01*
X49576345Y-87129585D01*
X50223392Y-84714770D01*
X52686503Y-85374759D01*
G37*
G04 #@! TD*
G04 #@! TO.C,SW20*
G36*
X70816272Y-91767485D02*
G01*
X70169225Y-94182300D01*
X67706114Y-93522311D01*
X68353161Y-91107496D01*
X70816272Y-91767485D01*
G37*
G36*
X57891613Y-90933935D02*
G01*
X57244566Y-93348750D01*
X54781455Y-92688761D01*
X55428502Y-90273946D01*
X57891613Y-90933935D01*
G37*
G04 #@! TD*
G04 #@! TO.C,SW21*
G36*
X76592522Y-94403940D02*
G01*
X75945475Y-96818755D01*
X73482364Y-96158766D01*
X74129411Y-93743951D01*
X76592522Y-94403940D01*
G37*
G36*
X89517181Y-95237490D02*
G01*
X88870134Y-97652305D01*
X86407023Y-96992316D01*
X87054070Y-94577501D01*
X89517181Y-95237490D01*
G37*
G04 #@! TD*
G04 #@! TO.C,SW22*
G36*
X109207394Y-95648865D02*
G01*
X108560347Y-98063680D01*
X106097236Y-97403691D01*
X106744283Y-94988876D01*
X109207394Y-95648865D01*
G37*
G36*
X96282735Y-94815315D02*
G01*
X95635688Y-97230130D01*
X93172577Y-96570141D01*
X93819624Y-94155326D01*
X96282735Y-94815315D01*
G37*
G04 #@! TD*
G04 #@! TO.C,SW23*
G36*
X114986904Y-98469176D02*
G01*
X114339857Y-100883991D01*
X111876746Y-100224002D01*
X112523793Y-97809187D01*
X114986904Y-98469176D01*
G37*
G36*
X127911563Y-99302726D02*
G01*
X127264516Y-101717541D01*
X124801405Y-101057552D01*
X125448452Y-98642737D01*
X127911563Y-99302726D01*
G37*
G04 #@! TD*
G04 #@! TO.C,SW24*
G36*
X133063055Y-104701671D02*
G01*
X132416008Y-107116486D01*
X129952897Y-106456497D01*
X130599944Y-104041682D01*
X133063055Y-104701671D01*
G37*
G36*
X145987714Y-105535221D02*
G01*
X145340667Y-107950036D01*
X142877556Y-107290047D01*
X143524603Y-104875232D01*
X145987714Y-105535221D01*
G37*
G04 #@! TD*
G04 #@! TO.C,SW25*
G36*
X163680964Y-112833095D02*
G01*
X163033917Y-115247910D01*
X160570806Y-114587921D01*
X161217853Y-112173106D01*
X163680964Y-112833095D01*
G37*
G36*
X150756305Y-111999545D02*
G01*
X150109258Y-114414360D01*
X147646147Y-113754371D01*
X148293194Y-111339556D01*
X150756305Y-111999545D01*
G37*
G04 #@! TD*
D11*
G04 #@! TO.C,SW26*
X174482461Y-118107059D03*
X187182461Y-115567059D03*
G04 #@! TD*
G04 #@! TO.C,SW27*
X206169234Y-115568156D03*
X193469234Y-118108156D03*
G04 #@! TD*
G04 #@! TO.C,SW28*
X212459244Y-118108139D03*
X225159244Y-115568139D03*
G04 #@! TD*
G04 #@! TO.C,SW29*
X244140303Y-115568345D03*
X231440303Y-118108345D03*
G04 #@! TD*
D10*
G04 #@! TO.C,SW30*
G36*
X257931094Y-115031776D02*
G01*
X258578141Y-117446591D01*
X256115030Y-118106580D01*
X255467983Y-115691765D01*
X257931094Y-115031776D01*
G37*
G36*
X269540952Y-109291322D02*
G01*
X270187999Y-111706137D01*
X267724888Y-112366126D01*
X267077841Y-109951311D01*
X269540952Y-109291322D01*
G37*
G04 #@! TD*
G04 #@! TO.C,SW31*
G36*
X287293065Y-102076025D02*
G01*
X287940112Y-104490840D01*
X285477001Y-105150829D01*
X284829954Y-102736014D01*
X287293065Y-102076025D01*
G37*
G36*
X275683207Y-107816479D02*
G01*
X276330254Y-110231294D01*
X273867143Y-110891283D01*
X273220096Y-108476468D01*
X275683207Y-107816479D01*
G37*
G04 #@! TD*
G04 #@! TO.C,SW32*
G36*
X293790713Y-101518455D02*
G01*
X294437760Y-103933270D01*
X291974649Y-104593259D01*
X291327602Y-102178444D01*
X293790713Y-101518455D01*
G37*
G36*
X305400571Y-95778001D02*
G01*
X306047618Y-98192816D01*
X303584507Y-98852805D01*
X302937460Y-96437990D01*
X305400571Y-95778001D01*
G37*
G04 #@! TD*
G04 #@! TO.C,SW33*
G36*
X324093379Y-92102567D02*
G01*
X324740426Y-94517382D01*
X322277315Y-95177371D01*
X321630268Y-92762556D01*
X324093379Y-92102567D01*
G37*
G36*
X312483521Y-97843021D02*
G01*
X313130568Y-100257836D01*
X310667457Y-100917825D01*
X310020410Y-98503010D01*
X312483521Y-97843021D01*
G37*
G04 #@! TD*
G04 #@! TO.C,SW34*
G36*
X343766083Y-91707360D02*
G01*
X344413130Y-94122175D01*
X341950019Y-94782164D01*
X341302972Y-92367349D01*
X343766083Y-91707360D01*
G37*
G36*
X332156225Y-97447814D02*
G01*
X332803272Y-99862629D01*
X330340161Y-100522618D01*
X329693114Y-98107803D01*
X332156225Y-97447814D01*
G37*
G04 #@! TD*
G04 #@! TO.C,SW35*
G36*
X362514463Y-88243036D02*
G01*
X363161510Y-90657851D01*
X360698399Y-91317840D01*
X360051352Y-88903025D01*
X362514463Y-88243036D01*
G37*
G36*
X350904605Y-93983490D02*
G01*
X351551652Y-96398305D01*
X349088541Y-97058294D01*
X348441494Y-94643479D01*
X350904605Y-93983490D01*
G37*
G04 #@! TD*
G04 #@! TO.C,SW36*
G36*
X368936421Y-87592815D02*
G01*
X369583468Y-90007630D01*
X367120357Y-90667619D01*
X366473310Y-88252804D01*
X368936421Y-87592815D01*
G37*
G36*
X380546279Y-81852361D02*
G01*
X381193326Y-84267176D01*
X378730215Y-84927165D01*
X378083168Y-82512350D01*
X380546279Y-81852361D01*
G37*
G04 #@! TD*
G04 #@! TO.C,SW37*
G36*
X47754997Y-103922123D02*
G01*
X47107950Y-106336938D01*
X44644839Y-105676949D01*
X45291886Y-103262134D01*
X47754997Y-103922123D01*
G37*
G36*
X34830338Y-103088573D02*
G01*
X34183291Y-105503388D01*
X31720180Y-104843399D01*
X32367227Y-102428584D01*
X34830338Y-103088573D01*
G37*
G04 #@! TD*
G04 #@! TO.C,SW38*
G36*
X52880918Y-109506320D02*
G01*
X52233871Y-111921135D01*
X49770760Y-111261146D01*
X50417807Y-108846331D01*
X52880918Y-109506320D01*
G37*
G36*
X65805577Y-110339870D02*
G01*
X65158530Y-112754685D01*
X62695419Y-112094696D01*
X63342466Y-109679881D01*
X65805577Y-110339870D01*
G37*
G04 #@! TD*
G04 #@! TO.C,SW39*
G36*
X84555292Y-113798125D02*
G01*
X83908245Y-116212940D01*
X81445134Y-115552951D01*
X82092181Y-113138136D01*
X84555292Y-113798125D01*
G37*
G36*
X71630633Y-112964575D02*
G01*
X70983586Y-115379390D01*
X68520475Y-114719401D01*
X69167522Y-112304586D01*
X71630633Y-112964575D01*
G37*
G04 #@! TD*
G04 #@! TO.C,SW40*
G36*
X91328933Y-113254222D02*
G01*
X90681886Y-115669037D01*
X88218775Y-115009048D01*
X88865822Y-112594233D01*
X91328933Y-113254222D01*
G37*
G36*
X104253592Y-114087772D02*
G01*
X103606545Y-116502587D01*
X101143434Y-115842598D01*
X101790481Y-113427783D01*
X104253592Y-114087772D01*
G37*
G04 #@! TD*
G04 #@! TO.C,SW41*
G36*
X122934012Y-117722210D02*
G01*
X122286965Y-120137025D01*
X119823854Y-119477036D01*
X120470901Y-117062221D01*
X122934012Y-117722210D01*
G37*
G36*
X110009353Y-116888660D02*
G01*
X109362306Y-119303475D01*
X106899195Y-118643486D01*
X107546242Y-116228671D01*
X110009353Y-116888660D01*
G37*
G04 #@! TD*
G04 #@! TO.C,SW42*
G36*
X128159991Y-123119357D02*
G01*
X127512944Y-125534172D01*
X125049833Y-124874183D01*
X125696880Y-122459368D01*
X128159991Y-123119357D01*
G37*
G36*
X141084650Y-123952907D02*
G01*
X140437603Y-126367722D01*
X137974492Y-125707733D01*
X138621539Y-123292918D01*
X141084650Y-123952907D01*
G37*
G04 #@! TD*
G04 #@! TO.C,SW43*
G36*
X158798991Y-131183346D02*
G01*
X158151944Y-133598161D01*
X155688833Y-132938172D01*
X156335880Y-130523357D01*
X158798991Y-131183346D01*
G37*
G36*
X145874332Y-130349796D02*
G01*
X145227285Y-132764611D01*
X142764174Y-132104622D01*
X143411221Y-129689807D01*
X145874332Y-130349796D01*
G37*
G04 #@! TD*
D11*
G04 #@! TO.C,SW44*
X174479982Y-137117890D03*
X187179982Y-134577890D03*
G04 #@! TD*
G04 #@! TO.C,SW45*
X193481210Y-137109145D03*
X206181210Y-134569145D03*
G04 #@! TD*
G04 #@! TO.C,SW46*
X212457600Y-137097803D03*
X225157600Y-134557803D03*
G04 #@! TD*
G04 #@! TO.C,SW47*
X244154704Y-134564832D03*
X231454704Y-137104832D03*
G04 #@! TD*
D10*
G04 #@! TO.C,SW48*
G36*
X262859010Y-133399669D02*
G01*
X263506057Y-135814484D01*
X261042946Y-136474473D01*
X260395899Y-134059658D01*
X262859010Y-133399669D01*
G37*
G36*
X274468868Y-127659215D02*
G01*
X275115915Y-130074030D01*
X272652804Y-130734019D01*
X272005757Y-128319204D01*
X274468868Y-127659215D01*
G37*
G04 #@! TD*
G04 #@! TO.C,SW49*
G36*
X292223112Y-120445641D02*
G01*
X292870159Y-122860456D01*
X290407048Y-123520445D01*
X289760001Y-121105630D01*
X292223112Y-120445641D01*
G37*
G36*
X280613254Y-126186095D02*
G01*
X281260301Y-128600910D01*
X278797190Y-129260899D01*
X278150143Y-126846084D01*
X280613254Y-126186095D01*
G37*
G04 #@! TD*
G04 #@! TO.C,SW50*
G36*
X298733675Y-119996353D02*
G01*
X299380722Y-122411168D01*
X296917611Y-123071157D01*
X296270564Y-120656342D01*
X298733675Y-119996353D01*
G37*
G36*
X310343533Y-114255899D02*
G01*
X310990580Y-116670714D01*
X308527469Y-117330703D01*
X307880422Y-114915888D01*
X310343533Y-114255899D01*
G37*
G04 #@! TD*
G04 #@! TO.C,SW51*
G36*
X329010245Y-110566803D02*
G01*
X329657292Y-112981618D01*
X327194181Y-113641607D01*
X326547134Y-111226792D01*
X329010245Y-110566803D01*
G37*
G36*
X317400387Y-116307257D02*
G01*
X318047434Y-118722072D01*
X315584323Y-119382061D01*
X314937276Y-116967246D01*
X317400387Y-116307257D01*
G37*
G04 #@! TD*
G04 #@! TO.C,SW52*
G36*
X337107807Y-116000715D02*
G01*
X337754854Y-118415530D01*
X335291743Y-119075519D01*
X334644696Y-116660704D01*
X337107807Y-116000715D01*
G37*
G36*
X348717665Y-110260261D02*
G01*
X349364712Y-112675076D01*
X346901601Y-113335065D01*
X346254554Y-110920250D01*
X348717665Y-110260261D01*
G37*
G04 #@! TD*
G04 #@! TO.C,SW53*
G36*
X367471041Y-106766773D02*
G01*
X368118088Y-109181588D01*
X365654977Y-109841577D01*
X365007930Y-107426762D01*
X367471041Y-106766773D01*
G37*
G36*
X355861183Y-112507227D02*
G01*
X356508230Y-114922042D01*
X354045119Y-115582031D01*
X353398072Y-113167216D01*
X355861183Y-112507227D01*
G37*
G04 #@! TD*
G04 #@! TO.C,SW54*
G36*
X373896165Y-106162685D02*
G01*
X374543212Y-108577500D01*
X372080101Y-109237489D01*
X371433054Y-106822674D01*
X373896165Y-106162685D01*
G37*
G36*
X385506023Y-100422231D02*
G01*
X386153070Y-102837046D01*
X383689959Y-103497035D01*
X383042912Y-101082220D01*
X385506023Y-100422231D01*
G37*
G04 #@! TD*
G04 #@! TO.C,SW55*
G36*
X42816969Y-122311177D02*
G01*
X42169922Y-124725992D01*
X39706811Y-124066003D01*
X40353858Y-121651188D01*
X42816969Y-122311177D01*
G37*
G36*
X29892310Y-121477627D02*
G01*
X29245263Y-123892442D01*
X26782152Y-123232453D01*
X27429199Y-120817638D01*
X29892310Y-121477627D01*
G37*
G04 #@! TD*
G04 #@! TO.C,SW56*
G36*
X60871171Y-128674552D02*
G01*
X60224124Y-131089367D01*
X57761013Y-130429378D01*
X58408060Y-128014563D01*
X60871171Y-128674552D01*
G37*
G36*
X47946512Y-127841002D02*
G01*
X47299465Y-130255817D01*
X44836354Y-129595828D01*
X45483401Y-127181013D01*
X47946512Y-127841002D01*
G37*
G04 #@! TD*
G04 #@! TO.C,SW57*
G36*
X79640445Y-132140854D02*
G01*
X78993398Y-134555669D01*
X76530287Y-133895680D01*
X77177334Y-131480865D01*
X79640445Y-132140854D01*
G37*
G36*
X66715786Y-131307304D02*
G01*
X66068739Y-133722119D01*
X63605628Y-133062130D01*
X64252675Y-130647315D01*
X66715786Y-131307304D01*
G37*
G04 #@! TD*
G04 #@! TO.C,SW58*
G36*
X86353521Y-131720340D02*
G01*
X85706474Y-134135155D01*
X83243363Y-133475166D01*
X83890410Y-131060351D01*
X86353521Y-131720340D01*
G37*
G36*
X99278180Y-132553890D02*
G01*
X98631133Y-134968705D01*
X96168022Y-134308716D01*
X96815069Y-131893901D01*
X99278180Y-132553890D01*
G37*
G04 #@! TD*
G04 #@! TO.C,SW59*
G36*
X118028714Y-136131570D02*
G01*
X117381667Y-138546385D01*
X114918556Y-137886396D01*
X115565603Y-135471581D01*
X118028714Y-136131570D01*
G37*
G36*
X105104055Y-135298020D02*
G01*
X104457008Y-137712835D01*
X101993897Y-137052846D01*
X102640944Y-134638031D01*
X105104055Y-135298020D01*
G37*
G04 #@! TD*
G04 #@! TO.C,SW60*
G36*
X123205126Y-141585257D02*
G01*
X122558079Y-144000072D01*
X120094968Y-143340083D01*
X120742015Y-140925268D01*
X123205126Y-141585257D01*
G37*
G36*
X136129785Y-142418807D02*
G01*
X135482738Y-144833622D01*
X133019627Y-144173633D01*
X133666674Y-141758818D01*
X136129785Y-142418807D01*
G37*
G04 #@! TD*
G04 #@! TO.C,SW61*
G36*
X153871866Y-149550666D02*
G01*
X153224819Y-151965481D01*
X150761708Y-151305492D01*
X151408755Y-148890677D01*
X153871866Y-149550666D01*
G37*
G36*
X140947207Y-148717116D02*
G01*
X140300160Y-151131931D01*
X137837049Y-150471942D01*
X138484096Y-148057127D01*
X140947207Y-148717116D01*
G37*
G04 #@! TD*
D11*
G04 #@! TO.C,SW62*
X174490210Y-156139962D03*
X187190210Y-153599962D03*
G04 #@! TD*
G04 #@! TO.C,SW63*
X206181345Y-153600277D03*
X193481345Y-156140277D03*
G04 #@! TD*
G04 #@! TO.C,SW64*
X212474685Y-156123844D03*
X225174685Y-153583844D03*
G04 #@! TD*
G04 #@! TO.C,SW65*
X244166643Y-153581118D03*
X231466643Y-156121118D03*
G04 #@! TD*
D10*
G04 #@! TO.C,SW66*
G36*
X267795243Y-151755531D02*
G01*
X268442290Y-154170346D01*
X265979179Y-154830335D01*
X265332132Y-152415520D01*
X267795243Y-151755531D01*
G37*
G36*
X279405101Y-146015077D02*
G01*
X280052148Y-148429892D01*
X277589037Y-149089881D01*
X276941990Y-146675066D01*
X279405101Y-146015077D01*
G37*
G04 #@! TD*
G04 #@! TO.C,SW67*
G36*
X285540772Y-144600007D02*
G01*
X286187819Y-147014822D01*
X283724708Y-147674811D01*
X283077661Y-145259996D01*
X285540772Y-144600007D01*
G37*
G36*
X297150630Y-138859553D02*
G01*
X297797677Y-141274368D01*
X295334566Y-141934357D01*
X294687519Y-139519542D01*
X297150630Y-138859553D01*
G37*
G04 #@! TD*
G04 #@! TO.C,SW68*
G36*
X303662996Y-138329582D02*
G01*
X304310043Y-140744397D01*
X301846932Y-141404386D01*
X301199885Y-138989571D01*
X303662996Y-138329582D01*
G37*
G36*
X315272854Y-132589128D02*
G01*
X315919901Y-135003943D01*
X313456790Y-135663932D01*
X312809743Y-133249117D01*
X315272854Y-132589128D01*
G37*
G04 #@! TD*
G04 #@! TO.C,SW69*
G36*
X333970851Y-129003740D02*
G01*
X334617898Y-131418555D01*
X332154787Y-132078544D01*
X331507740Y-129663729D01*
X333970851Y-129003740D01*
G37*
G36*
X322360993Y-134744194D02*
G01*
X323008040Y-137159009D01*
X320544929Y-137818998D01*
X319897882Y-135404183D01*
X322360993Y-134744194D01*
G37*
G04 #@! TD*
G04 #@! TO.C,SW70*
G36*
X342032966Y-134360294D02*
G01*
X342680013Y-136775109D01*
X340216902Y-137435098D01*
X339569855Y-135020283D01*
X342032966Y-134360294D01*
G37*
G36*
X353642824Y-128619840D02*
G01*
X354289871Y-131034655D01*
X351826760Y-131694644D01*
X351179713Y-129279829D01*
X353642824Y-128619840D01*
G37*
G04 #@! TD*
G04 #@! TO.C,SW71*
G36*
X372417831Y-125114284D02*
G01*
X373064878Y-127529099D01*
X370601767Y-128189088D01*
X369954720Y-125774273D01*
X372417831Y-125114284D01*
G37*
G36*
X360807973Y-130854738D02*
G01*
X361455020Y-133269553D01*
X358991909Y-133929542D01*
X358344862Y-131514727D01*
X360807973Y-130854738D01*
G37*
G04 #@! TD*
G04 #@! TO.C,SW72*
G36*
X378823520Y-124474186D02*
G01*
X379470567Y-126889001D01*
X377007456Y-127548990D01*
X376360409Y-125134175D01*
X378823520Y-124474186D01*
G37*
G36*
X390433378Y-118733732D02*
G01*
X391080425Y-121148547D01*
X388617314Y-121808536D01*
X387970267Y-119393721D01*
X390433378Y-118733732D01*
G37*
G04 #@! TD*
G04 #@! TO.C,SW73*
G36*
X37908927Y-140728100D02*
G01*
X37261880Y-143142915D01*
X34798769Y-142482926D01*
X35445816Y-140068111D01*
X37908927Y-140728100D01*
G37*
G36*
X24984268Y-139894550D02*
G01*
X24337221Y-142309365D01*
X21874110Y-141649376D01*
X22521157Y-139234561D01*
X24984268Y-139894550D01*
G37*
G04 #@! TD*
G04 #@! TO.C,SW74*
G36*
X42988904Y-146203146D02*
G01*
X42341857Y-148617961D01*
X39878746Y-147957972D01*
X40525793Y-145543157D01*
X42988904Y-146203146D01*
G37*
G36*
X55913563Y-147036696D02*
G01*
X55266516Y-149451511D01*
X52803405Y-148791522D01*
X53450452Y-146376707D01*
X55913563Y-147036696D01*
G37*
G04 #@! TD*
G04 #@! TO.C,SW75*
G36*
X74706347Y-150568286D02*
G01*
X74059300Y-152983101D01*
X71596189Y-152323112D01*
X72243236Y-149908297D01*
X74706347Y-150568286D01*
G37*
G36*
X61781688Y-149734736D02*
G01*
X61134641Y-152149551D01*
X58671530Y-151489562D01*
X59318577Y-149074747D01*
X61781688Y-149734736D01*
G37*
G04 #@! TD*
G04 #@! TO.C,SW76*
G36*
X81441901Y-150108523D02*
G01*
X80794854Y-152523338D01*
X78331743Y-151863349D01*
X78978790Y-149448534D01*
X81441901Y-150108523D01*
G37*
G36*
X94366560Y-150942073D02*
G01*
X93719513Y-153356888D01*
X91256402Y-152696899D01*
X91903449Y-150282084D01*
X94366560Y-150942073D01*
G37*
G04 #@! TD*
G04 #@! TO.C,SW77*
G36*
X113097418Y-154525070D02*
G01*
X112450371Y-156939885D01*
X109987260Y-156279896D01*
X110634307Y-153865081D01*
X113097418Y-154525070D01*
G37*
G36*
X100172759Y-153691520D02*
G01*
X99525712Y-156106335D01*
X97062601Y-155446346D01*
X97709648Y-153031531D01*
X100172759Y-153691520D01*
G37*
G04 #@! TD*
G04 #@! TO.C,SW78*
G36*
X131190348Y-160788298D02*
G01*
X130543301Y-163203113D01*
X128080190Y-162543124D01*
X128727237Y-160128309D01*
X131190348Y-160788298D01*
G37*
G36*
X118265689Y-159954748D02*
G01*
X117618642Y-162369563D01*
X115155531Y-161709574D01*
X115802578Y-159294759D01*
X118265689Y-159954748D01*
G37*
G04 #@! TD*
D11*
G04 #@! TO.C,SW80*
X187204206Y-172602335D03*
X174504206Y-175142335D03*
G04 #@! TD*
G04 #@! TO.C,SW81*
X193493711Y-175132896D03*
X206193711Y-172592896D03*
G04 #@! TD*
G04 #@! TO.C,SW82*
X225199599Y-172573491D03*
X212499599Y-175113491D03*
G04 #@! TD*
G04 #@! TO.C,SW83*
X231462754Y-175102742D03*
X244162754Y-172562742D03*
G04 #@! TD*
D10*
G04 #@! TO.C,SW85*
G36*
X302069676Y-157256361D02*
G01*
X302716723Y-159671176D01*
X300253612Y-160331165D01*
X299606565Y-157916350D01*
X302069676Y-157256361D01*
G37*
G36*
X290459818Y-162996815D02*
G01*
X291106865Y-165411630D01*
X288643754Y-166071619D01*
X287996707Y-163656804D01*
X290459818Y-162996815D01*
G37*
G04 #@! TD*
G04 #@! TO.C,SW86*
G36*
X308577263Y-156704704D02*
G01*
X309224310Y-159119519D01*
X306761199Y-159779508D01*
X306114152Y-157364693D01*
X308577263Y-156704704D01*
G37*
G36*
X320187121Y-150964250D02*
G01*
X320834168Y-153379065D01*
X318371057Y-154039054D01*
X317724010Y-151624239D01*
X320187121Y-150964250D01*
G37*
G04 #@! TD*
G04 #@! TO.C,SW87*
G36*
X338907627Y-147411017D02*
G01*
X339554674Y-149825832D01*
X337091563Y-150485821D01*
X336444516Y-148071006D01*
X338907627Y-147411017D01*
G37*
G36*
X327297769Y-153151471D02*
G01*
X327944816Y-155566286D01*
X325481705Y-156226275D01*
X324834658Y-153811460D01*
X327297769Y-153151471D01*
G37*
G04 #@! TD*
G04 #@! TO.C,SW88*
G36*
X346978969Y-152755213D02*
G01*
X347626016Y-155170028D01*
X345162905Y-155830017D01*
X344515858Y-153415202D01*
X346978969Y-152755213D01*
G37*
G36*
X358588827Y-147014759D02*
G01*
X359235874Y-149429574D01*
X356772763Y-150089563D01*
X356125716Y-147674748D01*
X358588827Y-147014759D01*
G37*
G04 #@! TD*
G04 #@! TO.C,SW89*
G36*
X377350847Y-143544391D02*
G01*
X377997894Y-145959206D01*
X375534783Y-146619195D01*
X374887736Y-144204380D01*
X377350847Y-143544391D01*
G37*
G36*
X365740989Y-149284845D02*
G01*
X366388036Y-151699660D01*
X363924925Y-152359649D01*
X363277878Y-149944834D01*
X365740989Y-149284845D01*
G37*
G04 #@! TD*
G04 #@! TO.C,SW90*
G36*
X383759104Y-142888548D02*
G01*
X384406151Y-145303363D01*
X381943040Y-145963352D01*
X381295993Y-143548537D01*
X383759104Y-142888548D01*
G37*
G36*
X395368962Y-137148094D02*
G01*
X396016009Y-139562909D01*
X393552898Y-140222898D01*
X392905851Y-137808083D01*
X395368962Y-137148094D01*
G37*
G04 #@! TD*
M02*
