M48
; DRILL file {KiCad (5.1.10)-1} date 09/21/21 17:17:31
; FORMAT={-:-/ absolute / metric / decimal}
; #@! TF.CreationDate,2021-09-21T17:17:31+01:00
; #@! TF.GenerationSoftware,Kicad,Pcbnew,(5.1.10)-1
; #@! TF.FileFunction,Plated,1,2,PTH
FMAT,2
METRIC
T1C0.400
T2C0.600
T3C1.000
T4C2.200
%
G90
G05
T1
X38.399Y-142.322
X43.479Y-124.034
X45.925Y-64.34
X48.178Y-105.746
X53.103Y-87.359
X56.687Y-147.402
X56.869Y-78.64
X59.436Y-72.644
X61.767Y-129.114
X63.373Y-71.406
X66.637Y-110.655
X71.518Y-92.439
X75.157Y-83.72
X75.737Y-150.958
X78.232Y-76.2
X80.563Y-132.416
X82.042Y-74.942
X85.433Y-113.957
X90.695Y-94.471
X94.461Y-85.625
X95.168Y-151.212
X100.121Y-132.924
X102.044Y-74.993
X104.991Y-114.211
X110.123Y-97.663
X113.511Y-87.022
X113.71Y-156.292
X115.951Y-79.692
X118.834Y-137.833
X120.587Y-78.756
X123.489Y-119.208
X128.287Y-101.329
X131.49Y-163.404
X132.053Y-92.61
X135.382Y-83.312
X136.614Y-144.945
X138.785Y-84.836
X141.396Y-126.574
X146.304Y-107.95
X149.833Y-98.96
X151.53Y-165.246
X153.162Y-89.916
X155.086Y-151.873
X156.118Y-92.491
X160.166Y-133.585
X164.877Y-115.158
X166.851Y-104.929
X167.516Y-150.238
X170.434Y-155.194
X171.958Y-112.138
X172.85Y-131.188
X173.609Y-107.315
X173.609Y-122.936
X174.48Y-96.919
X178.498Y-94.932
X185.039Y-150.241
X189.738Y-105.791
X189.738Y-116.078
X189.738Y-135.255
X189.738Y-154.432
X189.738Y-173.482
X192.405Y-107.061
X192.405Y-127.127
X192.532Y-96.266
X193.464Y-96.858
X198.374Y-86.106
X199.898Y-86.106
X201.168Y-86.106
X203.962Y-169.291
X205.55Y-86.5
X208.788Y-105.791
X208.788Y-116.205
X208.788Y-135.382
X208.788Y-154.305
X208.788Y-173.355
X210.081Y-80.495
X211.074Y-132.588
X211.074Y-143.51
X211.074Y-159.766
X211.201Y-122.174
X211.582Y-107.95
X212.468Y-96.777
X214.884Y-95.631
X219.456Y-84.074
X219.456Y-85.55
X219.456Y-87.122
X220.85Y-86.4
X221.571Y-81.865
X221.599Y-83.676
X223.52Y-88.646
X225.552Y-87.884
X227.076Y-81.534
X227.838Y-105.791
X227.838Y-116.205
X227.838Y-135.255
X227.838Y-154.305
X227.838Y-173.355
X228.674Y-81.714
X229.486Y-110.112
X229.997Y-85.344
X229.997Y-86.614
X230.124Y-96.266
X230.25Y-81.75
X231.14Y-87.63
X231.457Y-96.584
X233.934Y-80.772
X233.976Y-78.782
X237.48Y-79.71
X237.57Y-89.67
X243.52Y-83.94
X244.15Y-82.15
X246.888Y-105.791
X246.888Y-116.332
X246.888Y-135.255
X246.888Y-154.305
X246.888Y-173.355
X251.269Y-95.948
X268.586Y-165.843
X268.859Y-88.646
X269.748Y-98.933
X270.147Y-107.841
X275.179Y-127.224
X280.094Y-145.601
X287.147Y-82.55
X287.782Y-92.329
X288.408Y-101.237
X293.022Y-119.921
X296.926Y-88.392
X297.962Y-138.323
X303.054Y-157.639
X305.689Y-78.74
X306.197Y-87.376
X306.596Y-96.411
X311.195Y-114.382
X316.148Y-132.797
X321.287Y-151.615
X325.405Y-85.629
X325.9Y-94.379
X326.354Y-77.379
X330.88Y-114.001
X335.706Y-132.543
X340.786Y-150.958
X344.582Y-83.597
X344.95Y-92.347
X345.089Y-74.773
X349.676Y-110.699
X354.629Y-129.114
X359.455Y-147.402
X360.553Y-70.866
X360.68Y-72.263
X362.997Y-78.771
X363.512Y-87.521
X368.193Y-106.319
X373.237Y-124.571
X378.238Y-143.923
X379.888Y-73.437
X381.862Y-83.793
X386.95Y-101.962
X391.903Y-120.504
X396.729Y-138.792
T3
X198.374Y-78.232
X198.374Y-80.772
X198.374Y-83.312
X200.914Y-78.232
X200.914Y-80.772
X200.914Y-83.312
T4
X37.084Y-153.924
X59.69Y-68.834
X84.836Y-125.222
X96.52Y-79.502
X110.998Y-170.434
X128.016Y-108.204
X164.973Y-156.591
X165.735Y-84.328
X168.021Y-121.158
X171.958Y-187.325
X191.008Y-142.113
X209.931Y-125.603
X209.931Y-163.576
X229.108Y-141.986
X247.904Y-187.198
X251.968Y-121.285
X255.397Y-156.845
X256.413Y-84.074
X291.719Y-108.204
X308.356Y-170.815
X322.834Y-77.851
X335.28Y-125.095
X359.791Y-68.072
X382.905Y-154.686
T2
X205.622Y-77.99G85X205.622Y-77.39
G05
X205.622Y-82.42G85X205.622Y-81.32
G05
X214.262Y-77.99G85X214.262Y-77.39
G05
X214.262Y-82.42G85X214.262Y-81.32
G05
T0
M30
