G04 #@! TF.GenerationSoftware,KiCad,Pcbnew,(5.1.10)-1*
G04 #@! TF.CreationDate,2021-10-14T20:39:04+01:00*
G04 #@! TF.ProjectId,superlyra-hs,73757065-726c-4797-9261-2d68732e6b69,0.1*
G04 #@! TF.SameCoordinates,Original*
G04 #@! TF.FileFunction,Other,Comment*
%FSLAX46Y46*%
G04 Gerber Fmt 4.6, Leading zero omitted, Abs format (unit mm)*
G04 Created by KiCad (PCBNEW (5.1.10)-1) date 2021-10-14 20:39:04*
%MOMM*%
%LPD*%
G01*
G04 APERTURE LIST*
%ADD10C,0.150000*%
G04 APERTURE END LIST*
D10*
X44295000Y-60833000D02*
G75*
G03*
X44295000Y-60833000I-1750000J0D01*
G01*
X129639000Y-182118000D02*
G75*
G03*
X129639000Y-182118000I-1750000J0D01*
G01*
X167612000Y-140970000D02*
G75*
G03*
X167612000Y-140970000I-1750000J0D01*
G01*
X19276000Y-149860000D02*
G75*
G03*
X19276000Y-149860000I-1750000J0D01*
G01*
X173708000Y-187325000D02*
G75*
G03*
X173708000Y-187325000I-1750000J0D01*
G01*
X166088000Y-83947000D02*
G75*
G03*
X166088000Y-83947000I-1750000J0D01*
G01*
X258163000Y-84074000D02*
G75*
G03*
X258163000Y-84074000I-1750000J0D01*
G01*
X255115000Y-140716000D02*
G75*
G03*
X255115000Y-140716000I-1750000J0D01*
G01*
X403705000Y-149352000D02*
G75*
G03*
X403705000Y-149352000I-1750000J0D01*
G01*
X249654000Y-187198000D02*
G75*
G03*
X249654000Y-187198000I-1750000J0D01*
G01*
X293850000Y-182118000D02*
G75*
G03*
X293850000Y-182118000I-1750000J0D01*
G01*
X379448000Y-59817000D02*
G75*
G03*
X379448000Y-59817000I-1750000J0D01*
G01*
X231023333Y-84644666D02*
X230790000Y-84311333D01*
X230623333Y-84644666D02*
X230623333Y-83944666D01*
X230890000Y-83944666D01*
X230956666Y-83978000D01*
X230990000Y-84011333D01*
X231023333Y-84078000D01*
X231023333Y-84178000D01*
X230990000Y-84244666D01*
X230956666Y-84278000D01*
X230890000Y-84311333D01*
X230623333Y-84311333D01*
X231256666Y-83944666D02*
X231690000Y-83944666D01*
X231456666Y-84211333D01*
X231556666Y-84211333D01*
X231623333Y-84244666D01*
X231656666Y-84278000D01*
X231690000Y-84344666D01*
X231690000Y-84511333D01*
X231656666Y-84578000D01*
X231623333Y-84611333D01*
X231556666Y-84644666D01*
X231356666Y-84644666D01*
X231290000Y-84611333D01*
X231256666Y-84578000D01*
X217678095Y-78848380D02*
X217678095Y-79657904D01*
X217725714Y-79753142D01*
X217773333Y-79800761D01*
X217868571Y-79848380D01*
X218059047Y-79848380D01*
X218154285Y-79800761D01*
X218201904Y-79753142D01*
X218249523Y-79657904D01*
X218249523Y-78848380D01*
X218678095Y-78943619D02*
X218725714Y-78896000D01*
X218820952Y-78848380D01*
X219059047Y-78848380D01*
X219154285Y-78896000D01*
X219201904Y-78943619D01*
X219249523Y-79038857D01*
X219249523Y-79134095D01*
X219201904Y-79276952D01*
X218630476Y-79848380D01*
X219249523Y-79848380D01*
X239588358Y-77316649D02*
X239541218Y-77316649D01*
X239446937Y-77269509D01*
X239399796Y-77222368D01*
X239352656Y-77128088D01*
X239352656Y-77033807D01*
X239376226Y-76963096D01*
X239446937Y-76845245D01*
X239517647Y-76774534D01*
X239635498Y-76703824D01*
X239706209Y-76680253D01*
X239800490Y-76680253D01*
X239894771Y-76727394D01*
X239941911Y-76774534D01*
X239989052Y-76868815D01*
X239989052Y-76915956D01*
X240177614Y-77104517D02*
X240224754Y-77104517D01*
X240295465Y-77128088D01*
X240413316Y-77245939D01*
X240436886Y-77316649D01*
X240436886Y-77363790D01*
X240413316Y-77434501D01*
X240366175Y-77481641D01*
X240271895Y-77528781D01*
X239706209Y-77528781D01*
X240012622Y-77835194D01*
X242535860Y-82370852D02*
X242535860Y-82417992D01*
X242488720Y-82512273D01*
X242441580Y-82559414D01*
X242347299Y-82606554D01*
X242253018Y-82606554D01*
X242182307Y-82582984D01*
X242064456Y-82512273D01*
X241993745Y-82441563D01*
X241923035Y-82323712D01*
X241899464Y-82253001D01*
X241899464Y-82158720D01*
X241946605Y-82064439D01*
X241993745Y-82017299D01*
X242088026Y-81970158D01*
X242135167Y-81970158D01*
X242253018Y-81758026D02*
X242559431Y-81451613D01*
X242583001Y-81805167D01*
X242653712Y-81734456D01*
X242724422Y-81710886D01*
X242771563Y-81710886D01*
X242842273Y-81734456D01*
X242960124Y-81852307D01*
X242983695Y-81923018D01*
X242983695Y-81970158D01*
X242960124Y-82040869D01*
X242818703Y-82182290D01*
X242747992Y-82205860D01*
X242700852Y-82205860D01*
X238937700Y-91592192D02*
X238937700Y-91639332D01*
X238890560Y-91733613D01*
X238843420Y-91780754D01*
X238749139Y-91827894D01*
X238654858Y-91827894D01*
X238584147Y-91804324D01*
X238466296Y-91733613D01*
X238395585Y-91662903D01*
X238324875Y-91545052D01*
X238301304Y-91474341D01*
X238301304Y-91380060D01*
X238348445Y-91285779D01*
X238395585Y-91238639D01*
X238489866Y-91191498D01*
X238537007Y-91191498D01*
X239079122Y-90885085D02*
X239409105Y-91215068D01*
X238772709Y-90814375D02*
X239008411Y-91285779D01*
X239314824Y-90979366D01*
X230261333Y-81784000D02*
X230228000Y-81817333D01*
X230128000Y-81850666D01*
X230061333Y-81850666D01*
X229961333Y-81817333D01*
X229894666Y-81750666D01*
X229861333Y-81684000D01*
X229828000Y-81550666D01*
X229828000Y-81450666D01*
X229861333Y-81317333D01*
X229894666Y-81250666D01*
X229961333Y-81184000D01*
X230061333Y-81150666D01*
X230128000Y-81150666D01*
X230228000Y-81184000D01*
X230261333Y-81217333D01*
X230894666Y-81150666D02*
X230561333Y-81150666D01*
X230528000Y-81484000D01*
X230561333Y-81450666D01*
X230628000Y-81417333D01*
X230794666Y-81417333D01*
X230861333Y-81450666D01*
X230894666Y-81484000D01*
X230928000Y-81550666D01*
X230928000Y-81717333D01*
X230894666Y-81784000D01*
X230861333Y-81817333D01*
X230794666Y-81850666D01*
X230628000Y-81850666D01*
X230561333Y-81817333D01*
X230528000Y-81784000D01*
X199310666Y-85534380D02*
X199310666Y-86248666D01*
X199263047Y-86391523D01*
X199167809Y-86486761D01*
X199024952Y-86534380D01*
X198929714Y-86534380D01*
X199739238Y-85629619D02*
X199786857Y-85582000D01*
X199882095Y-85534380D01*
X200120190Y-85534380D01*
X200215428Y-85582000D01*
X200263047Y-85629619D01*
X200310666Y-85724857D01*
X200310666Y-85820095D01*
X200263047Y-85962952D01*
X199691619Y-86534380D01*
X200310666Y-86534380D01*
X230261333Y-80580666D02*
X230028000Y-80247333D01*
X229861333Y-80580666D02*
X229861333Y-79880666D01*
X230128000Y-79880666D01*
X230194666Y-79914000D01*
X230228000Y-79947333D01*
X230261333Y-80014000D01*
X230261333Y-80114000D01*
X230228000Y-80180666D01*
X230194666Y-80214000D01*
X230128000Y-80247333D01*
X229861333Y-80247333D01*
X230928000Y-80580666D02*
X230528000Y-80580666D01*
X230728000Y-80580666D02*
X230728000Y-79880666D01*
X230661333Y-79980666D01*
X230594666Y-80047333D01*
X230528000Y-80080666D01*
X230261333Y-79564666D02*
X230028000Y-79231333D01*
X229861333Y-79564666D02*
X229861333Y-78864666D01*
X230128000Y-78864666D01*
X230194666Y-78898000D01*
X230228000Y-78931333D01*
X230261333Y-78998000D01*
X230261333Y-79098000D01*
X230228000Y-79164666D01*
X230194666Y-79198000D01*
X230128000Y-79231333D01*
X229861333Y-79231333D01*
X230528000Y-78931333D02*
X230561333Y-78898000D01*
X230628000Y-78864666D01*
X230794666Y-78864666D01*
X230861333Y-78898000D01*
X230894666Y-78931333D01*
X230928000Y-78998000D01*
X230928000Y-79064666D01*
X230894666Y-79164666D01*
X230494666Y-79564666D01*
X230928000Y-79564666D01*
X242075364Y-87349644D02*
X242146074Y-86948950D01*
X241792521Y-87066801D02*
X242287496Y-86571826D01*
X242476057Y-86760388D01*
X242499628Y-86831099D01*
X242499628Y-86878239D01*
X242476057Y-86948950D01*
X242405347Y-87019661D01*
X242334636Y-87043231D01*
X242287496Y-87043231D01*
X242216785Y-87019661D01*
X242028223Y-86831099D01*
X242829611Y-87443925D02*
X242499628Y-87773908D01*
X242900321Y-87137512D02*
X242428917Y-87373214D01*
X242735330Y-87679627D01*
X214823333Y-85862666D02*
X214590000Y-85529333D01*
X214423333Y-85862666D02*
X214423333Y-85162666D01*
X214690000Y-85162666D01*
X214756666Y-85196000D01*
X214790000Y-85229333D01*
X214823333Y-85296000D01*
X214823333Y-85396000D01*
X214790000Y-85462666D01*
X214756666Y-85496000D01*
X214690000Y-85529333D01*
X214423333Y-85529333D01*
X215456666Y-85162666D02*
X215123333Y-85162666D01*
X215090000Y-85496000D01*
X215123333Y-85462666D01*
X215190000Y-85429333D01*
X215356666Y-85429333D01*
X215423333Y-85462666D01*
X215456666Y-85496000D01*
X215490000Y-85562666D01*
X215490000Y-85729333D01*
X215456666Y-85796000D01*
X215423333Y-85829333D01*
X215356666Y-85862666D01*
X215190000Y-85862666D01*
X215123333Y-85829333D01*
X215090000Y-85796000D01*
X204833333Y-85872666D02*
X204600000Y-85539333D01*
X204433333Y-85872666D02*
X204433333Y-85172666D01*
X204700000Y-85172666D01*
X204766666Y-85206000D01*
X204800000Y-85239333D01*
X204833333Y-85306000D01*
X204833333Y-85406000D01*
X204800000Y-85472666D01*
X204766666Y-85506000D01*
X204700000Y-85539333D01*
X204433333Y-85539333D01*
X205433333Y-85172666D02*
X205300000Y-85172666D01*
X205233333Y-85206000D01*
X205200000Y-85239333D01*
X205133333Y-85339333D01*
X205100000Y-85472666D01*
X205100000Y-85739333D01*
X205133333Y-85806000D01*
X205166666Y-85839333D01*
X205233333Y-85872666D01*
X205366666Y-85872666D01*
X205433333Y-85839333D01*
X205466666Y-85806000D01*
X205500000Y-85739333D01*
X205500000Y-85572666D01*
X205466666Y-85506000D01*
X205433333Y-85472666D01*
X205366666Y-85439333D01*
X205233333Y-85439333D01*
X205166666Y-85472666D01*
X205133333Y-85506000D01*
X205100000Y-85572666D01*
X240746732Y-80247771D02*
X240174312Y-80820191D01*
X240140640Y-80921206D01*
X240140640Y-80988550D01*
X240174312Y-81089565D01*
X240308999Y-81224252D01*
X240410014Y-81257924D01*
X240477358Y-81257924D01*
X240578373Y-81224252D01*
X241150793Y-80651832D01*
X241150793Y-82066046D02*
X240746732Y-81661985D01*
X240948762Y-81864015D02*
X241655869Y-81156909D01*
X241487510Y-81190580D01*
X241352823Y-81190580D01*
X241251808Y-81156909D01*
X209608663Y-78700380D02*
X209608663Y-79414666D01*
X209561044Y-79557523D01*
X209465806Y-79652761D01*
X209322949Y-79700380D01*
X209227711Y-79700380D01*
X210608663Y-79700380D02*
X210037235Y-79700380D01*
X210322949Y-79700380D02*
X210322949Y-78700380D01*
X210227711Y-78843238D01*
X210132473Y-78938476D01*
X210037235Y-78986095D01*
X188362666Y-80039333D02*
X188462666Y-80072666D01*
X188629333Y-80072666D01*
X188696000Y-80039333D01*
X188729333Y-80006000D01*
X188762666Y-79939333D01*
X188762666Y-79872666D01*
X188729333Y-79806000D01*
X188696000Y-79772666D01*
X188629333Y-79739333D01*
X188496000Y-79706000D01*
X188429333Y-79672666D01*
X188396000Y-79639333D01*
X188362666Y-79572666D01*
X188362666Y-79506000D01*
X188396000Y-79439333D01*
X188429333Y-79406000D01*
X188496000Y-79372666D01*
X188662666Y-79372666D01*
X188762666Y-79406000D01*
X188996000Y-79372666D02*
X189162666Y-80072666D01*
X189296000Y-79572666D01*
X189429333Y-80072666D01*
X189596000Y-79372666D01*
X190262666Y-80072666D02*
X190029333Y-79739333D01*
X189862666Y-80072666D02*
X189862666Y-79372666D01*
X190129333Y-79372666D01*
X190196000Y-79406000D01*
X190229333Y-79439333D01*
X190262666Y-79506000D01*
X190262666Y-79606000D01*
X190229333Y-79672666D01*
X190196000Y-79706000D01*
X190129333Y-79739333D01*
X189862666Y-79739333D01*
X190529333Y-80039333D02*
X190629333Y-80072666D01*
X190796000Y-80072666D01*
X190862666Y-80039333D01*
X190896000Y-80006000D01*
X190929333Y-79939333D01*
X190929333Y-79872666D01*
X190896000Y-79806000D01*
X190862666Y-79772666D01*
X190796000Y-79739333D01*
X190662666Y-79706000D01*
X190596000Y-79672666D01*
X190562666Y-79639333D01*
X190529333Y-79572666D01*
X190529333Y-79506000D01*
X190562666Y-79439333D01*
X190596000Y-79406000D01*
X190662666Y-79372666D01*
X190829333Y-79372666D01*
X190929333Y-79406000D01*
X191129333Y-79372666D02*
X191529333Y-79372666D01*
X191329333Y-80072666D02*
X191329333Y-79372666D01*
X192129333Y-80072666D02*
X191729333Y-80072666D01*
X191929333Y-80072666D02*
X191929333Y-79372666D01*
X191862666Y-79472666D01*
X191796000Y-79539333D01*
X191729333Y-79572666D01*
X236738358Y-77736649D02*
X236691218Y-77736649D01*
X236596937Y-77689509D01*
X236549796Y-77642368D01*
X236502656Y-77548088D01*
X236502656Y-77453807D01*
X236526226Y-77383096D01*
X236596937Y-77265245D01*
X236667647Y-77194534D01*
X236785498Y-77123824D01*
X236856209Y-77100253D01*
X236950490Y-77100253D01*
X237044771Y-77147394D01*
X237091911Y-77194534D01*
X237139052Y-77288815D01*
X237139052Y-77335956D01*
X237162622Y-78255194D02*
X236879779Y-77972352D01*
X237021201Y-78113773D02*
X237516175Y-77618798D01*
X237398324Y-77642368D01*
X237304043Y-77642368D01*
X237233333Y-77618798D01*
X57649933Y-79062030D02*
X56684007Y-78803211D01*
X56745631Y-78573228D01*
X56828601Y-78447563D01*
X56945244Y-78380220D01*
X57049561Y-78358873D01*
X57245872Y-78362175D01*
X57383861Y-78399149D01*
X57555522Y-78494445D01*
X57635191Y-78565091D01*
X57702534Y-78681733D01*
X57711556Y-78832047D01*
X57649933Y-79062030D01*
X58044324Y-77590143D02*
X57896427Y-78142100D01*
X57970375Y-77866121D02*
X57004450Y-77607302D01*
X57117790Y-77736269D01*
X57185133Y-77852912D01*
X57206480Y-77957229D01*
X75937933Y-84142030D02*
X74972007Y-83883211D01*
X75033631Y-83653228D01*
X75116601Y-83527563D01*
X75233244Y-83460220D01*
X75337561Y-83438873D01*
X75533872Y-83442175D01*
X75671861Y-83479149D01*
X75843522Y-83574445D01*
X75923191Y-83645091D01*
X75990534Y-83761733D01*
X75999556Y-83912047D01*
X75937933Y-84142030D01*
X75310494Y-82987931D02*
X75276823Y-82929609D01*
X75255475Y-82825292D01*
X75317099Y-82595309D01*
X75387745Y-82515641D01*
X75446066Y-82481969D01*
X75550384Y-82460622D01*
X75642377Y-82485272D01*
X75768041Y-82568242D01*
X76172102Y-83268097D01*
X76332324Y-82670143D01*
X95241933Y-86174030D02*
X94276007Y-85915211D01*
X94337631Y-85685228D01*
X94420601Y-85559563D01*
X94537244Y-85492220D01*
X94641561Y-85470873D01*
X94837872Y-85474175D01*
X94975861Y-85511149D01*
X95147522Y-85606445D01*
X95227191Y-85677091D01*
X95294534Y-85793733D01*
X95303556Y-85944047D01*
X95241933Y-86174030D01*
X94510177Y-85041278D02*
X94670398Y-84443324D01*
X94952097Y-84863897D01*
X94989071Y-84725907D01*
X95059717Y-84646239D01*
X95118038Y-84612567D01*
X95222356Y-84591220D01*
X95452338Y-84652844D01*
X95532006Y-84723490D01*
X95565678Y-84781811D01*
X95587025Y-84886128D01*
X95513077Y-85162107D01*
X95442431Y-85241775D01*
X95384110Y-85275447D01*
X114291933Y-87952030D02*
X113326007Y-87693211D01*
X113387631Y-87463228D01*
X113470601Y-87337563D01*
X113587244Y-87270220D01*
X113691561Y-87248873D01*
X113887872Y-87252175D01*
X114025861Y-87289149D01*
X114197522Y-87384445D01*
X114277191Y-87455091D01*
X114344534Y-87571733D01*
X114353556Y-87722047D01*
X114291933Y-87952030D01*
X114017724Y-86399589D02*
X114661674Y-86572136D01*
X113588128Y-86530974D02*
X114216452Y-86945827D01*
X114376673Y-86347873D01*
X132833933Y-93032030D02*
X131868007Y-92773211D01*
X131929631Y-92543228D01*
X132012601Y-92417563D01*
X132129244Y-92350220D01*
X132233561Y-92328873D01*
X132429872Y-92332175D01*
X132567861Y-92369149D01*
X132739522Y-92464445D01*
X132819191Y-92535091D01*
X132886534Y-92651733D01*
X132895556Y-92802047D01*
X132833933Y-93032030D01*
X132250073Y-91347320D02*
X132126826Y-91807285D01*
X132574466Y-91976528D01*
X132540794Y-91918207D01*
X132519447Y-91813889D01*
X132581071Y-91583907D01*
X132651717Y-91504239D01*
X132710038Y-91470567D01*
X132814356Y-91449220D01*
X133044338Y-91510844D01*
X133124006Y-91581490D01*
X133157678Y-91639811D01*
X133179025Y-91744128D01*
X133117401Y-91974111D01*
X133046755Y-92053779D01*
X132988434Y-92087451D01*
X150613933Y-99636030D02*
X149648007Y-99377211D01*
X149709631Y-99147228D01*
X149792601Y-99021563D01*
X149909244Y-98954220D01*
X150013561Y-98932873D01*
X150209872Y-98936175D01*
X150347861Y-98973149D01*
X150519522Y-99068445D01*
X150599191Y-99139091D01*
X150666534Y-99255733D01*
X150675556Y-99406047D01*
X150613933Y-99636030D01*
X150017749Y-97997316D02*
X149968450Y-98181302D01*
X149989797Y-98285620D01*
X150023468Y-98343941D01*
X150136808Y-98472908D01*
X150308470Y-98568204D01*
X150676441Y-98666801D01*
X150780759Y-98645454D01*
X150839080Y-98611783D01*
X150909726Y-98532114D01*
X150959025Y-98348128D01*
X150937678Y-98243811D01*
X150904006Y-98185490D01*
X150824338Y-98114844D01*
X150594356Y-98053220D01*
X150490038Y-98074567D01*
X150431717Y-98108239D01*
X150361071Y-98187907D01*
X150311772Y-98371893D01*
X150333119Y-98476211D01*
X150366791Y-98534532D01*
X150446459Y-98605178D01*
X165091933Y-108272030D02*
X164126007Y-108013211D01*
X164187631Y-107783228D01*
X164270601Y-107657563D01*
X164387244Y-107590220D01*
X164491561Y-107568873D01*
X164687872Y-107572175D01*
X164825861Y-107609149D01*
X164997522Y-107704445D01*
X165077191Y-107775091D01*
X165144534Y-107891733D01*
X165153556Y-108042047D01*
X165091933Y-108272030D01*
X164360177Y-107139278D02*
X164532723Y-106495327D01*
X165387726Y-107168114D01*
X190190380Y-106148095D02*
X189190380Y-106148095D01*
X189190380Y-105910000D01*
X189238000Y-105767142D01*
X189333238Y-105671904D01*
X189428476Y-105624285D01*
X189618952Y-105576666D01*
X189761809Y-105576666D01*
X189952285Y-105624285D01*
X190047523Y-105671904D01*
X190142761Y-105767142D01*
X190190380Y-105910000D01*
X190190380Y-106148095D01*
X189618952Y-105005238D02*
X189571333Y-105100476D01*
X189523714Y-105148095D01*
X189428476Y-105195714D01*
X189380857Y-105195714D01*
X189285619Y-105148095D01*
X189238000Y-105100476D01*
X189190380Y-105005238D01*
X189190380Y-104814761D01*
X189238000Y-104719523D01*
X189285619Y-104671904D01*
X189380857Y-104624285D01*
X189428476Y-104624285D01*
X189523714Y-104671904D01*
X189571333Y-104719523D01*
X189618952Y-104814761D01*
X189618952Y-105005238D01*
X189666571Y-105100476D01*
X189714190Y-105148095D01*
X189809428Y-105195714D01*
X189999904Y-105195714D01*
X190095142Y-105148095D01*
X190142761Y-105100476D01*
X190190380Y-105005238D01*
X190190380Y-104814761D01*
X190142761Y-104719523D01*
X190095142Y-104671904D01*
X189999904Y-104624285D01*
X189809428Y-104624285D01*
X189714190Y-104671904D01*
X189666571Y-104719523D01*
X189618952Y-104814761D01*
X209240380Y-106148095D02*
X208240380Y-106148095D01*
X208240380Y-105910000D01*
X208288000Y-105767142D01*
X208383238Y-105671904D01*
X208478476Y-105624285D01*
X208668952Y-105576666D01*
X208811809Y-105576666D01*
X209002285Y-105624285D01*
X209097523Y-105671904D01*
X209192761Y-105767142D01*
X209240380Y-105910000D01*
X209240380Y-106148095D01*
X209240380Y-105100476D02*
X209240380Y-104910000D01*
X209192761Y-104814761D01*
X209145142Y-104767142D01*
X209002285Y-104671904D01*
X208811809Y-104624285D01*
X208430857Y-104624285D01*
X208335619Y-104671904D01*
X208288000Y-104719523D01*
X208240380Y-104814761D01*
X208240380Y-105005238D01*
X208288000Y-105100476D01*
X208335619Y-105148095D01*
X208430857Y-105195714D01*
X208668952Y-105195714D01*
X208764190Y-105148095D01*
X208811809Y-105100476D01*
X208859428Y-105005238D01*
X208859428Y-104814761D01*
X208811809Y-104719523D01*
X208764190Y-104671904D01*
X208668952Y-104624285D01*
X228290380Y-106116285D02*
X227290380Y-106116285D01*
X227290380Y-105878190D01*
X227338000Y-105735333D01*
X227433238Y-105640095D01*
X227528476Y-105592476D01*
X227718952Y-105544857D01*
X227861809Y-105544857D01*
X228052285Y-105592476D01*
X228147523Y-105640095D01*
X228242761Y-105735333D01*
X228290380Y-105878190D01*
X228290380Y-106116285D01*
X228290380Y-104592476D02*
X228290380Y-105163904D01*
X228290380Y-104878190D02*
X227290380Y-104878190D01*
X227433238Y-104973428D01*
X227528476Y-105068666D01*
X227576095Y-105163904D01*
X227290380Y-103973428D02*
X227290380Y-103878190D01*
X227338000Y-103782952D01*
X227385619Y-103735333D01*
X227480857Y-103687714D01*
X227671333Y-103640095D01*
X227909428Y-103640095D01*
X228099904Y-103687714D01*
X228195142Y-103735333D01*
X228242761Y-103782952D01*
X228290380Y-103878190D01*
X228290380Y-103973428D01*
X228242761Y-104068666D01*
X228195142Y-104116285D01*
X228099904Y-104163904D01*
X227909428Y-104211523D01*
X227671333Y-104211523D01*
X227480857Y-104163904D01*
X227385619Y-104116285D01*
X227338000Y-104068666D01*
X227290380Y-103973428D01*
X247340380Y-106116285D02*
X246340380Y-106116285D01*
X246340380Y-105878190D01*
X246388000Y-105735333D01*
X246483238Y-105640095D01*
X246578476Y-105592476D01*
X246768952Y-105544857D01*
X246911809Y-105544857D01*
X247102285Y-105592476D01*
X247197523Y-105640095D01*
X247292761Y-105735333D01*
X247340380Y-105878190D01*
X247340380Y-106116285D01*
X247340380Y-104592476D02*
X247340380Y-105163904D01*
X247340380Y-104878190D02*
X246340380Y-104878190D01*
X246483238Y-104973428D01*
X246578476Y-105068666D01*
X246626095Y-105163904D01*
X247340380Y-103640095D02*
X247340380Y-104211523D01*
X247340380Y-103925809D02*
X246340380Y-103925809D01*
X246483238Y-104021047D01*
X246578476Y-104116285D01*
X246626095Y-104211523D01*
X267583304Y-101386588D02*
X268549230Y-101127769D01*
X268610853Y-101357752D01*
X268601831Y-101508066D01*
X268534487Y-101624708D01*
X268454819Y-101695354D01*
X268283158Y-101790649D01*
X268145169Y-101827624D01*
X267948858Y-101830926D01*
X267844540Y-101809579D01*
X267727898Y-101742235D01*
X267644927Y-101616571D01*
X267583304Y-101386588D01*
X267977695Y-102858475D02*
X267829798Y-102306518D01*
X267903746Y-102582497D02*
X268869672Y-102323677D01*
X268707033Y-102268659D01*
X268590391Y-102201315D01*
X268519745Y-102121647D01*
X268950225Y-102992277D02*
X269008547Y-103025949D01*
X269079192Y-103105617D01*
X269140816Y-103335600D01*
X269119469Y-103439917D01*
X269085797Y-103498239D01*
X269006129Y-103568885D01*
X268914136Y-103593534D01*
X268763822Y-103584512D01*
X268063968Y-103180451D01*
X268224189Y-103778405D01*
X285617304Y-94782588D02*
X286583230Y-94523769D01*
X286644853Y-94753752D01*
X286635831Y-94904066D01*
X286568487Y-95020708D01*
X286488819Y-95091354D01*
X286317158Y-95186649D01*
X286179169Y-95223624D01*
X285982858Y-95226926D01*
X285878540Y-95205579D01*
X285761898Y-95138235D01*
X285678927Y-95012571D01*
X285617304Y-94782588D01*
X286011695Y-96254475D02*
X285863798Y-95702518D01*
X285937746Y-95978497D02*
X286903672Y-95719677D01*
X286741033Y-95664659D01*
X286624391Y-95597315D01*
X286553745Y-95517647D01*
X287063894Y-96317632D02*
X287224115Y-96915586D01*
X286769870Y-96692208D01*
X286806844Y-96830198D01*
X286785497Y-96934515D01*
X286751825Y-96992836D01*
X286672157Y-97063482D01*
X286442175Y-97125106D01*
X286337857Y-97103759D01*
X286279536Y-97070087D01*
X286208890Y-96990419D01*
X286134942Y-96714440D01*
X286156289Y-96610122D01*
X286189961Y-96551801D01*
X304032304Y-89956588D02*
X304998230Y-89697769D01*
X305059853Y-89927752D01*
X305050831Y-90078066D01*
X304983487Y-90194708D01*
X304903819Y-90265354D01*
X304732158Y-90360649D01*
X304594169Y-90397624D01*
X304397858Y-90400926D01*
X304293540Y-90379579D01*
X304176898Y-90312235D01*
X304093927Y-90186571D01*
X304032304Y-89956588D01*
X304426695Y-91428475D02*
X304278798Y-90876518D01*
X304352746Y-91152497D02*
X305318672Y-90893677D01*
X305156033Y-90838659D01*
X305039391Y-90771315D01*
X304968745Y-90691647D01*
X305292490Y-92083866D02*
X304648540Y-92256412D01*
X305598838Y-91755286D02*
X304847268Y-91710174D01*
X305007489Y-92308128D01*
X323209304Y-87924588D02*
X324175230Y-87665769D01*
X324236853Y-87895752D01*
X324227831Y-88046066D01*
X324160487Y-88162708D01*
X324080819Y-88233354D01*
X323909158Y-88328649D01*
X323771169Y-88365624D01*
X323574858Y-88368926D01*
X323470540Y-88347579D01*
X323353898Y-88280235D01*
X323270927Y-88154571D01*
X323209304Y-87924588D01*
X323603695Y-89396475D02*
X323455798Y-88844518D01*
X323529746Y-89120497D02*
X324495672Y-88861677D01*
X324333033Y-88806659D01*
X324216391Y-88739315D01*
X324145745Y-88659647D01*
X324803790Y-90011589D02*
X324680543Y-89551625D01*
X324208254Y-89628875D01*
X324266575Y-89662547D01*
X324337221Y-89742215D01*
X324398844Y-89972198D01*
X324377497Y-90076515D01*
X324343825Y-90134836D01*
X324264157Y-90205482D01*
X324034175Y-90267106D01*
X323929857Y-90245759D01*
X323871536Y-90212087D01*
X323800890Y-90132419D01*
X323739267Y-89902436D01*
X323760614Y-89798119D01*
X323794285Y-89739798D01*
X342386304Y-85892588D02*
X343352230Y-85633769D01*
X343413853Y-85863752D01*
X343404831Y-86014066D01*
X343337487Y-86130708D01*
X343257819Y-86201354D01*
X343086158Y-86296649D01*
X342948169Y-86333624D01*
X342751858Y-86336926D01*
X342647540Y-86315579D01*
X342530898Y-86248235D01*
X342447927Y-86122571D01*
X342386304Y-85892588D01*
X342780695Y-87364475D02*
X342632798Y-86812518D01*
X342706746Y-87088497D02*
X343672672Y-86829677D01*
X343510033Y-86774659D01*
X343393391Y-86707315D01*
X343322745Y-86627647D01*
X343968465Y-87933593D02*
X343919167Y-87749607D01*
X343848521Y-87669939D01*
X343790199Y-87636267D01*
X343627561Y-87581248D01*
X343431250Y-87584550D01*
X343063278Y-87683148D01*
X342983610Y-87753794D01*
X342949938Y-87812115D01*
X342928591Y-87916433D01*
X342977890Y-88100419D01*
X343048536Y-88180087D01*
X343106857Y-88213759D01*
X343211175Y-88235106D01*
X343441157Y-88173482D01*
X343520825Y-88102836D01*
X343554497Y-88044515D01*
X343575844Y-87940198D01*
X343526545Y-87756212D01*
X343455899Y-87676543D01*
X343397578Y-87642872D01*
X343293261Y-87621525D01*
X360801304Y-81066588D02*
X361767230Y-80807769D01*
X361828853Y-81037752D01*
X361819831Y-81188066D01*
X361752487Y-81304708D01*
X361672819Y-81375354D01*
X361501158Y-81470649D01*
X361363169Y-81507624D01*
X361166858Y-81510926D01*
X361062540Y-81489579D01*
X360945898Y-81422235D01*
X360862927Y-81296571D01*
X360801304Y-81066588D01*
X361195695Y-82538475D02*
X361047798Y-81986518D01*
X361121746Y-82262497D02*
X362087672Y-82003677D01*
X361925033Y-81948659D01*
X361808391Y-81881315D01*
X361737745Y-81801647D01*
X362247894Y-82601632D02*
X362420440Y-83245582D01*
X361343591Y-83090433D01*
X377692304Y-75859588D02*
X378658230Y-75600769D01*
X378719853Y-75830752D01*
X378710831Y-75981066D01*
X378643487Y-76097708D01*
X378563819Y-76168354D01*
X378392158Y-76263649D01*
X378254169Y-76300624D01*
X378057858Y-76303926D01*
X377953540Y-76282579D01*
X377836898Y-76215235D01*
X377753927Y-76089571D01*
X377692304Y-75859588D01*
X378086695Y-77331475D02*
X377938798Y-76779518D01*
X378012746Y-77055497D02*
X378978672Y-76796677D01*
X378816033Y-76741659D01*
X378699391Y-76674315D01*
X378628745Y-76594647D01*
X378786549Y-77735536D02*
X378807896Y-77631219D01*
X378841568Y-77572898D01*
X378921236Y-77502252D01*
X378967232Y-77489927D01*
X379071550Y-77511274D01*
X379129871Y-77544946D01*
X379200517Y-77624614D01*
X379249816Y-77808600D01*
X379228469Y-77912917D01*
X379194797Y-77971239D01*
X379115129Y-78041885D01*
X379069133Y-78054209D01*
X378964815Y-78032862D01*
X378906494Y-77999190D01*
X378835848Y-77919522D01*
X378786549Y-77735536D01*
X378715903Y-77655868D01*
X378657582Y-77622196D01*
X378553264Y-77600849D01*
X378369278Y-77650148D01*
X378289610Y-77720794D01*
X378255938Y-77779115D01*
X378234591Y-77883433D01*
X378283890Y-78067419D01*
X378354536Y-78147087D01*
X378412857Y-78180759D01*
X378517175Y-78202106D01*
X378701161Y-78152807D01*
X378780829Y-78082161D01*
X378814501Y-78023840D01*
X378835848Y-77919522D01*
X54478686Y-90951995D02*
X53512760Y-90693176D01*
X53574383Y-90463194D01*
X53657354Y-90337529D01*
X53773996Y-90270186D01*
X53878314Y-90248839D01*
X54074625Y-90252141D01*
X54212614Y-90289115D01*
X54384275Y-90384411D01*
X54463943Y-90455056D01*
X54531287Y-90571699D01*
X54540309Y-90722013D01*
X54478686Y-90951995D01*
X54873077Y-89480108D02*
X54725180Y-90032066D01*
X54799128Y-89756087D02*
X53833202Y-89497268D01*
X53946542Y-89626235D01*
X54013886Y-89742877D01*
X54035233Y-89847195D01*
X54996324Y-89020144D02*
X55045623Y-88836158D01*
X55024276Y-88731840D01*
X54990604Y-88673519D01*
X54877264Y-88544552D01*
X54705603Y-88449256D01*
X54337631Y-88350659D01*
X54233313Y-88372006D01*
X54174992Y-88405678D01*
X54104346Y-88485346D01*
X54055047Y-88669332D01*
X54076394Y-88773649D01*
X54110066Y-88831970D01*
X54189734Y-88902616D01*
X54419717Y-88964240D01*
X54524034Y-88942893D01*
X54582356Y-88909221D01*
X54653001Y-88829553D01*
X54702300Y-88645567D01*
X54680953Y-88541249D01*
X54647282Y-88482928D01*
X54567613Y-88412282D01*
X72766686Y-96031995D02*
X71800760Y-95773176D01*
X71862383Y-95543194D01*
X71945354Y-95417529D01*
X72061996Y-95350186D01*
X72166314Y-95328839D01*
X72362625Y-95332141D01*
X72500614Y-95369115D01*
X72672275Y-95464411D01*
X72751943Y-95535056D01*
X72819287Y-95651699D01*
X72828309Y-95802013D01*
X72766686Y-96031995D01*
X72139247Y-94877896D02*
X72105575Y-94819575D01*
X72084228Y-94715257D01*
X72145852Y-94485275D01*
X72216498Y-94405607D01*
X72274819Y-94371935D01*
X72379137Y-94350588D01*
X72471130Y-94375238D01*
X72596794Y-94458208D01*
X73000855Y-95158062D01*
X73161077Y-94560108D01*
X72355372Y-93703335D02*
X72380022Y-93611342D01*
X72450667Y-93531674D01*
X72508989Y-93498002D01*
X72613306Y-93476655D01*
X72809617Y-93479958D01*
X73039599Y-93541581D01*
X73211260Y-93636877D01*
X73290929Y-93707522D01*
X73324600Y-93765844D01*
X73345947Y-93870161D01*
X73321298Y-93962154D01*
X73250652Y-94041822D01*
X73192331Y-94075494D01*
X73088013Y-94096841D01*
X72891703Y-94093539D01*
X72661720Y-94031915D01*
X72490059Y-93936620D01*
X72410391Y-93865974D01*
X72376719Y-93807653D01*
X72355372Y-93703335D01*
X92070686Y-97809993D02*
X91104760Y-97551174D01*
X91166383Y-97321192D01*
X91249354Y-97195527D01*
X91365996Y-97128184D01*
X91470314Y-97106837D01*
X91666625Y-97110139D01*
X91804614Y-97147113D01*
X91976275Y-97242409D01*
X92055943Y-97313054D01*
X92123287Y-97429697D01*
X92132309Y-97580011D01*
X92070686Y-97809993D01*
X91443247Y-96655894D02*
X91409575Y-96597573D01*
X91388228Y-96493255D01*
X91449852Y-96263273D01*
X91520498Y-96183605D01*
X91578819Y-96149933D01*
X91683137Y-96128586D01*
X91775130Y-96153236D01*
X91900794Y-96236206D01*
X92304855Y-96936060D01*
X92465077Y-96338106D01*
X92711571Y-95418177D02*
X92563674Y-95970135D01*
X92637623Y-95694156D02*
X91671697Y-95435337D01*
X91785037Y-95564304D01*
X91852380Y-95680946D01*
X91873727Y-95785264D01*
X111120686Y-99841995D02*
X110154760Y-99583176D01*
X110216383Y-99353194D01*
X110299354Y-99227529D01*
X110415996Y-99160186D01*
X110520314Y-99138839D01*
X110716625Y-99142141D01*
X110854614Y-99179115D01*
X111026275Y-99274411D01*
X111105943Y-99345056D01*
X111173287Y-99461699D01*
X111182309Y-99612013D01*
X111120686Y-99841995D01*
X110493247Y-98687896D02*
X110459575Y-98629575D01*
X110438228Y-98525257D01*
X110499852Y-98295275D01*
X110570498Y-98215607D01*
X110628819Y-98181935D01*
X110733137Y-98160588D01*
X110825130Y-98185238D01*
X110950794Y-98268208D01*
X111354855Y-98968062D01*
X111515077Y-98370108D01*
X110739741Y-97767967D02*
X110706070Y-97709646D01*
X110684723Y-97605328D01*
X110746346Y-97375346D01*
X110816992Y-97295678D01*
X110875313Y-97262006D01*
X110979631Y-97240659D01*
X111071624Y-97265308D01*
X111197289Y-97348279D01*
X111601350Y-98048133D01*
X111761571Y-97450179D01*
X129662686Y-104921995D02*
X128696760Y-104663176D01*
X128758383Y-104433194D01*
X128841354Y-104307529D01*
X128957996Y-104240186D01*
X129062314Y-104218839D01*
X129258625Y-104222141D01*
X129396614Y-104259115D01*
X129568275Y-104354411D01*
X129647943Y-104425056D01*
X129715287Y-104541699D01*
X129724309Y-104692013D01*
X129662686Y-104921995D01*
X129035247Y-103767896D02*
X129001575Y-103709575D01*
X128980228Y-103605257D01*
X129041852Y-103375275D01*
X129112498Y-103295607D01*
X129170819Y-103261935D01*
X129275137Y-103240588D01*
X129367130Y-103265238D01*
X129492794Y-103348208D01*
X129896855Y-104048062D01*
X130057077Y-103450108D01*
X129177424Y-102869314D02*
X129337645Y-102271360D01*
X129619344Y-102691933D01*
X129656318Y-102553943D01*
X129726964Y-102474275D01*
X129785285Y-102440603D01*
X129889603Y-102419256D01*
X130119585Y-102480880D01*
X130199253Y-102551526D01*
X130232925Y-102609847D01*
X130254272Y-102714165D01*
X130180324Y-102990144D01*
X130109678Y-103069812D01*
X130051357Y-103103484D01*
X147442686Y-111525995D02*
X146476760Y-111267176D01*
X146538383Y-111037194D01*
X146621354Y-110911529D01*
X146737996Y-110844186D01*
X146842314Y-110822839D01*
X147038625Y-110826141D01*
X147176614Y-110863115D01*
X147348275Y-110958411D01*
X147427943Y-111029056D01*
X147495287Y-111145699D01*
X147504309Y-111296013D01*
X147442686Y-111525995D01*
X146815247Y-110371896D02*
X146781575Y-110313575D01*
X146760228Y-110209257D01*
X146821852Y-109979275D01*
X146892498Y-109899607D01*
X146950819Y-109865935D01*
X147055137Y-109844588D01*
X147147130Y-109869238D01*
X147272794Y-109952208D01*
X147676855Y-110652062D01*
X147837077Y-110054108D01*
X147414971Y-109053626D02*
X148058921Y-109226172D01*
X146985376Y-109185010D02*
X147613699Y-109599864D01*
X147773920Y-109001909D01*
X163698686Y-113049994D02*
X162732760Y-112791175D01*
X162794383Y-112561193D01*
X162877354Y-112435528D01*
X162993996Y-112368185D01*
X163098314Y-112346838D01*
X163294625Y-112350140D01*
X163432614Y-112387114D01*
X163604275Y-112482410D01*
X163683943Y-112553055D01*
X163751287Y-112669698D01*
X163760309Y-112820012D01*
X163698686Y-113049994D01*
X163071247Y-111895895D02*
X163037575Y-111837574D01*
X163016228Y-111733256D01*
X163077852Y-111503274D01*
X163148498Y-111423606D01*
X163206819Y-111389934D01*
X163311137Y-111368587D01*
X163403130Y-111393237D01*
X163528794Y-111476207D01*
X163932855Y-112176061D01*
X164093077Y-111578107D01*
X163361320Y-110445355D02*
X163238073Y-110905320D01*
X163685713Y-111074564D01*
X163652041Y-111016242D01*
X163630694Y-110911925D01*
X163692318Y-110681942D01*
X163762964Y-110602274D01*
X163821285Y-110568602D01*
X163925603Y-110547255D01*
X164155585Y-110608879D01*
X164235253Y-110679525D01*
X164268925Y-110737846D01*
X164290272Y-110842164D01*
X164228648Y-111072146D01*
X164158003Y-111151814D01*
X164099681Y-111185486D01*
X190190380Y-118562285D02*
X189190380Y-118562285D01*
X189190380Y-118324190D01*
X189238000Y-118181333D01*
X189333238Y-118086095D01*
X189428476Y-118038476D01*
X189618952Y-117990857D01*
X189761809Y-117990857D01*
X189952285Y-118038476D01*
X190047523Y-118086095D01*
X190142761Y-118181333D01*
X190190380Y-118324190D01*
X190190380Y-118562285D01*
X189285619Y-117609904D02*
X189238000Y-117562285D01*
X189190380Y-117467047D01*
X189190380Y-117228952D01*
X189238000Y-117133714D01*
X189285619Y-117086095D01*
X189380857Y-117038476D01*
X189476095Y-117038476D01*
X189618952Y-117086095D01*
X190190380Y-117657523D01*
X190190380Y-117038476D01*
X189190380Y-116181333D02*
X189190380Y-116371809D01*
X189238000Y-116467047D01*
X189285619Y-116514666D01*
X189428476Y-116609904D01*
X189618952Y-116657523D01*
X189999904Y-116657523D01*
X190095142Y-116609904D01*
X190142761Y-116562285D01*
X190190380Y-116467047D01*
X190190380Y-116276571D01*
X190142761Y-116181333D01*
X190095142Y-116133714D01*
X189999904Y-116086095D01*
X189761809Y-116086095D01*
X189666571Y-116133714D01*
X189618952Y-116181333D01*
X189571333Y-116276571D01*
X189571333Y-116467047D01*
X189618952Y-116562285D01*
X189666571Y-116609904D01*
X189761809Y-116657523D01*
X209240380Y-118562285D02*
X208240380Y-118562285D01*
X208240380Y-118324190D01*
X208288000Y-118181333D01*
X208383238Y-118086095D01*
X208478476Y-118038476D01*
X208668952Y-117990857D01*
X208811809Y-117990857D01*
X209002285Y-118038476D01*
X209097523Y-118086095D01*
X209192761Y-118181333D01*
X209240380Y-118324190D01*
X209240380Y-118562285D01*
X208335619Y-117609904D02*
X208288000Y-117562285D01*
X208240380Y-117467047D01*
X208240380Y-117228952D01*
X208288000Y-117133714D01*
X208335619Y-117086095D01*
X208430857Y-117038476D01*
X208526095Y-117038476D01*
X208668952Y-117086095D01*
X209240380Y-117657523D01*
X209240380Y-117038476D01*
X208240380Y-116705142D02*
X208240380Y-116038476D01*
X209240380Y-116467047D01*
X228290380Y-118562285D02*
X227290380Y-118562285D01*
X227290380Y-118324190D01*
X227338000Y-118181333D01*
X227433238Y-118086095D01*
X227528476Y-118038476D01*
X227718952Y-117990857D01*
X227861809Y-117990857D01*
X228052285Y-118038476D01*
X228147523Y-118086095D01*
X228242761Y-118181333D01*
X228290380Y-118324190D01*
X228290380Y-118562285D01*
X227385619Y-117609904D02*
X227338000Y-117562285D01*
X227290380Y-117467047D01*
X227290380Y-117228952D01*
X227338000Y-117133714D01*
X227385619Y-117086095D01*
X227480857Y-117038476D01*
X227576095Y-117038476D01*
X227718952Y-117086095D01*
X228290380Y-117657523D01*
X228290380Y-117038476D01*
X227718952Y-116467047D02*
X227671333Y-116562285D01*
X227623714Y-116609904D01*
X227528476Y-116657523D01*
X227480857Y-116657523D01*
X227385619Y-116609904D01*
X227338000Y-116562285D01*
X227290380Y-116467047D01*
X227290380Y-116276571D01*
X227338000Y-116181333D01*
X227385619Y-116133714D01*
X227480857Y-116086095D01*
X227528476Y-116086095D01*
X227623714Y-116133714D01*
X227671333Y-116181333D01*
X227718952Y-116276571D01*
X227718952Y-116467047D01*
X227766571Y-116562285D01*
X227814190Y-116609904D01*
X227909428Y-116657523D01*
X228099904Y-116657523D01*
X228195142Y-116609904D01*
X228242761Y-116562285D01*
X228290380Y-116467047D01*
X228290380Y-116276571D01*
X228242761Y-116181333D01*
X228195142Y-116133714D01*
X228099904Y-116086095D01*
X227909428Y-116086095D01*
X227814190Y-116133714D01*
X227766571Y-116181333D01*
X227718952Y-116276571D01*
X247340380Y-118562285D02*
X246340380Y-118562285D01*
X246340380Y-118324190D01*
X246388000Y-118181333D01*
X246483238Y-118086095D01*
X246578476Y-118038476D01*
X246768952Y-117990857D01*
X246911809Y-117990857D01*
X247102285Y-118038476D01*
X247197523Y-118086095D01*
X247292761Y-118181333D01*
X247340380Y-118324190D01*
X247340380Y-118562285D01*
X246435619Y-117609904D02*
X246388000Y-117562285D01*
X246340380Y-117467047D01*
X246340380Y-117228952D01*
X246388000Y-117133714D01*
X246435619Y-117086095D01*
X246530857Y-117038476D01*
X246626095Y-117038476D01*
X246768952Y-117086095D01*
X247340380Y-117657523D01*
X247340380Y-117038476D01*
X247340380Y-116562285D02*
X247340380Y-116371809D01*
X247292761Y-116276571D01*
X247245142Y-116228952D01*
X247102285Y-116133714D01*
X246911809Y-116086095D01*
X246530857Y-116086095D01*
X246435619Y-116133714D01*
X246388000Y-116181333D01*
X246340380Y-116276571D01*
X246340380Y-116467047D01*
X246388000Y-116562285D01*
X246435619Y-116609904D01*
X246530857Y-116657523D01*
X246768952Y-116657523D01*
X246864190Y-116609904D01*
X246911809Y-116562285D01*
X246959428Y-116467047D01*
X246959428Y-116276571D01*
X246911809Y-116181333D01*
X246864190Y-116133714D01*
X246768952Y-116086095D01*
X272566904Y-104375571D02*
X273432930Y-103875571D01*
X273551977Y-104081767D01*
X273582167Y-104229295D01*
X273547307Y-104359392D01*
X273488638Y-104448251D01*
X273347490Y-104584728D01*
X273223772Y-104656157D01*
X273035006Y-104710155D01*
X272928717Y-104716535D01*
X272798620Y-104681676D01*
X272685952Y-104581767D01*
X272566904Y-104375571D01*
X273885311Y-104659117D02*
X274194834Y-105195228D01*
X273698253Y-105097030D01*
X273769682Y-105220747D01*
X273776062Y-105327036D01*
X273758632Y-105392084D01*
X273699963Y-105480943D01*
X273493766Y-105599990D01*
X273387478Y-105606370D01*
X273322429Y-105588940D01*
X273233571Y-105530271D01*
X273090714Y-105282835D01*
X273084334Y-105176547D01*
X273101764Y-105111498D01*
X274504358Y-105731339D02*
X274551977Y-105813818D01*
X274558357Y-105920106D01*
X274540927Y-105985155D01*
X274482258Y-106074013D01*
X274341110Y-106210491D01*
X274134914Y-106329538D01*
X273946147Y-106383537D01*
X273839859Y-106389917D01*
X273774810Y-106372487D01*
X273685952Y-106313818D01*
X273638333Y-106231339D01*
X273631953Y-106125051D01*
X273649383Y-106060002D01*
X273708052Y-105971144D01*
X273849200Y-105834667D01*
X274055396Y-105715619D01*
X274244163Y-105661620D01*
X274350451Y-105655241D01*
X274415500Y-105672670D01*
X274504358Y-105731339D01*
X290480802Y-98212700D02*
X291446728Y-97953881D01*
X291508351Y-98183864D01*
X291499329Y-98334178D01*
X291431985Y-98450820D01*
X291352317Y-98521466D01*
X291180656Y-98616761D01*
X291042667Y-98653736D01*
X290846356Y-98657038D01*
X290742038Y-98635691D01*
X290625396Y-98568347D01*
X290542425Y-98442683D01*
X290480802Y-98212700D01*
X291680897Y-98827814D02*
X291841119Y-99425768D01*
X291386874Y-99202391D01*
X291423848Y-99340380D01*
X291402501Y-99444698D01*
X291368829Y-99503019D01*
X291289161Y-99573665D01*
X291059179Y-99635288D01*
X290954861Y-99613941D01*
X290896540Y-99580270D01*
X290825894Y-99500601D01*
X290751946Y-99224623D01*
X290773293Y-99120305D01*
X290806964Y-99061984D01*
X291121687Y-100604517D02*
X290973790Y-100052559D01*
X291047739Y-100328538D02*
X292013665Y-100069719D01*
X291851026Y-100014700D01*
X291734383Y-99947357D01*
X291663737Y-99867688D01*
X308895802Y-93386700D02*
X309861728Y-93127881D01*
X309923351Y-93357864D01*
X309914329Y-93508178D01*
X309846985Y-93624820D01*
X309767317Y-93695466D01*
X309595656Y-93790761D01*
X309457667Y-93827736D01*
X309261356Y-93831038D01*
X309157038Y-93809691D01*
X309040396Y-93742347D01*
X308957425Y-93616683D01*
X308895802Y-93386700D01*
X310095897Y-94001814D02*
X310256119Y-94599768D01*
X309801874Y-94376391D01*
X309838848Y-94514380D01*
X309817501Y-94618698D01*
X309783829Y-94677019D01*
X309704161Y-94747665D01*
X309474179Y-94809288D01*
X309369861Y-94787941D01*
X309311540Y-94754270D01*
X309240894Y-94674601D01*
X309166946Y-94398623D01*
X309188293Y-94294305D01*
X309221964Y-94235984D01*
X310262723Y-94992389D02*
X310321045Y-95026061D01*
X310391690Y-95105729D01*
X310453314Y-95335712D01*
X310431967Y-95440029D01*
X310398295Y-95498351D01*
X310318627Y-95568997D01*
X310226634Y-95593646D01*
X310076320Y-95584624D01*
X309376466Y-95180563D01*
X309536687Y-95778517D01*
X328072802Y-91354700D02*
X329038728Y-91095881D01*
X329100351Y-91325864D01*
X329091329Y-91476178D01*
X329023985Y-91592820D01*
X328944317Y-91663466D01*
X328772656Y-91758761D01*
X328634667Y-91795736D01*
X328438356Y-91799038D01*
X328334038Y-91777691D01*
X328217396Y-91710347D01*
X328134425Y-91584683D01*
X328072802Y-91354700D01*
X329272897Y-91969814D02*
X329433119Y-92567768D01*
X328978874Y-92344391D01*
X329015848Y-92482380D01*
X328994501Y-92586698D01*
X328960829Y-92645019D01*
X328881161Y-92715665D01*
X328651179Y-92777288D01*
X328546861Y-92755941D01*
X328488540Y-92722270D01*
X328417894Y-92642601D01*
X328343946Y-92366623D01*
X328365293Y-92262305D01*
X328398964Y-92203984D01*
X329519392Y-92889744D02*
X329679613Y-93487698D01*
X329225368Y-93264320D01*
X329262342Y-93402310D01*
X329240995Y-93506627D01*
X329207323Y-93564948D01*
X329127655Y-93635594D01*
X328897673Y-93697218D01*
X328793355Y-93675871D01*
X328735034Y-93642199D01*
X328664388Y-93562531D01*
X328590440Y-93286552D01*
X328611787Y-93182234D01*
X328645459Y-93123913D01*
X347249802Y-89322700D02*
X348215728Y-89063881D01*
X348277351Y-89293864D01*
X348268329Y-89444178D01*
X348200985Y-89560820D01*
X348121317Y-89631466D01*
X347949656Y-89726761D01*
X347811667Y-89763736D01*
X347615356Y-89767038D01*
X347511038Y-89745691D01*
X347394396Y-89678347D01*
X347311425Y-89552683D01*
X347249802Y-89322700D01*
X348449897Y-89937814D02*
X348610119Y-90535768D01*
X348155874Y-90312391D01*
X348192848Y-90450380D01*
X348171501Y-90554698D01*
X348137829Y-90613019D01*
X348058161Y-90683665D01*
X347828179Y-90745288D01*
X347723861Y-90723941D01*
X347665540Y-90690270D01*
X347594894Y-90610601D01*
X347520946Y-90334623D01*
X347542293Y-90230305D01*
X347575964Y-90171984D01*
X348509988Y-91449978D02*
X347866038Y-91622524D01*
X348816336Y-91121398D02*
X348064766Y-91076286D01*
X348224987Y-91674240D01*
X365664802Y-84496700D02*
X366630728Y-84237881D01*
X366692351Y-84467864D01*
X366683329Y-84618178D01*
X366615985Y-84734820D01*
X366536317Y-84805466D01*
X366364656Y-84900761D01*
X366226667Y-84937736D01*
X366030356Y-84941038D01*
X365926038Y-84919691D01*
X365809396Y-84852347D01*
X365726425Y-84726683D01*
X365664802Y-84496700D01*
X366864897Y-85111814D02*
X367025119Y-85709768D01*
X366570874Y-85486391D01*
X366607848Y-85624380D01*
X366586501Y-85728698D01*
X366552829Y-85787019D01*
X366473161Y-85857665D01*
X366243179Y-85919288D01*
X366138861Y-85897941D01*
X366080540Y-85864270D01*
X366009894Y-85784601D01*
X365935946Y-85508623D01*
X365957293Y-85404305D01*
X365990964Y-85345984D01*
X367259288Y-86583701D02*
X367136041Y-86123737D01*
X366663752Y-86200987D01*
X366722073Y-86234659D01*
X366792719Y-86314327D01*
X366854342Y-86544310D01*
X366832995Y-86648627D01*
X366799323Y-86706948D01*
X366719655Y-86777594D01*
X366489673Y-86839218D01*
X366385355Y-86817871D01*
X366327034Y-86784199D01*
X366256388Y-86704531D01*
X366194765Y-86474548D01*
X366216112Y-86370231D01*
X366249783Y-86311910D01*
X382555802Y-79289700D02*
X383521728Y-79030881D01*
X383583351Y-79260864D01*
X383574329Y-79411178D01*
X383506985Y-79527820D01*
X383427317Y-79598466D01*
X383255656Y-79693761D01*
X383117667Y-79730736D01*
X382921356Y-79734038D01*
X382817038Y-79712691D01*
X382700396Y-79645347D01*
X382617425Y-79519683D01*
X382555802Y-79289700D01*
X383755897Y-79904814D02*
X383916119Y-80502768D01*
X383461874Y-80279391D01*
X383498848Y-80417380D01*
X383477501Y-80521698D01*
X383443829Y-80580019D01*
X383364161Y-80650665D01*
X383134179Y-80712288D01*
X383029861Y-80690941D01*
X382971540Y-80657270D01*
X382900894Y-80577601D01*
X382826946Y-80301623D01*
X382848293Y-80197305D01*
X382881964Y-80138984D01*
X384137963Y-81330705D02*
X384088665Y-81146719D01*
X384018019Y-81067051D01*
X383959697Y-81033379D01*
X383797059Y-80978360D01*
X383600748Y-80981662D01*
X383232776Y-81080260D01*
X383153108Y-81150906D01*
X383119436Y-81209227D01*
X383098089Y-81313545D01*
X383147388Y-81497531D01*
X383218034Y-81577199D01*
X383276355Y-81610871D01*
X383380673Y-81632218D01*
X383610655Y-81570594D01*
X383690323Y-81499948D01*
X383723995Y-81441627D01*
X383745342Y-81337310D01*
X383696043Y-81153324D01*
X383625397Y-81073655D01*
X383567076Y-81039984D01*
X383462759Y-81018637D01*
X52287645Y-106054372D02*
X51321719Y-105795553D01*
X51383342Y-105565571D01*
X51466313Y-105439906D01*
X51582955Y-105372563D01*
X51687273Y-105351216D01*
X51883584Y-105354518D01*
X52021573Y-105391492D01*
X52193234Y-105486788D01*
X52272902Y-105557433D01*
X52340246Y-105674076D01*
X52349268Y-105824390D01*
X52287645Y-106054372D01*
X51555888Y-104921620D02*
X51716110Y-104323666D01*
X51997809Y-104744239D01*
X52034783Y-104606250D01*
X52105429Y-104526582D01*
X52163750Y-104492910D01*
X52268067Y-104471563D01*
X52498050Y-104533186D01*
X52577718Y-104603832D01*
X52611390Y-104662153D01*
X52632737Y-104766471D01*
X52558788Y-105042450D01*
X52488143Y-105122118D01*
X52429821Y-105155790D01*
X51802383Y-104001691D02*
X51974929Y-103357740D01*
X52829932Y-104030528D01*
X70721298Y-110962668D02*
X69755372Y-110703849D01*
X69816995Y-110473867D01*
X69899966Y-110348202D01*
X70016608Y-110280859D01*
X70120926Y-110259512D01*
X70317237Y-110262814D01*
X70455226Y-110299788D01*
X70626887Y-110395084D01*
X70706555Y-110465729D01*
X70773899Y-110582372D01*
X70782921Y-110732686D01*
X70721298Y-110962668D01*
X69989541Y-109829916D02*
X70149763Y-109231962D01*
X70431462Y-109652535D01*
X70468436Y-109514546D01*
X70539082Y-109434878D01*
X70597403Y-109401206D01*
X70701720Y-109379859D01*
X70931703Y-109441482D01*
X71011371Y-109512128D01*
X71045043Y-109570449D01*
X71066390Y-109674767D01*
X70992441Y-109950746D01*
X70921796Y-110030414D01*
X70863474Y-110064086D01*
X70711628Y-108790927D02*
X70640982Y-108870595D01*
X70582660Y-108904267D01*
X70478343Y-108925614D01*
X70432346Y-108913289D01*
X70352678Y-108842643D01*
X70319006Y-108784322D01*
X70297659Y-108680005D01*
X70346958Y-108496019D01*
X70417604Y-108416351D01*
X70475925Y-108382679D01*
X70580243Y-108361332D01*
X70626239Y-108373656D01*
X70705908Y-108444302D01*
X70739579Y-108502624D01*
X70760926Y-108606941D01*
X70711628Y-108790927D01*
X70732975Y-108895245D01*
X70766646Y-108953566D01*
X70846315Y-109024212D01*
X71030300Y-109073511D01*
X71134618Y-109052164D01*
X71192939Y-109018492D01*
X71263585Y-108938824D01*
X71312884Y-108754838D01*
X71291537Y-108650520D01*
X71257865Y-108592199D01*
X71178197Y-108521553D01*
X70994211Y-108472254D01*
X70889894Y-108493601D01*
X70831572Y-108527273D01*
X70760926Y-108606941D01*
X89517298Y-114264668D02*
X88551372Y-114005849D01*
X88612995Y-113775867D01*
X88695966Y-113650202D01*
X88812608Y-113582859D01*
X88916926Y-113561512D01*
X89113237Y-113564814D01*
X89251226Y-113601788D01*
X89422887Y-113697084D01*
X89502555Y-113767729D01*
X89569899Y-113884372D01*
X89578921Y-114034686D01*
X89517298Y-114264668D01*
X88785541Y-113131916D02*
X88945763Y-112533962D01*
X89227462Y-112954535D01*
X89264436Y-112816546D01*
X89335082Y-112736878D01*
X89393403Y-112703206D01*
X89497720Y-112681859D01*
X89727703Y-112743482D01*
X89807371Y-112814128D01*
X89841043Y-112872449D01*
X89862390Y-112976767D01*
X89788441Y-113252746D01*
X89717796Y-113332414D01*
X89659474Y-113366086D01*
X90034936Y-112332817D02*
X90084235Y-112148831D01*
X90062888Y-112044513D01*
X90029216Y-111986192D01*
X89915876Y-111857225D01*
X89744215Y-111761929D01*
X89376243Y-111663332D01*
X89271925Y-111684679D01*
X89213604Y-111718351D01*
X89142958Y-111798019D01*
X89093659Y-111982005D01*
X89115006Y-112086322D01*
X89148678Y-112144643D01*
X89228346Y-112215289D01*
X89458329Y-112276913D01*
X89562646Y-112255566D01*
X89620968Y-112221894D01*
X89691613Y-112142226D01*
X89740912Y-111958240D01*
X89719565Y-111853922D01*
X89685894Y-111795601D01*
X89606225Y-111724955D01*
X109075298Y-114518668D02*
X108109372Y-114259849D01*
X108170995Y-114029867D01*
X108253966Y-113904202D01*
X108370608Y-113836859D01*
X108474926Y-113815512D01*
X108671237Y-113818814D01*
X108809226Y-113855788D01*
X108980887Y-113951084D01*
X109060555Y-114021729D01*
X109127899Y-114138372D01*
X109136921Y-114288686D01*
X109075298Y-114518668D01*
X108801089Y-112966228D02*
X109445039Y-113138774D01*
X108371493Y-113097613D02*
X108999817Y-113512466D01*
X109160038Y-112914512D01*
X108663984Y-112190008D02*
X108688634Y-112098015D01*
X108759279Y-112018347D01*
X108817601Y-111984675D01*
X108921918Y-111963328D01*
X109118229Y-111966631D01*
X109348211Y-112028254D01*
X109519872Y-112123550D01*
X109599541Y-112194195D01*
X109633212Y-112252517D01*
X109654559Y-112356834D01*
X109629910Y-112448827D01*
X109559264Y-112528495D01*
X109500943Y-112562167D01*
X109396625Y-112583514D01*
X109200315Y-112580212D01*
X108970332Y-112518588D01*
X108798671Y-112423293D01*
X108719003Y-112352647D01*
X108685331Y-112294326D01*
X108663984Y-112190008D01*
X127471645Y-119516372D02*
X126505719Y-119257553D01*
X126567342Y-119027571D01*
X126650313Y-118901906D01*
X126766955Y-118834563D01*
X126871273Y-118813216D01*
X127067584Y-118816518D01*
X127205573Y-118853492D01*
X127377234Y-118948788D01*
X127456902Y-119019433D01*
X127524246Y-119136076D01*
X127533268Y-119286390D01*
X127471645Y-119516372D01*
X127197436Y-117963932D02*
X127841386Y-118136478D01*
X126767840Y-118095317D02*
X127396164Y-118510170D01*
X127556385Y-117912216D01*
X128112530Y-117124556D02*
X127964633Y-117676514D01*
X128038582Y-117400535D02*
X127072656Y-117141716D01*
X127185996Y-117270683D01*
X127253339Y-117387325D01*
X127274686Y-117491643D01*
X145251645Y-126882372D02*
X144285719Y-126623553D01*
X144347342Y-126393571D01*
X144430313Y-126267906D01*
X144546955Y-126200563D01*
X144651273Y-126179216D01*
X144847584Y-126182518D01*
X144985573Y-126219492D01*
X145157234Y-126314788D01*
X145236902Y-126385433D01*
X145304246Y-126502076D01*
X145313268Y-126652390D01*
X145251645Y-126882372D01*
X144977436Y-125329932D02*
X145621386Y-125502478D01*
X144547840Y-125461317D02*
X145176164Y-125876170D01*
X145336385Y-125278216D01*
X144870700Y-124808344D02*
X144837029Y-124750023D01*
X144815682Y-124645705D01*
X144877305Y-124415723D01*
X144947951Y-124336055D01*
X145006272Y-124302383D01*
X145110590Y-124281036D01*
X145202583Y-124305685D01*
X145328248Y-124388656D01*
X145732309Y-125088510D01*
X145892530Y-124490556D01*
X159126686Y-131337994D02*
X158160760Y-131079175D01*
X158222383Y-130849193D01*
X158305354Y-130723528D01*
X158421996Y-130656185D01*
X158526314Y-130634838D01*
X158722625Y-130638140D01*
X158860614Y-130675114D01*
X159032275Y-130770410D01*
X159111943Y-130841055D01*
X159179287Y-130957698D01*
X159188309Y-131108012D01*
X159126686Y-131337994D01*
X158852477Y-129785554D02*
X159496427Y-129958100D01*
X158422881Y-129916939D02*
X159051205Y-130331792D01*
X159211426Y-129733838D01*
X158641424Y-129285313D02*
X158801645Y-128687359D01*
X159083344Y-129107932D01*
X159120318Y-128969942D01*
X159190964Y-128890274D01*
X159249285Y-128856602D01*
X159353603Y-128835255D01*
X159583585Y-128896879D01*
X159663253Y-128967525D01*
X159696925Y-129025846D01*
X159718272Y-129130164D01*
X159644324Y-129406143D01*
X159573678Y-129485811D01*
X159515357Y-129519483D01*
X192095380Y-133675285D02*
X191095380Y-133675285D01*
X191095380Y-133437190D01*
X191143000Y-133294333D01*
X191238238Y-133199095D01*
X191333476Y-133151476D01*
X191523952Y-133103857D01*
X191666809Y-133103857D01*
X191857285Y-133151476D01*
X191952523Y-133199095D01*
X192047761Y-133294333D01*
X192095380Y-133437190D01*
X192095380Y-133675285D01*
X191428714Y-132246714D02*
X192095380Y-132246714D01*
X191047761Y-132484809D02*
X191762047Y-132722904D01*
X191762047Y-132103857D01*
X191428714Y-131294333D02*
X192095380Y-131294333D01*
X191047761Y-131532428D02*
X191762047Y-131770523D01*
X191762047Y-131151476D01*
X211145380Y-133675285D02*
X210145380Y-133675285D01*
X210145380Y-133437190D01*
X210193000Y-133294333D01*
X210288238Y-133199095D01*
X210383476Y-133151476D01*
X210573952Y-133103857D01*
X210716809Y-133103857D01*
X210907285Y-133151476D01*
X211002523Y-133199095D01*
X211097761Y-133294333D01*
X211145380Y-133437190D01*
X211145380Y-133675285D01*
X210478714Y-132246714D02*
X211145380Y-132246714D01*
X210097761Y-132484809D02*
X210812047Y-132722904D01*
X210812047Y-132103857D01*
X210145380Y-131246714D02*
X210145380Y-131722904D01*
X210621571Y-131770523D01*
X210573952Y-131722904D01*
X210526333Y-131627666D01*
X210526333Y-131389571D01*
X210573952Y-131294333D01*
X210621571Y-131246714D01*
X210716809Y-131199095D01*
X210954904Y-131199095D01*
X211050142Y-131246714D01*
X211097761Y-131294333D01*
X211145380Y-131389571D01*
X211145380Y-131627666D01*
X211097761Y-131722904D01*
X211050142Y-131770523D01*
X228290380Y-137612285D02*
X227290380Y-137612285D01*
X227290380Y-137374190D01*
X227338000Y-137231333D01*
X227433238Y-137136095D01*
X227528476Y-137088476D01*
X227718952Y-137040857D01*
X227861809Y-137040857D01*
X228052285Y-137088476D01*
X228147523Y-137136095D01*
X228242761Y-137231333D01*
X228290380Y-137374190D01*
X228290380Y-137612285D01*
X227623714Y-136183714D02*
X228290380Y-136183714D01*
X227242761Y-136421809D02*
X227957047Y-136659904D01*
X227957047Y-136040857D01*
X227290380Y-135231333D02*
X227290380Y-135421809D01*
X227338000Y-135517047D01*
X227385619Y-135564666D01*
X227528476Y-135659904D01*
X227718952Y-135707523D01*
X228099904Y-135707523D01*
X228195142Y-135659904D01*
X228242761Y-135612285D01*
X228290380Y-135517047D01*
X228290380Y-135326571D01*
X228242761Y-135231333D01*
X228195142Y-135183714D01*
X228099904Y-135136095D01*
X227861809Y-135136095D01*
X227766571Y-135183714D01*
X227718952Y-135231333D01*
X227671333Y-135326571D01*
X227671333Y-135517047D01*
X227718952Y-135612285D01*
X227766571Y-135659904D01*
X227861809Y-135707523D01*
X247340380Y-137612285D02*
X246340380Y-137612285D01*
X246340380Y-137374190D01*
X246388000Y-137231333D01*
X246483238Y-137136095D01*
X246578476Y-137088476D01*
X246768952Y-137040857D01*
X246911809Y-137040857D01*
X247102285Y-137088476D01*
X247197523Y-137136095D01*
X247292761Y-137231333D01*
X247340380Y-137374190D01*
X247340380Y-137612285D01*
X246673714Y-136183714D02*
X247340380Y-136183714D01*
X246292761Y-136421809D02*
X247007047Y-136659904D01*
X247007047Y-136040857D01*
X246340380Y-135755142D02*
X246340380Y-135088476D01*
X247340380Y-135517047D01*
X277407972Y-123677451D02*
X278373898Y-123418632D01*
X278435521Y-123648615D01*
X278426499Y-123798929D01*
X278359155Y-123915571D01*
X278279487Y-123986217D01*
X278107826Y-124081512D01*
X277969837Y-124118487D01*
X277773526Y-124121789D01*
X277669208Y-124100442D01*
X277552566Y-124033098D01*
X277469595Y-123907434D01*
X277407972Y-123677451D01*
X278421664Y-124884799D02*
X277777713Y-125057345D01*
X278728012Y-124556219D02*
X277976441Y-124511108D01*
X278136663Y-125109062D01*
X278502217Y-125553399D02*
X278523564Y-125449082D01*
X278557236Y-125390761D01*
X278636904Y-125320115D01*
X278682900Y-125307790D01*
X278787218Y-125329137D01*
X278845539Y-125362809D01*
X278916185Y-125442477D01*
X278965484Y-125626463D01*
X278944137Y-125730780D01*
X278910465Y-125789102D01*
X278830797Y-125859748D01*
X278784801Y-125872072D01*
X278680483Y-125850725D01*
X278622162Y-125817053D01*
X278551516Y-125737385D01*
X278502217Y-125553399D01*
X278431571Y-125473731D01*
X278373250Y-125440059D01*
X278268932Y-125418712D01*
X278084946Y-125468011D01*
X278005278Y-125538657D01*
X277971606Y-125596978D01*
X277950259Y-125701296D01*
X277999558Y-125885282D01*
X278070204Y-125964950D01*
X278128525Y-125998622D01*
X278232843Y-126019969D01*
X278416829Y-125970670D01*
X278496497Y-125900024D01*
X278530169Y-125841703D01*
X278551516Y-125737385D01*
X295314972Y-116438451D02*
X296280898Y-116179632D01*
X296342521Y-116409615D01*
X296333499Y-116559929D01*
X296266155Y-116676571D01*
X296186487Y-116747217D01*
X296014826Y-116842512D01*
X295876837Y-116879487D01*
X295680526Y-116882789D01*
X295576208Y-116861442D01*
X295459566Y-116794098D01*
X295376595Y-116668434D01*
X295314972Y-116438451D01*
X296328664Y-117645799D02*
X295684713Y-117818345D01*
X296635012Y-117317219D02*
X295883441Y-117272108D01*
X296043663Y-117870062D01*
X295832610Y-118370303D02*
X295881909Y-118554289D01*
X295952555Y-118633957D01*
X296010876Y-118667629D01*
X296173515Y-118722648D01*
X296369825Y-118719345D01*
X296737797Y-118620748D01*
X296817465Y-118550102D01*
X296851137Y-118491780D01*
X296872484Y-118387463D01*
X296823185Y-118203477D01*
X296752539Y-118123809D01*
X296694218Y-118090137D01*
X296589900Y-118068790D01*
X296359918Y-118130413D01*
X296280250Y-118201059D01*
X296246578Y-118259381D01*
X296225231Y-118363698D01*
X296274530Y-118547684D01*
X296345176Y-118627352D01*
X296403497Y-118661024D01*
X296507815Y-118682371D01*
X313729972Y-111358451D02*
X314695898Y-111099632D01*
X314757521Y-111329615D01*
X314748499Y-111479929D01*
X314681155Y-111596571D01*
X314601487Y-111667217D01*
X314429826Y-111762512D01*
X314291837Y-111799487D01*
X314095526Y-111802789D01*
X313991208Y-111781442D01*
X313874566Y-111714098D01*
X313791595Y-111588434D01*
X313729972Y-111358451D01*
X315077964Y-112525523D02*
X314954717Y-112065558D01*
X314482427Y-112142809D01*
X314540748Y-112176481D01*
X314611394Y-112256149D01*
X314673018Y-112486131D01*
X314651671Y-112590449D01*
X314617999Y-112648770D01*
X314538331Y-112719416D01*
X314308349Y-112781039D01*
X314204031Y-112759692D01*
X314145710Y-112726021D01*
X314075064Y-112646352D01*
X314013440Y-112416370D01*
X314034787Y-112312052D01*
X314068459Y-112253731D01*
X315250510Y-113169473D02*
X315275159Y-113261466D01*
X315253812Y-113365784D01*
X315220140Y-113424105D01*
X315140472Y-113494751D01*
X314968811Y-113590046D01*
X314738829Y-113651670D01*
X314542518Y-113654972D01*
X314438201Y-113633625D01*
X314379879Y-113599954D01*
X314309233Y-113520285D01*
X314284584Y-113428292D01*
X314305931Y-113323975D01*
X314339603Y-113265654D01*
X314419271Y-113195008D01*
X314590932Y-113099712D01*
X314820915Y-113038089D01*
X315017225Y-113034786D01*
X315121543Y-113056133D01*
X315179864Y-113089805D01*
X315250510Y-113169473D01*
X333414972Y-110977451D02*
X334380898Y-110718632D01*
X334442521Y-110948615D01*
X334433499Y-111098929D01*
X334366155Y-111215571D01*
X334286487Y-111286217D01*
X334114826Y-111381512D01*
X333976837Y-111418487D01*
X333780526Y-111421789D01*
X333676208Y-111400442D01*
X333559566Y-111333098D01*
X333476595Y-111207434D01*
X333414972Y-110977451D01*
X334762964Y-112144523D02*
X334639717Y-111684558D01*
X334167427Y-111761809D01*
X334225748Y-111795481D01*
X334296394Y-111875149D01*
X334358018Y-112105131D01*
X334336671Y-112209449D01*
X334302999Y-112267770D01*
X334223331Y-112338416D01*
X333993349Y-112400039D01*
X333889031Y-112378692D01*
X333830710Y-112345021D01*
X333760064Y-112265352D01*
X333698440Y-112035370D01*
X333719787Y-111931052D01*
X333753459Y-111872731D01*
X334055857Y-113369268D02*
X333907960Y-112817310D01*
X333981909Y-113093289D02*
X334947835Y-112834470D01*
X334785196Y-112779451D01*
X334668553Y-112712108D01*
X334597907Y-112632439D01*
X352210972Y-107675451D02*
X353176898Y-107416632D01*
X353238521Y-107646615D01*
X353229499Y-107796929D01*
X353162155Y-107913571D01*
X353082487Y-107984217D01*
X352910826Y-108079512D01*
X352772837Y-108116487D01*
X352576526Y-108119789D01*
X352472208Y-108098442D01*
X352355566Y-108031098D01*
X352272595Y-107905434D01*
X352210972Y-107675451D01*
X353558964Y-108842523D02*
X353435717Y-108382558D01*
X352963427Y-108459809D01*
X353021748Y-108493481D01*
X353092394Y-108573149D01*
X353154018Y-108803131D01*
X353132671Y-108907449D01*
X353098999Y-108965770D01*
X353019331Y-109036416D01*
X352789349Y-109098039D01*
X352685031Y-109076692D01*
X352626710Y-109043021D01*
X352556064Y-108963352D01*
X352494440Y-108733370D01*
X352515787Y-108629052D01*
X352549459Y-108570731D01*
X353577893Y-109281140D02*
X353636215Y-109314812D01*
X353706860Y-109394480D01*
X353768484Y-109624463D01*
X353747137Y-109728780D01*
X353713465Y-109787102D01*
X353633797Y-109857748D01*
X353541804Y-109882397D01*
X353391490Y-109873375D01*
X352691636Y-109469314D01*
X352851857Y-110067268D01*
X370498972Y-102595451D02*
X371464898Y-102336632D01*
X371526521Y-102566615D01*
X371517499Y-102716929D01*
X371450155Y-102833571D01*
X371370487Y-102904217D01*
X371198826Y-102999512D01*
X371060837Y-103036487D01*
X370864526Y-103039789D01*
X370760208Y-103018442D01*
X370643566Y-102951098D01*
X370560595Y-102825434D01*
X370498972Y-102595451D01*
X371846964Y-103762523D02*
X371723717Y-103302558D01*
X371251427Y-103379809D01*
X371309748Y-103413481D01*
X371380394Y-103493149D01*
X371442018Y-103723131D01*
X371420671Y-103827449D01*
X371386999Y-103885770D01*
X371307331Y-103956416D01*
X371077349Y-104018039D01*
X370973031Y-103996692D01*
X370914710Y-103963021D01*
X370844064Y-103883352D01*
X370782440Y-103653370D01*
X370803787Y-103549052D01*
X370837459Y-103490731D01*
X371945562Y-104130495D02*
X372105783Y-104728449D01*
X371651538Y-104505071D01*
X371688512Y-104643061D01*
X371667165Y-104747378D01*
X371633493Y-104805699D01*
X371553825Y-104876345D01*
X371323843Y-104937969D01*
X371219525Y-104916622D01*
X371161204Y-104882950D01*
X371090558Y-104803282D01*
X371016610Y-104527303D01*
X371037957Y-104422985D01*
X371071629Y-104364664D01*
X387643972Y-97642451D02*
X388609898Y-97383632D01*
X388671521Y-97613615D01*
X388662499Y-97763929D01*
X388595155Y-97880571D01*
X388515487Y-97951217D01*
X388343826Y-98046512D01*
X388205837Y-98083487D01*
X388009526Y-98086789D01*
X387905208Y-98065442D01*
X387788566Y-97998098D01*
X387705595Y-97872434D01*
X387643972Y-97642451D01*
X388991964Y-98809523D02*
X388868717Y-98349558D01*
X388396427Y-98426809D01*
X388454748Y-98460481D01*
X388525394Y-98540149D01*
X388587018Y-98770131D01*
X388565671Y-98874449D01*
X388531999Y-98932770D01*
X388452331Y-99003416D01*
X388222349Y-99065039D01*
X388118031Y-99043692D01*
X388059710Y-99010021D01*
X387989064Y-98930352D01*
X387927440Y-98700370D01*
X387948787Y-98596052D01*
X387982459Y-98537731D01*
X388904158Y-99769729D02*
X388260208Y-99942275D01*
X389210506Y-99441149D02*
X388458936Y-99396037D01*
X388619157Y-99993991D01*
X47461645Y-124342372D02*
X46495719Y-124083553D01*
X46557342Y-123853571D01*
X46640313Y-123727906D01*
X46756955Y-123660563D01*
X46861273Y-123639216D01*
X47057584Y-123642518D01*
X47195573Y-123679492D01*
X47367234Y-123774788D01*
X47446902Y-123845433D01*
X47514246Y-123962076D01*
X47523268Y-124112390D01*
X47461645Y-124342372D01*
X46877785Y-122657663D02*
X46754538Y-123117627D01*
X47202178Y-123286871D01*
X47168506Y-123228550D01*
X47147159Y-123124232D01*
X47208783Y-122894250D01*
X47279429Y-122814582D01*
X47337750Y-122780910D01*
X47442067Y-122759563D01*
X47672050Y-122821186D01*
X47751718Y-122891832D01*
X47785390Y-122950153D01*
X47806737Y-123054471D01*
X47745113Y-123284453D01*
X47674467Y-123364122D01*
X47616146Y-123397793D01*
X47124279Y-121737733D02*
X47001032Y-122197698D01*
X47448672Y-122366942D01*
X47415000Y-122308620D01*
X47393653Y-122204303D01*
X47455277Y-121974320D01*
X47525923Y-121894652D01*
X47584244Y-121860980D01*
X47688562Y-121839633D01*
X47918544Y-121901257D01*
X47998212Y-121971903D01*
X48031884Y-122030224D01*
X48053231Y-122134542D01*
X47991607Y-122364524D01*
X47920962Y-122444192D01*
X47862640Y-122477864D01*
X65749645Y-129422372D02*
X64783719Y-129163553D01*
X64845342Y-128933571D01*
X64928313Y-128807906D01*
X65044955Y-128740563D01*
X65149273Y-128719216D01*
X65345584Y-128722518D01*
X65483573Y-128759492D01*
X65655234Y-128854788D01*
X65734902Y-128925433D01*
X65802246Y-129042076D01*
X65811268Y-129192390D01*
X65749645Y-129422372D01*
X65165785Y-127737663D02*
X65042538Y-128197627D01*
X65490178Y-128366871D01*
X65456506Y-128308550D01*
X65435159Y-128204232D01*
X65496783Y-127974250D01*
X65567429Y-127894582D01*
X65625750Y-127860910D01*
X65730067Y-127839563D01*
X65960050Y-127901186D01*
X66039718Y-127971832D01*
X66073390Y-128030153D01*
X66094737Y-128134471D01*
X66033113Y-128364453D01*
X65962467Y-128444122D01*
X65904146Y-128477793D01*
X65399955Y-126863730D02*
X65350656Y-127047716D01*
X65372003Y-127152033D01*
X65405675Y-127210355D01*
X65519015Y-127339322D01*
X65690676Y-127434617D01*
X66058647Y-127533215D01*
X66162965Y-127511868D01*
X66221286Y-127478196D01*
X66291932Y-127398528D01*
X66341231Y-127214542D01*
X66319884Y-127110224D01*
X66286212Y-127051903D01*
X66206544Y-126981257D01*
X65976562Y-126919633D01*
X65872244Y-126940980D01*
X65813923Y-126974652D01*
X65743277Y-127054320D01*
X65693978Y-127238306D01*
X65715325Y-127342624D01*
X65748997Y-127400945D01*
X65828665Y-127471591D01*
X84545645Y-132724372D02*
X83579719Y-132465553D01*
X83641342Y-132235571D01*
X83724313Y-132109906D01*
X83840955Y-132042563D01*
X83945273Y-132021216D01*
X84141584Y-132024518D01*
X84279573Y-132061492D01*
X84451234Y-132156788D01*
X84530902Y-132227433D01*
X84598246Y-132344076D01*
X84607268Y-132494390D01*
X84545645Y-132724372D01*
X83961785Y-131039663D02*
X83838538Y-131499627D01*
X84286178Y-131668871D01*
X84252506Y-131610550D01*
X84231159Y-131506232D01*
X84292783Y-131276250D01*
X84363429Y-131196582D01*
X84421750Y-131162910D01*
X84526067Y-131141563D01*
X84756050Y-131203186D01*
X84835718Y-131273832D01*
X84869390Y-131332153D01*
X84890737Y-131436471D01*
X84829113Y-131666453D01*
X84758467Y-131746122D01*
X84700146Y-131779793D01*
X84060383Y-130671691D02*
X84232929Y-130027740D01*
X85087932Y-130700528D01*
X104103645Y-133232372D02*
X103137719Y-132973553D01*
X103199342Y-132743571D01*
X103282313Y-132617906D01*
X103398955Y-132550563D01*
X103503273Y-132529216D01*
X103699584Y-132532518D01*
X103837573Y-132569492D01*
X104009234Y-132664788D01*
X104088902Y-132735433D01*
X104156246Y-132852076D01*
X104165268Y-133002390D01*
X104103645Y-133232372D01*
X103519785Y-131547663D02*
X103396538Y-132007627D01*
X103844178Y-132176871D01*
X103810506Y-132118550D01*
X103789159Y-132014232D01*
X103850783Y-131784250D01*
X103921429Y-131704582D01*
X103979750Y-131670910D01*
X104084067Y-131649563D01*
X104314050Y-131711186D01*
X104393718Y-131781832D01*
X104427390Y-131840153D01*
X104448737Y-131944471D01*
X104387113Y-132174453D01*
X104316467Y-132254122D01*
X104258146Y-132287793D01*
X104093975Y-131060631D02*
X104023329Y-131140299D01*
X103965007Y-131173971D01*
X103860690Y-131195318D01*
X103814693Y-131182993D01*
X103735025Y-131112347D01*
X103701353Y-131054026D01*
X103680006Y-130949709D01*
X103729305Y-130765723D01*
X103799951Y-130686055D01*
X103858272Y-130652383D01*
X103962590Y-130631036D01*
X104008586Y-130643360D01*
X104088255Y-130714006D01*
X104121926Y-130772328D01*
X104143273Y-130876645D01*
X104093975Y-131060631D01*
X104115322Y-131164949D01*
X104148993Y-131223270D01*
X104228662Y-131293916D01*
X104412647Y-131343215D01*
X104516965Y-131321868D01*
X104575286Y-131288196D01*
X104645932Y-131208528D01*
X104695231Y-131024542D01*
X104673884Y-130920224D01*
X104640212Y-130861903D01*
X104560544Y-130791257D01*
X104376558Y-130741958D01*
X104272241Y-130763305D01*
X104213919Y-130796977D01*
X104143273Y-130876645D01*
X122791298Y-138140668D02*
X121825372Y-137881849D01*
X121886995Y-137651867D01*
X121969966Y-137526202D01*
X122086608Y-137458859D01*
X122190926Y-137437512D01*
X122387237Y-137440814D01*
X122525226Y-137477788D01*
X122696887Y-137573084D01*
X122776555Y-137643729D01*
X122843899Y-137760372D01*
X122852921Y-137910686D01*
X122791298Y-138140668D01*
X122207438Y-136455959D02*
X122084191Y-136915923D01*
X122531831Y-137085167D01*
X122498159Y-137026846D01*
X122476812Y-136922528D01*
X122538436Y-136692546D01*
X122609082Y-136612878D01*
X122667403Y-136579206D01*
X122771720Y-136557859D01*
X123001703Y-136619482D01*
X123081371Y-136690128D01*
X123115043Y-136748449D01*
X123136390Y-136852767D01*
X123074766Y-137082749D01*
X123004120Y-137162418D01*
X122945799Y-137196089D01*
X123308936Y-136208817D02*
X123358235Y-136024831D01*
X123336888Y-135920513D01*
X123303216Y-135862192D01*
X123189876Y-135733225D01*
X123018215Y-135637929D01*
X122650243Y-135539332D01*
X122545925Y-135560679D01*
X122487604Y-135594351D01*
X122416958Y-135674019D01*
X122367659Y-135858005D01*
X122389006Y-135962322D01*
X122422678Y-136020643D01*
X122502346Y-136091289D01*
X122732329Y-136152913D01*
X122836646Y-136131566D01*
X122894968Y-136097894D01*
X122965613Y-136018226D01*
X123014912Y-135834240D01*
X122993565Y-135729922D01*
X122959894Y-135671601D01*
X122880225Y-135600955D01*
X140571298Y-145252668D02*
X139605372Y-144993849D01*
X139666995Y-144763867D01*
X139749966Y-144638202D01*
X139866608Y-144570859D01*
X139970926Y-144549512D01*
X140167237Y-144552814D01*
X140305226Y-144589788D01*
X140476887Y-144685084D01*
X140556555Y-144755729D01*
X140623899Y-144872372D01*
X140632921Y-145022686D01*
X140571298Y-145252668D01*
X139975113Y-143613955D02*
X139925814Y-143797941D01*
X139947162Y-143902259D01*
X139980833Y-143960580D01*
X140094173Y-144089547D01*
X140265834Y-144184842D01*
X140633806Y-144283440D01*
X140738124Y-144262093D01*
X140796445Y-144228421D01*
X140867091Y-144148753D01*
X140916390Y-143964767D01*
X140895043Y-143860449D01*
X140861371Y-143802128D01*
X140781703Y-143731482D01*
X140551720Y-143669859D01*
X140447403Y-143691206D01*
X140389082Y-143724878D01*
X140318436Y-143804546D01*
X140269137Y-143988532D01*
X140290484Y-144092849D01*
X140324156Y-144151171D01*
X140403824Y-144221816D01*
X140159984Y-142924008D02*
X140184634Y-142832015D01*
X140255279Y-142752347D01*
X140313601Y-142718675D01*
X140417918Y-142697328D01*
X140614229Y-142700631D01*
X140844211Y-142762254D01*
X141015872Y-142857550D01*
X141095541Y-142928195D01*
X141129212Y-142986517D01*
X141150559Y-143090834D01*
X141125910Y-143182827D01*
X141055264Y-143262495D01*
X140996943Y-143296167D01*
X140892625Y-143317514D01*
X140696315Y-143314212D01*
X140466332Y-143252588D01*
X140294671Y-143157293D01*
X140215003Y-143086647D01*
X140181331Y-143028326D01*
X140159984Y-142924008D01*
X157443645Y-150758372D02*
X156477719Y-150499553D01*
X156539342Y-150269571D01*
X156622313Y-150143906D01*
X156738955Y-150076563D01*
X156843273Y-150055216D01*
X157039584Y-150058518D01*
X157177573Y-150095492D01*
X157349234Y-150190788D01*
X157428902Y-150261433D01*
X157496246Y-150378076D01*
X157505268Y-150528390D01*
X157443645Y-150758372D01*
X156847460Y-149119659D02*
X156798161Y-149303645D01*
X156819509Y-149407963D01*
X156853180Y-149466284D01*
X156966520Y-149595251D01*
X157138181Y-149690546D01*
X157506153Y-149789144D01*
X157610471Y-149767797D01*
X157668792Y-149734125D01*
X157739438Y-149654457D01*
X157788737Y-149470471D01*
X157767390Y-149366153D01*
X157733718Y-149307832D01*
X157654050Y-149237186D01*
X157424067Y-149175563D01*
X157319750Y-149196910D01*
X157261429Y-149230582D01*
X157190783Y-149310250D01*
X157141484Y-149494236D01*
X157162831Y-149598553D01*
X157196503Y-149656875D01*
X157276171Y-149727520D01*
X158084530Y-148366556D02*
X157936633Y-148918514D01*
X158010582Y-148642535D02*
X157044656Y-148383716D01*
X157157996Y-148512683D01*
X157225339Y-148629325D01*
X157246686Y-148733643D01*
X192095380Y-152725285D02*
X191095380Y-152725285D01*
X191095380Y-152487190D01*
X191143000Y-152344333D01*
X191238238Y-152249095D01*
X191333476Y-152201476D01*
X191523952Y-152153857D01*
X191666809Y-152153857D01*
X191857285Y-152201476D01*
X191952523Y-152249095D01*
X192047761Y-152344333D01*
X192095380Y-152487190D01*
X192095380Y-152725285D01*
X191095380Y-151296714D02*
X191095380Y-151487190D01*
X191143000Y-151582428D01*
X191190619Y-151630047D01*
X191333476Y-151725285D01*
X191523952Y-151772904D01*
X191904904Y-151772904D01*
X192000142Y-151725285D01*
X192047761Y-151677666D01*
X192095380Y-151582428D01*
X192095380Y-151391952D01*
X192047761Y-151296714D01*
X192000142Y-151249095D01*
X191904904Y-151201476D01*
X191666809Y-151201476D01*
X191571571Y-151249095D01*
X191523952Y-151296714D01*
X191476333Y-151391952D01*
X191476333Y-151582428D01*
X191523952Y-151677666D01*
X191571571Y-151725285D01*
X191666809Y-151772904D01*
X191190619Y-150820523D02*
X191143000Y-150772904D01*
X191095380Y-150677666D01*
X191095380Y-150439571D01*
X191143000Y-150344333D01*
X191190619Y-150296714D01*
X191285857Y-150249095D01*
X191381095Y-150249095D01*
X191523952Y-150296714D01*
X192095380Y-150868142D01*
X192095380Y-150249095D01*
X211145380Y-152725285D02*
X210145380Y-152725285D01*
X210145380Y-152487190D01*
X210193000Y-152344333D01*
X210288238Y-152249095D01*
X210383476Y-152201476D01*
X210573952Y-152153857D01*
X210716809Y-152153857D01*
X210907285Y-152201476D01*
X211002523Y-152249095D01*
X211097761Y-152344333D01*
X211145380Y-152487190D01*
X211145380Y-152725285D01*
X210145380Y-151296714D02*
X210145380Y-151487190D01*
X210193000Y-151582428D01*
X210240619Y-151630047D01*
X210383476Y-151725285D01*
X210573952Y-151772904D01*
X210954904Y-151772904D01*
X211050142Y-151725285D01*
X211097761Y-151677666D01*
X211145380Y-151582428D01*
X211145380Y-151391952D01*
X211097761Y-151296714D01*
X211050142Y-151249095D01*
X210954904Y-151201476D01*
X210716809Y-151201476D01*
X210621571Y-151249095D01*
X210573952Y-151296714D01*
X210526333Y-151391952D01*
X210526333Y-151582428D01*
X210573952Y-151677666D01*
X210621571Y-151725285D01*
X210716809Y-151772904D01*
X210145380Y-150868142D02*
X210145380Y-150249095D01*
X210526333Y-150582428D01*
X210526333Y-150439571D01*
X210573952Y-150344333D01*
X210621571Y-150296714D01*
X210716809Y-150249095D01*
X210954904Y-150249095D01*
X211050142Y-150296714D01*
X211097761Y-150344333D01*
X211145380Y-150439571D01*
X211145380Y-150725285D01*
X211097761Y-150820523D01*
X211050142Y-150868142D01*
X230195380Y-152725285D02*
X229195380Y-152725285D01*
X229195380Y-152487190D01*
X229243000Y-152344333D01*
X229338238Y-152249095D01*
X229433476Y-152201476D01*
X229623952Y-152153857D01*
X229766809Y-152153857D01*
X229957285Y-152201476D01*
X230052523Y-152249095D01*
X230147761Y-152344333D01*
X230195380Y-152487190D01*
X230195380Y-152725285D01*
X229195380Y-151296714D02*
X229195380Y-151487190D01*
X229243000Y-151582428D01*
X229290619Y-151630047D01*
X229433476Y-151725285D01*
X229623952Y-151772904D01*
X230004904Y-151772904D01*
X230100142Y-151725285D01*
X230147761Y-151677666D01*
X230195380Y-151582428D01*
X230195380Y-151391952D01*
X230147761Y-151296714D01*
X230100142Y-151249095D01*
X230004904Y-151201476D01*
X229766809Y-151201476D01*
X229671571Y-151249095D01*
X229623952Y-151296714D01*
X229576333Y-151391952D01*
X229576333Y-151582428D01*
X229623952Y-151677666D01*
X229671571Y-151725285D01*
X229766809Y-151772904D01*
X229528714Y-150344333D02*
X230195380Y-150344333D01*
X229147761Y-150582428D02*
X229862047Y-150820523D01*
X229862047Y-150201476D01*
X249245380Y-152725285D02*
X248245380Y-152725285D01*
X248245380Y-152487190D01*
X248293000Y-152344333D01*
X248388238Y-152249095D01*
X248483476Y-152201476D01*
X248673952Y-152153857D01*
X248816809Y-152153857D01*
X249007285Y-152201476D01*
X249102523Y-152249095D01*
X249197761Y-152344333D01*
X249245380Y-152487190D01*
X249245380Y-152725285D01*
X248245380Y-151296714D02*
X248245380Y-151487190D01*
X248293000Y-151582428D01*
X248340619Y-151630047D01*
X248483476Y-151725285D01*
X248673952Y-151772904D01*
X249054904Y-151772904D01*
X249150142Y-151725285D01*
X249197761Y-151677666D01*
X249245380Y-151582428D01*
X249245380Y-151391952D01*
X249197761Y-151296714D01*
X249150142Y-151249095D01*
X249054904Y-151201476D01*
X248816809Y-151201476D01*
X248721571Y-151249095D01*
X248673952Y-151296714D01*
X248626333Y-151391952D01*
X248626333Y-151582428D01*
X248673952Y-151677666D01*
X248721571Y-151725285D01*
X248816809Y-151772904D01*
X248245380Y-150296714D02*
X248245380Y-150772904D01*
X248721571Y-150820523D01*
X248673952Y-150772904D01*
X248626333Y-150677666D01*
X248626333Y-150439571D01*
X248673952Y-150344333D01*
X248721571Y-150296714D01*
X248816809Y-150249095D01*
X249054904Y-150249095D01*
X249150142Y-150296714D01*
X249197761Y-150344333D01*
X249245380Y-150439571D01*
X249245380Y-150677666D01*
X249197761Y-150772904D01*
X249150142Y-150820523D01*
X282360972Y-141965451D02*
X283326898Y-141706632D01*
X283388521Y-141936615D01*
X283379499Y-142086929D01*
X283312155Y-142203571D01*
X283232487Y-142274217D01*
X283060826Y-142369512D01*
X282922837Y-142406487D01*
X282726526Y-142409789D01*
X282622208Y-142388442D01*
X282505566Y-142321098D01*
X282422595Y-142195434D01*
X282360972Y-141965451D01*
X283696639Y-143086526D02*
X283647340Y-142902540D01*
X283576694Y-142822872D01*
X283518373Y-142789201D01*
X283355734Y-142734182D01*
X283159424Y-142737484D01*
X282791452Y-142836082D01*
X282711784Y-142906728D01*
X282678112Y-142965049D01*
X282656765Y-143069367D01*
X282706064Y-143253352D01*
X282776710Y-143333021D01*
X282835031Y-143366692D01*
X282939349Y-143388039D01*
X283169331Y-143326416D01*
X283248999Y-143255770D01*
X283282671Y-143197449D01*
X283304018Y-143093131D01*
X283254719Y-142909145D01*
X283184073Y-142829477D01*
X283125752Y-142795805D01*
X283021434Y-142774458D01*
X283943133Y-144006456D02*
X283893835Y-143822470D01*
X283823189Y-143742802D01*
X283764867Y-143709130D01*
X283602229Y-143654111D01*
X283405918Y-143657413D01*
X283037946Y-143756011D01*
X282958278Y-143826657D01*
X282924606Y-143884978D01*
X282903259Y-143989296D01*
X282952558Y-144173282D01*
X283023204Y-144252950D01*
X283081525Y-144286622D01*
X283185843Y-144307969D01*
X283415825Y-144246345D01*
X283495493Y-144175699D01*
X283529165Y-144117378D01*
X283550512Y-144013061D01*
X283501213Y-143829075D01*
X283430567Y-143749406D01*
X283372246Y-143715735D01*
X283267929Y-143694388D01*
X300267972Y-134853451D02*
X301233898Y-134594632D01*
X301295521Y-134824615D01*
X301286499Y-134974929D01*
X301219155Y-135091571D01*
X301139487Y-135162217D01*
X300967826Y-135257512D01*
X300829837Y-135294487D01*
X300633526Y-135297789D01*
X300529208Y-135276442D01*
X300412566Y-135209098D01*
X300329595Y-135083434D01*
X300267972Y-134853451D01*
X301603639Y-135974526D02*
X301554340Y-135790540D01*
X301483694Y-135710872D01*
X301425373Y-135677201D01*
X301262734Y-135622182D01*
X301066424Y-135625484D01*
X300698452Y-135724082D01*
X300618784Y-135794728D01*
X300585112Y-135853049D01*
X300563765Y-135957367D01*
X300613064Y-136141352D01*
X300683710Y-136221021D01*
X300742031Y-136254692D01*
X300846349Y-136276039D01*
X301076331Y-136214416D01*
X301155999Y-136143770D01*
X301189671Y-136085449D01*
X301211018Y-135981131D01*
X301161719Y-135797145D01*
X301091073Y-135717477D01*
X301032752Y-135683805D01*
X300928434Y-135662458D01*
X301714562Y-136388495D02*
X301887108Y-137032445D01*
X300810259Y-136877296D01*
X318682972Y-129773451D02*
X319648898Y-129514632D01*
X319710521Y-129744615D01*
X319701499Y-129894929D01*
X319634155Y-130011571D01*
X319554487Y-130082217D01*
X319382826Y-130177512D01*
X319244837Y-130214487D01*
X319048526Y-130217789D01*
X318944208Y-130196442D01*
X318827566Y-130129098D01*
X318744595Y-130003434D01*
X318682972Y-129773451D01*
X320018639Y-130894526D02*
X319969340Y-130710540D01*
X319898694Y-130630872D01*
X319840373Y-130597201D01*
X319677734Y-130542182D01*
X319481424Y-130545484D01*
X319113452Y-130644082D01*
X319033784Y-130714728D01*
X319000112Y-130773049D01*
X318978765Y-130877367D01*
X319028064Y-131061352D01*
X319098710Y-131141021D01*
X319157031Y-131174692D01*
X319261349Y-131196039D01*
X319491331Y-131134416D01*
X319570999Y-131063770D01*
X319604671Y-131005449D01*
X319626018Y-130901131D01*
X319576719Y-130717145D01*
X319506073Y-130637477D01*
X319447752Y-130603805D01*
X319343434Y-130582458D01*
X319777217Y-131649399D02*
X319798564Y-131545082D01*
X319832236Y-131486761D01*
X319911904Y-131416115D01*
X319957900Y-131403790D01*
X320062218Y-131425137D01*
X320120539Y-131458809D01*
X320191185Y-131538477D01*
X320240484Y-131722463D01*
X320219137Y-131826780D01*
X320185465Y-131885102D01*
X320105797Y-131955748D01*
X320059801Y-131968072D01*
X319955483Y-131946725D01*
X319897162Y-131913053D01*
X319826516Y-131833385D01*
X319777217Y-131649399D01*
X319706571Y-131569731D01*
X319648250Y-131536059D01*
X319543932Y-131514712D01*
X319359946Y-131564011D01*
X319280278Y-131634657D01*
X319246606Y-131692978D01*
X319225259Y-131797296D01*
X319274558Y-131981282D01*
X319345204Y-132060950D01*
X319403525Y-132094622D01*
X319507843Y-132115969D01*
X319691829Y-132066670D01*
X319771497Y-131996024D01*
X319805169Y-131937703D01*
X319826516Y-131833385D01*
X338367972Y-129519451D02*
X339333898Y-129260632D01*
X339395521Y-129490615D01*
X339386499Y-129640929D01*
X339319155Y-129757571D01*
X339239487Y-129828217D01*
X339067826Y-129923512D01*
X338929837Y-129960487D01*
X338733526Y-129963789D01*
X338629208Y-129942442D01*
X338512566Y-129875098D01*
X338429595Y-129749434D01*
X338367972Y-129519451D01*
X339703639Y-130640526D02*
X339654340Y-130456540D01*
X339583694Y-130376872D01*
X339525373Y-130343201D01*
X339362734Y-130288182D01*
X339166424Y-130291484D01*
X338798452Y-130390082D01*
X338718784Y-130460728D01*
X338685112Y-130519049D01*
X338663765Y-130623367D01*
X338713064Y-130807352D01*
X338783710Y-130887021D01*
X338842031Y-130920692D01*
X338946349Y-130942039D01*
X339176331Y-130880416D01*
X339255999Y-130809770D01*
X339289671Y-130751449D01*
X339311018Y-130647131D01*
X339261719Y-130463145D01*
X339191073Y-130383477D01*
X339132752Y-130349805D01*
X339028434Y-130328458D01*
X338885610Y-131451303D02*
X338934909Y-131635289D01*
X339005555Y-131714957D01*
X339063876Y-131748629D01*
X339226515Y-131803648D01*
X339422825Y-131800345D01*
X339790797Y-131701748D01*
X339870465Y-131631102D01*
X339904137Y-131572780D01*
X339925484Y-131468463D01*
X339876185Y-131284477D01*
X339805539Y-131204809D01*
X339747218Y-131171137D01*
X339642900Y-131149790D01*
X339412918Y-131211413D01*
X339333250Y-131282059D01*
X339299578Y-131340381D01*
X339278231Y-131444698D01*
X339327530Y-131628684D01*
X339398176Y-131708352D01*
X339456497Y-131742024D01*
X339560815Y-131763371D01*
X357163972Y-126090451D02*
X358129898Y-125831632D01*
X358191521Y-126061615D01*
X358182499Y-126211929D01*
X358115155Y-126328571D01*
X358035487Y-126399217D01*
X357863826Y-126494512D01*
X357725837Y-126531487D01*
X357529526Y-126534789D01*
X357425208Y-126513442D01*
X357308566Y-126446098D01*
X357225595Y-126320434D01*
X357163972Y-126090451D01*
X358364067Y-126705565D02*
X358536613Y-127349516D01*
X357459765Y-127194367D01*
X358684510Y-127901473D02*
X358709159Y-127993466D01*
X358687812Y-128097784D01*
X358654140Y-128156105D01*
X358574472Y-128226751D01*
X358402811Y-128322046D01*
X358172829Y-128383670D01*
X357976518Y-128386972D01*
X357872201Y-128365625D01*
X357813879Y-128331954D01*
X357743233Y-128252285D01*
X357718584Y-128160292D01*
X357739931Y-128055975D01*
X357773603Y-127997654D01*
X357853271Y-127927008D01*
X358024932Y-127831712D01*
X358254915Y-127770089D01*
X358451225Y-127766786D01*
X358555543Y-127788133D01*
X358613864Y-127821805D01*
X358684510Y-127901473D01*
X375451972Y-121137451D02*
X376417898Y-120878632D01*
X376479521Y-121108615D01*
X376470499Y-121258929D01*
X376403155Y-121375571D01*
X376323487Y-121446217D01*
X376151826Y-121541512D01*
X376013837Y-121578487D01*
X375817526Y-121581789D01*
X375713208Y-121560442D01*
X375596566Y-121493098D01*
X375513595Y-121367434D01*
X375451972Y-121137451D01*
X376652067Y-121752565D02*
X376824613Y-122396516D01*
X375747765Y-122241367D01*
X376092857Y-123529268D02*
X375944960Y-122977310D01*
X376018909Y-123253289D02*
X376984835Y-122994470D01*
X376822196Y-122939451D01*
X376705553Y-122872108D01*
X376634907Y-122792439D01*
X392596972Y-116057451D02*
X393562898Y-115798632D01*
X393624521Y-116028615D01*
X393615499Y-116178929D01*
X393548155Y-116295571D01*
X393468487Y-116366217D01*
X393296826Y-116461512D01*
X393158837Y-116498487D01*
X392962526Y-116501789D01*
X392858208Y-116480442D01*
X392741566Y-116413098D01*
X392658595Y-116287434D01*
X392596972Y-116057451D01*
X393797067Y-116672565D02*
X393969613Y-117316516D01*
X392892765Y-117161367D01*
X393963893Y-117663140D02*
X394022215Y-117696812D01*
X394092860Y-117776480D01*
X394154484Y-118006463D01*
X394133137Y-118110780D01*
X394099465Y-118169102D01*
X394019797Y-118239748D01*
X393927804Y-118264397D01*
X393777490Y-118255375D01*
X393077636Y-117851314D01*
X393237857Y-118449268D01*
X42381645Y-142630372D02*
X41415719Y-142371553D01*
X41477342Y-142141571D01*
X41560313Y-142015906D01*
X41676955Y-141948563D01*
X41781273Y-141927216D01*
X41977584Y-141930518D01*
X42115573Y-141967492D01*
X42287234Y-142062788D01*
X42366902Y-142133433D01*
X42434246Y-142250076D01*
X42443268Y-142400390D01*
X42381645Y-142630372D01*
X41649888Y-141497620D02*
X41822434Y-140853670D01*
X42677438Y-141526457D01*
X41896383Y-140577691D02*
X42056604Y-139979737D01*
X42338303Y-140400310D01*
X42375277Y-140262320D01*
X42445923Y-140182652D01*
X42504244Y-140148980D01*
X42608562Y-140127633D01*
X42838544Y-140189257D01*
X42918212Y-140259903D01*
X42951884Y-140318224D01*
X42973231Y-140422542D01*
X42899283Y-140698521D01*
X42828637Y-140778189D01*
X42770316Y-140811861D01*
X60669645Y-147710372D02*
X59703719Y-147451553D01*
X59765342Y-147221571D01*
X59848313Y-147095906D01*
X59964955Y-147028563D01*
X60069273Y-147007216D01*
X60265584Y-147010518D01*
X60403573Y-147047492D01*
X60575234Y-147142788D01*
X60654902Y-147213433D01*
X60722246Y-147330076D01*
X60731268Y-147480390D01*
X60669645Y-147710372D01*
X59937888Y-146577620D02*
X60110434Y-145933670D01*
X60965438Y-146606457D01*
X60641930Y-145238003D02*
X61285880Y-145410549D01*
X60212335Y-145369387D02*
X60840658Y-145784241D01*
X61000879Y-145186286D01*
X79719645Y-151266372D02*
X78753719Y-151007553D01*
X78815342Y-150777571D01*
X78898313Y-150651906D01*
X79014955Y-150584563D01*
X79119273Y-150563216D01*
X79315584Y-150566518D01*
X79453573Y-150603492D01*
X79625234Y-150698788D01*
X79704902Y-150769433D01*
X79772246Y-150886076D01*
X79781268Y-151036390D01*
X79719645Y-151266372D01*
X78987888Y-150133620D02*
X79160434Y-149489670D01*
X80015438Y-150162457D01*
X79382279Y-148661733D02*
X79259032Y-149121698D01*
X79706672Y-149290942D01*
X79673000Y-149232620D01*
X79651653Y-149128303D01*
X79713277Y-148898320D01*
X79783923Y-148818652D01*
X79842244Y-148784980D01*
X79946562Y-148763633D01*
X80176544Y-148825257D01*
X80256212Y-148895903D01*
X80289884Y-148954224D01*
X80311231Y-149058542D01*
X80249607Y-149288524D01*
X80178962Y-149368192D01*
X80120640Y-149401864D01*
X99277645Y-151520372D02*
X98311719Y-151261553D01*
X98373342Y-151031571D01*
X98456313Y-150905906D01*
X98572955Y-150838563D01*
X98677273Y-150817216D01*
X98873584Y-150820518D01*
X99011573Y-150857492D01*
X99183234Y-150952788D01*
X99262902Y-151023433D01*
X99330246Y-151140076D01*
X99339268Y-151290390D01*
X99277645Y-151520372D01*
X98545888Y-150387620D02*
X98718434Y-149743670D01*
X99573438Y-150416457D01*
X98927955Y-148961730D02*
X98878656Y-149145716D01*
X98900003Y-149250033D01*
X98933675Y-149308355D01*
X99047015Y-149437322D01*
X99218676Y-149532617D01*
X99586647Y-149631215D01*
X99690965Y-149609868D01*
X99749286Y-149576196D01*
X99819932Y-149496528D01*
X99869231Y-149312542D01*
X99847884Y-149208224D01*
X99814212Y-149149903D01*
X99734544Y-149079257D01*
X99504562Y-149017633D01*
X99400244Y-149038980D01*
X99341923Y-149072652D01*
X99271277Y-149152320D01*
X99221978Y-149336306D01*
X99243325Y-149440624D01*
X99276997Y-149498945D01*
X99356665Y-149569591D01*
X117819645Y-156600372D02*
X116853719Y-156341553D01*
X116915342Y-156111571D01*
X116998313Y-155985906D01*
X117114955Y-155918563D01*
X117219273Y-155897216D01*
X117415584Y-155900518D01*
X117553573Y-155937492D01*
X117725234Y-156032788D01*
X117804902Y-156103433D01*
X117872246Y-156220076D01*
X117881268Y-156370390D01*
X117819645Y-156600372D01*
X117087888Y-155467620D02*
X117260434Y-154823670D01*
X118115438Y-155496457D01*
X117334383Y-154547691D02*
X117506929Y-153903740D01*
X118361932Y-154576528D01*
X135599645Y-163712372D02*
X134633719Y-163453553D01*
X134695342Y-163223571D01*
X134778313Y-163097906D01*
X134894955Y-163030563D01*
X134999273Y-163009216D01*
X135195584Y-163012518D01*
X135333573Y-163049492D01*
X135505234Y-163144788D01*
X135584902Y-163215433D01*
X135652246Y-163332076D01*
X135661268Y-163482390D01*
X135599645Y-163712372D01*
X134867888Y-162579620D02*
X135040434Y-161935670D01*
X135895438Y-162608457D01*
X135589975Y-161540631D02*
X135519329Y-161620299D01*
X135461007Y-161653971D01*
X135356690Y-161675318D01*
X135310693Y-161662993D01*
X135231025Y-161592347D01*
X135197353Y-161534026D01*
X135176006Y-161429709D01*
X135225305Y-161245723D01*
X135295951Y-161166055D01*
X135354272Y-161132383D01*
X135458590Y-161111036D01*
X135504586Y-161123360D01*
X135584255Y-161194006D01*
X135617926Y-161252328D01*
X135639273Y-161356645D01*
X135589975Y-161540631D01*
X135611322Y-161644949D01*
X135644993Y-161703270D01*
X135724662Y-161773916D01*
X135908647Y-161823215D01*
X136012965Y-161801868D01*
X136071286Y-161768196D01*
X136141932Y-161688528D01*
X136191231Y-161504542D01*
X136169884Y-161400224D01*
X136136212Y-161341903D01*
X136056544Y-161271257D01*
X135872558Y-161221958D01*
X135768241Y-161243305D01*
X135709919Y-161276977D01*
X135639273Y-161356645D01*
X153887645Y-163966372D02*
X152921719Y-163707553D01*
X152983342Y-163477571D01*
X153066313Y-163351906D01*
X153182955Y-163284563D01*
X153287273Y-163263216D01*
X153483584Y-163266518D01*
X153621573Y-163303492D01*
X153793234Y-163398788D01*
X153872902Y-163469433D01*
X153940246Y-163586076D01*
X153949268Y-163736390D01*
X153887645Y-163966372D01*
X153155888Y-162833620D02*
X153328434Y-162189670D01*
X154183438Y-162862457D01*
X154405283Y-162034521D02*
X154454582Y-161850535D01*
X154433235Y-161746217D01*
X154399563Y-161687896D01*
X154286223Y-161558929D01*
X154114562Y-161463633D01*
X153746590Y-161365036D01*
X153642272Y-161386383D01*
X153583951Y-161420055D01*
X153513305Y-161499723D01*
X153464006Y-161683709D01*
X153485353Y-161788026D01*
X153519025Y-161846347D01*
X153598693Y-161916993D01*
X153828676Y-161978617D01*
X153932993Y-161957270D01*
X153991315Y-161923598D01*
X154061960Y-161843930D01*
X154111259Y-161659944D01*
X154089912Y-161555626D01*
X154056241Y-161497305D01*
X153976572Y-161426659D01*
X192095380Y-171775285D02*
X191095380Y-171775285D01*
X191095380Y-171537190D01*
X191143000Y-171394333D01*
X191238238Y-171299095D01*
X191333476Y-171251476D01*
X191523952Y-171203857D01*
X191666809Y-171203857D01*
X191857285Y-171251476D01*
X191952523Y-171299095D01*
X192047761Y-171394333D01*
X192095380Y-171537190D01*
X192095380Y-171775285D01*
X191523952Y-170632428D02*
X191476333Y-170727666D01*
X191428714Y-170775285D01*
X191333476Y-170822904D01*
X191285857Y-170822904D01*
X191190619Y-170775285D01*
X191143000Y-170727666D01*
X191095380Y-170632428D01*
X191095380Y-170441952D01*
X191143000Y-170346714D01*
X191190619Y-170299095D01*
X191285857Y-170251476D01*
X191333476Y-170251476D01*
X191428714Y-170299095D01*
X191476333Y-170346714D01*
X191523952Y-170441952D01*
X191523952Y-170632428D01*
X191571571Y-170727666D01*
X191619190Y-170775285D01*
X191714428Y-170822904D01*
X191904904Y-170822904D01*
X192000142Y-170775285D01*
X192047761Y-170727666D01*
X192095380Y-170632428D01*
X192095380Y-170441952D01*
X192047761Y-170346714D01*
X192000142Y-170299095D01*
X191904904Y-170251476D01*
X191714428Y-170251476D01*
X191619190Y-170299095D01*
X191571571Y-170346714D01*
X191523952Y-170441952D01*
X191095380Y-169632428D02*
X191095380Y-169537190D01*
X191143000Y-169441952D01*
X191190619Y-169394333D01*
X191285857Y-169346714D01*
X191476333Y-169299095D01*
X191714428Y-169299095D01*
X191904904Y-169346714D01*
X192000142Y-169394333D01*
X192047761Y-169441952D01*
X192095380Y-169537190D01*
X192095380Y-169632428D01*
X192047761Y-169727666D01*
X192000142Y-169775285D01*
X191904904Y-169822904D01*
X191714428Y-169870523D01*
X191476333Y-169870523D01*
X191285857Y-169822904D01*
X191190619Y-169775285D01*
X191143000Y-169727666D01*
X191095380Y-169632428D01*
X211145380Y-171775285D02*
X210145380Y-171775285D01*
X210145380Y-171537190D01*
X210193000Y-171394333D01*
X210288238Y-171299095D01*
X210383476Y-171251476D01*
X210573952Y-171203857D01*
X210716809Y-171203857D01*
X210907285Y-171251476D01*
X211002523Y-171299095D01*
X211097761Y-171394333D01*
X211145380Y-171537190D01*
X211145380Y-171775285D01*
X210573952Y-170632428D02*
X210526333Y-170727666D01*
X210478714Y-170775285D01*
X210383476Y-170822904D01*
X210335857Y-170822904D01*
X210240619Y-170775285D01*
X210193000Y-170727666D01*
X210145380Y-170632428D01*
X210145380Y-170441952D01*
X210193000Y-170346714D01*
X210240619Y-170299095D01*
X210335857Y-170251476D01*
X210383476Y-170251476D01*
X210478714Y-170299095D01*
X210526333Y-170346714D01*
X210573952Y-170441952D01*
X210573952Y-170632428D01*
X210621571Y-170727666D01*
X210669190Y-170775285D01*
X210764428Y-170822904D01*
X210954904Y-170822904D01*
X211050142Y-170775285D01*
X211097761Y-170727666D01*
X211145380Y-170632428D01*
X211145380Y-170441952D01*
X211097761Y-170346714D01*
X211050142Y-170299095D01*
X210954904Y-170251476D01*
X210764428Y-170251476D01*
X210669190Y-170299095D01*
X210621571Y-170346714D01*
X210573952Y-170441952D01*
X211145380Y-169299095D02*
X211145380Y-169870523D01*
X211145380Y-169584809D02*
X210145380Y-169584809D01*
X210288238Y-169680047D01*
X210383476Y-169775285D01*
X210431095Y-169870523D01*
X230195380Y-171775285D02*
X229195380Y-171775285D01*
X229195380Y-171537190D01*
X229243000Y-171394333D01*
X229338238Y-171299095D01*
X229433476Y-171251476D01*
X229623952Y-171203857D01*
X229766809Y-171203857D01*
X229957285Y-171251476D01*
X230052523Y-171299095D01*
X230147761Y-171394333D01*
X230195380Y-171537190D01*
X230195380Y-171775285D01*
X229623952Y-170632428D02*
X229576333Y-170727666D01*
X229528714Y-170775285D01*
X229433476Y-170822904D01*
X229385857Y-170822904D01*
X229290619Y-170775285D01*
X229243000Y-170727666D01*
X229195380Y-170632428D01*
X229195380Y-170441952D01*
X229243000Y-170346714D01*
X229290619Y-170299095D01*
X229385857Y-170251476D01*
X229433476Y-170251476D01*
X229528714Y-170299095D01*
X229576333Y-170346714D01*
X229623952Y-170441952D01*
X229623952Y-170632428D01*
X229671571Y-170727666D01*
X229719190Y-170775285D01*
X229814428Y-170822904D01*
X230004904Y-170822904D01*
X230100142Y-170775285D01*
X230147761Y-170727666D01*
X230195380Y-170632428D01*
X230195380Y-170441952D01*
X230147761Y-170346714D01*
X230100142Y-170299095D01*
X230004904Y-170251476D01*
X229814428Y-170251476D01*
X229719190Y-170299095D01*
X229671571Y-170346714D01*
X229623952Y-170441952D01*
X229290619Y-169870523D02*
X229243000Y-169822904D01*
X229195380Y-169727666D01*
X229195380Y-169489571D01*
X229243000Y-169394333D01*
X229290619Y-169346714D01*
X229385857Y-169299095D01*
X229481095Y-169299095D01*
X229623952Y-169346714D01*
X230195380Y-169918142D01*
X230195380Y-169299095D01*
X249245380Y-171775285D02*
X248245380Y-171775285D01*
X248245380Y-171537190D01*
X248293000Y-171394333D01*
X248388238Y-171299095D01*
X248483476Y-171251476D01*
X248673952Y-171203857D01*
X248816809Y-171203857D01*
X249007285Y-171251476D01*
X249102523Y-171299095D01*
X249197761Y-171394333D01*
X249245380Y-171537190D01*
X249245380Y-171775285D01*
X248673952Y-170632428D02*
X248626333Y-170727666D01*
X248578714Y-170775285D01*
X248483476Y-170822904D01*
X248435857Y-170822904D01*
X248340619Y-170775285D01*
X248293000Y-170727666D01*
X248245380Y-170632428D01*
X248245380Y-170441952D01*
X248293000Y-170346714D01*
X248340619Y-170299095D01*
X248435857Y-170251476D01*
X248483476Y-170251476D01*
X248578714Y-170299095D01*
X248626333Y-170346714D01*
X248673952Y-170441952D01*
X248673952Y-170632428D01*
X248721571Y-170727666D01*
X248769190Y-170775285D01*
X248864428Y-170822904D01*
X249054904Y-170822904D01*
X249150142Y-170775285D01*
X249197761Y-170727666D01*
X249245380Y-170632428D01*
X249245380Y-170441952D01*
X249197761Y-170346714D01*
X249150142Y-170299095D01*
X249054904Y-170251476D01*
X248864428Y-170251476D01*
X248769190Y-170299095D01*
X248721571Y-170346714D01*
X248673952Y-170441952D01*
X248245380Y-169918142D02*
X248245380Y-169299095D01*
X248626333Y-169632428D01*
X248626333Y-169489571D01*
X248673952Y-169394333D01*
X248721571Y-169346714D01*
X248816809Y-169299095D01*
X249054904Y-169299095D01*
X249150142Y-169346714D01*
X249197761Y-169394333D01*
X249245380Y-169489571D01*
X249245380Y-169775285D01*
X249197761Y-169870523D01*
X249150142Y-169918142D01*
X286805972Y-158094451D02*
X287771898Y-157835632D01*
X287833521Y-158065615D01*
X287824499Y-158215929D01*
X287757155Y-158332571D01*
X287677487Y-158403217D01*
X287505826Y-158498512D01*
X287367837Y-158535487D01*
X287171526Y-158538789D01*
X287067208Y-158517442D01*
X286950566Y-158450098D01*
X286867595Y-158324434D01*
X286805972Y-158094451D01*
X287653723Y-159050470D02*
X287675070Y-158946152D01*
X287708741Y-158887831D01*
X287788410Y-158817185D01*
X287834406Y-158804861D01*
X287938724Y-158826208D01*
X287997045Y-158859879D01*
X288067691Y-158939548D01*
X288116990Y-159123533D01*
X288095643Y-159227851D01*
X288061971Y-159286172D01*
X287982303Y-159356818D01*
X287936306Y-159369143D01*
X287831989Y-159347796D01*
X287773667Y-159314124D01*
X287703021Y-159234456D01*
X287653723Y-159050470D01*
X287583077Y-158970802D01*
X287524756Y-158937130D01*
X287420438Y-158915783D01*
X287236452Y-158965082D01*
X287156784Y-159035728D01*
X287123112Y-159094049D01*
X287101765Y-159198367D01*
X287151064Y-159382352D01*
X287221710Y-159462021D01*
X287280031Y-159495692D01*
X287384349Y-159517039D01*
X287568334Y-159467741D01*
X287648003Y-159397095D01*
X287681674Y-159338774D01*
X287703021Y-159234456D01*
X288066158Y-160221729D02*
X287422208Y-160394275D01*
X288372506Y-159893149D02*
X287620936Y-159848037D01*
X287781157Y-160445991D01*
X305093972Y-153268451D02*
X306059898Y-153009632D01*
X306121521Y-153239615D01*
X306112499Y-153389929D01*
X306045155Y-153506571D01*
X305965487Y-153577217D01*
X305793826Y-153672512D01*
X305655837Y-153709487D01*
X305459526Y-153712789D01*
X305355208Y-153691442D01*
X305238566Y-153624098D01*
X305155595Y-153498434D01*
X305093972Y-153268451D01*
X305941723Y-154224470D02*
X305963070Y-154120152D01*
X305996741Y-154061831D01*
X306076410Y-153991185D01*
X306122406Y-153978861D01*
X306226724Y-154000208D01*
X306285045Y-154033879D01*
X306355691Y-154113548D01*
X306404990Y-154297533D01*
X306383643Y-154401851D01*
X306349971Y-154460172D01*
X306270303Y-154530818D01*
X306224306Y-154543143D01*
X306119989Y-154521796D01*
X306061667Y-154488124D01*
X305991021Y-154408456D01*
X305941723Y-154224470D01*
X305871077Y-154144802D01*
X305812756Y-154111130D01*
X305708438Y-154089783D01*
X305524452Y-154139082D01*
X305444784Y-154209728D01*
X305411112Y-154268049D01*
X305389765Y-154372367D01*
X305439064Y-154556352D01*
X305509710Y-154636021D01*
X305568031Y-154669692D01*
X305672349Y-154691039D01*
X305856334Y-154641741D01*
X305936003Y-154571095D01*
X305969674Y-154512774D01*
X305991021Y-154408456D01*
X306688458Y-155355452D02*
X306565211Y-154895488D01*
X306092922Y-154972738D01*
X306151243Y-155006410D01*
X306221889Y-155086078D01*
X306283512Y-155316061D01*
X306262165Y-155420378D01*
X306228493Y-155478699D01*
X306148825Y-155549345D01*
X305918843Y-155610969D01*
X305814525Y-155589622D01*
X305756204Y-155555950D01*
X305685558Y-155476282D01*
X305623935Y-155246299D01*
X305645282Y-155141982D01*
X305678953Y-155083661D01*
X323635972Y-148188451D02*
X324601898Y-147929632D01*
X324663521Y-148159615D01*
X324654499Y-148309929D01*
X324587155Y-148426571D01*
X324507487Y-148497217D01*
X324335826Y-148592512D01*
X324197837Y-148629487D01*
X324001526Y-148632789D01*
X323897208Y-148611442D01*
X323780566Y-148544098D01*
X323697595Y-148418434D01*
X323635972Y-148188451D01*
X324483723Y-149144470D02*
X324505070Y-149040152D01*
X324538741Y-148981831D01*
X324618410Y-148911185D01*
X324664406Y-148898861D01*
X324768724Y-148920208D01*
X324827045Y-148953879D01*
X324897691Y-149033548D01*
X324946990Y-149217533D01*
X324925643Y-149321851D01*
X324891971Y-149380172D01*
X324812303Y-149450818D01*
X324766306Y-149463143D01*
X324661989Y-149441796D01*
X324603667Y-149408124D01*
X324533021Y-149328456D01*
X324483723Y-149144470D01*
X324413077Y-149064802D01*
X324354756Y-149031130D01*
X324250438Y-149009783D01*
X324066452Y-149059082D01*
X323986784Y-149129728D01*
X323953112Y-149188049D01*
X323931765Y-149292367D01*
X323981064Y-149476352D01*
X324051710Y-149556021D01*
X324110031Y-149589692D01*
X324214349Y-149611039D01*
X324398334Y-149561741D01*
X324478003Y-149491095D01*
X324511674Y-149432774D01*
X324533021Y-149328456D01*
X325218133Y-150229456D02*
X325168835Y-150045470D01*
X325098189Y-149965802D01*
X325039867Y-149932130D01*
X324877229Y-149877111D01*
X324680918Y-149880413D01*
X324312946Y-149979011D01*
X324233278Y-150049657D01*
X324199606Y-150107978D01*
X324178259Y-150212296D01*
X324227558Y-150396282D01*
X324298204Y-150475950D01*
X324356525Y-150509622D01*
X324460843Y-150530969D01*
X324690825Y-150469345D01*
X324770493Y-150398699D01*
X324804165Y-150340378D01*
X324825512Y-150236061D01*
X324776213Y-150052075D01*
X324705567Y-149972406D01*
X324647246Y-149938735D01*
X324542929Y-149917388D01*
X343193972Y-147934451D02*
X344159898Y-147675632D01*
X344221521Y-147905615D01*
X344212499Y-148055929D01*
X344145155Y-148172571D01*
X344065487Y-148243217D01*
X343893826Y-148338512D01*
X343755837Y-148375487D01*
X343559526Y-148378789D01*
X343455208Y-148357442D01*
X343338566Y-148290098D01*
X343255595Y-148164434D01*
X343193972Y-147934451D01*
X344041723Y-148890470D02*
X344063070Y-148786152D01*
X344096741Y-148727831D01*
X344176410Y-148657185D01*
X344222406Y-148644861D01*
X344326724Y-148666208D01*
X344385045Y-148699879D01*
X344455691Y-148779548D01*
X344504990Y-148963533D01*
X344483643Y-149067851D01*
X344449971Y-149126172D01*
X344370303Y-149196818D01*
X344324306Y-149209143D01*
X344219989Y-149187796D01*
X344161667Y-149154124D01*
X344091021Y-149074456D01*
X344041723Y-148890470D01*
X343971077Y-148810802D01*
X343912756Y-148777130D01*
X343808438Y-148755783D01*
X343624452Y-148805082D01*
X343544784Y-148875728D01*
X343511112Y-148934049D01*
X343489765Y-149038367D01*
X343539064Y-149222352D01*
X343609710Y-149302021D01*
X343668031Y-149335692D01*
X343772349Y-149357039D01*
X343956334Y-149307741D01*
X344036003Y-149237095D01*
X344069674Y-149178774D01*
X344091021Y-149074456D01*
X344640562Y-149469495D02*
X344813108Y-150113445D01*
X343736259Y-149958296D01*
X361989972Y-144378451D02*
X362955898Y-144119632D01*
X363017521Y-144349615D01*
X363008499Y-144499929D01*
X362941155Y-144616571D01*
X362861487Y-144687217D01*
X362689826Y-144782512D01*
X362551837Y-144819487D01*
X362355526Y-144822789D01*
X362251208Y-144801442D01*
X362134566Y-144734098D01*
X362051595Y-144608434D01*
X361989972Y-144378451D01*
X362837723Y-145334470D02*
X362859070Y-145230152D01*
X362892741Y-145171831D01*
X362972410Y-145101185D01*
X363018406Y-145088861D01*
X363122724Y-145110208D01*
X363181045Y-145143879D01*
X363251691Y-145223548D01*
X363300990Y-145407533D01*
X363279643Y-145511851D01*
X363245971Y-145570172D01*
X363166303Y-145640818D01*
X363120306Y-145653143D01*
X363015989Y-145631796D01*
X362957667Y-145598124D01*
X362887021Y-145518456D01*
X362837723Y-145334470D01*
X362767077Y-145254802D01*
X362708756Y-145221130D01*
X362604438Y-145199783D01*
X362420452Y-145249082D01*
X362340784Y-145319728D01*
X362307112Y-145378049D01*
X362285765Y-145482367D01*
X362335064Y-145666352D01*
X362405710Y-145746021D01*
X362464031Y-145779692D01*
X362568349Y-145801039D01*
X362752334Y-145751741D01*
X362832003Y-145681095D01*
X362865674Y-145622774D01*
X362887021Y-145518456D01*
X363084217Y-146254399D02*
X363105564Y-146150082D01*
X363139236Y-146091761D01*
X363218904Y-146021115D01*
X363264900Y-146008790D01*
X363369218Y-146030137D01*
X363427539Y-146063809D01*
X363498185Y-146143477D01*
X363547484Y-146327463D01*
X363526137Y-146431780D01*
X363492465Y-146490102D01*
X363412797Y-146560748D01*
X363366801Y-146573072D01*
X363262483Y-146551725D01*
X363204162Y-146518053D01*
X363133516Y-146438385D01*
X363084217Y-146254399D01*
X363013571Y-146174731D01*
X362955250Y-146141059D01*
X362850932Y-146119712D01*
X362666946Y-146169011D01*
X362587278Y-146239657D01*
X362553606Y-146297978D01*
X362532259Y-146402296D01*
X362581558Y-146586282D01*
X362652204Y-146665950D01*
X362710525Y-146699622D01*
X362814843Y-146720969D01*
X362998829Y-146671670D01*
X363078497Y-146601024D01*
X363112169Y-146542703D01*
X363133516Y-146438385D01*
X380277972Y-139552451D02*
X381243898Y-139293632D01*
X381305521Y-139523615D01*
X381296499Y-139673929D01*
X381229155Y-139790571D01*
X381149487Y-139861217D01*
X380977826Y-139956512D01*
X380839837Y-139993487D01*
X380643526Y-139996789D01*
X380539208Y-139975442D01*
X380422566Y-139908098D01*
X380339595Y-139782434D01*
X380277972Y-139552451D01*
X381125723Y-140508470D02*
X381147070Y-140404152D01*
X381180741Y-140345831D01*
X381260410Y-140275185D01*
X381306406Y-140262861D01*
X381410724Y-140284208D01*
X381469045Y-140317879D01*
X381539691Y-140397548D01*
X381588990Y-140581533D01*
X381567643Y-140685851D01*
X381533971Y-140744172D01*
X381454303Y-140814818D01*
X381408306Y-140827143D01*
X381303989Y-140805796D01*
X381245667Y-140772124D01*
X381175021Y-140692456D01*
X381125723Y-140508470D01*
X381055077Y-140428802D01*
X380996756Y-140395130D01*
X380892438Y-140373783D01*
X380708452Y-140423082D01*
X380628784Y-140493728D01*
X380595112Y-140552049D01*
X380573765Y-140656367D01*
X380623064Y-140840352D01*
X380693710Y-140920021D01*
X380752031Y-140953692D01*
X380856349Y-140975039D01*
X381040334Y-140925741D01*
X381120003Y-140855095D01*
X381153674Y-140796774D01*
X381175021Y-140692456D01*
X380795610Y-141484303D02*
X380844909Y-141668289D01*
X380915555Y-141747957D01*
X380973876Y-141781629D01*
X381136515Y-141836648D01*
X381332825Y-141833345D01*
X381700797Y-141734748D01*
X381780465Y-141664102D01*
X381814137Y-141605780D01*
X381835484Y-141501463D01*
X381786185Y-141317477D01*
X381715539Y-141237809D01*
X381657218Y-141204137D01*
X381552900Y-141182790D01*
X381322918Y-141244413D01*
X381243250Y-141315059D01*
X381209578Y-141373381D01*
X381188231Y-141477698D01*
X381237530Y-141661684D01*
X381308176Y-141741352D01*
X381366497Y-141775024D01*
X381470815Y-141796371D01*
X397422972Y-134345451D02*
X398388898Y-134086632D01*
X398450521Y-134316615D01*
X398441499Y-134466929D01*
X398374155Y-134583571D01*
X398294487Y-134654217D01*
X398122826Y-134749512D01*
X397984837Y-134786487D01*
X397788526Y-134789789D01*
X397684208Y-134768442D01*
X397567566Y-134701098D01*
X397484595Y-134575434D01*
X397422972Y-134345451D01*
X397694116Y-135357374D02*
X397743414Y-135541360D01*
X397814060Y-135621028D01*
X397872381Y-135654700D01*
X398035020Y-135709718D01*
X398231331Y-135706416D01*
X398599303Y-135607818D01*
X398678971Y-135537172D01*
X398712643Y-135478851D01*
X398733990Y-135374533D01*
X398684691Y-135190548D01*
X398614045Y-135110879D01*
X398555724Y-135077208D01*
X398451406Y-135055861D01*
X398221424Y-135117484D01*
X398141756Y-135188130D01*
X398108084Y-135246451D01*
X398086737Y-135350769D01*
X398136036Y-135534755D01*
X398206681Y-135614423D01*
X398265003Y-135648095D01*
X398369320Y-135669442D01*
X398943510Y-136156473D02*
X398968159Y-136248466D01*
X398946812Y-136352784D01*
X398913140Y-136411105D01*
X398833472Y-136481751D01*
X398661811Y-136577046D01*
X398431829Y-136638670D01*
X398235518Y-136641972D01*
X398131201Y-136620625D01*
X398072879Y-136586954D01*
X398002233Y-136507285D01*
X397977584Y-136415292D01*
X397998931Y-136310975D01*
X398032603Y-136252654D01*
X398112271Y-136182008D01*
X398283932Y-136086712D01*
X398513915Y-136025089D01*
X398710225Y-136021786D01*
X398814543Y-136043133D01*
X398872864Y-136076805D01*
X398943510Y-136156473D01*
X228493666Y-81865000D02*
X228260333Y-81865000D01*
X228260333Y-82231666D02*
X228260333Y-81531666D01*
X228593666Y-81531666D01*
X229227000Y-82231666D02*
X228827000Y-82231666D01*
X229027000Y-82231666D02*
X229027000Y-81531666D01*
X228960333Y-81631666D01*
X228893666Y-81698333D01*
X228827000Y-81731666D01*
X232166333Y-89023000D02*
X232133000Y-89056333D01*
X232033000Y-89089666D01*
X231966333Y-89089666D01*
X231866333Y-89056333D01*
X231799666Y-88989666D01*
X231766333Y-88923000D01*
X231733000Y-88789666D01*
X231733000Y-88689666D01*
X231766333Y-88556333D01*
X231799666Y-88489666D01*
X231866333Y-88423000D01*
X231966333Y-88389666D01*
X232033000Y-88389666D01*
X232133000Y-88423000D01*
X232166333Y-88456333D01*
X232766333Y-88389666D02*
X232633000Y-88389666D01*
X232566333Y-88423000D01*
X232533000Y-88456333D01*
X232466333Y-88556333D01*
X232433000Y-88689666D01*
X232433000Y-88956333D01*
X232466333Y-89023000D01*
X232499666Y-89056333D01*
X232566333Y-89089666D01*
X232699666Y-89089666D01*
X232766333Y-89056333D01*
X232799666Y-89023000D01*
X232833000Y-88956333D01*
X232833000Y-88789666D01*
X232799666Y-88723000D01*
X232766333Y-88689666D01*
X232699666Y-88656333D01*
X232566333Y-88656333D01*
X232499666Y-88689666D01*
X232466333Y-88723000D01*
X232433000Y-88789666D01*
M02*
