G04 #@! TF.GenerationSoftware,KiCad,Pcbnew,(5.1.10)-1*
G04 #@! TF.CreationDate,2021-10-14T20:39:04+01:00*
G04 #@! TF.ProjectId,superlyra-hs,73757065-726c-4797-9261-2d68732e6b69,0.1*
G04 #@! TF.SameCoordinates,Original*
G04 #@! TF.FileFunction,Paste,Bot*
G04 #@! TF.FilePolarity,Positive*
%FSLAX46Y46*%
G04 Gerber Fmt 4.6, Leading zero omitted, Abs format (unit mm)*
G04 Created by KiCad (PCBNEW (5.1.10)-1) date 2021-10-14 20:39:04*
%MOMM*%
%LPD*%
G01*
G04 APERTURE LIST*
%ADD10C,0.100000*%
%ADD11R,2.550000X2.500000*%
G04 APERTURE END LIST*
D10*
G36*
X356392602Y-118848768D02*
G01*
X357039649Y-121263583D01*
X354576538Y-121923572D01*
X353929491Y-119508757D01*
X356392602Y-118848768D01*
G37*
G36*
X367902122Y-118131443D02*
G01*
X368549169Y-120546258D01*
X366086058Y-121206247D01*
X365439011Y-118791432D01*
X367902122Y-118131443D01*
G37*
G36*
X355861183Y-112507227D02*
G01*
X356508230Y-114922042D01*
X354045119Y-115582031D01*
X353398072Y-113167216D01*
X355861183Y-112507227D01*
G37*
G36*
X367471041Y-106766773D02*
G01*
X368118088Y-109181588D01*
X365654977Y-109841577D01*
X365007930Y-107426762D01*
X367471041Y-106766773D01*
G37*
G36*
X144003423Y-178028616D02*
G01*
X143677107Y-180507228D01*
X141148923Y-180174386D01*
X141475239Y-177695774D01*
X144003423Y-178028616D01*
G37*
G36*
X154911341Y-181770397D02*
G01*
X154585025Y-184249009D01*
X152056841Y-183916167D01*
X152383157Y-181437555D01*
X154911341Y-181770397D01*
G37*
G36*
X158862144Y-171105843D02*
G01*
X158535828Y-173584455D01*
X156007644Y-173251613D01*
X156333960Y-170773001D01*
X158862144Y-171105843D01*
G37*
G36*
X145939258Y-171966430D02*
G01*
X145612942Y-174445042D01*
X143084758Y-174112200D01*
X143411074Y-171633588D01*
X145939258Y-171966430D01*
G37*
G36*
X262109125Y-179822046D02*
G01*
X262435441Y-182300658D01*
X259907257Y-182633500D01*
X259580941Y-180154888D01*
X262109125Y-179822046D01*
G37*
G36*
X273613809Y-180613151D02*
G01*
X273940125Y-183091763D01*
X271411941Y-183424605D01*
X271085625Y-180945993D01*
X273613809Y-180613151D01*
G37*
G36*
X274669802Y-169289440D02*
G01*
X274996118Y-171768052D01*
X272467934Y-172100894D01*
X272141618Y-169622282D01*
X274669802Y-169289440D01*
G37*
G36*
X262409989Y-173465393D02*
G01*
X262736305Y-175944005D01*
X260208121Y-176276847D01*
X259881805Y-173798235D01*
X262409989Y-173465393D01*
G37*
G36*
X40278356Y-151960792D02*
G01*
X39631309Y-154375607D01*
X37168198Y-153715618D01*
X37815245Y-151300803D01*
X40278356Y-151960792D01*
G37*
G36*
X50604556Y-157094330D02*
G01*
X49957509Y-159509145D01*
X47494398Y-158849156D01*
X48141445Y-156434341D01*
X50604556Y-157094330D01*
G37*
G36*
X42988904Y-146203146D02*
G01*
X42341857Y-148617961D01*
X39878746Y-147957972D01*
X40525793Y-145543157D01*
X42988904Y-146203146D01*
G37*
G36*
X55913563Y-147036696D02*
G01*
X55266516Y-149451511D01*
X52803405Y-148791522D01*
X53450452Y-146376707D01*
X55913563Y-147036696D01*
G37*
G36*
X327793007Y-85507923D02*
G01*
X328440054Y-87922738D01*
X325976943Y-88582727D01*
X325329896Y-86167912D01*
X327793007Y-85507923D01*
G37*
G36*
X339302527Y-84790598D02*
G01*
X339949574Y-87205413D01*
X337486463Y-87865402D01*
X336839416Y-85450587D01*
X339302527Y-84790598D01*
G37*
G36*
X327261588Y-79166382D02*
G01*
X327908635Y-81581197D01*
X325445524Y-82241186D01*
X324798477Y-79826371D01*
X327261588Y-79166382D01*
G37*
G36*
X338871446Y-73425928D02*
G01*
X339518493Y-75840743D01*
X337055382Y-76500732D01*
X336408335Y-74085917D01*
X338871446Y-73425928D01*
G37*
G36*
X41919833Y-72069874D02*
G01*
X41272786Y-74484689D01*
X38809675Y-73824700D01*
X39456722Y-71409885D01*
X41919833Y-72069874D01*
G37*
G36*
X52246033Y-77203412D02*
G01*
X51598986Y-79618227D01*
X49135875Y-78958238D01*
X49782922Y-76543423D01*
X52246033Y-77203412D01*
G37*
G36*
X44630381Y-66312228D02*
G01*
X43983334Y-68727043D01*
X41520223Y-68067054D01*
X42167270Y-65652239D01*
X44630381Y-66312228D01*
G37*
G36*
X57555040Y-67145778D02*
G01*
X56907993Y-69560593D01*
X54444882Y-68900604D01*
X55091929Y-66485789D01*
X57555040Y-67145778D01*
G37*
G36*
X60077832Y-78425445D02*
G01*
X59430785Y-80840260D01*
X56967674Y-80180271D01*
X57614721Y-77765456D01*
X60077832Y-78425445D01*
G37*
G36*
X70404032Y-83558983D02*
G01*
X69756985Y-85973798D01*
X67293874Y-85313809D01*
X67940921Y-82898994D01*
X70404032Y-83558983D01*
G37*
G36*
X62788380Y-72667799D02*
G01*
X62141333Y-75082614D01*
X59678222Y-74422625D01*
X60325269Y-72007810D01*
X62788380Y-72667799D01*
G37*
G36*
X75713039Y-73501349D02*
G01*
X75065992Y-75916164D01*
X72602881Y-75256175D01*
X73249928Y-72841360D01*
X75713039Y-73501349D01*
G37*
G36*
X78774356Y-81934703D02*
G01*
X78127309Y-84349518D01*
X75664198Y-83689529D01*
X76311245Y-81274714D01*
X78774356Y-81934703D01*
G37*
G36*
X89100556Y-87068241D02*
G01*
X88453509Y-89483056D01*
X85990398Y-88823067D01*
X86637445Y-86408252D01*
X89100556Y-87068241D01*
G37*
G36*
X81484904Y-76177057D02*
G01*
X80837857Y-78591872D01*
X78374746Y-77931883D01*
X79021793Y-75517068D01*
X81484904Y-76177057D01*
G37*
G36*
X94409563Y-77010607D02*
G01*
X93762516Y-79425422D01*
X91299405Y-78765433D01*
X91946452Y-76350618D01*
X94409563Y-77010607D01*
G37*
G36*
X98485519Y-82203912D02*
G01*
X97838472Y-84618727D01*
X95375361Y-83958738D01*
X96022408Y-81543923D01*
X98485519Y-82203912D01*
G37*
G36*
X108811719Y-87337450D02*
G01*
X108164672Y-89752265D01*
X105701561Y-89092276D01*
X106348608Y-86677461D01*
X108811719Y-87337450D01*
G37*
G36*
X101196067Y-76446266D02*
G01*
X100549020Y-78861081D01*
X98085909Y-78201092D01*
X98732956Y-75786277D01*
X101196067Y-76446266D01*
G37*
G36*
X114120726Y-77279816D02*
G01*
X113473679Y-79694631D01*
X111010568Y-79034642D01*
X111657615Y-76619827D01*
X114120726Y-77279816D01*
G37*
G36*
X117258063Y-85809611D02*
G01*
X116611016Y-88224426D01*
X114147905Y-87564437D01*
X114794952Y-85149622D01*
X117258063Y-85809611D01*
G37*
G36*
X127584263Y-90943149D02*
G01*
X126937216Y-93357964D01*
X124474105Y-92697975D01*
X125121152Y-90283160D01*
X127584263Y-90943149D01*
G37*
G36*
X119968611Y-80051965D02*
G01*
X119321564Y-82466780D01*
X116858453Y-81806791D01*
X117505500Y-79391976D01*
X119968611Y-80051965D01*
G37*
G36*
X132893270Y-80885515D02*
G01*
X132246223Y-83300330D01*
X129783112Y-82640341D01*
X130430159Y-80225526D01*
X132893270Y-80885515D01*
G37*
G36*
X135282605Y-92063030D02*
G01*
X134635558Y-94477845D01*
X132172447Y-93817856D01*
X132819494Y-91403041D01*
X135282605Y-92063030D01*
G37*
G36*
X145608805Y-97196568D02*
G01*
X144961758Y-99611383D01*
X142498647Y-98951394D01*
X143145694Y-96536579D01*
X145608805Y-97196568D01*
G37*
G36*
X137993153Y-86305384D02*
G01*
X137346106Y-88720199D01*
X134882995Y-88060210D01*
X135530042Y-85645395D01*
X137993153Y-86305384D01*
G37*
G36*
X150917812Y-87138934D02*
G01*
X150270765Y-89553749D01*
X147807654Y-88893760D01*
X148454701Y-86478945D01*
X150917812Y-87138934D01*
G37*
G36*
X153022910Y-99311849D02*
G01*
X152375863Y-101726664D01*
X149912752Y-101066675D01*
X150559799Y-98651860D01*
X153022910Y-99311849D01*
G37*
G36*
X163349110Y-104445387D02*
G01*
X162702063Y-106860202D01*
X160238952Y-106200213D01*
X160885999Y-103785398D01*
X163349110Y-104445387D01*
G37*
G36*
X155733458Y-93554203D02*
G01*
X155086411Y-95969018D01*
X152623300Y-95309029D01*
X153270347Y-92894214D01*
X155733458Y-93554203D01*
G37*
G36*
X168658117Y-94387753D02*
G01*
X168011070Y-96802568D01*
X165547959Y-96142579D01*
X166195006Y-93727764D01*
X168658117Y-94387753D01*
G37*
D11*
X173352027Y-105351860D03*
X184655027Y-107637860D03*
X174480027Y-99088860D03*
X187180027Y-96548860D03*
X192335938Y-105352622D03*
X203638938Y-107638622D03*
X193463938Y-99089622D03*
X206163938Y-96549622D03*
X211340099Y-105352850D03*
X222643099Y-107638850D03*
X212468099Y-99089850D03*
X225168099Y-96549850D03*
X230328946Y-105352702D03*
X241631946Y-107638702D03*
X231456946Y-99089702D03*
X244156946Y-96549702D03*
D10*
G36*
X253553140Y-102902399D02*
G01*
X254200187Y-105317214D01*
X251737076Y-105977203D01*
X251090029Y-103562388D01*
X253553140Y-102902399D01*
G37*
G36*
X265062660Y-102185074D02*
G01*
X265709707Y-104599889D01*
X263246596Y-105259878D01*
X262599549Y-102845063D01*
X265062660Y-102185074D01*
G37*
G36*
X253021721Y-96560858D02*
G01*
X253668768Y-98975673D01*
X251205657Y-99635662D01*
X250558610Y-97220847D01*
X253021721Y-96560858D01*
G37*
G36*
X264631579Y-90820404D02*
G01*
X265278626Y-93235219D01*
X262815515Y-93895208D01*
X262168468Y-91480393D01*
X264631579Y-90820404D01*
G37*
G36*
X271273232Y-95674797D02*
G01*
X271920279Y-98089612D01*
X269457168Y-98749601D01*
X268810121Y-96334786D01*
X271273232Y-95674797D01*
G37*
G36*
X282782752Y-94957472D02*
G01*
X283429799Y-97372287D01*
X280966688Y-98032276D01*
X280319641Y-95617461D01*
X282782752Y-94957472D01*
G37*
G36*
X270741813Y-89333256D02*
G01*
X271388860Y-91748071D01*
X268925749Y-92408060D01*
X268278702Y-89993245D01*
X270741813Y-89333256D01*
G37*
G36*
X282351671Y-83592802D02*
G01*
X282998718Y-86007617D01*
X280535607Y-86667606D01*
X279888560Y-84252791D01*
X282351671Y-83592802D01*
G37*
G36*
X289309240Y-89422182D02*
G01*
X289956287Y-91836997D01*
X287493176Y-92496986D01*
X286846129Y-90082171D01*
X289309240Y-89422182D01*
G37*
G36*
X300818760Y-88704857D02*
G01*
X301465807Y-91119672D01*
X299002696Y-91779661D01*
X298355649Y-89364846D01*
X300818760Y-88704857D01*
G37*
G36*
X288777821Y-83080641D02*
G01*
X289424868Y-85495456D01*
X286961757Y-86155445D01*
X286314710Y-83740630D01*
X288777821Y-83080641D01*
G37*
G36*
X300387679Y-77340187D02*
G01*
X301034726Y-79755002D01*
X298571615Y-80414991D01*
X297924568Y-78000176D01*
X300387679Y-77340187D01*
G37*
G36*
X308094181Y-85839770D02*
G01*
X308741228Y-88254585D01*
X306278117Y-88914574D01*
X305631070Y-86499759D01*
X308094181Y-85839770D01*
G37*
G36*
X319603701Y-85122445D02*
G01*
X320250748Y-87537260D01*
X317787637Y-88197249D01*
X317140590Y-85782434D01*
X319603701Y-85122445D01*
G37*
G36*
X307562762Y-79498229D02*
G01*
X308209809Y-81913044D01*
X305746698Y-82573033D01*
X305099651Y-80158218D01*
X307562762Y-79498229D01*
G37*
G36*
X319172620Y-73757775D02*
G01*
X319819667Y-76172590D01*
X317356556Y-76832579D01*
X316709509Y-74417764D01*
X319172620Y-73757775D01*
G37*
G36*
X346527983Y-82055774D02*
G01*
X347175030Y-84470589D01*
X344711919Y-85130578D01*
X344064872Y-82715763D01*
X346527983Y-82055774D01*
G37*
G36*
X358037503Y-81338449D02*
G01*
X358684550Y-83753264D01*
X356221439Y-84413253D01*
X355574392Y-81998438D01*
X358037503Y-81338449D01*
G37*
G36*
X345996564Y-75714233D02*
G01*
X346643611Y-78129048D01*
X344180500Y-78789037D01*
X343533453Y-76374222D01*
X345996564Y-75714233D01*
G37*
G36*
X357606422Y-69973779D02*
G01*
X358253469Y-72388594D01*
X355790358Y-73048583D01*
X355143311Y-70633768D01*
X357606422Y-69973779D01*
G37*
G36*
X364589678Y-75663485D02*
G01*
X365236725Y-78078300D01*
X362773614Y-78738289D01*
X362126567Y-76323474D01*
X364589678Y-75663485D01*
G37*
G36*
X376099198Y-74946160D02*
G01*
X376746245Y-77360975D01*
X374283134Y-78020964D01*
X373636087Y-75606149D01*
X376099198Y-74946160D01*
G37*
G36*
X364058259Y-69321944D02*
G01*
X364705306Y-71736759D01*
X362242195Y-72396748D01*
X361595148Y-69981933D01*
X364058259Y-69321944D01*
G37*
G36*
X375668117Y-63581490D02*
G01*
X376315164Y-65996305D01*
X373852053Y-66656294D01*
X373205006Y-64241479D01*
X375668117Y-63581490D01*
G37*
G36*
X37051296Y-90298855D02*
G01*
X36404249Y-92713670D01*
X33941138Y-92053681D01*
X34588185Y-89638866D01*
X37051296Y-90298855D01*
G37*
G36*
X47377496Y-95432393D02*
G01*
X46730449Y-97847208D01*
X44267338Y-97187219D01*
X44914385Y-94772404D01*
X47377496Y-95432393D01*
G37*
G36*
X39761844Y-84541209D02*
G01*
X39114797Y-86956024D01*
X36651686Y-86296035D01*
X37298733Y-83881220D01*
X39761844Y-84541209D01*
G37*
G36*
X52686503Y-85374759D02*
G01*
X52039456Y-87789574D01*
X49576345Y-87129585D01*
X50223392Y-84714770D01*
X52686503Y-85374759D01*
G37*
G36*
X55181065Y-96691581D02*
G01*
X54534018Y-99106396D01*
X52070907Y-98446407D01*
X52717954Y-96031592D01*
X55181065Y-96691581D01*
G37*
G36*
X65507265Y-101825119D02*
G01*
X64860218Y-104239934D01*
X62397107Y-103579945D01*
X63044154Y-101165130D01*
X65507265Y-101825119D01*
G37*
G36*
X57891613Y-90933935D02*
G01*
X57244566Y-93348750D01*
X54781455Y-92688761D01*
X55428502Y-90273946D01*
X57891613Y-90933935D01*
G37*
G36*
X70816272Y-91767485D02*
G01*
X70169225Y-94182300D01*
X67706114Y-93522311D01*
X68353161Y-91107496D01*
X70816272Y-91767485D01*
G37*
G36*
X73881974Y-100161586D02*
G01*
X73234927Y-102576401D01*
X70771816Y-101916412D01*
X71418863Y-99501597D01*
X73881974Y-100161586D01*
G37*
G36*
X84208174Y-105295124D02*
G01*
X83561127Y-107709939D01*
X81098016Y-107049950D01*
X81745063Y-104635135D01*
X84208174Y-105295124D01*
G37*
G36*
X76592522Y-94403940D02*
G01*
X75945475Y-96818755D01*
X73482364Y-96158766D01*
X74129411Y-93743951D01*
X76592522Y-94403940D01*
G37*
G36*
X89517181Y-95237490D02*
G01*
X88870134Y-97652305D01*
X86407023Y-96992316D01*
X87054070Y-94577501D01*
X89517181Y-95237490D01*
G37*
G36*
X93572187Y-100572961D02*
G01*
X92925140Y-102987776D01*
X90462029Y-102327787D01*
X91109076Y-99912972D01*
X93572187Y-100572961D01*
G37*
G36*
X103898387Y-105706499D02*
G01*
X103251340Y-108121314D01*
X100788229Y-107461325D01*
X101435276Y-105046510D01*
X103898387Y-105706499D01*
G37*
G36*
X96282735Y-94815315D02*
G01*
X95635688Y-97230130D01*
X93172577Y-96570141D01*
X93819624Y-94155326D01*
X96282735Y-94815315D01*
G37*
G36*
X109207394Y-95648865D02*
G01*
X108560347Y-98063680D01*
X106097236Y-97403691D01*
X106744283Y-94988876D01*
X109207394Y-95648865D01*
G37*
G36*
X112276356Y-104226822D02*
G01*
X111629309Y-106641637D01*
X109166198Y-105981648D01*
X109813245Y-103566833D01*
X112276356Y-104226822D01*
G37*
G36*
X122602556Y-109360360D02*
G01*
X121955509Y-111775175D01*
X119492398Y-111115186D01*
X120139445Y-108700371D01*
X122602556Y-109360360D01*
G37*
G36*
X114986904Y-98469176D02*
G01*
X114339857Y-100883991D01*
X111876746Y-100224002D01*
X112523793Y-97809187D01*
X114986904Y-98469176D01*
G37*
G36*
X127911563Y-99302726D02*
G01*
X127264516Y-101717541D01*
X124801405Y-101057552D01*
X125448452Y-98642737D01*
X127911563Y-99302726D01*
G37*
G36*
X130352507Y-110459317D02*
G01*
X129705460Y-112874132D01*
X127242349Y-112214143D01*
X127889396Y-109799328D01*
X130352507Y-110459317D01*
G37*
G36*
X140678707Y-115592855D02*
G01*
X140031660Y-118007670D01*
X137568549Y-117347681D01*
X138215596Y-114932866D01*
X140678707Y-115592855D01*
G37*
G36*
X133063055Y-104701671D02*
G01*
X132416008Y-107116486D01*
X129952897Y-106456497D01*
X130599944Y-104041682D01*
X133063055Y-104701671D01*
G37*
G36*
X145987714Y-105535221D02*
G01*
X145340667Y-107950036D01*
X142877556Y-107290047D01*
X143524603Y-104875232D01*
X145987714Y-105535221D01*
G37*
G36*
X148045757Y-117757191D02*
G01*
X147398710Y-120172006D01*
X144935599Y-119512017D01*
X145582646Y-117097202D01*
X148045757Y-117757191D01*
G37*
G36*
X158371957Y-122890729D02*
G01*
X157724910Y-125305544D01*
X155261799Y-124645555D01*
X155908846Y-122230740D01*
X158371957Y-122890729D01*
G37*
G36*
X150756305Y-111999545D02*
G01*
X150109258Y-114414360D01*
X147646147Y-113754371D01*
X148293194Y-111339556D01*
X150756305Y-111999545D01*
G37*
G36*
X163680964Y-112833095D02*
G01*
X163033917Y-115247910D01*
X160570806Y-114587921D01*
X161217853Y-112173106D01*
X163680964Y-112833095D01*
G37*
D11*
X173354461Y-124370059D03*
X184657461Y-126656059D03*
X174482461Y-118107059D03*
X187182461Y-115567059D03*
X192341234Y-124371156D03*
X203644234Y-126657156D03*
X193469234Y-118108156D03*
X206169234Y-115568156D03*
X211331244Y-124371139D03*
X222634244Y-126657139D03*
X212459244Y-118108139D03*
X225159244Y-115568139D03*
X230312303Y-124371345D03*
X241615303Y-126657345D03*
X231440303Y-118108345D03*
X244140303Y-115568345D03*
D10*
G36*
X258462513Y-121373317D02*
G01*
X259109560Y-123788132D01*
X256646449Y-124448121D01*
X255999402Y-122033306D01*
X258462513Y-121373317D01*
G37*
G36*
X269972033Y-120655992D02*
G01*
X270619080Y-123070807D01*
X268155969Y-123730796D01*
X267508922Y-121315981D01*
X269972033Y-120655992D01*
G37*
G36*
X257931094Y-115031776D02*
G01*
X258578141Y-117446591D01*
X256115030Y-118106580D01*
X255467983Y-115691765D01*
X257931094Y-115031776D01*
G37*
G36*
X269540952Y-109291322D02*
G01*
X270187999Y-111706137D01*
X267724888Y-112366126D01*
X267077841Y-109951311D01*
X269540952Y-109291322D01*
G37*
G36*
X276214626Y-114158020D02*
G01*
X276861673Y-116572835D01*
X274398562Y-117232824D01*
X273751515Y-114818009D01*
X276214626Y-114158020D01*
G37*
G36*
X287724146Y-113440695D02*
G01*
X288371193Y-115855510D01*
X285908082Y-116515499D01*
X285261035Y-114100684D01*
X287724146Y-113440695D01*
G37*
G36*
X275683207Y-107816479D02*
G01*
X276330254Y-110231294D01*
X273867143Y-110891283D01*
X273220096Y-108476468D01*
X275683207Y-107816479D01*
G37*
G36*
X287293065Y-102076025D02*
G01*
X287940112Y-104490840D01*
X285477001Y-105150829D01*
X284829954Y-102736014D01*
X287293065Y-102076025D01*
G37*
G36*
X294322132Y-107859996D02*
G01*
X294969179Y-110274811D01*
X292506068Y-110934800D01*
X291859021Y-108519985D01*
X294322132Y-107859996D01*
G37*
G36*
X305831652Y-107142671D02*
G01*
X306478699Y-109557486D01*
X304015588Y-110217475D01*
X303368541Y-107802660D01*
X305831652Y-107142671D01*
G37*
G36*
X293790713Y-101518455D02*
G01*
X294437760Y-103933270D01*
X291974649Y-104593259D01*
X291327602Y-102178444D01*
X293790713Y-101518455D01*
G37*
G36*
X305400571Y-95778001D02*
G01*
X306047618Y-98192816D01*
X303584507Y-98852805D01*
X302937460Y-96437990D01*
X305400571Y-95778001D01*
G37*
G36*
X313014940Y-104184562D02*
G01*
X313661987Y-106599377D01*
X311198876Y-107259366D01*
X310551829Y-104844551D01*
X313014940Y-104184562D01*
G37*
G36*
X324524460Y-103467237D02*
G01*
X325171507Y-105882052D01*
X322708396Y-106542041D01*
X322061349Y-104127226D01*
X324524460Y-103467237D01*
G37*
G36*
X312483521Y-97843021D02*
G01*
X313130568Y-100257836D01*
X310667457Y-100917825D01*
X310020410Y-98503010D01*
X312483521Y-97843021D01*
G37*
G36*
X324093379Y-92102567D02*
G01*
X324740426Y-94517382D01*
X322277315Y-95177371D01*
X321630268Y-92762556D01*
X324093379Y-92102567D01*
G37*
G36*
X332687644Y-103789355D02*
G01*
X333334691Y-106204170D01*
X330871580Y-106864159D01*
X330224533Y-104449344D01*
X332687644Y-103789355D01*
G37*
G36*
X344197164Y-103072030D02*
G01*
X344844211Y-105486845D01*
X342381100Y-106146834D01*
X341734053Y-103732019D01*
X344197164Y-103072030D01*
G37*
G36*
X332156225Y-97447814D02*
G01*
X332803272Y-99862629D01*
X330340161Y-100522618D01*
X329693114Y-98107803D01*
X332156225Y-97447814D01*
G37*
G36*
X343766083Y-91707360D02*
G01*
X344413130Y-94122175D01*
X341950019Y-94782164D01*
X341302972Y-92367349D01*
X343766083Y-91707360D01*
G37*
G36*
X351436024Y-100325031D02*
G01*
X352083071Y-102739846D01*
X349619960Y-103399835D01*
X348972913Y-100985020D01*
X351436024Y-100325031D01*
G37*
G36*
X362945544Y-99607706D02*
G01*
X363592591Y-102022521D01*
X361129480Y-102682510D01*
X360482433Y-100267695D01*
X362945544Y-99607706D01*
G37*
G36*
X350904605Y-93983490D02*
G01*
X351551652Y-96398305D01*
X349088541Y-97058294D01*
X348441494Y-94643479D01*
X350904605Y-93983490D01*
G37*
G36*
X362514463Y-88243036D02*
G01*
X363161510Y-90657851D01*
X360698399Y-91317840D01*
X360051352Y-88903025D01*
X362514463Y-88243036D01*
G37*
G36*
X369467840Y-93934356D02*
G01*
X370114887Y-96349171D01*
X367651776Y-97009160D01*
X367004729Y-94594345D01*
X369467840Y-93934356D01*
G37*
G36*
X380977360Y-93217031D02*
G01*
X381624407Y-95631846D01*
X379161296Y-96291835D01*
X378514249Y-93877020D01*
X380977360Y-93217031D01*
G37*
G36*
X368936421Y-87592815D02*
G01*
X369583468Y-90007630D01*
X367120357Y-90667619D01*
X366473310Y-88252804D01*
X368936421Y-87592815D01*
G37*
G36*
X380546279Y-81852361D02*
G01*
X381193326Y-84267176D01*
X378730215Y-84927165D01*
X378083168Y-82512350D01*
X380546279Y-81852361D01*
G37*
G36*
X32119790Y-108846219D02*
G01*
X31472743Y-111261034D01*
X29009632Y-110601045D01*
X29656679Y-108186230D01*
X32119790Y-108846219D01*
G37*
G36*
X42445990Y-113979757D02*
G01*
X41798943Y-116394572D01*
X39335832Y-115734583D01*
X39982879Y-113319768D01*
X42445990Y-113979757D01*
G37*
G36*
X34830338Y-103088573D02*
G01*
X34183291Y-105503388D01*
X31720180Y-104843399D01*
X32367227Y-102428584D01*
X34830338Y-103088573D01*
G37*
G36*
X47754997Y-103922123D02*
G01*
X47107950Y-106336938D01*
X44644839Y-105676949D01*
X45291886Y-103262134D01*
X47754997Y-103922123D01*
G37*
G36*
X50170370Y-115263966D02*
G01*
X49523323Y-117678781D01*
X47060212Y-117018792D01*
X47707259Y-114603977D01*
X50170370Y-115263966D01*
G37*
G36*
X60496570Y-120397504D02*
G01*
X59849523Y-122812319D01*
X57386412Y-122152330D01*
X58033459Y-119737515D01*
X60496570Y-120397504D01*
G37*
G36*
X52880918Y-109506320D02*
G01*
X52233871Y-111921135D01*
X49770760Y-111261146D01*
X50417807Y-108846331D01*
X52880918Y-109506320D01*
G37*
G36*
X65805577Y-110339870D02*
G01*
X65158530Y-112754685D01*
X62695419Y-112094696D01*
X63342466Y-109679881D01*
X65805577Y-110339870D01*
G37*
G36*
X68920085Y-118722221D02*
G01*
X68273038Y-121137036D01*
X65809927Y-120477047D01*
X66456974Y-118062232D01*
X68920085Y-118722221D01*
G37*
G36*
X79246285Y-123855759D02*
G01*
X78599238Y-126270574D01*
X76136127Y-125610585D01*
X76783174Y-123195770D01*
X79246285Y-123855759D01*
G37*
G36*
X71630633Y-112964575D02*
G01*
X70983586Y-115379390D01*
X68520475Y-114719401D01*
X69167522Y-112304586D01*
X71630633Y-112964575D01*
G37*
G36*
X84555292Y-113798125D02*
G01*
X83908245Y-116212940D01*
X81445134Y-115552951D01*
X82092181Y-113138136D01*
X84555292Y-113798125D01*
G37*
G36*
X88618385Y-119011868D02*
G01*
X87971338Y-121426683D01*
X85508227Y-120766694D01*
X86155274Y-118351879D01*
X88618385Y-119011868D01*
G37*
G36*
X98944585Y-124145406D02*
G01*
X98297538Y-126560221D01*
X95834427Y-125900232D01*
X96481474Y-123485417D01*
X98944585Y-124145406D01*
G37*
G36*
X91328933Y-113254222D02*
G01*
X90681886Y-115669037D01*
X88218775Y-115009048D01*
X88865822Y-112594233D01*
X91328933Y-113254222D01*
G37*
G36*
X104253592Y-114087772D02*
G01*
X103606545Y-116502587D01*
X101143434Y-115842598D01*
X101790481Y-113427783D01*
X104253592Y-114087772D01*
G37*
G36*
X107298805Y-122646306D02*
G01*
X106651758Y-125061121D01*
X104188647Y-124401132D01*
X104835694Y-121986317D01*
X107298805Y-122646306D01*
G37*
G36*
X117625005Y-127779844D02*
G01*
X116977958Y-130194659D01*
X114514847Y-129534670D01*
X115161894Y-127119855D01*
X117625005Y-127779844D01*
G37*
G36*
X110009353Y-116888660D02*
G01*
X109362306Y-119303475D01*
X106899195Y-118643486D01*
X107546242Y-116228671D01*
X110009353Y-116888660D01*
G37*
G36*
X122934012Y-117722210D02*
G01*
X122286965Y-120137025D01*
X119823854Y-119477036D01*
X120470901Y-117062221D01*
X122934012Y-117722210D01*
G37*
G36*
X125449443Y-128877003D02*
G01*
X124802396Y-131291818D01*
X122339285Y-130631829D01*
X122986332Y-128217014D01*
X125449443Y-128877003D01*
G37*
G36*
X135775643Y-134010541D02*
G01*
X135128596Y-136425356D01*
X132665485Y-135765367D01*
X133312532Y-133350552D01*
X135775643Y-134010541D01*
G37*
G36*
X128159991Y-123119357D02*
G01*
X127512944Y-125534172D01*
X125049833Y-124874183D01*
X125696880Y-122459368D01*
X128159991Y-123119357D01*
G37*
G36*
X141084650Y-123952907D02*
G01*
X140437603Y-126367722D01*
X137974492Y-125707733D01*
X138621539Y-123292918D01*
X141084650Y-123952907D01*
G37*
G36*
X143163784Y-136107442D02*
G01*
X142516737Y-138522257D01*
X140053626Y-137862268D01*
X140700673Y-135447453D01*
X143163784Y-136107442D01*
G37*
G36*
X153489984Y-141240980D02*
G01*
X152842937Y-143655795D01*
X150379826Y-142995806D01*
X151026873Y-140580991D01*
X153489984Y-141240980D01*
G37*
G36*
X145874332Y-130349796D02*
G01*
X145227285Y-132764611D01*
X142764174Y-132104622D01*
X143411221Y-129689807D01*
X145874332Y-130349796D01*
G37*
G36*
X158798991Y-131183346D02*
G01*
X158151944Y-133598161D01*
X155688833Y-132938172D01*
X156335880Y-130523357D01*
X158798991Y-131183346D01*
G37*
D11*
X173351982Y-143380890D03*
X184654982Y-145666890D03*
X174479982Y-137117890D03*
X187179982Y-134577890D03*
X192353210Y-143372145D03*
X203656210Y-145658145D03*
X193481210Y-137109145D03*
X206181210Y-134569145D03*
X211329600Y-143360803D03*
X222632600Y-145646803D03*
X212457600Y-137097803D03*
X225157600Y-134557803D03*
X230326704Y-143367832D03*
X241629704Y-145653832D03*
X231454704Y-137104832D03*
X244154704Y-134564832D03*
D10*
G36*
X263390429Y-139741210D02*
G01*
X264037476Y-142156025D01*
X261574365Y-142816014D01*
X260927318Y-140401199D01*
X263390429Y-139741210D01*
G37*
G36*
X274899949Y-139023885D02*
G01*
X275546996Y-141438700D01*
X273083885Y-142098689D01*
X272436838Y-139683874D01*
X274899949Y-139023885D01*
G37*
G36*
X262859010Y-133399669D02*
G01*
X263506057Y-135814484D01*
X261042946Y-136474473D01*
X260395899Y-134059658D01*
X262859010Y-133399669D01*
G37*
G36*
X274468868Y-127659215D02*
G01*
X275115915Y-130074030D01*
X272652804Y-130734019D01*
X272005757Y-128319204D01*
X274468868Y-127659215D01*
G37*
G36*
X281144673Y-132527636D02*
G01*
X281791720Y-134942451D01*
X279328609Y-135602440D01*
X278681562Y-133187625D01*
X281144673Y-132527636D01*
G37*
G36*
X292654193Y-131810311D02*
G01*
X293301240Y-134225126D01*
X290838129Y-134885115D01*
X290191082Y-132470300D01*
X292654193Y-131810311D01*
G37*
G36*
X280613254Y-126186095D02*
G01*
X281260301Y-128600910D01*
X278797190Y-129260899D01*
X278150143Y-126846084D01*
X280613254Y-126186095D01*
G37*
G36*
X292223112Y-120445641D02*
G01*
X292870159Y-122860456D01*
X290407048Y-123520445D01*
X289760001Y-121105630D01*
X292223112Y-120445641D01*
G37*
G36*
X299265094Y-126337894D02*
G01*
X299912141Y-128752709D01*
X297449030Y-129412698D01*
X296801983Y-126997883D01*
X299265094Y-126337894D01*
G37*
G36*
X310774614Y-125620569D02*
G01*
X311421661Y-128035384D01*
X308958550Y-128695373D01*
X308311503Y-126280558D01*
X310774614Y-125620569D01*
G37*
G36*
X298733675Y-119996353D02*
G01*
X299380722Y-122411168D01*
X296917611Y-123071157D01*
X296270564Y-120656342D01*
X298733675Y-119996353D01*
G37*
G36*
X310343533Y-114255899D02*
G01*
X310990580Y-116670714D01*
X308527469Y-117330703D01*
X307880422Y-114915888D01*
X310343533Y-114255899D01*
G37*
G36*
X317931806Y-122648798D02*
G01*
X318578853Y-125063613D01*
X316115742Y-125723602D01*
X315468695Y-123308787D01*
X317931806Y-122648798D01*
G37*
G36*
X329441326Y-121931473D02*
G01*
X330088373Y-124346288D01*
X327625262Y-125006277D01*
X326978215Y-122591462D01*
X329441326Y-121931473D01*
G37*
G36*
X317400387Y-116307257D02*
G01*
X318047434Y-118722072D01*
X315584323Y-119382061D01*
X314937276Y-116967246D01*
X317400387Y-116307257D01*
G37*
G36*
X329010245Y-110566803D02*
G01*
X329657292Y-112981618D01*
X327194181Y-113641607D01*
X326547134Y-111226792D01*
X329010245Y-110566803D01*
G37*
G36*
X337639226Y-122342256D02*
G01*
X338286273Y-124757071D01*
X335823162Y-125417060D01*
X335176115Y-123002245D01*
X337639226Y-122342256D01*
G37*
G36*
X349148746Y-121624931D02*
G01*
X349795793Y-124039746D01*
X347332682Y-124699735D01*
X346685635Y-122284920D01*
X349148746Y-121624931D01*
G37*
G36*
X337107807Y-116000715D02*
G01*
X337754854Y-118415530D01*
X335291743Y-119075519D01*
X334644696Y-116660704D01*
X337107807Y-116000715D01*
G37*
G36*
X348717665Y-110260261D02*
G01*
X349364712Y-112675076D01*
X346901601Y-113335065D01*
X346254554Y-110920250D01*
X348717665Y-110260261D01*
G37*
G36*
X374427584Y-112504226D02*
G01*
X375074631Y-114919041D01*
X372611520Y-115579030D01*
X371964473Y-113164215D01*
X374427584Y-112504226D01*
G37*
G36*
X385937104Y-111786901D02*
G01*
X386584151Y-114201716D01*
X384121040Y-114861705D01*
X383473993Y-112446890D01*
X385937104Y-111786901D01*
G37*
G36*
X373896165Y-106162685D02*
G01*
X374543212Y-108577500D01*
X372080101Y-109237489D01*
X371433054Y-106822674D01*
X373896165Y-106162685D01*
G37*
G36*
X385506023Y-100422231D02*
G01*
X386153070Y-102837046D01*
X383689959Y-103497035D01*
X383042912Y-101082220D01*
X385506023Y-100422231D01*
G37*
G36*
X27181762Y-127235273D02*
G01*
X26534715Y-129650088D01*
X24071604Y-128990099D01*
X24718651Y-126575284D01*
X27181762Y-127235273D01*
G37*
G36*
X37507962Y-132368811D02*
G01*
X36860915Y-134783626D01*
X34397804Y-134123637D01*
X35044851Y-131708822D01*
X37507962Y-132368811D01*
G37*
G36*
X29892310Y-121477627D02*
G01*
X29245263Y-123892442D01*
X26782152Y-123232453D01*
X27429199Y-120817638D01*
X29892310Y-121477627D01*
G37*
G36*
X42816969Y-122311177D02*
G01*
X42169922Y-124725992D01*
X39706811Y-124066003D01*
X40353858Y-121651188D01*
X42816969Y-122311177D01*
G37*
G36*
X45235964Y-133598648D02*
G01*
X44588917Y-136013463D01*
X42125806Y-135353474D01*
X42772853Y-132938659D01*
X45235964Y-133598648D01*
G37*
G36*
X55562164Y-138732186D02*
G01*
X54915117Y-141147001D01*
X52452006Y-140487012D01*
X53099053Y-138072197D01*
X55562164Y-138732186D01*
G37*
G36*
X47946512Y-127841002D02*
G01*
X47299465Y-130255817D01*
X44836354Y-129595828D01*
X45483401Y-127181013D01*
X47946512Y-127841002D01*
G37*
G36*
X60871171Y-128674552D02*
G01*
X60224124Y-131089367D01*
X57761013Y-130429378D01*
X58408060Y-128014563D01*
X60871171Y-128674552D01*
G37*
G36*
X64005238Y-137064950D02*
G01*
X63358191Y-139479765D01*
X60895080Y-138819776D01*
X61542127Y-136404961D01*
X64005238Y-137064950D01*
G37*
G36*
X74331438Y-142198488D02*
G01*
X73684391Y-144613303D01*
X71221280Y-143953314D01*
X71868327Y-141538499D01*
X74331438Y-142198488D01*
G37*
G36*
X66715786Y-131307304D02*
G01*
X66068739Y-133722119D01*
X63605628Y-133062130D01*
X64252675Y-130647315D01*
X66715786Y-131307304D01*
G37*
G36*
X79640445Y-132140854D02*
G01*
X78993398Y-134555669D01*
X76530287Y-133895680D01*
X77177334Y-131480865D01*
X79640445Y-132140854D01*
G37*
G36*
X83642973Y-137477986D02*
G01*
X82995926Y-139892801D01*
X80532815Y-139232812D01*
X81179862Y-136817997D01*
X83642973Y-137477986D01*
G37*
G36*
X93969173Y-142611524D02*
G01*
X93322126Y-145026339D01*
X90859015Y-144366350D01*
X91506062Y-141951535D01*
X93969173Y-142611524D01*
G37*
G36*
X86353521Y-131720340D02*
G01*
X85706474Y-134135155D01*
X83243363Y-133475166D01*
X83890410Y-131060351D01*
X86353521Y-131720340D01*
G37*
G36*
X99278180Y-132553890D02*
G01*
X98631133Y-134968705D01*
X96168022Y-134308716D01*
X96815069Y-131893901D01*
X99278180Y-132553890D01*
G37*
G36*
X102393507Y-141055666D02*
G01*
X101746460Y-143470481D01*
X99283349Y-142810492D01*
X99930396Y-140395677D01*
X102393507Y-141055666D01*
G37*
G36*
X112719707Y-146189204D02*
G01*
X112072660Y-148604019D01*
X109609549Y-147944030D01*
X110256596Y-145529215D01*
X112719707Y-146189204D01*
G37*
G36*
X105104055Y-135298020D02*
G01*
X104457008Y-137712835D01*
X101993897Y-137052846D01*
X102640944Y-134638031D01*
X105104055Y-135298020D01*
G37*
G36*
X118028714Y-136131570D02*
G01*
X117381667Y-138546385D01*
X114918556Y-137886396D01*
X115565603Y-135471581D01*
X118028714Y-136131570D01*
G37*
G36*
X120494578Y-147342903D02*
G01*
X119847531Y-149757718D01*
X117384420Y-149097729D01*
X118031467Y-146682914D01*
X120494578Y-147342903D01*
G37*
G36*
X130820778Y-152476441D02*
G01*
X130173731Y-154891256D01*
X127710620Y-154231267D01*
X128357667Y-151816452D01*
X130820778Y-152476441D01*
G37*
G36*
X123205126Y-141585257D02*
G01*
X122558079Y-144000072D01*
X120094968Y-143340083D01*
X120742015Y-140925268D01*
X123205126Y-141585257D01*
G37*
G36*
X136129785Y-142418807D02*
G01*
X135482738Y-144833622D01*
X133019627Y-144173633D01*
X133666674Y-141758818D01*
X136129785Y-142418807D01*
G37*
G36*
X138236659Y-154474762D02*
G01*
X137589612Y-156889577D01*
X135126501Y-156229588D01*
X135773548Y-153814773D01*
X138236659Y-154474762D01*
G37*
G36*
X148562859Y-159608300D02*
G01*
X147915812Y-162023115D01*
X145452701Y-161363126D01*
X146099748Y-158948311D01*
X148562859Y-159608300D01*
G37*
G36*
X140947207Y-148717116D02*
G01*
X140300160Y-151131931D01*
X137837049Y-150471942D01*
X138484096Y-148057127D01*
X140947207Y-148717116D01*
G37*
G36*
X153871866Y-149550666D02*
G01*
X153224819Y-151965481D01*
X150761708Y-151305492D01*
X151408755Y-148890677D01*
X153871866Y-149550666D01*
G37*
D11*
X173362210Y-162402962D03*
X184665210Y-164688962D03*
X174490210Y-156139962D03*
X187190210Y-153599962D03*
X192353345Y-162403277D03*
X203656345Y-164689277D03*
X193481345Y-156140277D03*
X206181345Y-153600277D03*
X211346685Y-162386844D03*
X222649685Y-164672844D03*
X212474685Y-156123844D03*
X225174685Y-153583844D03*
X230338643Y-162384118D03*
X241641643Y-164670118D03*
X231466643Y-156121118D03*
X244166643Y-153581118D03*
D10*
G36*
X268326662Y-158097072D02*
G01*
X268973709Y-160511887D01*
X266510598Y-161171876D01*
X265863551Y-158757061D01*
X268326662Y-158097072D01*
G37*
G36*
X279836182Y-157379747D02*
G01*
X280483229Y-159794562D01*
X278020118Y-160454551D01*
X277373071Y-158039736D01*
X279836182Y-157379747D01*
G37*
G36*
X267795243Y-151755531D02*
G01*
X268442290Y-154170346D01*
X265979179Y-154830335D01*
X265332132Y-152415520D01*
X267795243Y-151755531D01*
G37*
G36*
X279405101Y-146015077D02*
G01*
X280052148Y-148429892D01*
X277589037Y-149089881D01*
X276941990Y-146675066D01*
X279405101Y-146015077D01*
G37*
G36*
X286072191Y-150941548D02*
G01*
X286719238Y-153356363D01*
X284256127Y-154016352D01*
X283609080Y-151601537D01*
X286072191Y-150941548D01*
G37*
G36*
X297581711Y-150224223D02*
G01*
X298228758Y-152639038D01*
X295765647Y-153299027D01*
X295118600Y-150884212D01*
X297581711Y-150224223D01*
G37*
G36*
X285540772Y-144600007D02*
G01*
X286187819Y-147014822D01*
X283724708Y-147674811D01*
X283077661Y-145259996D01*
X285540772Y-144600007D01*
G37*
G36*
X297150630Y-138859553D02*
G01*
X297797677Y-141274368D01*
X295334566Y-141934357D01*
X294687519Y-139519542D01*
X297150630Y-138859553D01*
G37*
G36*
X304194415Y-144671123D02*
G01*
X304841462Y-147085938D01*
X302378351Y-147745927D01*
X301731304Y-145331112D01*
X304194415Y-144671123D01*
G37*
G36*
X315703935Y-143953798D02*
G01*
X316350982Y-146368613D01*
X313887871Y-147028602D01*
X313240824Y-144613787D01*
X315703935Y-143953798D01*
G37*
G36*
X303662996Y-138329582D02*
G01*
X304310043Y-140744397D01*
X301846932Y-141404386D01*
X301199885Y-138989571D01*
X303662996Y-138329582D01*
G37*
G36*
X315272854Y-132589128D02*
G01*
X315919901Y-135003943D01*
X313456790Y-135663932D01*
X312809743Y-133249117D01*
X315272854Y-132589128D01*
G37*
G36*
X322892412Y-141085735D02*
G01*
X323539459Y-143500550D01*
X321076348Y-144160539D01*
X320429301Y-141745724D01*
X322892412Y-141085735D01*
G37*
G36*
X334401932Y-140368410D02*
G01*
X335048979Y-142783225D01*
X332585868Y-143443214D01*
X331938821Y-141028399D01*
X334401932Y-140368410D01*
G37*
G36*
X322360993Y-134744194D02*
G01*
X323008040Y-137159009D01*
X320544929Y-137818998D01*
X319897882Y-135404183D01*
X322360993Y-134744194D01*
G37*
G36*
X333970851Y-129003740D02*
G01*
X334617898Y-131418555D01*
X332154787Y-132078544D01*
X331507740Y-129663729D01*
X333970851Y-129003740D01*
G37*
G36*
X342564385Y-140701835D02*
G01*
X343211432Y-143116650D01*
X340748321Y-143776639D01*
X340101274Y-141361824D01*
X342564385Y-140701835D01*
G37*
G36*
X354073905Y-139984510D02*
G01*
X354720952Y-142399325D01*
X352257841Y-143059314D01*
X351610794Y-140644499D01*
X354073905Y-139984510D01*
G37*
G36*
X342032966Y-134360294D02*
G01*
X342680013Y-136775109D01*
X340216902Y-137435098D01*
X339569855Y-135020283D01*
X342032966Y-134360294D01*
G37*
G36*
X353642824Y-128619840D02*
G01*
X354289871Y-131034655D01*
X351826760Y-131694644D01*
X351179713Y-129279829D01*
X353642824Y-128619840D01*
G37*
G36*
X361339392Y-137196279D02*
G01*
X361986439Y-139611094D01*
X359523328Y-140271083D01*
X358876281Y-137856268D01*
X361339392Y-137196279D01*
G37*
G36*
X372848912Y-136478954D02*
G01*
X373495959Y-138893769D01*
X371032848Y-139553758D01*
X370385801Y-137138943D01*
X372848912Y-136478954D01*
G37*
G36*
X360807973Y-130854738D02*
G01*
X361455020Y-133269553D01*
X358991909Y-133929542D01*
X358344862Y-131514727D01*
X360807973Y-130854738D01*
G37*
G36*
X372417831Y-125114284D02*
G01*
X373064878Y-127529099D01*
X370601767Y-128189088D01*
X369954720Y-125774273D01*
X372417831Y-125114284D01*
G37*
G36*
X379354939Y-130815727D02*
G01*
X380001986Y-133230542D01*
X377538875Y-133890531D01*
X376891828Y-131475716D01*
X379354939Y-130815727D01*
G37*
G36*
X390864459Y-130098402D02*
G01*
X391511506Y-132513217D01*
X389048395Y-133173206D01*
X388401348Y-130758391D01*
X390864459Y-130098402D01*
G37*
G36*
X378823520Y-124474186D02*
G01*
X379470567Y-126889001D01*
X377007456Y-127548990D01*
X376360409Y-125134175D01*
X378823520Y-124474186D01*
G37*
G36*
X390433378Y-118733732D02*
G01*
X391080425Y-121148547D01*
X388617314Y-121808536D01*
X387970267Y-119393721D01*
X390433378Y-118733732D01*
G37*
G36*
X22273720Y-145652196D02*
G01*
X21626673Y-148067011D01*
X19163562Y-147407022D01*
X19810609Y-144992207D01*
X22273720Y-145652196D01*
G37*
G36*
X32599920Y-150785734D02*
G01*
X31952873Y-153200549D01*
X29489762Y-152540560D01*
X30136809Y-150125745D01*
X32599920Y-150785734D01*
G37*
G36*
X24984268Y-139894550D02*
G01*
X24337221Y-142309365D01*
X21874110Y-141649376D01*
X22521157Y-139234561D01*
X24984268Y-139894550D01*
G37*
G36*
X37908927Y-140728100D02*
G01*
X37261880Y-143142915D01*
X34798769Y-142482926D01*
X35445816Y-140068111D01*
X37908927Y-140728100D01*
G37*
G36*
X59071140Y-155492382D02*
G01*
X58424093Y-157907197D01*
X55960982Y-157247208D01*
X56608029Y-154832393D01*
X59071140Y-155492382D01*
G37*
G36*
X69397340Y-160625920D02*
G01*
X68750293Y-163040735D01*
X66287182Y-162380746D01*
X66934229Y-159965931D01*
X69397340Y-160625920D01*
G37*
G36*
X61781688Y-149734736D02*
G01*
X61134641Y-152149551D01*
X58671530Y-151489562D01*
X59318577Y-149074747D01*
X61781688Y-149734736D01*
G37*
G36*
X74706347Y-150568286D02*
G01*
X74059300Y-152983101D01*
X71596189Y-152323112D01*
X72243236Y-149908297D01*
X74706347Y-150568286D01*
G37*
G36*
X78731353Y-155866169D02*
G01*
X78084306Y-158280984D01*
X75621195Y-157620995D01*
X76268242Y-155206180D01*
X78731353Y-155866169D01*
G37*
G36*
X89057553Y-160999707D02*
G01*
X88410506Y-163414522D01*
X85947395Y-162754533D01*
X86594442Y-160339718D01*
X89057553Y-160999707D01*
G37*
G36*
X81441901Y-150108523D02*
G01*
X80794854Y-152523338D01*
X78331743Y-151863349D01*
X78978790Y-149448534D01*
X81441901Y-150108523D01*
G37*
G36*
X94366560Y-150942073D02*
G01*
X93719513Y-153356888D01*
X91256402Y-152696899D01*
X91903449Y-150282084D01*
X94366560Y-150942073D01*
G37*
G36*
X97462211Y-159449166D02*
G01*
X96815164Y-161863981D01*
X94352053Y-161203992D01*
X94999100Y-158789177D01*
X97462211Y-159449166D01*
G37*
G36*
X107788411Y-164582704D02*
G01*
X107141364Y-166997519D01*
X104678253Y-166337530D01*
X105325300Y-163922715D01*
X107788411Y-164582704D01*
G37*
G36*
X100172759Y-153691520D02*
G01*
X99525712Y-156106335D01*
X97062601Y-155446346D01*
X97709648Y-153031531D01*
X100172759Y-153691520D01*
G37*
G36*
X113097418Y-154525070D02*
G01*
X112450371Y-156939885D01*
X109987260Y-156279896D01*
X110634307Y-153865081D01*
X113097418Y-154525070D01*
G37*
G36*
X115555141Y-165712394D02*
G01*
X114908094Y-168127209D01*
X112444983Y-167467220D01*
X113092030Y-165052405D01*
X115555141Y-165712394D01*
G37*
G36*
X125881341Y-170845932D02*
G01*
X125234294Y-173260747D01*
X122771183Y-172600758D01*
X123418230Y-170185943D01*
X125881341Y-170845932D01*
G37*
G36*
X118265689Y-159954748D02*
G01*
X117618642Y-162369563D01*
X115155531Y-161709574D01*
X115802578Y-159294759D01*
X118265689Y-159954748D01*
G37*
G36*
X131190348Y-160788298D02*
G01*
X130543301Y-163203113D01*
X128080190Y-162543124D01*
X128727237Y-160128309D01*
X131190348Y-160788298D01*
G37*
D11*
X173376206Y-181405335D03*
X184679206Y-183691335D03*
X174504206Y-175142335D03*
X187204206Y-172602335D03*
X192365711Y-181395896D03*
X203668711Y-183681896D03*
X193493711Y-175132896D03*
X206193711Y-172592896D03*
X211371599Y-181376491D03*
X222674599Y-183662491D03*
X212499599Y-175113491D03*
X225199599Y-172573491D03*
X230334754Y-181365742D03*
X241637754Y-183651742D03*
X231462754Y-175102742D03*
X244162754Y-172562742D03*
D10*
G36*
X290991237Y-169338356D02*
G01*
X291638284Y-171753171D01*
X289175173Y-172413160D01*
X288528126Y-169998345D01*
X290991237Y-169338356D01*
G37*
G36*
X302500757Y-168621031D02*
G01*
X303147804Y-171035846D01*
X300684693Y-171695835D01*
X300037646Y-169281020D01*
X302500757Y-168621031D01*
G37*
G36*
X290459818Y-162996815D02*
G01*
X291106865Y-165411630D01*
X288643754Y-166071619D01*
X287996707Y-163656804D01*
X290459818Y-162996815D01*
G37*
G36*
X302069676Y-157256361D02*
G01*
X302716723Y-159671176D01*
X300253612Y-160331165D01*
X299606565Y-157916350D01*
X302069676Y-157256361D01*
G37*
G36*
X309108682Y-163046245D02*
G01*
X309755729Y-165461060D01*
X307292618Y-166121049D01*
X306645571Y-163706234D01*
X309108682Y-163046245D01*
G37*
G36*
X320618202Y-162328920D02*
G01*
X321265249Y-164743735D01*
X318802138Y-165403724D01*
X318155091Y-162988909D01*
X320618202Y-162328920D01*
G37*
G36*
X308577263Y-156704704D02*
G01*
X309224310Y-159119519D01*
X306761199Y-159779508D01*
X306114152Y-157364693D01*
X308577263Y-156704704D01*
G37*
G36*
X320187121Y-150964250D02*
G01*
X320834168Y-153379065D01*
X318371057Y-154039054D01*
X317724010Y-151624239D01*
X320187121Y-150964250D01*
G37*
G36*
X327829188Y-159493012D02*
G01*
X328476235Y-161907827D01*
X326013124Y-162567816D01*
X325366077Y-160153001D01*
X327829188Y-159493012D01*
G37*
G36*
X339338708Y-158775687D02*
G01*
X339985755Y-161190502D01*
X337522644Y-161850491D01*
X336875597Y-159435676D01*
X339338708Y-158775687D01*
G37*
G36*
X327297769Y-153151471D02*
G01*
X327944816Y-155566286D01*
X325481705Y-156226275D01*
X324834658Y-153811460D01*
X327297769Y-153151471D01*
G37*
G36*
X338907627Y-147411017D02*
G01*
X339554674Y-149825832D01*
X337091563Y-150485821D01*
X336444516Y-148071006D01*
X338907627Y-147411017D01*
G37*
G36*
X347510388Y-159096754D02*
G01*
X348157435Y-161511569D01*
X345694324Y-162171558D01*
X345047277Y-159756743D01*
X347510388Y-159096754D01*
G37*
G36*
X359019908Y-158379429D02*
G01*
X359666955Y-160794244D01*
X357203844Y-161454233D01*
X356556797Y-159039418D01*
X359019908Y-158379429D01*
G37*
G36*
X346978969Y-152755213D02*
G01*
X347626016Y-155170028D01*
X345162905Y-155830017D01*
X344515858Y-153415202D01*
X346978969Y-152755213D01*
G37*
G36*
X358588827Y-147014759D02*
G01*
X359235874Y-149429574D01*
X356772763Y-150089563D01*
X356125716Y-147674748D01*
X358588827Y-147014759D01*
G37*
G36*
X366272408Y-155626386D02*
G01*
X366919455Y-158041201D01*
X364456344Y-158701190D01*
X363809297Y-156286375D01*
X366272408Y-155626386D01*
G37*
G36*
X377781928Y-154909061D02*
G01*
X378428975Y-157323876D01*
X375965864Y-157983865D01*
X375318817Y-155569050D01*
X377781928Y-154909061D01*
G37*
G36*
X365740989Y-149284845D02*
G01*
X366388036Y-151699660D01*
X363924925Y-152359649D01*
X363277878Y-149944834D01*
X365740989Y-149284845D01*
G37*
G36*
X377350847Y-143544391D02*
G01*
X377997894Y-145959206D01*
X375534783Y-146619195D01*
X374887736Y-144204380D01*
X377350847Y-143544391D01*
G37*
G36*
X384290523Y-149230089D02*
G01*
X384937570Y-151644904D01*
X382474459Y-152304893D01*
X381827412Y-149890078D01*
X384290523Y-149230089D01*
G37*
G36*
X395800043Y-148512764D02*
G01*
X396447090Y-150927579D01*
X393983979Y-151587568D01*
X393336932Y-149172753D01*
X395800043Y-148512764D01*
G37*
G36*
X383759104Y-142888548D02*
G01*
X384406151Y-145303363D01*
X381943040Y-145963352D01*
X381295993Y-143548537D01*
X383759104Y-142888548D01*
G37*
G36*
X395368962Y-137148094D02*
G01*
X396016009Y-139562909D01*
X393552898Y-140222898D01*
X392905851Y-137808083D01*
X395368962Y-137148094D01*
G37*
M02*
