M48
; DRILL file {KiCad (5.1.10)-1} date 09/21/21 17:17:31
; FORMAT={-:-/ absolute / metric / decimal}
; #@! TF.CreationDate,2021-09-21T17:17:31+01:00
; #@! TF.GenerationSoftware,Kicad,Pcbnew,(5.1.10)-1
; #@! TF.FileFunction,NonPlated,1,2,NPTH
FMAT,2
METRIC
T1C0.650
T2C1.800
T3C3.000
T4C3.048
T5C3.988
T6C4.000
%
G90
G05
T1
X207.052Y-81.34
X212.832Y-81.34
T2
X24.616Y-143.761
X29.524Y-125.344
X34.43Y-146.391
X34.462Y-106.955
X39.338Y-127.974
X39.394Y-88.408
X42.621Y-150.07
X44.262Y-70.179
X44.276Y-109.585
X47.578Y-131.707
X49.207Y-91.037
X52.434Y-152.699
X52.513Y-113.373
X54.076Y-72.808
X57.392Y-134.337
X57.523Y-94.8
X61.413Y-153.601
X62.326Y-116.002
X62.42Y-76.534
X66.348Y-135.174
X67.337Y-97.43
X71.227Y-156.231
X71.262Y-116.831
X72.234Y-79.164
X76.161Y-137.803
X76.224Y-98.27
X81.074Y-153.975
X81.076Y-119.461
X81.117Y-80.043
X85.985Y-135.587
X86.038Y-100.9
X90.887Y-156.605
X90.93Y-82.673
X90.961Y-117.121
X95.799Y-138.216
X95.914Y-98.682
X99.805Y-157.558
X100.774Y-119.75
X100.828Y-80.313
X104.736Y-139.164
X105.728Y-101.311
X109.618Y-160.188
X109.641Y-120.755
X110.642Y-82.942
X114.55Y-141.794
X114.619Y-102.336
X117.897Y-163.821
X119.455Y-123.385
X119.6Y-83.918
X122.837Y-145.452
X124.432Y-104.965
X127.711Y-166.451
X127.792Y-126.986
X129.414Y-86.548
X132.651Y-148.081
X132.695Y-108.568
X137.606Y-129.615
X137.625Y-90.172
X140.579Y-152.584
X142.509Y-111.198
X145.506Y-134.216
X146.093Y-175.867
X147.439Y-92.801
X150.388Y-115.866
X150.393Y-155.213
X155.32Y-136.846
X155.365Y-97.421
X156.167Y-177.193
X160.202Y-118.496
X165.179Y-100.05
X176.4Y-139.698
X176.4Y-101.669
X176.402Y-120.687
X176.41Y-158.72
X176.424Y-177.722
X186.56Y-139.698
X186.56Y-101.669
X186.562Y-120.687
X186.57Y-158.72
X186.584Y-177.722
X195.384Y-101.67
X195.389Y-120.688
X195.401Y-139.689
X195.401Y-158.72
X195.414Y-177.713
X205.544Y-101.67
X205.549Y-120.688
X205.561Y-139.689
X205.561Y-158.72
X205.574Y-177.713
X214.378Y-139.678
X214.379Y-120.688
X214.388Y-101.67
X214.395Y-158.704
X214.42Y-177.693
X224.538Y-139.678
X224.539Y-120.688
X224.548Y-101.67
X224.555Y-158.704
X224.58Y-177.693
X233.36Y-120.688
X233.375Y-139.685
X233.377Y-101.67
X233.383Y-177.683
X233.387Y-158.701
X243.52Y-120.688
X243.535Y-139.685
X243.537Y-101.67
X243.543Y-177.683
X243.547Y-158.701
X254.636Y-100.093
X259.545Y-118.564
X263.568Y-177.193
X264.45Y-97.464
X264.473Y-136.932
X269.359Y-115.935
X269.41Y-155.288
X272.356Y-92.866
X273.642Y-175.867
X274.287Y-134.303
X277.298Y-111.349
X279.223Y-152.658
X282.17Y-90.236
X282.228Y-129.719
X287.111Y-108.719
X287.155Y-148.133
X290.392Y-86.613
X292.041Y-127.089
X292.074Y-166.529
X295.405Y-105.051
X296.969Y-145.503
X300.206Y-83.984
X300.348Y-123.529
X301.888Y-163.9
X305.219Y-102.421
X305.277Y-141.862
X309.177Y-83.031
X310.162Y-120.899
X310.192Y-160.237
X314.098Y-101.376
X315.091Y-139.233
X318.991Y-80.401
X319.015Y-119.84
X320.005Y-157.608
X323.912Y-98.746
X323.975Y-138.277
X328.828Y-117.21
X328.876Y-82.699
X328.912Y-156.684
X333.771Y-100.98
X333.789Y-135.647
X338.69Y-80.069
X338.722Y-119.533
X338.726Y-154.054
X343.584Y-98.351
X343.647Y-137.893
X347.611Y-79.247
X348.536Y-116.904
X348.593Y-156.288
X352.519Y-97.516
X353.461Y-135.263
X357.425Y-76.617
X357.475Y-116.04
X358.407Y-153.658
X362.333Y-94.886
X362.422Y-134.387
X365.673Y-72.855
X367.289Y-113.41
X367.355Y-152.817
X370.551Y-91.125
X372.236Y-131.758
X375.486Y-70.225
X375.51Y-109.695
X377.169Y-150.188
X380.365Y-88.496
X380.438Y-128.007
X385.324Y-107.066
X385.373Y-146.421
X390.252Y-125.377
X395.187Y-143.792
T3
X26.5Y-141.636
X31.408Y-123.219
X33.291Y-140.826
X36.346Y-104.83
X38.199Y-122.409
X41.278Y-86.283
X43.137Y-104.02
X44.505Y-147.945
X46.146Y-68.054
X48.069Y-85.473
X49.462Y-129.583
X51.296Y-147.135
X52.937Y-67.244
X54.397Y-111.248
X56.253Y-128.773
X59.407Y-92.676
X61.188Y-110.438
X63.298Y-151.476
X64.304Y-74.409
X66.199Y-91.866
X68.232Y-133.049
X70.089Y-150.666
X71.095Y-73.6
X73.147Y-114.706
X75.023Y-132.239
X78.108Y-96.146
X79.938Y-113.896
X82.958Y-151.85
X83.001Y-77.919
X84.899Y-95.336
X87.869Y-133.462
X89.749Y-151.04
X89.792Y-77.109
X92.845Y-114.996
X94.66Y-132.652
X97.799Y-96.557
X99.636Y-114.186
X101.689Y-155.433
X102.712Y-78.188
X104.59Y-95.747
X106.62Y-137.04
X108.48Y-154.623
X109.503Y-77.378
X111.525Y-118.63
X113.411Y-136.23
X116.503Y-100.211
X118.316Y-117.82
X119.782Y-161.696
X121.484Y-81.794
X123.294Y-99.401
X124.721Y-143.327
X126.573Y-160.886
X128.276Y-80.984
X129.676Y-124.861
X131.512Y-142.517
X134.579Y-106.443
X136.467Y-124.051
X139.509Y-88.047
X141.37Y-105.633
X142.463Y-150.459
X146.3Y-87.237
X147.39Y-132.091
X147.684Y-173.514
X149.254Y-149.649
X152.272Y-113.741
X154.181Y-131.282
X154.311Y-171.825
X157.249Y-95.296
X159.063Y-112.931
X164.04Y-94.486
X177.67Y-137.158
X177.67Y-99.129
X177.672Y-118.147
X177.68Y-156.18
X177.694Y-175.182
X184.02Y-134.618
X184.02Y-96.589
X184.022Y-115.607
X184.03Y-153.64
X184.044Y-172.642
X196.654Y-99.13
X196.659Y-118.148
X196.671Y-137.149
X196.671Y-156.18
X196.684Y-175.173
X203.004Y-96.59
X203.009Y-115.608
X203.021Y-134.609
X203.021Y-153.64
X203.034Y-172.633
X215.648Y-137.138
X215.649Y-118.148
X215.658Y-99.13
X215.665Y-156.164
X215.69Y-175.153
X221.998Y-134.598
X221.999Y-115.608
X222.008Y-96.59
X222.015Y-153.624
X222.04Y-172.613
X234.63Y-118.148
X234.645Y-137.145
X234.647Y-99.13
X234.653Y-175.143
X234.657Y-156.161
X240.98Y-115.608
X240.995Y-134.605
X240.997Y-96.59
X241.003Y-172.603
X241.007Y-153.621
X255.205Y-97.311
X260.115Y-115.782
X260.682Y-93.214
X264.496Y-174.509
X265.043Y-134.15
X265.591Y-111.685
X269.979Y-152.506
X270.46Y-171.162
X270.519Y-130.053
X272.925Y-90.084
X275.455Y-148.409
X277.867Y-108.567
X278.402Y-85.987
X282.797Y-126.937
X283.343Y-104.47
X287.724Y-145.35
X288.273Y-122.84
X290.961Y-83.831
X292.643Y-163.747
X293.201Y-141.253
X295.974Y-102.269
X296.438Y-79.734
X298.12Y-159.65
X300.917Y-120.747
X301.451Y-98.172
X305.847Y-139.08
X306.394Y-116.65
X309.746Y-80.249
X310.761Y-157.455
X311.323Y-134.983
X314.667Y-98.593
X315.223Y-76.152
X316.237Y-153.358
X319.584Y-117.058
X320.143Y-94.496
X324.545Y-135.495
X325.06Y-112.961
X329.445Y-79.917
X329.481Y-153.902
X330.021Y-131.398
X334.34Y-98.198
X334.921Y-75.82
X334.958Y-149.805
X339.291Y-116.751
X339.816Y-94.101
X344.217Y-135.111
X344.768Y-112.654
X348.18Y-76.465
X349.163Y-153.506
X349.693Y-131.014
X353.088Y-94.734
X353.656Y-72.368
X354.639Y-149.409
X358.045Y-113.258
X358.564Y-90.637
X362.992Y-131.605
X363.521Y-109.161
X366.242Y-70.072
X367.925Y-150.035
X368.468Y-127.508
X371.12Y-88.343
X371.718Y-65.975
X373.401Y-145.938
X376.08Y-106.913
X376.596Y-84.246
X381.007Y-125.225
X381.556Y-102.816
X385.943Y-143.639
X386.483Y-121.128
X391.419Y-139.542
T4
X138.382Y-181.897
X162.054Y-185.013
X257.681Y-185.013
X281.353Y-181.897
T5
X140.372Y-166.787
X164.043Y-169.904
X255.692Y-169.904
X279.363Y-166.787
T6
X29.523Y-145.076
X34.431Y-126.659
X39.369Y-108.27
X44.3Y-89.722
X47.528Y-151.384
X49.169Y-71.493
X52.485Y-133.022
X57.42Y-114.688
X62.43Y-96.115
X66.32Y-154.916
X67.327Y-77.849
X71.254Y-136.489
X76.169Y-118.146
X81.131Y-99.585
X85.981Y-155.29
X86.024Y-81.358
X90.892Y-136.902
X95.868Y-118.435
X100.821Y-99.997
X104.711Y-158.873
X105.735Y-81.628
X109.643Y-140.479
X114.548Y-122.07
X119.526Y-103.65
X122.804Y-165.136
X124.507Y-85.233
X127.744Y-146.766
X132.699Y-128.301
X137.602Y-109.883
X142.532Y-91.487
X145.486Y-153.898
X150.413Y-135.531
X151.13Y-176.53
X155.295Y-117.181
X160.272Y-98.735
X181.48Y-139.698
X181.48Y-101.669
X181.482Y-120.687
X181.49Y-158.72
X181.504Y-177.722
X200.464Y-101.67
X200.469Y-120.688
X200.481Y-139.689
X200.481Y-158.72
X200.494Y-177.713
X219.458Y-139.678
X219.459Y-120.688
X219.468Y-101.67
X219.475Y-158.704
X219.5Y-177.693
X238.44Y-120.688
X238.455Y-139.685
X238.457Y-101.67
X238.463Y-177.683
X238.467Y-158.701
X259.543Y-98.779
X264.452Y-117.25
X268.605Y-176.53
X269.38Y-135.617
X274.316Y-153.973
X277.263Y-91.551
X282.204Y-110.034
X287.134Y-128.404
X292.062Y-146.818
X295.299Y-85.298
X296.981Y-165.215
X300.312Y-103.736
X305.255Y-122.214
X310.184Y-140.547
X314.084Y-81.716
X315.098Y-158.922
X319.005Y-100.061
X323.922Y-118.525
X328.882Y-136.962
X333.783Y-81.384
X333.819Y-155.369
X338.677Y-99.666
X343.629Y-118.218
X348.554Y-136.578
X352.518Y-77.932
X353.5Y-154.973
X357.426Y-96.201
X362.382Y-114.725
X367.329Y-133.072
X370.579Y-71.54
X372.262Y-151.503
X375.458Y-89.811
X380.417Y-108.38
X385.345Y-126.692
X390.28Y-145.106
T0
M30
