G04 #@! TF.GenerationSoftware,KiCad,Pcbnew,(5.1.10)-1*
G04 #@! TF.CreationDate,2021-10-14T20:39:04+01:00*
G04 #@! TF.ProjectId,superlyra-hs,73757065-726c-4797-9261-2d68732e6b69,0.1*
G04 #@! TF.SameCoordinates,Original*
G04 #@! TF.FileFunction,Legend,Bot*
G04 #@! TF.FilePolarity,Positive*
%FSLAX46Y46*%
G04 Gerber Fmt 4.6, Leading zero omitted, Abs format (unit mm)*
G04 Created by KiCad (PCBNEW (5.1.10)-1) date 2021-10-14 20:39:04*
%MOMM*%
%LPD*%
G01*
G04 APERTURE LIST*
%ADD10C,0.150000*%
%ADD11C,0.100000*%
%ADD12C,1.900000*%
%ADD13C,4.000000*%
%ADD14C,1.700000*%
%ADD15C,3.000000*%
%ADD16C,1.800000*%
%ADD17C,3.048000*%
%ADD18C,3.987800*%
%ADD19R,2.550000X2.500000*%
%ADD20R,1.700000X1.700000*%
%ADD21O,1.700000X1.700000*%
%ADD22O,1.000000X1.600000*%
%ADD23C,0.650000*%
%ADD24O,1.000000X2.100000*%
%ADD25C,3.500000*%
G04 APERTURE END LIST*
D10*
X337797550Y-168645694D02*
X338007070Y-169427634D01*
X338077716Y-169507302D01*
X338136037Y-169540974D01*
X338240355Y-169562321D01*
X338378344Y-169525347D01*
X338458013Y-169454701D01*
X337957771Y-169243648D02*
X338062089Y-169264995D01*
X338246075Y-169215696D01*
X338325743Y-169145050D01*
X338359415Y-169086729D01*
X338380762Y-168982411D01*
X338306814Y-168706432D01*
X338236168Y-168626764D01*
X338177846Y-168593093D01*
X338073529Y-168571745D01*
X337889543Y-168621044D01*
X337809875Y-168691690D01*
X337510131Y-169412892D02*
X337337585Y-168768941D01*
X337251312Y-168446966D02*
X337309633Y-168480637D01*
X337275962Y-168538959D01*
X337217641Y-168505287D01*
X337251312Y-168446966D01*
X337275962Y-168538959D01*
X337015610Y-168855214D02*
X336647638Y-168953812D01*
X336791348Y-168570213D02*
X337013193Y-169398149D01*
X336991845Y-169502467D01*
X336912177Y-169573113D01*
X336820184Y-169597762D01*
X336498209Y-169684035D02*
X336239390Y-168718109D01*
X336084241Y-169794958D02*
X335948669Y-169288997D01*
X335970016Y-169184679D01*
X336049684Y-169114033D01*
X336187674Y-169077059D01*
X336291991Y-169098406D01*
X336350312Y-169132078D01*
X335037762Y-169385177D02*
X335210308Y-170029127D01*
X335451730Y-169274254D02*
X335587302Y-169780215D01*
X335565955Y-169884533D01*
X335486287Y-169955179D01*
X335348297Y-169992153D01*
X335243980Y-169970806D01*
X335185659Y-169937134D01*
X334750343Y-170152374D02*
X334491524Y-169186449D01*
X334590122Y-169554420D02*
X334485804Y-169533073D01*
X334301818Y-169582372D01*
X334222150Y-169653018D01*
X334188478Y-169711339D01*
X334167131Y-169815657D01*
X334241080Y-170091636D01*
X334311726Y-170171304D01*
X334370047Y-170204976D01*
X334474364Y-170226323D01*
X334658350Y-170177024D01*
X334738019Y-170106378D01*
X333851761Y-170294551D02*
X333818089Y-170352872D01*
X333876410Y-170386544D01*
X333910082Y-170328223D01*
X333851761Y-170294551D01*
X333876410Y-170386544D01*
X332990153Y-170574717D02*
X333094470Y-170596064D01*
X333278456Y-170546765D01*
X333358125Y-170476120D01*
X333391796Y-170417798D01*
X333413143Y-170313481D01*
X333339195Y-170037502D01*
X333268549Y-169957834D01*
X333210228Y-169924162D01*
X333105910Y-169902815D01*
X332921924Y-169952114D01*
X332842256Y-170022760D01*
X332450520Y-170768610D02*
X332530188Y-170697964D01*
X332563860Y-170639643D01*
X332585207Y-170535326D01*
X332511259Y-170259347D01*
X332440613Y-170179679D01*
X332382291Y-170146007D01*
X332277974Y-170124660D01*
X332139984Y-170161634D01*
X332060316Y-170232280D01*
X332026644Y-170290601D01*
X332005297Y-170394919D01*
X332079246Y-170670897D01*
X332149892Y-170750566D01*
X332208213Y-170784237D01*
X332312530Y-170805584D01*
X332450520Y-170768610D01*
X331714576Y-170965806D02*
X331542030Y-170321855D01*
X331566680Y-170413848D02*
X331508359Y-170380176D01*
X331404041Y-170358829D01*
X331266052Y-170395804D01*
X331186383Y-170466449D01*
X331165036Y-170570767D01*
X331300608Y-171076728D01*
X331165036Y-170570767D02*
X331094390Y-170491099D01*
X330990073Y-170469752D01*
X330852083Y-170506726D01*
X330772415Y-170577372D01*
X330751068Y-170681690D01*
X330886640Y-171187651D01*
X329465585Y-170483846D02*
X330626288Y-171503906D01*
X329414753Y-171582042D02*
X329155934Y-170616116D01*
X329018829Y-171392336D01*
X328511983Y-170788662D01*
X328770802Y-171754588D01*
X327896870Y-171988757D02*
X327761298Y-171482796D01*
X327782645Y-171378478D01*
X327862313Y-171307833D01*
X328046299Y-171258534D01*
X328150616Y-171279881D01*
X327884545Y-171942761D02*
X327988862Y-171964108D01*
X328218845Y-171902484D01*
X328298513Y-171831838D01*
X328319860Y-171727521D01*
X328295211Y-171635528D01*
X328224565Y-171555860D01*
X328120247Y-171534512D01*
X327890265Y-171596136D01*
X327785947Y-171574789D01*
X327298915Y-172148979D02*
X327378584Y-172078333D01*
X327399931Y-171974015D01*
X327178086Y-171146079D01*
X326550647Y-172300178D02*
X326654965Y-172321525D01*
X326838951Y-172272226D01*
X326918619Y-172201580D01*
X326939966Y-172097262D01*
X326841368Y-171729290D01*
X326770722Y-171649622D01*
X326666405Y-171628275D01*
X326482419Y-171677574D01*
X326402751Y-171748220D01*
X326381404Y-171852538D01*
X326406053Y-171944531D01*
X326890667Y-171913276D01*
X326022454Y-171800821D02*
X325965018Y-172506395D01*
X325562490Y-171924068D01*
X325229074Y-172703591D02*
X325308743Y-172632945D01*
X325342414Y-172574624D01*
X325363761Y-172470306D01*
X325289813Y-172194327D01*
X325219167Y-172114659D01*
X325160846Y-172080987D01*
X325056528Y-172059640D01*
X324918539Y-172096614D01*
X324838871Y-172167260D01*
X324805199Y-172225581D01*
X324783852Y-172329899D01*
X324857800Y-172605878D01*
X324928446Y-172685546D01*
X324986767Y-172719218D01*
X325091085Y-172740565D01*
X325229074Y-172703591D01*
X324355142Y-172937760D02*
X324434810Y-172867115D01*
X324456157Y-172762797D01*
X324234312Y-171934860D01*
X323952613Y-172355433D02*
X323584641Y-172454031D01*
X323728351Y-172070432D02*
X323950196Y-172898369D01*
X323928849Y-173002686D01*
X323849180Y-173073332D01*
X323757187Y-173097982D01*
X323435212Y-173184255D02*
X323262666Y-172540304D01*
X323176393Y-172218329D02*
X323234714Y-172252001D01*
X323201043Y-172310322D01*
X323142721Y-172276650D01*
X323176393Y-172218329D01*
X323201043Y-172310322D01*
X322014157Y-172480450D02*
X323174860Y-173500510D01*
X321996997Y-173520324D02*
X321871332Y-173603295D01*
X321641350Y-173664919D01*
X321537032Y-173643572D01*
X321478711Y-173609900D01*
X321408065Y-173530232D01*
X321383416Y-173438239D01*
X321404763Y-173333921D01*
X321438435Y-173275600D01*
X321518103Y-173204954D01*
X321689764Y-173109659D01*
X321769432Y-173039013D01*
X321803104Y-172980692D01*
X321824451Y-172876374D01*
X321799801Y-172784381D01*
X321729156Y-172704713D01*
X321670834Y-172671041D01*
X321566517Y-172649694D01*
X321336534Y-172711318D01*
X321210870Y-172794288D01*
X320456882Y-173292112D02*
X320629428Y-173936062D01*
X320870850Y-173181189D02*
X321006422Y-173687151D01*
X320985075Y-173791468D01*
X320905406Y-173862114D01*
X320767417Y-173899088D01*
X320663099Y-173877741D01*
X320604778Y-173844070D01*
X319996917Y-173415359D02*
X320255736Y-174381285D01*
X320009242Y-173461356D02*
X319904924Y-173440008D01*
X319720938Y-173489307D01*
X319641270Y-173559953D01*
X319607598Y-173618274D01*
X319586251Y-173722592D01*
X319660199Y-173998571D01*
X319730845Y-174078239D01*
X319789166Y-174111911D01*
X319893484Y-174133258D01*
X320077470Y-174083959D01*
X320157138Y-174013313D01*
X318915234Y-174346080D02*
X319019551Y-174367428D01*
X319203537Y-174318129D01*
X319283205Y-174247483D01*
X319304552Y-174143165D01*
X319205955Y-173775193D01*
X319135309Y-173695525D01*
X319030991Y-173674178D01*
X318847005Y-173723477D01*
X318767337Y-173794123D01*
X318745990Y-173898441D01*
X318770639Y-173990433D01*
X319255254Y-173959179D01*
X318467594Y-174515324D02*
X318295048Y-173871374D01*
X318344346Y-174055359D02*
X318273701Y-173975691D01*
X318215379Y-173942019D01*
X318111062Y-173920672D01*
X318019069Y-173945322D01*
X317409675Y-174798793D02*
X317869640Y-174675545D01*
X317610820Y-173709620D01*
X317007146Y-174216466D02*
X316949710Y-174922040D01*
X316547182Y-174339713D02*
X316949710Y-174922040D01*
X317103327Y-175127373D01*
X317161648Y-175161044D01*
X317265966Y-175182391D01*
X316351756Y-175082261D02*
X316179210Y-174438311D01*
X316228509Y-174622296D02*
X316157863Y-174542628D01*
X316099542Y-174508956D01*
X315995224Y-174487609D01*
X315903231Y-174512259D01*
X315339834Y-175353405D02*
X315204262Y-174847444D01*
X315225609Y-174743126D01*
X315305277Y-174672480D01*
X315489263Y-174623181D01*
X315593581Y-174644528D01*
X315327509Y-175307408D02*
X315431827Y-175328755D01*
X315661809Y-175267132D01*
X315741477Y-175196486D01*
X315762824Y-175092168D01*
X315738175Y-175000175D01*
X315667529Y-174920507D01*
X315563211Y-174899160D01*
X315333229Y-174960784D01*
X315228911Y-174939437D01*
X314063373Y-175005247D02*
X314005936Y-175710822D01*
X313603408Y-175128495D01*
X313027686Y-175923644D02*
X313132003Y-175944991D01*
X313315989Y-175895692D01*
X313395657Y-175825046D01*
X313417004Y-175720729D01*
X313318407Y-175352757D01*
X313247761Y-175273089D01*
X313143443Y-175251742D01*
X312959457Y-175301041D01*
X312879789Y-175371687D01*
X312858442Y-175476004D01*
X312883091Y-175567997D01*
X313367706Y-175536743D01*
X312580046Y-176092888D02*
X312407500Y-175448937D01*
X312456799Y-175632923D02*
X312386153Y-175553255D01*
X312327831Y-175519583D01*
X312223514Y-175498236D01*
X312131521Y-175522886D01*
X311957442Y-176161116D02*
X311923770Y-176219437D01*
X311982092Y-176253109D01*
X312015763Y-176194788D01*
X311957442Y-176161116D01*
X311982092Y-176253109D01*
X310343379Y-175656925D02*
X310251386Y-175681574D01*
X310171717Y-175752220D01*
X310138046Y-175810541D01*
X310116699Y-175914859D01*
X310120001Y-176111170D01*
X310181625Y-176341152D01*
X310276920Y-176512813D01*
X310347566Y-176592481D01*
X310405887Y-176626153D01*
X310510205Y-176647500D01*
X310602198Y-176622851D01*
X310681866Y-176552205D01*
X310715538Y-176493884D01*
X310736885Y-176389566D01*
X310733582Y-176193255D01*
X310671959Y-175963273D01*
X310576663Y-175791612D01*
X310506017Y-175711944D01*
X310447696Y-175678272D01*
X310343379Y-175656925D01*
X309841605Y-176728053D02*
X309807933Y-176786374D01*
X309866254Y-176820046D01*
X309899926Y-176761725D01*
X309841605Y-176728053D01*
X309866254Y-176820046D01*
X308687506Y-176100615D02*
X309147470Y-175977367D01*
X309316714Y-176425007D01*
X309258393Y-176391336D01*
X309154075Y-176369989D01*
X308924093Y-176431612D01*
X308844425Y-176502258D01*
X308810753Y-176560579D01*
X308789406Y-176664897D01*
X308851029Y-176894879D01*
X308921675Y-176974547D01*
X308979997Y-177008219D01*
X309084314Y-177029566D01*
X309314297Y-176967943D01*
X309393965Y-176897297D01*
X309427636Y-176838976D01*
X307573036Y-177828903D02*
X307606707Y-177770582D01*
X307661726Y-177607943D01*
X307683073Y-177503625D01*
X307692095Y-177353311D01*
X307676468Y-177111004D01*
X307627169Y-176927018D01*
X307519549Y-176709361D01*
X307436579Y-176583696D01*
X307365933Y-176504028D01*
X307236966Y-176390688D01*
X307178645Y-176357016D01*
X306726170Y-177612130D02*
X306830487Y-177633477D01*
X307014473Y-177584179D01*
X307094141Y-177513533D01*
X307115488Y-177409215D01*
X307016891Y-177041243D01*
X306946245Y-176961575D01*
X306841927Y-176940228D01*
X306657941Y-176989527D01*
X306578273Y-177060173D01*
X306556926Y-177164490D01*
X306581575Y-177256483D01*
X307066190Y-177225229D01*
X306197977Y-177112774D02*
X306140540Y-177818348D01*
X305738012Y-177236021D01*
X305128618Y-178089492D02*
X304993046Y-177583531D01*
X305014393Y-177479213D01*
X305094061Y-177408567D01*
X305278047Y-177359268D01*
X305382365Y-177380615D01*
X305116293Y-178043495D02*
X305220611Y-178064842D01*
X305450593Y-178003219D01*
X305530261Y-177932573D01*
X305551608Y-177828255D01*
X305526959Y-177736262D01*
X305456313Y-177656594D01*
X305351995Y-177635247D01*
X305122013Y-177696871D01*
X305017695Y-177675524D01*
X304530664Y-178249713D02*
X304610332Y-178179067D01*
X304631679Y-178074750D01*
X304409834Y-177246813D01*
X303576178Y-177815283D02*
X303748724Y-178459233D01*
X303990146Y-177704360D02*
X304125718Y-178210322D01*
X304104371Y-178314639D01*
X304024703Y-178385285D01*
X303886713Y-178422259D01*
X303782396Y-178400912D01*
X303724074Y-178367240D01*
X302874791Y-178693403D02*
X302739219Y-178187442D01*
X302760566Y-178083124D01*
X302840234Y-178012478D01*
X303024220Y-177963179D01*
X303128538Y-177984526D01*
X302862466Y-178647407D02*
X302966784Y-178668754D01*
X303196766Y-178607130D01*
X303276434Y-178536484D01*
X303297782Y-178432166D01*
X303273132Y-178340173D01*
X303202486Y-178260505D01*
X303098169Y-178239158D01*
X302868186Y-178300782D01*
X302763869Y-178279435D01*
X302380270Y-178135725D02*
X302012298Y-178234323D01*
X302156007Y-177850724D02*
X302377852Y-178678661D01*
X302356505Y-178782978D01*
X302276837Y-178853624D01*
X302184844Y-178878274D01*
X301862869Y-178964547D02*
X301690323Y-178320596D01*
X301604050Y-177998621D02*
X301662371Y-178032293D01*
X301628699Y-178090614D01*
X301570378Y-178056942D01*
X301604050Y-177998621D01*
X301628699Y-178090614D01*
X301264915Y-179124768D02*
X301344583Y-179054122D01*
X301378255Y-178995801D01*
X301399602Y-178891483D01*
X301325653Y-178615505D01*
X301255007Y-178535836D01*
X301196686Y-178502165D01*
X301092369Y-178480818D01*
X300954379Y-178517792D01*
X300874711Y-178588438D01*
X300841039Y-178646759D01*
X300819692Y-178751076D01*
X300893640Y-179027055D01*
X300964286Y-179106723D01*
X301022608Y-179140395D01*
X301126925Y-179161742D01*
X301264915Y-179124768D01*
X300356425Y-178678013D02*
X300528971Y-179321964D01*
X300381075Y-178770006D02*
X300322753Y-178736334D01*
X300218436Y-178714987D01*
X300080446Y-178751961D01*
X300000778Y-178822607D01*
X299979431Y-178926925D01*
X300115003Y-179432886D01*
X299845629Y-179899455D02*
X299787308Y-179865784D01*
X299658341Y-179752444D01*
X299587695Y-179672775D01*
X299504724Y-179547111D01*
X299397104Y-179329453D01*
X299347805Y-179145467D01*
X299332178Y-178903160D01*
X299341200Y-178752846D01*
X299362547Y-178648528D01*
X299417566Y-178485890D01*
X299451238Y-178427568D01*
X327829399Y-173024858D02*
X327771963Y-173730432D01*
X327369435Y-173148105D02*
X327771963Y-173730432D01*
X327925579Y-173935765D01*
X327983901Y-173969436D01*
X328088218Y-173990784D01*
X327036019Y-173927627D02*
X327115688Y-173856981D01*
X327149359Y-173798660D01*
X327170706Y-173694343D01*
X327096758Y-173418364D01*
X327026112Y-173338696D01*
X326967791Y-173305024D01*
X326863473Y-173283677D01*
X326725484Y-173320651D01*
X326645816Y-173391297D01*
X326612144Y-173449618D01*
X326590797Y-173553936D01*
X326664745Y-173829914D01*
X326735391Y-173909583D01*
X326793712Y-173943254D01*
X326898030Y-173964601D01*
X327036019Y-173927627D01*
X325713562Y-173591795D02*
X325886108Y-174235745D01*
X326127530Y-173480872D02*
X326263102Y-173986833D01*
X326241755Y-174091151D01*
X326162087Y-174161797D01*
X326024097Y-174198771D01*
X325919780Y-174177424D01*
X325861458Y-174143752D01*
X325391586Y-173678068D02*
X325023615Y-173776665D01*
X325167324Y-173393067D02*
X325389169Y-174221003D01*
X325367822Y-174325321D01*
X325288154Y-174395967D01*
X325196161Y-174420616D01*
X324287671Y-173973861D02*
X324460217Y-174617811D01*
X324701639Y-173862938D02*
X324837211Y-174368900D01*
X324815864Y-174473217D01*
X324736196Y-174543863D01*
X324598207Y-174580837D01*
X324493889Y-174559490D01*
X324435568Y-174525818D01*
X323975603Y-174649066D02*
X323941931Y-174707387D01*
X324000253Y-174741059D01*
X324033924Y-174682737D01*
X323975603Y-174649066D01*
X324000253Y-174741059D01*
X323540288Y-174864306D02*
X323281469Y-173898380D01*
X323380067Y-174266352D02*
X323275749Y-174245005D01*
X323091763Y-174294303D01*
X323012095Y-174364949D01*
X322978423Y-174423271D01*
X322957076Y-174527588D01*
X323031024Y-174803567D01*
X323101670Y-174883235D01*
X323159991Y-174916907D01*
X323264309Y-174938254D01*
X323448295Y-174888955D01*
X323527963Y-174818309D01*
X322286059Y-175151077D02*
X322390376Y-175172424D01*
X322574362Y-175123125D01*
X322654030Y-175052479D01*
X322675377Y-174948161D01*
X322576780Y-174580189D01*
X322506134Y-174500521D01*
X322401816Y-174479174D01*
X322217830Y-174528473D01*
X322138162Y-174599119D01*
X322116815Y-174703437D01*
X322141464Y-174795430D01*
X322626078Y-174764175D01*
X320877328Y-174493269D02*
X322038032Y-175513328D01*
X320540610Y-175076481D02*
X320620278Y-175005835D01*
X320653950Y-174947513D01*
X320675297Y-174843196D01*
X320662973Y-174797199D01*
X320592327Y-174717531D01*
X320534005Y-174683859D01*
X320429688Y-174662512D01*
X320245702Y-174711811D01*
X320166034Y-174782457D01*
X320132362Y-174840778D01*
X320111015Y-174945096D01*
X320123340Y-174991092D01*
X320193986Y-175070761D01*
X320252307Y-175104432D01*
X320356624Y-175125779D01*
X320540610Y-175076481D01*
X320644928Y-175097828D01*
X320703249Y-175131499D01*
X320773895Y-175211168D01*
X320823194Y-175395153D01*
X320801847Y-175499471D01*
X320768175Y-175557792D01*
X320688507Y-175628438D01*
X320504521Y-175677737D01*
X320400203Y-175656390D01*
X320341882Y-175622718D01*
X320271236Y-175543050D01*
X320221937Y-175359064D01*
X320243284Y-175254747D01*
X320276956Y-175196425D01*
X320356624Y-175125779D01*
X319329960Y-175893862D02*
X319388281Y-175927534D01*
X319538595Y-175936556D01*
X319630588Y-175911907D01*
X319756253Y-175828936D01*
X319823596Y-175712294D01*
X319844943Y-175607976D01*
X319841641Y-175411665D01*
X319804667Y-175273676D01*
X319709371Y-175102015D01*
X319638726Y-175022347D01*
X319522083Y-174955003D01*
X319371769Y-174945981D01*
X319279776Y-174970630D01*
X319154111Y-175053601D01*
X319120440Y-175111922D01*
X318940641Y-176096777D02*
X318681822Y-175130852D01*
X318313850Y-175229449D01*
X318234182Y-175300095D01*
X318200510Y-175358416D01*
X318179163Y-175462734D01*
X318216137Y-175600723D01*
X318286783Y-175680392D01*
X318345105Y-175714063D01*
X318449422Y-175735410D01*
X318817394Y-175636813D01*
X317301928Y-175500593D02*
X317485914Y-175451294D01*
X317590232Y-175472641D01*
X317648553Y-175506313D01*
X317777520Y-175619653D01*
X317872815Y-175791314D01*
X317971413Y-176159286D01*
X317950066Y-176263604D01*
X317916394Y-176321925D01*
X317836726Y-176392571D01*
X317652740Y-176441869D01*
X317548422Y-176420522D01*
X317490101Y-176386851D01*
X317419455Y-176307182D01*
X317357832Y-176077200D01*
X317379179Y-175972882D01*
X317412850Y-175914561D01*
X317492519Y-175843915D01*
X317676505Y-175794617D01*
X317780822Y-175815964D01*
X317839143Y-175849635D01*
X317909789Y-175929304D01*
X316478179Y-176657994D02*
X316536500Y-176691666D01*
X316686814Y-176700688D01*
X316778807Y-176676039D01*
X316904472Y-176593068D01*
X316971815Y-176476426D01*
X316993162Y-176372108D01*
X316989860Y-176175798D01*
X316952886Y-176037808D01*
X316857590Y-175866147D01*
X316786945Y-175786479D01*
X316670302Y-175719136D01*
X316519988Y-175710113D01*
X316427995Y-175734763D01*
X316302330Y-175817733D01*
X316268659Y-175876054D01*
X316088860Y-176860910D02*
X315830041Y-175894984D01*
X315674892Y-176971832D02*
X315539320Y-176465871D01*
X315560667Y-176361553D01*
X315640335Y-176290908D01*
X315778325Y-176253933D01*
X315882642Y-176275280D01*
X315940963Y-176308952D01*
X315248599Y-177036758D02*
X315168931Y-177107404D01*
X314984945Y-177156703D01*
X314880627Y-177135356D01*
X314809981Y-177055688D01*
X314797657Y-177009691D01*
X314819004Y-176905374D01*
X314898672Y-176834728D01*
X315036661Y-176797754D01*
X315116329Y-176727108D01*
X315137676Y-176622790D01*
X315125352Y-176576794D01*
X315054706Y-176497125D01*
X314950388Y-176475778D01*
X314812399Y-176512752D01*
X314732731Y-176583398D01*
X314466659Y-177246278D02*
X314386991Y-177316924D01*
X314203005Y-177366223D01*
X314098687Y-177344876D01*
X314028041Y-177265208D01*
X314015717Y-177219211D01*
X314037064Y-177114894D01*
X314116732Y-177044248D01*
X314254721Y-177007274D01*
X314334390Y-176936628D01*
X314355737Y-176832310D01*
X314343412Y-176786314D01*
X314272766Y-176706646D01*
X314168448Y-176685298D01*
X314030459Y-176722273D01*
X313950791Y-176792919D01*
X313208242Y-176597493D02*
X313116249Y-176622142D01*
X313036581Y-176692788D01*
X313002909Y-176751109D01*
X312981562Y-176855427D01*
X312984865Y-177051738D01*
X313046488Y-177281720D01*
X313141784Y-177453381D01*
X313212430Y-177533049D01*
X313270751Y-177566721D01*
X313375068Y-177588068D01*
X313467061Y-177563419D01*
X313546730Y-177492773D01*
X313580401Y-177434452D01*
X313601748Y-177330134D01*
X313598446Y-177133823D01*
X313536822Y-176903841D01*
X313441527Y-176732180D01*
X313370881Y-176652512D01*
X313312560Y-176618840D01*
X313208242Y-176597493D01*
X312650565Y-177092014D02*
X312593129Y-177797588D01*
X312190600Y-177215261D02*
X312593129Y-177797588D01*
X312746745Y-178002921D01*
X312805066Y-178036593D01*
X312909384Y-178057940D01*
X311552370Y-177041183D02*
X311460377Y-177065832D01*
X311380708Y-177136478D01*
X311347037Y-177194799D01*
X311325690Y-177299117D01*
X311328992Y-177495427D01*
X311390616Y-177725410D01*
X311485911Y-177897071D01*
X311556557Y-177976739D01*
X311614878Y-178010411D01*
X311719196Y-178031758D01*
X311811189Y-178007108D01*
X311890857Y-177936463D01*
X311924529Y-177878141D01*
X311945876Y-177773824D01*
X311942573Y-177577513D01*
X311880950Y-177347531D01*
X311785654Y-177175870D01*
X311715008Y-177096201D01*
X311656687Y-177062530D01*
X311552370Y-177041183D01*
%LPC*%
D11*
G36*
X356392602Y-118848768D02*
G01*
X357039649Y-121263583D01*
X354576538Y-121923572D01*
X353929491Y-119508757D01*
X356392602Y-118848768D01*
G37*
G36*
X367902122Y-118131443D02*
G01*
X368549169Y-120546258D01*
X366086058Y-121206247D01*
X365439011Y-118791432D01*
X367902122Y-118131443D01*
G37*
D12*
X367694977Y-113301479D03*
D13*
X362382385Y-114724984D03*
D14*
X357475482Y-116039785D03*
X367289288Y-113410183D03*
D12*
X357069793Y-116148489D03*
D15*
X358536268Y-119689597D03*
X363909417Y-120423946D03*
D11*
G36*
X355861183Y-112507227D02*
G01*
X356508230Y-114922042D01*
X354045119Y-115582031D01*
X353398072Y-113167216D01*
X355861183Y-112507227D01*
G37*
D15*
X358044807Y-113257633D03*
X363521036Y-109160680D03*
D13*
X362382385Y-114724984D03*
D16*
X367289288Y-113410183D03*
X357475482Y-116039785D03*
D11*
G36*
X367471041Y-106766773D02*
G01*
X368118088Y-109181588D01*
X365654977Y-109841577D01*
X365007930Y-107426762D01*
X367471041Y-106766773D01*
G37*
D13*
X151115364Y-176510926D03*
D15*
X154296707Y-171805923D03*
D13*
X151115364Y-176510926D03*
D15*
X145662141Y-179625786D03*
X150345260Y-182360451D03*
D14*
X156151904Y-177174000D03*
X146078824Y-175847853D03*
D11*
G36*
X144003423Y-178028616D02*
G01*
X143677107Y-180507228D01*
X141148923Y-180174386D01*
X141475239Y-177695774D01*
X144003423Y-178028616D01*
G37*
D15*
X147669496Y-173495352D03*
D11*
G36*
X154911341Y-181770397D02*
G01*
X154585025Y-184249009D01*
X152056841Y-183916167D01*
X152383157Y-181437555D01*
X154911341Y-181770397D01*
G37*
D12*
X145662418Y-175793032D03*
D16*
X156151904Y-177174000D03*
X146078824Y-175847853D03*
D11*
G36*
X158862144Y-171105843D02*
G01*
X158535828Y-173584455D01*
X156007644Y-173251613D01*
X156333960Y-170773001D01*
X158862144Y-171105843D01*
G37*
G36*
X145939258Y-171966430D02*
G01*
X145612942Y-174445042D01*
X143084758Y-174112200D01*
X143411074Y-171633588D01*
X145939258Y-171966430D01*
G37*
D12*
X156568311Y-177228821D03*
D17*
X138382406Y-181897021D03*
D18*
X140371625Y-166787401D03*
D17*
X162054143Y-185013464D03*
D18*
X164043362Y-169903844D03*
D13*
X268585926Y-176515364D03*
D15*
X270441123Y-171147288D03*
D13*
X268585926Y-176515364D03*
D15*
X264124702Y-180935486D03*
X269356031Y-182364889D03*
D14*
X273622466Y-175852291D03*
X263549387Y-177178437D03*
D11*
G36*
X262109125Y-179822046D02*
G01*
X262435441Y-182300658D01*
X259907257Y-182633500D01*
X259580941Y-180154888D01*
X262109125Y-179822046D01*
G37*
D15*
X264476985Y-174494399D03*
D11*
G36*
X273613809Y-180613151D02*
G01*
X273940125Y-183091763D01*
X271411941Y-183424605D01*
X271085625Y-180945993D01*
X273613809Y-180613151D01*
G37*
D12*
X263132980Y-177233258D03*
D16*
X273622466Y-175852291D03*
X263549387Y-177178437D03*
D11*
G36*
X274669802Y-169289440D02*
G01*
X274996118Y-171768052D01*
X272467934Y-172100894D01*
X272141618Y-169622282D01*
X274669802Y-169289440D01*
G37*
G36*
X262409989Y-173465393D02*
G01*
X262736305Y-175944005D01*
X260208121Y-176276847D01*
X259881805Y-173798235D01*
X262409989Y-173465393D01*
G37*
D12*
X274038873Y-175797470D03*
D17*
X257680857Y-185013464D03*
D18*
X255691638Y-169903844D03*
D17*
X281352594Y-181897021D03*
D18*
X279363375Y-166787401D03*
D11*
G36*
X40278356Y-151960792D02*
G01*
X39631309Y-154375607D01*
X37168198Y-153715618D01*
X37815245Y-151300803D01*
X40278356Y-151960792D01*
G37*
G36*
X50604556Y-157094330D02*
G01*
X49957509Y-159509145D01*
X47494398Y-158849156D01*
X48141445Y-156434341D01*
X50604556Y-157094330D01*
G37*
D12*
X52840145Y-152807886D03*
D13*
X47527553Y-151384381D03*
D14*
X42620650Y-150069580D03*
X52434456Y-152699182D03*
D12*
X42214961Y-149960876D03*
D15*
X41714411Y-153760804D03*
X46000521Y-157083343D03*
D11*
G36*
X42988904Y-146203146D02*
G01*
X42341857Y-148617961D01*
X39878746Y-147957972D01*
X40525793Y-145543157D01*
X42988904Y-146203146D01*
G37*
D15*
X44504776Y-147944829D03*
X51295805Y-147134878D03*
D13*
X47527553Y-151384381D03*
D16*
X52434456Y-152699182D03*
X42620650Y-150069580D03*
D11*
G36*
X55913563Y-147036696D02*
G01*
X55266516Y-149451511D01*
X52803405Y-148791522D01*
X53450452Y-146376707D01*
X55913563Y-147036696D01*
G37*
G36*
X327793007Y-85507923D02*
G01*
X328440054Y-87922738D01*
X325976943Y-88582727D01*
X325329896Y-86167912D01*
X327793007Y-85507923D01*
G37*
G36*
X339302527Y-84790598D02*
G01*
X339949574Y-87205413D01*
X337486463Y-87865402D01*
X336839416Y-85450587D01*
X339302527Y-84790598D01*
G37*
D12*
X339095382Y-79960634D03*
D13*
X333782790Y-81384139D03*
D14*
X328875887Y-82698940D03*
X338689693Y-80069338D03*
D12*
X328470198Y-82807644D03*
D15*
X329936673Y-86348752D03*
X335309822Y-87083101D03*
D11*
G36*
X327261588Y-79166382D02*
G01*
X327908635Y-81581197D01*
X325445524Y-82241186D01*
X324798477Y-79826371D01*
X327261588Y-79166382D01*
G37*
D15*
X329445212Y-79916788D03*
X334921441Y-75819835D03*
D13*
X333782790Y-81384139D03*
D16*
X338689693Y-80069338D03*
X328875887Y-82698940D03*
D11*
G36*
X338871446Y-73425928D02*
G01*
X339518493Y-75840743D01*
X337055382Y-76500732D01*
X336408335Y-74085917D01*
X338871446Y-73425928D01*
G37*
G36*
X41919833Y-72069874D02*
G01*
X41272786Y-74484689D01*
X38809675Y-73824700D01*
X39456722Y-71409885D01*
X41919833Y-72069874D01*
G37*
G36*
X52246033Y-77203412D02*
G01*
X51598986Y-79618227D01*
X49135875Y-78958238D01*
X49782922Y-76543423D01*
X52246033Y-77203412D01*
G37*
D12*
X54481622Y-72916968D03*
D13*
X49169030Y-71493463D03*
D14*
X44262127Y-70178662D03*
X54075933Y-72808264D03*
D12*
X43856438Y-70069958D03*
D15*
X43355888Y-73869886D03*
X47641998Y-77192425D03*
D11*
G36*
X44630381Y-66312228D02*
G01*
X43983334Y-68727043D01*
X41520223Y-68067054D01*
X42167270Y-65652239D01*
X44630381Y-66312228D01*
G37*
D15*
X46146253Y-68053911D03*
X52937282Y-67243960D03*
D13*
X49169030Y-71493463D03*
D16*
X54075933Y-72808264D03*
X44262127Y-70178662D03*
D11*
G36*
X57555040Y-67145778D02*
G01*
X56907993Y-69560593D01*
X54444882Y-68900604D01*
X55091929Y-66485789D01*
X57555040Y-67145778D01*
G37*
G36*
X60077832Y-78425445D02*
G01*
X59430785Y-80840260D01*
X56967674Y-80180271D01*
X57614721Y-77765456D01*
X60077832Y-78425445D01*
G37*
G36*
X70404032Y-83558983D02*
G01*
X69756985Y-85973798D01*
X67293874Y-85313809D01*
X67940921Y-82898994D01*
X70404032Y-83558983D01*
G37*
D12*
X72639621Y-79272539D03*
D13*
X67327029Y-77849034D03*
D14*
X62420126Y-76534233D03*
X72233932Y-79163835D03*
D12*
X62014437Y-76425529D03*
D15*
X61513887Y-80225457D03*
X65799997Y-83547996D03*
D11*
G36*
X62788380Y-72667799D02*
G01*
X62141333Y-75082614D01*
X59678222Y-74422625D01*
X60325269Y-72007810D01*
X62788380Y-72667799D01*
G37*
D15*
X64304252Y-74409482D03*
X71095281Y-73599531D03*
D13*
X67327029Y-77849034D03*
D16*
X72233932Y-79163835D03*
X62420126Y-76534233D03*
D11*
G36*
X75713039Y-73501349D02*
G01*
X75065992Y-75916164D01*
X72602881Y-75256175D01*
X73249928Y-72841360D01*
X75713039Y-73501349D01*
G37*
G36*
X78774356Y-81934703D02*
G01*
X78127309Y-84349518D01*
X75664198Y-83689529D01*
X76311245Y-81274714D01*
X78774356Y-81934703D01*
G37*
G36*
X89100556Y-87068241D02*
G01*
X88453509Y-89483056D01*
X85990398Y-88823067D01*
X86637445Y-86408252D01*
X89100556Y-87068241D01*
G37*
D12*
X91336145Y-82781797D03*
D13*
X86023553Y-81358292D03*
D14*
X81116650Y-80043491D03*
X90930456Y-82673093D03*
D12*
X80710961Y-79934787D03*
D15*
X80210411Y-83734715D03*
X84496521Y-87057254D03*
D11*
G36*
X81484904Y-76177057D02*
G01*
X80837857Y-78591872D01*
X78374746Y-77931883D01*
X79021793Y-75517068D01*
X81484904Y-76177057D01*
G37*
D15*
X83000776Y-77918740D03*
X89791805Y-77108789D03*
D13*
X86023553Y-81358292D03*
D16*
X90930456Y-82673093D03*
X81116650Y-80043491D03*
D11*
G36*
X94409563Y-77010607D02*
G01*
X93762516Y-79425422D01*
X91299405Y-78765433D01*
X91946452Y-76350618D01*
X94409563Y-77010607D01*
G37*
G36*
X98485519Y-82203912D02*
G01*
X97838472Y-84618727D01*
X95375361Y-83958738D01*
X96022408Y-81543923D01*
X98485519Y-82203912D01*
G37*
G36*
X108811719Y-87337450D02*
G01*
X108164672Y-89752265D01*
X105701561Y-89092276D01*
X106348608Y-86677461D01*
X108811719Y-87337450D01*
G37*
D12*
X111047308Y-83051006D03*
D13*
X105734716Y-81627501D03*
D14*
X100827813Y-80312700D03*
X110641619Y-82942302D03*
D12*
X100422124Y-80203996D03*
D15*
X99921574Y-84003924D03*
X104207684Y-87326463D03*
D11*
G36*
X101196067Y-76446266D02*
G01*
X100549020Y-78861081D01*
X98085909Y-78201092D01*
X98732956Y-75786277D01*
X101196067Y-76446266D01*
G37*
D15*
X102711939Y-78187949D03*
X109502968Y-77377998D03*
D13*
X105734716Y-81627501D03*
D16*
X110641619Y-82942302D03*
X100827813Y-80312700D03*
D11*
G36*
X114120726Y-77279816D02*
G01*
X113473679Y-79694631D01*
X111010568Y-79034642D01*
X111657615Y-76619827D01*
X114120726Y-77279816D01*
G37*
G36*
X117258063Y-85809611D02*
G01*
X116611016Y-88224426D01*
X114147905Y-87564437D01*
X114794952Y-85149622D01*
X117258063Y-85809611D01*
G37*
G36*
X127584263Y-90943149D02*
G01*
X126937216Y-93357964D01*
X124474105Y-92697975D01*
X125121152Y-90283160D01*
X127584263Y-90943149D01*
G37*
D12*
X129819852Y-86656705D03*
D13*
X124507260Y-85233200D03*
D14*
X119600357Y-83918399D03*
X129414163Y-86548001D03*
D12*
X119194668Y-83809695D03*
D15*
X118694118Y-87609623D03*
X122980228Y-90932162D03*
D11*
G36*
X119968611Y-80051965D02*
G01*
X119321564Y-82466780D01*
X116858453Y-81806791D01*
X117505500Y-79391976D01*
X119968611Y-80051965D01*
G37*
D15*
X121484483Y-81793648D03*
X128275512Y-80983697D03*
D13*
X124507260Y-85233200D03*
D16*
X129414163Y-86548001D03*
X119600357Y-83918399D03*
D11*
G36*
X132893270Y-80885515D02*
G01*
X132246223Y-83300330D01*
X129783112Y-82640341D01*
X130430159Y-80225526D01*
X132893270Y-80885515D01*
G37*
G36*
X135282605Y-92063030D02*
G01*
X134635558Y-94477845D01*
X132172447Y-93817856D01*
X132819494Y-91403041D01*
X135282605Y-92063030D01*
G37*
G36*
X145608805Y-97196568D02*
G01*
X144961758Y-99611383D01*
X142498647Y-98951394D01*
X143145694Y-96536579D01*
X145608805Y-97196568D01*
G37*
D12*
X147844394Y-92910124D03*
D13*
X142531802Y-91486619D03*
D14*
X137624899Y-90171818D03*
X147438705Y-92801420D03*
D12*
X137219210Y-90063114D03*
D15*
X136718660Y-93863042D03*
X141004770Y-97185581D03*
D11*
G36*
X137993153Y-86305384D02*
G01*
X137346106Y-88720199D01*
X134882995Y-88060210D01*
X135530042Y-85645395D01*
X137993153Y-86305384D01*
G37*
D15*
X139509025Y-88047067D03*
X146300054Y-87237116D03*
D13*
X142531802Y-91486619D03*
D16*
X147438705Y-92801420D03*
X137624899Y-90171818D03*
D11*
G36*
X150917812Y-87138934D02*
G01*
X150270765Y-89553749D01*
X147807654Y-88893760D01*
X148454701Y-86478945D01*
X150917812Y-87138934D01*
G37*
G36*
X153022910Y-99311849D02*
G01*
X152375863Y-101726664D01*
X149912752Y-101066675D01*
X150559799Y-98651860D01*
X153022910Y-99311849D01*
G37*
G36*
X163349110Y-104445387D02*
G01*
X162702063Y-106860202D01*
X160238952Y-106200213D01*
X160885999Y-103785398D01*
X163349110Y-104445387D01*
G37*
D12*
X165584699Y-100158943D03*
D13*
X160272107Y-98735438D03*
D14*
X155365204Y-97420637D03*
X165179010Y-100050239D03*
D12*
X154959515Y-97311933D03*
D15*
X154458965Y-101111861D03*
X158745075Y-104434400D03*
D11*
G36*
X155733458Y-93554203D02*
G01*
X155086411Y-95969018D01*
X152623300Y-95309029D01*
X153270347Y-92894214D01*
X155733458Y-93554203D01*
G37*
D15*
X157249330Y-95295886D03*
X164040359Y-94485935D03*
D13*
X160272107Y-98735438D03*
D16*
X165179010Y-100050239D03*
X155365204Y-97420637D03*
D11*
G36*
X168658117Y-94387753D02*
G01*
X168011070Y-96802568D01*
X165547959Y-96142579D01*
X166195006Y-93727764D01*
X168658117Y-94387753D01*
G37*
D19*
X173352027Y-105351860D03*
X184655027Y-107637860D03*
D12*
X186980027Y-101668860D03*
D13*
X181480027Y-101668860D03*
D14*
X176400027Y-101668860D03*
X186560027Y-101668860D03*
D12*
X175980027Y-101668860D03*
D15*
X176480027Y-105468860D03*
X181480027Y-107568860D03*
D19*
X174480027Y-99088860D03*
D15*
X177670027Y-99128860D03*
X184020027Y-96588860D03*
D13*
X181480027Y-101668860D03*
D16*
X186560027Y-101668860D03*
X176400027Y-101668860D03*
D19*
X187180027Y-96548860D03*
X192335938Y-105352622D03*
X203638938Y-107638622D03*
D12*
X205963938Y-101669622D03*
D13*
X200463938Y-101669622D03*
D14*
X195383938Y-101669622D03*
X205543938Y-101669622D03*
D12*
X194963938Y-101669622D03*
D15*
X195463938Y-105469622D03*
X200463938Y-107569622D03*
D19*
X193463938Y-99089622D03*
D15*
X196653938Y-99129622D03*
X203003938Y-96589622D03*
D13*
X200463938Y-101669622D03*
D16*
X205543938Y-101669622D03*
X195383938Y-101669622D03*
D19*
X206163938Y-96549622D03*
X211340099Y-105352850D03*
X222643099Y-107638850D03*
D12*
X224968099Y-101669850D03*
D13*
X219468099Y-101669850D03*
D14*
X214388099Y-101669850D03*
X224548099Y-101669850D03*
D12*
X213968099Y-101669850D03*
D15*
X214468099Y-105469850D03*
X219468099Y-107569850D03*
D19*
X212468099Y-99089850D03*
D15*
X215658099Y-99129850D03*
X222008099Y-96589850D03*
D13*
X219468099Y-101669850D03*
D16*
X224548099Y-101669850D03*
X214388099Y-101669850D03*
D19*
X225168099Y-96549850D03*
X230328946Y-105352702D03*
X241631946Y-107638702D03*
D12*
X243956946Y-101669702D03*
D13*
X238456946Y-101669702D03*
D14*
X233376946Y-101669702D03*
X243536946Y-101669702D03*
D12*
X232956946Y-101669702D03*
D15*
X233456946Y-105469702D03*
X238456946Y-107569702D03*
D19*
X231456946Y-99089702D03*
D15*
X234646946Y-99129702D03*
X240996946Y-96589702D03*
D13*
X238456946Y-101669702D03*
D16*
X243536946Y-101669702D03*
X233376946Y-101669702D03*
D19*
X244156946Y-96549702D03*
D11*
G36*
X253553140Y-102902399D02*
G01*
X254200187Y-105317214D01*
X251737076Y-105977203D01*
X251090029Y-103562388D01*
X253553140Y-102902399D01*
G37*
G36*
X265062660Y-102185074D02*
G01*
X265709707Y-104599889D01*
X263246596Y-105259878D01*
X262599549Y-102845063D01*
X265062660Y-102185074D01*
G37*
D12*
X264855515Y-97355110D03*
D13*
X259542923Y-98778615D03*
D14*
X254636020Y-100093416D03*
X264449826Y-97463814D03*
D12*
X254230331Y-100202120D03*
D15*
X255696806Y-103743228D03*
X261069955Y-104477577D03*
D11*
G36*
X253021721Y-96560858D02*
G01*
X253668768Y-98975673D01*
X251205657Y-99635662D01*
X250558610Y-97220847D01*
X253021721Y-96560858D01*
G37*
D15*
X255205345Y-97311264D03*
X260681574Y-93214311D03*
D13*
X259542923Y-98778615D03*
D16*
X264449826Y-97463814D03*
X254636020Y-100093416D03*
D11*
G36*
X264631579Y-90820404D02*
G01*
X265278626Y-93235219D01*
X262815515Y-93895208D01*
X262168468Y-91480393D01*
X264631579Y-90820404D01*
G37*
G36*
X271273232Y-95674797D02*
G01*
X271920279Y-98089612D01*
X269457168Y-98749601D01*
X268810121Y-96334786D01*
X271273232Y-95674797D01*
G37*
G36*
X282782752Y-94957472D02*
G01*
X283429799Y-97372287D01*
X280966688Y-98032276D01*
X280319641Y-95617461D01*
X282782752Y-94957472D01*
G37*
D12*
X282575607Y-90127508D03*
D13*
X277263015Y-91551013D03*
D14*
X272356112Y-92865814D03*
X282169918Y-90236212D03*
D12*
X271950423Y-92974518D03*
D15*
X273416898Y-96515626D03*
X278790047Y-97249975D03*
D11*
G36*
X270741813Y-89333256D02*
G01*
X271388860Y-91748071D01*
X268925749Y-92408060D01*
X268278702Y-89993245D01*
X270741813Y-89333256D01*
G37*
D15*
X272925437Y-90083662D03*
X278401666Y-85986709D03*
D13*
X277263015Y-91551013D03*
D16*
X282169918Y-90236212D03*
X272356112Y-92865814D03*
D11*
G36*
X282351671Y-83592802D02*
G01*
X282998718Y-86007617D01*
X280535607Y-86667606D01*
X279888560Y-84252791D01*
X282351671Y-83592802D01*
G37*
G36*
X289309240Y-89422182D02*
G01*
X289956287Y-91836997D01*
X287493176Y-92496986D01*
X286846129Y-90082171D01*
X289309240Y-89422182D01*
G37*
G36*
X300818760Y-88704857D02*
G01*
X301465807Y-91119672D01*
X299002696Y-91779661D01*
X298355649Y-89364846D01*
X300818760Y-88704857D01*
G37*
D12*
X300611615Y-83874893D03*
D13*
X295299023Y-85298398D03*
D14*
X290392120Y-86613199D03*
X300205926Y-83983597D03*
D12*
X289986431Y-86721903D03*
D15*
X291452906Y-90263011D03*
X296826055Y-90997360D03*
D11*
G36*
X288777821Y-83080641D02*
G01*
X289424868Y-85495456D01*
X286961757Y-86155445D01*
X286314710Y-83740630D01*
X288777821Y-83080641D01*
G37*
D15*
X290961445Y-83831047D03*
X296437674Y-79734094D03*
D13*
X295299023Y-85298398D03*
D16*
X300205926Y-83983597D03*
X290392120Y-86613199D03*
D11*
G36*
X300387679Y-77340187D02*
G01*
X301034726Y-79755002D01*
X298571615Y-80414991D01*
X297924568Y-78000176D01*
X300387679Y-77340187D01*
G37*
G36*
X308094181Y-85839770D02*
G01*
X308741228Y-88254585D01*
X306278117Y-88914574D01*
X305631070Y-86499759D01*
X308094181Y-85839770D01*
G37*
G36*
X319603701Y-85122445D02*
G01*
X320250748Y-87537260D01*
X317787637Y-88197249D01*
X317140590Y-85782434D01*
X319603701Y-85122445D01*
G37*
D12*
X319396556Y-80292481D03*
D13*
X314083964Y-81715986D03*
D14*
X309177061Y-83030787D03*
X318990867Y-80401185D03*
D12*
X308771372Y-83139491D03*
D15*
X310237847Y-86680599D03*
X315610996Y-87414948D03*
D11*
G36*
X307562762Y-79498229D02*
G01*
X308209809Y-81913044D01*
X305746698Y-82573033D01*
X305099651Y-80158218D01*
X307562762Y-79498229D01*
G37*
D15*
X309746386Y-80248635D03*
X315222615Y-76151682D03*
D13*
X314083964Y-81715986D03*
D16*
X318990867Y-80401185D03*
X309177061Y-83030787D03*
D11*
G36*
X319172620Y-73757775D02*
G01*
X319819667Y-76172590D01*
X317356556Y-76832579D01*
X316709509Y-74417764D01*
X319172620Y-73757775D01*
G37*
G36*
X346527983Y-82055774D02*
G01*
X347175030Y-84470589D01*
X344711919Y-85130578D01*
X344064872Y-82715763D01*
X346527983Y-82055774D01*
G37*
G36*
X358037503Y-81338449D02*
G01*
X358684550Y-83753264D01*
X356221439Y-84413253D01*
X355574392Y-81998438D01*
X358037503Y-81338449D01*
G37*
D12*
X357830358Y-76508485D03*
D13*
X352517766Y-77931990D03*
D14*
X347610863Y-79246791D03*
X357424669Y-76617189D03*
D12*
X347205174Y-79355495D03*
D15*
X348671649Y-82896603D03*
X354044798Y-83630952D03*
D11*
G36*
X345996564Y-75714233D02*
G01*
X346643611Y-78129048D01*
X344180500Y-78789037D01*
X343533453Y-76374222D01*
X345996564Y-75714233D01*
G37*
D15*
X348180188Y-76464639D03*
X353656417Y-72367686D03*
D13*
X352517766Y-77931990D03*
D16*
X357424669Y-76617189D03*
X347610863Y-79246791D03*
D11*
G36*
X357606422Y-69973779D02*
G01*
X358253469Y-72388594D01*
X355790358Y-73048583D01*
X355143311Y-70633768D01*
X357606422Y-69973779D01*
G37*
G36*
X364589678Y-75663485D02*
G01*
X365236725Y-78078300D01*
X362773614Y-78738289D01*
X362126567Y-76323474D01*
X364589678Y-75663485D01*
G37*
G36*
X376099198Y-74946160D02*
G01*
X376746245Y-77360975D01*
X374283134Y-78020964D01*
X373636087Y-75606149D01*
X376099198Y-74946160D01*
G37*
D12*
X375892053Y-70116196D03*
D13*
X370579461Y-71539701D03*
D14*
X365672558Y-72854502D03*
X375486364Y-70224900D03*
D12*
X365266869Y-72963206D03*
D15*
X366733344Y-76504314D03*
X372106493Y-77238663D03*
D11*
G36*
X364058259Y-69321944D02*
G01*
X364705306Y-71736759D01*
X362242195Y-72396748D01*
X361595148Y-69981933D01*
X364058259Y-69321944D01*
G37*
D15*
X366241883Y-70072350D03*
X371718112Y-65975397D03*
D13*
X370579461Y-71539701D03*
D16*
X375486364Y-70224900D03*
X365672558Y-72854502D03*
D11*
G36*
X375668117Y-63581490D02*
G01*
X376315164Y-65996305D01*
X373852053Y-66656294D01*
X373205006Y-64241479D01*
X375668117Y-63581490D01*
G37*
G36*
X37051296Y-90298855D02*
G01*
X36404249Y-92713670D01*
X33941138Y-92053681D01*
X34588185Y-89638866D01*
X37051296Y-90298855D01*
G37*
G36*
X47377496Y-95432393D02*
G01*
X46730449Y-97847208D01*
X44267338Y-97187219D01*
X44914385Y-94772404D01*
X47377496Y-95432393D01*
G37*
D12*
X49613085Y-91145949D03*
D13*
X44300493Y-89722444D03*
D14*
X39393590Y-88407643D03*
X49207396Y-91037245D03*
D12*
X38987901Y-88298939D03*
D15*
X38487351Y-92098867D03*
X42773461Y-95421406D03*
D11*
G36*
X39761844Y-84541209D02*
G01*
X39114797Y-86956024D01*
X36651686Y-86296035D01*
X37298733Y-83881220D01*
X39761844Y-84541209D01*
G37*
D15*
X41277716Y-86282892D03*
X48068745Y-85472941D03*
D13*
X44300493Y-89722444D03*
D16*
X49207396Y-91037245D03*
X39393590Y-88407643D03*
D11*
G36*
X52686503Y-85374759D02*
G01*
X52039456Y-87789574D01*
X49576345Y-87129585D01*
X50223392Y-84714770D01*
X52686503Y-85374759D01*
G37*
G36*
X55181065Y-96691581D02*
G01*
X54534018Y-99106396D01*
X52070907Y-98446407D01*
X52717954Y-96031592D01*
X55181065Y-96691581D01*
G37*
G36*
X65507265Y-101825119D02*
G01*
X64860218Y-104239934D01*
X62397107Y-103579945D01*
X63044154Y-101165130D01*
X65507265Y-101825119D01*
G37*
D12*
X67742854Y-97538675D03*
D13*
X62430262Y-96115170D03*
D14*
X57523359Y-94800369D03*
X67337165Y-97429971D03*
D12*
X57117670Y-94691665D03*
D15*
X56617120Y-98491593D03*
X60903230Y-101814132D03*
D11*
G36*
X57891613Y-90933935D02*
G01*
X57244566Y-93348750D01*
X54781455Y-92688761D01*
X55428502Y-90273946D01*
X57891613Y-90933935D01*
G37*
D15*
X59407485Y-92675618D03*
X66198514Y-91865667D03*
D13*
X62430262Y-96115170D03*
D16*
X67337165Y-97429971D03*
X57523359Y-94800369D03*
D11*
G36*
X70816272Y-91767485D02*
G01*
X70169225Y-94182300D01*
X67706114Y-93522311D01*
X68353161Y-91107496D01*
X70816272Y-91767485D01*
G37*
G36*
X73881974Y-100161586D02*
G01*
X73234927Y-102576401D01*
X70771816Y-101916412D01*
X71418863Y-99501597D01*
X73881974Y-100161586D01*
G37*
G36*
X84208174Y-105295124D02*
G01*
X83561127Y-107709939D01*
X81098016Y-107049950D01*
X81745063Y-104635135D01*
X84208174Y-105295124D01*
G37*
D12*
X86443763Y-101008680D03*
D13*
X81131171Y-99585175D03*
D14*
X76224268Y-98270374D03*
X86038074Y-100899976D03*
D12*
X75818579Y-98161670D03*
D15*
X75318029Y-101961598D03*
X79604139Y-105284137D03*
D11*
G36*
X76592522Y-94403940D02*
G01*
X75945475Y-96818755D01*
X73482364Y-96158766D01*
X74129411Y-93743951D01*
X76592522Y-94403940D01*
G37*
D15*
X78108394Y-96145623D03*
X84899423Y-95335672D03*
D13*
X81131171Y-99585175D03*
D16*
X86038074Y-100899976D03*
X76224268Y-98270374D03*
D11*
G36*
X89517181Y-95237490D02*
G01*
X88870134Y-97652305D01*
X86407023Y-96992316D01*
X87054070Y-94577501D01*
X89517181Y-95237490D01*
G37*
G36*
X93572187Y-100572961D02*
G01*
X92925140Y-102987776D01*
X90462029Y-102327787D01*
X91109076Y-99912972D01*
X93572187Y-100572961D01*
G37*
G36*
X103898387Y-105706499D02*
G01*
X103251340Y-108121314D01*
X100788229Y-107461325D01*
X101435276Y-105046510D01*
X103898387Y-105706499D01*
G37*
D12*
X106133976Y-101420055D03*
D13*
X100821384Y-99996550D03*
D14*
X95914481Y-98681749D03*
X105728287Y-101311351D03*
D12*
X95508792Y-98573045D03*
D15*
X95008242Y-102372973D03*
X99294352Y-105695512D03*
D11*
G36*
X96282735Y-94815315D02*
G01*
X95635688Y-97230130D01*
X93172577Y-96570141D01*
X93819624Y-94155326D01*
X96282735Y-94815315D01*
G37*
D15*
X97798607Y-96556998D03*
X104589636Y-95747047D03*
D13*
X100821384Y-99996550D03*
D16*
X105728287Y-101311351D03*
X95914481Y-98681749D03*
D11*
G36*
X109207394Y-95648865D02*
G01*
X108560347Y-98063680D01*
X106097236Y-97403691D01*
X106744283Y-94988876D01*
X109207394Y-95648865D01*
G37*
G36*
X112276356Y-104226822D02*
G01*
X111629309Y-106641637D01*
X109166198Y-105981648D01*
X109813245Y-103566833D01*
X112276356Y-104226822D01*
G37*
G36*
X122602556Y-109360360D02*
G01*
X121955509Y-111775175D01*
X119492398Y-111115186D01*
X120139445Y-108700371D01*
X122602556Y-109360360D01*
G37*
D12*
X124838145Y-105073916D03*
D13*
X119525553Y-103650411D03*
D14*
X114618650Y-102335610D03*
X124432456Y-104965212D03*
D12*
X114212961Y-102226906D03*
D15*
X113712411Y-106026834D03*
X117998521Y-109349373D03*
D11*
G36*
X114986904Y-98469176D02*
G01*
X114339857Y-100883991D01*
X111876746Y-100224002D01*
X112523793Y-97809187D01*
X114986904Y-98469176D01*
G37*
D15*
X116502776Y-100210859D03*
X123293805Y-99400908D03*
D13*
X119525553Y-103650411D03*
D16*
X124432456Y-104965212D03*
X114618650Y-102335610D03*
D11*
G36*
X127911563Y-99302726D02*
G01*
X127264516Y-101717541D01*
X124801405Y-101057552D01*
X125448452Y-98642737D01*
X127911563Y-99302726D01*
G37*
G36*
X130352507Y-110459317D02*
G01*
X129705460Y-112874132D01*
X127242349Y-112214143D01*
X127889396Y-109799328D01*
X130352507Y-110459317D01*
G37*
G36*
X140678707Y-115592855D02*
G01*
X140031660Y-118007670D01*
X137568549Y-117347681D01*
X138215596Y-114932866D01*
X140678707Y-115592855D01*
G37*
D12*
X142914296Y-111306411D03*
D13*
X137601704Y-109882906D03*
D14*
X132694801Y-108568105D03*
X142508607Y-111197707D03*
D12*
X132289112Y-108459401D03*
D15*
X131788562Y-112259329D03*
X136074672Y-115581868D03*
D11*
G36*
X133063055Y-104701671D02*
G01*
X132416008Y-107116486D01*
X129952897Y-106456497D01*
X130599944Y-104041682D01*
X133063055Y-104701671D01*
G37*
D15*
X134578927Y-106443354D03*
X141369956Y-105633403D03*
D13*
X137601704Y-109882906D03*
D16*
X142508607Y-111197707D03*
X132694801Y-108568105D03*
D11*
G36*
X145987714Y-105535221D02*
G01*
X145340667Y-107950036D01*
X142877556Y-107290047D01*
X143524603Y-104875232D01*
X145987714Y-105535221D01*
G37*
G36*
X148045757Y-117757191D02*
G01*
X147398710Y-120172006D01*
X144935599Y-119512017D01*
X145582646Y-117097202D01*
X148045757Y-117757191D01*
G37*
G36*
X158371957Y-122890729D02*
G01*
X157724910Y-125305544D01*
X155261799Y-124645555D01*
X155908846Y-122230740D01*
X158371957Y-122890729D01*
G37*
D12*
X160607546Y-118604285D03*
D13*
X155294954Y-117180780D03*
D14*
X150388051Y-115865979D03*
X160201857Y-118495581D03*
D12*
X149982362Y-115757275D03*
D15*
X149481812Y-119557203D03*
X153767922Y-122879742D03*
D11*
G36*
X150756305Y-111999545D02*
G01*
X150109258Y-114414360D01*
X147646147Y-113754371D01*
X148293194Y-111339556D01*
X150756305Y-111999545D01*
G37*
D15*
X152272177Y-113741228D03*
X159063206Y-112931277D03*
D13*
X155294954Y-117180780D03*
D16*
X160201857Y-118495581D03*
X150388051Y-115865979D03*
D11*
G36*
X163680964Y-112833095D02*
G01*
X163033917Y-115247910D01*
X160570806Y-114587921D01*
X161217853Y-112173106D01*
X163680964Y-112833095D01*
G37*
D19*
X173354461Y-124370059D03*
X184657461Y-126656059D03*
D12*
X186982461Y-120687059D03*
D13*
X181482461Y-120687059D03*
D14*
X176402461Y-120687059D03*
X186562461Y-120687059D03*
D12*
X175982461Y-120687059D03*
D15*
X176482461Y-124487059D03*
X181482461Y-126587059D03*
D19*
X174482461Y-118107059D03*
D15*
X177672461Y-118147059D03*
X184022461Y-115607059D03*
D13*
X181482461Y-120687059D03*
D16*
X186562461Y-120687059D03*
X176402461Y-120687059D03*
D19*
X187182461Y-115567059D03*
X192341234Y-124371156D03*
X203644234Y-126657156D03*
D12*
X205969234Y-120688156D03*
D13*
X200469234Y-120688156D03*
D14*
X195389234Y-120688156D03*
X205549234Y-120688156D03*
D12*
X194969234Y-120688156D03*
D15*
X195469234Y-124488156D03*
X200469234Y-126588156D03*
D19*
X193469234Y-118108156D03*
D15*
X196659234Y-118148156D03*
X203009234Y-115608156D03*
D13*
X200469234Y-120688156D03*
D16*
X205549234Y-120688156D03*
X195389234Y-120688156D03*
D19*
X206169234Y-115568156D03*
X211331244Y-124371139D03*
X222634244Y-126657139D03*
D12*
X224959244Y-120688139D03*
D13*
X219459244Y-120688139D03*
D14*
X214379244Y-120688139D03*
X224539244Y-120688139D03*
D12*
X213959244Y-120688139D03*
D15*
X214459244Y-124488139D03*
X219459244Y-126588139D03*
D19*
X212459244Y-118108139D03*
D15*
X215649244Y-118148139D03*
X221999244Y-115608139D03*
D13*
X219459244Y-120688139D03*
D16*
X224539244Y-120688139D03*
X214379244Y-120688139D03*
D19*
X225159244Y-115568139D03*
X230312303Y-124371345D03*
X241615303Y-126657345D03*
D12*
X243940303Y-120688345D03*
D13*
X238440303Y-120688345D03*
D14*
X233360303Y-120688345D03*
X243520303Y-120688345D03*
D12*
X232940303Y-120688345D03*
D15*
X233440303Y-124488345D03*
X238440303Y-126588345D03*
D19*
X231440303Y-118108345D03*
D15*
X234630303Y-118148345D03*
X240980303Y-115608345D03*
D13*
X238440303Y-120688345D03*
D16*
X243520303Y-120688345D03*
X233360303Y-120688345D03*
D19*
X244140303Y-115568345D03*
D11*
G36*
X258462513Y-121373317D02*
G01*
X259109560Y-123788132D01*
X256646449Y-124448121D01*
X255999402Y-122033306D01*
X258462513Y-121373317D01*
G37*
G36*
X269972033Y-120655992D02*
G01*
X270619080Y-123070807D01*
X268155969Y-123730796D01*
X267508922Y-121315981D01*
X269972033Y-120655992D01*
G37*
D12*
X269764888Y-115826028D03*
D13*
X264452296Y-117249533D03*
D14*
X259545393Y-118564334D03*
X269359199Y-115934732D03*
D12*
X259139704Y-118673038D03*
D15*
X260606179Y-122214146D03*
X265979328Y-122948495D03*
D11*
G36*
X257931094Y-115031776D02*
G01*
X258578141Y-117446591D01*
X256115030Y-118106580D01*
X255467983Y-115691765D01*
X257931094Y-115031776D01*
G37*
D15*
X260114718Y-115782182D03*
X265590947Y-111685229D03*
D13*
X264452296Y-117249533D03*
D16*
X269359199Y-115934732D03*
X259545393Y-118564334D03*
D11*
G36*
X269540952Y-109291322D02*
G01*
X270187999Y-111706137D01*
X267724888Y-112366126D01*
X267077841Y-109951311D01*
X269540952Y-109291322D01*
G37*
G36*
X276214626Y-114158020D02*
G01*
X276861673Y-116572835D01*
X274398562Y-117232824D01*
X273751515Y-114818009D01*
X276214626Y-114158020D01*
G37*
G36*
X287724146Y-113440695D02*
G01*
X288371193Y-115855510D01*
X285908082Y-116515499D01*
X285261035Y-114100684D01*
X287724146Y-113440695D01*
G37*
D12*
X287517001Y-108610731D03*
D13*
X282204409Y-110034236D03*
D14*
X277297506Y-111349037D03*
X287111312Y-108719435D03*
D12*
X276891817Y-111457741D03*
D15*
X278358292Y-114998849D03*
X283731441Y-115733198D03*
D11*
G36*
X275683207Y-107816479D02*
G01*
X276330254Y-110231294D01*
X273867143Y-110891283D01*
X273220096Y-108476468D01*
X275683207Y-107816479D01*
G37*
D15*
X277866831Y-108566885D03*
X283343060Y-104469932D03*
D13*
X282204409Y-110034236D03*
D16*
X287111312Y-108719435D03*
X277297506Y-111349037D03*
D11*
G36*
X287293065Y-102076025D02*
G01*
X287940112Y-104490840D01*
X285477001Y-105150829D01*
X284829954Y-102736014D01*
X287293065Y-102076025D01*
G37*
G36*
X294322132Y-107859996D02*
G01*
X294969179Y-110274811D01*
X292506068Y-110934800D01*
X291859021Y-108519985D01*
X294322132Y-107859996D01*
G37*
G36*
X305831652Y-107142671D02*
G01*
X306478699Y-109557486D01*
X304015588Y-110217475D01*
X303368541Y-107802660D01*
X305831652Y-107142671D01*
G37*
D12*
X305624507Y-102312707D03*
D13*
X300311915Y-103736212D03*
D14*
X295405012Y-105051013D03*
X305218818Y-102421411D03*
D12*
X294999323Y-105159717D03*
D15*
X296465798Y-108700825D03*
X301838947Y-109435174D03*
D11*
G36*
X293790713Y-101518455D02*
G01*
X294437760Y-103933270D01*
X291974649Y-104593259D01*
X291327602Y-102178444D01*
X293790713Y-101518455D01*
G37*
D15*
X295974337Y-102268861D03*
X301450566Y-98171908D03*
D13*
X300311915Y-103736212D03*
D16*
X305218818Y-102421411D03*
X295405012Y-105051013D03*
D11*
G36*
X305400571Y-95778001D02*
G01*
X306047618Y-98192816D01*
X303584507Y-98852805D01*
X302937460Y-96437990D01*
X305400571Y-95778001D01*
G37*
G36*
X313014940Y-104184562D02*
G01*
X313661987Y-106599377D01*
X311198876Y-107259366D01*
X310551829Y-104844551D01*
X313014940Y-104184562D01*
G37*
G36*
X324524460Y-103467237D02*
G01*
X325171507Y-105882052D01*
X322708396Y-106542041D01*
X322061349Y-104127226D01*
X324524460Y-103467237D01*
G37*
D12*
X324317315Y-98637273D03*
D13*
X319004723Y-100060778D03*
D14*
X314097820Y-101375579D03*
X323911626Y-98745977D03*
D12*
X313692131Y-101484283D03*
D15*
X315158606Y-105025391D03*
X320531755Y-105759740D03*
D11*
G36*
X312483521Y-97843021D02*
G01*
X313130568Y-100257836D01*
X310667457Y-100917825D01*
X310020410Y-98503010D01*
X312483521Y-97843021D01*
G37*
D15*
X314667145Y-98593427D03*
X320143374Y-94496474D03*
D13*
X319004723Y-100060778D03*
D16*
X323911626Y-98745977D03*
X314097820Y-101375579D03*
D11*
G36*
X324093379Y-92102567D02*
G01*
X324740426Y-94517382D01*
X322277315Y-95177371D01*
X321630268Y-92762556D01*
X324093379Y-92102567D01*
G37*
G36*
X332687644Y-103789355D02*
G01*
X333334691Y-106204170D01*
X330871580Y-106864159D01*
X330224533Y-104449344D01*
X332687644Y-103789355D01*
G37*
G36*
X344197164Y-103072030D02*
G01*
X344844211Y-105486845D01*
X342381100Y-106146834D01*
X341734053Y-103732019D01*
X344197164Y-103072030D01*
G37*
D12*
X343990019Y-98242066D03*
D13*
X338677427Y-99665571D03*
D14*
X333770524Y-100980372D03*
X343584330Y-98350770D03*
D12*
X333364835Y-101089076D03*
D15*
X334831310Y-104630184D03*
X340204459Y-105364533D03*
D11*
G36*
X332156225Y-97447814D02*
G01*
X332803272Y-99862629D01*
X330340161Y-100522618D01*
X329693114Y-98107803D01*
X332156225Y-97447814D01*
G37*
D15*
X334339849Y-98198220D03*
X339816078Y-94101267D03*
D13*
X338677427Y-99665571D03*
D16*
X343584330Y-98350770D03*
X333770524Y-100980372D03*
D11*
G36*
X343766083Y-91707360D02*
G01*
X344413130Y-94122175D01*
X341950019Y-94782164D01*
X341302972Y-92367349D01*
X343766083Y-91707360D01*
G37*
G36*
X351436024Y-100325031D02*
G01*
X352083071Y-102739846D01*
X349619960Y-103399835D01*
X348972913Y-100985020D01*
X351436024Y-100325031D01*
G37*
G36*
X362945544Y-99607706D02*
G01*
X363592591Y-102022521D01*
X361129480Y-102682510D01*
X360482433Y-100267695D01*
X362945544Y-99607706D01*
G37*
D12*
X362738399Y-94777742D03*
D13*
X357425807Y-96201247D03*
D14*
X352518904Y-97516048D03*
X362332710Y-94886446D03*
D12*
X352113215Y-97624752D03*
D15*
X353579690Y-101165860D03*
X358952839Y-101900209D03*
D11*
G36*
X350904605Y-93983490D02*
G01*
X351551652Y-96398305D01*
X349088541Y-97058294D01*
X348441494Y-94643479D01*
X350904605Y-93983490D01*
G37*
D15*
X353088229Y-94733896D03*
X358564458Y-90636943D03*
D13*
X357425807Y-96201247D03*
D16*
X362332710Y-94886446D03*
X352518904Y-97516048D03*
D11*
G36*
X362514463Y-88243036D02*
G01*
X363161510Y-90657851D01*
X360698399Y-91317840D01*
X360051352Y-88903025D01*
X362514463Y-88243036D01*
G37*
G36*
X369467840Y-93934356D02*
G01*
X370114887Y-96349171D01*
X367651776Y-97009160D01*
X367004729Y-94594345D01*
X369467840Y-93934356D01*
G37*
G36*
X380977360Y-93217031D02*
G01*
X381624407Y-95631846D01*
X379161296Y-96291835D01*
X378514249Y-93877020D01*
X380977360Y-93217031D01*
G37*
D12*
X380770215Y-88387067D03*
D13*
X375457623Y-89810572D03*
D14*
X370550720Y-91125373D03*
X380364526Y-88495771D03*
D12*
X370145031Y-91234077D03*
D15*
X371611506Y-94775185D03*
X376984655Y-95509534D03*
D11*
G36*
X368936421Y-87592815D02*
G01*
X369583468Y-90007630D01*
X367120357Y-90667619D01*
X366473310Y-88252804D01*
X368936421Y-87592815D01*
G37*
D15*
X371120045Y-88343221D03*
X376596274Y-84246268D03*
D13*
X375457623Y-89810572D03*
D16*
X380364526Y-88495771D03*
X370550720Y-91125373D03*
D11*
G36*
X380546279Y-81852361D02*
G01*
X381193326Y-84267176D01*
X378730215Y-84927165D01*
X378083168Y-82512350D01*
X380546279Y-81852361D01*
G37*
G36*
X32119790Y-108846219D02*
G01*
X31472743Y-111261034D01*
X29009632Y-110601045D01*
X29656679Y-108186230D01*
X32119790Y-108846219D01*
G37*
G36*
X42445990Y-113979757D02*
G01*
X41798943Y-116394572D01*
X39335832Y-115734583D01*
X39982879Y-113319768D01*
X42445990Y-113979757D01*
G37*
D12*
X44681579Y-109693313D03*
D13*
X39368987Y-108269808D03*
D14*
X34462084Y-106955007D03*
X44275890Y-109584609D03*
D12*
X34056395Y-106846303D03*
D15*
X33555845Y-110646231D03*
X37841955Y-113968770D03*
D11*
G36*
X34830338Y-103088573D02*
G01*
X34183291Y-105503388D01*
X31720180Y-104843399D01*
X32367227Y-102428584D01*
X34830338Y-103088573D01*
G37*
D15*
X36346210Y-104830256D03*
X43137239Y-104020305D03*
D13*
X39368987Y-108269808D03*
D16*
X44275890Y-109584609D03*
X34462084Y-106955007D03*
D11*
G36*
X47754997Y-103922123D02*
G01*
X47107950Y-106336938D01*
X44644839Y-105676949D01*
X45291886Y-103262134D01*
X47754997Y-103922123D01*
G37*
G36*
X50170370Y-115263966D02*
G01*
X49523323Y-117678781D01*
X47060212Y-117018792D01*
X47707259Y-114603977D01*
X50170370Y-115263966D01*
G37*
G36*
X60496570Y-120397504D02*
G01*
X59849523Y-122812319D01*
X57386412Y-122152330D01*
X58033459Y-119737515D01*
X60496570Y-120397504D01*
G37*
D12*
X62732159Y-116111060D03*
D13*
X57419567Y-114687555D03*
D14*
X52512664Y-113372754D03*
X62326470Y-116002356D03*
D12*
X52106975Y-113264050D03*
D15*
X51606425Y-117063978D03*
X55892535Y-120386517D03*
D11*
G36*
X52880918Y-109506320D02*
G01*
X52233871Y-111921135D01*
X49770760Y-111261146D01*
X50417807Y-108846331D01*
X52880918Y-109506320D01*
G37*
D15*
X54396790Y-111248003D03*
X61187819Y-110438052D03*
D13*
X57419567Y-114687555D03*
D16*
X62326470Y-116002356D03*
X52512664Y-113372754D03*
D11*
G36*
X65805577Y-110339870D02*
G01*
X65158530Y-112754685D01*
X62695419Y-112094696D01*
X63342466Y-109679881D01*
X65805577Y-110339870D01*
G37*
G36*
X68920085Y-118722221D02*
G01*
X68273038Y-121137036D01*
X65809927Y-120477047D01*
X66456974Y-118062232D01*
X68920085Y-118722221D01*
G37*
G36*
X79246285Y-123855759D02*
G01*
X78599238Y-126270574D01*
X76136127Y-125610585D01*
X76783174Y-123195770D01*
X79246285Y-123855759D01*
G37*
D12*
X81481874Y-119569315D03*
D13*
X76169282Y-118145810D03*
D14*
X71262379Y-116831009D03*
X81076185Y-119460611D03*
D12*
X70856690Y-116722305D03*
D15*
X70356140Y-120522233D03*
X74642250Y-123844772D03*
D11*
G36*
X71630633Y-112964575D02*
G01*
X70983586Y-115379390D01*
X68520475Y-114719401D01*
X69167522Y-112304586D01*
X71630633Y-112964575D01*
G37*
D15*
X73146505Y-114706258D03*
X79937534Y-113896307D03*
D13*
X76169282Y-118145810D03*
D16*
X81076185Y-119460611D03*
X71262379Y-116831009D03*
D11*
G36*
X84555292Y-113798125D02*
G01*
X83908245Y-116212940D01*
X81445134Y-115552951D01*
X82092181Y-113138136D01*
X84555292Y-113798125D01*
G37*
G36*
X88618385Y-119011868D02*
G01*
X87971338Y-121426683D01*
X85508227Y-120766694D01*
X86155274Y-118351879D01*
X88618385Y-119011868D01*
G37*
G36*
X98944585Y-124145406D02*
G01*
X98297538Y-126560221D01*
X95834427Y-125900232D01*
X96481474Y-123485417D01*
X98944585Y-124145406D01*
G37*
D12*
X101180174Y-119858962D03*
D13*
X95867582Y-118435457D03*
D14*
X90960679Y-117120656D03*
X100774485Y-119750258D03*
D12*
X90554990Y-117011952D03*
D15*
X90054440Y-120811880D03*
X94340550Y-124134419D03*
D11*
G36*
X91328933Y-113254222D02*
G01*
X90681886Y-115669037D01*
X88218775Y-115009048D01*
X88865822Y-112594233D01*
X91328933Y-113254222D01*
G37*
D15*
X92844805Y-114995905D03*
X99635834Y-114185954D03*
D13*
X95867582Y-118435457D03*
D16*
X100774485Y-119750258D03*
X90960679Y-117120656D03*
D11*
G36*
X104253592Y-114087772D02*
G01*
X103606545Y-116502587D01*
X101143434Y-115842598D01*
X101790481Y-113427783D01*
X104253592Y-114087772D01*
G37*
G36*
X107298805Y-122646306D02*
G01*
X106651758Y-125061121D01*
X104188647Y-124401132D01*
X104835694Y-121986317D01*
X107298805Y-122646306D01*
G37*
G36*
X117625005Y-127779844D02*
G01*
X116977958Y-130194659D01*
X114514847Y-129534670D01*
X115161894Y-127119855D01*
X117625005Y-127779844D01*
G37*
D12*
X119860594Y-123493400D03*
D13*
X114548002Y-122069895D03*
D14*
X109641099Y-120755094D03*
X119454905Y-123384696D03*
D12*
X109235410Y-120646390D03*
D15*
X108734860Y-124446318D03*
X113020970Y-127768857D03*
D11*
G36*
X110009353Y-116888660D02*
G01*
X109362306Y-119303475D01*
X106899195Y-118643486D01*
X107546242Y-116228671D01*
X110009353Y-116888660D01*
G37*
D15*
X111525225Y-118630343D03*
X118316254Y-117820392D03*
D13*
X114548002Y-122069895D03*
D16*
X119454905Y-123384696D03*
X109641099Y-120755094D03*
D11*
G36*
X122934012Y-117722210D02*
G01*
X122286965Y-120137025D01*
X119823854Y-119477036D01*
X120470901Y-117062221D01*
X122934012Y-117722210D01*
G37*
G36*
X125449443Y-128877003D02*
G01*
X124802396Y-131291818D01*
X122339285Y-130631829D01*
X122986332Y-128217014D01*
X125449443Y-128877003D01*
G37*
G36*
X135775643Y-134010541D02*
G01*
X135128596Y-136425356D01*
X132665485Y-135765367D01*
X133312532Y-133350552D01*
X135775643Y-134010541D01*
G37*
D12*
X138011232Y-129724097D03*
D13*
X132698640Y-128300592D03*
D14*
X127791737Y-126985791D03*
X137605543Y-129615393D03*
D12*
X127386048Y-126877087D03*
D15*
X126885498Y-130677015D03*
X131171608Y-133999554D03*
D11*
G36*
X128159991Y-123119357D02*
G01*
X127512944Y-125534172D01*
X125049833Y-124874183D01*
X125696880Y-122459368D01*
X128159991Y-123119357D01*
G37*
D15*
X129675863Y-124861040D03*
X136466892Y-124051089D03*
D13*
X132698640Y-128300592D03*
D16*
X137605543Y-129615393D03*
X127791737Y-126985791D03*
D11*
G36*
X141084650Y-123952907D02*
G01*
X140437603Y-126367722D01*
X137974492Y-125707733D01*
X138621539Y-123292918D01*
X141084650Y-123952907D01*
G37*
G36*
X143163784Y-136107442D02*
G01*
X142516737Y-138522257D01*
X140053626Y-137862268D01*
X140700673Y-135447453D01*
X143163784Y-136107442D01*
G37*
G36*
X153489984Y-141240980D02*
G01*
X152842937Y-143655795D01*
X150379826Y-142995806D01*
X151026873Y-140580991D01*
X153489984Y-141240980D01*
G37*
D12*
X155725573Y-136954536D03*
D13*
X150412981Y-135531031D03*
D14*
X145506078Y-134216230D03*
X155319884Y-136845832D03*
D12*
X145100389Y-134107526D03*
D15*
X144599839Y-137907454D03*
X148885949Y-141229993D03*
D11*
G36*
X145874332Y-130349796D02*
G01*
X145227285Y-132764611D01*
X142764174Y-132104622D01*
X143411221Y-129689807D01*
X145874332Y-130349796D01*
G37*
D15*
X147390204Y-132091479D03*
X154181233Y-131281528D03*
D13*
X150412981Y-135531031D03*
D16*
X155319884Y-136845832D03*
X145506078Y-134216230D03*
D11*
G36*
X158798991Y-131183346D02*
G01*
X158151944Y-133598161D01*
X155688833Y-132938172D01*
X156335880Y-130523357D01*
X158798991Y-131183346D01*
G37*
D19*
X173351982Y-143380890D03*
X184654982Y-145666890D03*
D12*
X186979982Y-139697890D03*
D13*
X181479982Y-139697890D03*
D14*
X176399982Y-139697890D03*
X186559982Y-139697890D03*
D12*
X175979982Y-139697890D03*
D15*
X176479982Y-143497890D03*
X181479982Y-145597890D03*
D19*
X174479982Y-137117890D03*
D15*
X177669982Y-137157890D03*
X184019982Y-134617890D03*
D13*
X181479982Y-139697890D03*
D16*
X186559982Y-139697890D03*
X176399982Y-139697890D03*
D19*
X187179982Y-134577890D03*
X192353210Y-143372145D03*
X203656210Y-145658145D03*
D12*
X205981210Y-139689145D03*
D13*
X200481210Y-139689145D03*
D14*
X195401210Y-139689145D03*
X205561210Y-139689145D03*
D12*
X194981210Y-139689145D03*
D15*
X195481210Y-143489145D03*
X200481210Y-145589145D03*
D19*
X193481210Y-137109145D03*
D15*
X196671210Y-137149145D03*
X203021210Y-134609145D03*
D13*
X200481210Y-139689145D03*
D16*
X205561210Y-139689145D03*
X195401210Y-139689145D03*
D19*
X206181210Y-134569145D03*
X211329600Y-143360803D03*
X222632600Y-145646803D03*
D12*
X224957600Y-139677803D03*
D13*
X219457600Y-139677803D03*
D14*
X214377600Y-139677803D03*
X224537600Y-139677803D03*
D12*
X213957600Y-139677803D03*
D15*
X214457600Y-143477803D03*
X219457600Y-145577803D03*
D19*
X212457600Y-137097803D03*
D15*
X215647600Y-137137803D03*
X221997600Y-134597803D03*
D13*
X219457600Y-139677803D03*
D16*
X224537600Y-139677803D03*
X214377600Y-139677803D03*
D19*
X225157600Y-134557803D03*
X230326704Y-143367832D03*
X241629704Y-145653832D03*
D12*
X243954704Y-139684832D03*
D13*
X238454704Y-139684832D03*
D14*
X233374704Y-139684832D03*
X243534704Y-139684832D03*
D12*
X232954704Y-139684832D03*
D15*
X233454704Y-143484832D03*
X238454704Y-145584832D03*
D19*
X231454704Y-137104832D03*
D15*
X234644704Y-137144832D03*
X240994704Y-134604832D03*
D13*
X238454704Y-139684832D03*
D16*
X243534704Y-139684832D03*
X233374704Y-139684832D03*
D19*
X244154704Y-134564832D03*
D11*
G36*
X263390429Y-139741210D02*
G01*
X264037476Y-142156025D01*
X261574365Y-142816014D01*
X260927318Y-140401199D01*
X263390429Y-139741210D01*
G37*
G36*
X274899949Y-139023885D02*
G01*
X275546996Y-141438700D01*
X273083885Y-142098689D01*
X272436838Y-139683874D01*
X274899949Y-139023885D01*
G37*
D12*
X274692804Y-134193921D03*
D13*
X269380212Y-135617426D03*
D14*
X264473309Y-136932227D03*
X274287115Y-134302625D03*
D12*
X264067620Y-137040931D03*
D15*
X265534095Y-140582039D03*
X270907244Y-141316388D03*
D11*
G36*
X262859010Y-133399669D02*
G01*
X263506057Y-135814484D01*
X261042946Y-136474473D01*
X260395899Y-134059658D01*
X262859010Y-133399669D01*
G37*
D15*
X265042634Y-134150075D03*
X270518863Y-130053122D03*
D13*
X269380212Y-135617426D03*
D16*
X274287115Y-134302625D03*
X264473309Y-136932227D03*
D11*
G36*
X274468868Y-127659215D02*
G01*
X275115915Y-130074030D01*
X272652804Y-130734019D01*
X272005757Y-128319204D01*
X274468868Y-127659215D01*
G37*
G36*
X281144673Y-132527636D02*
G01*
X281791720Y-134942451D01*
X279328609Y-135602440D01*
X278681562Y-133187625D01*
X281144673Y-132527636D01*
G37*
G36*
X292654193Y-131810311D02*
G01*
X293301240Y-134225126D01*
X290838129Y-134885115D01*
X290191082Y-132470300D01*
X292654193Y-131810311D01*
G37*
D12*
X292447048Y-126980347D03*
D13*
X287134456Y-128403852D03*
D14*
X282227553Y-129718653D03*
X292041359Y-127089051D03*
D12*
X281821864Y-129827357D03*
D15*
X283288339Y-133368465D03*
X288661488Y-134102814D03*
D11*
G36*
X280613254Y-126186095D02*
G01*
X281260301Y-128600910D01*
X278797190Y-129260899D01*
X278150143Y-126846084D01*
X280613254Y-126186095D01*
G37*
D15*
X282796878Y-126936501D03*
X288273107Y-122839548D03*
D13*
X287134456Y-128403852D03*
D16*
X292041359Y-127089051D03*
X282227553Y-129718653D03*
D11*
G36*
X292223112Y-120445641D02*
G01*
X292870159Y-122860456D01*
X290407048Y-123520445D01*
X289760001Y-121105630D01*
X292223112Y-120445641D01*
G37*
G36*
X299265094Y-126337894D02*
G01*
X299912141Y-128752709D01*
X297449030Y-129412698D01*
X296801983Y-126997883D01*
X299265094Y-126337894D01*
G37*
G36*
X310774614Y-125620569D02*
G01*
X311421661Y-128035384D01*
X308958550Y-128695373D01*
X308311503Y-126280558D01*
X310774614Y-125620569D01*
G37*
D12*
X310567469Y-120790605D03*
D13*
X305254877Y-122214110D03*
D14*
X300347974Y-123528911D03*
X310161780Y-120899309D03*
D12*
X299942285Y-123637615D03*
D15*
X301408760Y-127178723D03*
X306781909Y-127913072D03*
D11*
G36*
X298733675Y-119996353D02*
G01*
X299380722Y-122411168D01*
X296917611Y-123071157D01*
X296270564Y-120656342D01*
X298733675Y-119996353D01*
G37*
D15*
X300917299Y-120746759D03*
X306393528Y-116649806D03*
D13*
X305254877Y-122214110D03*
D16*
X310161780Y-120899309D03*
X300347974Y-123528911D03*
D11*
G36*
X310343533Y-114255899D02*
G01*
X310990580Y-116670714D01*
X308527469Y-117330703D01*
X307880422Y-114915888D01*
X310343533Y-114255899D01*
G37*
G36*
X317931806Y-122648798D02*
G01*
X318578853Y-125063613D01*
X316115742Y-125723602D01*
X315468695Y-123308787D01*
X317931806Y-122648798D01*
G37*
G36*
X329441326Y-121931473D02*
G01*
X330088373Y-124346288D01*
X327625262Y-125006277D01*
X326978215Y-122591462D01*
X329441326Y-121931473D01*
G37*
D12*
X329234181Y-117101509D03*
D13*
X323921589Y-118525014D03*
D14*
X319014686Y-119839815D03*
X328828492Y-117210213D03*
D12*
X318608997Y-119948519D03*
D15*
X320075472Y-123489627D03*
X325448621Y-124223976D03*
D11*
G36*
X317400387Y-116307257D02*
G01*
X318047434Y-118722072D01*
X315584323Y-119382061D01*
X314937276Y-116967246D01*
X317400387Y-116307257D01*
G37*
D15*
X319584011Y-117057663D03*
X325060240Y-112960710D03*
D13*
X323921589Y-118525014D03*
D16*
X328828492Y-117210213D03*
X319014686Y-119839815D03*
D11*
G36*
X329010245Y-110566803D02*
G01*
X329657292Y-112981618D01*
X327194181Y-113641607D01*
X326547134Y-111226792D01*
X329010245Y-110566803D01*
G37*
G36*
X337639226Y-122342256D02*
G01*
X338286273Y-124757071D01*
X335823162Y-125417060D01*
X335176115Y-123002245D01*
X337639226Y-122342256D01*
G37*
G36*
X349148746Y-121624931D02*
G01*
X349795793Y-124039746D01*
X347332682Y-124699735D01*
X346685635Y-122284920D01*
X349148746Y-121624931D01*
G37*
D12*
X348941601Y-116794967D03*
D13*
X343629009Y-118218472D03*
D14*
X338722106Y-119533273D03*
X348535912Y-116903671D03*
D12*
X338316417Y-119641977D03*
D15*
X339782892Y-123183085D03*
X345156041Y-123917434D03*
D11*
G36*
X337107807Y-116000715D02*
G01*
X337754854Y-118415530D01*
X335291743Y-119075519D01*
X334644696Y-116660704D01*
X337107807Y-116000715D01*
G37*
D15*
X339291431Y-116751121D03*
X344767660Y-112654168D03*
D13*
X343629009Y-118218472D03*
D16*
X348535912Y-116903671D03*
X338722106Y-119533273D03*
D11*
G36*
X348717665Y-110260261D02*
G01*
X349364712Y-112675076D01*
X346901601Y-113335065D01*
X346254554Y-110920250D01*
X348717665Y-110260261D01*
G37*
G36*
X374427584Y-112504226D02*
G01*
X375074631Y-114919041D01*
X372611520Y-115579030D01*
X371964473Y-113164215D01*
X374427584Y-112504226D01*
G37*
G36*
X385937104Y-111786901D02*
G01*
X386584151Y-114201716D01*
X384121040Y-114861705D01*
X383473993Y-112446890D01*
X385937104Y-111786901D01*
G37*
D12*
X385729959Y-106956937D03*
D13*
X380417367Y-108380442D03*
D14*
X375510464Y-109695243D03*
X385324270Y-107065641D03*
D12*
X375104775Y-109803947D03*
D15*
X376571250Y-113345055D03*
X381944399Y-114079404D03*
D11*
G36*
X373896165Y-106162685D02*
G01*
X374543212Y-108577500D01*
X372080101Y-109237489D01*
X371433054Y-106822674D01*
X373896165Y-106162685D01*
G37*
D15*
X376079789Y-106913091D03*
X381556018Y-102816138D03*
D13*
X380417367Y-108380442D03*
D16*
X385324270Y-107065641D03*
X375510464Y-109695243D03*
D11*
G36*
X385506023Y-100422231D02*
G01*
X386153070Y-102837046D01*
X383689959Y-103497035D01*
X383042912Y-101082220D01*
X385506023Y-100422231D01*
G37*
G36*
X27181762Y-127235273D02*
G01*
X26534715Y-129650088D01*
X24071604Y-128990099D01*
X24718651Y-126575284D01*
X27181762Y-127235273D01*
G37*
G36*
X37507962Y-132368811D02*
G01*
X36860915Y-134783626D01*
X34397804Y-134123637D01*
X35044851Y-131708822D01*
X37507962Y-132368811D01*
G37*
D12*
X39743551Y-128082367D03*
D13*
X34430959Y-126658862D03*
D14*
X29524056Y-125344061D03*
X39337862Y-127973663D03*
D12*
X29118367Y-125235357D03*
D15*
X28617817Y-129035285D03*
X32903927Y-132357824D03*
D11*
G36*
X29892310Y-121477627D02*
G01*
X29245263Y-123892442D01*
X26782152Y-123232453D01*
X27429199Y-120817638D01*
X29892310Y-121477627D01*
G37*
D15*
X31408182Y-123219310D03*
X38199211Y-122409359D03*
D13*
X34430959Y-126658862D03*
D16*
X39337862Y-127973663D03*
X29524056Y-125344061D03*
D11*
G36*
X42816969Y-122311177D02*
G01*
X42169922Y-124725992D01*
X39706811Y-124066003D01*
X40353858Y-121651188D01*
X42816969Y-122311177D01*
G37*
G36*
X45235964Y-133598648D02*
G01*
X44588917Y-136013463D01*
X42125806Y-135353474D01*
X42772853Y-132938659D01*
X45235964Y-133598648D01*
G37*
G36*
X55562164Y-138732186D02*
G01*
X54915117Y-141147001D01*
X52452006Y-140487012D01*
X53099053Y-138072197D01*
X55562164Y-138732186D01*
G37*
D12*
X57797753Y-134445742D03*
D13*
X52485161Y-133022237D03*
D14*
X47578258Y-131707436D03*
X57392064Y-134337038D03*
D12*
X47172569Y-131598732D03*
D15*
X46672019Y-135398660D03*
X50958129Y-138721199D03*
D11*
G36*
X47946512Y-127841002D02*
G01*
X47299465Y-130255817D01*
X44836354Y-129595828D01*
X45483401Y-127181013D01*
X47946512Y-127841002D01*
G37*
D15*
X49462384Y-129582685D03*
X56253413Y-128772734D03*
D13*
X52485161Y-133022237D03*
D16*
X57392064Y-134337038D03*
X47578258Y-131707436D03*
D11*
G36*
X60871171Y-128674552D02*
G01*
X60224124Y-131089367D01*
X57761013Y-130429378D01*
X58408060Y-128014563D01*
X60871171Y-128674552D01*
G37*
G36*
X64005238Y-137064950D02*
G01*
X63358191Y-139479765D01*
X60895080Y-138819776D01*
X61542127Y-136404961D01*
X64005238Y-137064950D01*
G37*
G36*
X74331438Y-142198488D02*
G01*
X73684391Y-144613303D01*
X71221280Y-143953314D01*
X71868327Y-141538499D01*
X74331438Y-142198488D01*
G37*
D12*
X76567027Y-137912044D03*
D13*
X71254435Y-136488539D03*
D14*
X66347532Y-135173738D03*
X76161338Y-137803340D03*
D12*
X65941843Y-135065034D03*
D15*
X65441293Y-138864962D03*
X69727403Y-142187501D03*
D11*
G36*
X66715786Y-131307304D02*
G01*
X66068739Y-133722119D01*
X63605628Y-133062130D01*
X64252675Y-130647315D01*
X66715786Y-131307304D01*
G37*
D15*
X68231658Y-133048987D03*
X75022687Y-132239036D03*
D13*
X71254435Y-136488539D03*
D16*
X76161338Y-137803340D03*
X66347532Y-135173738D03*
D11*
G36*
X79640445Y-132140854D02*
G01*
X78993398Y-134555669D01*
X76530287Y-133895680D01*
X77177334Y-131480865D01*
X79640445Y-132140854D01*
G37*
G36*
X83642973Y-137477986D02*
G01*
X82995926Y-139892801D01*
X80532815Y-139232812D01*
X81179862Y-136817997D01*
X83642973Y-137477986D01*
G37*
G36*
X93969173Y-142611524D02*
G01*
X93322126Y-145026339D01*
X90859015Y-144366350D01*
X91506062Y-141951535D01*
X93969173Y-142611524D01*
G37*
D12*
X96204762Y-138325080D03*
D13*
X90892170Y-136901575D03*
D14*
X85985267Y-135586774D03*
X95799073Y-138216376D03*
D12*
X85579578Y-135478070D03*
D15*
X85079028Y-139277998D03*
X89365138Y-142600537D03*
D11*
G36*
X86353521Y-131720340D02*
G01*
X85706474Y-134135155D01*
X83243363Y-133475166D01*
X83890410Y-131060351D01*
X86353521Y-131720340D01*
G37*
D15*
X87869393Y-133462023D03*
X94660422Y-132652072D03*
D13*
X90892170Y-136901575D03*
D16*
X95799073Y-138216376D03*
X85985267Y-135586774D03*
D11*
G36*
X99278180Y-132553890D02*
G01*
X98631133Y-134968705D01*
X96168022Y-134308716D01*
X96815069Y-131893901D01*
X99278180Y-132553890D01*
G37*
G36*
X102393507Y-141055666D02*
G01*
X101746460Y-143470481D01*
X99283349Y-142810492D01*
X99930396Y-140395677D01*
X102393507Y-141055666D01*
G37*
G36*
X112719707Y-146189204D02*
G01*
X112072660Y-148604019D01*
X109609549Y-147944030D01*
X110256596Y-145529215D01*
X112719707Y-146189204D01*
G37*
D12*
X114955296Y-141902760D03*
D13*
X109642704Y-140479255D03*
D14*
X104735801Y-139164454D03*
X114549607Y-141794056D03*
D12*
X104330112Y-139055750D03*
D15*
X103829562Y-142855678D03*
X108115672Y-146178217D03*
D11*
G36*
X105104055Y-135298020D02*
G01*
X104457008Y-137712835D01*
X101993897Y-137052846D01*
X102640944Y-134638031D01*
X105104055Y-135298020D01*
G37*
D15*
X106619927Y-137039703D03*
X113410956Y-136229752D03*
D13*
X109642704Y-140479255D03*
D16*
X114549607Y-141794056D03*
X104735801Y-139164454D03*
D11*
G36*
X118028714Y-136131570D02*
G01*
X117381667Y-138546385D01*
X114918556Y-137886396D01*
X115565603Y-135471581D01*
X118028714Y-136131570D01*
G37*
G36*
X120494578Y-147342903D02*
G01*
X119847531Y-149757718D01*
X117384420Y-149097729D01*
X118031467Y-146682914D01*
X120494578Y-147342903D01*
G37*
G36*
X130820778Y-152476441D02*
G01*
X130173731Y-154891256D01*
X127710620Y-154231267D01*
X128357667Y-151816452D01*
X130820778Y-152476441D01*
G37*
D12*
X133056367Y-148189997D03*
D13*
X127743775Y-146766492D03*
D14*
X122836872Y-145451691D03*
X132650678Y-148081293D03*
D12*
X122431183Y-145342987D03*
D15*
X121930633Y-149142915D03*
X126216743Y-152465454D03*
D11*
G36*
X123205126Y-141585257D02*
G01*
X122558079Y-144000072D01*
X120094968Y-143340083D01*
X120742015Y-140925268D01*
X123205126Y-141585257D01*
G37*
D15*
X124720998Y-143326940D03*
X131512027Y-142516989D03*
D13*
X127743775Y-146766492D03*
D16*
X132650678Y-148081293D03*
X122836872Y-145451691D03*
D11*
G36*
X136129785Y-142418807D02*
G01*
X135482738Y-144833622D01*
X133019627Y-144173633D01*
X133666674Y-141758818D01*
X136129785Y-142418807D01*
G37*
G36*
X138236659Y-154474762D02*
G01*
X137589612Y-156889577D01*
X135126501Y-156229588D01*
X135773548Y-153814773D01*
X138236659Y-154474762D01*
G37*
G36*
X148562859Y-159608300D02*
G01*
X147915812Y-162023115D01*
X145452701Y-161363126D01*
X146099748Y-158948311D01*
X148562859Y-159608300D01*
G37*
D12*
X150798448Y-155321856D03*
D13*
X145485856Y-153898351D03*
D14*
X140578953Y-152583550D03*
X150392759Y-155213152D03*
D12*
X140173264Y-152474846D03*
D15*
X139672714Y-156274774D03*
X143958824Y-159597313D03*
D11*
G36*
X140947207Y-148717116D02*
G01*
X140300160Y-151131931D01*
X137837049Y-150471942D01*
X138484096Y-148057127D01*
X140947207Y-148717116D01*
G37*
D15*
X142463079Y-150458799D03*
X149254108Y-149648848D03*
D13*
X145485856Y-153898351D03*
D16*
X150392759Y-155213152D03*
X140578953Y-152583550D03*
D11*
G36*
X153871866Y-149550666D02*
G01*
X153224819Y-151965481D01*
X150761708Y-151305492D01*
X151408755Y-148890677D01*
X153871866Y-149550666D01*
G37*
D19*
X173362210Y-162402962D03*
X184665210Y-164688962D03*
D12*
X186990210Y-158719962D03*
D13*
X181490210Y-158719962D03*
D14*
X176410210Y-158719962D03*
X186570210Y-158719962D03*
D12*
X175990210Y-158719962D03*
D15*
X176490210Y-162519962D03*
X181490210Y-164619962D03*
D19*
X174490210Y-156139962D03*
D15*
X177680210Y-156179962D03*
X184030210Y-153639962D03*
D13*
X181490210Y-158719962D03*
D16*
X186570210Y-158719962D03*
X176410210Y-158719962D03*
D19*
X187190210Y-153599962D03*
X192353345Y-162403277D03*
X203656345Y-164689277D03*
D12*
X205981345Y-158720277D03*
D13*
X200481345Y-158720277D03*
D14*
X195401345Y-158720277D03*
X205561345Y-158720277D03*
D12*
X194981345Y-158720277D03*
D15*
X195481345Y-162520277D03*
X200481345Y-164620277D03*
D19*
X193481345Y-156140277D03*
D15*
X196671345Y-156180277D03*
X203021345Y-153640277D03*
D13*
X200481345Y-158720277D03*
D16*
X205561345Y-158720277D03*
X195401345Y-158720277D03*
D19*
X206181345Y-153600277D03*
X211346685Y-162386844D03*
X222649685Y-164672844D03*
D12*
X224974685Y-158703844D03*
D13*
X219474685Y-158703844D03*
D14*
X214394685Y-158703844D03*
X224554685Y-158703844D03*
D12*
X213974685Y-158703844D03*
D15*
X214474685Y-162503844D03*
X219474685Y-164603844D03*
D19*
X212474685Y-156123844D03*
D15*
X215664685Y-156163844D03*
X222014685Y-153623844D03*
D13*
X219474685Y-158703844D03*
D16*
X224554685Y-158703844D03*
X214394685Y-158703844D03*
D19*
X225174685Y-153583844D03*
X230338643Y-162384118D03*
X241641643Y-164670118D03*
D12*
X243966643Y-158701118D03*
D13*
X238466643Y-158701118D03*
D14*
X233386643Y-158701118D03*
X243546643Y-158701118D03*
D12*
X232966643Y-158701118D03*
D15*
X233466643Y-162501118D03*
X238466643Y-164601118D03*
D19*
X231466643Y-156121118D03*
D15*
X234656643Y-156161118D03*
X241006643Y-153621118D03*
D13*
X238466643Y-158701118D03*
D16*
X243546643Y-158701118D03*
X233386643Y-158701118D03*
D19*
X244166643Y-153581118D03*
D11*
G36*
X268326662Y-158097072D02*
G01*
X268973709Y-160511887D01*
X266510598Y-161171876D01*
X265863551Y-158757061D01*
X268326662Y-158097072D01*
G37*
G36*
X279836182Y-157379747D02*
G01*
X280483229Y-159794562D01*
X278020118Y-160454551D01*
X277373071Y-158039736D01*
X279836182Y-157379747D01*
G37*
D12*
X279629037Y-152549783D03*
D13*
X274316445Y-153973288D03*
D14*
X269409542Y-155288089D03*
X279223348Y-152658487D03*
D12*
X269003853Y-155396793D03*
D15*
X270470328Y-158937901D03*
X275843477Y-159672250D03*
D11*
G36*
X267795243Y-151755531D02*
G01*
X268442290Y-154170346D01*
X265979179Y-154830335D01*
X265332132Y-152415520D01*
X267795243Y-151755531D01*
G37*
D15*
X269978867Y-152505937D03*
X275455096Y-148408984D03*
D13*
X274316445Y-153973288D03*
D16*
X279223348Y-152658487D03*
X269409542Y-155288089D03*
D11*
G36*
X279405101Y-146015077D02*
G01*
X280052148Y-148429892D01*
X277589037Y-149089881D01*
X276941990Y-146675066D01*
X279405101Y-146015077D01*
G37*
G36*
X286072191Y-150941548D02*
G01*
X286719238Y-153356363D01*
X284256127Y-154016352D01*
X283609080Y-151601537D01*
X286072191Y-150941548D01*
G37*
G36*
X297581711Y-150224223D02*
G01*
X298228758Y-152639038D01*
X295765647Y-153299027D01*
X295118600Y-150884212D01*
X297581711Y-150224223D01*
G37*
D12*
X297374566Y-145394259D03*
D13*
X292061974Y-146817764D03*
D14*
X287155071Y-148132565D03*
X296968877Y-145502963D03*
D12*
X286749382Y-148241269D03*
D15*
X288215857Y-151782377D03*
X293589006Y-152516726D03*
D11*
G36*
X285540772Y-144600007D02*
G01*
X286187819Y-147014822D01*
X283724708Y-147674811D01*
X283077661Y-145259996D01*
X285540772Y-144600007D01*
G37*
D15*
X287724396Y-145350413D03*
X293200625Y-141253460D03*
D13*
X292061974Y-146817764D03*
D16*
X296968877Y-145502963D03*
X287155071Y-148132565D03*
D11*
G36*
X297150630Y-138859553D02*
G01*
X297797677Y-141274368D01*
X295334566Y-141934357D01*
X294687519Y-139519542D01*
X297150630Y-138859553D01*
G37*
G36*
X304194415Y-144671123D02*
G01*
X304841462Y-147085938D01*
X302378351Y-147745927D01*
X301731304Y-145331112D01*
X304194415Y-144671123D01*
G37*
G36*
X315703935Y-143953798D02*
G01*
X316350982Y-146368613D01*
X313887871Y-147028602D01*
X313240824Y-144613787D01*
X315703935Y-143953798D01*
G37*
D12*
X315496790Y-139123834D03*
D13*
X310184198Y-140547339D03*
D14*
X305277295Y-141862140D03*
X315091101Y-139232538D03*
D12*
X304871606Y-141970844D03*
D15*
X306338081Y-145511952D03*
X311711230Y-146246301D03*
D11*
G36*
X303662996Y-138329582D02*
G01*
X304310043Y-140744397D01*
X301846932Y-141404386D01*
X301199885Y-138989571D01*
X303662996Y-138329582D01*
G37*
D15*
X305846620Y-139079988D03*
X311322849Y-134983035D03*
D13*
X310184198Y-140547339D03*
D16*
X315091101Y-139232538D03*
X305277295Y-141862140D03*
D11*
G36*
X315272854Y-132589128D02*
G01*
X315919901Y-135003943D01*
X313456790Y-135663932D01*
X312809743Y-133249117D01*
X315272854Y-132589128D01*
G37*
G36*
X322892412Y-141085735D02*
G01*
X323539459Y-143500550D01*
X321076348Y-144160539D01*
X320429301Y-141745724D01*
X322892412Y-141085735D01*
G37*
G36*
X334401932Y-140368410D02*
G01*
X335048979Y-142783225D01*
X332585868Y-143443214D01*
X331938821Y-141028399D01*
X334401932Y-140368410D01*
G37*
D12*
X334194787Y-135538446D03*
D13*
X328882195Y-136961951D03*
D14*
X323975292Y-138276752D03*
X333789098Y-135647150D03*
D12*
X323569603Y-138385456D03*
D15*
X325036078Y-141926564D03*
X330409227Y-142660913D03*
D11*
G36*
X322360993Y-134744194D02*
G01*
X323008040Y-137159009D01*
X320544929Y-137818998D01*
X319897882Y-135404183D01*
X322360993Y-134744194D01*
G37*
D15*
X324544617Y-135494600D03*
X330020846Y-131397647D03*
D13*
X328882195Y-136961951D03*
D16*
X333789098Y-135647150D03*
X323975292Y-138276752D03*
D11*
G36*
X333970851Y-129003740D02*
G01*
X334617898Y-131418555D01*
X332154787Y-132078544D01*
X331507740Y-129663729D01*
X333970851Y-129003740D01*
G37*
G36*
X342564385Y-140701835D02*
G01*
X343211432Y-143116650D01*
X340748321Y-143776639D01*
X340101274Y-141361824D01*
X342564385Y-140701835D01*
G37*
G36*
X354073905Y-139984510D02*
G01*
X354720952Y-142399325D01*
X352257841Y-143059314D01*
X351610794Y-140644499D01*
X354073905Y-139984510D01*
G37*
D12*
X353866760Y-135154546D03*
D13*
X348554168Y-136578051D03*
D14*
X343647265Y-137892852D03*
X353461071Y-135263250D03*
D12*
X343241576Y-138001556D03*
D15*
X344708051Y-141542664D03*
X350081200Y-142277013D03*
D11*
G36*
X342032966Y-134360294D02*
G01*
X342680013Y-136775109D01*
X340216902Y-137435098D01*
X339569855Y-135020283D01*
X342032966Y-134360294D01*
G37*
D15*
X344216590Y-135110700D03*
X349692819Y-131013747D03*
D13*
X348554168Y-136578051D03*
D16*
X353461071Y-135263250D03*
X343647265Y-137892852D03*
D11*
G36*
X353642824Y-128619840D02*
G01*
X354289871Y-131034655D01*
X351826760Y-131694644D01*
X351179713Y-129279829D01*
X353642824Y-128619840D01*
G37*
G36*
X361339392Y-137196279D02*
G01*
X361986439Y-139611094D01*
X359523328Y-140271083D01*
X358876281Y-137856268D01*
X361339392Y-137196279D01*
G37*
G36*
X372848912Y-136478954D02*
G01*
X373495959Y-138893769D01*
X371032848Y-139553758D01*
X370385801Y-137138943D01*
X372848912Y-136478954D01*
G37*
D12*
X372641767Y-131648990D03*
D13*
X367329175Y-133072495D03*
D14*
X362422272Y-134387296D03*
X372236078Y-131757694D03*
D12*
X362016583Y-134496000D03*
D15*
X363483058Y-138037108D03*
X368856207Y-138771457D03*
D11*
G36*
X360807973Y-130854738D02*
G01*
X361455020Y-133269553D01*
X358991909Y-133929542D01*
X358344862Y-131514727D01*
X360807973Y-130854738D01*
G37*
D15*
X362991597Y-131605144D03*
X368467826Y-127508191D03*
D13*
X367329175Y-133072495D03*
D16*
X372236078Y-131757694D03*
X362422272Y-134387296D03*
D11*
G36*
X372417831Y-125114284D02*
G01*
X373064878Y-127529099D01*
X370601767Y-128189088D01*
X369954720Y-125774273D01*
X372417831Y-125114284D01*
G37*
G36*
X379354939Y-130815727D02*
G01*
X380001986Y-133230542D01*
X377538875Y-133890531D01*
X376891828Y-131475716D01*
X379354939Y-130815727D01*
G37*
G36*
X390864459Y-130098402D02*
G01*
X391511506Y-132513217D01*
X389048395Y-133173206D01*
X388401348Y-130758391D01*
X390864459Y-130098402D01*
G37*
D12*
X390657314Y-125268438D03*
D13*
X385344722Y-126691943D03*
D14*
X380437819Y-128006744D03*
X390251625Y-125377142D03*
D12*
X380032130Y-128115448D03*
D15*
X381498605Y-131656556D03*
X386871754Y-132390905D03*
D11*
G36*
X378823520Y-124474186D02*
G01*
X379470567Y-126889001D01*
X377007456Y-127548990D01*
X376360409Y-125134175D01*
X378823520Y-124474186D01*
G37*
D15*
X381007144Y-125224592D03*
X386483373Y-121127639D03*
D13*
X385344722Y-126691943D03*
D16*
X390251625Y-125377142D03*
X380437819Y-128006744D03*
D11*
G36*
X390433378Y-118733732D02*
G01*
X391080425Y-121148547D01*
X388617314Y-121808536D01*
X387970267Y-119393721D01*
X390433378Y-118733732D01*
G37*
G36*
X22273720Y-145652196D02*
G01*
X21626673Y-148067011D01*
X19163562Y-147407022D01*
X19810609Y-144992207D01*
X22273720Y-145652196D01*
G37*
G36*
X32599920Y-150785734D02*
G01*
X31952873Y-153200549D01*
X29489762Y-152540560D01*
X30136809Y-150125745D01*
X32599920Y-150785734D01*
G37*
D12*
X34835509Y-146499290D03*
D13*
X29522917Y-145075785D03*
D14*
X24616014Y-143760984D03*
X34429820Y-146390586D03*
D12*
X24210325Y-143652280D03*
D15*
X23709775Y-147452208D03*
X27995885Y-150774747D03*
D11*
G36*
X24984268Y-139894550D02*
G01*
X24337221Y-142309365D01*
X21874110Y-141649376D01*
X22521157Y-139234561D01*
X24984268Y-139894550D01*
G37*
D15*
X26500140Y-141636233D03*
X33291169Y-140826282D03*
D13*
X29522917Y-145075785D03*
D16*
X34429820Y-146390586D03*
X24616014Y-143760984D03*
D11*
G36*
X37908927Y-140728100D02*
G01*
X37261880Y-143142915D01*
X34798769Y-142482926D01*
X35445816Y-140068111D01*
X37908927Y-140728100D01*
G37*
G36*
X59071140Y-155492382D02*
G01*
X58424093Y-157907197D01*
X55960982Y-157247208D01*
X56608029Y-154832393D01*
X59071140Y-155492382D01*
G37*
G36*
X69397340Y-160625920D02*
G01*
X68750293Y-163040735D01*
X66287182Y-162380746D01*
X66934229Y-159965931D01*
X69397340Y-160625920D01*
G37*
D12*
X71632929Y-156339476D03*
D13*
X66320337Y-154915971D03*
D14*
X61413434Y-153601170D03*
X71227240Y-156230772D03*
D12*
X61007745Y-153492466D03*
D15*
X60507195Y-157292394D03*
X64793305Y-160614933D03*
D11*
G36*
X61781688Y-149734736D02*
G01*
X61134641Y-152149551D01*
X58671530Y-151489562D01*
X59318577Y-149074747D01*
X61781688Y-149734736D01*
G37*
D15*
X63297560Y-151476419D03*
X70088589Y-150666468D03*
D13*
X66320337Y-154915971D03*
D16*
X71227240Y-156230772D03*
X61413434Y-153601170D03*
D11*
G36*
X74706347Y-150568286D02*
G01*
X74059300Y-152983101D01*
X71596189Y-152323112D01*
X72243236Y-149908297D01*
X74706347Y-150568286D01*
G37*
G36*
X78731353Y-155866169D02*
G01*
X78084306Y-158280984D01*
X75621195Y-157620995D01*
X76268242Y-155206180D01*
X78731353Y-155866169D01*
G37*
G36*
X89057553Y-160999707D02*
G01*
X88410506Y-163414522D01*
X85947395Y-162754533D01*
X86594442Y-160339718D01*
X89057553Y-160999707D01*
G37*
D12*
X91293142Y-156713263D03*
D13*
X85980550Y-155289758D03*
D14*
X81073647Y-153974957D03*
X90887453Y-156604559D03*
D12*
X80667958Y-153866253D03*
D15*
X80167408Y-157666181D03*
X84453518Y-160988720D03*
D11*
G36*
X81441901Y-150108523D02*
G01*
X80794854Y-152523338D01*
X78331743Y-151863349D01*
X78978790Y-149448534D01*
X81441901Y-150108523D01*
G37*
D15*
X82957773Y-151850206D03*
X89748802Y-151040255D03*
D13*
X85980550Y-155289758D03*
D16*
X90887453Y-156604559D03*
X81073647Y-153974957D03*
D11*
G36*
X94366560Y-150942073D02*
G01*
X93719513Y-153356888D01*
X91256402Y-152696899D01*
X91903449Y-150282084D01*
X94366560Y-150942073D01*
G37*
G36*
X97462211Y-159449166D02*
G01*
X96815164Y-161863981D01*
X94352053Y-161203992D01*
X94999100Y-158789177D01*
X97462211Y-159449166D01*
G37*
G36*
X107788411Y-164582704D02*
G01*
X107141364Y-166997519D01*
X104678253Y-166337530D01*
X105325300Y-163922715D01*
X107788411Y-164582704D01*
G37*
D12*
X110024000Y-160296260D03*
D13*
X104711408Y-158872755D03*
D14*
X99804505Y-157557954D03*
X109618311Y-160187556D03*
D12*
X99398816Y-157449250D03*
D15*
X98898266Y-161249178D03*
X103184376Y-164571717D03*
D11*
G36*
X100172759Y-153691520D02*
G01*
X99525712Y-156106335D01*
X97062601Y-155446346D01*
X97709648Y-153031531D01*
X100172759Y-153691520D01*
G37*
D15*
X101688631Y-155433203D03*
X108479660Y-154623252D03*
D13*
X104711408Y-158872755D03*
D16*
X109618311Y-160187556D03*
X99804505Y-157557954D03*
D11*
G36*
X113097418Y-154525070D02*
G01*
X112450371Y-156939885D01*
X109987260Y-156279896D01*
X110634307Y-153865081D01*
X113097418Y-154525070D01*
G37*
G36*
X115555141Y-165712394D02*
G01*
X114908094Y-168127209D01*
X112444983Y-167467220D01*
X113092030Y-165052405D01*
X115555141Y-165712394D01*
G37*
G36*
X125881341Y-170845932D02*
G01*
X125234294Y-173260747D01*
X122771183Y-172600758D01*
X123418230Y-170185943D01*
X125881341Y-170845932D01*
G37*
D12*
X128116930Y-166559488D03*
D13*
X122804338Y-165135983D03*
D14*
X117897435Y-163821182D03*
X127711241Y-166450784D03*
D12*
X117491746Y-163712478D03*
D15*
X116991196Y-167512406D03*
X121277306Y-170834945D03*
D11*
G36*
X118265689Y-159954748D02*
G01*
X117618642Y-162369563D01*
X115155531Y-161709574D01*
X115802578Y-159294759D01*
X118265689Y-159954748D01*
G37*
D15*
X119781561Y-161696431D03*
X126572590Y-160886480D03*
D13*
X122804338Y-165135983D03*
D16*
X127711241Y-166450784D03*
X117897435Y-163821182D03*
D11*
G36*
X131190348Y-160788298D02*
G01*
X130543301Y-163203113D01*
X128080190Y-162543124D01*
X128727237Y-160128309D01*
X131190348Y-160788298D01*
G37*
D19*
X173376206Y-181405335D03*
X184679206Y-183691335D03*
D12*
X187004206Y-177722335D03*
D13*
X181504206Y-177722335D03*
D14*
X176424206Y-177722335D03*
X186584206Y-177722335D03*
D12*
X176004206Y-177722335D03*
D15*
X176504206Y-181522335D03*
X181504206Y-183622335D03*
D19*
X174504206Y-175142335D03*
D15*
X177694206Y-175182335D03*
X184044206Y-172642335D03*
D13*
X181504206Y-177722335D03*
D16*
X186584206Y-177722335D03*
X176424206Y-177722335D03*
D19*
X187204206Y-172602335D03*
X192365711Y-181395896D03*
X203668711Y-183681896D03*
D12*
X205993711Y-177712896D03*
D13*
X200493711Y-177712896D03*
D14*
X195413711Y-177712896D03*
X205573711Y-177712896D03*
D12*
X194993711Y-177712896D03*
D15*
X195493711Y-181512896D03*
X200493711Y-183612896D03*
D19*
X193493711Y-175132896D03*
D15*
X196683711Y-175172896D03*
X203033711Y-172632896D03*
D13*
X200493711Y-177712896D03*
D16*
X205573711Y-177712896D03*
X195413711Y-177712896D03*
D19*
X206193711Y-172592896D03*
X211371599Y-181376491D03*
X222674599Y-183662491D03*
D12*
X224999599Y-177693491D03*
D13*
X219499599Y-177693491D03*
D14*
X214419599Y-177693491D03*
X224579599Y-177693491D03*
D12*
X213999599Y-177693491D03*
D15*
X214499599Y-181493491D03*
X219499599Y-183593491D03*
D19*
X212499599Y-175113491D03*
D15*
X215689599Y-175153491D03*
X222039599Y-172613491D03*
D13*
X219499599Y-177693491D03*
D16*
X224579599Y-177693491D03*
X214419599Y-177693491D03*
D19*
X225199599Y-172573491D03*
X230334754Y-181365742D03*
X241637754Y-183651742D03*
D12*
X243962754Y-177682742D03*
D13*
X238462754Y-177682742D03*
D14*
X233382754Y-177682742D03*
X243542754Y-177682742D03*
D12*
X232962754Y-177682742D03*
D15*
X233462754Y-181482742D03*
X238462754Y-183582742D03*
D19*
X231462754Y-175102742D03*
D15*
X234652754Y-175142742D03*
X241002754Y-172602742D03*
D13*
X238462754Y-177682742D03*
D16*
X243542754Y-177682742D03*
X233382754Y-177682742D03*
D19*
X244162754Y-172562742D03*
D11*
G36*
X290991237Y-169338356D02*
G01*
X291638284Y-171753171D01*
X289175173Y-172413160D01*
X288528126Y-169998345D01*
X290991237Y-169338356D01*
G37*
G36*
X302500757Y-168621031D02*
G01*
X303147804Y-171035846D01*
X300684693Y-171695835D01*
X300037646Y-169281020D01*
X302500757Y-168621031D01*
G37*
D12*
X302293612Y-163791067D03*
D13*
X296981020Y-165214572D03*
D14*
X292074117Y-166529373D03*
X301887923Y-163899771D03*
D12*
X291668428Y-166638077D03*
D15*
X293134903Y-170179185D03*
X298508052Y-170913534D03*
D11*
G36*
X290459818Y-162996815D02*
G01*
X291106865Y-165411630D01*
X288643754Y-166071619D01*
X287996707Y-163656804D01*
X290459818Y-162996815D01*
G37*
D15*
X292643442Y-163747221D03*
X298119671Y-159650268D03*
D13*
X296981020Y-165214572D03*
D16*
X301887923Y-163899771D03*
X292074117Y-166529373D03*
D11*
G36*
X302069676Y-157256361D02*
G01*
X302716723Y-159671176D01*
X300253612Y-160331165D01*
X299606565Y-157916350D01*
X302069676Y-157256361D01*
G37*
G36*
X309108682Y-163046245D02*
G01*
X309755729Y-165461060D01*
X307292618Y-166121049D01*
X306645571Y-163706234D01*
X309108682Y-163046245D01*
G37*
G36*
X320618202Y-162328920D02*
G01*
X321265249Y-164743735D01*
X318802138Y-165403724D01*
X318155091Y-162988909D01*
X320618202Y-162328920D01*
G37*
D12*
X320411057Y-157498956D03*
D13*
X315098465Y-158922461D03*
D14*
X310191562Y-160237262D03*
X320005368Y-157607660D03*
D12*
X309785873Y-160345966D03*
D15*
X311252348Y-163887074D03*
X316625497Y-164621423D03*
D11*
G36*
X308577263Y-156704704D02*
G01*
X309224310Y-159119519D01*
X306761199Y-159779508D01*
X306114152Y-157364693D01*
X308577263Y-156704704D01*
G37*
D15*
X310760887Y-157455110D03*
X316237116Y-153358157D03*
D13*
X315098465Y-158922461D03*
D16*
X320005368Y-157607660D03*
X310191562Y-160237262D03*
D11*
G36*
X320187121Y-150964250D02*
G01*
X320834168Y-153379065D01*
X318371057Y-154039054D01*
X317724010Y-151624239D01*
X320187121Y-150964250D01*
G37*
G36*
X327829188Y-159493012D02*
G01*
X328476235Y-161907827D01*
X326013124Y-162567816D01*
X325366077Y-160153001D01*
X327829188Y-159493012D01*
G37*
G36*
X339338708Y-158775687D02*
G01*
X339985755Y-161190502D01*
X337522644Y-161850491D01*
X336875597Y-159435676D01*
X339338708Y-158775687D01*
G37*
D12*
X339131563Y-153945723D03*
D13*
X333818971Y-155369228D03*
D14*
X328912068Y-156684029D03*
X338725874Y-154054427D03*
D12*
X328506379Y-156792733D03*
D15*
X329972854Y-160333841D03*
X335346003Y-161068190D03*
D11*
G36*
X327297769Y-153151471D02*
G01*
X327944816Y-155566286D01*
X325481705Y-156226275D01*
X324834658Y-153811460D01*
X327297769Y-153151471D01*
G37*
D15*
X329481393Y-153901877D03*
X334957622Y-149804924D03*
D13*
X333818971Y-155369228D03*
D16*
X338725874Y-154054427D03*
X328912068Y-156684029D03*
D11*
G36*
X338907627Y-147411017D02*
G01*
X339554674Y-149825832D01*
X337091563Y-150485821D01*
X336444516Y-148071006D01*
X338907627Y-147411017D01*
G37*
G36*
X347510388Y-159096754D02*
G01*
X348157435Y-161511569D01*
X345694324Y-162171558D01*
X345047277Y-159756743D01*
X347510388Y-159096754D01*
G37*
G36*
X359019908Y-158379429D02*
G01*
X359666955Y-160794244D01*
X357203844Y-161454233D01*
X356556797Y-159039418D01*
X359019908Y-158379429D01*
G37*
D12*
X358812763Y-153549465D03*
D13*
X353500171Y-154972970D03*
D14*
X348593268Y-156287771D03*
X358407074Y-153658169D03*
D12*
X348187579Y-156396475D03*
D15*
X349654054Y-159937583D03*
X355027203Y-160671932D03*
D11*
G36*
X346978969Y-152755213D02*
G01*
X347626016Y-155170028D01*
X345162905Y-155830017D01*
X344515858Y-153415202D01*
X346978969Y-152755213D01*
G37*
D15*
X349162593Y-153505619D03*
X354638822Y-149408666D03*
D13*
X353500171Y-154972970D03*
D16*
X358407074Y-153658169D03*
X348593268Y-156287771D03*
D11*
G36*
X358588827Y-147014759D02*
G01*
X359235874Y-149429574D01*
X356772763Y-150089563D01*
X356125716Y-147674748D01*
X358588827Y-147014759D01*
G37*
G36*
X366272408Y-155626386D02*
G01*
X366919455Y-158041201D01*
X364456344Y-158701190D01*
X363809297Y-156286375D01*
X366272408Y-155626386D01*
G37*
G36*
X377781928Y-154909061D02*
G01*
X378428975Y-157323876D01*
X375965864Y-157983865D01*
X375318817Y-155569050D01*
X377781928Y-154909061D01*
G37*
D12*
X377574783Y-150079097D03*
D13*
X372262191Y-151502602D03*
D14*
X367355288Y-152817403D03*
X377169094Y-150187801D03*
D12*
X366949599Y-152926107D03*
D15*
X368416074Y-156467215D03*
X373789223Y-157201564D03*
D11*
G36*
X365740989Y-149284845D02*
G01*
X366388036Y-151699660D01*
X363924925Y-152359649D01*
X363277878Y-149944834D01*
X365740989Y-149284845D01*
G37*
D15*
X367924613Y-150035251D03*
X373400842Y-145938298D03*
D13*
X372262191Y-151502602D03*
D16*
X377169094Y-150187801D03*
X367355288Y-152817403D03*
D11*
G36*
X377350847Y-143544391D02*
G01*
X377997894Y-145959206D01*
X375534783Y-146619195D01*
X374887736Y-144204380D01*
X377350847Y-143544391D01*
G37*
G36*
X384290523Y-149230089D02*
G01*
X384937570Y-151644904D01*
X382474459Y-152304893D01*
X381827412Y-149890078D01*
X384290523Y-149230089D01*
G37*
G36*
X395800043Y-148512764D02*
G01*
X396447090Y-150927579D01*
X393983979Y-151587568D01*
X393336932Y-149172753D01*
X395800043Y-148512764D01*
G37*
D12*
X395592898Y-143682800D03*
D13*
X390280306Y-145106305D03*
D14*
X385373403Y-146421106D03*
X395187209Y-143791504D03*
D12*
X384967714Y-146529810D03*
D15*
X386434189Y-150070918D03*
X391807338Y-150805267D03*
D11*
G36*
X383759104Y-142888548D02*
G01*
X384406151Y-145303363D01*
X381943040Y-145963352D01*
X381295993Y-143548537D01*
X383759104Y-142888548D01*
G37*
D15*
X385942728Y-143638954D03*
X391418957Y-139542001D03*
D13*
X390280306Y-145106305D03*
D16*
X395187209Y-143791504D03*
X385373403Y-146421106D03*
D11*
G36*
X395368962Y-137148094D02*
G01*
X396016009Y-139562909D01*
X393552898Y-140222898D01*
X392905851Y-137808083D01*
X395368962Y-137148094D01*
G37*
D20*
X198374000Y-83312000D03*
D21*
X200914000Y-83312000D03*
X198374000Y-80772000D03*
X200914000Y-80772000D03*
X198374000Y-78232000D03*
X200914000Y-78232000D03*
D22*
X205621997Y-77690000D03*
D23*
X207051997Y-81340000D03*
D22*
X214261997Y-77690000D03*
D23*
X212831997Y-81340000D03*
D24*
X214261997Y-81870000D03*
X205621997Y-81870000D03*
D25*
X42545000Y-60833000D03*
X127889000Y-182118000D03*
X165862000Y-140970000D03*
X17526000Y-149860000D03*
X171958000Y-187325000D03*
X164338000Y-83947000D03*
X256413000Y-84074000D03*
X253365000Y-140716000D03*
X401955000Y-149352000D03*
X247904000Y-187198000D03*
X292100000Y-182118000D03*
X377698000Y-59817000D03*
M02*
