%FSLAX45Y45*%
G04 Gerber Fmt 4.5, Leading zero omitted, Abs format (unit mm)*
G04 Created by KiCad (PCBNEW (5.1.10)-1) date 2021-10-14 20:38:59*
%MOMM*%
%LPD*%
G01*
G04 APERTURE LIST*
%TA.AperFunction,Profile*%
%ADD10C,0.200000*%
%TD*%
%TA.AperFunction,Profile*%
%ADD11C,0.050000*%
%TD*%
%ADD12C,0.200000*%
%ADD13C,0.300000*%
G04 APERTURE END LIST*
D10*
X37564311Y-5657925D02*
X33760064Y-6677270D01*
D11*
X24765000Y-7620000D02*
X33760064Y-6677270D01*
X17272000Y-7620000D02*
X24765000Y-7620000D01*
X17272000Y-7620000D02*
X8220936Y-6670164D01*
X4416689Y-5650818D02*
X8220936Y-6670164D01*
X1451626Y-14784732D02*
X3804316Y-6004372D01*
X3586559Y-16288734D02*
X1712975Y-15362347D01*
X14056075Y-19104084D02*
X3678763Y-16323492D01*
X27924925Y-19111191D02*
X14056075Y-19104084D01*
X38302237Y-16330599D02*
X27924925Y-19111191D01*
X40268025Y-15369454D02*
X38394441Y-16295840D01*
X40529374Y-14791839D02*
X38176684Y-6011479D01*
D10*
X38176684Y-6011479D02*
G75*
G03*
X37564311Y-5657925I-482963J-129410D01*
G01*
X40268025Y-15369454D02*
G75*
G03*
X40529374Y-14791839I-221613J448205D01*
G01*
X38302237Y-16330599D02*
G75*
G03*
X38394441Y-16295840I-129410J482963D01*
G01*
X3678763Y-16323492D02*
G75*
G02*
X3586559Y-16288734I129410J482963D01*
G01*
X3804316Y-6004372D02*
G75*
G02*
X4416689Y-5650818I482963J-129410D01*
G01*
X1712975Y-15362347D02*
G75*
G02*
X1451626Y-14784732I221613J448205D01*
G01*
D12*
X3819870Y-14212230D02*
X3859870Y-14252230D01*
X3859870Y-14212230D02*
X3819870Y-14252230D01*
X4327870Y-12383430D02*
X4367870Y-12423430D01*
X4367870Y-12383430D02*
X4327870Y-12423430D01*
X4572497Y-6413997D02*
X4612497Y-6453997D01*
X4612497Y-6413997D02*
X4572497Y-6453997D01*
X4797770Y-10554630D02*
X4837770Y-10594630D01*
X4837770Y-10554630D02*
X4797770Y-10594630D01*
X5290340Y-8715861D02*
X5330340Y-8755861D01*
X5330340Y-8715861D02*
X5290340Y-8755861D01*
X5648670Y-14720230D02*
X5688670Y-14760230D01*
X5688670Y-14720230D02*
X5648670Y-14760230D01*
X5666918Y-7374082D02*
X5706918Y-7414082D01*
X5706918Y-7374082D02*
X5666918Y-7414082D01*
X5885500Y-7079300D02*
X5925500Y-7119300D01*
X5925500Y-7079300D02*
X5885500Y-7119300D01*
X6156670Y-12891430D02*
X6196670Y-12931430D01*
X6196670Y-12891430D02*
X6156670Y-12931430D01*
X6317300Y-7120551D02*
X6357300Y-7160551D01*
X6357300Y-7120551D02*
X6317300Y-7160551D01*
X6643741Y-11045459D02*
X6683741Y-11085459D01*
X6683741Y-11045459D02*
X6643741Y-11085459D01*
X7131839Y-9223861D02*
X7171839Y-9263861D01*
X7171839Y-9223861D02*
X7131839Y-9263861D01*
X7495718Y-7983682D02*
X7535718Y-8023682D01*
X7535718Y-7983682D02*
X7495718Y-8023682D01*
X7553670Y-15075830D02*
X7593670Y-15115830D01*
X7593670Y-15075830D02*
X7553670Y-15115830D01*
X7765100Y-7358700D02*
X7805100Y-7398700D01*
X7805100Y-7358700D02*
X7765100Y-7398700D01*
X8036270Y-13221630D02*
X8076270Y-13261630D01*
X8076270Y-13221630D02*
X8036270Y-13261630D01*
X8184200Y-7474229D02*
X8224200Y-7514229D01*
X8224200Y-7474229D02*
X8184200Y-7514229D01*
X8523341Y-11375659D02*
X8563341Y-11415659D01*
X8563341Y-11375659D02*
X8523341Y-11415659D01*
X9049540Y-9427061D02*
X9089540Y-9467061D01*
X9089540Y-9427061D02*
X9049540Y-9467061D01*
X9378000Y-8311200D02*
X9418000Y-8351200D01*
X9418000Y-8311200D02*
X9378000Y-8351200D01*
X9496770Y-15101230D02*
X9536770Y-15141230D01*
X9536770Y-15101230D02*
X9496770Y-15141230D01*
X9992070Y-13272430D02*
X10032070Y-13312430D01*
X10032070Y-13272430D02*
X9992070Y-13312430D01*
X10184450Y-7479350D02*
X10224450Y-7519350D01*
X10224450Y-7479350D02*
X10184450Y-7519350D01*
X10479141Y-11401059D02*
X10519141Y-11441059D01*
X10519141Y-11401059D02*
X10479141Y-11441059D01*
X10992303Y-9746300D02*
X11032303Y-9786300D01*
X11032303Y-9746300D02*
X10992303Y-9786300D01*
X11331118Y-8428182D02*
X11371118Y-8468182D01*
X11371118Y-8428182D02*
X11331118Y-8468182D01*
X11350970Y-15609230D02*
X11390970Y-15649230D01*
X11390970Y-15609230D02*
X11350970Y-15649230D01*
X11575100Y-7949250D02*
X11615100Y-7989250D01*
X11615100Y-7949250D02*
X11575100Y-7989250D01*
X11863441Y-13763259D02*
X11903441Y-13803259D01*
X11903441Y-13763259D02*
X11863441Y-13803259D01*
X12038650Y-7855641D02*
X12078650Y-7895641D01*
X12078650Y-7855641D02*
X12038650Y-7895641D01*
X12328870Y-11900830D02*
X12368870Y-11940830D01*
X12368870Y-11900830D02*
X12328870Y-11940830D01*
X12808739Y-10112861D02*
X12848739Y-10152861D01*
X12848739Y-10112861D02*
X12808739Y-10152861D01*
X13128970Y-16320430D02*
X13168970Y-16360430D01*
X13168970Y-16320430D02*
X13128970Y-16360430D01*
X13185318Y-8771082D02*
X13225318Y-8811082D01*
X13225318Y-8771082D02*
X13185318Y-8811082D01*
X13518200Y-8311200D02*
X13558200Y-8351200D01*
X13558200Y-8311200D02*
X13518200Y-8351200D01*
X13641441Y-14474459D02*
X13681441Y-14514459D01*
X13681441Y-14474459D02*
X13641441Y-14514459D01*
X13858487Y-8463600D02*
X13898487Y-8503600D01*
X13898487Y-8463600D02*
X13858487Y-8503600D01*
X14119570Y-12637430D02*
X14159570Y-12677430D01*
X14159570Y-12637430D02*
X14119570Y-12677430D01*
X14610400Y-10775000D02*
X14650400Y-10815000D01*
X14650400Y-10775000D02*
X14610400Y-10815000D01*
X14963318Y-9393382D02*
X15003318Y-9433382D01*
X15003318Y-9393382D02*
X14963318Y-9433382D01*
X15132965Y-16504565D02*
X15172965Y-16544565D01*
X15172965Y-16504565D02*
X15132965Y-16544565D01*
X15296200Y-8971600D02*
X15336200Y-9011600D01*
X15336200Y-8971600D02*
X15296200Y-9011600D01*
X15488565Y-15167335D02*
X15528565Y-15207335D01*
X15528565Y-15167335D02*
X15488565Y-15207335D01*
X15591850Y-9229150D02*
X15631850Y-9269150D01*
X15631850Y-9229150D02*
X15591850Y-9269150D01*
X15996565Y-13338535D02*
X16036565Y-13378535D01*
X16036565Y-13338535D02*
X15996565Y-13378535D01*
X16467742Y-11495758D02*
X16507742Y-11535758D01*
X16507742Y-11495758D02*
X16467742Y-11535758D01*
X16665118Y-10244282D02*
X16705118Y-10284282D01*
X16705118Y-10244282D02*
X16665118Y-10284282D01*
X16909400Y-11193800D02*
X16949400Y-11233800D01*
X16949400Y-11193800D02*
X16909400Y-11233800D01*
X17023400Y-15499400D02*
X17063400Y-15539400D01*
X17063400Y-15499400D02*
X17023400Y-15539400D01*
X17066814Y-13093786D02*
X17106814Y-13133786D01*
X17106814Y-13093786D02*
X17066814Y-13133786D01*
X17086900Y-10736900D02*
X17126900Y-10776900D01*
X17126900Y-10736900D02*
X17086900Y-10776900D01*
X17428003Y-9671897D02*
X17468003Y-9711897D01*
X17468003Y-9671897D02*
X17428003Y-9711897D01*
X17829850Y-9473250D02*
X17869850Y-9513250D01*
X17869850Y-9473250D02*
X17829850Y-9513250D01*
X18953800Y-10241600D02*
X18993800Y-10281600D01*
X18993800Y-10241600D02*
X18953800Y-10281600D01*
X18953800Y-11587800D02*
X18993800Y-11627800D01*
X18993800Y-11587800D02*
X18953800Y-11627800D01*
X18953800Y-13505500D02*
X18993800Y-13545500D01*
X18993800Y-13505500D02*
X18953800Y-13545500D01*
X18953800Y-15423200D02*
X18993800Y-15463200D01*
X18993800Y-15423200D02*
X18953800Y-15463200D01*
X18953800Y-17328200D02*
X18993800Y-17368200D01*
X18993800Y-17328200D02*
X18953800Y-17368200D01*
X19030000Y-13797600D02*
X19070000Y-13837600D01*
X19070000Y-13797600D02*
X19030000Y-13837600D01*
X19106200Y-10241600D02*
X19146200Y-10281600D01*
X19146200Y-10241600D02*
X19106200Y-10281600D01*
X19106200Y-10838500D02*
X19146200Y-10878500D01*
X19146200Y-10838500D02*
X19106200Y-10878500D01*
X19131600Y-14585000D02*
X19171600Y-14625000D01*
X19171600Y-14585000D02*
X19131600Y-14625000D01*
X19131600Y-14991400D02*
X19171600Y-15031400D01*
X19171600Y-14991400D02*
X19131600Y-15031400D01*
X19182400Y-12070400D02*
X19222400Y-12110400D01*
X19222400Y-12070400D02*
X19182400Y-12110400D01*
X19207800Y-11460800D02*
X19247800Y-11500800D01*
X19247800Y-11460800D02*
X19207800Y-11500800D01*
X19207800Y-13251500D02*
X19247800Y-13291500D01*
X19247800Y-13251500D02*
X19207800Y-13291500D01*
X19207800Y-13924600D02*
X19247800Y-13964600D01*
X19247800Y-13924600D02*
X19207800Y-13964600D01*
X19233200Y-9606600D02*
X19273200Y-9646600D01*
X19273200Y-9606600D02*
X19233200Y-9646600D01*
X19326394Y-9665806D02*
X19366394Y-9705806D01*
X19366394Y-9665806D02*
X19326394Y-9705806D01*
X19525300Y-10876600D02*
X19565300Y-10916600D01*
X19565300Y-10876600D02*
X19525300Y-10916600D01*
X19817400Y-8590600D02*
X19857400Y-8630600D01*
X19857400Y-8590600D02*
X19817400Y-8630600D01*
X19969800Y-8590600D02*
X20009800Y-8630600D01*
X20009800Y-8590600D02*
X19969800Y-8630600D01*
X20096800Y-8590600D02*
X20136800Y-8630600D01*
X20136800Y-8590600D02*
X20096800Y-8630600D01*
X20535000Y-8630000D02*
X20575000Y-8670000D01*
X20575000Y-8630000D02*
X20535000Y-8670000D01*
X20744500Y-12362500D02*
X20784500Y-12402500D01*
X20784500Y-12362500D02*
X20744500Y-12402500D01*
X20858800Y-10241600D02*
X20898800Y-10281600D01*
X20898800Y-10241600D02*
X20858800Y-10281600D01*
X20858800Y-11600500D02*
X20898800Y-11640500D01*
X20898800Y-11600500D02*
X20858800Y-11640500D01*
X20858800Y-13518200D02*
X20898800Y-13558200D01*
X20898800Y-13518200D02*
X20858800Y-13558200D01*
X20858800Y-15410500D02*
X20898800Y-15450500D01*
X20898800Y-15410500D02*
X20858800Y-15450500D01*
X20858800Y-17315500D02*
X20898800Y-17355500D01*
X20898800Y-17315500D02*
X20858800Y-17355500D01*
X20988101Y-8029499D02*
X21028101Y-8069499D01*
X21028101Y-8029499D02*
X20988101Y-8069499D01*
X21062000Y-10276000D02*
X21102000Y-10316000D01*
X21102000Y-10276000D02*
X21062000Y-10316000D01*
X21062000Y-10851200D02*
X21102000Y-10891200D01*
X21102000Y-10851200D02*
X21062000Y-10891200D01*
X21062000Y-12045000D02*
X21102000Y-12085000D01*
X21102000Y-12045000D02*
X21062000Y-12085000D01*
X21062000Y-13950000D02*
X21102000Y-13990000D01*
X21102000Y-13950000D02*
X21062000Y-13990000D01*
X21087400Y-11537000D02*
X21127400Y-11577000D01*
X21127400Y-11537000D02*
X21087400Y-11577000D01*
X21087400Y-13238800D02*
X21127400Y-13278800D01*
X21127400Y-13238800D02*
X21087400Y-13278800D01*
X21087400Y-15220000D02*
X21127400Y-15260000D01*
X21127400Y-15220000D02*
X21087400Y-15260000D01*
X21087400Y-15804200D02*
X21127400Y-15844200D01*
X21127400Y-15804200D02*
X21087400Y-15844200D01*
X21125800Y-16908800D02*
X21165800Y-16948800D01*
X21165800Y-16908800D02*
X21125800Y-16948800D01*
X21226810Y-9657690D02*
X21266810Y-9697690D01*
X21266810Y-9657690D02*
X21226810Y-9697690D01*
X21468400Y-9543100D02*
X21508400Y-9583100D01*
X21508400Y-9543100D02*
X21468400Y-9583100D01*
X21506500Y-10825800D02*
X21546500Y-10865800D01*
X21546500Y-10825800D02*
X21506500Y-10865800D01*
X21925600Y-8387400D02*
X21965600Y-8427400D01*
X21965600Y-8387400D02*
X21925600Y-8427400D01*
X21925600Y-8535000D02*
X21965600Y-8575000D01*
X21965600Y-8535000D02*
X21925600Y-8575000D01*
X21925600Y-8692200D02*
X21965600Y-8732200D01*
X21965600Y-8692200D02*
X21925600Y-8732200D01*
X22065000Y-8620000D02*
X22105000Y-8660000D01*
X22105000Y-8620000D02*
X22065000Y-8660000D01*
X22137100Y-8166500D02*
X22177100Y-8206500D01*
X22177100Y-8166500D02*
X22137100Y-8206500D01*
X22139900Y-8347600D02*
X22179900Y-8387600D01*
X22179900Y-8347600D02*
X22139900Y-8387600D01*
X22332000Y-8844600D02*
X22372000Y-8884600D01*
X22372000Y-8844600D02*
X22332000Y-8884600D01*
X22535200Y-8768400D02*
X22575200Y-8808400D01*
X22575200Y-8768400D02*
X22535200Y-8808400D01*
X22687600Y-8133400D02*
X22727600Y-8173400D01*
X22727600Y-8133400D02*
X22687600Y-8173400D01*
X22763800Y-10254300D02*
X22803800Y-10294300D01*
X22803800Y-10254300D02*
X22763800Y-10294300D01*
X22763800Y-11600500D02*
X22803800Y-11640500D01*
X22803800Y-11600500D02*
X22763800Y-11640500D01*
X22763800Y-13505500D02*
X22803800Y-13545500D01*
X22803800Y-13505500D02*
X22763800Y-13545500D01*
X22763800Y-15410500D02*
X22803800Y-15450500D01*
X22803800Y-15410500D02*
X22763800Y-15450500D01*
X22763800Y-17315500D02*
X22803800Y-17355500D01*
X22803800Y-17315500D02*
X22763800Y-17355500D01*
X22847400Y-8151400D02*
X22887400Y-8191400D01*
X22887400Y-8151400D02*
X22847400Y-8191400D01*
X22979700Y-8514400D02*
X23019700Y-8554400D01*
X23019700Y-8514400D02*
X22979700Y-8554400D01*
X22979700Y-8641400D02*
X23019700Y-8681400D01*
X23019700Y-8641400D02*
X22979700Y-8681400D01*
X22992400Y-9606600D02*
X23032400Y-9646600D01*
X23032400Y-9606600D02*
X22992400Y-9646600D01*
X23005000Y-8155000D02*
X23045000Y-8195000D01*
X23045000Y-8155000D02*
X23005000Y-8195000D01*
X23005100Y-10140000D02*
X23045100Y-10180000D01*
X23045100Y-10140000D02*
X23005100Y-10180000D01*
X23094000Y-8743000D02*
X23134000Y-8783000D01*
X23134000Y-8743000D02*
X23094000Y-8783000D01*
X23125695Y-9638405D02*
X23165695Y-9678405D01*
X23165695Y-9638405D02*
X23125695Y-9678405D01*
X23373400Y-8057200D02*
X23413400Y-8097200D01*
X23413400Y-8057200D02*
X23373400Y-8097200D01*
X23377600Y-7858200D02*
X23417600Y-7898200D01*
X23417600Y-7858200D02*
X23377600Y-7898200D01*
X23728000Y-7951000D02*
X23768000Y-7991000D01*
X23768000Y-7951000D02*
X23728000Y-7991000D01*
X23737000Y-8947000D02*
X23777000Y-8987000D01*
X23777000Y-8947000D02*
X23737000Y-8987000D01*
X24332000Y-8374000D02*
X24372000Y-8414000D01*
X24372000Y-8374000D02*
X24332000Y-8414000D01*
X24395000Y-8195000D02*
X24435000Y-8235000D01*
X24435000Y-8195000D02*
X24395000Y-8235000D01*
X24668800Y-10228900D02*
X24708800Y-10268900D01*
X24708800Y-10228900D02*
X24668800Y-10268900D01*
X24668800Y-11613200D02*
X24708800Y-11653200D01*
X24708800Y-11613200D02*
X24668800Y-11653200D01*
X24668800Y-13505500D02*
X24708800Y-13545500D01*
X24708800Y-13505500D02*
X24668800Y-13545500D01*
X24668800Y-15410500D02*
X24708800Y-15450500D01*
X24708800Y-15410500D02*
X24668800Y-15450500D01*
X24668800Y-17315500D02*
X24708800Y-17355500D01*
X24708800Y-17315500D02*
X24668800Y-17355500D01*
X25106950Y-9574850D02*
X25146950Y-9614850D01*
X25146950Y-9574850D02*
X25106950Y-9614850D01*
X26726200Y-10025700D02*
X26766200Y-10065700D01*
X26766200Y-10025700D02*
X26726200Y-10065700D01*
X26865900Y-8844600D02*
X26905900Y-8884600D01*
X26905900Y-8844600D02*
X26865900Y-8884600D01*
X27155318Y-10904682D02*
X27195318Y-10944682D01*
X27195318Y-10904682D02*
X27155318Y-10944682D01*
X27651435Y-12796165D02*
X27691435Y-12836165D01*
X27691435Y-12796165D02*
X27651435Y-12836165D01*
X28146735Y-14608535D02*
X28186735Y-14648535D01*
X28186735Y-14608535D02*
X28146735Y-14648535D01*
X28415300Y-9378000D02*
X28455300Y-9418000D01*
X28455300Y-9378000D02*
X28415300Y-9418000D01*
X28591235Y-16225165D02*
X28631235Y-16265165D01*
X28631235Y-16225165D02*
X28591235Y-16265165D01*
X28694700Y-8235000D02*
X28734700Y-8275000D01*
X28734700Y-8235000D02*
X28694700Y-8275000D01*
X28958718Y-10238918D02*
X28998718Y-10278918D01*
X28998718Y-10238918D02*
X28958718Y-10278918D01*
X29442135Y-12068535D02*
X29482135Y-12108535D01*
X29482135Y-12068535D02*
X29442135Y-12108535D01*
X29672600Y-8819200D02*
X29712600Y-8859200D01*
X29712600Y-8819200D02*
X29672600Y-8859200D01*
X29937435Y-13888365D02*
X29977435Y-13928365D01*
X29977435Y-13888365D02*
X29937435Y-13928365D01*
X30345700Y-8882700D02*
X30385700Y-8922700D01*
X30385700Y-8882700D02*
X30345700Y-8922700D01*
X30420035Y-15742565D02*
X30460035Y-15782565D01*
X30460035Y-15742565D02*
X30420035Y-15782565D01*
X30548900Y-7854000D02*
X30588900Y-7894000D01*
X30588900Y-7854000D02*
X30548900Y-7894000D01*
X30800218Y-9748982D02*
X30840218Y-9788982D01*
X30840218Y-9748982D02*
X30800218Y-9788982D01*
X31283635Y-11551565D02*
X31323635Y-11591565D01*
X31323635Y-11551565D02*
X31283635Y-11591565D01*
X31778935Y-13389335D02*
X31818935Y-13429335D01*
X31818935Y-13389335D02*
X31778935Y-13429335D01*
X32212600Y-8514400D02*
X32252600Y-8554400D01*
X32252600Y-8514400D02*
X32212600Y-8554400D01*
X32274235Y-15230835D02*
X32314235Y-15270835D01*
X32314235Y-15230835D02*
X32274235Y-15270835D01*
X32615356Y-7717944D02*
X32655356Y-7757944D01*
X32655356Y-7717944D02*
X32615356Y-7757944D01*
X32717918Y-9553118D02*
X32757918Y-9593118D01*
X32757918Y-9553118D02*
X32717918Y-9593118D01*
X33252135Y-11509735D02*
X33292135Y-11549735D01*
X33292135Y-11509735D02*
X33252135Y-11549735D01*
X33747435Y-13354965D02*
X33787435Y-13394965D01*
X33787435Y-13354965D02*
X33747435Y-13394965D01*
X34130300Y-8298500D02*
X34170300Y-8338500D01*
X34170300Y-8298500D02*
X34130300Y-8338500D01*
X34230035Y-15209165D02*
X34270035Y-15249165D01*
X34270035Y-15209165D02*
X34230035Y-15249165D01*
X34488853Y-7457347D02*
X34528853Y-7497347D01*
X34528853Y-7457347D02*
X34488853Y-7497347D01*
X34635618Y-9337218D02*
X34675618Y-9377218D01*
X34675618Y-9337218D02*
X34635618Y-9377218D01*
X35131735Y-11179535D02*
X35171735Y-11219535D01*
X35171735Y-11179535D02*
X35131735Y-11219535D01*
X35627035Y-13024765D02*
X35667035Y-13064765D01*
X35667035Y-13024765D02*
X35627035Y-13064765D01*
X35946400Y-8006400D02*
X35986400Y-8046400D01*
X35986400Y-8006400D02*
X35946400Y-8046400D01*
X36035300Y-7066600D02*
X36075300Y-7106600D01*
X36075300Y-7066600D02*
X36035300Y-7106600D01*
X36109635Y-14853565D02*
X36149635Y-14893565D01*
X36149635Y-14853565D02*
X36109635Y-14893565D01*
X36295023Y-6832277D02*
X36335023Y-6872277D01*
X36335023Y-6832277D02*
X36295023Y-6872277D01*
X36477118Y-8867318D02*
X36517118Y-8907318D01*
X36517118Y-8867318D02*
X36477118Y-8907318D01*
X36960535Y-10671535D02*
X37000535Y-10711535D01*
X37000535Y-10671535D02*
X36960535Y-10711535D01*
X37455835Y-12516765D02*
X37495835Y-12556765D01*
X37495835Y-12516765D02*
X37455835Y-12556765D01*
X37938435Y-14370965D02*
X37978435Y-14410965D01*
X37978435Y-14370965D02*
X37938435Y-14410965D01*
X37968842Y-7323742D02*
X38008842Y-7363742D01*
X38008842Y-7323742D02*
X37968842Y-7363742D01*
X38166218Y-8359318D02*
X38206218Y-8399318D01*
X38206218Y-8359318D02*
X38166218Y-8399318D01*
X38675035Y-10176235D02*
X38715035Y-10216235D01*
X38715035Y-10176235D02*
X38675035Y-10216235D01*
X39170335Y-12030435D02*
X39210335Y-12070435D01*
X39210335Y-12030435D02*
X39170335Y-12070435D01*
X39652935Y-13859235D02*
X39692935Y-13899235D01*
X39692935Y-13859235D02*
X39652935Y-13899235D01*
X20592200Y-7769000D02*
G75*
G03*
X20592200Y-7769000I-30000J0D01*
G01*
X20582200Y-7799000D02*
X20582200Y-7739000D01*
X20542200Y-7799000D02*
X20542200Y-7739000D01*
X20582200Y-7739000D02*
G75*
G03*
X20542200Y-7739000I-20000J0D01*
G01*
X20542200Y-7799000D02*
G75*
G03*
X20582200Y-7799000I20000J0D01*
G01*
X20592200Y-8187000D02*
G75*
G03*
X20592200Y-8187000I-30000J0D01*
G01*
X20582200Y-8242000D02*
X20582200Y-8132000D01*
X20542200Y-8242000D02*
X20542200Y-8132000D01*
X20582200Y-8132000D02*
G75*
G03*
X20542200Y-8132000I-20000J0D01*
G01*
X20542200Y-8242000D02*
G75*
G03*
X20582200Y-8242000I20000J0D01*
G01*
X21456200Y-7769000D02*
G75*
G03*
X21456200Y-7769000I-30000J0D01*
G01*
X21446200Y-7799000D02*
X21446200Y-7739000D01*
X21406200Y-7799000D02*
X21406200Y-7739000D01*
X21446200Y-7739000D02*
G75*
G03*
X21406200Y-7739000I-20000J0D01*
G01*
X21406200Y-7799000D02*
G75*
G03*
X21446200Y-7799000I20000J0D01*
G01*
X21456200Y-8187000D02*
G75*
G03*
X21456200Y-8187000I-30000J0D01*
G01*
X21446200Y-8242000D02*
X21446200Y-8132000D01*
X21406200Y-8242000D02*
X21406200Y-8132000D01*
X21446200Y-8132000D02*
G75*
G03*
X21406200Y-8132000I-20000J0D01*
G01*
X21406200Y-8242000D02*
G75*
G03*
X21446200Y-8242000I20000J0D01*
G01*
X19837400Y-7773200D02*
X19837400Y-7873200D01*
X19787400Y-7823200D02*
X19887400Y-7823200D01*
X19837400Y-8027200D02*
X19837400Y-8127200D01*
X19787400Y-8077200D02*
X19887400Y-8077200D01*
X19837400Y-8281200D02*
X19837400Y-8381200D01*
X19787400Y-8331200D02*
X19887400Y-8331200D01*
X20091400Y-7773200D02*
X20091400Y-7873200D01*
X20041400Y-7823200D02*
X20141400Y-7823200D01*
X20091400Y-8027200D02*
X20091400Y-8127200D01*
X20041400Y-8077200D02*
X20141400Y-8077200D01*
X20091400Y-8281200D02*
X20091400Y-8381200D01*
X20041400Y-8331200D02*
X20141400Y-8331200D01*
X1830382Y-15063782D02*
X1830382Y-14908217D01*
X1674817Y-14908217D01*
X1674817Y-15063782D01*
X1830382Y-15063782D01*
X4332283Y-6161082D02*
X4332283Y-6005517D01*
X4176717Y-6005517D01*
X4176717Y-6161082D01*
X4332283Y-6161082D01*
X12866682Y-18289583D02*
X12866682Y-18134018D01*
X12711117Y-18134018D01*
X12711117Y-18289583D01*
X12866682Y-18289583D01*
X16511582Y-8472483D02*
X16511582Y-8316917D01*
X16356017Y-8316917D01*
X16356017Y-8472483D01*
X16511582Y-8472483D01*
X16663982Y-14174782D02*
X16663982Y-14019217D01*
X16508417Y-14019217D01*
X16508417Y-14174782D01*
X16663982Y-14174782D01*
X17273583Y-18810283D02*
X17273583Y-18654718D01*
X17118018Y-18654718D01*
X17118018Y-18810283D01*
X17273583Y-18810283D01*
X24868182Y-18797583D02*
X24868182Y-18642018D01*
X24712617Y-18642018D01*
X24712617Y-18797583D01*
X24868182Y-18797583D01*
X25414282Y-14149382D02*
X25414282Y-13993817D01*
X25258717Y-13993817D01*
X25258717Y-14149382D01*
X25414282Y-14149382D01*
X25719082Y-8485183D02*
X25719082Y-8329617D01*
X25563517Y-8329617D01*
X25563517Y-8485183D01*
X25719082Y-8485183D01*
X29287782Y-18289583D02*
X29287782Y-18134018D01*
X29132217Y-18134018D01*
X29132217Y-18289583D01*
X29287782Y-18289583D01*
X37847583Y-6059482D02*
X37847583Y-5903917D01*
X37692018Y-5903917D01*
X37692018Y-6059482D01*
X37847583Y-6059482D01*
X40273283Y-15012982D02*
X40273283Y-14857417D01*
X40117718Y-14857417D01*
X40117718Y-15012982D01*
X40273283Y-15012982D01*
D13*
X1711017Y-19579405D02*
X1711017Y-19279405D01*
X1782446Y-19279405D01*
X1825303Y-19293691D01*
X1853874Y-19322262D01*
X1868160Y-19350834D01*
X1882446Y-19407977D01*
X1882446Y-19450834D01*
X1868160Y-19507977D01*
X1853874Y-19536548D01*
X1825303Y-19565120D01*
X1782446Y-19579405D01*
X1711017Y-19579405D01*
X2011017Y-19579405D02*
X2011017Y-19379405D01*
X2011017Y-19436548D02*
X2025303Y-19407977D01*
X2039588Y-19393691D01*
X2068160Y-19379405D01*
X2096731Y-19379405D01*
X2196731Y-19579405D02*
X2196731Y-19379405D01*
X2196731Y-19279405D02*
X2182446Y-19293691D01*
X2196731Y-19307977D01*
X2211017Y-19293691D01*
X2196731Y-19279405D01*
X2196731Y-19307977D01*
X2382446Y-19579405D02*
X2353874Y-19565120D01*
X2339589Y-19536548D01*
X2339589Y-19279405D01*
X2539589Y-19579405D02*
X2511017Y-19565120D01*
X2496731Y-19536548D01*
X2496731Y-19279405D01*
X2882446Y-19579405D02*
X2882446Y-19279405D01*
X2982446Y-19493691D01*
X3082446Y-19279405D01*
X3082446Y-19579405D01*
X3353874Y-19579405D02*
X3353874Y-19422262D01*
X3339588Y-19393691D01*
X3311017Y-19379405D01*
X3253874Y-19379405D01*
X3225303Y-19393691D01*
X3353874Y-19565120D02*
X3325303Y-19579405D01*
X3253874Y-19579405D01*
X3225303Y-19565120D01*
X3211017Y-19536548D01*
X3211017Y-19507977D01*
X3225303Y-19479405D01*
X3253874Y-19465120D01*
X3325303Y-19465120D01*
X3353874Y-19450834D01*
X3496731Y-19379405D02*
X3496731Y-19679405D01*
X3496731Y-19393691D02*
X3525303Y-19379405D01*
X3582446Y-19379405D01*
X3611017Y-19393691D01*
X3625303Y-19407977D01*
X3639588Y-19436548D01*
X3639588Y-19522262D01*
X3625303Y-19550834D01*
X3611017Y-19565120D01*
X3582446Y-19579405D01*
X3525303Y-19579405D01*
X3496731Y-19565120D01*
X3768160Y-19550834D02*
X3782446Y-19565120D01*
X3768160Y-19579405D01*
X3753874Y-19565120D01*
X3768160Y-19550834D01*
X3768160Y-19579405D01*
X3768160Y-19393691D02*
X3782446Y-19407977D01*
X3768160Y-19422262D01*
X3753874Y-19407977D01*
X3768160Y-19393691D01*
X3768160Y-19422262D01*
X1384589Y-20053691D02*
X1424588Y-20093691D01*
X1424588Y-20053691D02*
X1384589Y-20093691D01*
X1768160Y-19909405D02*
X1796731Y-19909405D01*
X1825303Y-19923691D01*
X1839588Y-19937977D01*
X1853874Y-19966548D01*
X1868160Y-20023691D01*
X1868160Y-20095120D01*
X1853874Y-20152262D01*
X1839588Y-20180834D01*
X1825303Y-20195120D01*
X1796731Y-20209405D01*
X1768160Y-20209405D01*
X1739588Y-20195120D01*
X1725303Y-20180834D01*
X1711017Y-20152262D01*
X1696731Y-20095120D01*
X1696731Y-20023691D01*
X1711017Y-19966548D01*
X1725303Y-19937977D01*
X1739588Y-19923691D01*
X1768160Y-19909405D01*
X1996731Y-20180834D02*
X2011017Y-20195120D01*
X1996731Y-20209405D01*
X1982446Y-20195120D01*
X1996731Y-20180834D01*
X1996731Y-20209405D01*
X2268160Y-20009405D02*
X2268160Y-20209405D01*
X2196731Y-19895120D02*
X2125303Y-20109405D01*
X2311017Y-20109405D01*
X2482446Y-19909405D02*
X2511017Y-19909405D01*
X2539589Y-19923691D01*
X2553874Y-19937977D01*
X2568160Y-19966548D01*
X2582446Y-20023691D01*
X2582446Y-20095120D01*
X2568160Y-20152262D01*
X2553874Y-20180834D01*
X2539589Y-20195120D01*
X2511017Y-20209405D01*
X2482446Y-20209405D01*
X2453874Y-20195120D01*
X2439589Y-20180834D01*
X2425303Y-20152262D01*
X2411017Y-20095120D01*
X2411017Y-20023691D01*
X2425303Y-19966548D01*
X2439589Y-19937977D01*
X2453874Y-19923691D01*
X2482446Y-19909405D01*
X2768160Y-19909405D02*
X2796731Y-19909405D01*
X2825303Y-19923691D01*
X2839588Y-19937977D01*
X2853874Y-19966548D01*
X2868160Y-20023691D01*
X2868160Y-20095120D01*
X2853874Y-20152262D01*
X2839588Y-20180834D01*
X2825303Y-20195120D01*
X2796731Y-20209405D01*
X2768160Y-20209405D01*
X2739589Y-20195120D01*
X2725303Y-20180834D01*
X2711017Y-20152262D01*
X2696731Y-20095120D01*
X2696731Y-20023691D01*
X2711017Y-19966548D01*
X2725303Y-19937977D01*
X2739589Y-19923691D01*
X2768160Y-19909405D01*
X2996731Y-20209405D02*
X2996731Y-20009405D01*
X2996731Y-20037977D02*
X3011017Y-20023691D01*
X3039588Y-20009405D01*
X3082446Y-20009405D01*
X3111017Y-20023691D01*
X3125303Y-20052262D01*
X3125303Y-20209405D01*
X3125303Y-20052262D02*
X3139588Y-20023691D01*
X3168160Y-20009405D01*
X3211017Y-20009405D01*
X3239588Y-20023691D01*
X3253874Y-20052262D01*
X3253874Y-20209405D01*
X3396731Y-20209405D02*
X3396731Y-20009405D01*
X3396731Y-20037977D02*
X3411017Y-20023691D01*
X3439588Y-20009405D01*
X3482446Y-20009405D01*
X3511017Y-20023691D01*
X3525303Y-20052262D01*
X3525303Y-20209405D01*
X3525303Y-20052262D02*
X3539588Y-20023691D01*
X3568160Y-20009405D01*
X3611017Y-20009405D01*
X3639588Y-20023691D01*
X3653874Y-20052262D01*
X3653874Y-20209405D01*
X4239589Y-19895120D02*
X3982446Y-20280834D01*
X4625303Y-19909405D02*
X4653874Y-19909405D01*
X4682446Y-19923691D01*
X4696731Y-19937977D01*
X4711017Y-19966548D01*
X4725303Y-20023691D01*
X4725303Y-20095120D01*
X4711017Y-20152262D01*
X4696731Y-20180834D01*
X4682446Y-20195120D01*
X4653874Y-20209405D01*
X4625303Y-20209405D01*
X4596731Y-20195120D01*
X4582446Y-20180834D01*
X4568160Y-20152262D01*
X4553874Y-20095120D01*
X4553874Y-20023691D01*
X4568160Y-19966548D01*
X4582446Y-19937977D01*
X4596731Y-19923691D01*
X4625303Y-19909405D01*
X4853874Y-20180834D02*
X4868160Y-20195120D01*
X4853874Y-20209405D01*
X4839589Y-20195120D01*
X4853874Y-20180834D01*
X4853874Y-20209405D01*
X5053874Y-19909405D02*
X5082446Y-19909405D01*
X5111017Y-19923691D01*
X5125303Y-19937977D01*
X5139589Y-19966548D01*
X5153874Y-20023691D01*
X5153874Y-20095120D01*
X5139589Y-20152262D01*
X5125303Y-20180834D01*
X5111017Y-20195120D01*
X5082446Y-20209405D01*
X5053874Y-20209405D01*
X5025303Y-20195120D01*
X5011017Y-20180834D01*
X4996731Y-20152262D01*
X4982446Y-20095120D01*
X4982446Y-20023691D01*
X4996731Y-19966548D01*
X5011017Y-19937977D01*
X5025303Y-19923691D01*
X5053874Y-19909405D01*
X5439588Y-20209405D02*
X5268160Y-20209405D01*
X5353874Y-20209405D02*
X5353874Y-19909405D01*
X5325303Y-19952262D01*
X5296731Y-19980834D01*
X5268160Y-19995120D01*
X5711017Y-19909405D02*
X5568160Y-19909405D01*
X5553874Y-20052262D01*
X5568160Y-20037977D01*
X5596731Y-20023691D01*
X5668160Y-20023691D01*
X5696731Y-20037977D01*
X5711017Y-20052262D01*
X5725303Y-20080834D01*
X5725303Y-20152262D01*
X5711017Y-20180834D01*
X5696731Y-20195120D01*
X5668160Y-20209405D01*
X5596731Y-20209405D01*
X5568160Y-20195120D01*
X5553874Y-20180834D01*
X5825303Y-19909405D02*
X6025303Y-19909405D01*
X5896731Y-20209405D01*
X6125303Y-19909405D02*
X6125303Y-19966548D01*
X6239588Y-19909405D02*
X6239588Y-19966548D01*
X6682446Y-20323691D02*
X6668160Y-20309405D01*
X6639588Y-20266548D01*
X6625303Y-20237977D01*
X6611017Y-20195120D01*
X6596731Y-20123691D01*
X6596731Y-20066548D01*
X6611017Y-19995120D01*
X6625303Y-19952262D01*
X6639588Y-19923691D01*
X6668160Y-19880834D01*
X6682446Y-19866548D01*
X6953874Y-20209405D02*
X6782446Y-20209405D01*
X6868160Y-20209405D02*
X6868160Y-19909405D01*
X6839588Y-19952262D01*
X6811017Y-19980834D01*
X6782446Y-19995120D01*
X7053874Y-19909405D02*
X7253874Y-19909405D01*
X7125303Y-20209405D01*
X7425303Y-19909405D02*
X7453874Y-19909405D01*
X7482446Y-19923691D01*
X7496731Y-19937977D01*
X7511017Y-19966548D01*
X7525303Y-20023691D01*
X7525303Y-20095120D01*
X7511017Y-20152262D01*
X7496731Y-20180834D01*
X7482446Y-20195120D01*
X7453874Y-20209405D01*
X7425303Y-20209405D01*
X7396731Y-20195120D01*
X7382446Y-20180834D01*
X7368160Y-20152262D01*
X7353874Y-20095120D01*
X7353874Y-20023691D01*
X7368160Y-19966548D01*
X7382446Y-19937977D01*
X7396731Y-19923691D01*
X7425303Y-19909405D01*
X7882446Y-20209405D02*
X7882446Y-19909405D01*
X8011017Y-20209405D02*
X8011017Y-20052262D01*
X7996731Y-20023691D01*
X7968160Y-20009405D01*
X7925303Y-20009405D01*
X7896731Y-20023691D01*
X7882446Y-20037977D01*
X8196731Y-20209405D02*
X8168160Y-20195120D01*
X8153874Y-20180834D01*
X8139588Y-20152262D01*
X8139588Y-20066548D01*
X8153874Y-20037977D01*
X8168160Y-20023691D01*
X8196731Y-20009405D01*
X8239588Y-20009405D01*
X8268160Y-20023691D01*
X8282446Y-20037977D01*
X8296731Y-20066548D01*
X8296731Y-20152262D01*
X8282446Y-20180834D01*
X8268160Y-20195120D01*
X8239588Y-20209405D01*
X8196731Y-20209405D01*
X8468160Y-20209405D02*
X8439588Y-20195120D01*
X8425303Y-20166548D01*
X8425303Y-19909405D01*
X8696731Y-20195120D02*
X8668160Y-20209405D01*
X8611017Y-20209405D01*
X8582446Y-20195120D01*
X8568160Y-20166548D01*
X8568160Y-20052262D01*
X8582446Y-20023691D01*
X8611017Y-20009405D01*
X8668160Y-20009405D01*
X8696731Y-20023691D01*
X8711017Y-20052262D01*
X8711017Y-20080834D01*
X8568160Y-20109405D01*
X8825303Y-20195120D02*
X8853874Y-20209405D01*
X8911017Y-20209405D01*
X8939588Y-20195120D01*
X8953874Y-20166548D01*
X8953874Y-20152262D01*
X8939588Y-20123691D01*
X8911017Y-20109405D01*
X8868160Y-20109405D01*
X8839588Y-20095120D01*
X8825303Y-20066548D01*
X8825303Y-20052262D01*
X8839588Y-20023691D01*
X8868160Y-20009405D01*
X8911017Y-20009405D01*
X8939588Y-20023691D01*
X9053874Y-20323691D02*
X9068160Y-20309405D01*
X9096731Y-20266548D01*
X9111017Y-20237977D01*
X9125303Y-20195120D01*
X9139588Y-20123691D01*
X9139588Y-20066548D01*
X9125303Y-19995120D01*
X9111017Y-19952262D01*
X9096731Y-19923691D01*
X9068160Y-19880834D01*
X9053874Y-19866548D01*
X1424588Y-20469691D02*
G75*
G03*
X1424588Y-20469691I-30000J0D01*
G01*
X1768160Y-20305405D02*
X1796731Y-20305405D01*
X1825303Y-20319691D01*
X1839588Y-20333977D01*
X1853874Y-20362548D01*
X1868160Y-20419691D01*
X1868160Y-20491120D01*
X1853874Y-20548262D01*
X1839588Y-20576834D01*
X1825303Y-20591120D01*
X1796731Y-20605405D01*
X1768160Y-20605405D01*
X1739588Y-20591120D01*
X1725303Y-20576834D01*
X1711017Y-20548262D01*
X1696731Y-20491120D01*
X1696731Y-20419691D01*
X1711017Y-20362548D01*
X1725303Y-20333977D01*
X1739588Y-20319691D01*
X1768160Y-20305405D01*
X1996731Y-20576834D02*
X2011017Y-20591120D01*
X1996731Y-20605405D01*
X1982446Y-20591120D01*
X1996731Y-20576834D01*
X1996731Y-20605405D01*
X2268160Y-20305405D02*
X2211017Y-20305405D01*
X2182446Y-20319691D01*
X2168160Y-20333977D01*
X2139589Y-20376834D01*
X2125303Y-20433977D01*
X2125303Y-20548262D01*
X2139589Y-20576834D01*
X2153874Y-20591120D01*
X2182446Y-20605405D01*
X2239589Y-20605405D01*
X2268160Y-20591120D01*
X2282446Y-20576834D01*
X2296731Y-20548262D01*
X2296731Y-20476834D01*
X2282446Y-20448262D01*
X2268160Y-20433977D01*
X2239589Y-20419691D01*
X2182446Y-20419691D01*
X2153874Y-20433977D01*
X2139589Y-20448262D01*
X2125303Y-20476834D01*
X2482446Y-20305405D02*
X2511017Y-20305405D01*
X2539589Y-20319691D01*
X2553874Y-20333977D01*
X2568160Y-20362548D01*
X2582446Y-20419691D01*
X2582446Y-20491120D01*
X2568160Y-20548262D01*
X2553874Y-20576834D01*
X2539589Y-20591120D01*
X2511017Y-20605405D01*
X2482446Y-20605405D01*
X2453874Y-20591120D01*
X2439589Y-20576834D01*
X2425303Y-20548262D01*
X2411017Y-20491120D01*
X2411017Y-20419691D01*
X2425303Y-20362548D01*
X2439589Y-20333977D01*
X2453874Y-20319691D01*
X2482446Y-20305405D01*
X2768160Y-20305405D02*
X2796731Y-20305405D01*
X2825303Y-20319691D01*
X2839588Y-20333977D01*
X2853874Y-20362548D01*
X2868160Y-20419691D01*
X2868160Y-20491120D01*
X2853874Y-20548262D01*
X2839588Y-20576834D01*
X2825303Y-20591120D01*
X2796731Y-20605405D01*
X2768160Y-20605405D01*
X2739589Y-20591120D01*
X2725303Y-20576834D01*
X2711017Y-20548262D01*
X2696731Y-20491120D01*
X2696731Y-20419691D01*
X2711017Y-20362548D01*
X2725303Y-20333977D01*
X2739589Y-20319691D01*
X2768160Y-20305405D01*
X2996731Y-20605405D02*
X2996731Y-20405405D01*
X2996731Y-20433977D02*
X3011017Y-20419691D01*
X3039588Y-20405405D01*
X3082446Y-20405405D01*
X3111017Y-20419691D01*
X3125303Y-20448262D01*
X3125303Y-20605405D01*
X3125303Y-20448262D02*
X3139588Y-20419691D01*
X3168160Y-20405405D01*
X3211017Y-20405405D01*
X3239588Y-20419691D01*
X3253874Y-20448262D01*
X3253874Y-20605405D01*
X3396731Y-20605405D02*
X3396731Y-20405405D01*
X3396731Y-20433977D02*
X3411017Y-20419691D01*
X3439588Y-20405405D01*
X3482446Y-20405405D01*
X3511017Y-20419691D01*
X3525303Y-20448262D01*
X3525303Y-20605405D01*
X3525303Y-20448262D02*
X3539588Y-20419691D01*
X3568160Y-20405405D01*
X3611017Y-20405405D01*
X3639588Y-20419691D01*
X3653874Y-20448262D01*
X3653874Y-20605405D01*
X4239589Y-20291120D02*
X3982446Y-20676834D01*
X4625303Y-20305405D02*
X4653874Y-20305405D01*
X4682446Y-20319691D01*
X4696731Y-20333977D01*
X4711017Y-20362548D01*
X4725303Y-20419691D01*
X4725303Y-20491120D01*
X4711017Y-20548262D01*
X4696731Y-20576834D01*
X4682446Y-20591120D01*
X4653874Y-20605405D01*
X4625303Y-20605405D01*
X4596731Y-20591120D01*
X4582446Y-20576834D01*
X4568160Y-20548262D01*
X4553874Y-20491120D01*
X4553874Y-20419691D01*
X4568160Y-20362548D01*
X4582446Y-20333977D01*
X4596731Y-20319691D01*
X4625303Y-20305405D01*
X4853874Y-20576834D02*
X4868160Y-20591120D01*
X4853874Y-20605405D01*
X4839589Y-20591120D01*
X4853874Y-20576834D01*
X4853874Y-20605405D01*
X5053874Y-20305405D02*
X5082446Y-20305405D01*
X5111017Y-20319691D01*
X5125303Y-20333977D01*
X5139589Y-20362548D01*
X5153874Y-20419691D01*
X5153874Y-20491120D01*
X5139589Y-20548262D01*
X5125303Y-20576834D01*
X5111017Y-20591120D01*
X5082446Y-20605405D01*
X5053874Y-20605405D01*
X5025303Y-20591120D01*
X5011017Y-20576834D01*
X4996731Y-20548262D01*
X4982446Y-20491120D01*
X4982446Y-20419691D01*
X4996731Y-20362548D01*
X5011017Y-20333977D01*
X5025303Y-20319691D01*
X5053874Y-20305405D01*
X5268160Y-20333977D02*
X5282446Y-20319691D01*
X5311017Y-20305405D01*
X5382446Y-20305405D01*
X5411017Y-20319691D01*
X5425303Y-20333977D01*
X5439588Y-20362548D01*
X5439588Y-20391120D01*
X5425303Y-20433977D01*
X5253874Y-20605405D01*
X5439588Y-20605405D01*
X5539588Y-20305405D02*
X5725303Y-20305405D01*
X5625303Y-20419691D01*
X5668160Y-20419691D01*
X5696731Y-20433977D01*
X5711017Y-20448262D01*
X5725303Y-20476834D01*
X5725303Y-20548262D01*
X5711017Y-20576834D01*
X5696731Y-20591120D01*
X5668160Y-20605405D01*
X5582446Y-20605405D01*
X5553874Y-20591120D01*
X5539588Y-20576834D01*
X5982446Y-20305405D02*
X5925303Y-20305405D01*
X5896731Y-20319691D01*
X5882446Y-20333977D01*
X5853874Y-20376834D01*
X5839588Y-20433977D01*
X5839588Y-20548262D01*
X5853874Y-20576834D01*
X5868160Y-20591120D01*
X5896731Y-20605405D01*
X5953874Y-20605405D01*
X5982446Y-20591120D01*
X5996731Y-20576834D01*
X6011017Y-20548262D01*
X6011017Y-20476834D01*
X5996731Y-20448262D01*
X5982446Y-20433977D01*
X5953874Y-20419691D01*
X5896731Y-20419691D01*
X5868160Y-20433977D01*
X5853874Y-20448262D01*
X5839588Y-20476834D01*
X6125303Y-20305405D02*
X6125303Y-20362548D01*
X6239588Y-20305405D02*
X6239588Y-20362548D01*
X6682446Y-20719691D02*
X6668160Y-20705405D01*
X6639588Y-20662548D01*
X6625303Y-20633977D01*
X6611017Y-20591120D01*
X6596731Y-20519691D01*
X6596731Y-20462548D01*
X6611017Y-20391120D01*
X6625303Y-20348262D01*
X6639588Y-20319691D01*
X6668160Y-20276834D01*
X6682446Y-20262548D01*
X6853874Y-20305405D02*
X6882446Y-20305405D01*
X6911017Y-20319691D01*
X6925303Y-20333977D01*
X6939588Y-20362548D01*
X6953874Y-20419691D01*
X6953874Y-20491120D01*
X6939588Y-20548262D01*
X6925303Y-20576834D01*
X6911017Y-20591120D01*
X6882446Y-20605405D01*
X6853874Y-20605405D01*
X6825303Y-20591120D01*
X6811017Y-20576834D01*
X6796731Y-20548262D01*
X6782446Y-20491120D01*
X6782446Y-20419691D01*
X6796731Y-20362548D01*
X6811017Y-20333977D01*
X6825303Y-20319691D01*
X6853874Y-20305405D01*
X7311017Y-20605405D02*
X7311017Y-20305405D01*
X7439588Y-20605405D02*
X7439588Y-20448262D01*
X7425303Y-20419691D01*
X7396731Y-20405405D01*
X7353874Y-20405405D01*
X7325303Y-20419691D01*
X7311017Y-20433977D01*
X7625303Y-20605405D02*
X7596731Y-20591120D01*
X7582446Y-20576834D01*
X7568160Y-20548262D01*
X7568160Y-20462548D01*
X7582446Y-20433977D01*
X7596731Y-20419691D01*
X7625303Y-20405405D01*
X7668160Y-20405405D01*
X7696731Y-20419691D01*
X7711017Y-20433977D01*
X7725303Y-20462548D01*
X7725303Y-20548262D01*
X7711017Y-20576834D01*
X7696731Y-20591120D01*
X7668160Y-20605405D01*
X7625303Y-20605405D01*
X7896731Y-20605405D02*
X7868160Y-20591120D01*
X7853874Y-20562548D01*
X7853874Y-20305405D01*
X8125303Y-20591120D02*
X8096731Y-20605405D01*
X8039588Y-20605405D01*
X8011017Y-20591120D01*
X7996731Y-20562548D01*
X7996731Y-20448262D01*
X8011017Y-20419691D01*
X8039588Y-20405405D01*
X8096731Y-20405405D01*
X8125303Y-20419691D01*
X8139588Y-20448262D01*
X8139588Y-20476834D01*
X7996731Y-20505405D01*
X8253874Y-20591120D02*
X8282446Y-20605405D01*
X8339588Y-20605405D01*
X8368160Y-20591120D01*
X8382446Y-20562548D01*
X8382446Y-20548262D01*
X8368160Y-20519691D01*
X8339588Y-20505405D01*
X8296731Y-20505405D01*
X8268160Y-20491120D01*
X8253874Y-20462548D01*
X8253874Y-20448262D01*
X8268160Y-20419691D01*
X8296731Y-20405405D01*
X8339588Y-20405405D01*
X8368160Y-20419691D01*
X8739589Y-20491120D02*
X8968160Y-20491120D01*
X8853874Y-20605405D02*
X8853874Y-20376834D01*
X9468160Y-20405405D02*
X9468160Y-20605405D01*
X9396731Y-20291120D02*
X9325303Y-20505405D01*
X9511017Y-20505405D01*
X9839588Y-20591120D02*
X9868160Y-20605405D01*
X9925303Y-20605405D01*
X9953874Y-20591120D01*
X9968160Y-20562548D01*
X9968160Y-20548262D01*
X9953874Y-20519691D01*
X9925303Y-20505405D01*
X9882446Y-20505405D01*
X9853874Y-20491120D01*
X9839588Y-20462548D01*
X9839588Y-20448262D01*
X9853874Y-20419691D01*
X9882446Y-20405405D01*
X9925303Y-20405405D01*
X9953874Y-20419691D01*
X10139589Y-20605405D02*
X10111017Y-20591120D01*
X10096731Y-20562548D01*
X10096731Y-20305405D01*
X10296731Y-20605405D02*
X10268160Y-20591120D01*
X10253874Y-20576834D01*
X10239588Y-20548262D01*
X10239588Y-20462548D01*
X10253874Y-20433977D01*
X10268160Y-20419691D01*
X10296731Y-20405405D01*
X10339588Y-20405405D01*
X10368160Y-20419691D01*
X10382446Y-20433977D01*
X10396731Y-20462548D01*
X10396731Y-20548262D01*
X10382446Y-20576834D01*
X10368160Y-20591120D01*
X10339588Y-20605405D01*
X10296731Y-20605405D01*
X10482446Y-20405405D02*
X10596731Y-20405405D01*
X10525303Y-20305405D02*
X10525303Y-20562548D01*
X10539588Y-20591120D01*
X10568160Y-20605405D01*
X10596731Y-20605405D01*
X10682446Y-20591120D02*
X10711017Y-20605405D01*
X10768160Y-20605405D01*
X10796731Y-20591120D01*
X10811017Y-20562548D01*
X10811017Y-20548262D01*
X10796731Y-20519691D01*
X10768160Y-20505405D01*
X10725303Y-20505405D01*
X10696731Y-20491120D01*
X10682446Y-20462548D01*
X10682446Y-20448262D01*
X10696731Y-20419691D01*
X10725303Y-20405405D01*
X10768160Y-20405405D01*
X10796731Y-20419691D01*
X10911017Y-20719691D02*
X10925303Y-20705405D01*
X10953874Y-20662548D01*
X10968160Y-20633977D01*
X10982446Y-20591120D01*
X10996731Y-20519691D01*
X10996731Y-20462548D01*
X10982446Y-20391120D01*
X10968160Y-20348262D01*
X10953874Y-20319691D01*
X10925303Y-20276834D01*
X10911017Y-20262548D01*
X1374589Y-20815691D02*
X1374589Y-20915691D01*
X1324589Y-20865691D02*
X1424588Y-20865691D01*
X1868160Y-21001405D02*
X1696731Y-21001405D01*
X1782446Y-21001405D02*
X1782446Y-20701405D01*
X1753874Y-20744262D01*
X1725303Y-20772834D01*
X1696731Y-20787120D01*
X1996731Y-20972834D02*
X2011017Y-20987120D01*
X1996731Y-21001405D01*
X1982446Y-20987120D01*
X1996731Y-20972834D01*
X1996731Y-21001405D01*
X2196731Y-20701405D02*
X2225303Y-20701405D01*
X2253874Y-20715691D01*
X2268160Y-20729977D01*
X2282446Y-20758548D01*
X2296731Y-20815691D01*
X2296731Y-20887120D01*
X2282446Y-20944262D01*
X2268160Y-20972834D01*
X2253874Y-20987120D01*
X2225303Y-21001405D01*
X2196731Y-21001405D01*
X2168160Y-20987120D01*
X2153874Y-20972834D01*
X2139589Y-20944262D01*
X2125303Y-20887120D01*
X2125303Y-20815691D01*
X2139589Y-20758548D01*
X2153874Y-20729977D01*
X2168160Y-20715691D01*
X2196731Y-20701405D01*
X2482446Y-20701405D02*
X2511017Y-20701405D01*
X2539589Y-20715691D01*
X2553874Y-20729977D01*
X2568160Y-20758548D01*
X2582446Y-20815691D01*
X2582446Y-20887120D01*
X2568160Y-20944262D01*
X2553874Y-20972834D01*
X2539589Y-20987120D01*
X2511017Y-21001405D01*
X2482446Y-21001405D01*
X2453874Y-20987120D01*
X2439589Y-20972834D01*
X2425303Y-20944262D01*
X2411017Y-20887120D01*
X2411017Y-20815691D01*
X2425303Y-20758548D01*
X2439589Y-20729977D01*
X2453874Y-20715691D01*
X2482446Y-20701405D01*
X2768160Y-20701405D02*
X2796731Y-20701405D01*
X2825303Y-20715691D01*
X2839588Y-20729977D01*
X2853874Y-20758548D01*
X2868160Y-20815691D01*
X2868160Y-20887120D01*
X2853874Y-20944262D01*
X2839588Y-20972834D01*
X2825303Y-20987120D01*
X2796731Y-21001405D01*
X2768160Y-21001405D01*
X2739589Y-20987120D01*
X2725303Y-20972834D01*
X2711017Y-20944262D01*
X2696731Y-20887120D01*
X2696731Y-20815691D01*
X2711017Y-20758548D01*
X2725303Y-20729977D01*
X2739589Y-20715691D01*
X2768160Y-20701405D01*
X2996731Y-21001405D02*
X2996731Y-20801405D01*
X2996731Y-20829977D02*
X3011017Y-20815691D01*
X3039588Y-20801405D01*
X3082446Y-20801405D01*
X3111017Y-20815691D01*
X3125303Y-20844262D01*
X3125303Y-21001405D01*
X3125303Y-20844262D02*
X3139588Y-20815691D01*
X3168160Y-20801405D01*
X3211017Y-20801405D01*
X3239588Y-20815691D01*
X3253874Y-20844262D01*
X3253874Y-21001405D01*
X3396731Y-21001405D02*
X3396731Y-20801405D01*
X3396731Y-20829977D02*
X3411017Y-20815691D01*
X3439588Y-20801405D01*
X3482446Y-20801405D01*
X3511017Y-20815691D01*
X3525303Y-20844262D01*
X3525303Y-21001405D01*
X3525303Y-20844262D02*
X3539588Y-20815691D01*
X3568160Y-20801405D01*
X3611017Y-20801405D01*
X3639588Y-20815691D01*
X3653874Y-20844262D01*
X3653874Y-21001405D01*
X4239589Y-20687120D02*
X3982446Y-21072834D01*
X4625303Y-20701405D02*
X4653874Y-20701405D01*
X4682446Y-20715691D01*
X4696731Y-20729977D01*
X4711017Y-20758548D01*
X4725303Y-20815691D01*
X4725303Y-20887120D01*
X4711017Y-20944262D01*
X4696731Y-20972834D01*
X4682446Y-20987120D01*
X4653874Y-21001405D01*
X4625303Y-21001405D01*
X4596731Y-20987120D01*
X4582446Y-20972834D01*
X4568160Y-20944262D01*
X4553874Y-20887120D01*
X4553874Y-20815691D01*
X4568160Y-20758548D01*
X4582446Y-20729977D01*
X4596731Y-20715691D01*
X4625303Y-20701405D01*
X4853874Y-20972834D02*
X4868160Y-20987120D01*
X4853874Y-21001405D01*
X4839589Y-20987120D01*
X4853874Y-20972834D01*
X4853874Y-21001405D01*
X5053874Y-20701405D02*
X5082446Y-20701405D01*
X5111017Y-20715691D01*
X5125303Y-20729977D01*
X5139589Y-20758548D01*
X5153874Y-20815691D01*
X5153874Y-20887120D01*
X5139589Y-20944262D01*
X5125303Y-20972834D01*
X5111017Y-20987120D01*
X5082446Y-21001405D01*
X5053874Y-21001405D01*
X5025303Y-20987120D01*
X5011017Y-20972834D01*
X4996731Y-20944262D01*
X4982446Y-20887120D01*
X4982446Y-20815691D01*
X4996731Y-20758548D01*
X5011017Y-20729977D01*
X5025303Y-20715691D01*
X5053874Y-20701405D01*
X5253874Y-20701405D02*
X5439588Y-20701405D01*
X5339588Y-20815691D01*
X5382446Y-20815691D01*
X5411017Y-20829977D01*
X5425303Y-20844262D01*
X5439588Y-20872834D01*
X5439588Y-20944262D01*
X5425303Y-20972834D01*
X5411017Y-20987120D01*
X5382446Y-21001405D01*
X5296731Y-21001405D01*
X5268160Y-20987120D01*
X5253874Y-20972834D01*
X5582446Y-21001405D02*
X5639588Y-21001405D01*
X5668160Y-20987120D01*
X5682446Y-20972834D01*
X5711017Y-20929977D01*
X5725303Y-20872834D01*
X5725303Y-20758548D01*
X5711017Y-20729977D01*
X5696731Y-20715691D01*
X5668160Y-20701405D01*
X5611017Y-20701405D01*
X5582446Y-20715691D01*
X5568160Y-20729977D01*
X5553874Y-20758548D01*
X5553874Y-20829977D01*
X5568160Y-20858548D01*
X5582446Y-20872834D01*
X5611017Y-20887120D01*
X5668160Y-20887120D01*
X5696731Y-20872834D01*
X5711017Y-20858548D01*
X5725303Y-20829977D01*
X5982446Y-20801405D02*
X5982446Y-21001405D01*
X5911017Y-20687120D02*
X5839588Y-20901405D01*
X6025303Y-20901405D01*
X6125303Y-20701405D02*
X6125303Y-20758548D01*
X6239588Y-20701405D02*
X6239588Y-20758548D01*
X6682446Y-21115691D02*
X6668160Y-21101405D01*
X6639588Y-21058548D01*
X6625303Y-21029977D01*
X6611017Y-20987120D01*
X6596731Y-20915691D01*
X6596731Y-20858548D01*
X6611017Y-20787120D01*
X6625303Y-20744262D01*
X6639588Y-20715691D01*
X6668160Y-20672834D01*
X6682446Y-20658548D01*
X6925303Y-20701405D02*
X6868160Y-20701405D01*
X6839588Y-20715691D01*
X6825303Y-20729977D01*
X6796731Y-20772834D01*
X6782446Y-20829977D01*
X6782446Y-20944262D01*
X6796731Y-20972834D01*
X6811017Y-20987120D01*
X6839588Y-21001405D01*
X6896731Y-21001405D01*
X6925303Y-20987120D01*
X6939588Y-20972834D01*
X6953874Y-20944262D01*
X6953874Y-20872834D01*
X6939588Y-20844262D01*
X6925303Y-20829977D01*
X6896731Y-20815691D01*
X6839588Y-20815691D01*
X6811017Y-20829977D01*
X6796731Y-20844262D01*
X6782446Y-20872834D01*
X7311017Y-21001405D02*
X7311017Y-20701405D01*
X7439588Y-21001405D02*
X7439588Y-20844262D01*
X7425303Y-20815691D01*
X7396731Y-20801405D01*
X7353874Y-20801405D01*
X7325303Y-20815691D01*
X7311017Y-20829977D01*
X7625303Y-21001405D02*
X7596731Y-20987120D01*
X7582446Y-20972834D01*
X7568160Y-20944262D01*
X7568160Y-20858548D01*
X7582446Y-20829977D01*
X7596731Y-20815691D01*
X7625303Y-20801405D01*
X7668160Y-20801405D01*
X7696731Y-20815691D01*
X7711017Y-20829977D01*
X7725303Y-20858548D01*
X7725303Y-20944262D01*
X7711017Y-20972834D01*
X7696731Y-20987120D01*
X7668160Y-21001405D01*
X7625303Y-21001405D01*
X7896731Y-21001405D02*
X7868160Y-20987120D01*
X7853874Y-20958548D01*
X7853874Y-20701405D01*
X8125303Y-20987120D02*
X8096731Y-21001405D01*
X8039588Y-21001405D01*
X8011017Y-20987120D01*
X7996731Y-20958548D01*
X7996731Y-20844262D01*
X8011017Y-20815691D01*
X8039588Y-20801405D01*
X8096731Y-20801405D01*
X8125303Y-20815691D01*
X8139588Y-20844262D01*
X8139588Y-20872834D01*
X7996731Y-20901405D01*
X8253874Y-20987120D02*
X8282446Y-21001405D01*
X8339588Y-21001405D01*
X8368160Y-20987120D01*
X8382446Y-20958548D01*
X8382446Y-20944262D01*
X8368160Y-20915691D01*
X8339588Y-20901405D01*
X8296731Y-20901405D01*
X8268160Y-20887120D01*
X8253874Y-20858548D01*
X8253874Y-20844262D01*
X8268160Y-20815691D01*
X8296731Y-20801405D01*
X8339588Y-20801405D01*
X8368160Y-20815691D01*
X8482446Y-21115691D02*
X8496731Y-21101405D01*
X8525303Y-21058548D01*
X8539589Y-21029977D01*
X8553874Y-20987120D01*
X8568160Y-20915691D01*
X8568160Y-20858548D01*
X8553874Y-20787120D01*
X8539589Y-20744262D01*
X8525303Y-20715691D01*
X8496731Y-20672834D01*
X8482446Y-20658548D01*
X1392371Y-21339474D02*
X1392371Y-21183909D01*
X1236806Y-21183909D01*
X1236806Y-21339474D01*
X1392371Y-21339474D01*
X1696731Y-21125977D02*
X1711017Y-21111691D01*
X1739588Y-21097405D01*
X1811017Y-21097405D01*
X1839588Y-21111691D01*
X1853874Y-21125977D01*
X1868160Y-21154548D01*
X1868160Y-21183120D01*
X1853874Y-21225977D01*
X1682446Y-21397405D01*
X1868160Y-21397405D01*
X1996731Y-21368834D02*
X2011017Y-21383120D01*
X1996731Y-21397405D01*
X1982446Y-21383120D01*
X1996731Y-21368834D01*
X1996731Y-21397405D01*
X2125303Y-21125977D02*
X2139589Y-21111691D01*
X2168160Y-21097405D01*
X2239589Y-21097405D01*
X2268160Y-21111691D01*
X2282446Y-21125977D01*
X2296731Y-21154548D01*
X2296731Y-21183120D01*
X2282446Y-21225977D01*
X2111017Y-21397405D01*
X2296731Y-21397405D01*
X2482446Y-21097405D02*
X2511017Y-21097405D01*
X2539589Y-21111691D01*
X2553874Y-21125977D01*
X2568160Y-21154548D01*
X2582446Y-21211691D01*
X2582446Y-21283120D01*
X2568160Y-21340262D01*
X2553874Y-21368834D01*
X2539589Y-21383120D01*
X2511017Y-21397405D01*
X2482446Y-21397405D01*
X2453874Y-21383120D01*
X2439589Y-21368834D01*
X2425303Y-21340262D01*
X2411017Y-21283120D01*
X2411017Y-21211691D01*
X2425303Y-21154548D01*
X2439589Y-21125977D01*
X2453874Y-21111691D01*
X2482446Y-21097405D01*
X2768160Y-21097405D02*
X2796731Y-21097405D01*
X2825303Y-21111691D01*
X2839588Y-21125977D01*
X2853874Y-21154548D01*
X2868160Y-21211691D01*
X2868160Y-21283120D01*
X2853874Y-21340262D01*
X2839588Y-21368834D01*
X2825303Y-21383120D01*
X2796731Y-21397405D01*
X2768160Y-21397405D01*
X2739589Y-21383120D01*
X2725303Y-21368834D01*
X2711017Y-21340262D01*
X2696731Y-21283120D01*
X2696731Y-21211691D01*
X2711017Y-21154548D01*
X2725303Y-21125977D01*
X2739589Y-21111691D01*
X2768160Y-21097405D01*
X2996731Y-21397405D02*
X2996731Y-21197405D01*
X2996731Y-21225977D02*
X3011017Y-21211691D01*
X3039588Y-21197405D01*
X3082446Y-21197405D01*
X3111017Y-21211691D01*
X3125303Y-21240262D01*
X3125303Y-21397405D01*
X3125303Y-21240262D02*
X3139588Y-21211691D01*
X3168160Y-21197405D01*
X3211017Y-21197405D01*
X3239588Y-21211691D01*
X3253874Y-21240262D01*
X3253874Y-21397405D01*
X3396731Y-21397405D02*
X3396731Y-21197405D01*
X3396731Y-21225977D02*
X3411017Y-21211691D01*
X3439588Y-21197405D01*
X3482446Y-21197405D01*
X3511017Y-21211691D01*
X3525303Y-21240262D01*
X3525303Y-21397405D01*
X3525303Y-21240262D02*
X3539588Y-21211691D01*
X3568160Y-21197405D01*
X3611017Y-21197405D01*
X3639588Y-21211691D01*
X3653874Y-21240262D01*
X3653874Y-21397405D01*
X4239589Y-21083120D02*
X3982446Y-21468834D01*
X4625303Y-21097405D02*
X4653874Y-21097405D01*
X4682446Y-21111691D01*
X4696731Y-21125977D01*
X4711017Y-21154548D01*
X4725303Y-21211691D01*
X4725303Y-21283120D01*
X4711017Y-21340262D01*
X4696731Y-21368834D01*
X4682446Y-21383120D01*
X4653874Y-21397405D01*
X4625303Y-21397405D01*
X4596731Y-21383120D01*
X4582446Y-21368834D01*
X4568160Y-21340262D01*
X4553874Y-21283120D01*
X4553874Y-21211691D01*
X4568160Y-21154548D01*
X4582446Y-21125977D01*
X4596731Y-21111691D01*
X4625303Y-21097405D01*
X4853874Y-21368834D02*
X4868160Y-21383120D01*
X4853874Y-21397405D01*
X4839589Y-21383120D01*
X4853874Y-21368834D01*
X4853874Y-21397405D01*
X5053874Y-21097405D02*
X5082446Y-21097405D01*
X5111017Y-21111691D01*
X5125303Y-21125977D01*
X5139589Y-21154548D01*
X5153874Y-21211691D01*
X5153874Y-21283120D01*
X5139589Y-21340262D01*
X5125303Y-21368834D01*
X5111017Y-21383120D01*
X5082446Y-21397405D01*
X5053874Y-21397405D01*
X5025303Y-21383120D01*
X5011017Y-21368834D01*
X4996731Y-21340262D01*
X4982446Y-21283120D01*
X4982446Y-21211691D01*
X4996731Y-21154548D01*
X5011017Y-21125977D01*
X5025303Y-21111691D01*
X5053874Y-21097405D01*
X5325303Y-21225977D02*
X5296731Y-21211691D01*
X5282446Y-21197405D01*
X5268160Y-21168834D01*
X5268160Y-21154548D01*
X5282446Y-21125977D01*
X5296731Y-21111691D01*
X5325303Y-21097405D01*
X5382446Y-21097405D01*
X5411017Y-21111691D01*
X5425303Y-21125977D01*
X5439588Y-21154548D01*
X5439588Y-21168834D01*
X5425303Y-21197405D01*
X5411017Y-21211691D01*
X5382446Y-21225977D01*
X5325303Y-21225977D01*
X5296731Y-21240262D01*
X5282446Y-21254548D01*
X5268160Y-21283120D01*
X5268160Y-21340262D01*
X5282446Y-21368834D01*
X5296731Y-21383120D01*
X5325303Y-21397405D01*
X5382446Y-21397405D01*
X5411017Y-21383120D01*
X5425303Y-21368834D01*
X5439588Y-21340262D01*
X5439588Y-21283120D01*
X5425303Y-21254548D01*
X5411017Y-21240262D01*
X5382446Y-21225977D01*
X5696731Y-21097405D02*
X5639588Y-21097405D01*
X5611017Y-21111691D01*
X5596731Y-21125977D01*
X5568160Y-21168834D01*
X5553874Y-21225977D01*
X5553874Y-21340262D01*
X5568160Y-21368834D01*
X5582446Y-21383120D01*
X5611017Y-21397405D01*
X5668160Y-21397405D01*
X5696731Y-21383120D01*
X5711017Y-21368834D01*
X5725303Y-21340262D01*
X5725303Y-21268834D01*
X5711017Y-21240262D01*
X5696731Y-21225977D01*
X5668160Y-21211691D01*
X5611017Y-21211691D01*
X5582446Y-21225977D01*
X5568160Y-21240262D01*
X5553874Y-21268834D01*
X5982446Y-21097405D02*
X5925303Y-21097405D01*
X5896731Y-21111691D01*
X5882446Y-21125977D01*
X5853874Y-21168834D01*
X5839588Y-21225977D01*
X5839588Y-21340262D01*
X5853874Y-21368834D01*
X5868160Y-21383120D01*
X5896731Y-21397405D01*
X5953874Y-21397405D01*
X5982446Y-21383120D01*
X5996731Y-21368834D01*
X6011017Y-21340262D01*
X6011017Y-21268834D01*
X5996731Y-21240262D01*
X5982446Y-21225977D01*
X5953874Y-21211691D01*
X5896731Y-21211691D01*
X5868160Y-21225977D01*
X5853874Y-21240262D01*
X5839588Y-21268834D01*
X6125303Y-21097405D02*
X6125303Y-21154548D01*
X6239588Y-21097405D02*
X6239588Y-21154548D01*
X6682446Y-21511691D02*
X6668160Y-21497405D01*
X6639588Y-21454548D01*
X6625303Y-21425977D01*
X6611017Y-21383120D01*
X6596731Y-21311691D01*
X6596731Y-21254548D01*
X6611017Y-21183120D01*
X6625303Y-21140262D01*
X6639588Y-21111691D01*
X6668160Y-21068834D01*
X6682446Y-21054548D01*
X6953874Y-21397405D02*
X6782446Y-21397405D01*
X6868160Y-21397405D02*
X6868160Y-21097405D01*
X6839588Y-21140262D01*
X6811017Y-21168834D01*
X6782446Y-21183120D01*
X7068160Y-21125977D02*
X7082446Y-21111691D01*
X7111017Y-21097405D01*
X7182446Y-21097405D01*
X7211017Y-21111691D01*
X7225303Y-21125977D01*
X7239588Y-21154548D01*
X7239588Y-21183120D01*
X7225303Y-21225977D01*
X7053874Y-21397405D01*
X7239588Y-21397405D01*
X7596731Y-21397405D02*
X7596731Y-21097405D01*
X7725303Y-21397405D02*
X7725303Y-21240262D01*
X7711017Y-21211691D01*
X7682446Y-21197405D01*
X7639588Y-21197405D01*
X7611017Y-21211691D01*
X7596731Y-21225977D01*
X7911017Y-21397405D02*
X7882446Y-21383120D01*
X7868160Y-21368834D01*
X7853874Y-21340262D01*
X7853874Y-21254548D01*
X7868160Y-21225977D01*
X7882446Y-21211691D01*
X7911017Y-21197405D01*
X7953874Y-21197405D01*
X7982446Y-21211691D01*
X7996731Y-21225977D01*
X8011017Y-21254548D01*
X8011017Y-21340262D01*
X7996731Y-21368834D01*
X7982446Y-21383120D01*
X7953874Y-21397405D01*
X7911017Y-21397405D01*
X8182446Y-21397405D02*
X8153874Y-21383120D01*
X8139588Y-21354548D01*
X8139588Y-21097405D01*
X8411017Y-21383120D02*
X8382446Y-21397405D01*
X8325303Y-21397405D01*
X8296731Y-21383120D01*
X8282446Y-21354548D01*
X8282446Y-21240262D01*
X8296731Y-21211691D01*
X8325303Y-21197405D01*
X8382446Y-21197405D01*
X8411017Y-21211691D01*
X8425303Y-21240262D01*
X8425303Y-21268834D01*
X8282446Y-21297405D01*
X8539589Y-21383120D02*
X8568160Y-21397405D01*
X8625303Y-21397405D01*
X8653874Y-21383120D01*
X8668160Y-21354548D01*
X8668160Y-21340262D01*
X8653874Y-21311691D01*
X8625303Y-21297405D01*
X8582446Y-21297405D01*
X8553874Y-21283120D01*
X8539589Y-21254548D01*
X8539589Y-21240262D01*
X8553874Y-21211691D01*
X8582446Y-21197405D01*
X8625303Y-21197405D01*
X8653874Y-21211691D01*
X8768160Y-21511691D02*
X8782446Y-21497405D01*
X8811017Y-21454548D01*
X8825303Y-21425977D01*
X8839589Y-21383120D01*
X8853874Y-21311691D01*
X8853874Y-21254548D01*
X8839589Y-21183120D01*
X8825303Y-21140262D01*
X8811017Y-21111691D01*
X8782446Y-21068834D01*
X8768160Y-21054548D01*
M02*
