G04 #@! TF.GenerationSoftware,KiCad,Pcbnew,(5.1.10)-1*
G04 #@! TF.CreationDate,2021-09-21T17:17:46+01:00*
G04 #@! TF.ProjectId,superlyra-hs,73757065-726c-4797-9261-2d68732e6b69,0.1*
G04 #@! TF.SameCoordinates,Original*
G04 #@! TF.FileFunction,Soldermask,Top*
G04 #@! TF.FilePolarity,Negative*
%FSLAX46Y46*%
G04 Gerber Fmt 4.6, Leading zero omitted, Abs format (unit mm)*
G04 Created by KiCad (PCBNEW (5.1.10)-1) date 2021-09-21 17:17:46*
%MOMM*%
%LPD*%
G01*
G04 APERTURE LIST*
%ADD10R,1.900000X0.400000*%
%ADD11C,1.800000*%
%ADD12C,3.000000*%
%ADD13C,4.000000*%
%ADD14C,3.048000*%
%ADD15C,3.987800*%
%ADD16R,1.060000X0.650000*%
%ADD17C,0.100000*%
%ADD18R,0.600000X0.500000*%
%ADD19R,1.700000X1.700000*%
%ADD20O,1.700000X1.700000*%
%ADD21O,1.000000X1.600000*%
%ADD22C,0.650000*%
%ADD23O,1.000000X2.100000*%
%ADD24R,0.300000X1.450000*%
%ADD25R,0.600000X1.450000*%
%ADD26R,1.700000X1.000000*%
%ADD27R,1.100000X1.100000*%
%ADD28C,3.500000*%
%ADD29R,0.500000X0.600000*%
G04 APERTURE END LIST*
D10*
G04 #@! TO.C,Y1*
X227838000Y-85795000D03*
X227838000Y-86995000D03*
X227838000Y-88195000D03*
G04 #@! TD*
D11*
G04 #@! TO.C,SW79*
X146093460Y-175866927D03*
D12*
X154311343Y-171824997D03*
X147684132Y-173514425D03*
D11*
X156166540Y-177193073D03*
D13*
X151130000Y-176530000D03*
D14*
X138382406Y-181897021D03*
D15*
X140371625Y-166787401D03*
D14*
X162054143Y-185013464D03*
D15*
X164043362Y-169903844D03*
G04 #@! TD*
D11*
G04 #@! TO.C,SW84*
X263568460Y-177193073D03*
D12*
X270460197Y-171161924D03*
X264496059Y-174509035D03*
D11*
X273641540Y-175866927D03*
D13*
X268605000Y-176530000D03*
D14*
X257680857Y-185013464D03*
D15*
X255691638Y-169903844D03*
D14*
X281352594Y-181897021D03*
D15*
X279363375Y-166787401D03*
G04 #@! TD*
D11*
G04 #@! TO.C,SW16*
X328875887Y-82698940D03*
X338689693Y-80069338D03*
D13*
X333782790Y-81384139D03*
D12*
X334921441Y-75819835D03*
X329445212Y-79916788D03*
G04 #@! TD*
G04 #@! TO.C,R3*
G36*
G01*
X230980000Y-85024000D02*
X231300000Y-85024000D01*
G75*
G02*
X231460000Y-85184000I0J-160000D01*
G01*
X231460000Y-85579000D01*
G75*
G02*
X231300000Y-85739000I-160000J0D01*
G01*
X230980000Y-85739000D01*
G75*
G02*
X230820000Y-85579000I0J160000D01*
G01*
X230820000Y-85184000D01*
G75*
G02*
X230980000Y-85024000I160000J0D01*
G01*
G37*
G36*
G01*
X230980000Y-86219000D02*
X231300000Y-86219000D01*
G75*
G02*
X231460000Y-86379000I0J-160000D01*
G01*
X231460000Y-86774000D01*
G75*
G02*
X231300000Y-86934000I-160000J0D01*
G01*
X230980000Y-86934000D01*
G75*
G02*
X230820000Y-86774000I0J160000D01*
G01*
X230820000Y-86379000D01*
G75*
G02*
X230980000Y-86219000I160000J0D01*
G01*
G37*
G04 #@! TD*
D16*
G04 #@! TO.C,U2*
X217340000Y-81346000D03*
X217340000Y-82296000D03*
X217340000Y-83246000D03*
X219540000Y-83246000D03*
X219540000Y-81346000D03*
X219540000Y-82296000D03*
G04 #@! TD*
D17*
G04 #@! TO.C,C2*
G36*
X238345736Y-79077818D02*
G01*
X237992182Y-78724264D01*
X238416446Y-78300000D01*
X238770000Y-78653554D01*
X238345736Y-79077818D01*
G37*
G36*
X239123554Y-78300000D02*
G01*
X238770000Y-77946446D01*
X239194264Y-77522182D01*
X239547818Y-77875736D01*
X239123554Y-78300000D01*
G37*
G04 #@! TD*
G04 #@! TO.C,C3*
G36*
X243513554Y-82830000D02*
G01*
X243160000Y-82476446D01*
X243584264Y-82052182D01*
X243937818Y-82405736D01*
X243513554Y-82830000D01*
G37*
G36*
X242735736Y-83607818D02*
G01*
X242382182Y-83254264D01*
X242806446Y-82830000D01*
X243160000Y-83183554D01*
X242735736Y-83607818D01*
G37*
G04 #@! TD*
G04 #@! TO.C,C4*
G36*
X238549264Y-89836682D02*
G01*
X238902818Y-90190236D01*
X238478554Y-90614500D01*
X238125000Y-90260946D01*
X238549264Y-89836682D01*
G37*
G36*
X237771446Y-90614500D02*
G01*
X238125000Y-90968054D01*
X237700736Y-91392318D01*
X237347182Y-91038764D01*
X237771446Y-90614500D01*
G37*
G04 #@! TD*
D18*
G04 #@! TO.C,C5*
X231606000Y-81534000D03*
X232706000Y-81534000D03*
G04 #@! TD*
D19*
G04 #@! TO.C,J2*
X198374000Y-83312000D03*
D20*
X200914000Y-83312000D03*
X198374000Y-80772000D03*
X200914000Y-80772000D03*
X198374000Y-78232000D03*
X200914000Y-78232000D03*
G04 #@! TD*
G04 #@! TO.C,R1*
G36*
G01*
X233111000Y-80104000D02*
X233111000Y-80424000D01*
G75*
G02*
X232951000Y-80584000I-160000J0D01*
G01*
X232556000Y-80584000D01*
G75*
G02*
X232396000Y-80424000I0J160000D01*
G01*
X232396000Y-80104000D01*
G75*
G02*
X232556000Y-79944000I160000J0D01*
G01*
X232951000Y-79944000D01*
G75*
G02*
X233111000Y-80104000I0J-160000D01*
G01*
G37*
G36*
G01*
X231916000Y-80104000D02*
X231916000Y-80424000D01*
G75*
G02*
X231756000Y-80584000I-160000J0D01*
G01*
X231361000Y-80584000D01*
G75*
G02*
X231201000Y-80424000I0J160000D01*
G01*
X231201000Y-80104000D01*
G75*
G02*
X231361000Y-79944000I160000J0D01*
G01*
X231756000Y-79944000D01*
G75*
G02*
X231916000Y-80104000I0J-160000D01*
G01*
G37*
G04 #@! TD*
G04 #@! TO.C,R2*
G36*
G01*
X233111000Y-79088000D02*
X233111000Y-79408000D01*
G75*
G02*
X232951000Y-79568000I-160000J0D01*
G01*
X232556000Y-79568000D01*
G75*
G02*
X232396000Y-79408000I0J160000D01*
G01*
X232396000Y-79088000D01*
G75*
G02*
X232556000Y-78928000I160000J0D01*
G01*
X232951000Y-78928000D01*
G75*
G02*
X233111000Y-79088000I0J-160000D01*
G01*
G37*
G36*
G01*
X231916000Y-79088000D02*
X231916000Y-79408000D01*
G75*
G02*
X231756000Y-79568000I-160000J0D01*
G01*
X231361000Y-79568000D01*
G75*
G02*
X231201000Y-79408000I0J160000D01*
G01*
X231201000Y-79088000D01*
G75*
G02*
X231361000Y-78928000I160000J0D01*
G01*
X231756000Y-78928000D01*
G75*
G02*
X231916000Y-79088000I0J-160000D01*
G01*
G37*
G04 #@! TD*
G04 #@! TO.C,R4*
G36*
G01*
X243978424Y-86962150D02*
X243752150Y-87188424D01*
G75*
G02*
X243525876Y-87188424I-113137J113137D01*
G01*
X243246568Y-86909116D01*
G75*
G02*
X243246568Y-86682842I113137J113137D01*
G01*
X243472842Y-86456568D01*
G75*
G02*
X243699116Y-86456568I113137J-113137D01*
G01*
X243978424Y-86735876D01*
G75*
G02*
X243978424Y-86962150I-113137J-113137D01*
G01*
G37*
G36*
G01*
X243133432Y-86117158D02*
X242907158Y-86343432D01*
G75*
G02*
X242680884Y-86343432I-113137J113137D01*
G01*
X242401576Y-86064124D01*
G75*
G02*
X242401576Y-85837850I113137J113137D01*
G01*
X242627850Y-85611576D01*
G75*
G02*
X242854124Y-85611576I113137J-113137D01*
G01*
X243133432Y-85890884D01*
G75*
G02*
X243133432Y-86117158I-113137J-113137D01*
G01*
G37*
G04 #@! TD*
G04 #@! TO.C,R5*
G36*
G01*
X215895000Y-84370000D02*
X215895000Y-84690000D01*
G75*
G02*
X215735000Y-84850000I-160000J0D01*
G01*
X215340000Y-84850000D01*
G75*
G02*
X215180000Y-84690000I0J160000D01*
G01*
X215180000Y-84370000D01*
G75*
G02*
X215340000Y-84210000I160000J0D01*
G01*
X215735000Y-84210000D01*
G75*
G02*
X215895000Y-84370000I0J-160000D01*
G01*
G37*
G36*
G01*
X214700000Y-84370000D02*
X214700000Y-84690000D01*
G75*
G02*
X214540000Y-84850000I-160000J0D01*
G01*
X214145000Y-84850000D01*
G75*
G02*
X213985000Y-84690000I0J160000D01*
G01*
X213985000Y-84370000D01*
G75*
G02*
X214145000Y-84210000I160000J0D01*
G01*
X214540000Y-84210000D01*
G75*
G02*
X214700000Y-84370000I0J-160000D01*
G01*
G37*
G04 #@! TD*
G04 #@! TO.C,R6*
G36*
G01*
X205190000Y-84700000D02*
X205190000Y-84380000D01*
G75*
G02*
X205350000Y-84220000I160000J0D01*
G01*
X205745000Y-84220000D01*
G75*
G02*
X205905000Y-84380000I0J-160000D01*
G01*
X205905000Y-84700000D01*
G75*
G02*
X205745000Y-84860000I-160000J0D01*
G01*
X205350000Y-84860000D01*
G75*
G02*
X205190000Y-84700000I0J160000D01*
G01*
G37*
G36*
G01*
X203995000Y-84700000D02*
X203995000Y-84380000D01*
G75*
G02*
X204155000Y-84220000I160000J0D01*
G01*
X204550000Y-84220000D01*
G75*
G02*
X204710000Y-84380000I0J-160000D01*
G01*
X204710000Y-84700000D01*
G75*
G02*
X204550000Y-84860000I-160000J0D01*
G01*
X204155000Y-84860000D01*
G75*
G02*
X203995000Y-84700000I0J160000D01*
G01*
G37*
G04 #@! TD*
D17*
G04 #@! TO.C,U1*
G36*
X233813045Y-84582000D02*
G01*
X237490000Y-80905045D01*
X241166955Y-84582000D01*
X237490000Y-88258955D01*
X233813045Y-84582000D01*
G37*
G36*
G01*
X237657938Y-80701752D02*
X238329690Y-80030000D01*
G75*
G02*
X238418078Y-80030000I44194J-44194D01*
G01*
X238506466Y-80118388D01*
G75*
G02*
X238506466Y-80206776I-44194J-44194D01*
G01*
X237834714Y-80878528D01*
G75*
G02*
X237746326Y-80878528I-44194J44194D01*
G01*
X237657938Y-80790140D01*
G75*
G02*
X237657938Y-80701752I44194J44194D01*
G01*
G37*
G36*
G01*
X238011491Y-81055306D02*
X238683243Y-80383554D01*
G75*
G02*
X238771631Y-80383554I44194J-44194D01*
G01*
X238860019Y-80471942D01*
G75*
G02*
X238860019Y-80560330I-44194J-44194D01*
G01*
X238188267Y-81232082D01*
G75*
G02*
X238099879Y-81232082I-44194J44194D01*
G01*
X238011491Y-81143694D01*
G75*
G02*
X238011491Y-81055306I44194J44194D01*
G01*
G37*
G36*
G01*
X238365045Y-81408859D02*
X239036797Y-80737107D01*
G75*
G02*
X239125185Y-80737107I44194J-44194D01*
G01*
X239213573Y-80825495D01*
G75*
G02*
X239213573Y-80913883I-44194J-44194D01*
G01*
X238541821Y-81585635D01*
G75*
G02*
X238453433Y-81585635I-44194J44194D01*
G01*
X238365045Y-81497247D01*
G75*
G02*
X238365045Y-81408859I44194J44194D01*
G01*
G37*
G36*
G01*
X238718598Y-81762412D02*
X239390350Y-81090660D01*
G75*
G02*
X239478738Y-81090660I44194J-44194D01*
G01*
X239567126Y-81179048D01*
G75*
G02*
X239567126Y-81267436I-44194J-44194D01*
G01*
X238895374Y-81939188D01*
G75*
G02*
X238806986Y-81939188I-44194J44194D01*
G01*
X238718598Y-81850800D01*
G75*
G02*
X238718598Y-81762412I44194J44194D01*
G01*
G37*
G36*
G01*
X239072151Y-82115966D02*
X239743903Y-81444214D01*
G75*
G02*
X239832291Y-81444214I44194J-44194D01*
G01*
X239920679Y-81532602D01*
G75*
G02*
X239920679Y-81620990I-44194J-44194D01*
G01*
X239248927Y-82292742D01*
G75*
G02*
X239160539Y-82292742I-44194J44194D01*
G01*
X239072151Y-82204354D01*
G75*
G02*
X239072151Y-82115966I44194J44194D01*
G01*
G37*
G36*
G01*
X239425705Y-82469519D02*
X240097457Y-81797767D01*
G75*
G02*
X240185845Y-81797767I44194J-44194D01*
G01*
X240274233Y-81886155D01*
G75*
G02*
X240274233Y-81974543I-44194J-44194D01*
G01*
X239602481Y-82646295D01*
G75*
G02*
X239514093Y-82646295I-44194J44194D01*
G01*
X239425705Y-82557907D01*
G75*
G02*
X239425705Y-82469519I44194J44194D01*
G01*
G37*
G36*
G01*
X239779258Y-82823073D02*
X240451010Y-82151321D01*
G75*
G02*
X240539398Y-82151321I44194J-44194D01*
G01*
X240627786Y-82239709D01*
G75*
G02*
X240627786Y-82328097I-44194J-44194D01*
G01*
X239956034Y-82999849D01*
G75*
G02*
X239867646Y-82999849I-44194J44194D01*
G01*
X239779258Y-82911461D01*
G75*
G02*
X239779258Y-82823073I44194J44194D01*
G01*
G37*
G36*
G01*
X240132812Y-83176626D02*
X240804564Y-82504874D01*
G75*
G02*
X240892952Y-82504874I44194J-44194D01*
G01*
X240981340Y-82593262D01*
G75*
G02*
X240981340Y-82681650I-44194J-44194D01*
G01*
X240309588Y-83353402D01*
G75*
G02*
X240221200Y-83353402I-44194J44194D01*
G01*
X240132812Y-83265014D01*
G75*
G02*
X240132812Y-83176626I44194J44194D01*
G01*
G37*
G36*
G01*
X240486365Y-83530179D02*
X241158117Y-82858427D01*
G75*
G02*
X241246505Y-82858427I44194J-44194D01*
G01*
X241334893Y-82946815D01*
G75*
G02*
X241334893Y-83035203I-44194J-44194D01*
G01*
X240663141Y-83706955D01*
G75*
G02*
X240574753Y-83706955I-44194J44194D01*
G01*
X240486365Y-83618567D01*
G75*
G02*
X240486365Y-83530179I44194J44194D01*
G01*
G37*
G36*
G01*
X240839918Y-83883733D02*
X241511670Y-83211981D01*
G75*
G02*
X241600058Y-83211981I44194J-44194D01*
G01*
X241688446Y-83300369D01*
G75*
G02*
X241688446Y-83388757I-44194J-44194D01*
G01*
X241016694Y-84060509D01*
G75*
G02*
X240928306Y-84060509I-44194J44194D01*
G01*
X240839918Y-83972121D01*
G75*
G02*
X240839918Y-83883733I44194J44194D01*
G01*
G37*
G36*
G01*
X241193472Y-84237286D02*
X241865224Y-83565534D01*
G75*
G02*
X241953612Y-83565534I44194J-44194D01*
G01*
X242042000Y-83653922D01*
G75*
G02*
X242042000Y-83742310I-44194J-44194D01*
G01*
X241370248Y-84414062D01*
G75*
G02*
X241281860Y-84414062I-44194J44194D01*
G01*
X241193472Y-84325674D01*
G75*
G02*
X241193472Y-84237286I44194J44194D01*
G01*
G37*
G36*
G01*
X241193472Y-84838326D02*
X241281860Y-84749938D01*
G75*
G02*
X241370248Y-84749938I44194J-44194D01*
G01*
X242042000Y-85421690D01*
G75*
G02*
X242042000Y-85510078I-44194J-44194D01*
G01*
X241953612Y-85598466D01*
G75*
G02*
X241865224Y-85598466I-44194J44194D01*
G01*
X241193472Y-84926714D01*
G75*
G02*
X241193472Y-84838326I44194J44194D01*
G01*
G37*
G36*
G01*
X240839918Y-85191879D02*
X240928306Y-85103491D01*
G75*
G02*
X241016694Y-85103491I44194J-44194D01*
G01*
X241688446Y-85775243D01*
G75*
G02*
X241688446Y-85863631I-44194J-44194D01*
G01*
X241600058Y-85952019D01*
G75*
G02*
X241511670Y-85952019I-44194J44194D01*
G01*
X240839918Y-85280267D01*
G75*
G02*
X240839918Y-85191879I44194J44194D01*
G01*
G37*
G36*
G01*
X240486365Y-85545433D02*
X240574753Y-85457045D01*
G75*
G02*
X240663141Y-85457045I44194J-44194D01*
G01*
X241334893Y-86128797D01*
G75*
G02*
X241334893Y-86217185I-44194J-44194D01*
G01*
X241246505Y-86305573D01*
G75*
G02*
X241158117Y-86305573I-44194J44194D01*
G01*
X240486365Y-85633821D01*
G75*
G02*
X240486365Y-85545433I44194J44194D01*
G01*
G37*
G36*
G01*
X240132812Y-85898986D02*
X240221200Y-85810598D01*
G75*
G02*
X240309588Y-85810598I44194J-44194D01*
G01*
X240981340Y-86482350D01*
G75*
G02*
X240981340Y-86570738I-44194J-44194D01*
G01*
X240892952Y-86659126D01*
G75*
G02*
X240804564Y-86659126I-44194J44194D01*
G01*
X240132812Y-85987374D01*
G75*
G02*
X240132812Y-85898986I44194J44194D01*
G01*
G37*
G36*
G01*
X239779258Y-86252539D02*
X239867646Y-86164151D01*
G75*
G02*
X239956034Y-86164151I44194J-44194D01*
G01*
X240627786Y-86835903D01*
G75*
G02*
X240627786Y-86924291I-44194J-44194D01*
G01*
X240539398Y-87012679D01*
G75*
G02*
X240451010Y-87012679I-44194J44194D01*
G01*
X239779258Y-86340927D01*
G75*
G02*
X239779258Y-86252539I44194J44194D01*
G01*
G37*
G36*
G01*
X239425705Y-86606093D02*
X239514093Y-86517705D01*
G75*
G02*
X239602481Y-86517705I44194J-44194D01*
G01*
X240274233Y-87189457D01*
G75*
G02*
X240274233Y-87277845I-44194J-44194D01*
G01*
X240185845Y-87366233D01*
G75*
G02*
X240097457Y-87366233I-44194J44194D01*
G01*
X239425705Y-86694481D01*
G75*
G02*
X239425705Y-86606093I44194J44194D01*
G01*
G37*
G36*
G01*
X239072151Y-86959646D02*
X239160539Y-86871258D01*
G75*
G02*
X239248927Y-86871258I44194J-44194D01*
G01*
X239920679Y-87543010D01*
G75*
G02*
X239920679Y-87631398I-44194J-44194D01*
G01*
X239832291Y-87719786D01*
G75*
G02*
X239743903Y-87719786I-44194J44194D01*
G01*
X239072151Y-87048034D01*
G75*
G02*
X239072151Y-86959646I44194J44194D01*
G01*
G37*
G36*
G01*
X238718598Y-87313200D02*
X238806986Y-87224812D01*
G75*
G02*
X238895374Y-87224812I44194J-44194D01*
G01*
X239567126Y-87896564D01*
G75*
G02*
X239567126Y-87984952I-44194J-44194D01*
G01*
X239478738Y-88073340D01*
G75*
G02*
X239390350Y-88073340I-44194J44194D01*
G01*
X238718598Y-87401588D01*
G75*
G02*
X238718598Y-87313200I44194J44194D01*
G01*
G37*
G36*
G01*
X238365045Y-87666753D02*
X238453433Y-87578365D01*
G75*
G02*
X238541821Y-87578365I44194J-44194D01*
G01*
X239213573Y-88250117D01*
G75*
G02*
X239213573Y-88338505I-44194J-44194D01*
G01*
X239125185Y-88426893D01*
G75*
G02*
X239036797Y-88426893I-44194J44194D01*
G01*
X238365045Y-87755141D01*
G75*
G02*
X238365045Y-87666753I44194J44194D01*
G01*
G37*
G36*
G01*
X238011491Y-88020306D02*
X238099879Y-87931918D01*
G75*
G02*
X238188267Y-87931918I44194J-44194D01*
G01*
X238860019Y-88603670D01*
G75*
G02*
X238860019Y-88692058I-44194J-44194D01*
G01*
X238771631Y-88780446D01*
G75*
G02*
X238683243Y-88780446I-44194J44194D01*
G01*
X238011491Y-88108694D01*
G75*
G02*
X238011491Y-88020306I44194J44194D01*
G01*
G37*
G36*
G01*
X237657938Y-88373860D02*
X237746326Y-88285472D01*
G75*
G02*
X237834714Y-88285472I44194J-44194D01*
G01*
X238506466Y-88957224D01*
G75*
G02*
X238506466Y-89045612I-44194J-44194D01*
G01*
X238418078Y-89134000D01*
G75*
G02*
X238329690Y-89134000I-44194J44194D01*
G01*
X237657938Y-88462248D01*
G75*
G02*
X237657938Y-88373860I44194J44194D01*
G01*
G37*
G36*
G01*
X236473534Y-88957224D02*
X237145286Y-88285472D01*
G75*
G02*
X237233674Y-88285472I44194J-44194D01*
G01*
X237322062Y-88373860D01*
G75*
G02*
X237322062Y-88462248I-44194J-44194D01*
G01*
X236650310Y-89134000D01*
G75*
G02*
X236561922Y-89134000I-44194J44194D01*
G01*
X236473534Y-89045612D01*
G75*
G02*
X236473534Y-88957224I44194J44194D01*
G01*
G37*
G36*
G01*
X236119981Y-88603670D02*
X236791733Y-87931918D01*
G75*
G02*
X236880121Y-87931918I44194J-44194D01*
G01*
X236968509Y-88020306D01*
G75*
G02*
X236968509Y-88108694I-44194J-44194D01*
G01*
X236296757Y-88780446D01*
G75*
G02*
X236208369Y-88780446I-44194J44194D01*
G01*
X236119981Y-88692058D01*
G75*
G02*
X236119981Y-88603670I44194J44194D01*
G01*
G37*
G36*
G01*
X235766427Y-88250117D02*
X236438179Y-87578365D01*
G75*
G02*
X236526567Y-87578365I44194J-44194D01*
G01*
X236614955Y-87666753D01*
G75*
G02*
X236614955Y-87755141I-44194J-44194D01*
G01*
X235943203Y-88426893D01*
G75*
G02*
X235854815Y-88426893I-44194J44194D01*
G01*
X235766427Y-88338505D01*
G75*
G02*
X235766427Y-88250117I44194J44194D01*
G01*
G37*
G36*
G01*
X235412874Y-87896564D02*
X236084626Y-87224812D01*
G75*
G02*
X236173014Y-87224812I44194J-44194D01*
G01*
X236261402Y-87313200D01*
G75*
G02*
X236261402Y-87401588I-44194J-44194D01*
G01*
X235589650Y-88073340D01*
G75*
G02*
X235501262Y-88073340I-44194J44194D01*
G01*
X235412874Y-87984952D01*
G75*
G02*
X235412874Y-87896564I44194J44194D01*
G01*
G37*
G36*
G01*
X235059321Y-87543010D02*
X235731073Y-86871258D01*
G75*
G02*
X235819461Y-86871258I44194J-44194D01*
G01*
X235907849Y-86959646D01*
G75*
G02*
X235907849Y-87048034I-44194J-44194D01*
G01*
X235236097Y-87719786D01*
G75*
G02*
X235147709Y-87719786I-44194J44194D01*
G01*
X235059321Y-87631398D01*
G75*
G02*
X235059321Y-87543010I44194J44194D01*
G01*
G37*
G36*
G01*
X234705767Y-87189457D02*
X235377519Y-86517705D01*
G75*
G02*
X235465907Y-86517705I44194J-44194D01*
G01*
X235554295Y-86606093D01*
G75*
G02*
X235554295Y-86694481I-44194J-44194D01*
G01*
X234882543Y-87366233D01*
G75*
G02*
X234794155Y-87366233I-44194J44194D01*
G01*
X234705767Y-87277845D01*
G75*
G02*
X234705767Y-87189457I44194J44194D01*
G01*
G37*
G36*
G01*
X234352214Y-86835903D02*
X235023966Y-86164151D01*
G75*
G02*
X235112354Y-86164151I44194J-44194D01*
G01*
X235200742Y-86252539D01*
G75*
G02*
X235200742Y-86340927I-44194J-44194D01*
G01*
X234528990Y-87012679D01*
G75*
G02*
X234440602Y-87012679I-44194J44194D01*
G01*
X234352214Y-86924291D01*
G75*
G02*
X234352214Y-86835903I44194J44194D01*
G01*
G37*
G36*
G01*
X233998660Y-86482350D02*
X234670412Y-85810598D01*
G75*
G02*
X234758800Y-85810598I44194J-44194D01*
G01*
X234847188Y-85898986D01*
G75*
G02*
X234847188Y-85987374I-44194J-44194D01*
G01*
X234175436Y-86659126D01*
G75*
G02*
X234087048Y-86659126I-44194J44194D01*
G01*
X233998660Y-86570738D01*
G75*
G02*
X233998660Y-86482350I44194J44194D01*
G01*
G37*
G36*
G01*
X233645107Y-86128797D02*
X234316859Y-85457045D01*
G75*
G02*
X234405247Y-85457045I44194J-44194D01*
G01*
X234493635Y-85545433D01*
G75*
G02*
X234493635Y-85633821I-44194J-44194D01*
G01*
X233821883Y-86305573D01*
G75*
G02*
X233733495Y-86305573I-44194J44194D01*
G01*
X233645107Y-86217185D01*
G75*
G02*
X233645107Y-86128797I44194J44194D01*
G01*
G37*
G36*
G01*
X233291554Y-85775243D02*
X233963306Y-85103491D01*
G75*
G02*
X234051694Y-85103491I44194J-44194D01*
G01*
X234140082Y-85191879D01*
G75*
G02*
X234140082Y-85280267I-44194J-44194D01*
G01*
X233468330Y-85952019D01*
G75*
G02*
X233379942Y-85952019I-44194J44194D01*
G01*
X233291554Y-85863631D01*
G75*
G02*
X233291554Y-85775243I44194J44194D01*
G01*
G37*
G36*
G01*
X232938000Y-85421690D02*
X233609752Y-84749938D01*
G75*
G02*
X233698140Y-84749938I44194J-44194D01*
G01*
X233786528Y-84838326D01*
G75*
G02*
X233786528Y-84926714I-44194J-44194D01*
G01*
X233114776Y-85598466D01*
G75*
G02*
X233026388Y-85598466I-44194J44194D01*
G01*
X232938000Y-85510078D01*
G75*
G02*
X232938000Y-85421690I44194J44194D01*
G01*
G37*
G36*
G01*
X232938000Y-83653922D02*
X233026388Y-83565534D01*
G75*
G02*
X233114776Y-83565534I44194J-44194D01*
G01*
X233786528Y-84237286D01*
G75*
G02*
X233786528Y-84325674I-44194J-44194D01*
G01*
X233698140Y-84414062D01*
G75*
G02*
X233609752Y-84414062I-44194J44194D01*
G01*
X232938000Y-83742310D01*
G75*
G02*
X232938000Y-83653922I44194J44194D01*
G01*
G37*
G36*
G01*
X233291554Y-83300369D02*
X233379942Y-83211981D01*
G75*
G02*
X233468330Y-83211981I44194J-44194D01*
G01*
X234140082Y-83883733D01*
G75*
G02*
X234140082Y-83972121I-44194J-44194D01*
G01*
X234051694Y-84060509D01*
G75*
G02*
X233963306Y-84060509I-44194J44194D01*
G01*
X233291554Y-83388757D01*
G75*
G02*
X233291554Y-83300369I44194J44194D01*
G01*
G37*
G36*
G01*
X233645107Y-82946815D02*
X233733495Y-82858427D01*
G75*
G02*
X233821883Y-82858427I44194J-44194D01*
G01*
X234493635Y-83530179D01*
G75*
G02*
X234493635Y-83618567I-44194J-44194D01*
G01*
X234405247Y-83706955D01*
G75*
G02*
X234316859Y-83706955I-44194J44194D01*
G01*
X233645107Y-83035203D01*
G75*
G02*
X233645107Y-82946815I44194J44194D01*
G01*
G37*
G36*
G01*
X233998660Y-82593262D02*
X234087048Y-82504874D01*
G75*
G02*
X234175436Y-82504874I44194J-44194D01*
G01*
X234847188Y-83176626D01*
G75*
G02*
X234847188Y-83265014I-44194J-44194D01*
G01*
X234758800Y-83353402D01*
G75*
G02*
X234670412Y-83353402I-44194J44194D01*
G01*
X233998660Y-82681650D01*
G75*
G02*
X233998660Y-82593262I44194J44194D01*
G01*
G37*
G36*
G01*
X234352214Y-82239709D02*
X234440602Y-82151321D01*
G75*
G02*
X234528990Y-82151321I44194J-44194D01*
G01*
X235200742Y-82823073D01*
G75*
G02*
X235200742Y-82911461I-44194J-44194D01*
G01*
X235112354Y-82999849D01*
G75*
G02*
X235023966Y-82999849I-44194J44194D01*
G01*
X234352214Y-82328097D01*
G75*
G02*
X234352214Y-82239709I44194J44194D01*
G01*
G37*
G36*
G01*
X234705767Y-81886155D02*
X234794155Y-81797767D01*
G75*
G02*
X234882543Y-81797767I44194J-44194D01*
G01*
X235554295Y-82469519D01*
G75*
G02*
X235554295Y-82557907I-44194J-44194D01*
G01*
X235465907Y-82646295D01*
G75*
G02*
X235377519Y-82646295I-44194J44194D01*
G01*
X234705767Y-81974543D01*
G75*
G02*
X234705767Y-81886155I44194J44194D01*
G01*
G37*
G36*
G01*
X235059321Y-81532602D02*
X235147709Y-81444214D01*
G75*
G02*
X235236097Y-81444214I44194J-44194D01*
G01*
X235907849Y-82115966D01*
G75*
G02*
X235907849Y-82204354I-44194J-44194D01*
G01*
X235819461Y-82292742D01*
G75*
G02*
X235731073Y-82292742I-44194J44194D01*
G01*
X235059321Y-81620990D01*
G75*
G02*
X235059321Y-81532602I44194J44194D01*
G01*
G37*
G36*
G01*
X235412874Y-81179048D02*
X235501262Y-81090660D01*
G75*
G02*
X235589650Y-81090660I44194J-44194D01*
G01*
X236261402Y-81762412D01*
G75*
G02*
X236261402Y-81850800I-44194J-44194D01*
G01*
X236173014Y-81939188D01*
G75*
G02*
X236084626Y-81939188I-44194J44194D01*
G01*
X235412874Y-81267436D01*
G75*
G02*
X235412874Y-81179048I44194J44194D01*
G01*
G37*
G36*
G01*
X235766427Y-80825495D02*
X235854815Y-80737107D01*
G75*
G02*
X235943203Y-80737107I44194J-44194D01*
G01*
X236614955Y-81408859D01*
G75*
G02*
X236614955Y-81497247I-44194J-44194D01*
G01*
X236526567Y-81585635D01*
G75*
G02*
X236438179Y-81585635I-44194J44194D01*
G01*
X235766427Y-80913883D01*
G75*
G02*
X235766427Y-80825495I44194J44194D01*
G01*
G37*
G36*
G01*
X236119981Y-80471942D02*
X236208369Y-80383554D01*
G75*
G02*
X236296757Y-80383554I44194J-44194D01*
G01*
X236968509Y-81055306D01*
G75*
G02*
X236968509Y-81143694I-44194J-44194D01*
G01*
X236880121Y-81232082D01*
G75*
G02*
X236791733Y-81232082I-44194J44194D01*
G01*
X236119981Y-80560330D01*
G75*
G02*
X236119981Y-80471942I44194J44194D01*
G01*
G37*
G36*
G01*
X236473534Y-80118388D02*
X236561922Y-80030000D01*
G75*
G02*
X236650310Y-80030000I44194J-44194D01*
G01*
X237322062Y-80701752D01*
G75*
G02*
X237322062Y-80790140I-44194J-44194D01*
G01*
X237233674Y-80878528D01*
G75*
G02*
X237145286Y-80878528I-44194J44194D01*
G01*
X236473534Y-80206776D01*
G75*
G02*
X236473534Y-80118388I44194J44194D01*
G01*
G37*
G04 #@! TD*
D21*
G04 #@! TO.C,J1*
X205621997Y-77690000D03*
D22*
X207051997Y-81340000D03*
D21*
X214261997Y-77690000D03*
D22*
X212831997Y-81340000D03*
D23*
X214261997Y-81870000D03*
X205621997Y-81870000D03*
D24*
X210191997Y-82785000D03*
X208191997Y-82785000D03*
X208691997Y-82785000D03*
X209191997Y-82785000D03*
X209691997Y-82785000D03*
X210691997Y-82785000D03*
X211191997Y-82785000D03*
X211691997Y-82785000D03*
D25*
X206691997Y-82785000D03*
X207491997Y-82785000D03*
X212391997Y-82785000D03*
X213191997Y-82785000D03*
X213191997Y-82785000D03*
X212391997Y-82785000D03*
X207491997Y-82785000D03*
X206691997Y-82785000D03*
G04 #@! TD*
D26*
G04 #@! TO.C,SWRST1*
X193396000Y-81656000D03*
X187096000Y-81656000D03*
X193396000Y-77856000D03*
X187096000Y-77856000D03*
G04 #@! TD*
D17*
G04 #@! TO.C,C1*
G36*
X236273554Y-78720000D02*
G01*
X235920000Y-78366446D01*
X236344264Y-77942182D01*
X236697818Y-78295736D01*
X236273554Y-78720000D01*
G37*
G36*
X235495736Y-79497818D02*
G01*
X235142182Y-79144264D01*
X235566446Y-78720000D01*
X235920000Y-79073554D01*
X235495736Y-79497818D01*
G37*
G04 #@! TD*
G04 #@! TO.C,D1*
G36*
X56533392Y-83370657D02*
G01*
X55470873Y-83085956D01*
X55755574Y-82023437D01*
X56818093Y-82308138D01*
X56533392Y-83370657D01*
G37*
G36*
X57258086Y-80666065D02*
G01*
X56195567Y-80381364D01*
X56480268Y-79318845D01*
X57542787Y-79603546D01*
X57258086Y-80666065D01*
G37*
G04 #@! TD*
G04 #@! TO.C,D2*
G36*
X74821392Y-88450657D02*
G01*
X73758873Y-88165956D01*
X74043574Y-87103437D01*
X75106093Y-87388138D01*
X74821392Y-88450657D01*
G37*
G36*
X75546086Y-85746065D02*
G01*
X74483567Y-85461364D01*
X74768268Y-84398845D01*
X75830787Y-84683546D01*
X75546086Y-85746065D01*
G37*
G04 #@! TD*
G04 #@! TO.C,D3*
G36*
X94850086Y-87778065D02*
G01*
X93787567Y-87493364D01*
X94072268Y-86430845D01*
X95134787Y-86715546D01*
X94850086Y-87778065D01*
G37*
G36*
X94125392Y-90482657D02*
G01*
X93062873Y-90197956D01*
X93347574Y-89135437D01*
X94410093Y-89420138D01*
X94125392Y-90482657D01*
G37*
G04 #@! TD*
G04 #@! TO.C,D4*
G36*
X113900086Y-89556065D02*
G01*
X112837567Y-89271364D01*
X113122268Y-88208845D01*
X114184787Y-88493546D01*
X113900086Y-89556065D01*
G37*
G36*
X113175392Y-92260657D02*
G01*
X112112873Y-91975956D01*
X112397574Y-90913437D01*
X113460093Y-91198138D01*
X113175392Y-92260657D01*
G37*
G04 #@! TD*
G04 #@! TO.C,D5*
G36*
X132442086Y-94636065D02*
G01*
X131379567Y-94351364D01*
X131664268Y-93288845D01*
X132726787Y-93573546D01*
X132442086Y-94636065D01*
G37*
G36*
X131717392Y-97340657D02*
G01*
X130654873Y-97055956D01*
X130939574Y-95993437D01*
X132002093Y-96278138D01*
X131717392Y-97340657D01*
G37*
G04 #@! TD*
G04 #@! TO.C,D6*
G36*
X149497392Y-103944657D02*
G01*
X148434873Y-103659956D01*
X148719574Y-102597437D01*
X149782093Y-102882138D01*
X149497392Y-103944657D01*
G37*
G36*
X150222086Y-101240065D02*
G01*
X149159567Y-100955364D01*
X149444268Y-99892845D01*
X150506787Y-100177546D01*
X150222086Y-101240065D01*
G37*
G04 #@! TD*
G04 #@! TO.C,D7*
G36*
X167240086Y-107082065D02*
G01*
X166177567Y-106797364D01*
X166462268Y-105734845D01*
X167524787Y-106019546D01*
X167240086Y-107082065D01*
G37*
G36*
X166515392Y-109786657D02*
G01*
X165452873Y-109501956D01*
X165737574Y-108439437D01*
X166800093Y-108724138D01*
X166515392Y-109786657D01*
G37*
G04 #@! TD*
D27*
G04 #@! TO.C,D8*
X189738000Y-110112000D03*
X189738000Y-107312000D03*
G04 #@! TD*
G04 #@! TO.C,D9*
X208788000Y-107312000D03*
X208788000Y-110112000D03*
G04 #@! TD*
G04 #@! TO.C,D10*
X227838000Y-110112000D03*
X227838000Y-107312000D03*
G04 #@! TD*
G04 #@! TO.C,D11*
X246888000Y-107312000D03*
X246888000Y-110112000D03*
G04 #@! TD*
D17*
G04 #@! TO.C,D12*
G36*
X271177727Y-103567896D02*
G01*
X270115208Y-103852597D01*
X269830507Y-102790078D01*
X270893026Y-102505377D01*
X271177727Y-103567896D01*
G37*
G36*
X270453033Y-100863304D02*
G01*
X269390514Y-101148005D01*
X269105813Y-100085486D01*
X270168332Y-99800785D01*
X270453033Y-100863304D01*
G37*
G04 #@! TD*
G04 #@! TO.C,D13*
G36*
X288487033Y-94259304D02*
G01*
X287424514Y-94544005D01*
X287139813Y-93481486D01*
X288202332Y-93196785D01*
X288487033Y-94259304D01*
G37*
G36*
X289211727Y-96963896D02*
G01*
X288149208Y-97248597D01*
X287864507Y-96186078D01*
X288927026Y-95901377D01*
X289211727Y-96963896D01*
G37*
G04 #@! TD*
G04 #@! TO.C,D14*
G36*
X307626727Y-92137896D02*
G01*
X306564208Y-92422597D01*
X306279507Y-91360078D01*
X307342026Y-91075377D01*
X307626727Y-92137896D01*
G37*
G36*
X306902033Y-89433304D02*
G01*
X305839514Y-89718005D01*
X305554813Y-88655486D01*
X306617332Y-88370785D01*
X306902033Y-89433304D01*
G37*
G04 #@! TD*
G04 #@! TO.C,D15*
G36*
X326079033Y-87401304D02*
G01*
X325016514Y-87686005D01*
X324731813Y-86623486D01*
X325794332Y-86338785D01*
X326079033Y-87401304D01*
G37*
G36*
X326803727Y-90105896D02*
G01*
X325741208Y-90390597D01*
X325456507Y-89328078D01*
X326519026Y-89043377D01*
X326803727Y-90105896D01*
G37*
G04 #@! TD*
G04 #@! TO.C,D16*
G36*
X345980727Y-88073896D02*
G01*
X344918208Y-88358597D01*
X344633507Y-87296078D01*
X345696026Y-87011377D01*
X345980727Y-88073896D01*
G37*
G36*
X345256033Y-85369304D02*
G01*
X344193514Y-85654005D01*
X343908813Y-84591486D01*
X344971332Y-84306785D01*
X345256033Y-85369304D01*
G37*
G04 #@! TD*
G04 #@! TO.C,D17*
G36*
X363671033Y-80543304D02*
G01*
X362608514Y-80828005D01*
X362323813Y-79765486D01*
X363386332Y-79480785D01*
X363671033Y-80543304D01*
G37*
G36*
X364395727Y-83247896D02*
G01*
X363333208Y-83532597D01*
X363048507Y-82470078D01*
X364111026Y-82185377D01*
X364395727Y-83247896D01*
G37*
G04 #@! TD*
G04 #@! TO.C,D18*
G36*
X381286727Y-78040896D02*
G01*
X380224208Y-78325597D01*
X379939507Y-77263078D01*
X381002026Y-76978377D01*
X381286727Y-78040896D01*
G37*
G36*
X380562033Y-75336304D02*
G01*
X379499514Y-75621005D01*
X379214813Y-74558486D01*
X380277332Y-74273785D01*
X380562033Y-75336304D01*
G37*
G04 #@! TD*
G04 #@! TO.C,D19*
G36*
X54506514Y-86684995D02*
G01*
X55569033Y-86969696D01*
X55284332Y-88032215D01*
X54221813Y-87747514D01*
X54506514Y-86684995D01*
G37*
G36*
X55231208Y-83980403D02*
G01*
X56293727Y-84265104D01*
X56009026Y-85327623D01*
X54946507Y-85042922D01*
X55231208Y-83980403D01*
G37*
G04 #@! TD*
G04 #@! TO.C,D20*
G36*
X73519208Y-89060403D02*
G01*
X74581727Y-89345104D01*
X74297026Y-90407623D01*
X73234507Y-90122922D01*
X73519208Y-89060403D01*
G37*
G36*
X72794514Y-91764995D02*
G01*
X73857033Y-92049696D01*
X73572332Y-93112215D01*
X72509813Y-92827514D01*
X72794514Y-91764995D01*
G37*
G04 #@! TD*
G04 #@! TO.C,D21*
G36*
X92098514Y-93796995D02*
G01*
X93161033Y-94081696D01*
X92876332Y-95144215D01*
X91813813Y-94859514D01*
X92098514Y-93796995D01*
G37*
G36*
X92823208Y-91092403D02*
G01*
X93885727Y-91377104D01*
X93601026Y-92439623D01*
X92538507Y-92154922D01*
X92823208Y-91092403D01*
G37*
G04 #@! TD*
G04 #@! TO.C,D22*
G36*
X111873208Y-92870403D02*
G01*
X112935727Y-93155104D01*
X112651026Y-94217623D01*
X111588507Y-93932922D01*
X111873208Y-92870403D01*
G37*
G36*
X111148514Y-95574995D02*
G01*
X112211033Y-95859696D01*
X111926332Y-96922215D01*
X110863813Y-96637514D01*
X111148514Y-95574995D01*
G37*
G04 #@! TD*
G04 #@! TO.C,D23*
G36*
X129690514Y-100654995D02*
G01*
X130753033Y-100939696D01*
X130468332Y-102002215D01*
X129405813Y-101717514D01*
X129690514Y-100654995D01*
G37*
G36*
X130415208Y-97950403D02*
G01*
X131477727Y-98235104D01*
X131193026Y-99297623D01*
X130130507Y-99012922D01*
X130415208Y-97950403D01*
G37*
G04 #@! TD*
G04 #@! TO.C,D24*
G36*
X148195208Y-104554403D02*
G01*
X149257727Y-104839104D01*
X148973026Y-105901623D01*
X147910507Y-105616922D01*
X148195208Y-104554403D01*
G37*
G36*
X147470514Y-107258995D02*
G01*
X148533033Y-107543696D01*
X148248332Y-108606215D01*
X147185813Y-108321514D01*
X147470514Y-107258995D01*
G37*
G04 #@! TD*
G04 #@! TO.C,D25*
G36*
X164488514Y-113100995D02*
G01*
X165551033Y-113385696D01*
X165266332Y-114448215D01*
X164203813Y-114163514D01*
X164488514Y-113100995D01*
G37*
G36*
X165213208Y-110396403D02*
G01*
X166275727Y-110681104D01*
X165991026Y-111743623D01*
X164928507Y-111458922D01*
X165213208Y-110396403D01*
G37*
G04 #@! TD*
D27*
G04 #@! TO.C,D26*
X189738000Y-112138000D03*
X189738000Y-114938000D03*
G04 #@! TD*
G04 #@! TO.C,D27*
X208788000Y-114938000D03*
X208788000Y-112138000D03*
G04 #@! TD*
G04 #@! TO.C,D28*
X227838000Y-112138000D03*
X227838000Y-114938000D03*
G04 #@! TD*
G04 #@! TO.C,D29*
X246888000Y-114938000D03*
X246888000Y-112138000D03*
G04 #@! TD*
D17*
G04 #@! TO.C,D30*
G36*
X271079567Y-107451636D02*
G01*
X272142086Y-107166935D01*
X272426787Y-108229454D01*
X271364268Y-108514155D01*
X271079567Y-107451636D01*
G37*
G36*
X270354873Y-104747044D02*
G01*
X271417392Y-104462343D01*
X271702093Y-105524862D01*
X270639574Y-105809563D01*
X270354873Y-104747044D01*
G37*
G04 #@! TD*
G04 #@! TO.C,D31*
G36*
X288388873Y-98143044D02*
G01*
X289451392Y-97858343D01*
X289736093Y-98920862D01*
X288673574Y-99205563D01*
X288388873Y-98143044D01*
G37*
G36*
X289113567Y-100847636D02*
G01*
X290176086Y-100562935D01*
X290460787Y-101625454D01*
X289398268Y-101910155D01*
X289113567Y-100847636D01*
G37*
G04 #@! TD*
G04 #@! TO.C,D32*
G36*
X307528567Y-96021636D02*
G01*
X308591086Y-95736935D01*
X308875787Y-96799454D01*
X307813268Y-97084155D01*
X307528567Y-96021636D01*
G37*
G36*
X306803873Y-93317044D02*
G01*
X307866392Y-93032343D01*
X308151093Y-94094862D01*
X307088574Y-94379563D01*
X306803873Y-93317044D01*
G37*
G04 #@! TD*
G04 #@! TO.C,D33*
G36*
X325980873Y-91285044D02*
G01*
X327043392Y-91000343D01*
X327328093Y-92062862D01*
X326265574Y-92347563D01*
X325980873Y-91285044D01*
G37*
G36*
X326705567Y-93989636D02*
G01*
X327768086Y-93704935D01*
X328052787Y-94767454D01*
X326990268Y-95052155D01*
X326705567Y-93989636D01*
G37*
G04 #@! TD*
G04 #@! TO.C,D34*
G36*
X345882567Y-91957636D02*
G01*
X346945086Y-91672935D01*
X347229787Y-92735454D01*
X346167268Y-93020155D01*
X345882567Y-91957636D01*
G37*
G36*
X345157873Y-89253044D02*
G01*
X346220392Y-88968343D01*
X346505093Y-90030862D01*
X345442574Y-90315563D01*
X345157873Y-89253044D01*
G37*
G04 #@! TD*
G04 #@! TO.C,D35*
G36*
X363572873Y-84427044D02*
G01*
X364635392Y-84142343D01*
X364920093Y-85204862D01*
X363857574Y-85489563D01*
X363572873Y-84427044D01*
G37*
G36*
X364297567Y-87131636D02*
G01*
X365360086Y-86846935D01*
X365644787Y-87909454D01*
X364582268Y-88194155D01*
X364297567Y-87131636D01*
G37*
G04 #@! TD*
G04 #@! TO.C,D36*
G36*
X381188567Y-81924636D02*
G01*
X382251086Y-81639935D01*
X382535787Y-82702454D01*
X381473268Y-82987155D01*
X381188567Y-81924636D01*
G37*
G36*
X380463873Y-79220044D02*
G01*
X381526392Y-78935343D01*
X381811093Y-79997862D01*
X380748574Y-80282563D01*
X380463873Y-79220044D01*
G37*
G04 #@! TD*
G04 #@! TO.C,D37*
G36*
X50265438Y-102368094D02*
G01*
X51327957Y-102652795D01*
X51043256Y-103715314D01*
X49980737Y-103430613D01*
X50265438Y-102368094D01*
G37*
G36*
X49540744Y-105072686D02*
G01*
X50603263Y-105357387D01*
X50318562Y-106419906D01*
X49256043Y-106135205D01*
X49540744Y-105072686D01*
G37*
G04 #@! TD*
G04 #@! TO.C,D38*
G36*
X67974397Y-109980982D02*
G01*
X69036916Y-110265683D01*
X68752215Y-111328202D01*
X67689696Y-111043501D01*
X67974397Y-109980982D01*
G37*
G36*
X68699091Y-107276390D02*
G01*
X69761610Y-107561091D01*
X69476909Y-108623610D01*
X68414390Y-108338909D01*
X68699091Y-107276390D01*
G37*
G04 #@! TD*
G04 #@! TO.C,D39*
G36*
X87495091Y-110578390D02*
G01*
X88557610Y-110863091D01*
X88272909Y-111925610D01*
X87210390Y-111640909D01*
X87495091Y-110578390D01*
G37*
G36*
X86770397Y-113282982D02*
G01*
X87832916Y-113567683D01*
X87548215Y-114630202D01*
X86485696Y-114345501D01*
X86770397Y-113282982D01*
G37*
G04 #@! TD*
G04 #@! TO.C,D40*
G36*
X106328397Y-113536982D02*
G01*
X107390916Y-113821683D01*
X107106215Y-114884202D01*
X106043696Y-114599501D01*
X106328397Y-113536982D01*
G37*
G36*
X107053091Y-110832390D02*
G01*
X108115610Y-111117091D01*
X107830909Y-112179610D01*
X106768390Y-111894909D01*
X107053091Y-110832390D01*
G37*
G04 #@! TD*
G04 #@! TO.C,D41*
G36*
X125449438Y-115830094D02*
G01*
X126511957Y-116114795D01*
X126227256Y-117177314D01*
X125164737Y-116892613D01*
X125449438Y-115830094D01*
G37*
G36*
X124724744Y-118534686D02*
G01*
X125787263Y-118819387D01*
X125502562Y-119881906D01*
X124440043Y-119597205D01*
X124724744Y-118534686D01*
G37*
G04 #@! TD*
G04 #@! TO.C,D42*
G36*
X143229438Y-123196094D02*
G01*
X144291957Y-123480795D01*
X144007256Y-124543314D01*
X142944737Y-124258613D01*
X143229438Y-123196094D01*
G37*
G36*
X142504744Y-125900686D02*
G01*
X143567263Y-126185387D01*
X143282562Y-127247906D01*
X142220043Y-126963205D01*
X142504744Y-125900686D01*
G37*
G04 #@! TD*
G04 #@! TO.C,D43*
G36*
X160501438Y-128784094D02*
G01*
X161563957Y-129068795D01*
X161279256Y-130131314D01*
X160216737Y-129846613D01*
X160501438Y-128784094D01*
G37*
G36*
X159776744Y-131488686D02*
G01*
X160839263Y-131773387D01*
X160554562Y-132835906D01*
X159492043Y-132551205D01*
X159776744Y-131488686D01*
G37*
G04 #@! TD*
D27*
G04 #@! TO.C,D44*
X189738000Y-133988000D03*
X189738000Y-131188000D03*
G04 #@! TD*
G04 #@! TO.C,D45*
X208788000Y-131188000D03*
X208788000Y-133988000D03*
G04 #@! TD*
G04 #@! TO.C,D46*
X227838000Y-133988000D03*
X227838000Y-131188000D03*
G04 #@! TD*
G04 #@! TO.C,D47*
X246888000Y-131188000D03*
X246888000Y-133988000D03*
G04 #@! TD*
D17*
G04 #@! TO.C,D48*
G36*
X276040737Y-126312387D02*
G01*
X277103256Y-126027686D01*
X277387957Y-127090205D01*
X276325438Y-127374906D01*
X276040737Y-126312387D01*
G37*
G36*
X275316043Y-123607795D02*
G01*
X276378562Y-123323094D01*
X276663263Y-124385613D01*
X275600744Y-124670314D01*
X275316043Y-123607795D01*
G37*
G04 #@! TD*
G04 #@! TO.C,D49*
G36*
X293223043Y-116368795D02*
G01*
X294285562Y-116084094D01*
X294570263Y-117146613D01*
X293507744Y-117431314D01*
X293223043Y-116368795D01*
G37*
G36*
X293947737Y-119073387D02*
G01*
X295010256Y-118788686D01*
X295294957Y-119851205D01*
X294232438Y-120135906D01*
X293947737Y-119073387D01*
G37*
G04 #@! TD*
G04 #@! TO.C,D50*
G36*
X312362737Y-113993387D02*
G01*
X313425256Y-113708686D01*
X313709957Y-114771205D01*
X312647438Y-115055906D01*
X312362737Y-113993387D01*
G37*
G36*
X311638043Y-111288795D02*
G01*
X312700562Y-111004094D01*
X312985263Y-112066613D01*
X311922744Y-112351314D01*
X311638043Y-111288795D01*
G37*
G04 #@! TD*
G04 #@! TO.C,D51*
G36*
X331323043Y-110907795D02*
G01*
X332385562Y-110623094D01*
X332670263Y-111685613D01*
X331607744Y-111970314D01*
X331323043Y-110907795D01*
G37*
G36*
X332047737Y-113612387D02*
G01*
X333110256Y-113327686D01*
X333394957Y-114390205D01*
X332332438Y-114674906D01*
X332047737Y-113612387D01*
G37*
G04 #@! TD*
G04 #@! TO.C,D52*
G36*
X350843737Y-110310387D02*
G01*
X351906256Y-110025686D01*
X352190957Y-111088205D01*
X351128438Y-111372906D01*
X350843737Y-110310387D01*
G37*
G36*
X350119043Y-107605795D02*
G01*
X351181562Y-107321094D01*
X351466263Y-108383613D01*
X350403744Y-108668314D01*
X350119043Y-107605795D01*
G37*
G04 #@! TD*
G04 #@! TO.C,D53*
G36*
X368407043Y-102525795D02*
G01*
X369469562Y-102241094D01*
X369754263Y-103303613D01*
X368691744Y-103588314D01*
X368407043Y-102525795D01*
G37*
G36*
X369131737Y-105230387D02*
G01*
X370194256Y-104945686D01*
X370478957Y-106008205D01*
X369416438Y-106292906D01*
X369131737Y-105230387D01*
G37*
G04 #@! TD*
G04 #@! TO.C,D54*
G36*
X386276737Y-100277387D02*
G01*
X387339256Y-99992686D01*
X387623957Y-101055205D01*
X386561438Y-101339906D01*
X386276737Y-100277387D01*
G37*
G36*
X385552043Y-97572795D02*
G01*
X386614562Y-97288094D01*
X386899263Y-98350613D01*
X385836744Y-98635314D01*
X385552043Y-97572795D01*
G37*
G04 #@! TD*
G04 #@! TO.C,D55*
G36*
X44714744Y-123360686D02*
G01*
X45777263Y-123645387D01*
X45492562Y-124707906D01*
X44430043Y-124423205D01*
X44714744Y-123360686D01*
G37*
G36*
X45439438Y-120656094D02*
G01*
X46501957Y-120940795D01*
X46217256Y-122003314D01*
X45154737Y-121718613D01*
X45439438Y-120656094D01*
G37*
G04 #@! TD*
G04 #@! TO.C,D56*
G36*
X63727438Y-125736094D02*
G01*
X64789957Y-126020795D01*
X64505256Y-127083314D01*
X63442737Y-126798613D01*
X63727438Y-125736094D01*
G37*
G36*
X63002744Y-128440686D02*
G01*
X64065263Y-128725387D01*
X63780562Y-129787906D01*
X62718043Y-129503205D01*
X63002744Y-128440686D01*
G37*
G04 #@! TD*
G04 #@! TO.C,D57*
G36*
X81798744Y-131742686D02*
G01*
X82861263Y-132027387D01*
X82576562Y-133089906D01*
X81514043Y-132805205D01*
X81798744Y-131742686D01*
G37*
G36*
X82523438Y-129038094D02*
G01*
X83585957Y-129322795D01*
X83301256Y-130385314D01*
X82238737Y-130100613D01*
X82523438Y-129038094D01*
G37*
G04 #@! TD*
G04 #@! TO.C,D58*
G36*
X102081438Y-129546094D02*
G01*
X103143957Y-129830795D01*
X102859256Y-130893314D01*
X101796737Y-130608613D01*
X102081438Y-129546094D01*
G37*
G36*
X101356744Y-132250686D02*
G01*
X102419263Y-132535387D01*
X102134562Y-133597906D01*
X101072043Y-133313205D01*
X101356744Y-132250686D01*
G37*
G04 #@! TD*
G04 #@! TO.C,D59*
G36*
X120044397Y-137158982D02*
G01*
X121106916Y-137443683D01*
X120822215Y-138506202D01*
X119759696Y-138221501D01*
X120044397Y-137158982D01*
G37*
G36*
X120769091Y-134454390D02*
G01*
X121831610Y-134739091D01*
X121546909Y-135801610D01*
X120484390Y-135516909D01*
X120769091Y-134454390D01*
G37*
G04 #@! TD*
G04 #@! TO.C,D60*
G36*
X138549091Y-141566390D02*
G01*
X139611610Y-141851091D01*
X139326909Y-142913610D01*
X138264390Y-142628909D01*
X138549091Y-141566390D01*
G37*
G36*
X137824397Y-144270982D02*
G01*
X138886916Y-144555683D01*
X138602215Y-145618202D01*
X137539696Y-145333501D01*
X137824397Y-144270982D01*
G37*
G04 #@! TD*
G04 #@! TO.C,D61*
G36*
X154696744Y-149776686D02*
G01*
X155759263Y-150061387D01*
X155474562Y-151123906D01*
X154412043Y-150839205D01*
X154696744Y-149776686D01*
G37*
G36*
X155421438Y-147072094D02*
G01*
X156483957Y-147356795D01*
X156199256Y-148419314D01*
X155136737Y-148134613D01*
X155421438Y-147072094D01*
G37*
G04 #@! TD*
D27*
G04 #@! TO.C,D62*
X189738000Y-150238000D03*
X189738000Y-153038000D03*
G04 #@! TD*
G04 #@! TO.C,D63*
X208788000Y-153038000D03*
X208788000Y-150238000D03*
G04 #@! TD*
G04 #@! TO.C,D64*
X227838000Y-150238000D03*
X227838000Y-153038000D03*
G04 #@! TD*
G04 #@! TO.C,D65*
X246888000Y-153038000D03*
X246888000Y-150238000D03*
G04 #@! TD*
D17*
G04 #@! TO.C,D66*
G36*
X280269043Y-141895795D02*
G01*
X281331562Y-141611094D01*
X281616263Y-142673613D01*
X280553744Y-142958314D01*
X280269043Y-141895795D01*
G37*
G36*
X280993737Y-144600387D02*
G01*
X282056256Y-144315686D01*
X282340957Y-145378205D01*
X281278438Y-145662906D01*
X280993737Y-144600387D01*
G37*
G04 #@! TD*
G04 #@! TO.C,D67*
G36*
X298900737Y-137488387D02*
G01*
X299963256Y-137203686D01*
X300247957Y-138266205D01*
X299185438Y-138550906D01*
X298900737Y-137488387D01*
G37*
G36*
X298176043Y-134783795D02*
G01*
X299238562Y-134499094D01*
X299523263Y-135561613D01*
X298460744Y-135846314D01*
X298176043Y-134783795D01*
G37*
G04 #@! TD*
G04 #@! TO.C,D68*
G36*
X316591043Y-129703795D02*
G01*
X317653562Y-129419094D01*
X317938263Y-130481613D01*
X316875744Y-130766314D01*
X316591043Y-129703795D01*
G37*
G36*
X317315737Y-132408387D02*
G01*
X318378256Y-132123686D01*
X318662957Y-133186205D01*
X317600438Y-133470906D01*
X317315737Y-132408387D01*
G37*
G04 #@! TD*
G04 #@! TO.C,D69*
G36*
X337000737Y-132154387D02*
G01*
X338063256Y-131869686D01*
X338347957Y-132932205D01*
X337285438Y-133216906D01*
X337000737Y-132154387D01*
G37*
G36*
X336276043Y-129449795D02*
G01*
X337338562Y-129165094D01*
X337623263Y-130227613D01*
X336560744Y-130512314D01*
X336276043Y-129449795D01*
G37*
G04 #@! TD*
G04 #@! TO.C,D70*
G36*
X355072043Y-126020795D02*
G01*
X356134562Y-125736094D01*
X356419263Y-126798613D01*
X355356744Y-127083314D01*
X355072043Y-126020795D01*
G37*
G36*
X355796737Y-128725387D02*
G01*
X356859256Y-128440686D01*
X357143957Y-129503205D01*
X356081438Y-129787906D01*
X355796737Y-128725387D01*
G37*
G04 #@! TD*
G04 #@! TO.C,D71*
G36*
X374084737Y-123772387D02*
G01*
X375147256Y-123487686D01*
X375431957Y-124550205D01*
X374369438Y-124834906D01*
X374084737Y-123772387D01*
G37*
G36*
X373360043Y-121067795D02*
G01*
X374422562Y-120783094D01*
X374707263Y-121845613D01*
X373644744Y-122130314D01*
X373360043Y-121067795D01*
G37*
G04 #@! TD*
G04 #@! TO.C,D72*
G36*
X390505043Y-115987795D02*
G01*
X391567562Y-115703094D01*
X391852263Y-116765613D01*
X390789744Y-117050314D01*
X390505043Y-115987795D01*
G37*
G36*
X391229737Y-118692387D02*
G01*
X392292256Y-118407686D01*
X392576957Y-119470205D01*
X391514438Y-119754906D01*
X391229737Y-118692387D01*
G37*
G04 #@! TD*
G04 #@! TO.C,D73*
G36*
X40359438Y-138944094D02*
G01*
X41421957Y-139228795D01*
X41137256Y-140291314D01*
X40074737Y-140006613D01*
X40359438Y-138944094D01*
G37*
G36*
X39634744Y-141648686D02*
G01*
X40697263Y-141933387D01*
X40412562Y-142995906D01*
X39350043Y-142711205D01*
X39634744Y-141648686D01*
G37*
G04 #@! TD*
G04 #@! TO.C,D74*
G36*
X58647438Y-144024094D02*
G01*
X59709957Y-144308795D01*
X59425256Y-145371314D01*
X58362737Y-145086613D01*
X58647438Y-144024094D01*
G37*
G36*
X57922744Y-146728686D02*
G01*
X58985263Y-147013387D01*
X58700562Y-148075906D01*
X57638043Y-147791205D01*
X57922744Y-146728686D01*
G37*
G04 #@! TD*
G04 #@! TO.C,D75*
G36*
X76972744Y-150284686D02*
G01*
X78035263Y-150569387D01*
X77750562Y-151631906D01*
X76688043Y-151347205D01*
X76972744Y-150284686D01*
G37*
G36*
X77697438Y-147580094D02*
G01*
X78759957Y-147864795D01*
X78475256Y-148927314D01*
X77412737Y-148642613D01*
X77697438Y-147580094D01*
G37*
G04 #@! TD*
G04 #@! TO.C,D76*
G36*
X97255438Y-147834094D02*
G01*
X98317957Y-148118795D01*
X98033256Y-149181314D01*
X96970737Y-148896613D01*
X97255438Y-147834094D01*
G37*
G36*
X96530744Y-150538686D02*
G01*
X97593263Y-150823387D01*
X97308562Y-151885906D01*
X96246043Y-151601205D01*
X96530744Y-150538686D01*
G37*
G04 #@! TD*
G04 #@! TO.C,D77*
G36*
X115072744Y-155618686D02*
G01*
X116135263Y-155903387D01*
X115850562Y-156965906D01*
X114788043Y-156681205D01*
X115072744Y-155618686D01*
G37*
G36*
X115797438Y-152914094D02*
G01*
X116859957Y-153198795D01*
X116575256Y-154261314D01*
X115512737Y-153976613D01*
X115797438Y-152914094D01*
G37*
G04 #@! TD*
G04 #@! TO.C,D78*
G36*
X133577438Y-160026094D02*
G01*
X134639957Y-160310795D01*
X134355256Y-161373314D01*
X133292737Y-161088613D01*
X133577438Y-160026094D01*
G37*
G36*
X132852744Y-162730686D02*
G01*
X133915263Y-163015387D01*
X133630562Y-164077906D01*
X132568043Y-163793205D01*
X132852744Y-162730686D01*
G37*
G04 #@! TD*
G04 #@! TO.C,D79*
G36*
X151140744Y-162984686D02*
G01*
X152203263Y-163269387D01*
X151918562Y-164331906D01*
X150856043Y-164047205D01*
X151140744Y-162984686D01*
G37*
G36*
X151865438Y-160280094D02*
G01*
X152927957Y-160564795D01*
X152643256Y-161627314D01*
X151580737Y-161342613D01*
X151865438Y-160280094D01*
G37*
G04 #@! TD*
D27*
G04 #@! TO.C,D80*
X189738000Y-169288000D03*
X189738000Y-172088000D03*
G04 #@! TD*
G04 #@! TO.C,D81*
X208788000Y-172088000D03*
X208788000Y-169288000D03*
G04 #@! TD*
G04 #@! TO.C,D82*
X227838000Y-172088000D03*
X227838000Y-169288000D03*
G04 #@! TD*
G04 #@! TO.C,D83*
X246888000Y-172088000D03*
X246888000Y-169288000D03*
G04 #@! TD*
D17*
G04 #@! TO.C,D84*
G36*
X267188043Y-161326795D02*
G01*
X268250562Y-161042094D01*
X268535263Y-162104613D01*
X267472744Y-162389314D01*
X267188043Y-161326795D01*
G37*
G36*
X267912737Y-164031387D02*
G01*
X268975256Y-163746686D01*
X269259957Y-164809205D01*
X268197438Y-165093906D01*
X267912737Y-164031387D01*
G37*
G04 #@! TD*
G04 #@! TO.C,D85*
G36*
X303726737Y-155903387D02*
G01*
X304789256Y-155618686D01*
X305073957Y-156681205D01*
X304011438Y-156965906D01*
X303726737Y-155903387D01*
G37*
G36*
X303002043Y-153198795D02*
G01*
X304064562Y-152914094D01*
X304349263Y-153976613D01*
X303286744Y-154261314D01*
X303002043Y-153198795D01*
G37*
G04 #@! TD*
G04 #@! TO.C,D86*
G36*
X321544043Y-148118795D02*
G01*
X322606562Y-147834094D01*
X322891263Y-148896613D01*
X321828744Y-149181314D01*
X321544043Y-148118795D01*
G37*
G36*
X322268737Y-150823387D02*
G01*
X323331256Y-150538686D01*
X323615957Y-151601205D01*
X322553438Y-151885906D01*
X322268737Y-150823387D01*
G37*
G04 #@! TD*
G04 #@! TO.C,D87*
G36*
X341826737Y-150569387D02*
G01*
X342889256Y-150284686D01*
X343173957Y-151347205D01*
X342111438Y-151631906D01*
X341826737Y-150569387D01*
G37*
G36*
X341102043Y-147864795D02*
G01*
X342164562Y-147580094D01*
X342449263Y-148642613D01*
X341386744Y-148927314D01*
X341102043Y-147864795D01*
G37*
G04 #@! TD*
G04 #@! TO.C,D88*
G36*
X359898043Y-144308795D02*
G01*
X360960562Y-144024094D01*
X361245263Y-145086613D01*
X360182744Y-145371314D01*
X359898043Y-144308795D01*
G37*
G36*
X360622737Y-147013387D02*
G01*
X361685256Y-146728686D01*
X361969957Y-147791205D01*
X360907438Y-148075906D01*
X360622737Y-147013387D01*
G37*
G04 #@! TD*
G04 #@! TO.C,D89*
G36*
X378910737Y-142187387D02*
G01*
X379973256Y-141902686D01*
X380257957Y-142965205D01*
X379195438Y-143249906D01*
X378910737Y-142187387D01*
G37*
G36*
X378186043Y-139482795D02*
G01*
X379248562Y-139198094D01*
X379533263Y-140260613D01*
X378470744Y-140545314D01*
X378186043Y-139482795D01*
G37*
G04 #@! TD*
G04 #@! TO.C,D90*
G36*
X395331043Y-134275795D02*
G01*
X396393562Y-133991094D01*
X396678263Y-135053613D01*
X395615744Y-135338314D01*
X395331043Y-134275795D01*
G37*
G36*
X396055737Y-136980387D02*
G01*
X397118256Y-136695686D01*
X397402957Y-137758205D01*
X396340438Y-138042906D01*
X396055737Y-136980387D01*
G37*
G04 #@! TD*
G04 #@! TO.C,F1*
G36*
G01*
X229403000Y-80599500D02*
X229403000Y-80944500D01*
G75*
G02*
X229255500Y-81092000I-147500J0D01*
G01*
X228960500Y-81092000D01*
G75*
G02*
X228813000Y-80944500I0J147500D01*
G01*
X228813000Y-80599500D01*
G75*
G02*
X228960500Y-80452000I147500J0D01*
G01*
X229255500Y-80452000D01*
G75*
G02*
X229403000Y-80599500I0J-147500D01*
G01*
G37*
G36*
G01*
X228433000Y-80599500D02*
X228433000Y-80944500D01*
G75*
G02*
X228285500Y-81092000I-147500J0D01*
G01*
X227990500Y-81092000D01*
G75*
G02*
X227843000Y-80944500I0J147500D01*
G01*
X227843000Y-80599500D01*
G75*
G02*
X227990500Y-80452000I147500J0D01*
G01*
X228285500Y-80452000D01*
G75*
G02*
X228433000Y-80599500I0J-147500D01*
G01*
G37*
G04 #@! TD*
D28*
G04 #@! TO.C,H1*
X59690000Y-68834000D03*
G04 #@! TD*
G04 #@! TO.C,H2*
X37084000Y-153924000D03*
G04 #@! TD*
G04 #@! TO.C,H3*
X96520000Y-79502000D03*
G04 #@! TD*
G04 #@! TO.C,H4*
X84836000Y-125222000D03*
G04 #@! TD*
G04 #@! TO.C,H5*
X110998000Y-170434000D03*
G04 #@! TD*
G04 #@! TO.C,H6*
X128016000Y-108204000D03*
G04 #@! TD*
G04 #@! TO.C,H7*
X168021000Y-121158000D03*
G04 #@! TD*
G04 #@! TO.C,H8*
X164973000Y-156591000D03*
G04 #@! TD*
G04 #@! TO.C,H9*
X171958000Y-187325000D03*
G04 #@! TD*
G04 #@! TO.C,H10*
X165735000Y-84328000D03*
G04 #@! TD*
G04 #@! TO.C,H11*
X256413000Y-84074000D03*
G04 #@! TD*
G04 #@! TO.C,H12*
X251968000Y-121285000D03*
G04 #@! TD*
G04 #@! TO.C,H13*
X255397000Y-156845000D03*
G04 #@! TD*
G04 #@! TO.C,H14*
X322834000Y-77851000D03*
G04 #@! TD*
G04 #@! TO.C,H15*
X247904000Y-187198000D03*
G04 #@! TD*
G04 #@! TO.C,H16*
X308356000Y-170815000D03*
G04 #@! TD*
G04 #@! TO.C,H17*
X335280000Y-125095000D03*
G04 #@! TD*
G04 #@! TO.C,H18*
X191008000Y-142113000D03*
G04 #@! TD*
G04 #@! TO.C,H19*
X291719000Y-108204000D03*
G04 #@! TD*
G04 #@! TO.C,H20*
X359791000Y-68072000D03*
G04 #@! TD*
G04 #@! TO.C,H21*
X209931000Y-163576000D03*
G04 #@! TD*
G04 #@! TO.C,H22*
X229108000Y-141986000D03*
G04 #@! TD*
G04 #@! TO.C,H23*
X382905000Y-154686000D03*
G04 #@! TD*
G04 #@! TO.C,H24*
X209931000Y-125603000D03*
G04 #@! TD*
D29*
G04 #@! TO.C,C6*
X232283000Y-87672000D03*
X232283000Y-86572000D03*
G04 #@! TD*
D12*
G04 #@! TO.C,SW1*
X46146253Y-68053911D03*
X52937282Y-67243960D03*
D13*
X49169030Y-71493463D03*
D11*
X54075933Y-72808264D03*
X44262127Y-70178662D03*
G04 #@! TD*
D12*
G04 #@! TO.C,SW2*
X64304252Y-74409482D03*
X71095281Y-73599531D03*
D13*
X67327029Y-77849034D03*
D11*
X72233932Y-79163835D03*
X62420126Y-76534233D03*
G04 #@! TD*
D12*
G04 #@! TO.C,SW3*
X83000776Y-77918740D03*
X89791805Y-77108789D03*
D13*
X86023553Y-81358292D03*
D11*
X90930456Y-82673093D03*
X81116650Y-80043491D03*
G04 #@! TD*
G04 #@! TO.C,SW4*
X100827813Y-80312700D03*
X110641619Y-82942302D03*
D13*
X105734716Y-81627501D03*
D12*
X109502968Y-77377998D03*
X102711939Y-78187949D03*
G04 #@! TD*
G04 #@! TO.C,SW5*
X121484483Y-81793648D03*
X128275512Y-80983697D03*
D13*
X124507260Y-85233200D03*
D11*
X129414163Y-86548001D03*
X119600357Y-83918399D03*
G04 #@! TD*
G04 #@! TO.C,SW6*
X137624899Y-90171818D03*
X147438705Y-92801420D03*
D13*
X142531802Y-91486619D03*
D12*
X146300054Y-87237116D03*
X139509025Y-88047067D03*
G04 #@! TD*
G04 #@! TO.C,SW7*
X157249330Y-95295886D03*
X164040359Y-94485935D03*
D13*
X160272107Y-98735438D03*
D11*
X165179010Y-100050239D03*
X155365204Y-97420637D03*
G04 #@! TD*
G04 #@! TO.C,SW8*
X176400027Y-101668860D03*
X186560027Y-101668860D03*
D13*
X181480027Y-101668860D03*
D12*
X184020027Y-96588860D03*
X177670027Y-99128860D03*
G04 #@! TD*
G04 #@! TO.C,SW9*
X196653938Y-99129622D03*
X203003938Y-96589622D03*
D13*
X200463938Y-101669622D03*
D11*
X205543938Y-101669622D03*
X195383938Y-101669622D03*
G04 #@! TD*
G04 #@! TO.C,SW10*
X214388099Y-101669850D03*
X224548099Y-101669850D03*
D13*
X219468099Y-101669850D03*
D12*
X222008099Y-96589850D03*
X215658099Y-99129850D03*
G04 #@! TD*
G04 #@! TO.C,SW11*
X234646946Y-99129702D03*
X240996946Y-96589702D03*
D13*
X238456946Y-101669702D03*
D11*
X243536946Y-101669702D03*
X233376946Y-101669702D03*
G04 #@! TD*
G04 #@! TO.C,SW12*
X254636020Y-100093416D03*
X264449826Y-97463814D03*
D13*
X259542923Y-98778615D03*
D12*
X260681574Y-93214311D03*
X255205345Y-97311264D03*
G04 #@! TD*
D11*
G04 #@! TO.C,SW13*
X272356112Y-92865814D03*
X282169918Y-90236212D03*
D13*
X277263015Y-91551013D03*
D12*
X278401666Y-85986709D03*
X272925437Y-90083662D03*
G04 #@! TD*
D11*
G04 #@! TO.C,SW14*
X290392120Y-86613199D03*
X300205926Y-83983597D03*
D13*
X295299023Y-85298398D03*
D12*
X296437674Y-79734094D03*
X290961445Y-83831047D03*
G04 #@! TD*
G04 #@! TO.C,SW15*
X309746386Y-80248635D03*
X315222615Y-76151682D03*
D13*
X314083964Y-81715986D03*
D11*
X318990867Y-80401185D03*
X309177061Y-83030787D03*
G04 #@! TD*
D12*
G04 #@! TO.C,SW17*
X348180188Y-76464639D03*
X353656417Y-72367686D03*
D13*
X352517766Y-77931990D03*
D11*
X357424669Y-76617189D03*
X347610863Y-79246791D03*
G04 #@! TD*
G04 #@! TO.C,SW18*
X365672558Y-72854502D03*
X375486364Y-70224900D03*
D13*
X370579461Y-71539701D03*
D12*
X371718112Y-65975397D03*
X366241883Y-70072350D03*
G04 #@! TD*
G04 #@! TO.C,SW19*
X41277716Y-86282892D03*
X48068745Y-85472941D03*
D13*
X44300493Y-89722444D03*
D11*
X49207396Y-91037245D03*
X39393590Y-88407643D03*
G04 #@! TD*
G04 #@! TO.C,SW20*
X57523359Y-94800369D03*
X67337165Y-97429971D03*
D13*
X62430262Y-96115170D03*
D12*
X66198514Y-91865667D03*
X59407485Y-92675618D03*
G04 #@! TD*
G04 #@! TO.C,SW21*
X78108394Y-96145623D03*
X84899423Y-95335672D03*
D13*
X81131171Y-99585175D03*
D11*
X86038074Y-100899976D03*
X76224268Y-98270374D03*
G04 #@! TD*
G04 #@! TO.C,SW22*
X95914481Y-98681749D03*
X105728287Y-101311351D03*
D13*
X100821384Y-99996550D03*
D12*
X104589636Y-95747047D03*
X97798607Y-96556998D03*
G04 #@! TD*
G04 #@! TO.C,SW23*
X116502776Y-100210859D03*
X123293805Y-99400908D03*
D13*
X119525553Y-103650411D03*
D11*
X124432456Y-104965212D03*
X114618650Y-102335610D03*
G04 #@! TD*
D12*
G04 #@! TO.C,SW24*
X134578927Y-106443354D03*
X141369956Y-105633403D03*
D13*
X137601704Y-109882906D03*
D11*
X142508607Y-111197707D03*
X132694801Y-108568105D03*
G04 #@! TD*
G04 #@! TO.C,SW25*
X150388051Y-115865979D03*
X160201857Y-118495581D03*
D13*
X155294954Y-117180780D03*
D12*
X159063206Y-112931277D03*
X152272177Y-113741228D03*
G04 #@! TD*
G04 #@! TO.C,SW26*
X177672461Y-118147059D03*
X184022461Y-115607059D03*
D13*
X181482461Y-120687059D03*
D11*
X186562461Y-120687059D03*
X176402461Y-120687059D03*
G04 #@! TD*
G04 #@! TO.C,SW27*
X195389234Y-120688156D03*
X205549234Y-120688156D03*
D13*
X200469234Y-120688156D03*
D12*
X203009234Y-115608156D03*
X196659234Y-118148156D03*
G04 #@! TD*
G04 #@! TO.C,SW28*
X215649244Y-118148139D03*
X221999244Y-115608139D03*
D13*
X219459244Y-120688139D03*
D11*
X224539244Y-120688139D03*
X214379244Y-120688139D03*
G04 #@! TD*
G04 #@! TO.C,SW29*
X233360303Y-120688345D03*
X243520303Y-120688345D03*
D13*
X238440303Y-120688345D03*
D12*
X240980303Y-115608345D03*
X234630303Y-118148345D03*
G04 #@! TD*
G04 #@! TO.C,SW30*
X260114718Y-115782182D03*
X265590947Y-111685229D03*
D13*
X264452296Y-117249533D03*
D11*
X269359199Y-115934732D03*
X259545393Y-118564334D03*
G04 #@! TD*
G04 #@! TO.C,SW31*
X277297506Y-111349037D03*
X287111312Y-108719435D03*
D13*
X282204409Y-110034236D03*
D12*
X283343060Y-104469932D03*
X277866831Y-108566885D03*
G04 #@! TD*
G04 #@! TO.C,SW32*
X295974337Y-102268861D03*
X301450566Y-98171908D03*
D13*
X300311915Y-103736212D03*
D11*
X305218818Y-102421411D03*
X295405012Y-105051013D03*
G04 #@! TD*
G04 #@! TO.C,SW33*
X314097820Y-101375579D03*
X323911626Y-98745977D03*
D13*
X319004723Y-100060778D03*
D12*
X320143374Y-94496474D03*
X314667145Y-98593427D03*
G04 #@! TD*
D11*
G04 #@! TO.C,SW34*
X333770524Y-100980372D03*
X343584330Y-98350770D03*
D13*
X338677427Y-99665571D03*
D12*
X339816078Y-94101267D03*
X334339849Y-98198220D03*
G04 #@! TD*
D11*
G04 #@! TO.C,SW35*
X352518904Y-97516048D03*
X362332710Y-94886446D03*
D13*
X357425807Y-96201247D03*
D12*
X358564458Y-90636943D03*
X353088229Y-94733896D03*
G04 #@! TD*
G04 #@! TO.C,SW36*
X371120045Y-88343221D03*
X376596274Y-84246268D03*
D13*
X375457623Y-89810572D03*
D11*
X380364526Y-88495771D03*
X370550720Y-91125373D03*
G04 #@! TD*
G04 #@! TO.C,SW37*
X34462084Y-106955007D03*
X44275890Y-109584609D03*
D13*
X39368987Y-108269808D03*
D12*
X43137239Y-104020305D03*
X36346210Y-104830256D03*
G04 #@! TD*
G04 #@! TO.C,SW38*
X54396790Y-111248003D03*
X61187819Y-110438052D03*
D13*
X57419567Y-114687555D03*
D11*
X62326470Y-116002356D03*
X52512664Y-113372754D03*
G04 #@! TD*
G04 #@! TO.C,SW39*
X71262379Y-116831009D03*
X81076185Y-119460611D03*
D13*
X76169282Y-118145810D03*
D12*
X79937534Y-113896307D03*
X73146505Y-114706258D03*
G04 #@! TD*
G04 #@! TO.C,SW40*
X92844805Y-114995905D03*
X99635834Y-114185954D03*
D13*
X95867582Y-118435457D03*
D11*
X100774485Y-119750258D03*
X90960679Y-117120656D03*
G04 #@! TD*
G04 #@! TO.C,SW41*
X109641099Y-120755094D03*
X119454905Y-123384696D03*
D13*
X114548002Y-122069895D03*
D12*
X118316254Y-117820392D03*
X111525225Y-118630343D03*
G04 #@! TD*
G04 #@! TO.C,SW42*
X129675863Y-124861040D03*
X136466892Y-124051089D03*
D13*
X132698640Y-128300592D03*
D11*
X137605543Y-129615393D03*
X127791737Y-126985791D03*
G04 #@! TD*
G04 #@! TO.C,SW43*
X145506078Y-134216230D03*
X155319884Y-136845832D03*
D13*
X150412981Y-135531031D03*
D12*
X154181233Y-131281528D03*
X147390204Y-132091479D03*
G04 #@! TD*
G04 #@! TO.C,SW44*
X177669982Y-137157890D03*
X184019982Y-134617890D03*
D13*
X181479982Y-139697890D03*
D11*
X186559982Y-139697890D03*
X176399982Y-139697890D03*
G04 #@! TD*
D12*
G04 #@! TO.C,SW45*
X196671210Y-137149145D03*
X203021210Y-134609145D03*
D13*
X200481210Y-139689145D03*
D11*
X205561210Y-139689145D03*
X195401210Y-139689145D03*
G04 #@! TD*
D12*
G04 #@! TO.C,SW46*
X215647600Y-137137803D03*
X221997600Y-134597803D03*
D13*
X219457600Y-139677803D03*
D11*
X224537600Y-139677803D03*
X214377600Y-139677803D03*
G04 #@! TD*
G04 #@! TO.C,SW47*
X233374704Y-139684832D03*
X243534704Y-139684832D03*
D13*
X238454704Y-139684832D03*
D12*
X240994704Y-134604832D03*
X234644704Y-137144832D03*
G04 #@! TD*
G04 #@! TO.C,SW48*
X265042634Y-134150075D03*
X270518863Y-130053122D03*
D13*
X269380212Y-135617426D03*
D11*
X274287115Y-134302625D03*
X264473309Y-136932227D03*
G04 #@! TD*
G04 #@! TO.C,SW49*
X282227553Y-129718653D03*
X292041359Y-127089051D03*
D13*
X287134456Y-128403852D03*
D12*
X288273107Y-122839548D03*
X282796878Y-126936501D03*
G04 #@! TD*
G04 #@! TO.C,SW50*
X300917299Y-120746759D03*
X306393528Y-116649806D03*
D13*
X305254877Y-122214110D03*
D11*
X310161780Y-120899309D03*
X300347974Y-123528911D03*
G04 #@! TD*
G04 #@! TO.C,SW51*
X319014686Y-119839815D03*
X328828492Y-117210213D03*
D13*
X323921589Y-118525014D03*
D12*
X325060240Y-112960710D03*
X319584011Y-117057663D03*
G04 #@! TD*
G04 #@! TO.C,SW52*
X339291431Y-116751121D03*
X344767660Y-112654168D03*
D13*
X343629009Y-118218472D03*
D11*
X348535912Y-116903671D03*
X338722106Y-119533273D03*
G04 #@! TD*
G04 #@! TO.C,SW53*
X357475482Y-116039785D03*
X367289288Y-113410183D03*
D13*
X362382385Y-114724984D03*
D12*
X363521036Y-109160680D03*
X358044807Y-113257633D03*
G04 #@! TD*
G04 #@! TO.C,SW54*
X376079789Y-106913091D03*
X381556018Y-102816138D03*
D13*
X380417367Y-108380442D03*
D11*
X385324270Y-107065641D03*
X375510464Y-109695243D03*
G04 #@! TD*
G04 #@! TO.C,SW55*
X29524056Y-125344061D03*
X39337862Y-127973663D03*
D13*
X34430959Y-126658862D03*
D12*
X38199211Y-122409359D03*
X31408182Y-123219310D03*
G04 #@! TD*
D11*
G04 #@! TO.C,SW56*
X47578258Y-131707436D03*
X57392064Y-134337038D03*
D13*
X52485161Y-133022237D03*
D12*
X56253413Y-128772734D03*
X49462384Y-129582685D03*
G04 #@! TD*
D11*
G04 #@! TO.C,SW57*
X66347532Y-135173738D03*
X76161338Y-137803340D03*
D13*
X71254435Y-136488539D03*
D12*
X75022687Y-132239036D03*
X68231658Y-133048987D03*
G04 #@! TD*
G04 #@! TO.C,SW58*
X87869393Y-133462023D03*
X94660422Y-132652072D03*
D13*
X90892170Y-136901575D03*
D11*
X95799073Y-138216376D03*
X85985267Y-135586774D03*
G04 #@! TD*
G04 #@! TO.C,SW59*
X104735801Y-139164454D03*
X114549607Y-141794056D03*
D13*
X109642704Y-140479255D03*
D12*
X113410956Y-136229752D03*
X106619927Y-137039703D03*
G04 #@! TD*
G04 #@! TO.C,SW60*
X124720998Y-143326940D03*
X131512027Y-142516989D03*
D13*
X127743775Y-146766492D03*
D11*
X132650678Y-148081293D03*
X122836872Y-145451691D03*
G04 #@! TD*
G04 #@! TO.C,SW61*
X140578953Y-152583550D03*
X150392759Y-155213152D03*
D13*
X145485856Y-153898351D03*
D12*
X149254108Y-149648848D03*
X142463079Y-150458799D03*
G04 #@! TD*
G04 #@! TO.C,SW62*
X177680210Y-156179962D03*
X184030210Y-153639962D03*
D13*
X181490210Y-158719962D03*
D11*
X186570210Y-158719962D03*
X176410210Y-158719962D03*
G04 #@! TD*
G04 #@! TO.C,SW63*
X195401345Y-158720277D03*
X205561345Y-158720277D03*
D13*
X200481345Y-158720277D03*
D12*
X203021345Y-153640277D03*
X196671345Y-156180277D03*
G04 #@! TD*
G04 #@! TO.C,SW64*
X215664685Y-156163844D03*
X222014685Y-153623844D03*
D13*
X219474685Y-158703844D03*
D11*
X224554685Y-158703844D03*
X214394685Y-158703844D03*
G04 #@! TD*
G04 #@! TO.C,SW65*
X233386643Y-158701118D03*
X243546643Y-158701118D03*
D13*
X238466643Y-158701118D03*
D12*
X241006643Y-153621118D03*
X234656643Y-156161118D03*
G04 #@! TD*
G04 #@! TO.C,SW66*
X269978867Y-152505937D03*
X275455096Y-148408984D03*
D13*
X274316445Y-153973288D03*
D11*
X279223348Y-152658487D03*
X269409542Y-155288089D03*
G04 #@! TD*
D12*
G04 #@! TO.C,SW67*
X287724396Y-145350413D03*
X293200625Y-141253460D03*
D13*
X292061974Y-146817764D03*
D11*
X296968877Y-145502963D03*
X287155071Y-148132565D03*
G04 #@! TD*
D12*
G04 #@! TO.C,SW68*
X305846620Y-139079988D03*
X311322849Y-134983035D03*
D13*
X310184198Y-140547339D03*
D11*
X315091101Y-139232538D03*
X305277295Y-141862140D03*
G04 #@! TD*
G04 #@! TO.C,SW69*
X323975292Y-138276752D03*
X333789098Y-135647150D03*
D13*
X328882195Y-136961951D03*
D12*
X330020846Y-131397647D03*
X324544617Y-135494600D03*
G04 #@! TD*
G04 #@! TO.C,SW70*
X344216590Y-135110700D03*
X349692819Y-131013747D03*
D13*
X348554168Y-136578051D03*
D11*
X353461071Y-135263250D03*
X343647265Y-137892852D03*
G04 #@! TD*
G04 #@! TO.C,SW71*
X362422272Y-134387296D03*
X372236078Y-131757694D03*
D13*
X367329175Y-133072495D03*
D12*
X368467826Y-127508191D03*
X362991597Y-131605144D03*
G04 #@! TD*
G04 #@! TO.C,SW72*
X381007144Y-125224592D03*
X386483373Y-121127639D03*
D13*
X385344722Y-126691943D03*
D11*
X390251625Y-125377142D03*
X380437819Y-128006744D03*
G04 #@! TD*
G04 #@! TO.C,SW73*
X24616014Y-143760984D03*
X34429820Y-146390586D03*
D13*
X29522917Y-145075785D03*
D12*
X33291169Y-140826282D03*
X26500140Y-141636233D03*
G04 #@! TD*
G04 #@! TO.C,SW74*
X44504776Y-147944829D03*
X51295805Y-147134878D03*
D13*
X47527553Y-151384381D03*
D11*
X52434456Y-152699182D03*
X42620650Y-150069580D03*
G04 #@! TD*
G04 #@! TO.C,SW75*
X61413434Y-153601170D03*
X71227240Y-156230772D03*
D13*
X66320337Y-154915971D03*
D12*
X70088589Y-150666468D03*
X63297560Y-151476419D03*
G04 #@! TD*
G04 #@! TO.C,SW76*
X82957773Y-151850206D03*
X89748802Y-151040255D03*
D13*
X85980550Y-155289758D03*
D11*
X90887453Y-156604559D03*
X81073647Y-153974957D03*
G04 #@! TD*
G04 #@! TO.C,SW77*
X99804505Y-157557954D03*
X109618311Y-160187556D03*
D13*
X104711408Y-158872755D03*
D12*
X108479660Y-154623252D03*
X101688631Y-155433203D03*
G04 #@! TD*
D11*
G04 #@! TO.C,SW78*
X117897435Y-163821182D03*
X127711241Y-166450784D03*
D13*
X122804338Y-165135983D03*
D12*
X126572590Y-160886480D03*
X119781561Y-161696431D03*
G04 #@! TD*
D11*
G04 #@! TO.C,SW80*
X176424206Y-177722335D03*
X186584206Y-177722335D03*
D13*
X181504206Y-177722335D03*
D12*
X184044206Y-172642335D03*
X177694206Y-175182335D03*
G04 #@! TD*
G04 #@! TO.C,SW81*
X196683711Y-175172896D03*
X203033711Y-172632896D03*
D13*
X200493711Y-177712896D03*
D11*
X205573711Y-177712896D03*
X195413711Y-177712896D03*
G04 #@! TD*
G04 #@! TO.C,SW82*
X214419599Y-177693491D03*
X224579599Y-177693491D03*
D13*
X219499599Y-177693491D03*
D12*
X222039599Y-172613491D03*
X215689599Y-175153491D03*
G04 #@! TD*
G04 #@! TO.C,SW83*
X234652754Y-175142742D03*
X241002754Y-172602742D03*
D13*
X238462754Y-177682742D03*
D11*
X243542754Y-177682742D03*
X233382754Y-177682742D03*
G04 #@! TD*
G04 #@! TO.C,SW85*
X292074117Y-166529373D03*
X301887923Y-163899771D03*
D13*
X296981020Y-165214572D03*
D12*
X298119671Y-159650268D03*
X292643442Y-163747221D03*
G04 #@! TD*
G04 #@! TO.C,SW86*
X310760887Y-157455110D03*
X316237116Y-153358157D03*
D13*
X315098465Y-158922461D03*
D11*
X320005368Y-157607660D03*
X310191562Y-160237262D03*
G04 #@! TD*
G04 #@! TO.C,SW87*
X328912068Y-156684029D03*
X338725874Y-154054427D03*
D13*
X333818971Y-155369228D03*
D12*
X334957622Y-149804924D03*
X329481393Y-153901877D03*
G04 #@! TD*
G04 #@! TO.C,SW88*
X349162593Y-153505619D03*
X354638822Y-149408666D03*
D13*
X353500171Y-154972970D03*
D11*
X358407074Y-153658169D03*
X348593268Y-156287771D03*
G04 #@! TD*
G04 #@! TO.C,SW89*
X367355288Y-152817403D03*
X377169094Y-150187801D03*
D13*
X372262191Y-151502602D03*
D12*
X373400842Y-145938298D03*
X367924613Y-150035251D03*
G04 #@! TD*
G04 #@! TO.C,SW90*
X385942728Y-143638954D03*
X391418957Y-139542001D03*
D13*
X390280306Y-145106305D03*
D11*
X395187209Y-143791504D03*
X385373403Y-146421106D03*
G04 #@! TD*
M02*
