M48
; DRILL file {KiCad (5.1.10)-1} date 10/14/21 20:38:59
; FORMAT={-:-/ absolute / metric / decimal}
; #@! TF.CreationDate,2021-10-14T20:38:59+01:00
; #@! TF.GenerationSoftware,Kicad,Pcbnew,(5.1.10)-1
; #@! TF.FileFunction,Plated,1,2,PTH
FMAT,2
METRIC
T1C0.400
T2C0.600
T3C1.000
T4C2.200
%
G90
G05
T1
X38.399Y-142.322
X43.479Y-124.034
X45.925Y-64.34
X48.178Y-105.746
X53.103Y-87.359
X56.687Y-147.402
X56.869Y-73.941
X59.055Y-70.993
X61.767Y-129.114
X63.373Y-71.406
X66.637Y-110.655
X71.518Y-92.439
X75.157Y-80.037
X75.737Y-150.958
X77.851Y-73.787
X80.563Y-132.416
X82.042Y-74.942
X85.433Y-113.957
X90.695Y-94.471
X93.98Y-83.312
X95.168Y-151.212
X100.121Y-132.924
X102.044Y-74.993
X104.991Y-114.211
X110.123Y-97.663
X113.511Y-84.482
X113.71Y-156.292
X115.951Y-79.692
X118.834Y-137.833
X120.587Y-78.756
X123.489Y-119.208
X128.287Y-101.329
X131.49Y-163.404
X132.053Y-87.911
X135.382Y-83.312
X136.614Y-144.945
X138.785Y-84.836
X141.396Y-126.574
X146.304Y-107.95
X149.833Y-94.134
X151.53Y-165.246
X153.162Y-89.916
X155.086Y-151.873
X156.118Y-92.491
X160.166Y-133.585
X164.877Y-115.158
X166.851Y-102.643
X169.294Y-112.138
X170.434Y-155.194
X170.868Y-131.138
X171.069Y-107.569
X174.48Y-96.919
X178.498Y-94.932
X189.738Y-102.616
X189.738Y-116.078
X189.738Y-135.255
X189.738Y-154.432
X189.738Y-173.482
X190.5Y-138.176
X191.262Y-102.616
X191.262Y-108.585
X191.516Y-146.05
X191.516Y-150.114
X192.024Y-120.904
X192.278Y-114.808
X192.278Y-132.715
X192.278Y-139.446
X192.532Y-96.266
X193.464Y-96.858
X195.453Y-108.966
X198.374Y-86.106
X199.898Y-86.106
X201.168Y-86.106
X205.55Y-86.5
X207.645Y-123.825
X208.788Y-102.616
X208.788Y-116.205
X208.788Y-135.382
X208.788Y-154.305
X208.788Y-173.355
X210.081Y-80.495
X210.82Y-102.96
X210.82Y-108.712
X210.82Y-120.65
X210.82Y-139.7
X211.074Y-115.57
X211.074Y-132.588
X211.074Y-152.4
X211.074Y-158.242
X211.458Y-169.288
X212.468Y-96.777
X214.884Y-95.631
X215.265Y-108.458
X219.456Y-84.074
X219.456Y-85.55
X219.456Y-87.122
X220.85Y-86.4
X221.571Y-81.865
X221.599Y-83.676
X223.52Y-88.646
X225.552Y-87.884
X227.076Y-81.534
X227.838Y-102.743
X227.838Y-116.205
X227.838Y-135.255
X227.838Y-154.305
X227.838Y-173.355
X228.674Y-81.714
X229.997Y-85.344
X229.997Y-86.614
X230.124Y-96.266
X230.25Y-81.75
X230.251Y-101.6
X231.14Y-87.63
X231.457Y-96.584
X233.934Y-80.772
X233.976Y-78.782
X237.48Y-79.71
X237.57Y-89.67
X243.52Y-83.94
X244.15Y-82.15
X246.888Y-102.489
X246.888Y-116.332
X246.888Y-135.255
X246.888Y-154.305
X246.888Y-173.355
X251.269Y-95.948
X267.462Y-100.457
X268.859Y-88.646
X271.753Y-109.247
X276.714Y-128.162
X281.667Y-146.285
X284.353Y-93.98
X286.112Y-162.452
X287.147Y-82.55
X289.787Y-102.589
X294.621Y-120.885
X296.926Y-88.392
X299.574Y-139.084
X303.657Y-89.027
X304.4Y-157.626
X305.689Y-78.74
X308.202Y-97.69
X313.036Y-115.716
X317.989Y-134.093
X322.326Y-85.344
X322.942Y-152.508
X326.354Y-77.379
X327.379Y-95.731
X332.721Y-115.297
X337.674Y-133.75
X341.503Y-83.185
X342.5Y-152.292
X345.089Y-74.773
X346.556Y-93.572
X351.517Y-111.995
X356.47Y-130.448
X359.664Y-80.264
X360.553Y-70.866
X361.296Y-148.736
X363.15Y-68.523
X364.971Y-88.873
X369.805Y-106.915
X374.758Y-125.368
X379.584Y-143.91
X379.888Y-73.437
X381.862Y-83.793
X386.95Y-101.962
X391.903Y-120.504
X396.729Y-138.792
T3
X198.374Y-78.232
X198.374Y-80.772
X198.374Y-83.312
X200.914Y-78.232
X200.914Y-80.772
X200.914Y-83.312
T4
X17.526Y-149.86
X42.545Y-60.833
X127.889Y-182.118
X164.338Y-83.947
X165.862Y-140.97
X171.958Y-187.325
X247.904Y-187.198
X253.365Y-140.716
X256.413Y-84.074
X292.1Y-182.118
X377.698Y-59.817
X401.955Y-149.352
T2
X205.622Y-77.99G85X205.622Y-77.39
G05
X205.622Y-82.42G85X205.622Y-81.32
G05
X214.262Y-77.99G85X214.262Y-77.39
G05
X214.262Y-82.42G85X214.262Y-81.32
G05
T0
M30
