G04 #@! TF.GenerationSoftware,KiCad,Pcbnew,(5.1.10)-1*
G04 #@! TF.CreationDate,2021-09-21T17:17:46+01:00*
G04 #@! TF.ProjectId,superlyra-hs,73757065-726c-4797-9261-2d68732e6b69,0.1*
G04 #@! TF.SameCoordinates,Original*
G04 #@! TF.FileFunction,Legend,Top*
G04 #@! TF.FilePolarity,Positive*
%FSLAX46Y46*%
G04 Gerber Fmt 4.6, Leading zero omitted, Abs format (unit mm)*
G04 Created by KiCad (PCBNEW (5.1.10)-1) date 2021-09-21 17:17:46*
%MOMM*%
%LPD*%
G01*
G04 APERTURE LIST*
%ADD10C,0.153000*%
%ADD11C,0.150000*%
%ADD12C,0.125000*%
%ADD13C,0.120000*%
%ADD14C,0.010000*%
%ADD15R,1.900000X0.400000*%
%ADD16C,1.800000*%
%ADD17C,3.000000*%
%ADD18C,4.000000*%
%ADD19C,3.048000*%
%ADD20C,3.987800*%
%ADD21R,1.060000X0.650000*%
%ADD22C,0.100000*%
%ADD23R,0.600000X0.500000*%
%ADD24R,1.700000X1.700000*%
%ADD25O,1.700000X1.700000*%
%ADD26O,1.000000X1.600000*%
%ADD27C,0.650000*%
%ADD28O,1.000000X2.100000*%
%ADD29R,0.300000X1.450000*%
%ADD30R,0.600000X1.450000*%
%ADD31R,1.700000X1.000000*%
%ADD32R,1.100000X1.100000*%
%ADD33C,3.500000*%
%ADD34R,0.500000X0.600000*%
G04 APERTURE END LIST*
D10*
X195131658Y-81726277D02*
X195239407Y-81672402D01*
X195374094Y-81537715D01*
X195401032Y-81456903D01*
X195401032Y-81403028D01*
X195374094Y-81322216D01*
X195320219Y-81268341D01*
X195239407Y-81241404D01*
X195185532Y-81241404D01*
X195104720Y-81268341D01*
X194970033Y-81349154D01*
X194889221Y-81376091D01*
X194835346Y-81376091D01*
X194754534Y-81349154D01*
X194700659Y-81295279D01*
X194673722Y-81214467D01*
X194673722Y-81160592D01*
X194700659Y-81079780D01*
X194835346Y-80945093D01*
X194943096Y-80891218D01*
X195993654Y-80810406D02*
X195993654Y-80864280D01*
X195939780Y-80972030D01*
X195885905Y-81025905D01*
X195778155Y-81079780D01*
X195670406Y-81079780D01*
X195589593Y-81052842D01*
X195454906Y-80972030D01*
X195374094Y-80891218D01*
X195293282Y-80756531D01*
X195266345Y-80675719D01*
X195266345Y-80567969D01*
X195320219Y-80460219D01*
X195374094Y-80406345D01*
X195481844Y-80352470D01*
X195535719Y-80352470D01*
X196289966Y-80621844D02*
X195724280Y-80056158D01*
X196613215Y-80298595D02*
X196047529Y-80217783D01*
X196047529Y-79732910D02*
X196047529Y-80379407D01*
X194816971Y-84444839D02*
X194251285Y-83879154D01*
X194843908Y-84094653D01*
X194628409Y-83502030D01*
X195194094Y-84067715D01*
X195005532Y-83124906D02*
X195113282Y-83017157D01*
X195194094Y-82990219D01*
X195301844Y-82990219D01*
X195436531Y-83071032D01*
X195625093Y-83259593D01*
X195705905Y-83394280D01*
X195705905Y-83502030D01*
X195678967Y-83582842D01*
X195571218Y-83690592D01*
X195490406Y-83717529D01*
X195382656Y-83717529D01*
X195247969Y-83636717D01*
X195059407Y-83448155D01*
X194978595Y-83313468D01*
X194978595Y-83205719D01*
X195005532Y-83124906D01*
X196002216Y-83205719D02*
X196109966Y-83151844D01*
X196244653Y-83017157D01*
X196271590Y-82936345D01*
X196271590Y-82882470D01*
X196244653Y-82801658D01*
X196190778Y-82747783D01*
X196109966Y-82720845D01*
X196056091Y-82720845D01*
X195975279Y-82747783D01*
X195840592Y-82828595D01*
X195759780Y-82855532D01*
X195705905Y-82855532D01*
X195625093Y-82828595D01*
X195571218Y-82774720D01*
X195544280Y-82693908D01*
X195544280Y-82640033D01*
X195571218Y-82559221D01*
X195705905Y-82424534D01*
X195813654Y-82370659D01*
X196594839Y-82666971D02*
X196029154Y-82101285D01*
D11*
X195756125Y-78795685D02*
X195298189Y-78714873D01*
X195432876Y-79118934D02*
X194867190Y-78553248D01*
X195082690Y-78337749D01*
X195163502Y-78310812D01*
X195217377Y-78310812D01*
X195298189Y-78337749D01*
X195379001Y-78418561D01*
X195405938Y-78499374D01*
X195405938Y-78553248D01*
X195379001Y-78634061D01*
X195163502Y-78849560D01*
X195944687Y-78553248D02*
X196052436Y-78499374D01*
X196187123Y-78364687D01*
X196214061Y-78283874D01*
X196214061Y-78230000D01*
X196187123Y-78149187D01*
X196133248Y-78095312D01*
X196052436Y-78068375D01*
X195998561Y-78068375D01*
X195917749Y-78095312D01*
X195783062Y-78176125D01*
X195702250Y-78203062D01*
X195648375Y-78203062D01*
X195567563Y-78176125D01*
X195513688Y-78122250D01*
X195486751Y-78041438D01*
X195486751Y-77987563D01*
X195513688Y-77906751D01*
X195648375Y-77772064D01*
X195756125Y-77718189D01*
X195890812Y-77529627D02*
X196214061Y-77206378D01*
X196618122Y-77933688D02*
X196052436Y-77368003D01*
D10*
X202635972Y-83934467D02*
X203390219Y-84311590D01*
X203013096Y-83557343D01*
X204036717Y-83557343D02*
X204036717Y-83611218D01*
X203982842Y-83718967D01*
X203928967Y-83772842D01*
X203821218Y-83826717D01*
X203713468Y-83826717D01*
X203632656Y-83799780D01*
X203497969Y-83718967D01*
X203417157Y-83638155D01*
X203336345Y-83503468D01*
X203309407Y-83422656D01*
X203309407Y-83314906D01*
X203363282Y-83207157D01*
X203417157Y-83153282D01*
X203524906Y-83099407D01*
X203578781Y-83099407D01*
X204602402Y-82991658D02*
X204602402Y-83045532D01*
X204548528Y-83153282D01*
X204494653Y-83207157D01*
X204386903Y-83261032D01*
X204279154Y-83261032D01*
X204198341Y-83234094D01*
X204063654Y-83153282D01*
X203982842Y-83072470D01*
X203902030Y-82937783D01*
X203875093Y-82856971D01*
X203875093Y-82749221D01*
X203928967Y-82641471D01*
X203982842Y-82587597D01*
X204090592Y-82533722D01*
X204144467Y-82533722D01*
X203166971Y-81824839D02*
X202601285Y-81259154D01*
X203193908Y-81474653D01*
X202978409Y-80882030D01*
X203544094Y-81447715D01*
X203813468Y-81178341D02*
X203247783Y-80612656D01*
X204028967Y-80908967D02*
X204136717Y-80855093D01*
X204271404Y-80720406D01*
X204298341Y-80639593D01*
X204298341Y-80585719D01*
X204271404Y-80504906D01*
X204217529Y-80451032D01*
X204136717Y-80424094D01*
X204082842Y-80424094D01*
X204002030Y-80451032D01*
X203867343Y-80531844D01*
X203786531Y-80558781D01*
X203732656Y-80558781D01*
X203651844Y-80531844D01*
X203597969Y-80477969D01*
X203571032Y-80397157D01*
X203571032Y-80343282D01*
X203597969Y-80262470D01*
X203732656Y-80127783D01*
X203840406Y-80073908D01*
X204163654Y-79696784D02*
X204271404Y-79589035D01*
X204352216Y-79562097D01*
X204459966Y-79562097D01*
X204594653Y-79642910D01*
X204783215Y-79831471D01*
X204864027Y-79966158D01*
X204864027Y-80073908D01*
X204837089Y-80154720D01*
X204729340Y-80262470D01*
X204648528Y-80289407D01*
X204540778Y-80289407D01*
X204406091Y-80208595D01*
X204217529Y-80020033D01*
X204136717Y-79885346D01*
X204136717Y-79777597D01*
X204163654Y-79696784D01*
X202846158Y-78388155D02*
X202765346Y-78415093D01*
X202684534Y-78495905D01*
X202630659Y-78603654D01*
X202630659Y-78711404D01*
X202657597Y-78792216D01*
X202738409Y-78926903D01*
X202819221Y-79007715D01*
X202953908Y-79088528D01*
X203034720Y-79115465D01*
X203142470Y-79115465D01*
X203250219Y-79061590D01*
X203304094Y-79007715D01*
X203357969Y-78899966D01*
X203357969Y-78846091D01*
X203169407Y-78657529D01*
X203061658Y-78765279D01*
X203654280Y-78657529D02*
X203088595Y-78091844D01*
X203977529Y-78334280D01*
X203411844Y-77768595D01*
X204246903Y-78064906D02*
X203681218Y-77499221D01*
X203815905Y-77364534D01*
X203923654Y-77310659D01*
X204031404Y-77310659D01*
X204112216Y-77337597D01*
X204246903Y-77418409D01*
X204327715Y-77499221D01*
X204408528Y-77633908D01*
X204435465Y-77714720D01*
X204435465Y-77822470D01*
X204381590Y-77930219D01*
X204246903Y-78064906D01*
X187517142Y-83881904D02*
X187250476Y-83500952D01*
X187060000Y-83881904D02*
X187060000Y-83081904D01*
X187364761Y-83081904D01*
X187440952Y-83120000D01*
X187479047Y-83158095D01*
X187517142Y-83234285D01*
X187517142Y-83348571D01*
X187479047Y-83424761D01*
X187440952Y-83462857D01*
X187364761Y-83500952D01*
X187060000Y-83500952D01*
X187860000Y-83462857D02*
X188126666Y-83462857D01*
X188240952Y-83881904D02*
X187860000Y-83881904D01*
X187860000Y-83081904D01*
X188240952Y-83081904D01*
X188545714Y-83843809D02*
X188660000Y-83881904D01*
X188850476Y-83881904D01*
X188926666Y-83843809D01*
X188964761Y-83805714D01*
X189002857Y-83729523D01*
X189002857Y-83653333D01*
X188964761Y-83577142D01*
X188926666Y-83539047D01*
X188850476Y-83500952D01*
X188698095Y-83462857D01*
X188621904Y-83424761D01*
X188583809Y-83386666D01*
X188545714Y-83310476D01*
X188545714Y-83234285D01*
X188583809Y-83158095D01*
X188621904Y-83120000D01*
X188698095Y-83081904D01*
X188888571Y-83081904D01*
X189002857Y-83120000D01*
X189345714Y-83462857D02*
X189612380Y-83462857D01*
X189726666Y-83881904D02*
X189345714Y-83881904D01*
X189345714Y-83081904D01*
X189726666Y-83081904D01*
X189955238Y-83081904D02*
X190412380Y-83081904D01*
X190183809Y-83881904D02*
X190183809Y-83081904D01*
X191288571Y-83881904D02*
X191288571Y-83081904D01*
X191555238Y-83653333D01*
X191821904Y-83081904D01*
X191821904Y-83881904D01*
X192660000Y-83805714D02*
X192621904Y-83843809D01*
X192507619Y-83881904D01*
X192431428Y-83881904D01*
X192317142Y-83843809D01*
X192240952Y-83767619D01*
X192202857Y-83691428D01*
X192164761Y-83539047D01*
X192164761Y-83424761D01*
X192202857Y-83272380D01*
X192240952Y-83196190D01*
X192317142Y-83120000D01*
X192431428Y-83081904D01*
X192507619Y-83081904D01*
X192621904Y-83120000D01*
X192660000Y-83158095D01*
X193002857Y-83081904D02*
X193002857Y-83729523D01*
X193040952Y-83805714D01*
X193079047Y-83843809D01*
X193155238Y-83881904D01*
X193307619Y-83881904D01*
X193383809Y-83843809D01*
X193421904Y-83805714D01*
X193460000Y-83729523D01*
X193460000Y-83081904D01*
D11*
X299712475Y-178850559D02*
X299921995Y-179632499D01*
X299900648Y-179736817D01*
X299866976Y-179795138D01*
X299787308Y-179865784D01*
X299649318Y-179902758D01*
X299545001Y-179881411D01*
X299872696Y-179448513D02*
X299793028Y-179519159D01*
X299609042Y-179568458D01*
X299504724Y-179547111D01*
X299446403Y-179513439D01*
X299375757Y-179433771D01*
X299301809Y-179157792D01*
X299323156Y-179053474D01*
X299356828Y-178995153D01*
X299436496Y-178924507D01*
X299620482Y-178875208D01*
X299724799Y-178896555D01*
X300344985Y-179371262D02*
X300172439Y-178727312D01*
X300086166Y-178405337D02*
X300052494Y-178463658D01*
X300110816Y-178497329D01*
X300144487Y-178439008D01*
X300086166Y-178405337D01*
X300110816Y-178497329D01*
X300494415Y-178641039D02*
X300862386Y-178542441D01*
X300546131Y-178282089D02*
X300767976Y-179110026D01*
X300838622Y-179189694D01*
X300942939Y-179211041D01*
X301034932Y-179186392D01*
X301356908Y-179100119D02*
X301098089Y-178134193D01*
X301770876Y-178989196D02*
X301635304Y-178483235D01*
X301564658Y-178403567D01*
X301460340Y-178382220D01*
X301322351Y-178419194D01*
X301242683Y-178489840D01*
X301209011Y-178548161D01*
X302472263Y-178111076D02*
X302644809Y-178755027D01*
X302058294Y-178221998D02*
X302193866Y-178727960D01*
X302264512Y-178807628D01*
X302368830Y-178828975D01*
X302506819Y-178792001D01*
X302586487Y-178721355D01*
X302620159Y-178663034D01*
X303104773Y-178631779D02*
X302845954Y-177665854D01*
X302944552Y-178033825D02*
X303024220Y-177963179D01*
X303208206Y-177913881D01*
X303312524Y-177935228D01*
X303370845Y-177968899D01*
X303441491Y-178048568D01*
X303515439Y-178324546D01*
X303494092Y-178428864D01*
X303460420Y-178487185D01*
X303380752Y-178557831D01*
X303196766Y-178607130D01*
X303092449Y-178585783D01*
X303954057Y-178305617D02*
X304012378Y-178339289D01*
X303978706Y-178397610D01*
X303920385Y-178363938D01*
X303954057Y-178305617D01*
X303978706Y-178397610D01*
X304840314Y-178117444D02*
X304760646Y-178188090D01*
X304576660Y-178237388D01*
X304472343Y-178216041D01*
X304414021Y-178182370D01*
X304343376Y-178102701D01*
X304269427Y-177826723D01*
X304290774Y-177722405D01*
X304324446Y-177664084D01*
X304404114Y-177593438D01*
X304588100Y-177544139D01*
X304692418Y-177565486D01*
X305404597Y-178015544D02*
X305300279Y-177994197D01*
X305241958Y-177960525D01*
X305171312Y-177880857D01*
X305097364Y-177604878D01*
X305118711Y-177500560D01*
X305152382Y-177442239D01*
X305232051Y-177371593D01*
X305370040Y-177334619D01*
X305474358Y-177355966D01*
X305532679Y-177389638D01*
X305603325Y-177469306D01*
X305677273Y-177745285D01*
X305655926Y-177849602D01*
X305622254Y-177907924D01*
X305542586Y-177978569D01*
X305404597Y-178015544D01*
X306140540Y-177818348D02*
X305967994Y-177174398D01*
X305992644Y-177266390D02*
X306026315Y-177208069D01*
X306105984Y-177137423D01*
X306243973Y-177100449D01*
X306348291Y-177121796D01*
X306418937Y-177201465D01*
X306554508Y-177707426D01*
X306418937Y-177201465D02*
X306440284Y-177097147D01*
X306519952Y-177026501D01*
X306657941Y-176989527D01*
X306762259Y-177010874D01*
X306832905Y-177090542D01*
X306968477Y-177596503D01*
X307847245Y-176276463D02*
X307352076Y-177740213D01*
X308440364Y-177202112D02*
X308181545Y-176236186D01*
X308688391Y-176839860D01*
X308825495Y-176063640D01*
X309084314Y-177029566D01*
X309958247Y-176795397D02*
X309822675Y-176289436D01*
X309752029Y-176209767D01*
X309647712Y-176188420D01*
X309463726Y-176237719D01*
X309384058Y-176308365D01*
X309945922Y-176749400D02*
X309866254Y-176820046D01*
X309636272Y-176881670D01*
X309531954Y-176860323D01*
X309461308Y-176780654D01*
X309436659Y-176688661D01*
X309458006Y-176584344D01*
X309537674Y-176513698D01*
X309767656Y-176452074D01*
X309847325Y-176381428D01*
X310556201Y-176635175D02*
X310451883Y-176613828D01*
X310381238Y-176534160D01*
X310159393Y-175706224D01*
X311279820Y-176391983D02*
X311200152Y-176462629D01*
X311016166Y-176511928D01*
X310911848Y-176490581D01*
X310841202Y-176410913D01*
X310742605Y-176042941D01*
X310763952Y-175938624D01*
X310843620Y-175867978D01*
X311027606Y-175818679D01*
X311131923Y-175840026D01*
X311202569Y-175919694D01*
X311227219Y-176011687D01*
X310791903Y-176226927D01*
X311487570Y-175695432D02*
X311890099Y-176277759D01*
X311947535Y-175572184D01*
X312626042Y-176080563D02*
X312521725Y-176059216D01*
X312463403Y-176025544D01*
X312392757Y-175945876D01*
X312318809Y-175669897D01*
X312340156Y-175565580D01*
X312373828Y-175507258D01*
X312453496Y-175436613D01*
X312591486Y-175399638D01*
X312695803Y-175420985D01*
X312754124Y-175454657D01*
X312824770Y-175534325D01*
X312898719Y-175810304D01*
X312877372Y-175914622D01*
X312843700Y-175972943D01*
X312764032Y-176043589D01*
X312626042Y-176080563D01*
X313499975Y-175846393D02*
X313395657Y-175825046D01*
X313325012Y-175745378D01*
X313103167Y-174917442D01*
X313557411Y-175140819D02*
X313925383Y-175042222D01*
X313609128Y-174781870D02*
X313830973Y-175609806D01*
X313901619Y-175689475D01*
X314005936Y-175710822D01*
X314097929Y-175686172D01*
X314419904Y-175599899D02*
X314247358Y-174955949D01*
X314161085Y-174633973D02*
X314127414Y-174692295D01*
X314185735Y-174725966D01*
X314219407Y-174667645D01*
X314161085Y-174633973D01*
X314185735Y-174725966D01*
X315298672Y-174279859D02*
X314803503Y-175743608D01*
X315833470Y-175171836D02*
X315983784Y-175180859D01*
X316213767Y-175119235D01*
X316293435Y-175048589D01*
X316327107Y-174990268D01*
X316348454Y-174885950D01*
X316323804Y-174793958D01*
X316253158Y-174714289D01*
X316194837Y-174680618D01*
X316090520Y-174659271D01*
X315894209Y-174662573D01*
X315789891Y-174641226D01*
X315731570Y-174607554D01*
X315660924Y-174527886D01*
X315636275Y-174435893D01*
X315657622Y-174331575D01*
X315691294Y-174273254D01*
X315770962Y-174202608D01*
X316000944Y-174140985D01*
X316151258Y-174150007D01*
X317053143Y-174204141D02*
X317225689Y-174848091D01*
X316639175Y-174315063D02*
X316774747Y-174821024D01*
X316845393Y-174900693D01*
X316949710Y-174922040D01*
X317087700Y-174885066D01*
X317167368Y-174814420D01*
X317201040Y-174756099D01*
X317513108Y-174080894D02*
X317771927Y-175046820D01*
X317525432Y-174126890D02*
X317605101Y-174056244D01*
X317789086Y-174006945D01*
X317893404Y-174028292D01*
X317951725Y-174061964D01*
X318022371Y-174141632D01*
X318096319Y-174417611D01*
X318074972Y-174521929D01*
X318041301Y-174580250D01*
X317961632Y-174650896D01*
X317777647Y-174700195D01*
X317673329Y-174678848D01*
X318915234Y-174346080D02*
X318835565Y-174416726D01*
X318651579Y-174466025D01*
X318547262Y-174444678D01*
X318476616Y-174365010D01*
X318378018Y-173997038D01*
X318399365Y-173892721D01*
X318479033Y-173822075D01*
X318663019Y-173772776D01*
X318767337Y-173794123D01*
X318837983Y-173873791D01*
X318862632Y-173965784D01*
X318427317Y-174181024D01*
X319387523Y-174268830D02*
X319214977Y-173624879D01*
X319264276Y-173808865D02*
X319285623Y-173704547D01*
X319319295Y-173646226D01*
X319398963Y-173575580D01*
X319490956Y-173550931D01*
X320445442Y-173985361D02*
X319985477Y-174108608D01*
X319726658Y-173142683D01*
X320502878Y-173279787D02*
X320905406Y-173862114D01*
X320962843Y-173156540D02*
X320905406Y-173862114D01*
X320875037Y-174116746D01*
X320841365Y-174175067D01*
X320761697Y-174245713D01*
X321503361Y-173701893D02*
X321330814Y-173057942D01*
X321380113Y-173241928D02*
X321401460Y-173137610D01*
X321435132Y-173079289D01*
X321514800Y-173008643D01*
X321606793Y-172983994D01*
X322515283Y-173430749D02*
X322379711Y-172924788D01*
X322309065Y-172845120D01*
X322204747Y-172823773D01*
X322020761Y-172873072D01*
X321941093Y-172943717D01*
X322502958Y-173384753D02*
X322423290Y-173455398D01*
X322193308Y-173517022D01*
X322088990Y-173495675D01*
X322018344Y-173416007D01*
X321993695Y-173324014D01*
X322015042Y-173219696D01*
X322094710Y-173149050D01*
X322324692Y-173087427D01*
X322404360Y-173016781D01*
X323446652Y-172491005D02*
X323849180Y-173073332D01*
X323906617Y-172367758D01*
X324802781Y-172768517D02*
X324723113Y-172839163D01*
X324539127Y-172888462D01*
X324434810Y-172867115D01*
X324364164Y-172787446D01*
X324265566Y-172419475D01*
X324286913Y-172315157D01*
X324366581Y-172244511D01*
X324550567Y-172195212D01*
X324654885Y-172216559D01*
X324725531Y-172296227D01*
X324750180Y-172388220D01*
X324314865Y-172603460D01*
X325275071Y-172691266D02*
X325102525Y-172047316D01*
X325151824Y-172231301D02*
X325173171Y-172126984D01*
X325206843Y-172068663D01*
X325286511Y-171998017D01*
X325378504Y-171973367D01*
X325848376Y-172439052D02*
X325906697Y-172472724D01*
X325873025Y-172531045D01*
X325814704Y-172497373D01*
X325848376Y-172439052D01*
X325873025Y-172531045D01*
X326994100Y-171195377D02*
X327086093Y-171170728D01*
X327190411Y-171192075D01*
X327248732Y-171225747D01*
X327319378Y-171305415D01*
X327414673Y-171477076D01*
X327476297Y-171707059D01*
X327479599Y-171903369D01*
X327458252Y-172007687D01*
X327424580Y-172066008D01*
X327344912Y-172136654D01*
X327252919Y-172161303D01*
X327148601Y-172139956D01*
X327090280Y-172106284D01*
X327019634Y-172026616D01*
X326924339Y-171854955D01*
X326862715Y-171624973D01*
X326859413Y-171428662D01*
X326880760Y-171324345D01*
X326914432Y-171266023D01*
X326994100Y-171195377D01*
X327964213Y-171872115D02*
X328022534Y-171905787D01*
X327988862Y-171964108D01*
X327930541Y-171930436D01*
X327964213Y-171872115D01*
X327988862Y-171964108D01*
X328649973Y-170751688D02*
X328190008Y-170874935D01*
X328267259Y-171347224D01*
X328300931Y-171288903D01*
X328380599Y-171218257D01*
X328610581Y-171156634D01*
X328714899Y-171177981D01*
X328773220Y-171211652D01*
X328843866Y-171291321D01*
X328905489Y-171521303D01*
X328884142Y-171625621D01*
X328850471Y-171683942D01*
X328770802Y-171754588D01*
X328540820Y-171816211D01*
X328436502Y-171794864D01*
X328378181Y-171761192D01*
X330479277Y-171691194D02*
X330420955Y-171657523D01*
X330291988Y-171544183D01*
X330221342Y-171464514D01*
X330138372Y-171338850D01*
X330030752Y-171121192D01*
X329981453Y-170937206D01*
X329965826Y-170694899D01*
X329974848Y-170544585D01*
X329996195Y-170440267D01*
X330051214Y-170277629D01*
X330084886Y-170219307D01*
X331104298Y-171080031D02*
X331024629Y-171150677D01*
X330840643Y-171199975D01*
X330736326Y-171178628D01*
X330665680Y-171098960D01*
X330567082Y-170730988D01*
X330588429Y-170626671D01*
X330668097Y-170556025D01*
X330852083Y-170506726D01*
X330956401Y-170528073D01*
X331027047Y-170607741D01*
X331051696Y-170699734D01*
X330616381Y-170914974D01*
X331312048Y-170383479D02*
X331714576Y-170965806D01*
X331772013Y-170260232D01*
X332726499Y-170694662D02*
X332590927Y-170188701D01*
X332520281Y-170109033D01*
X332415963Y-170087686D01*
X332231977Y-170136984D01*
X332152309Y-170207630D01*
X332714174Y-170648666D02*
X332634506Y-170719311D01*
X332404523Y-170780935D01*
X332300206Y-170759588D01*
X332229560Y-170679920D01*
X332204910Y-170587927D01*
X332226257Y-170483609D01*
X332305926Y-170412963D01*
X332535908Y-170351340D01*
X332615576Y-170280694D01*
X333324453Y-170534441D02*
X333220135Y-170513094D01*
X333149489Y-170433425D01*
X332927644Y-169605489D01*
X333933847Y-169680970D02*
X334106393Y-170324921D01*
X333519878Y-169791892D02*
X333655450Y-170297854D01*
X333726096Y-170377522D01*
X333830414Y-170398869D01*
X333968403Y-170361895D01*
X334048072Y-170291249D01*
X334081743Y-170232928D01*
X334980326Y-170090751D02*
X334844754Y-169584790D01*
X334774108Y-169505122D01*
X334669790Y-169483775D01*
X334485804Y-169533073D01*
X334406136Y-169603719D01*
X334968001Y-170044754D02*
X334888333Y-170115400D01*
X334658350Y-170177024D01*
X334554033Y-170155677D01*
X334483387Y-170076009D01*
X334458737Y-169984016D01*
X334480084Y-169879698D01*
X334559753Y-169809052D01*
X334789735Y-169747429D01*
X334869403Y-169676783D01*
X335129755Y-169360527D02*
X335497727Y-169261930D01*
X335181471Y-169001578D02*
X335403316Y-169829514D01*
X335473962Y-169909183D01*
X335578280Y-169930530D01*
X335670273Y-169905880D01*
X335992248Y-169819607D02*
X335819702Y-169175657D01*
X335733429Y-168853681D02*
X335699757Y-168912003D01*
X335758078Y-168945674D01*
X335791750Y-168887353D01*
X335733429Y-168853681D01*
X335758078Y-168945674D01*
X336590202Y-169659386D02*
X336485884Y-169638039D01*
X336427563Y-169604367D01*
X336356917Y-169524699D01*
X336282969Y-169248720D01*
X336304316Y-169144402D01*
X336337988Y-169086081D01*
X336417656Y-169015435D01*
X336555645Y-168978461D01*
X336659963Y-168999808D01*
X336718284Y-169033480D01*
X336788930Y-169113148D01*
X336862878Y-169389127D01*
X336841531Y-169493445D01*
X336807860Y-169551766D01*
X336728191Y-169622412D01*
X336590202Y-169659386D01*
X337153599Y-168818240D02*
X337326145Y-169462190D01*
X337178249Y-168910233D02*
X337211921Y-168851912D01*
X337291589Y-168781266D01*
X337429578Y-168744292D01*
X337533896Y-168765639D01*
X337604542Y-168845307D01*
X337740114Y-169351268D01*
X338206683Y-169620642D02*
X338240355Y-169562321D01*
X338295374Y-169399682D01*
X338316721Y-169295364D01*
X338325743Y-169145050D01*
X338310116Y-168902743D01*
X338260817Y-168718757D01*
X338153197Y-168501100D01*
X338070226Y-168375435D01*
X337999581Y-168295767D01*
X337870613Y-168182427D01*
X337812292Y-168148755D01*
X310534727Y-177658951D02*
X310937256Y-178241278D01*
X310994692Y-177535704D02*
X310937256Y-178241278D01*
X310906886Y-178495910D01*
X310873215Y-178554231D01*
X310793546Y-178624877D01*
X311673199Y-178044083D02*
X311568882Y-178022736D01*
X311510560Y-177989064D01*
X311439914Y-177909396D01*
X311365966Y-177633417D01*
X311387313Y-177529099D01*
X311420985Y-177470778D01*
X311500653Y-177400132D01*
X311638643Y-177363158D01*
X311742960Y-177384505D01*
X311801281Y-177418177D01*
X311871927Y-177497845D01*
X311945876Y-177773824D01*
X311924529Y-177878141D01*
X311890857Y-177936463D01*
X311811189Y-178007108D01*
X311673199Y-178044083D01*
X312650565Y-177092014D02*
X312823111Y-177735965D01*
X312236597Y-177202937D02*
X312372169Y-177708898D01*
X312442814Y-177788566D01*
X312547132Y-177809913D01*
X312685121Y-177772939D01*
X312764790Y-177702293D01*
X312798461Y-177643972D01*
X312972540Y-177005741D02*
X313340512Y-176907143D01*
X313024256Y-176646792D02*
X313246101Y-177474728D01*
X313316747Y-177554396D01*
X313421065Y-177575743D01*
X313513058Y-177551094D01*
X314076455Y-176709948D02*
X314249001Y-177353898D01*
X313662487Y-176820870D02*
X313798059Y-177326832D01*
X313868705Y-177406500D01*
X313973023Y-177427847D01*
X314111012Y-177390873D01*
X314190680Y-177320227D01*
X314224352Y-177261906D01*
X314684317Y-177138658D02*
X314742638Y-177172330D01*
X314708966Y-177230651D01*
X314650645Y-177196980D01*
X314684317Y-177138658D01*
X314708966Y-177230651D01*
X315168931Y-177107404D02*
X314910112Y-176141478D01*
X315008709Y-176509450D02*
X315088378Y-176438804D01*
X315272364Y-176389505D01*
X315376681Y-176410852D01*
X315435002Y-176444524D01*
X315505648Y-176524192D01*
X315579597Y-176800171D01*
X315558250Y-176904489D01*
X315524578Y-176962810D01*
X315444910Y-177033456D01*
X315260924Y-177082755D01*
X315156606Y-177061408D01*
X316398511Y-176728640D02*
X316318842Y-176799286D01*
X316134857Y-176848585D01*
X316030539Y-176827238D01*
X315959893Y-176747570D01*
X315861295Y-176379598D01*
X315882642Y-176275280D01*
X315962311Y-176204635D01*
X316146296Y-176155336D01*
X316250614Y-176176683D01*
X316321260Y-176256351D01*
X316345909Y-176348344D01*
X315910594Y-176563584D01*
X317289603Y-175454597D02*
X316794434Y-176918346D01*
X317872815Y-175791314D02*
X317768497Y-175769967D01*
X317710176Y-175736295D01*
X317639530Y-175656627D01*
X317627206Y-175610631D01*
X317648553Y-175506313D01*
X317682224Y-175447992D01*
X317761893Y-175377346D01*
X317945879Y-175328047D01*
X318050196Y-175349394D01*
X318108517Y-175383066D01*
X318179163Y-175462734D01*
X318191488Y-175508731D01*
X318170141Y-175613048D01*
X318136469Y-175671369D01*
X318056801Y-175742015D01*
X317872815Y-175791314D01*
X317793147Y-175861960D01*
X317759475Y-175920281D01*
X317738128Y-176024599D01*
X317787427Y-176208585D01*
X317858073Y-176288253D01*
X317916394Y-176321925D01*
X318020712Y-176343272D01*
X318204698Y-176293973D01*
X318284366Y-176223327D01*
X318318038Y-176165006D01*
X318339385Y-176060688D01*
X318290086Y-175876702D01*
X318219440Y-175797034D01*
X318161119Y-175763362D01*
X318056801Y-175742015D01*
X319329960Y-175893862D02*
X319296288Y-175952183D01*
X319170623Y-176035154D01*
X319078630Y-176059803D01*
X318928316Y-176050781D01*
X318811674Y-175983437D01*
X318741028Y-175903769D01*
X318645733Y-175732108D01*
X318608759Y-175594119D01*
X318605456Y-175397808D01*
X318626803Y-175293490D01*
X318694147Y-175176848D01*
X318819811Y-175093877D01*
X318911804Y-175069228D01*
X319062119Y-175078250D01*
X319120440Y-175111922D01*
X319768578Y-175874932D02*
X319509758Y-174909007D01*
X319877730Y-174810409D01*
X319982048Y-174831756D01*
X320040369Y-174865428D01*
X320111015Y-174945096D01*
X320147989Y-175083085D01*
X320126642Y-175187403D01*
X320092970Y-175245724D01*
X320013302Y-175316370D01*
X319645330Y-175414968D01*
X320889653Y-174539265D02*
X320705667Y-174588564D01*
X320625998Y-174659210D01*
X320592327Y-174717531D01*
X320537308Y-174880170D01*
X320540610Y-175076481D01*
X320639208Y-175444452D01*
X320709854Y-175524121D01*
X320768175Y-175557792D01*
X320872493Y-175579139D01*
X321056479Y-175529840D01*
X321136147Y-175459195D01*
X321169819Y-175400873D01*
X321191166Y-175296556D01*
X321129542Y-175066573D01*
X321058896Y-174986905D01*
X321000575Y-174953233D01*
X320896257Y-174931886D01*
X320712271Y-174981185D01*
X320632603Y-175051831D01*
X320598931Y-175110152D01*
X320577584Y-175214470D01*
X322181741Y-175129730D02*
X322148069Y-175188051D01*
X322022404Y-175271021D01*
X321930412Y-175295671D01*
X321780097Y-175286649D01*
X321663455Y-175219305D01*
X321592809Y-175139637D01*
X321497514Y-174967976D01*
X321460540Y-174829986D01*
X321457237Y-174633676D01*
X321478584Y-174529358D01*
X321545928Y-174412716D01*
X321671592Y-174329745D01*
X321763585Y-174305096D01*
X321913900Y-174314118D01*
X321972221Y-174347790D01*
X322620359Y-175110800D02*
X322361539Y-174144874D01*
X323034327Y-174999878D02*
X322898755Y-174493916D01*
X322828109Y-174414248D01*
X322723791Y-174392901D01*
X322585802Y-174429875D01*
X322506134Y-174500521D01*
X322472462Y-174558842D01*
X323435970Y-174842959D02*
X323540288Y-174864306D01*
X323724274Y-174815007D01*
X323803942Y-174744361D01*
X323825289Y-174640043D01*
X323812964Y-174594047D01*
X323742318Y-174514379D01*
X323638001Y-174493032D01*
X323500011Y-174530006D01*
X323395694Y-174508659D01*
X323325048Y-174428991D01*
X323312723Y-174382994D01*
X323334070Y-174278676D01*
X323413738Y-174208030D01*
X323551728Y-174171056D01*
X323656045Y-174192403D01*
X324217910Y-174633439D02*
X324322228Y-174654786D01*
X324506214Y-174605487D01*
X324585882Y-174534841D01*
X324607229Y-174430523D01*
X324594904Y-174384527D01*
X324524258Y-174304858D01*
X324419941Y-174283511D01*
X324281951Y-174320486D01*
X324177634Y-174299139D01*
X324106988Y-174219470D01*
X324094663Y-174173474D01*
X324116010Y-174069156D01*
X324195678Y-173998510D01*
X324333668Y-173961536D01*
X324437985Y-173982883D01*
X324983338Y-173442365D02*
X325075331Y-173417716D01*
X325179649Y-173439063D01*
X325237970Y-173472735D01*
X325308616Y-173552403D01*
X325403911Y-173724064D01*
X325465535Y-173954046D01*
X325468837Y-174150357D01*
X325447490Y-174254675D01*
X325413818Y-174312996D01*
X325334150Y-174383642D01*
X325242157Y-174408291D01*
X325137840Y-174386944D01*
X325079518Y-174353272D01*
X325008872Y-174273604D01*
X324913577Y-174101943D01*
X324851954Y-173871961D01*
X324848651Y-173675650D01*
X324869998Y-173571333D01*
X324903670Y-173513011D01*
X324983338Y-173442365D01*
X325713562Y-173591795D02*
X326116090Y-174174122D01*
X326173526Y-173468547D02*
X326116090Y-174174122D01*
X326085721Y-174428753D01*
X326052049Y-174487075D01*
X325972381Y-174557720D01*
X326639211Y-172998676D02*
X326731204Y-172974026D01*
X326835522Y-172995373D01*
X326893843Y-173029045D01*
X326964489Y-173108713D01*
X327059784Y-173280374D01*
X327121408Y-173510357D01*
X327124710Y-173706667D01*
X327103363Y-173810985D01*
X327069691Y-173869306D01*
X326990023Y-173939952D01*
X326898030Y-173964601D01*
X326793712Y-173943254D01*
X326735391Y-173909583D01*
X326664745Y-173829914D01*
X326569450Y-173658253D01*
X326507826Y-173428271D01*
X326504524Y-173231960D01*
X326525871Y-173127643D01*
X326559543Y-173069322D01*
X326639211Y-172998676D01*
D12*
X175594000Y-92010666D02*
X175594000Y-91310666D01*
X175594000Y-91577333D02*
X175660666Y-91544000D01*
X175794000Y-91544000D01*
X175860666Y-91577333D01*
X175894000Y-91610666D01*
X175927333Y-91677333D01*
X175927333Y-91877333D01*
X175894000Y-91944000D01*
X175860666Y-91977333D01*
X175794000Y-92010666D01*
X175660666Y-92010666D01*
X175594000Y-91977333D01*
X176160666Y-91544000D02*
X176327333Y-92010666D01*
X176494000Y-91544000D02*
X176327333Y-92010666D01*
X176260666Y-92177333D01*
X176227333Y-92210666D01*
X176160666Y-92244000D01*
X177294000Y-92010666D02*
X177294000Y-91310666D01*
X177460666Y-91310666D01*
X177560666Y-91344000D01*
X177627333Y-91410666D01*
X177660666Y-91477333D01*
X177694000Y-91610666D01*
X177694000Y-91710666D01*
X177660666Y-91844000D01*
X177627333Y-91910666D01*
X177560666Y-91977333D01*
X177460666Y-92010666D01*
X177294000Y-92010666D01*
X178094000Y-92010666D02*
X178027333Y-91977333D01*
X177994000Y-91944000D01*
X177960666Y-91877333D01*
X177960666Y-91677333D01*
X177994000Y-91610666D01*
X178027333Y-91577333D01*
X178094000Y-91544000D01*
X178194000Y-91544000D01*
X178260666Y-91577333D01*
X178294000Y-91610666D01*
X178327333Y-91677333D01*
X178327333Y-91877333D01*
X178294000Y-91944000D01*
X178260666Y-91977333D01*
X178194000Y-92010666D01*
X178094000Y-92010666D01*
X178627333Y-92010666D02*
X178627333Y-91544000D01*
X178627333Y-91610666D02*
X178660666Y-91577333D01*
X178727333Y-91544000D01*
X178827333Y-91544000D01*
X178894000Y-91577333D01*
X178927333Y-91644000D01*
X178927333Y-92010666D01*
X178927333Y-91644000D02*
X178960666Y-91577333D01*
X179027333Y-91544000D01*
X179127333Y-91544000D01*
X179194000Y-91577333D01*
X179227333Y-91644000D01*
X179227333Y-92010666D01*
X179860666Y-92010666D02*
X179860666Y-91644000D01*
X179827333Y-91577333D01*
X179760666Y-91544000D01*
X179627333Y-91544000D01*
X179560666Y-91577333D01*
X179860666Y-91977333D02*
X179794000Y-92010666D01*
X179627333Y-92010666D01*
X179560666Y-91977333D01*
X179527333Y-91910666D01*
X179527333Y-91844000D01*
X179560666Y-91777333D01*
X179627333Y-91744000D01*
X179794000Y-91744000D01*
X179860666Y-91710666D01*
X180194000Y-91544000D02*
X180194000Y-92010666D01*
X180194000Y-91610666D02*
X180227333Y-91577333D01*
X180294000Y-91544000D01*
X180394000Y-91544000D01*
X180460666Y-91577333D01*
X180494000Y-91644000D01*
X180494000Y-92010666D01*
X180827333Y-92010666D02*
X180827333Y-91544000D01*
X180827333Y-91310666D02*
X180794000Y-91344000D01*
X180827333Y-91377333D01*
X180860666Y-91344000D01*
X180827333Y-91310666D01*
X180827333Y-91377333D01*
X181460666Y-91977333D02*
X181394000Y-92010666D01*
X181260666Y-92010666D01*
X181194000Y-91977333D01*
X181160666Y-91944000D01*
X181127333Y-91877333D01*
X181127333Y-91677333D01*
X181160666Y-91610666D01*
X181194000Y-91577333D01*
X181260666Y-91544000D01*
X181394000Y-91544000D01*
X181460666Y-91577333D01*
X182694000Y-91944000D02*
X182660666Y-91977333D01*
X182560666Y-92010666D01*
X182494000Y-92010666D01*
X182394000Y-91977333D01*
X182327333Y-91910666D01*
X182294000Y-91844000D01*
X182260666Y-91710666D01*
X182260666Y-91610666D01*
X182294000Y-91477333D01*
X182327333Y-91410666D01*
X182394000Y-91344000D01*
X182494000Y-91310666D01*
X182560666Y-91310666D01*
X182660666Y-91344000D01*
X182694000Y-91377333D01*
X183294000Y-92010666D02*
X183294000Y-91644000D01*
X183260666Y-91577333D01*
X183194000Y-91544000D01*
X183060666Y-91544000D01*
X182994000Y-91577333D01*
X183294000Y-91977333D02*
X183227333Y-92010666D01*
X183060666Y-92010666D01*
X182994000Y-91977333D01*
X182960666Y-91910666D01*
X182960666Y-91844000D01*
X182994000Y-91777333D01*
X183060666Y-91744000D01*
X183227333Y-91744000D01*
X183294000Y-91710666D01*
X183727333Y-92010666D02*
X183660666Y-91977333D01*
X183627333Y-91910666D01*
X183627333Y-91310666D01*
X184094000Y-92010666D02*
X184027333Y-91977333D01*
X183994000Y-91910666D01*
X183994000Y-91310666D01*
X184627333Y-91977333D02*
X184560666Y-92010666D01*
X184427333Y-92010666D01*
X184360666Y-91977333D01*
X184327333Y-91910666D01*
X184327333Y-91644000D01*
X184360666Y-91577333D01*
X184427333Y-91544000D01*
X184560666Y-91544000D01*
X184627333Y-91577333D01*
X184660666Y-91644000D01*
X184660666Y-91710666D01*
X184327333Y-91777333D01*
X184960666Y-91544000D02*
X184960666Y-92144000D01*
X184927333Y-92210666D01*
X184860666Y-92244000D01*
X184827333Y-92244000D01*
X184960666Y-91310666D02*
X184927333Y-91344000D01*
X184960666Y-91377333D01*
X184994000Y-91344000D01*
X184960666Y-91310666D01*
X184960666Y-91377333D01*
X185594000Y-92010666D02*
X185594000Y-91644000D01*
X185560666Y-91577333D01*
X185494000Y-91544000D01*
X185360666Y-91544000D01*
X185294000Y-91577333D01*
X185594000Y-91977333D02*
X185527333Y-92010666D01*
X185360666Y-92010666D01*
X185294000Y-91977333D01*
X185260666Y-91910666D01*
X185260666Y-91844000D01*
X185294000Y-91777333D01*
X185360666Y-91744000D01*
X185527333Y-91744000D01*
X185594000Y-91710666D01*
D13*
G04 #@! TO.C,Y1*
X229038000Y-85195000D02*
X229038000Y-85995000D01*
X226638000Y-85195000D02*
X228638000Y-85195000D01*
X226638000Y-85995000D02*
X226638000Y-85195000D01*
X226638000Y-88795000D02*
X226638000Y-87795000D01*
X228638000Y-88795000D02*
X226638000Y-88795000D01*
X229038000Y-87795000D02*
X229038000Y-88795000D01*
X229038000Y-87795000D02*
X229438000Y-87795000D01*
X226638000Y-88995000D02*
X228638000Y-88995000D01*
X228638000Y-85195000D02*
X229038000Y-85195000D01*
X228638000Y-88795000D02*
X229038000Y-88795000D01*
X228638000Y-88995000D02*
X229038000Y-88995000D01*
G04 #@! TO.C,R3*
X231520000Y-85811379D02*
X231520000Y-86146621D01*
X230760000Y-85811379D02*
X230760000Y-86146621D01*
G04 #@! TO.C,U2*
X217540000Y-83906000D02*
X219340000Y-83906000D01*
X219340000Y-80686000D02*
X216890000Y-80686000D01*
G04 #@! TO.C,C2*
X237719239Y-78686080D02*
X238383920Y-79350761D01*
X239156080Y-77249239D02*
X239820761Y-77913920D01*
X238383920Y-79350761D02*
X239820761Y-77913920D01*
X239156080Y-77249239D02*
X237719239Y-78686080D01*
G04 #@! TO.C,C3*
X243546080Y-81779239D02*
X242109239Y-83216080D01*
X242773920Y-83880761D02*
X244210761Y-82443920D01*
X243546080Y-81779239D02*
X244210761Y-82443920D01*
X242109239Y-83216080D02*
X242773920Y-83880761D01*
G04 #@! TO.C,C4*
X239175761Y-90228420D02*
X238511080Y-89563739D01*
X237738920Y-91665261D02*
X237074239Y-91000580D01*
X238511080Y-89563739D02*
X237074239Y-91000580D01*
X237738920Y-91665261D02*
X239175761Y-90228420D01*
G04 #@! TO.C,C5*
X231140000Y-82004000D02*
X233172000Y-82004000D01*
X233172000Y-81064000D02*
X231140000Y-81064000D01*
X231140000Y-82004000D02*
X231140000Y-81064000D01*
X233172000Y-82004000D02*
X233172000Y-81064000D01*
G04 #@! TO.C,J2*
X202244000Y-84642000D02*
X199644000Y-84642000D01*
X202244000Y-84642000D02*
X202244000Y-76902000D01*
X202244000Y-76902000D02*
X197044000Y-76902000D01*
X197044000Y-82042000D02*
X197044000Y-76902000D01*
X199644000Y-82042000D02*
X197044000Y-82042000D01*
X199644000Y-84642000D02*
X199644000Y-82042000D01*
X197044000Y-84642000D02*
X197044000Y-83312000D01*
X198374000Y-84642000D02*
X197044000Y-84642000D01*
G04 #@! TO.C,R1*
X232323621Y-80644000D02*
X231988379Y-80644000D01*
X232323621Y-79884000D02*
X231988379Y-79884000D01*
G04 #@! TO.C,R2*
X232323621Y-79628000D02*
X231988379Y-79628000D01*
X232323621Y-78868000D02*
X231988379Y-78868000D01*
G04 #@! TO.C,R4*
X243039825Y-86787227D02*
X242802773Y-86550175D01*
X243577227Y-86249825D02*
X243340175Y-86012773D01*
G04 #@! TO.C,R5*
X215107621Y-84910000D02*
X214772379Y-84910000D01*
X215107621Y-84150000D02*
X214772379Y-84150000D01*
G04 #@! TO.C,R6*
X204782379Y-84920000D02*
X205117621Y-84920000D01*
X204782379Y-84160000D02*
X205117621Y-84160000D01*
G04 #@! TO.C,U1*
X238002652Y-79989341D02*
X237490000Y-79476689D01*
X237490000Y-89687311D02*
X238002652Y-89174659D01*
X236977348Y-89174659D02*
X237490000Y-89687311D01*
X232384689Y-84582000D02*
X232897341Y-84069348D01*
X232897341Y-85094652D02*
X232384689Y-84582000D01*
X242595311Y-84582000D02*
X242082659Y-85094652D01*
X242082659Y-84069348D02*
X242595311Y-84582000D01*
G04 #@! TO.C,J1*
X214641997Y-76740000D02*
X214641997Y-74840000D01*
X214641997Y-80640000D02*
X214641997Y-78640000D01*
X205241997Y-76740000D02*
X205241997Y-74840000D01*
X205241997Y-80640000D02*
X205241997Y-78640000D01*
X214641997Y-74840000D02*
X205241997Y-74840000D01*
G04 #@! TO.C,SWRST1*
X188546000Y-82056000D02*
X188996000Y-82506000D01*
X191946000Y-82056000D02*
X191496000Y-82506000D01*
X191946000Y-77456000D02*
X191496000Y-77006000D01*
X188546000Y-77456000D02*
X188996000Y-77006000D01*
X192996000Y-78756000D02*
X192996000Y-80756000D01*
X188996000Y-82506000D02*
X191496000Y-82506000D01*
X187496000Y-78756000D02*
X187496000Y-80756000D01*
X188996000Y-77006000D02*
X191496000Y-77006000D01*
G04 #@! TO.C,C1*
X236306080Y-77669239D02*
X234869239Y-79106080D01*
X235533920Y-79770761D02*
X236970761Y-78333920D01*
X236306080Y-77669239D02*
X236970761Y-78333920D01*
X234869239Y-79106080D02*
X235533920Y-79770761D01*
G04 #@! TO.C,D1*
X54971502Y-83210969D02*
X55967956Y-79492154D01*
X56903354Y-83728607D02*
X57899807Y-80009792D01*
X54971502Y-83210969D02*
X56903354Y-83728607D01*
G04 #@! TO.C,D2*
X73259502Y-88290969D02*
X74255956Y-84572154D01*
X75191354Y-88808607D02*
X76187807Y-85089792D01*
X73259502Y-88290969D02*
X75191354Y-88808607D01*
G04 #@! TO.C,D3*
X92563502Y-90322969D02*
X94495354Y-90840607D01*
X94495354Y-90840607D02*
X95491807Y-87121792D01*
X92563502Y-90322969D02*
X93559956Y-86604154D01*
G04 #@! TO.C,D4*
X111613502Y-92100969D02*
X113545354Y-92618607D01*
X113545354Y-92618607D02*
X114541807Y-88899792D01*
X111613502Y-92100969D02*
X112609956Y-88382154D01*
G04 #@! TO.C,D5*
X130155502Y-97180969D02*
X132087354Y-97698607D01*
X132087354Y-97698607D02*
X133083807Y-93979792D01*
X130155502Y-97180969D02*
X131151956Y-93462154D01*
G04 #@! TO.C,D6*
X147935502Y-103784969D02*
X148931956Y-100066154D01*
X149867354Y-104302607D02*
X150863807Y-100583792D01*
X147935502Y-103784969D02*
X149867354Y-104302607D01*
G04 #@! TO.C,D7*
X164953502Y-109626969D02*
X166885354Y-110144607D01*
X166885354Y-110144607D02*
X167881807Y-106425792D01*
X164953502Y-109626969D02*
X165949956Y-105908154D01*
G04 #@! TO.C,D8*
X188738000Y-110912000D02*
X188738000Y-107062000D01*
X190738000Y-110912000D02*
X190738000Y-107062000D01*
X188738000Y-110912000D02*
X190738000Y-110912000D01*
G04 #@! TO.C,D9*
X207788000Y-110912000D02*
X209788000Y-110912000D01*
X209788000Y-110912000D02*
X209788000Y-107062000D01*
X207788000Y-110912000D02*
X207788000Y-107062000D01*
G04 #@! TO.C,D10*
X226838000Y-110912000D02*
X226838000Y-107062000D01*
X228838000Y-110912000D02*
X228838000Y-107062000D01*
X226838000Y-110912000D02*
X228838000Y-110912000D01*
G04 #@! TO.C,D11*
X245888000Y-110912000D02*
X247888000Y-110912000D01*
X247888000Y-110912000D02*
X247888000Y-107062000D01*
X245888000Y-110912000D02*
X245888000Y-107062000D01*
G04 #@! TO.C,D12*
X269745246Y-104210547D02*
X268748793Y-100491732D01*
X271677098Y-103692909D02*
X270680644Y-99974094D01*
X269745246Y-104210547D02*
X271677098Y-103692909D01*
G04 #@! TO.C,D13*
X287779246Y-97606547D02*
X289711098Y-97088909D01*
X289711098Y-97088909D02*
X288714644Y-93370094D01*
X287779246Y-97606547D02*
X286782793Y-93887732D01*
G04 #@! TO.C,D14*
X306194246Y-92780547D02*
X305197793Y-89061732D01*
X308126098Y-92262909D02*
X307129644Y-88544094D01*
X306194246Y-92780547D02*
X308126098Y-92262909D01*
G04 #@! TO.C,D15*
X325371246Y-90748547D02*
X327303098Y-90230909D01*
X327303098Y-90230909D02*
X326306644Y-86512094D01*
X325371246Y-90748547D02*
X324374793Y-87029732D01*
G04 #@! TO.C,D16*
X344548246Y-88716547D02*
X343551793Y-84997732D01*
X346480098Y-88198909D02*
X345483644Y-84480094D01*
X344548246Y-88716547D02*
X346480098Y-88198909D01*
G04 #@! TO.C,D17*
X362963246Y-83890547D02*
X364895098Y-83372909D01*
X364895098Y-83372909D02*
X363898644Y-79654094D01*
X362963246Y-83890547D02*
X361966793Y-80171732D01*
G04 #@! TO.C,D18*
X379854246Y-78683547D02*
X378857793Y-74964732D01*
X381786098Y-78165909D02*
X380789644Y-74447094D01*
X379854246Y-78683547D02*
X381786098Y-78165909D01*
G04 #@! TO.C,D19*
X56793098Y-84140091D02*
X54861246Y-83622453D01*
X54861246Y-83622453D02*
X53864793Y-87341268D01*
X56793098Y-84140091D02*
X55796644Y-87858906D01*
G04 #@! TO.C,D20*
X75081098Y-89220091D02*
X74084644Y-92938906D01*
X73149246Y-88702453D02*
X72152793Y-92421268D01*
X75081098Y-89220091D02*
X73149246Y-88702453D01*
G04 #@! TO.C,D21*
X94385098Y-91252091D02*
X92453246Y-90734453D01*
X92453246Y-90734453D02*
X91456793Y-94453268D01*
X94385098Y-91252091D02*
X93388644Y-94970906D01*
G04 #@! TO.C,D22*
X113435098Y-93030091D02*
X112438644Y-96748906D01*
X111503246Y-92512453D02*
X110506793Y-96231268D01*
X113435098Y-93030091D02*
X111503246Y-92512453D01*
G04 #@! TO.C,D23*
X131977098Y-98110091D02*
X130045246Y-97592453D01*
X130045246Y-97592453D02*
X129048793Y-101311268D01*
X131977098Y-98110091D02*
X130980644Y-101828906D01*
G04 #@! TO.C,D24*
X149757098Y-104714091D02*
X148760644Y-108432906D01*
X147825246Y-104196453D02*
X146828793Y-107915268D01*
X149757098Y-104714091D02*
X147825246Y-104196453D01*
G04 #@! TO.C,D25*
X166775098Y-110556091D02*
X164843246Y-110038453D01*
X164843246Y-110038453D02*
X163846793Y-113757268D01*
X166775098Y-110556091D02*
X165778644Y-114274906D01*
G04 #@! TO.C,D26*
X190738000Y-111338000D02*
X190738000Y-115188000D01*
X188738000Y-111338000D02*
X188738000Y-115188000D01*
X190738000Y-111338000D02*
X188738000Y-111338000D01*
G04 #@! TO.C,D27*
X209788000Y-111338000D02*
X207788000Y-111338000D01*
X207788000Y-111338000D02*
X207788000Y-115188000D01*
X209788000Y-111338000D02*
X209788000Y-115188000D01*
G04 #@! TO.C,D28*
X228838000Y-111338000D02*
X228838000Y-115188000D01*
X226838000Y-111338000D02*
X226838000Y-115188000D01*
X228838000Y-111338000D02*
X226838000Y-111338000D01*
G04 #@! TO.C,D29*
X247888000Y-111338000D02*
X245888000Y-111338000D01*
X245888000Y-111338000D02*
X245888000Y-115188000D01*
X247888000Y-111338000D02*
X247888000Y-115188000D01*
G04 #@! TO.C,D30*
X271787354Y-104104393D02*
X269855502Y-104622031D01*
X269855502Y-104622031D02*
X270851956Y-108340846D01*
X271787354Y-104104393D02*
X272783807Y-107823208D01*
G04 #@! TO.C,D31*
X289821354Y-97500393D02*
X290817807Y-101219208D01*
X287889502Y-98018031D02*
X288885956Y-101736846D01*
X289821354Y-97500393D02*
X287889502Y-98018031D01*
G04 #@! TO.C,D32*
X308236354Y-92674393D02*
X306304502Y-93192031D01*
X306304502Y-93192031D02*
X307300956Y-96910846D01*
X308236354Y-92674393D02*
X309232807Y-96393208D01*
G04 #@! TO.C,D33*
X327413354Y-90642393D02*
X328409807Y-94361208D01*
X325481502Y-91160031D02*
X326477956Y-94878846D01*
X327413354Y-90642393D02*
X325481502Y-91160031D01*
G04 #@! TO.C,D34*
X346590354Y-88610393D02*
X344658502Y-89128031D01*
X344658502Y-89128031D02*
X345654956Y-92846846D01*
X346590354Y-88610393D02*
X347586807Y-92329208D01*
G04 #@! TO.C,D35*
X365005354Y-83784393D02*
X366001807Y-87503208D01*
X363073502Y-84302031D02*
X364069956Y-88020846D01*
X365005354Y-83784393D02*
X363073502Y-84302031D01*
G04 #@! TO.C,D36*
X381896354Y-78577393D02*
X379964502Y-79095031D01*
X379964502Y-79095031D02*
X380960956Y-82813846D01*
X381896354Y-78577393D02*
X382892807Y-82296208D01*
G04 #@! TO.C,D37*
X51827328Y-102527782D02*
X50830874Y-106246597D01*
X49895476Y-102010144D02*
X48899023Y-105728959D01*
X51827328Y-102527782D02*
X49895476Y-102010144D01*
G04 #@! TO.C,D38*
X70260981Y-107436078D02*
X68329129Y-106918440D01*
X68329129Y-106918440D02*
X67332676Y-110637255D01*
X70260981Y-107436078D02*
X69264527Y-111154893D01*
G04 #@! TO.C,D39*
X89056981Y-110738078D02*
X88060527Y-114456893D01*
X87125129Y-110220440D02*
X86128676Y-113939255D01*
X89056981Y-110738078D02*
X87125129Y-110220440D01*
G04 #@! TO.C,D40*
X108614981Y-110992078D02*
X106683129Y-110474440D01*
X106683129Y-110474440D02*
X105686676Y-114193255D01*
X108614981Y-110992078D02*
X107618527Y-114710893D01*
G04 #@! TO.C,D41*
X127011328Y-115989782D02*
X126014874Y-119708597D01*
X125079476Y-115472144D02*
X124083023Y-119190959D01*
X127011328Y-115989782D02*
X125079476Y-115472144D01*
G04 #@! TO.C,D42*
X144791328Y-123355782D02*
X143794874Y-127074597D01*
X142859476Y-122838144D02*
X141863023Y-126556959D01*
X144791328Y-123355782D02*
X142859476Y-122838144D01*
G04 #@! TO.C,D43*
X162063328Y-128943782D02*
X161066874Y-132662597D01*
X160131476Y-128426144D02*
X159135023Y-132144959D01*
X162063328Y-128943782D02*
X160131476Y-128426144D01*
G04 #@! TO.C,D44*
X190738000Y-130388000D02*
X188738000Y-130388000D01*
X188738000Y-130388000D02*
X188738000Y-134238000D01*
X190738000Y-130388000D02*
X190738000Y-134238000D01*
G04 #@! TO.C,D45*
X209788000Y-130388000D02*
X209788000Y-134238000D01*
X207788000Y-130388000D02*
X207788000Y-134238000D01*
X209788000Y-130388000D02*
X207788000Y-130388000D01*
G04 #@! TO.C,D46*
X228838000Y-130388000D02*
X226838000Y-130388000D01*
X226838000Y-130388000D02*
X226838000Y-134238000D01*
X228838000Y-130388000D02*
X228838000Y-134238000D01*
G04 #@! TO.C,D47*
X247888000Y-130388000D02*
X247888000Y-134238000D01*
X245888000Y-130388000D02*
X245888000Y-134238000D01*
X247888000Y-130388000D02*
X245888000Y-130388000D01*
G04 #@! TO.C,D48*
X276748524Y-122965144D02*
X274816672Y-123482782D01*
X274816672Y-123482782D02*
X275813126Y-127201597D01*
X276748524Y-122965144D02*
X277744977Y-126683959D01*
G04 #@! TO.C,D49*
X294655524Y-115726144D02*
X295651977Y-119444959D01*
X292723672Y-116243782D02*
X293720126Y-119962597D01*
X294655524Y-115726144D02*
X292723672Y-116243782D01*
G04 #@! TO.C,D50*
X313070524Y-110646144D02*
X311138672Y-111163782D01*
X311138672Y-111163782D02*
X312135126Y-114882597D01*
X313070524Y-110646144D02*
X314066977Y-114364959D01*
G04 #@! TO.C,D51*
X332755524Y-110265144D02*
X333751977Y-113983959D01*
X330823672Y-110782782D02*
X331820126Y-114501597D01*
X332755524Y-110265144D02*
X330823672Y-110782782D01*
G04 #@! TO.C,D52*
X351551524Y-106963144D02*
X349619672Y-107480782D01*
X349619672Y-107480782D02*
X350616126Y-111199597D01*
X351551524Y-106963144D02*
X352547977Y-110681959D01*
G04 #@! TO.C,D53*
X369839524Y-101883144D02*
X370835977Y-105601959D01*
X367907672Y-102400782D02*
X368904126Y-106119597D01*
X369839524Y-101883144D02*
X367907672Y-102400782D01*
G04 #@! TO.C,D54*
X386984524Y-96930144D02*
X385052672Y-97447782D01*
X385052672Y-97447782D02*
X386049126Y-101166597D01*
X386984524Y-96930144D02*
X387980977Y-100648959D01*
G04 #@! TO.C,D55*
X47001328Y-120815782D02*
X45069476Y-120298144D01*
X45069476Y-120298144D02*
X44073023Y-124016959D01*
X47001328Y-120815782D02*
X46004874Y-124534597D01*
G04 #@! TO.C,D56*
X65289328Y-125895782D02*
X64292874Y-129614597D01*
X63357476Y-125378144D02*
X62361023Y-129096959D01*
X65289328Y-125895782D02*
X63357476Y-125378144D01*
G04 #@! TO.C,D57*
X84085328Y-129197782D02*
X82153476Y-128680144D01*
X82153476Y-128680144D02*
X81157023Y-132398959D01*
X84085328Y-129197782D02*
X83088874Y-132916597D01*
G04 #@! TO.C,D58*
X103643328Y-129705782D02*
X102646874Y-133424597D01*
X101711476Y-129188144D02*
X100715023Y-132906959D01*
X103643328Y-129705782D02*
X101711476Y-129188144D01*
G04 #@! TO.C,D59*
X122330981Y-134614078D02*
X120399129Y-134096440D01*
X120399129Y-134096440D02*
X119402676Y-137815255D01*
X122330981Y-134614078D02*
X121334527Y-138332893D01*
G04 #@! TO.C,D60*
X140110981Y-141726078D02*
X139114527Y-145444893D01*
X138179129Y-141208440D02*
X137182676Y-144927255D01*
X140110981Y-141726078D02*
X138179129Y-141208440D01*
G04 #@! TO.C,D61*
X156983328Y-147231782D02*
X155051476Y-146714144D01*
X155051476Y-146714144D02*
X154055023Y-150432959D01*
X156983328Y-147231782D02*
X155986874Y-150950597D01*
G04 #@! TO.C,D62*
X190738000Y-149438000D02*
X190738000Y-153288000D01*
X188738000Y-149438000D02*
X188738000Y-153288000D01*
X190738000Y-149438000D02*
X188738000Y-149438000D01*
G04 #@! TO.C,D63*
X209788000Y-149438000D02*
X207788000Y-149438000D01*
X207788000Y-149438000D02*
X207788000Y-153288000D01*
X209788000Y-149438000D02*
X209788000Y-153288000D01*
G04 #@! TO.C,D64*
X228838000Y-149438000D02*
X228838000Y-153288000D01*
X226838000Y-149438000D02*
X226838000Y-153288000D01*
X228838000Y-149438000D02*
X226838000Y-149438000D01*
G04 #@! TO.C,D65*
X247888000Y-149438000D02*
X245888000Y-149438000D01*
X245888000Y-149438000D02*
X245888000Y-153288000D01*
X247888000Y-149438000D02*
X247888000Y-153288000D01*
G04 #@! TO.C,D66*
X281701524Y-141253144D02*
X282697977Y-144971959D01*
X279769672Y-141770782D02*
X280766126Y-145489597D01*
X281701524Y-141253144D02*
X279769672Y-141770782D01*
G04 #@! TO.C,D67*
X299608524Y-134141144D02*
X297676672Y-134658782D01*
X297676672Y-134658782D02*
X298673126Y-138377597D01*
X299608524Y-134141144D02*
X300604977Y-137859959D01*
G04 #@! TO.C,D68*
X318023524Y-129061144D02*
X319019977Y-132779959D01*
X316091672Y-129578782D02*
X317088126Y-133297597D01*
X318023524Y-129061144D02*
X316091672Y-129578782D01*
G04 #@! TO.C,D69*
X337708524Y-128807144D02*
X335776672Y-129324782D01*
X335776672Y-129324782D02*
X336773126Y-133043597D01*
X337708524Y-128807144D02*
X338704977Y-132525959D01*
G04 #@! TO.C,D70*
X356504524Y-125378144D02*
X357500977Y-129096959D01*
X354572672Y-125895782D02*
X355569126Y-129614597D01*
X356504524Y-125378144D02*
X354572672Y-125895782D01*
G04 #@! TO.C,D71*
X374792524Y-120425144D02*
X372860672Y-120942782D01*
X372860672Y-120942782D02*
X373857126Y-124661597D01*
X374792524Y-120425144D02*
X375788977Y-124143959D01*
G04 #@! TO.C,D72*
X391937524Y-115345144D02*
X392933977Y-119063959D01*
X390005672Y-115862782D02*
X391002126Y-119581597D01*
X391937524Y-115345144D02*
X390005672Y-115862782D01*
G04 #@! TO.C,D73*
X41921328Y-139103782D02*
X40924874Y-142822597D01*
X39989476Y-138586144D02*
X38993023Y-142304959D01*
X41921328Y-139103782D02*
X39989476Y-138586144D01*
G04 #@! TO.C,D74*
X60209328Y-144183782D02*
X59212874Y-147902597D01*
X58277476Y-143666144D02*
X57281023Y-147384959D01*
X60209328Y-144183782D02*
X58277476Y-143666144D01*
G04 #@! TO.C,D75*
X79259328Y-147739782D02*
X77327476Y-147222144D01*
X77327476Y-147222144D02*
X76331023Y-150940959D01*
X79259328Y-147739782D02*
X78262874Y-151458597D01*
G04 #@! TO.C,D76*
X98817328Y-147993782D02*
X97820874Y-151712597D01*
X96885476Y-147476144D02*
X95889023Y-151194959D01*
X98817328Y-147993782D02*
X96885476Y-147476144D01*
G04 #@! TO.C,D77*
X117359328Y-153073782D02*
X115427476Y-152556144D01*
X115427476Y-152556144D02*
X114431023Y-156274959D01*
X117359328Y-153073782D02*
X116362874Y-156792597D01*
G04 #@! TO.C,D78*
X135139328Y-160185782D02*
X134142874Y-163904597D01*
X133207476Y-159668144D02*
X132211023Y-163386959D01*
X135139328Y-160185782D02*
X133207476Y-159668144D01*
G04 #@! TO.C,D79*
X153427328Y-160439782D02*
X151495476Y-159922144D01*
X151495476Y-159922144D02*
X150499023Y-163640959D01*
X153427328Y-160439782D02*
X152430874Y-164158597D01*
G04 #@! TO.C,D80*
X190738000Y-168488000D02*
X190738000Y-172338000D01*
X188738000Y-168488000D02*
X188738000Y-172338000D01*
X190738000Y-168488000D02*
X188738000Y-168488000D01*
G04 #@! TO.C,D81*
X209788000Y-168488000D02*
X207788000Y-168488000D01*
X207788000Y-168488000D02*
X207788000Y-172338000D01*
X209788000Y-168488000D02*
X209788000Y-172338000D01*
G04 #@! TO.C,D82*
X228838000Y-168488000D02*
X226838000Y-168488000D01*
X226838000Y-168488000D02*
X226838000Y-172338000D01*
X228838000Y-168488000D02*
X228838000Y-172338000D01*
G04 #@! TO.C,D83*
X247888000Y-168488000D02*
X245888000Y-168488000D01*
X245888000Y-168488000D02*
X245888000Y-172338000D01*
X247888000Y-168488000D02*
X247888000Y-172338000D01*
G04 #@! TO.C,D84*
X268620524Y-160684144D02*
X269616977Y-164402959D01*
X266688672Y-161201782D02*
X267685126Y-164920597D01*
X268620524Y-160684144D02*
X266688672Y-161201782D01*
G04 #@! TO.C,D85*
X304434524Y-152556144D02*
X302502672Y-153073782D01*
X302502672Y-153073782D02*
X303499126Y-156792597D01*
X304434524Y-152556144D02*
X305430977Y-156274959D01*
G04 #@! TO.C,D86*
X322976524Y-147476144D02*
X323972977Y-151194959D01*
X321044672Y-147993782D02*
X322041126Y-151712597D01*
X322976524Y-147476144D02*
X321044672Y-147993782D01*
G04 #@! TO.C,D87*
X342534524Y-147222144D02*
X340602672Y-147739782D01*
X340602672Y-147739782D02*
X341599126Y-151458597D01*
X342534524Y-147222144D02*
X343530977Y-150940959D01*
G04 #@! TO.C,D88*
X361330524Y-143666144D02*
X362326977Y-147384959D01*
X359398672Y-144183782D02*
X360395126Y-147902597D01*
X361330524Y-143666144D02*
X359398672Y-144183782D01*
G04 #@! TO.C,D89*
X379618524Y-138840144D02*
X377686672Y-139357782D01*
X377686672Y-139357782D02*
X378683126Y-143076597D01*
X379618524Y-138840144D02*
X380614977Y-142558959D01*
G04 #@! TO.C,D90*
X396763524Y-133633144D02*
X397759977Y-137351959D01*
X394831672Y-134150782D02*
X395828126Y-137869597D01*
X396763524Y-133633144D02*
X394831672Y-134150782D01*
G04 #@! TO.C,C6*
X232753000Y-86106000D02*
X231813000Y-86106000D01*
X232753000Y-88138000D02*
X231813000Y-88138000D01*
X231813000Y-86106000D02*
X231813000Y-88138000D01*
X232753000Y-88138000D02*
X232753000Y-86106000D01*
D14*
G04 #@! TO.C,H25*
G36*
X183014894Y-76510837D02*
G01*
X183196566Y-76665046D01*
X183440899Y-76892172D01*
X183684392Y-77131392D01*
X184357811Y-77808785D01*
X182971941Y-79205667D01*
X184322970Y-80576736D01*
X184710443Y-80972958D01*
X185054515Y-81330552D01*
X185338355Y-81631546D01*
X185545128Y-81857970D01*
X185658002Y-81991855D01*
X185674000Y-82019020D01*
X185616437Y-82096721D01*
X185455135Y-82275198D01*
X185207172Y-82536583D01*
X184889627Y-82863006D01*
X184519578Y-83236598D01*
X184319333Y-83436363D01*
X183929745Y-83825448D01*
X183583975Y-84174511D01*
X183299051Y-84466052D01*
X183091997Y-84682576D01*
X182979841Y-84806584D01*
X182964667Y-84828538D01*
X183020756Y-84903563D01*
X183172742Y-85071447D01*
X183396199Y-85305903D01*
X183618847Y-85532627D01*
X184273027Y-86190667D01*
X183599667Y-86868000D01*
X182926306Y-87545334D01*
X171665639Y-87545334D01*
X172319819Y-86887294D01*
X172584905Y-86613318D01*
X172798407Y-86378710D01*
X172935657Y-86211487D01*
X172974000Y-86144341D01*
X172917248Y-86052980D01*
X172763853Y-85872625D01*
X172539106Y-85631783D01*
X172339000Y-85428667D01*
X171704000Y-84797905D01*
X171704000Y-81911262D01*
X172412836Y-81206108D01*
X173121671Y-80500955D01*
X173805234Y-81207977D01*
X174488797Y-81915000D01*
X175193717Y-81216450D01*
X175898638Y-80517899D01*
X177292000Y-81918537D01*
X177292000Y-82869269D01*
X177294286Y-83247717D01*
X177300492Y-83554711D01*
X177309640Y-83756425D01*
X177319504Y-83820000D01*
X177406865Y-83794707D01*
X177613623Y-83727679D01*
X177899023Y-83632188D01*
X177969333Y-83608334D01*
X178217093Y-83528806D01*
X178442760Y-83471999D01*
X178682635Y-83434153D01*
X178973016Y-83411508D01*
X179350204Y-83400306D01*
X179850497Y-83396787D01*
X180013135Y-83396667D01*
X181434611Y-83396667D01*
X182114972Y-82749056D01*
X182389239Y-82479949D01*
X182610604Y-82247444D01*
X182753843Y-82079044D01*
X182795333Y-82007230D01*
X182737800Y-81922667D01*
X182576578Y-81737620D01*
X182328733Y-81470315D01*
X182011327Y-81138980D01*
X181641428Y-80761841D01*
X181440638Y-80560305D01*
X180085942Y-79207594D01*
X181460842Y-77830797D01*
X181857029Y-77437729D01*
X182216154Y-77088386D01*
X182520254Y-76799677D01*
X182751368Y-76588513D01*
X182891533Y-76471803D01*
X182923357Y-76454000D01*
X183014894Y-76510837D01*
G37*
X183014894Y-76510837D02*
X183196566Y-76665046D01*
X183440899Y-76892172D01*
X183684392Y-77131392D01*
X184357811Y-77808785D01*
X182971941Y-79205667D01*
X184322970Y-80576736D01*
X184710443Y-80972958D01*
X185054515Y-81330552D01*
X185338355Y-81631546D01*
X185545128Y-81857970D01*
X185658002Y-81991855D01*
X185674000Y-82019020D01*
X185616437Y-82096721D01*
X185455135Y-82275198D01*
X185207172Y-82536583D01*
X184889627Y-82863006D01*
X184519578Y-83236598D01*
X184319333Y-83436363D01*
X183929745Y-83825448D01*
X183583975Y-84174511D01*
X183299051Y-84466052D01*
X183091997Y-84682576D01*
X182979841Y-84806584D01*
X182964667Y-84828538D01*
X183020756Y-84903563D01*
X183172742Y-85071447D01*
X183396199Y-85305903D01*
X183618847Y-85532627D01*
X184273027Y-86190667D01*
X183599667Y-86868000D01*
X182926306Y-87545334D01*
X171665639Y-87545334D01*
X172319819Y-86887294D01*
X172584905Y-86613318D01*
X172798407Y-86378710D01*
X172935657Y-86211487D01*
X172974000Y-86144341D01*
X172917248Y-86052980D01*
X172763853Y-85872625D01*
X172539106Y-85631783D01*
X172339000Y-85428667D01*
X171704000Y-84797905D01*
X171704000Y-81911262D01*
X172412836Y-81206108D01*
X173121671Y-80500955D01*
X173805234Y-81207977D01*
X174488797Y-81915000D01*
X175193717Y-81216450D01*
X175898638Y-80517899D01*
X177292000Y-81918537D01*
X177292000Y-82869269D01*
X177294286Y-83247717D01*
X177300492Y-83554711D01*
X177309640Y-83756425D01*
X177319504Y-83820000D01*
X177406865Y-83794707D01*
X177613623Y-83727679D01*
X177899023Y-83632188D01*
X177969333Y-83608334D01*
X178217093Y-83528806D01*
X178442760Y-83471999D01*
X178682635Y-83434153D01*
X178973016Y-83411508D01*
X179350204Y-83400306D01*
X179850497Y-83396787D01*
X180013135Y-83396667D01*
X181434611Y-83396667D01*
X182114972Y-82749056D01*
X182389239Y-82479949D01*
X182610604Y-82247444D01*
X182753843Y-82079044D01*
X182795333Y-82007230D01*
X182737800Y-81922667D01*
X182576578Y-81737620D01*
X182328733Y-81470315D01*
X182011327Y-81138980D01*
X181641428Y-80761841D01*
X181440638Y-80560305D01*
X180085942Y-79207594D01*
X181460842Y-77830797D01*
X181857029Y-77437729D01*
X182216154Y-77088386D01*
X182520254Y-76799677D01*
X182751368Y-76588513D01*
X182891533Y-76471803D01*
X182923357Y-76454000D01*
X183014894Y-76510837D01*
G36*
X191313140Y-88164348D02*
G01*
X191373535Y-88233541D01*
X191398332Y-88410840D01*
X191298533Y-88598548D01*
X191111479Y-88757584D01*
X190874515Y-88848869D01*
X190777160Y-88857667D01*
X190549467Y-88892348D01*
X190373077Y-89010503D01*
X190235158Y-89233300D01*
X190122876Y-89581907D01*
X190023400Y-90077492D01*
X190017949Y-90110011D01*
X189881264Y-90932000D01*
X189082662Y-90932000D01*
X189324585Y-89556167D01*
X189405289Y-89096335D01*
X189474707Y-88699162D01*
X189527960Y-88392695D01*
X189560169Y-88204984D01*
X189567588Y-88159167D01*
X189644032Y-88146534D01*
X189836166Y-88138964D01*
X189949667Y-88138000D01*
X190199222Y-88154053D01*
X190313645Y-88209414D01*
X190330667Y-88267535D01*
X190355483Y-88336115D01*
X190451579Y-88302106D01*
X190572345Y-88218389D01*
X190834703Y-88093503D01*
X191100407Y-88075845D01*
X191313140Y-88164348D01*
G37*
X191313140Y-88164348D02*
X191373535Y-88233541D01*
X191398332Y-88410840D01*
X191298533Y-88598548D01*
X191111479Y-88757584D01*
X190874515Y-88848869D01*
X190777160Y-88857667D01*
X190549467Y-88892348D01*
X190373077Y-89010503D01*
X190235158Y-89233300D01*
X190122876Y-89581907D01*
X190023400Y-90077492D01*
X190017949Y-90110011D01*
X189881264Y-90932000D01*
X189082662Y-90932000D01*
X189324585Y-89556167D01*
X189405289Y-89096335D01*
X189474707Y-88699162D01*
X189527960Y-88392695D01*
X189560169Y-88204984D01*
X189567588Y-88159167D01*
X189644032Y-88146534D01*
X189836166Y-88138964D01*
X189949667Y-88138000D01*
X190199222Y-88154053D01*
X190313645Y-88209414D01*
X190330667Y-88267535D01*
X190355483Y-88336115D01*
X190451579Y-88302106D01*
X190572345Y-88218389D01*
X190834703Y-88093503D01*
X191100407Y-88075845D01*
X191313140Y-88164348D01*
G36*
X184985257Y-86627804D02*
G01*
X185137907Y-86663085D01*
X185166000Y-86690453D01*
X185152180Y-86795314D01*
X185114384Y-87034808D01*
X185058111Y-87376819D01*
X184988857Y-87789232D01*
X184912122Y-88239933D01*
X184833402Y-88696804D01*
X184758195Y-89127731D01*
X184691999Y-89500598D01*
X184640312Y-89783290D01*
X184610727Y-89934138D01*
X184561209Y-90163943D01*
X185395621Y-90188138D01*
X186230032Y-90212334D01*
X186087368Y-90932000D01*
X183554107Y-90932000D01*
X183596330Y-90741500D01*
X183622580Y-90603276D01*
X183671817Y-90325833D01*
X183739231Y-89936990D01*
X183820010Y-89464565D01*
X183909342Y-88936376D01*
X183936789Y-88773000D01*
X184027806Y-88233607D01*
X184111824Y-87741724D01*
X184184009Y-87325172D01*
X184239527Y-87011769D01*
X184273547Y-86829336D01*
X184278793Y-86804500D01*
X184327093Y-86689518D01*
X184434462Y-86632742D01*
X184648374Y-86614744D01*
X184744280Y-86614000D01*
X184985257Y-86627804D01*
G37*
X184985257Y-86627804D02*
X185137907Y-86663085D01*
X185166000Y-86690453D01*
X185152180Y-86795314D01*
X185114384Y-87034808D01*
X185058111Y-87376819D01*
X184988857Y-87789232D01*
X184912122Y-88239933D01*
X184833402Y-88696804D01*
X184758195Y-89127731D01*
X184691999Y-89500598D01*
X184640312Y-89783290D01*
X184610727Y-89934138D01*
X184561209Y-90163943D01*
X185395621Y-90188138D01*
X186230032Y-90212334D01*
X186087368Y-90932000D01*
X183554107Y-90932000D01*
X183596330Y-90741500D01*
X183622580Y-90603276D01*
X183671817Y-90325833D01*
X183739231Y-89936990D01*
X183820010Y-89464565D01*
X183909342Y-88936376D01*
X183936789Y-88773000D01*
X184027806Y-88233607D01*
X184111824Y-87741724D01*
X184184009Y-87325172D01*
X184239527Y-87011769D01*
X184273547Y-86829336D01*
X184278793Y-86804500D01*
X184327093Y-86689518D01*
X184434462Y-86632742D01*
X184648374Y-86614744D01*
X184744280Y-86614000D01*
X184985257Y-86627804D01*
G36*
X183354474Y-88164348D02*
G01*
X183414868Y-88233541D01*
X183439665Y-88410840D01*
X183339866Y-88598548D01*
X183152812Y-88757584D01*
X182915848Y-88848869D01*
X182818494Y-88857667D01*
X182590800Y-88892348D01*
X182414410Y-89010503D01*
X182276491Y-89233300D01*
X182164210Y-89581907D01*
X182064733Y-90077492D01*
X182059283Y-90110011D01*
X181922598Y-90932000D01*
X181123995Y-90932000D01*
X181365918Y-89556167D01*
X181446622Y-89096335D01*
X181516040Y-88699162D01*
X181569293Y-88392695D01*
X181601502Y-88204984D01*
X181608921Y-88159167D01*
X181685365Y-88146534D01*
X181877499Y-88138964D01*
X181991000Y-88138000D01*
X182240555Y-88154053D01*
X182354979Y-88209414D01*
X182372000Y-88267535D01*
X182396817Y-88336115D01*
X182492913Y-88302106D01*
X182613678Y-88218389D01*
X182876036Y-88093503D01*
X183141740Y-88075845D01*
X183354474Y-88164348D01*
G37*
X183354474Y-88164348D02*
X183414868Y-88233541D01*
X183439665Y-88410840D01*
X183339866Y-88598548D01*
X183152812Y-88757584D01*
X182915848Y-88848869D01*
X182818494Y-88857667D01*
X182590800Y-88892348D01*
X182414410Y-89010503D01*
X182276491Y-89233300D01*
X182164210Y-89581907D01*
X182064733Y-90077492D01*
X182059283Y-90110011D01*
X181922598Y-90932000D01*
X181123995Y-90932000D01*
X181365918Y-89556167D01*
X181446622Y-89096335D01*
X181516040Y-88699162D01*
X181569293Y-88392695D01*
X181601502Y-88204984D01*
X181608921Y-88159167D01*
X181685365Y-88146534D01*
X181877499Y-88138964D01*
X181991000Y-88138000D01*
X182240555Y-88154053D01*
X182354979Y-88209414D01*
X182372000Y-88267535D01*
X182396817Y-88336115D01*
X182492913Y-88302106D01*
X182613678Y-88218389D01*
X182876036Y-88093503D01*
X183141740Y-88075845D01*
X183354474Y-88164348D01*
G36*
X193312879Y-88110639D02*
G01*
X193506616Y-88246333D01*
X193576619Y-88306650D01*
X193886667Y-88578875D01*
X193886667Y-88358438D01*
X193899721Y-88226450D01*
X193968195Y-88161425D01*
X194136054Y-88139858D01*
X194299002Y-88138000D01*
X194711338Y-88138000D01*
X194469415Y-89513834D01*
X194388711Y-89973666D01*
X194319293Y-90370839D01*
X194266040Y-90677305D01*
X194233831Y-90865017D01*
X194226412Y-90910834D01*
X194149968Y-90923466D01*
X193957834Y-90931036D01*
X193844333Y-90932000D01*
X193606549Y-90921106D01*
X193494068Y-90875390D01*
X193463548Y-90775302D01*
X193463333Y-90760132D01*
X193456130Y-90650871D01*
X193406720Y-90640055D01*
X193273401Y-90728774D01*
X193222330Y-90766445D01*
X192854720Y-90943953D01*
X192448993Y-90986785D01*
X192064461Y-90889639D01*
X192031180Y-90872934D01*
X191715122Y-90622846D01*
X191520346Y-90291858D01*
X191438583Y-89908113D01*
X191455945Y-89599584D01*
X192271874Y-89599584D01*
X192288988Y-89876638D01*
X192393912Y-90108835D01*
X192570447Y-90269270D01*
X192802397Y-90331038D01*
X193073564Y-90267231D01*
X193250508Y-90155785D01*
X193514444Y-89865391D01*
X193647254Y-89531945D01*
X193633620Y-89196548D01*
X193621877Y-89159442D01*
X193458200Y-88879647D01*
X193227928Y-88746710D01*
X192953861Y-88763672D01*
X192658794Y-88933576D01*
X192565867Y-89018534D01*
X192358768Y-89304581D01*
X192271874Y-89599584D01*
X191455945Y-89599584D01*
X191461563Y-89499751D01*
X191581016Y-89094916D01*
X191788674Y-88721749D01*
X192076266Y-88408391D01*
X192435523Y-88182986D01*
X192853619Y-88074104D01*
X193123664Y-88062380D01*
X193312879Y-88110639D01*
G37*
X193312879Y-88110639D02*
X193506616Y-88246333D01*
X193576619Y-88306650D01*
X193886667Y-88578875D01*
X193886667Y-88358438D01*
X193899721Y-88226450D01*
X193968195Y-88161425D01*
X194136054Y-88139858D01*
X194299002Y-88138000D01*
X194711338Y-88138000D01*
X194469415Y-89513834D01*
X194388711Y-89973666D01*
X194319293Y-90370839D01*
X194266040Y-90677305D01*
X194233831Y-90865017D01*
X194226412Y-90910834D01*
X194149968Y-90923466D01*
X193957834Y-90931036D01*
X193844333Y-90932000D01*
X193606549Y-90921106D01*
X193494068Y-90875390D01*
X193463548Y-90775302D01*
X193463333Y-90760132D01*
X193456130Y-90650871D01*
X193406720Y-90640055D01*
X193273401Y-90728774D01*
X193222330Y-90766445D01*
X192854720Y-90943953D01*
X192448993Y-90986785D01*
X192064461Y-90889639D01*
X192031180Y-90872934D01*
X191715122Y-90622846D01*
X191520346Y-90291858D01*
X191438583Y-89908113D01*
X191455945Y-89599584D01*
X192271874Y-89599584D01*
X192288988Y-89876638D01*
X192393912Y-90108835D01*
X192570447Y-90269270D01*
X192802397Y-90331038D01*
X193073564Y-90267231D01*
X193250508Y-90155785D01*
X193514444Y-89865391D01*
X193647254Y-89531945D01*
X193633620Y-89196548D01*
X193621877Y-89159442D01*
X193458200Y-88879647D01*
X193227928Y-88746710D01*
X192953861Y-88763672D01*
X192658794Y-88933576D01*
X192565867Y-89018534D01*
X192358768Y-89304581D01*
X192271874Y-89599584D01*
X191455945Y-89599584D01*
X191461563Y-89499751D01*
X191581016Y-89094916D01*
X191788674Y-88721749D01*
X192076266Y-88408391D01*
X192435523Y-88182986D01*
X192853619Y-88074104D01*
X193123664Y-88062380D01*
X193312879Y-88110639D01*
G36*
X180006069Y-88091804D02*
G01*
X180409142Y-88230247D01*
X180702739Y-88485526D01*
X180874458Y-88847065D01*
X180913315Y-89281000D01*
X180890333Y-89704334D01*
X179853167Y-89728106D01*
X179417024Y-89740287D01*
X179122844Y-89756284D01*
X178943258Y-89780779D01*
X178850897Y-89818451D01*
X178818392Y-89873982D01*
X178816000Y-89905484D01*
X178888599Y-90116059D01*
X179077096Y-90260742D01*
X179337535Y-90329511D01*
X179625963Y-90312346D01*
X179898426Y-90199226D01*
X179947959Y-90163559D01*
X180123686Y-90050952D01*
X180288571Y-90037077D01*
X180467377Y-90085458D01*
X180660344Y-90166014D01*
X180759720Y-90240468D01*
X180763333Y-90252462D01*
X180695417Y-90372888D01*
X180522384Y-90535339D01*
X180290311Y-90705586D01*
X180045274Y-90849397D01*
X179855481Y-90926909D01*
X179403585Y-91008086D01*
X179009110Y-90968597D01*
X178649704Y-90826167D01*
X178284524Y-90566237D01*
X178067275Y-90230630D01*
X177991232Y-89806616D01*
X177999983Y-89596970D01*
X178108065Y-89147632D01*
X178914132Y-89147632D01*
X179012752Y-89208581D01*
X179258348Y-89227106D01*
X179514500Y-89221209D01*
X179831261Y-89204230D01*
X180012610Y-89177888D01*
X180092458Y-89130961D01*
X180104715Y-89052225D01*
X180101311Y-89027000D01*
X179993698Y-88805158D01*
X179786731Y-88677779D01*
X179526696Y-88652937D01*
X179259879Y-88738706D01*
X179108485Y-88853818D01*
X178950154Y-89033098D01*
X178914132Y-89147632D01*
X178108065Y-89147632D01*
X178126068Y-89072788D01*
X178386822Y-88641841D01*
X178766074Y-88320406D01*
X179247656Y-88124763D01*
X179505923Y-88080774D01*
X180006069Y-88091804D01*
G37*
X180006069Y-88091804D02*
X180409142Y-88230247D01*
X180702739Y-88485526D01*
X180874458Y-88847065D01*
X180913315Y-89281000D01*
X180890333Y-89704334D01*
X179853167Y-89728106D01*
X179417024Y-89740287D01*
X179122844Y-89756284D01*
X178943258Y-89780779D01*
X178850897Y-89818451D01*
X178818392Y-89873982D01*
X178816000Y-89905484D01*
X178888599Y-90116059D01*
X179077096Y-90260742D01*
X179337535Y-90329511D01*
X179625963Y-90312346D01*
X179898426Y-90199226D01*
X179947959Y-90163559D01*
X180123686Y-90050952D01*
X180288571Y-90037077D01*
X180467377Y-90085458D01*
X180660344Y-90166014D01*
X180759720Y-90240468D01*
X180763333Y-90252462D01*
X180695417Y-90372888D01*
X180522384Y-90535339D01*
X180290311Y-90705586D01*
X180045274Y-90849397D01*
X179855481Y-90926909D01*
X179403585Y-91008086D01*
X179009110Y-90968597D01*
X178649704Y-90826167D01*
X178284524Y-90566237D01*
X178067275Y-90230630D01*
X177991232Y-89806616D01*
X177999983Y-89596970D01*
X178108065Y-89147632D01*
X178914132Y-89147632D01*
X179012752Y-89208581D01*
X179258348Y-89227106D01*
X179514500Y-89221209D01*
X179831261Y-89204230D01*
X180012610Y-89177888D01*
X180092458Y-89130961D01*
X180104715Y-89052225D01*
X180101311Y-89027000D01*
X179993698Y-88805158D01*
X179786731Y-88677779D01*
X179526696Y-88652937D01*
X179259879Y-88738706D01*
X179108485Y-88853818D01*
X178950154Y-89033098D01*
X178914132Y-89147632D01*
X178108065Y-89147632D01*
X178126068Y-89072788D01*
X178386822Y-88641841D01*
X178766074Y-88320406D01*
X179247656Y-88124763D01*
X179505923Y-88080774D01*
X180006069Y-88091804D01*
G36*
X171903976Y-88137584D02*
G01*
X171956550Y-88138000D01*
X172360077Y-88138000D01*
X172202765Y-89005834D01*
X172136746Y-89382470D01*
X172084077Y-89706568D01*
X172051426Y-89935684D01*
X172044060Y-90015786D01*
X172112368Y-90219721D01*
X172280482Y-90356940D01*
X172486688Y-90378306D01*
X172496088Y-90375693D01*
X172687562Y-90293695D01*
X172832887Y-90159342D01*
X172946764Y-89944111D01*
X173043889Y-89619478D01*
X173138961Y-89156917D01*
X173147039Y-89112432D01*
X173213735Y-88740198D01*
X173267590Y-88435095D01*
X173302485Y-88232091D01*
X173312667Y-88165990D01*
X173388418Y-88149290D01*
X173580056Y-88139279D01*
X173693667Y-88138000D01*
X173849169Y-88137341D01*
X173959866Y-88150595D01*
X174028369Y-88200606D01*
X174057292Y-88310221D01*
X174049247Y-88502285D01*
X174006849Y-88799643D01*
X173932709Y-89225141D01*
X173862640Y-89615297D01*
X173786682Y-90044376D01*
X173722838Y-90413713D01*
X173676513Y-90691372D01*
X173653109Y-90845416D01*
X173651333Y-90864130D01*
X173575243Y-90903164D01*
X173381054Y-90927702D01*
X173235926Y-90932000D01*
X172990127Y-90925906D01*
X172875535Y-90894414D01*
X172854118Y-90817713D01*
X172870235Y-90741500D01*
X172897812Y-90611013D01*
X172856147Y-90618162D01*
X172764503Y-90706258D01*
X172428949Y-90929167D01*
X172038589Y-91006160D01*
X171640416Y-90929331D01*
X171478493Y-90803962D01*
X171328406Y-90595539D01*
X171309243Y-90557907D01*
X171247767Y-90413393D01*
X171216290Y-90272887D01*
X171215102Y-90095444D01*
X171244491Y-89840122D01*
X171304748Y-89465974D01*
X171317496Y-89391043D01*
X171399002Y-88909373D01*
X171460450Y-88569388D01*
X171514330Y-88346598D01*
X171573133Y-88216513D01*
X171649348Y-88154643D01*
X171755466Y-88136497D01*
X171903976Y-88137584D01*
G37*
X171903976Y-88137584D02*
X171956550Y-88138000D01*
X172360077Y-88138000D01*
X172202765Y-89005834D01*
X172136746Y-89382470D01*
X172084077Y-89706568D01*
X172051426Y-89935684D01*
X172044060Y-90015786D01*
X172112368Y-90219721D01*
X172280482Y-90356940D01*
X172486688Y-90378306D01*
X172496088Y-90375693D01*
X172687562Y-90293695D01*
X172832887Y-90159342D01*
X172946764Y-89944111D01*
X173043889Y-89619478D01*
X173138961Y-89156917D01*
X173147039Y-89112432D01*
X173213735Y-88740198D01*
X173267590Y-88435095D01*
X173302485Y-88232091D01*
X173312667Y-88165990D01*
X173388418Y-88149290D01*
X173580056Y-88139279D01*
X173693667Y-88138000D01*
X173849169Y-88137341D01*
X173959866Y-88150595D01*
X174028369Y-88200606D01*
X174057292Y-88310221D01*
X174049247Y-88502285D01*
X174006849Y-88799643D01*
X173932709Y-89225141D01*
X173862640Y-89615297D01*
X173786682Y-90044376D01*
X173722838Y-90413713D01*
X173676513Y-90691372D01*
X173653109Y-90845416D01*
X173651333Y-90864130D01*
X173575243Y-90903164D01*
X173381054Y-90927702D01*
X173235926Y-90932000D01*
X172990127Y-90925906D01*
X172875535Y-90894414D01*
X172854118Y-90817713D01*
X172870235Y-90741500D01*
X172897812Y-90611013D01*
X172856147Y-90618162D01*
X172764503Y-90706258D01*
X172428949Y-90929167D01*
X172038589Y-91006160D01*
X171640416Y-90929331D01*
X171478493Y-90803962D01*
X171328406Y-90595539D01*
X171309243Y-90557907D01*
X171247767Y-90413393D01*
X171216290Y-90272887D01*
X171215102Y-90095444D01*
X171244491Y-89840122D01*
X171304748Y-89465974D01*
X171317496Y-89391043D01*
X171399002Y-88909373D01*
X171460450Y-88569388D01*
X171514330Y-88346598D01*
X171573133Y-88216513D01*
X171649348Y-88154643D01*
X171755466Y-88136497D01*
X171903976Y-88137584D01*
G36*
X170165486Y-86670764D02*
G01*
X170578233Y-86910088D01*
X170826770Y-87172239D01*
X170953670Y-87347529D01*
X170990841Y-87464285D01*
X170921566Y-87562504D01*
X170729131Y-87682183D01*
X170579633Y-87763583D01*
X170420537Y-87836490D01*
X170309640Y-87820259D01*
X170180619Y-87695800D01*
X170127606Y-87633485D01*
X169929532Y-87449904D01*
X169704946Y-87380987D01*
X169585854Y-87376000D01*
X169276584Y-87429664D01*
X169069681Y-87576707D01*
X168994667Y-87795014D01*
X169026007Y-87927783D01*
X169136393Y-88057619D01*
X169350377Y-88204362D01*
X169692509Y-88387848D01*
X169785827Y-88434334D01*
X170241796Y-88719639D01*
X170536935Y-89048170D01*
X170675478Y-89425367D01*
X170688000Y-89594059D01*
X170609047Y-90015986D01*
X170393283Y-90411123D01*
X170072354Y-90735452D01*
X169729988Y-90926614D01*
X169474560Y-90984191D01*
X169141903Y-91009733D01*
X168797031Y-91003642D01*
X168504954Y-90966324D01*
X168359667Y-90918093D01*
X168081504Y-90719300D01*
X167808066Y-90452658D01*
X167608338Y-90186518D01*
X167592823Y-90158288D01*
X167532409Y-90020063D01*
X167548614Y-89920570D01*
X167665868Y-89812553D01*
X167829061Y-89701328D01*
X168050231Y-89568567D01*
X168171837Y-89536214D01*
X168220954Y-89586040D01*
X168301558Y-89715101D01*
X168458688Y-89900849D01*
X168534140Y-89979500D01*
X168813434Y-90177016D01*
X169107587Y-90254198D01*
X169381265Y-90220835D01*
X169599135Y-90086719D01*
X169725864Y-89861640D01*
X169740492Y-89645226D01*
X169706674Y-89496122D01*
X169617165Y-89374507D01*
X169437578Y-89247540D01*
X169172121Y-89102387D01*
X168869345Y-88933413D01*
X168602518Y-88764575D01*
X168433745Y-88636053D01*
X168193998Y-88310909D01*
X168099364Y-87948447D01*
X168139311Y-87578050D01*
X168303309Y-87229100D01*
X168580826Y-86930979D01*
X168961331Y-86713069D01*
X169144196Y-86653854D01*
X169685164Y-86584641D01*
X170165486Y-86670764D01*
G37*
X170165486Y-86670764D02*
X170578233Y-86910088D01*
X170826770Y-87172239D01*
X170953670Y-87347529D01*
X170990841Y-87464285D01*
X170921566Y-87562504D01*
X170729131Y-87682183D01*
X170579633Y-87763583D01*
X170420537Y-87836490D01*
X170309640Y-87820259D01*
X170180619Y-87695800D01*
X170127606Y-87633485D01*
X169929532Y-87449904D01*
X169704946Y-87380987D01*
X169585854Y-87376000D01*
X169276584Y-87429664D01*
X169069681Y-87576707D01*
X168994667Y-87795014D01*
X169026007Y-87927783D01*
X169136393Y-88057619D01*
X169350377Y-88204362D01*
X169692509Y-88387848D01*
X169785827Y-88434334D01*
X170241796Y-88719639D01*
X170536935Y-89048170D01*
X170675478Y-89425367D01*
X170688000Y-89594059D01*
X170609047Y-90015986D01*
X170393283Y-90411123D01*
X170072354Y-90735452D01*
X169729988Y-90926614D01*
X169474560Y-90984191D01*
X169141903Y-91009733D01*
X168797031Y-91003642D01*
X168504954Y-90966324D01*
X168359667Y-90918093D01*
X168081504Y-90719300D01*
X167808066Y-90452658D01*
X167608338Y-90186518D01*
X167592823Y-90158288D01*
X167532409Y-90020063D01*
X167548614Y-89920570D01*
X167665868Y-89812553D01*
X167829061Y-89701328D01*
X168050231Y-89568567D01*
X168171837Y-89536214D01*
X168220954Y-89586040D01*
X168301558Y-89715101D01*
X168458688Y-89900849D01*
X168534140Y-89979500D01*
X168813434Y-90177016D01*
X169107587Y-90254198D01*
X169381265Y-90220835D01*
X169599135Y-90086719D01*
X169725864Y-89861640D01*
X169740492Y-89645226D01*
X169706674Y-89496122D01*
X169617165Y-89374507D01*
X169437578Y-89247540D01*
X169172121Y-89102387D01*
X168869345Y-88933413D01*
X168602518Y-88764575D01*
X168433745Y-88636053D01*
X168193998Y-88310909D01*
X168099364Y-87948447D01*
X168139311Y-87578050D01*
X168303309Y-87229100D01*
X168580826Y-86930979D01*
X168961331Y-86713069D01*
X169144196Y-86653854D01*
X169685164Y-86584641D01*
X170165486Y-86670764D01*
G36*
X189130332Y-88323627D02*
G01*
X189053692Y-88447821D01*
X188903405Y-88695551D01*
X188692632Y-89044966D01*
X188434534Y-89474213D01*
X188142274Y-89961441D01*
X187878028Y-90402834D01*
X186751254Y-92286667D01*
X186334630Y-92286667D01*
X186103240Y-92275262D01*
X185968001Y-92246096D01*
X185952027Y-92223167D01*
X186007288Y-92127924D01*
X186129604Y-91920952D01*
X186299084Y-91635825D01*
X186438599Y-91401906D01*
X186891149Y-90644144D01*
X186708302Y-89962572D01*
X186594200Y-89543556D01*
X186469367Y-89094777D01*
X186360437Y-88711975D01*
X186358486Y-88705241D01*
X186191516Y-88129481D01*
X186628319Y-88154907D01*
X187065122Y-88180334D01*
X187217314Y-88857667D01*
X187293940Y-89189427D01*
X187361562Y-89465785D01*
X187408141Y-89637978D01*
X187415235Y-89659439D01*
X187473645Y-89648711D01*
X187596141Y-89497542D01*
X187773731Y-89218244D01*
X187909817Y-88982106D01*
X188358669Y-88180334D01*
X189255861Y-88128254D01*
X189130332Y-88323627D01*
G37*
X189130332Y-88323627D02*
X189053692Y-88447821D01*
X188903405Y-88695551D01*
X188692632Y-89044966D01*
X188434534Y-89474213D01*
X188142274Y-89961441D01*
X187878028Y-90402834D01*
X186751254Y-92286667D01*
X186334630Y-92286667D01*
X186103240Y-92275262D01*
X185968001Y-92246096D01*
X185952027Y-92223167D01*
X186007288Y-92127924D01*
X186129604Y-91920952D01*
X186299084Y-91635825D01*
X186438599Y-91401906D01*
X186891149Y-90644144D01*
X186708302Y-89962572D01*
X186594200Y-89543556D01*
X186469367Y-89094777D01*
X186360437Y-88711975D01*
X186358486Y-88705241D01*
X186191516Y-88129481D01*
X186628319Y-88154907D01*
X187065122Y-88180334D01*
X187217314Y-88857667D01*
X187293940Y-89189427D01*
X187361562Y-89465785D01*
X187408141Y-89637978D01*
X187415235Y-89659439D01*
X187473645Y-89648711D01*
X187596141Y-89497542D01*
X187773731Y-89218244D01*
X187909817Y-88982106D01*
X188358669Y-88180334D01*
X189255861Y-88128254D01*
X189130332Y-88323627D01*
G36*
X176950036Y-88128951D02*
G01*
X177219876Y-88273821D01*
X177466146Y-88599824D01*
X177600612Y-89012707D01*
X177617910Y-89467651D01*
X177512675Y-89919839D01*
X177436862Y-90086523D01*
X177120761Y-90535277D01*
X176727467Y-90836723D01*
X176263009Y-90986540D01*
X176165528Y-90997648D01*
X175890322Y-91010566D01*
X175711183Y-90976374D01*
X175556558Y-90872001D01*
X175445029Y-90765337D01*
X175275788Y-90611588D01*
X175192648Y-90581626D01*
X175175333Y-90638185D01*
X175160653Y-90782261D01*
X175121428Y-91045725D01*
X175064877Y-91381641D01*
X175037576Y-91533698D01*
X174899818Y-92286667D01*
X174495169Y-92286667D01*
X174250752Y-92277355D01*
X174138089Y-92239566D01*
X174120154Y-92158516D01*
X174124059Y-92138500D01*
X174148008Y-92013010D01*
X174195561Y-91747959D01*
X174261910Y-91370719D01*
X174342251Y-90908662D01*
X174431777Y-90389160D01*
X174454833Y-90254667D01*
X174561531Y-89626809D01*
X175383953Y-89626809D01*
X175417170Y-89912709D01*
X175562422Y-90144745D01*
X175686194Y-90231178D01*
X175835921Y-90306147D01*
X175933722Y-90327200D01*
X176054111Y-90292968D01*
X176225321Y-90221277D01*
X176519727Y-90028614D01*
X176713117Y-89762707D01*
X176795269Y-89463608D01*
X176755965Y-89171366D01*
X176584983Y-88926033D01*
X176560915Y-88906145D01*
X176378776Y-88778018D01*
X176231690Y-88741938D01*
X176048809Y-88793456D01*
X175893171Y-88864209D01*
X175628286Y-89060731D01*
X175456436Y-89328873D01*
X175383953Y-89626809D01*
X174561531Y-89626809D01*
X174565381Y-89604160D01*
X174651326Y-89101261D01*
X174719454Y-88727179D01*
X174776553Y-88463123D01*
X174829407Y-88290301D01*
X174884804Y-88189924D01*
X174949531Y-88143199D01*
X175030373Y-88131337D01*
X175134117Y-88135545D01*
X175219280Y-88138000D01*
X175471824Y-88155475D01*
X175585423Y-88213864D01*
X175598667Y-88262145D01*
X175627115Y-88325399D01*
X175734032Y-88299115D01*
X175898511Y-88209377D01*
X176222186Y-88092454D01*
X176594690Y-88066718D01*
X176950036Y-88128951D01*
G37*
X176950036Y-88128951D02*
X177219876Y-88273821D01*
X177466146Y-88599824D01*
X177600612Y-89012707D01*
X177617910Y-89467651D01*
X177512675Y-89919839D01*
X177436862Y-90086523D01*
X177120761Y-90535277D01*
X176727467Y-90836723D01*
X176263009Y-90986540D01*
X176165528Y-90997648D01*
X175890322Y-91010566D01*
X175711183Y-90976374D01*
X175556558Y-90872001D01*
X175445029Y-90765337D01*
X175275788Y-90611588D01*
X175192648Y-90581626D01*
X175175333Y-90638185D01*
X175160653Y-90782261D01*
X175121428Y-91045725D01*
X175064877Y-91381641D01*
X175037576Y-91533698D01*
X174899818Y-92286667D01*
X174495169Y-92286667D01*
X174250752Y-92277355D01*
X174138089Y-92239566D01*
X174120154Y-92158516D01*
X174124059Y-92138500D01*
X174148008Y-92013010D01*
X174195561Y-91747959D01*
X174261910Y-91370719D01*
X174342251Y-90908662D01*
X174431777Y-90389160D01*
X174454833Y-90254667D01*
X174561531Y-89626809D01*
X175383953Y-89626809D01*
X175417170Y-89912709D01*
X175562422Y-90144745D01*
X175686194Y-90231178D01*
X175835921Y-90306147D01*
X175933722Y-90327200D01*
X176054111Y-90292968D01*
X176225321Y-90221277D01*
X176519727Y-90028614D01*
X176713117Y-89762707D01*
X176795269Y-89463608D01*
X176755965Y-89171366D01*
X176584983Y-88926033D01*
X176560915Y-88906145D01*
X176378776Y-88778018D01*
X176231690Y-88741938D01*
X176048809Y-88793456D01*
X175893171Y-88864209D01*
X175628286Y-89060731D01*
X175456436Y-89328873D01*
X175383953Y-89626809D01*
X174561531Y-89626809D01*
X174565381Y-89604160D01*
X174651326Y-89101261D01*
X174719454Y-88727179D01*
X174776553Y-88463123D01*
X174829407Y-88290301D01*
X174884804Y-88189924D01*
X174949531Y-88143199D01*
X175030373Y-88131337D01*
X175134117Y-88135545D01*
X175219280Y-88138000D01*
X175471824Y-88155475D01*
X175585423Y-88213864D01*
X175598667Y-88262145D01*
X175627115Y-88325399D01*
X175734032Y-88299115D01*
X175898511Y-88209377D01*
X176222186Y-88092454D01*
X176594690Y-88066718D01*
X176950036Y-88128951D01*
G04 #@! TO.C,Y1*
D11*
X225364190Y-87471190D02*
X225840380Y-87471190D01*
X224840380Y-87804523D02*
X225364190Y-87471190D01*
X224840380Y-87137857D01*
X225840380Y-86280714D02*
X225840380Y-86852142D01*
X225840380Y-86566428D02*
X224840380Y-86566428D01*
X224983238Y-86661666D01*
X225078476Y-86756904D01*
X225126095Y-86852142D01*
G04 #@! TD*
%LPC*%
D15*
G04 #@! TO.C,Y1*
X227838000Y-85795000D03*
X227838000Y-86995000D03*
X227838000Y-88195000D03*
G04 #@! TD*
D16*
G04 #@! TO.C,SW79*
X146093460Y-175866927D03*
D17*
X154311343Y-171824997D03*
X147684132Y-173514425D03*
D16*
X156166540Y-177193073D03*
D18*
X151130000Y-176530000D03*
D19*
X138382406Y-181897021D03*
D20*
X140371625Y-166787401D03*
D19*
X162054143Y-185013464D03*
D20*
X164043362Y-169903844D03*
G04 #@! TD*
D16*
G04 #@! TO.C,SW84*
X263568460Y-177193073D03*
D17*
X270460197Y-171161924D03*
X264496059Y-174509035D03*
D16*
X273641540Y-175866927D03*
D18*
X268605000Y-176530000D03*
D19*
X257680857Y-185013464D03*
D20*
X255691638Y-169903844D03*
D19*
X281352594Y-181897021D03*
D20*
X279363375Y-166787401D03*
G04 #@! TD*
D16*
G04 #@! TO.C,SW16*
X328875887Y-82698940D03*
X338689693Y-80069338D03*
D18*
X333782790Y-81384139D03*
D17*
X334921441Y-75819835D03*
X329445212Y-79916788D03*
G04 #@! TD*
G04 #@! TO.C,R3*
G36*
G01*
X230980000Y-85024000D02*
X231300000Y-85024000D01*
G75*
G02*
X231460000Y-85184000I0J-160000D01*
G01*
X231460000Y-85579000D01*
G75*
G02*
X231300000Y-85739000I-160000J0D01*
G01*
X230980000Y-85739000D01*
G75*
G02*
X230820000Y-85579000I0J160000D01*
G01*
X230820000Y-85184000D01*
G75*
G02*
X230980000Y-85024000I160000J0D01*
G01*
G37*
G36*
G01*
X230980000Y-86219000D02*
X231300000Y-86219000D01*
G75*
G02*
X231460000Y-86379000I0J-160000D01*
G01*
X231460000Y-86774000D01*
G75*
G02*
X231300000Y-86934000I-160000J0D01*
G01*
X230980000Y-86934000D01*
G75*
G02*
X230820000Y-86774000I0J160000D01*
G01*
X230820000Y-86379000D01*
G75*
G02*
X230980000Y-86219000I160000J0D01*
G01*
G37*
G04 #@! TD*
D21*
G04 #@! TO.C,U2*
X217340000Y-81346000D03*
X217340000Y-82296000D03*
X217340000Y-83246000D03*
X219540000Y-83246000D03*
X219540000Y-81346000D03*
X219540000Y-82296000D03*
G04 #@! TD*
D22*
G04 #@! TO.C,C2*
G36*
X238345736Y-79077818D02*
G01*
X237992182Y-78724264D01*
X238416446Y-78300000D01*
X238770000Y-78653554D01*
X238345736Y-79077818D01*
G37*
G36*
X239123554Y-78300000D02*
G01*
X238770000Y-77946446D01*
X239194264Y-77522182D01*
X239547818Y-77875736D01*
X239123554Y-78300000D01*
G37*
G04 #@! TD*
G04 #@! TO.C,C3*
G36*
X243513554Y-82830000D02*
G01*
X243160000Y-82476446D01*
X243584264Y-82052182D01*
X243937818Y-82405736D01*
X243513554Y-82830000D01*
G37*
G36*
X242735736Y-83607818D02*
G01*
X242382182Y-83254264D01*
X242806446Y-82830000D01*
X243160000Y-83183554D01*
X242735736Y-83607818D01*
G37*
G04 #@! TD*
G04 #@! TO.C,C4*
G36*
X238549264Y-89836682D02*
G01*
X238902818Y-90190236D01*
X238478554Y-90614500D01*
X238125000Y-90260946D01*
X238549264Y-89836682D01*
G37*
G36*
X237771446Y-90614500D02*
G01*
X238125000Y-90968054D01*
X237700736Y-91392318D01*
X237347182Y-91038764D01*
X237771446Y-90614500D01*
G37*
G04 #@! TD*
D23*
G04 #@! TO.C,C5*
X231606000Y-81534000D03*
X232706000Y-81534000D03*
G04 #@! TD*
D24*
G04 #@! TO.C,J2*
X198374000Y-83312000D03*
D25*
X200914000Y-83312000D03*
X198374000Y-80772000D03*
X200914000Y-80772000D03*
X198374000Y-78232000D03*
X200914000Y-78232000D03*
G04 #@! TD*
G04 #@! TO.C,R1*
G36*
G01*
X233111000Y-80104000D02*
X233111000Y-80424000D01*
G75*
G02*
X232951000Y-80584000I-160000J0D01*
G01*
X232556000Y-80584000D01*
G75*
G02*
X232396000Y-80424000I0J160000D01*
G01*
X232396000Y-80104000D01*
G75*
G02*
X232556000Y-79944000I160000J0D01*
G01*
X232951000Y-79944000D01*
G75*
G02*
X233111000Y-80104000I0J-160000D01*
G01*
G37*
G36*
G01*
X231916000Y-80104000D02*
X231916000Y-80424000D01*
G75*
G02*
X231756000Y-80584000I-160000J0D01*
G01*
X231361000Y-80584000D01*
G75*
G02*
X231201000Y-80424000I0J160000D01*
G01*
X231201000Y-80104000D01*
G75*
G02*
X231361000Y-79944000I160000J0D01*
G01*
X231756000Y-79944000D01*
G75*
G02*
X231916000Y-80104000I0J-160000D01*
G01*
G37*
G04 #@! TD*
G04 #@! TO.C,R2*
G36*
G01*
X233111000Y-79088000D02*
X233111000Y-79408000D01*
G75*
G02*
X232951000Y-79568000I-160000J0D01*
G01*
X232556000Y-79568000D01*
G75*
G02*
X232396000Y-79408000I0J160000D01*
G01*
X232396000Y-79088000D01*
G75*
G02*
X232556000Y-78928000I160000J0D01*
G01*
X232951000Y-78928000D01*
G75*
G02*
X233111000Y-79088000I0J-160000D01*
G01*
G37*
G36*
G01*
X231916000Y-79088000D02*
X231916000Y-79408000D01*
G75*
G02*
X231756000Y-79568000I-160000J0D01*
G01*
X231361000Y-79568000D01*
G75*
G02*
X231201000Y-79408000I0J160000D01*
G01*
X231201000Y-79088000D01*
G75*
G02*
X231361000Y-78928000I160000J0D01*
G01*
X231756000Y-78928000D01*
G75*
G02*
X231916000Y-79088000I0J-160000D01*
G01*
G37*
G04 #@! TD*
G04 #@! TO.C,R4*
G36*
G01*
X243978424Y-86962150D02*
X243752150Y-87188424D01*
G75*
G02*
X243525876Y-87188424I-113137J113137D01*
G01*
X243246568Y-86909116D01*
G75*
G02*
X243246568Y-86682842I113137J113137D01*
G01*
X243472842Y-86456568D01*
G75*
G02*
X243699116Y-86456568I113137J-113137D01*
G01*
X243978424Y-86735876D01*
G75*
G02*
X243978424Y-86962150I-113137J-113137D01*
G01*
G37*
G36*
G01*
X243133432Y-86117158D02*
X242907158Y-86343432D01*
G75*
G02*
X242680884Y-86343432I-113137J113137D01*
G01*
X242401576Y-86064124D01*
G75*
G02*
X242401576Y-85837850I113137J113137D01*
G01*
X242627850Y-85611576D01*
G75*
G02*
X242854124Y-85611576I113137J-113137D01*
G01*
X243133432Y-85890884D01*
G75*
G02*
X243133432Y-86117158I-113137J-113137D01*
G01*
G37*
G04 #@! TD*
G04 #@! TO.C,R5*
G36*
G01*
X215895000Y-84370000D02*
X215895000Y-84690000D01*
G75*
G02*
X215735000Y-84850000I-160000J0D01*
G01*
X215340000Y-84850000D01*
G75*
G02*
X215180000Y-84690000I0J160000D01*
G01*
X215180000Y-84370000D01*
G75*
G02*
X215340000Y-84210000I160000J0D01*
G01*
X215735000Y-84210000D01*
G75*
G02*
X215895000Y-84370000I0J-160000D01*
G01*
G37*
G36*
G01*
X214700000Y-84370000D02*
X214700000Y-84690000D01*
G75*
G02*
X214540000Y-84850000I-160000J0D01*
G01*
X214145000Y-84850000D01*
G75*
G02*
X213985000Y-84690000I0J160000D01*
G01*
X213985000Y-84370000D01*
G75*
G02*
X214145000Y-84210000I160000J0D01*
G01*
X214540000Y-84210000D01*
G75*
G02*
X214700000Y-84370000I0J-160000D01*
G01*
G37*
G04 #@! TD*
G04 #@! TO.C,R6*
G36*
G01*
X205190000Y-84700000D02*
X205190000Y-84380000D01*
G75*
G02*
X205350000Y-84220000I160000J0D01*
G01*
X205745000Y-84220000D01*
G75*
G02*
X205905000Y-84380000I0J-160000D01*
G01*
X205905000Y-84700000D01*
G75*
G02*
X205745000Y-84860000I-160000J0D01*
G01*
X205350000Y-84860000D01*
G75*
G02*
X205190000Y-84700000I0J160000D01*
G01*
G37*
G36*
G01*
X203995000Y-84700000D02*
X203995000Y-84380000D01*
G75*
G02*
X204155000Y-84220000I160000J0D01*
G01*
X204550000Y-84220000D01*
G75*
G02*
X204710000Y-84380000I0J-160000D01*
G01*
X204710000Y-84700000D01*
G75*
G02*
X204550000Y-84860000I-160000J0D01*
G01*
X204155000Y-84860000D01*
G75*
G02*
X203995000Y-84700000I0J160000D01*
G01*
G37*
G04 #@! TD*
D22*
G04 #@! TO.C,U1*
G36*
X233813045Y-84582000D02*
G01*
X237490000Y-80905045D01*
X241166955Y-84582000D01*
X237490000Y-88258955D01*
X233813045Y-84582000D01*
G37*
G36*
G01*
X237657938Y-80701752D02*
X238329690Y-80030000D01*
G75*
G02*
X238418078Y-80030000I44194J-44194D01*
G01*
X238506466Y-80118388D01*
G75*
G02*
X238506466Y-80206776I-44194J-44194D01*
G01*
X237834714Y-80878528D01*
G75*
G02*
X237746326Y-80878528I-44194J44194D01*
G01*
X237657938Y-80790140D01*
G75*
G02*
X237657938Y-80701752I44194J44194D01*
G01*
G37*
G36*
G01*
X238011491Y-81055306D02*
X238683243Y-80383554D01*
G75*
G02*
X238771631Y-80383554I44194J-44194D01*
G01*
X238860019Y-80471942D01*
G75*
G02*
X238860019Y-80560330I-44194J-44194D01*
G01*
X238188267Y-81232082D01*
G75*
G02*
X238099879Y-81232082I-44194J44194D01*
G01*
X238011491Y-81143694D01*
G75*
G02*
X238011491Y-81055306I44194J44194D01*
G01*
G37*
G36*
G01*
X238365045Y-81408859D02*
X239036797Y-80737107D01*
G75*
G02*
X239125185Y-80737107I44194J-44194D01*
G01*
X239213573Y-80825495D01*
G75*
G02*
X239213573Y-80913883I-44194J-44194D01*
G01*
X238541821Y-81585635D01*
G75*
G02*
X238453433Y-81585635I-44194J44194D01*
G01*
X238365045Y-81497247D01*
G75*
G02*
X238365045Y-81408859I44194J44194D01*
G01*
G37*
G36*
G01*
X238718598Y-81762412D02*
X239390350Y-81090660D01*
G75*
G02*
X239478738Y-81090660I44194J-44194D01*
G01*
X239567126Y-81179048D01*
G75*
G02*
X239567126Y-81267436I-44194J-44194D01*
G01*
X238895374Y-81939188D01*
G75*
G02*
X238806986Y-81939188I-44194J44194D01*
G01*
X238718598Y-81850800D01*
G75*
G02*
X238718598Y-81762412I44194J44194D01*
G01*
G37*
G36*
G01*
X239072151Y-82115966D02*
X239743903Y-81444214D01*
G75*
G02*
X239832291Y-81444214I44194J-44194D01*
G01*
X239920679Y-81532602D01*
G75*
G02*
X239920679Y-81620990I-44194J-44194D01*
G01*
X239248927Y-82292742D01*
G75*
G02*
X239160539Y-82292742I-44194J44194D01*
G01*
X239072151Y-82204354D01*
G75*
G02*
X239072151Y-82115966I44194J44194D01*
G01*
G37*
G36*
G01*
X239425705Y-82469519D02*
X240097457Y-81797767D01*
G75*
G02*
X240185845Y-81797767I44194J-44194D01*
G01*
X240274233Y-81886155D01*
G75*
G02*
X240274233Y-81974543I-44194J-44194D01*
G01*
X239602481Y-82646295D01*
G75*
G02*
X239514093Y-82646295I-44194J44194D01*
G01*
X239425705Y-82557907D01*
G75*
G02*
X239425705Y-82469519I44194J44194D01*
G01*
G37*
G36*
G01*
X239779258Y-82823073D02*
X240451010Y-82151321D01*
G75*
G02*
X240539398Y-82151321I44194J-44194D01*
G01*
X240627786Y-82239709D01*
G75*
G02*
X240627786Y-82328097I-44194J-44194D01*
G01*
X239956034Y-82999849D01*
G75*
G02*
X239867646Y-82999849I-44194J44194D01*
G01*
X239779258Y-82911461D01*
G75*
G02*
X239779258Y-82823073I44194J44194D01*
G01*
G37*
G36*
G01*
X240132812Y-83176626D02*
X240804564Y-82504874D01*
G75*
G02*
X240892952Y-82504874I44194J-44194D01*
G01*
X240981340Y-82593262D01*
G75*
G02*
X240981340Y-82681650I-44194J-44194D01*
G01*
X240309588Y-83353402D01*
G75*
G02*
X240221200Y-83353402I-44194J44194D01*
G01*
X240132812Y-83265014D01*
G75*
G02*
X240132812Y-83176626I44194J44194D01*
G01*
G37*
G36*
G01*
X240486365Y-83530179D02*
X241158117Y-82858427D01*
G75*
G02*
X241246505Y-82858427I44194J-44194D01*
G01*
X241334893Y-82946815D01*
G75*
G02*
X241334893Y-83035203I-44194J-44194D01*
G01*
X240663141Y-83706955D01*
G75*
G02*
X240574753Y-83706955I-44194J44194D01*
G01*
X240486365Y-83618567D01*
G75*
G02*
X240486365Y-83530179I44194J44194D01*
G01*
G37*
G36*
G01*
X240839918Y-83883733D02*
X241511670Y-83211981D01*
G75*
G02*
X241600058Y-83211981I44194J-44194D01*
G01*
X241688446Y-83300369D01*
G75*
G02*
X241688446Y-83388757I-44194J-44194D01*
G01*
X241016694Y-84060509D01*
G75*
G02*
X240928306Y-84060509I-44194J44194D01*
G01*
X240839918Y-83972121D01*
G75*
G02*
X240839918Y-83883733I44194J44194D01*
G01*
G37*
G36*
G01*
X241193472Y-84237286D02*
X241865224Y-83565534D01*
G75*
G02*
X241953612Y-83565534I44194J-44194D01*
G01*
X242042000Y-83653922D01*
G75*
G02*
X242042000Y-83742310I-44194J-44194D01*
G01*
X241370248Y-84414062D01*
G75*
G02*
X241281860Y-84414062I-44194J44194D01*
G01*
X241193472Y-84325674D01*
G75*
G02*
X241193472Y-84237286I44194J44194D01*
G01*
G37*
G36*
G01*
X241193472Y-84838326D02*
X241281860Y-84749938D01*
G75*
G02*
X241370248Y-84749938I44194J-44194D01*
G01*
X242042000Y-85421690D01*
G75*
G02*
X242042000Y-85510078I-44194J-44194D01*
G01*
X241953612Y-85598466D01*
G75*
G02*
X241865224Y-85598466I-44194J44194D01*
G01*
X241193472Y-84926714D01*
G75*
G02*
X241193472Y-84838326I44194J44194D01*
G01*
G37*
G36*
G01*
X240839918Y-85191879D02*
X240928306Y-85103491D01*
G75*
G02*
X241016694Y-85103491I44194J-44194D01*
G01*
X241688446Y-85775243D01*
G75*
G02*
X241688446Y-85863631I-44194J-44194D01*
G01*
X241600058Y-85952019D01*
G75*
G02*
X241511670Y-85952019I-44194J44194D01*
G01*
X240839918Y-85280267D01*
G75*
G02*
X240839918Y-85191879I44194J44194D01*
G01*
G37*
G36*
G01*
X240486365Y-85545433D02*
X240574753Y-85457045D01*
G75*
G02*
X240663141Y-85457045I44194J-44194D01*
G01*
X241334893Y-86128797D01*
G75*
G02*
X241334893Y-86217185I-44194J-44194D01*
G01*
X241246505Y-86305573D01*
G75*
G02*
X241158117Y-86305573I-44194J44194D01*
G01*
X240486365Y-85633821D01*
G75*
G02*
X240486365Y-85545433I44194J44194D01*
G01*
G37*
G36*
G01*
X240132812Y-85898986D02*
X240221200Y-85810598D01*
G75*
G02*
X240309588Y-85810598I44194J-44194D01*
G01*
X240981340Y-86482350D01*
G75*
G02*
X240981340Y-86570738I-44194J-44194D01*
G01*
X240892952Y-86659126D01*
G75*
G02*
X240804564Y-86659126I-44194J44194D01*
G01*
X240132812Y-85987374D01*
G75*
G02*
X240132812Y-85898986I44194J44194D01*
G01*
G37*
G36*
G01*
X239779258Y-86252539D02*
X239867646Y-86164151D01*
G75*
G02*
X239956034Y-86164151I44194J-44194D01*
G01*
X240627786Y-86835903D01*
G75*
G02*
X240627786Y-86924291I-44194J-44194D01*
G01*
X240539398Y-87012679D01*
G75*
G02*
X240451010Y-87012679I-44194J44194D01*
G01*
X239779258Y-86340927D01*
G75*
G02*
X239779258Y-86252539I44194J44194D01*
G01*
G37*
G36*
G01*
X239425705Y-86606093D02*
X239514093Y-86517705D01*
G75*
G02*
X239602481Y-86517705I44194J-44194D01*
G01*
X240274233Y-87189457D01*
G75*
G02*
X240274233Y-87277845I-44194J-44194D01*
G01*
X240185845Y-87366233D01*
G75*
G02*
X240097457Y-87366233I-44194J44194D01*
G01*
X239425705Y-86694481D01*
G75*
G02*
X239425705Y-86606093I44194J44194D01*
G01*
G37*
G36*
G01*
X239072151Y-86959646D02*
X239160539Y-86871258D01*
G75*
G02*
X239248927Y-86871258I44194J-44194D01*
G01*
X239920679Y-87543010D01*
G75*
G02*
X239920679Y-87631398I-44194J-44194D01*
G01*
X239832291Y-87719786D01*
G75*
G02*
X239743903Y-87719786I-44194J44194D01*
G01*
X239072151Y-87048034D01*
G75*
G02*
X239072151Y-86959646I44194J44194D01*
G01*
G37*
G36*
G01*
X238718598Y-87313200D02*
X238806986Y-87224812D01*
G75*
G02*
X238895374Y-87224812I44194J-44194D01*
G01*
X239567126Y-87896564D01*
G75*
G02*
X239567126Y-87984952I-44194J-44194D01*
G01*
X239478738Y-88073340D01*
G75*
G02*
X239390350Y-88073340I-44194J44194D01*
G01*
X238718598Y-87401588D01*
G75*
G02*
X238718598Y-87313200I44194J44194D01*
G01*
G37*
G36*
G01*
X238365045Y-87666753D02*
X238453433Y-87578365D01*
G75*
G02*
X238541821Y-87578365I44194J-44194D01*
G01*
X239213573Y-88250117D01*
G75*
G02*
X239213573Y-88338505I-44194J-44194D01*
G01*
X239125185Y-88426893D01*
G75*
G02*
X239036797Y-88426893I-44194J44194D01*
G01*
X238365045Y-87755141D01*
G75*
G02*
X238365045Y-87666753I44194J44194D01*
G01*
G37*
G36*
G01*
X238011491Y-88020306D02*
X238099879Y-87931918D01*
G75*
G02*
X238188267Y-87931918I44194J-44194D01*
G01*
X238860019Y-88603670D01*
G75*
G02*
X238860019Y-88692058I-44194J-44194D01*
G01*
X238771631Y-88780446D01*
G75*
G02*
X238683243Y-88780446I-44194J44194D01*
G01*
X238011491Y-88108694D01*
G75*
G02*
X238011491Y-88020306I44194J44194D01*
G01*
G37*
G36*
G01*
X237657938Y-88373860D02*
X237746326Y-88285472D01*
G75*
G02*
X237834714Y-88285472I44194J-44194D01*
G01*
X238506466Y-88957224D01*
G75*
G02*
X238506466Y-89045612I-44194J-44194D01*
G01*
X238418078Y-89134000D01*
G75*
G02*
X238329690Y-89134000I-44194J44194D01*
G01*
X237657938Y-88462248D01*
G75*
G02*
X237657938Y-88373860I44194J44194D01*
G01*
G37*
G36*
G01*
X236473534Y-88957224D02*
X237145286Y-88285472D01*
G75*
G02*
X237233674Y-88285472I44194J-44194D01*
G01*
X237322062Y-88373860D01*
G75*
G02*
X237322062Y-88462248I-44194J-44194D01*
G01*
X236650310Y-89134000D01*
G75*
G02*
X236561922Y-89134000I-44194J44194D01*
G01*
X236473534Y-89045612D01*
G75*
G02*
X236473534Y-88957224I44194J44194D01*
G01*
G37*
G36*
G01*
X236119981Y-88603670D02*
X236791733Y-87931918D01*
G75*
G02*
X236880121Y-87931918I44194J-44194D01*
G01*
X236968509Y-88020306D01*
G75*
G02*
X236968509Y-88108694I-44194J-44194D01*
G01*
X236296757Y-88780446D01*
G75*
G02*
X236208369Y-88780446I-44194J44194D01*
G01*
X236119981Y-88692058D01*
G75*
G02*
X236119981Y-88603670I44194J44194D01*
G01*
G37*
G36*
G01*
X235766427Y-88250117D02*
X236438179Y-87578365D01*
G75*
G02*
X236526567Y-87578365I44194J-44194D01*
G01*
X236614955Y-87666753D01*
G75*
G02*
X236614955Y-87755141I-44194J-44194D01*
G01*
X235943203Y-88426893D01*
G75*
G02*
X235854815Y-88426893I-44194J44194D01*
G01*
X235766427Y-88338505D01*
G75*
G02*
X235766427Y-88250117I44194J44194D01*
G01*
G37*
G36*
G01*
X235412874Y-87896564D02*
X236084626Y-87224812D01*
G75*
G02*
X236173014Y-87224812I44194J-44194D01*
G01*
X236261402Y-87313200D01*
G75*
G02*
X236261402Y-87401588I-44194J-44194D01*
G01*
X235589650Y-88073340D01*
G75*
G02*
X235501262Y-88073340I-44194J44194D01*
G01*
X235412874Y-87984952D01*
G75*
G02*
X235412874Y-87896564I44194J44194D01*
G01*
G37*
G36*
G01*
X235059321Y-87543010D02*
X235731073Y-86871258D01*
G75*
G02*
X235819461Y-86871258I44194J-44194D01*
G01*
X235907849Y-86959646D01*
G75*
G02*
X235907849Y-87048034I-44194J-44194D01*
G01*
X235236097Y-87719786D01*
G75*
G02*
X235147709Y-87719786I-44194J44194D01*
G01*
X235059321Y-87631398D01*
G75*
G02*
X235059321Y-87543010I44194J44194D01*
G01*
G37*
G36*
G01*
X234705767Y-87189457D02*
X235377519Y-86517705D01*
G75*
G02*
X235465907Y-86517705I44194J-44194D01*
G01*
X235554295Y-86606093D01*
G75*
G02*
X235554295Y-86694481I-44194J-44194D01*
G01*
X234882543Y-87366233D01*
G75*
G02*
X234794155Y-87366233I-44194J44194D01*
G01*
X234705767Y-87277845D01*
G75*
G02*
X234705767Y-87189457I44194J44194D01*
G01*
G37*
G36*
G01*
X234352214Y-86835903D02*
X235023966Y-86164151D01*
G75*
G02*
X235112354Y-86164151I44194J-44194D01*
G01*
X235200742Y-86252539D01*
G75*
G02*
X235200742Y-86340927I-44194J-44194D01*
G01*
X234528990Y-87012679D01*
G75*
G02*
X234440602Y-87012679I-44194J44194D01*
G01*
X234352214Y-86924291D01*
G75*
G02*
X234352214Y-86835903I44194J44194D01*
G01*
G37*
G36*
G01*
X233998660Y-86482350D02*
X234670412Y-85810598D01*
G75*
G02*
X234758800Y-85810598I44194J-44194D01*
G01*
X234847188Y-85898986D01*
G75*
G02*
X234847188Y-85987374I-44194J-44194D01*
G01*
X234175436Y-86659126D01*
G75*
G02*
X234087048Y-86659126I-44194J44194D01*
G01*
X233998660Y-86570738D01*
G75*
G02*
X233998660Y-86482350I44194J44194D01*
G01*
G37*
G36*
G01*
X233645107Y-86128797D02*
X234316859Y-85457045D01*
G75*
G02*
X234405247Y-85457045I44194J-44194D01*
G01*
X234493635Y-85545433D01*
G75*
G02*
X234493635Y-85633821I-44194J-44194D01*
G01*
X233821883Y-86305573D01*
G75*
G02*
X233733495Y-86305573I-44194J44194D01*
G01*
X233645107Y-86217185D01*
G75*
G02*
X233645107Y-86128797I44194J44194D01*
G01*
G37*
G36*
G01*
X233291554Y-85775243D02*
X233963306Y-85103491D01*
G75*
G02*
X234051694Y-85103491I44194J-44194D01*
G01*
X234140082Y-85191879D01*
G75*
G02*
X234140082Y-85280267I-44194J-44194D01*
G01*
X233468330Y-85952019D01*
G75*
G02*
X233379942Y-85952019I-44194J44194D01*
G01*
X233291554Y-85863631D01*
G75*
G02*
X233291554Y-85775243I44194J44194D01*
G01*
G37*
G36*
G01*
X232938000Y-85421690D02*
X233609752Y-84749938D01*
G75*
G02*
X233698140Y-84749938I44194J-44194D01*
G01*
X233786528Y-84838326D01*
G75*
G02*
X233786528Y-84926714I-44194J-44194D01*
G01*
X233114776Y-85598466D01*
G75*
G02*
X233026388Y-85598466I-44194J44194D01*
G01*
X232938000Y-85510078D01*
G75*
G02*
X232938000Y-85421690I44194J44194D01*
G01*
G37*
G36*
G01*
X232938000Y-83653922D02*
X233026388Y-83565534D01*
G75*
G02*
X233114776Y-83565534I44194J-44194D01*
G01*
X233786528Y-84237286D01*
G75*
G02*
X233786528Y-84325674I-44194J-44194D01*
G01*
X233698140Y-84414062D01*
G75*
G02*
X233609752Y-84414062I-44194J44194D01*
G01*
X232938000Y-83742310D01*
G75*
G02*
X232938000Y-83653922I44194J44194D01*
G01*
G37*
G36*
G01*
X233291554Y-83300369D02*
X233379942Y-83211981D01*
G75*
G02*
X233468330Y-83211981I44194J-44194D01*
G01*
X234140082Y-83883733D01*
G75*
G02*
X234140082Y-83972121I-44194J-44194D01*
G01*
X234051694Y-84060509D01*
G75*
G02*
X233963306Y-84060509I-44194J44194D01*
G01*
X233291554Y-83388757D01*
G75*
G02*
X233291554Y-83300369I44194J44194D01*
G01*
G37*
G36*
G01*
X233645107Y-82946815D02*
X233733495Y-82858427D01*
G75*
G02*
X233821883Y-82858427I44194J-44194D01*
G01*
X234493635Y-83530179D01*
G75*
G02*
X234493635Y-83618567I-44194J-44194D01*
G01*
X234405247Y-83706955D01*
G75*
G02*
X234316859Y-83706955I-44194J44194D01*
G01*
X233645107Y-83035203D01*
G75*
G02*
X233645107Y-82946815I44194J44194D01*
G01*
G37*
G36*
G01*
X233998660Y-82593262D02*
X234087048Y-82504874D01*
G75*
G02*
X234175436Y-82504874I44194J-44194D01*
G01*
X234847188Y-83176626D01*
G75*
G02*
X234847188Y-83265014I-44194J-44194D01*
G01*
X234758800Y-83353402D01*
G75*
G02*
X234670412Y-83353402I-44194J44194D01*
G01*
X233998660Y-82681650D01*
G75*
G02*
X233998660Y-82593262I44194J44194D01*
G01*
G37*
G36*
G01*
X234352214Y-82239709D02*
X234440602Y-82151321D01*
G75*
G02*
X234528990Y-82151321I44194J-44194D01*
G01*
X235200742Y-82823073D01*
G75*
G02*
X235200742Y-82911461I-44194J-44194D01*
G01*
X235112354Y-82999849D01*
G75*
G02*
X235023966Y-82999849I-44194J44194D01*
G01*
X234352214Y-82328097D01*
G75*
G02*
X234352214Y-82239709I44194J44194D01*
G01*
G37*
G36*
G01*
X234705767Y-81886155D02*
X234794155Y-81797767D01*
G75*
G02*
X234882543Y-81797767I44194J-44194D01*
G01*
X235554295Y-82469519D01*
G75*
G02*
X235554295Y-82557907I-44194J-44194D01*
G01*
X235465907Y-82646295D01*
G75*
G02*
X235377519Y-82646295I-44194J44194D01*
G01*
X234705767Y-81974543D01*
G75*
G02*
X234705767Y-81886155I44194J44194D01*
G01*
G37*
G36*
G01*
X235059321Y-81532602D02*
X235147709Y-81444214D01*
G75*
G02*
X235236097Y-81444214I44194J-44194D01*
G01*
X235907849Y-82115966D01*
G75*
G02*
X235907849Y-82204354I-44194J-44194D01*
G01*
X235819461Y-82292742D01*
G75*
G02*
X235731073Y-82292742I-44194J44194D01*
G01*
X235059321Y-81620990D01*
G75*
G02*
X235059321Y-81532602I44194J44194D01*
G01*
G37*
G36*
G01*
X235412874Y-81179048D02*
X235501262Y-81090660D01*
G75*
G02*
X235589650Y-81090660I44194J-44194D01*
G01*
X236261402Y-81762412D01*
G75*
G02*
X236261402Y-81850800I-44194J-44194D01*
G01*
X236173014Y-81939188D01*
G75*
G02*
X236084626Y-81939188I-44194J44194D01*
G01*
X235412874Y-81267436D01*
G75*
G02*
X235412874Y-81179048I44194J44194D01*
G01*
G37*
G36*
G01*
X235766427Y-80825495D02*
X235854815Y-80737107D01*
G75*
G02*
X235943203Y-80737107I44194J-44194D01*
G01*
X236614955Y-81408859D01*
G75*
G02*
X236614955Y-81497247I-44194J-44194D01*
G01*
X236526567Y-81585635D01*
G75*
G02*
X236438179Y-81585635I-44194J44194D01*
G01*
X235766427Y-80913883D01*
G75*
G02*
X235766427Y-80825495I44194J44194D01*
G01*
G37*
G36*
G01*
X236119981Y-80471942D02*
X236208369Y-80383554D01*
G75*
G02*
X236296757Y-80383554I44194J-44194D01*
G01*
X236968509Y-81055306D01*
G75*
G02*
X236968509Y-81143694I-44194J-44194D01*
G01*
X236880121Y-81232082D01*
G75*
G02*
X236791733Y-81232082I-44194J44194D01*
G01*
X236119981Y-80560330D01*
G75*
G02*
X236119981Y-80471942I44194J44194D01*
G01*
G37*
G36*
G01*
X236473534Y-80118388D02*
X236561922Y-80030000D01*
G75*
G02*
X236650310Y-80030000I44194J-44194D01*
G01*
X237322062Y-80701752D01*
G75*
G02*
X237322062Y-80790140I-44194J-44194D01*
G01*
X237233674Y-80878528D01*
G75*
G02*
X237145286Y-80878528I-44194J44194D01*
G01*
X236473534Y-80206776D01*
G75*
G02*
X236473534Y-80118388I44194J44194D01*
G01*
G37*
G04 #@! TD*
D26*
G04 #@! TO.C,J1*
X205621997Y-77690000D03*
D27*
X207051997Y-81340000D03*
D26*
X214261997Y-77690000D03*
D27*
X212831997Y-81340000D03*
D28*
X214261997Y-81870000D03*
X205621997Y-81870000D03*
D29*
X210191997Y-82785000D03*
X208191997Y-82785000D03*
X208691997Y-82785000D03*
X209191997Y-82785000D03*
X209691997Y-82785000D03*
X210691997Y-82785000D03*
X211191997Y-82785000D03*
X211691997Y-82785000D03*
D30*
X206691997Y-82785000D03*
X207491997Y-82785000D03*
X212391997Y-82785000D03*
X213191997Y-82785000D03*
X213191997Y-82785000D03*
X212391997Y-82785000D03*
X207491997Y-82785000D03*
X206691997Y-82785000D03*
G04 #@! TD*
D31*
G04 #@! TO.C,SWRST1*
X193396000Y-81656000D03*
X187096000Y-81656000D03*
X193396000Y-77856000D03*
X187096000Y-77856000D03*
G04 #@! TD*
D22*
G04 #@! TO.C,C1*
G36*
X236273554Y-78720000D02*
G01*
X235920000Y-78366446D01*
X236344264Y-77942182D01*
X236697818Y-78295736D01*
X236273554Y-78720000D01*
G37*
G36*
X235495736Y-79497818D02*
G01*
X235142182Y-79144264D01*
X235566446Y-78720000D01*
X235920000Y-79073554D01*
X235495736Y-79497818D01*
G37*
G04 #@! TD*
G04 #@! TO.C,D1*
G36*
X56533392Y-83370657D02*
G01*
X55470873Y-83085956D01*
X55755574Y-82023437D01*
X56818093Y-82308138D01*
X56533392Y-83370657D01*
G37*
G36*
X57258086Y-80666065D02*
G01*
X56195567Y-80381364D01*
X56480268Y-79318845D01*
X57542787Y-79603546D01*
X57258086Y-80666065D01*
G37*
G04 #@! TD*
G04 #@! TO.C,D2*
G36*
X74821392Y-88450657D02*
G01*
X73758873Y-88165956D01*
X74043574Y-87103437D01*
X75106093Y-87388138D01*
X74821392Y-88450657D01*
G37*
G36*
X75546086Y-85746065D02*
G01*
X74483567Y-85461364D01*
X74768268Y-84398845D01*
X75830787Y-84683546D01*
X75546086Y-85746065D01*
G37*
G04 #@! TD*
G04 #@! TO.C,D3*
G36*
X94850086Y-87778065D02*
G01*
X93787567Y-87493364D01*
X94072268Y-86430845D01*
X95134787Y-86715546D01*
X94850086Y-87778065D01*
G37*
G36*
X94125392Y-90482657D02*
G01*
X93062873Y-90197956D01*
X93347574Y-89135437D01*
X94410093Y-89420138D01*
X94125392Y-90482657D01*
G37*
G04 #@! TD*
G04 #@! TO.C,D4*
G36*
X113900086Y-89556065D02*
G01*
X112837567Y-89271364D01*
X113122268Y-88208845D01*
X114184787Y-88493546D01*
X113900086Y-89556065D01*
G37*
G36*
X113175392Y-92260657D02*
G01*
X112112873Y-91975956D01*
X112397574Y-90913437D01*
X113460093Y-91198138D01*
X113175392Y-92260657D01*
G37*
G04 #@! TD*
G04 #@! TO.C,D5*
G36*
X132442086Y-94636065D02*
G01*
X131379567Y-94351364D01*
X131664268Y-93288845D01*
X132726787Y-93573546D01*
X132442086Y-94636065D01*
G37*
G36*
X131717392Y-97340657D02*
G01*
X130654873Y-97055956D01*
X130939574Y-95993437D01*
X132002093Y-96278138D01*
X131717392Y-97340657D01*
G37*
G04 #@! TD*
G04 #@! TO.C,D6*
G36*
X149497392Y-103944657D02*
G01*
X148434873Y-103659956D01*
X148719574Y-102597437D01*
X149782093Y-102882138D01*
X149497392Y-103944657D01*
G37*
G36*
X150222086Y-101240065D02*
G01*
X149159567Y-100955364D01*
X149444268Y-99892845D01*
X150506787Y-100177546D01*
X150222086Y-101240065D01*
G37*
G04 #@! TD*
G04 #@! TO.C,D7*
G36*
X167240086Y-107082065D02*
G01*
X166177567Y-106797364D01*
X166462268Y-105734845D01*
X167524787Y-106019546D01*
X167240086Y-107082065D01*
G37*
G36*
X166515392Y-109786657D02*
G01*
X165452873Y-109501956D01*
X165737574Y-108439437D01*
X166800093Y-108724138D01*
X166515392Y-109786657D01*
G37*
G04 #@! TD*
D32*
G04 #@! TO.C,D8*
X189738000Y-110112000D03*
X189738000Y-107312000D03*
G04 #@! TD*
G04 #@! TO.C,D9*
X208788000Y-107312000D03*
X208788000Y-110112000D03*
G04 #@! TD*
G04 #@! TO.C,D10*
X227838000Y-110112000D03*
X227838000Y-107312000D03*
G04 #@! TD*
G04 #@! TO.C,D11*
X246888000Y-107312000D03*
X246888000Y-110112000D03*
G04 #@! TD*
D22*
G04 #@! TO.C,D12*
G36*
X271177727Y-103567896D02*
G01*
X270115208Y-103852597D01*
X269830507Y-102790078D01*
X270893026Y-102505377D01*
X271177727Y-103567896D01*
G37*
G36*
X270453033Y-100863304D02*
G01*
X269390514Y-101148005D01*
X269105813Y-100085486D01*
X270168332Y-99800785D01*
X270453033Y-100863304D01*
G37*
G04 #@! TD*
G04 #@! TO.C,D13*
G36*
X288487033Y-94259304D02*
G01*
X287424514Y-94544005D01*
X287139813Y-93481486D01*
X288202332Y-93196785D01*
X288487033Y-94259304D01*
G37*
G36*
X289211727Y-96963896D02*
G01*
X288149208Y-97248597D01*
X287864507Y-96186078D01*
X288927026Y-95901377D01*
X289211727Y-96963896D01*
G37*
G04 #@! TD*
G04 #@! TO.C,D14*
G36*
X307626727Y-92137896D02*
G01*
X306564208Y-92422597D01*
X306279507Y-91360078D01*
X307342026Y-91075377D01*
X307626727Y-92137896D01*
G37*
G36*
X306902033Y-89433304D02*
G01*
X305839514Y-89718005D01*
X305554813Y-88655486D01*
X306617332Y-88370785D01*
X306902033Y-89433304D01*
G37*
G04 #@! TD*
G04 #@! TO.C,D15*
G36*
X326079033Y-87401304D02*
G01*
X325016514Y-87686005D01*
X324731813Y-86623486D01*
X325794332Y-86338785D01*
X326079033Y-87401304D01*
G37*
G36*
X326803727Y-90105896D02*
G01*
X325741208Y-90390597D01*
X325456507Y-89328078D01*
X326519026Y-89043377D01*
X326803727Y-90105896D01*
G37*
G04 #@! TD*
G04 #@! TO.C,D16*
G36*
X345980727Y-88073896D02*
G01*
X344918208Y-88358597D01*
X344633507Y-87296078D01*
X345696026Y-87011377D01*
X345980727Y-88073896D01*
G37*
G36*
X345256033Y-85369304D02*
G01*
X344193514Y-85654005D01*
X343908813Y-84591486D01*
X344971332Y-84306785D01*
X345256033Y-85369304D01*
G37*
G04 #@! TD*
G04 #@! TO.C,D17*
G36*
X363671033Y-80543304D02*
G01*
X362608514Y-80828005D01*
X362323813Y-79765486D01*
X363386332Y-79480785D01*
X363671033Y-80543304D01*
G37*
G36*
X364395727Y-83247896D02*
G01*
X363333208Y-83532597D01*
X363048507Y-82470078D01*
X364111026Y-82185377D01*
X364395727Y-83247896D01*
G37*
G04 #@! TD*
G04 #@! TO.C,D18*
G36*
X381286727Y-78040896D02*
G01*
X380224208Y-78325597D01*
X379939507Y-77263078D01*
X381002026Y-76978377D01*
X381286727Y-78040896D01*
G37*
G36*
X380562033Y-75336304D02*
G01*
X379499514Y-75621005D01*
X379214813Y-74558486D01*
X380277332Y-74273785D01*
X380562033Y-75336304D01*
G37*
G04 #@! TD*
G04 #@! TO.C,D19*
G36*
X54506514Y-86684995D02*
G01*
X55569033Y-86969696D01*
X55284332Y-88032215D01*
X54221813Y-87747514D01*
X54506514Y-86684995D01*
G37*
G36*
X55231208Y-83980403D02*
G01*
X56293727Y-84265104D01*
X56009026Y-85327623D01*
X54946507Y-85042922D01*
X55231208Y-83980403D01*
G37*
G04 #@! TD*
G04 #@! TO.C,D20*
G36*
X73519208Y-89060403D02*
G01*
X74581727Y-89345104D01*
X74297026Y-90407623D01*
X73234507Y-90122922D01*
X73519208Y-89060403D01*
G37*
G36*
X72794514Y-91764995D02*
G01*
X73857033Y-92049696D01*
X73572332Y-93112215D01*
X72509813Y-92827514D01*
X72794514Y-91764995D01*
G37*
G04 #@! TD*
G04 #@! TO.C,D21*
G36*
X92098514Y-93796995D02*
G01*
X93161033Y-94081696D01*
X92876332Y-95144215D01*
X91813813Y-94859514D01*
X92098514Y-93796995D01*
G37*
G36*
X92823208Y-91092403D02*
G01*
X93885727Y-91377104D01*
X93601026Y-92439623D01*
X92538507Y-92154922D01*
X92823208Y-91092403D01*
G37*
G04 #@! TD*
G04 #@! TO.C,D22*
G36*
X111873208Y-92870403D02*
G01*
X112935727Y-93155104D01*
X112651026Y-94217623D01*
X111588507Y-93932922D01*
X111873208Y-92870403D01*
G37*
G36*
X111148514Y-95574995D02*
G01*
X112211033Y-95859696D01*
X111926332Y-96922215D01*
X110863813Y-96637514D01*
X111148514Y-95574995D01*
G37*
G04 #@! TD*
G04 #@! TO.C,D23*
G36*
X129690514Y-100654995D02*
G01*
X130753033Y-100939696D01*
X130468332Y-102002215D01*
X129405813Y-101717514D01*
X129690514Y-100654995D01*
G37*
G36*
X130415208Y-97950403D02*
G01*
X131477727Y-98235104D01*
X131193026Y-99297623D01*
X130130507Y-99012922D01*
X130415208Y-97950403D01*
G37*
G04 #@! TD*
G04 #@! TO.C,D24*
G36*
X148195208Y-104554403D02*
G01*
X149257727Y-104839104D01*
X148973026Y-105901623D01*
X147910507Y-105616922D01*
X148195208Y-104554403D01*
G37*
G36*
X147470514Y-107258995D02*
G01*
X148533033Y-107543696D01*
X148248332Y-108606215D01*
X147185813Y-108321514D01*
X147470514Y-107258995D01*
G37*
G04 #@! TD*
G04 #@! TO.C,D25*
G36*
X164488514Y-113100995D02*
G01*
X165551033Y-113385696D01*
X165266332Y-114448215D01*
X164203813Y-114163514D01*
X164488514Y-113100995D01*
G37*
G36*
X165213208Y-110396403D02*
G01*
X166275727Y-110681104D01*
X165991026Y-111743623D01*
X164928507Y-111458922D01*
X165213208Y-110396403D01*
G37*
G04 #@! TD*
D32*
G04 #@! TO.C,D26*
X189738000Y-112138000D03*
X189738000Y-114938000D03*
G04 #@! TD*
G04 #@! TO.C,D27*
X208788000Y-114938000D03*
X208788000Y-112138000D03*
G04 #@! TD*
G04 #@! TO.C,D28*
X227838000Y-112138000D03*
X227838000Y-114938000D03*
G04 #@! TD*
G04 #@! TO.C,D29*
X246888000Y-114938000D03*
X246888000Y-112138000D03*
G04 #@! TD*
D22*
G04 #@! TO.C,D30*
G36*
X271079567Y-107451636D02*
G01*
X272142086Y-107166935D01*
X272426787Y-108229454D01*
X271364268Y-108514155D01*
X271079567Y-107451636D01*
G37*
G36*
X270354873Y-104747044D02*
G01*
X271417392Y-104462343D01*
X271702093Y-105524862D01*
X270639574Y-105809563D01*
X270354873Y-104747044D01*
G37*
G04 #@! TD*
G04 #@! TO.C,D31*
G36*
X288388873Y-98143044D02*
G01*
X289451392Y-97858343D01*
X289736093Y-98920862D01*
X288673574Y-99205563D01*
X288388873Y-98143044D01*
G37*
G36*
X289113567Y-100847636D02*
G01*
X290176086Y-100562935D01*
X290460787Y-101625454D01*
X289398268Y-101910155D01*
X289113567Y-100847636D01*
G37*
G04 #@! TD*
G04 #@! TO.C,D32*
G36*
X307528567Y-96021636D02*
G01*
X308591086Y-95736935D01*
X308875787Y-96799454D01*
X307813268Y-97084155D01*
X307528567Y-96021636D01*
G37*
G36*
X306803873Y-93317044D02*
G01*
X307866392Y-93032343D01*
X308151093Y-94094862D01*
X307088574Y-94379563D01*
X306803873Y-93317044D01*
G37*
G04 #@! TD*
G04 #@! TO.C,D33*
G36*
X325980873Y-91285044D02*
G01*
X327043392Y-91000343D01*
X327328093Y-92062862D01*
X326265574Y-92347563D01*
X325980873Y-91285044D01*
G37*
G36*
X326705567Y-93989636D02*
G01*
X327768086Y-93704935D01*
X328052787Y-94767454D01*
X326990268Y-95052155D01*
X326705567Y-93989636D01*
G37*
G04 #@! TD*
G04 #@! TO.C,D34*
G36*
X345882567Y-91957636D02*
G01*
X346945086Y-91672935D01*
X347229787Y-92735454D01*
X346167268Y-93020155D01*
X345882567Y-91957636D01*
G37*
G36*
X345157873Y-89253044D02*
G01*
X346220392Y-88968343D01*
X346505093Y-90030862D01*
X345442574Y-90315563D01*
X345157873Y-89253044D01*
G37*
G04 #@! TD*
G04 #@! TO.C,D35*
G36*
X363572873Y-84427044D02*
G01*
X364635392Y-84142343D01*
X364920093Y-85204862D01*
X363857574Y-85489563D01*
X363572873Y-84427044D01*
G37*
G36*
X364297567Y-87131636D02*
G01*
X365360086Y-86846935D01*
X365644787Y-87909454D01*
X364582268Y-88194155D01*
X364297567Y-87131636D01*
G37*
G04 #@! TD*
G04 #@! TO.C,D36*
G36*
X381188567Y-81924636D02*
G01*
X382251086Y-81639935D01*
X382535787Y-82702454D01*
X381473268Y-82987155D01*
X381188567Y-81924636D01*
G37*
G36*
X380463873Y-79220044D02*
G01*
X381526392Y-78935343D01*
X381811093Y-79997862D01*
X380748574Y-80282563D01*
X380463873Y-79220044D01*
G37*
G04 #@! TD*
G04 #@! TO.C,D37*
G36*
X50265438Y-102368094D02*
G01*
X51327957Y-102652795D01*
X51043256Y-103715314D01*
X49980737Y-103430613D01*
X50265438Y-102368094D01*
G37*
G36*
X49540744Y-105072686D02*
G01*
X50603263Y-105357387D01*
X50318562Y-106419906D01*
X49256043Y-106135205D01*
X49540744Y-105072686D01*
G37*
G04 #@! TD*
G04 #@! TO.C,D38*
G36*
X67974397Y-109980982D02*
G01*
X69036916Y-110265683D01*
X68752215Y-111328202D01*
X67689696Y-111043501D01*
X67974397Y-109980982D01*
G37*
G36*
X68699091Y-107276390D02*
G01*
X69761610Y-107561091D01*
X69476909Y-108623610D01*
X68414390Y-108338909D01*
X68699091Y-107276390D01*
G37*
G04 #@! TD*
G04 #@! TO.C,D39*
G36*
X87495091Y-110578390D02*
G01*
X88557610Y-110863091D01*
X88272909Y-111925610D01*
X87210390Y-111640909D01*
X87495091Y-110578390D01*
G37*
G36*
X86770397Y-113282982D02*
G01*
X87832916Y-113567683D01*
X87548215Y-114630202D01*
X86485696Y-114345501D01*
X86770397Y-113282982D01*
G37*
G04 #@! TD*
G04 #@! TO.C,D40*
G36*
X106328397Y-113536982D02*
G01*
X107390916Y-113821683D01*
X107106215Y-114884202D01*
X106043696Y-114599501D01*
X106328397Y-113536982D01*
G37*
G36*
X107053091Y-110832390D02*
G01*
X108115610Y-111117091D01*
X107830909Y-112179610D01*
X106768390Y-111894909D01*
X107053091Y-110832390D01*
G37*
G04 #@! TD*
G04 #@! TO.C,D41*
G36*
X125449438Y-115830094D02*
G01*
X126511957Y-116114795D01*
X126227256Y-117177314D01*
X125164737Y-116892613D01*
X125449438Y-115830094D01*
G37*
G36*
X124724744Y-118534686D02*
G01*
X125787263Y-118819387D01*
X125502562Y-119881906D01*
X124440043Y-119597205D01*
X124724744Y-118534686D01*
G37*
G04 #@! TD*
G04 #@! TO.C,D42*
G36*
X143229438Y-123196094D02*
G01*
X144291957Y-123480795D01*
X144007256Y-124543314D01*
X142944737Y-124258613D01*
X143229438Y-123196094D01*
G37*
G36*
X142504744Y-125900686D02*
G01*
X143567263Y-126185387D01*
X143282562Y-127247906D01*
X142220043Y-126963205D01*
X142504744Y-125900686D01*
G37*
G04 #@! TD*
G04 #@! TO.C,D43*
G36*
X160501438Y-128784094D02*
G01*
X161563957Y-129068795D01*
X161279256Y-130131314D01*
X160216737Y-129846613D01*
X160501438Y-128784094D01*
G37*
G36*
X159776744Y-131488686D02*
G01*
X160839263Y-131773387D01*
X160554562Y-132835906D01*
X159492043Y-132551205D01*
X159776744Y-131488686D01*
G37*
G04 #@! TD*
D32*
G04 #@! TO.C,D44*
X189738000Y-133988000D03*
X189738000Y-131188000D03*
G04 #@! TD*
G04 #@! TO.C,D45*
X208788000Y-131188000D03*
X208788000Y-133988000D03*
G04 #@! TD*
G04 #@! TO.C,D46*
X227838000Y-133988000D03*
X227838000Y-131188000D03*
G04 #@! TD*
G04 #@! TO.C,D47*
X246888000Y-131188000D03*
X246888000Y-133988000D03*
G04 #@! TD*
D22*
G04 #@! TO.C,D48*
G36*
X276040737Y-126312387D02*
G01*
X277103256Y-126027686D01*
X277387957Y-127090205D01*
X276325438Y-127374906D01*
X276040737Y-126312387D01*
G37*
G36*
X275316043Y-123607795D02*
G01*
X276378562Y-123323094D01*
X276663263Y-124385613D01*
X275600744Y-124670314D01*
X275316043Y-123607795D01*
G37*
G04 #@! TD*
G04 #@! TO.C,D49*
G36*
X293223043Y-116368795D02*
G01*
X294285562Y-116084094D01*
X294570263Y-117146613D01*
X293507744Y-117431314D01*
X293223043Y-116368795D01*
G37*
G36*
X293947737Y-119073387D02*
G01*
X295010256Y-118788686D01*
X295294957Y-119851205D01*
X294232438Y-120135906D01*
X293947737Y-119073387D01*
G37*
G04 #@! TD*
G04 #@! TO.C,D50*
G36*
X312362737Y-113993387D02*
G01*
X313425256Y-113708686D01*
X313709957Y-114771205D01*
X312647438Y-115055906D01*
X312362737Y-113993387D01*
G37*
G36*
X311638043Y-111288795D02*
G01*
X312700562Y-111004094D01*
X312985263Y-112066613D01*
X311922744Y-112351314D01*
X311638043Y-111288795D01*
G37*
G04 #@! TD*
G04 #@! TO.C,D51*
G36*
X331323043Y-110907795D02*
G01*
X332385562Y-110623094D01*
X332670263Y-111685613D01*
X331607744Y-111970314D01*
X331323043Y-110907795D01*
G37*
G36*
X332047737Y-113612387D02*
G01*
X333110256Y-113327686D01*
X333394957Y-114390205D01*
X332332438Y-114674906D01*
X332047737Y-113612387D01*
G37*
G04 #@! TD*
G04 #@! TO.C,D52*
G36*
X350843737Y-110310387D02*
G01*
X351906256Y-110025686D01*
X352190957Y-111088205D01*
X351128438Y-111372906D01*
X350843737Y-110310387D01*
G37*
G36*
X350119043Y-107605795D02*
G01*
X351181562Y-107321094D01*
X351466263Y-108383613D01*
X350403744Y-108668314D01*
X350119043Y-107605795D01*
G37*
G04 #@! TD*
G04 #@! TO.C,D53*
G36*
X368407043Y-102525795D02*
G01*
X369469562Y-102241094D01*
X369754263Y-103303613D01*
X368691744Y-103588314D01*
X368407043Y-102525795D01*
G37*
G36*
X369131737Y-105230387D02*
G01*
X370194256Y-104945686D01*
X370478957Y-106008205D01*
X369416438Y-106292906D01*
X369131737Y-105230387D01*
G37*
G04 #@! TD*
G04 #@! TO.C,D54*
G36*
X386276737Y-100277387D02*
G01*
X387339256Y-99992686D01*
X387623957Y-101055205D01*
X386561438Y-101339906D01*
X386276737Y-100277387D01*
G37*
G36*
X385552043Y-97572795D02*
G01*
X386614562Y-97288094D01*
X386899263Y-98350613D01*
X385836744Y-98635314D01*
X385552043Y-97572795D01*
G37*
G04 #@! TD*
G04 #@! TO.C,D55*
G36*
X44714744Y-123360686D02*
G01*
X45777263Y-123645387D01*
X45492562Y-124707906D01*
X44430043Y-124423205D01*
X44714744Y-123360686D01*
G37*
G36*
X45439438Y-120656094D02*
G01*
X46501957Y-120940795D01*
X46217256Y-122003314D01*
X45154737Y-121718613D01*
X45439438Y-120656094D01*
G37*
G04 #@! TD*
G04 #@! TO.C,D56*
G36*
X63727438Y-125736094D02*
G01*
X64789957Y-126020795D01*
X64505256Y-127083314D01*
X63442737Y-126798613D01*
X63727438Y-125736094D01*
G37*
G36*
X63002744Y-128440686D02*
G01*
X64065263Y-128725387D01*
X63780562Y-129787906D01*
X62718043Y-129503205D01*
X63002744Y-128440686D01*
G37*
G04 #@! TD*
G04 #@! TO.C,D57*
G36*
X81798744Y-131742686D02*
G01*
X82861263Y-132027387D01*
X82576562Y-133089906D01*
X81514043Y-132805205D01*
X81798744Y-131742686D01*
G37*
G36*
X82523438Y-129038094D02*
G01*
X83585957Y-129322795D01*
X83301256Y-130385314D01*
X82238737Y-130100613D01*
X82523438Y-129038094D01*
G37*
G04 #@! TD*
G04 #@! TO.C,D58*
G36*
X102081438Y-129546094D02*
G01*
X103143957Y-129830795D01*
X102859256Y-130893314D01*
X101796737Y-130608613D01*
X102081438Y-129546094D01*
G37*
G36*
X101356744Y-132250686D02*
G01*
X102419263Y-132535387D01*
X102134562Y-133597906D01*
X101072043Y-133313205D01*
X101356744Y-132250686D01*
G37*
G04 #@! TD*
G04 #@! TO.C,D59*
G36*
X120044397Y-137158982D02*
G01*
X121106916Y-137443683D01*
X120822215Y-138506202D01*
X119759696Y-138221501D01*
X120044397Y-137158982D01*
G37*
G36*
X120769091Y-134454390D02*
G01*
X121831610Y-134739091D01*
X121546909Y-135801610D01*
X120484390Y-135516909D01*
X120769091Y-134454390D01*
G37*
G04 #@! TD*
G04 #@! TO.C,D60*
G36*
X138549091Y-141566390D02*
G01*
X139611610Y-141851091D01*
X139326909Y-142913610D01*
X138264390Y-142628909D01*
X138549091Y-141566390D01*
G37*
G36*
X137824397Y-144270982D02*
G01*
X138886916Y-144555683D01*
X138602215Y-145618202D01*
X137539696Y-145333501D01*
X137824397Y-144270982D01*
G37*
G04 #@! TD*
G04 #@! TO.C,D61*
G36*
X154696744Y-149776686D02*
G01*
X155759263Y-150061387D01*
X155474562Y-151123906D01*
X154412043Y-150839205D01*
X154696744Y-149776686D01*
G37*
G36*
X155421438Y-147072094D02*
G01*
X156483957Y-147356795D01*
X156199256Y-148419314D01*
X155136737Y-148134613D01*
X155421438Y-147072094D01*
G37*
G04 #@! TD*
D32*
G04 #@! TO.C,D62*
X189738000Y-150238000D03*
X189738000Y-153038000D03*
G04 #@! TD*
G04 #@! TO.C,D63*
X208788000Y-153038000D03*
X208788000Y-150238000D03*
G04 #@! TD*
G04 #@! TO.C,D64*
X227838000Y-150238000D03*
X227838000Y-153038000D03*
G04 #@! TD*
G04 #@! TO.C,D65*
X246888000Y-153038000D03*
X246888000Y-150238000D03*
G04 #@! TD*
D22*
G04 #@! TO.C,D66*
G36*
X280269043Y-141895795D02*
G01*
X281331562Y-141611094D01*
X281616263Y-142673613D01*
X280553744Y-142958314D01*
X280269043Y-141895795D01*
G37*
G36*
X280993737Y-144600387D02*
G01*
X282056256Y-144315686D01*
X282340957Y-145378205D01*
X281278438Y-145662906D01*
X280993737Y-144600387D01*
G37*
G04 #@! TD*
G04 #@! TO.C,D67*
G36*
X298900737Y-137488387D02*
G01*
X299963256Y-137203686D01*
X300247957Y-138266205D01*
X299185438Y-138550906D01*
X298900737Y-137488387D01*
G37*
G36*
X298176043Y-134783795D02*
G01*
X299238562Y-134499094D01*
X299523263Y-135561613D01*
X298460744Y-135846314D01*
X298176043Y-134783795D01*
G37*
G04 #@! TD*
G04 #@! TO.C,D68*
G36*
X316591043Y-129703795D02*
G01*
X317653562Y-129419094D01*
X317938263Y-130481613D01*
X316875744Y-130766314D01*
X316591043Y-129703795D01*
G37*
G36*
X317315737Y-132408387D02*
G01*
X318378256Y-132123686D01*
X318662957Y-133186205D01*
X317600438Y-133470906D01*
X317315737Y-132408387D01*
G37*
G04 #@! TD*
G04 #@! TO.C,D69*
G36*
X337000737Y-132154387D02*
G01*
X338063256Y-131869686D01*
X338347957Y-132932205D01*
X337285438Y-133216906D01*
X337000737Y-132154387D01*
G37*
G36*
X336276043Y-129449795D02*
G01*
X337338562Y-129165094D01*
X337623263Y-130227613D01*
X336560744Y-130512314D01*
X336276043Y-129449795D01*
G37*
G04 #@! TD*
G04 #@! TO.C,D70*
G36*
X355072043Y-126020795D02*
G01*
X356134562Y-125736094D01*
X356419263Y-126798613D01*
X355356744Y-127083314D01*
X355072043Y-126020795D01*
G37*
G36*
X355796737Y-128725387D02*
G01*
X356859256Y-128440686D01*
X357143957Y-129503205D01*
X356081438Y-129787906D01*
X355796737Y-128725387D01*
G37*
G04 #@! TD*
G04 #@! TO.C,D71*
G36*
X374084737Y-123772387D02*
G01*
X375147256Y-123487686D01*
X375431957Y-124550205D01*
X374369438Y-124834906D01*
X374084737Y-123772387D01*
G37*
G36*
X373360043Y-121067795D02*
G01*
X374422562Y-120783094D01*
X374707263Y-121845613D01*
X373644744Y-122130314D01*
X373360043Y-121067795D01*
G37*
G04 #@! TD*
G04 #@! TO.C,D72*
G36*
X390505043Y-115987795D02*
G01*
X391567562Y-115703094D01*
X391852263Y-116765613D01*
X390789744Y-117050314D01*
X390505043Y-115987795D01*
G37*
G36*
X391229737Y-118692387D02*
G01*
X392292256Y-118407686D01*
X392576957Y-119470205D01*
X391514438Y-119754906D01*
X391229737Y-118692387D01*
G37*
G04 #@! TD*
G04 #@! TO.C,D73*
G36*
X40359438Y-138944094D02*
G01*
X41421957Y-139228795D01*
X41137256Y-140291314D01*
X40074737Y-140006613D01*
X40359438Y-138944094D01*
G37*
G36*
X39634744Y-141648686D02*
G01*
X40697263Y-141933387D01*
X40412562Y-142995906D01*
X39350043Y-142711205D01*
X39634744Y-141648686D01*
G37*
G04 #@! TD*
G04 #@! TO.C,D74*
G36*
X58647438Y-144024094D02*
G01*
X59709957Y-144308795D01*
X59425256Y-145371314D01*
X58362737Y-145086613D01*
X58647438Y-144024094D01*
G37*
G36*
X57922744Y-146728686D02*
G01*
X58985263Y-147013387D01*
X58700562Y-148075906D01*
X57638043Y-147791205D01*
X57922744Y-146728686D01*
G37*
G04 #@! TD*
G04 #@! TO.C,D75*
G36*
X76972744Y-150284686D02*
G01*
X78035263Y-150569387D01*
X77750562Y-151631906D01*
X76688043Y-151347205D01*
X76972744Y-150284686D01*
G37*
G36*
X77697438Y-147580094D02*
G01*
X78759957Y-147864795D01*
X78475256Y-148927314D01*
X77412737Y-148642613D01*
X77697438Y-147580094D01*
G37*
G04 #@! TD*
G04 #@! TO.C,D76*
G36*
X97255438Y-147834094D02*
G01*
X98317957Y-148118795D01*
X98033256Y-149181314D01*
X96970737Y-148896613D01*
X97255438Y-147834094D01*
G37*
G36*
X96530744Y-150538686D02*
G01*
X97593263Y-150823387D01*
X97308562Y-151885906D01*
X96246043Y-151601205D01*
X96530744Y-150538686D01*
G37*
G04 #@! TD*
G04 #@! TO.C,D77*
G36*
X115072744Y-155618686D02*
G01*
X116135263Y-155903387D01*
X115850562Y-156965906D01*
X114788043Y-156681205D01*
X115072744Y-155618686D01*
G37*
G36*
X115797438Y-152914094D02*
G01*
X116859957Y-153198795D01*
X116575256Y-154261314D01*
X115512737Y-153976613D01*
X115797438Y-152914094D01*
G37*
G04 #@! TD*
G04 #@! TO.C,D78*
G36*
X133577438Y-160026094D02*
G01*
X134639957Y-160310795D01*
X134355256Y-161373314D01*
X133292737Y-161088613D01*
X133577438Y-160026094D01*
G37*
G36*
X132852744Y-162730686D02*
G01*
X133915263Y-163015387D01*
X133630562Y-164077906D01*
X132568043Y-163793205D01*
X132852744Y-162730686D01*
G37*
G04 #@! TD*
G04 #@! TO.C,D79*
G36*
X151140744Y-162984686D02*
G01*
X152203263Y-163269387D01*
X151918562Y-164331906D01*
X150856043Y-164047205D01*
X151140744Y-162984686D01*
G37*
G36*
X151865438Y-160280094D02*
G01*
X152927957Y-160564795D01*
X152643256Y-161627314D01*
X151580737Y-161342613D01*
X151865438Y-160280094D01*
G37*
G04 #@! TD*
D32*
G04 #@! TO.C,D80*
X189738000Y-169288000D03*
X189738000Y-172088000D03*
G04 #@! TD*
G04 #@! TO.C,D81*
X208788000Y-172088000D03*
X208788000Y-169288000D03*
G04 #@! TD*
G04 #@! TO.C,D82*
X227838000Y-172088000D03*
X227838000Y-169288000D03*
G04 #@! TD*
G04 #@! TO.C,D83*
X246888000Y-172088000D03*
X246888000Y-169288000D03*
G04 #@! TD*
D22*
G04 #@! TO.C,D84*
G36*
X267188043Y-161326795D02*
G01*
X268250562Y-161042094D01*
X268535263Y-162104613D01*
X267472744Y-162389314D01*
X267188043Y-161326795D01*
G37*
G36*
X267912737Y-164031387D02*
G01*
X268975256Y-163746686D01*
X269259957Y-164809205D01*
X268197438Y-165093906D01*
X267912737Y-164031387D01*
G37*
G04 #@! TD*
G04 #@! TO.C,D85*
G36*
X303726737Y-155903387D02*
G01*
X304789256Y-155618686D01*
X305073957Y-156681205D01*
X304011438Y-156965906D01*
X303726737Y-155903387D01*
G37*
G36*
X303002043Y-153198795D02*
G01*
X304064562Y-152914094D01*
X304349263Y-153976613D01*
X303286744Y-154261314D01*
X303002043Y-153198795D01*
G37*
G04 #@! TD*
G04 #@! TO.C,D86*
G36*
X321544043Y-148118795D02*
G01*
X322606562Y-147834094D01*
X322891263Y-148896613D01*
X321828744Y-149181314D01*
X321544043Y-148118795D01*
G37*
G36*
X322268737Y-150823387D02*
G01*
X323331256Y-150538686D01*
X323615957Y-151601205D01*
X322553438Y-151885906D01*
X322268737Y-150823387D01*
G37*
G04 #@! TD*
G04 #@! TO.C,D87*
G36*
X341826737Y-150569387D02*
G01*
X342889256Y-150284686D01*
X343173957Y-151347205D01*
X342111438Y-151631906D01*
X341826737Y-150569387D01*
G37*
G36*
X341102043Y-147864795D02*
G01*
X342164562Y-147580094D01*
X342449263Y-148642613D01*
X341386744Y-148927314D01*
X341102043Y-147864795D01*
G37*
G04 #@! TD*
G04 #@! TO.C,D88*
G36*
X359898043Y-144308795D02*
G01*
X360960562Y-144024094D01*
X361245263Y-145086613D01*
X360182744Y-145371314D01*
X359898043Y-144308795D01*
G37*
G36*
X360622737Y-147013387D02*
G01*
X361685256Y-146728686D01*
X361969957Y-147791205D01*
X360907438Y-148075906D01*
X360622737Y-147013387D01*
G37*
G04 #@! TD*
G04 #@! TO.C,D89*
G36*
X378910737Y-142187387D02*
G01*
X379973256Y-141902686D01*
X380257957Y-142965205D01*
X379195438Y-143249906D01*
X378910737Y-142187387D01*
G37*
G36*
X378186043Y-139482795D02*
G01*
X379248562Y-139198094D01*
X379533263Y-140260613D01*
X378470744Y-140545314D01*
X378186043Y-139482795D01*
G37*
G04 #@! TD*
G04 #@! TO.C,D90*
G36*
X395331043Y-134275795D02*
G01*
X396393562Y-133991094D01*
X396678263Y-135053613D01*
X395615744Y-135338314D01*
X395331043Y-134275795D01*
G37*
G36*
X396055737Y-136980387D02*
G01*
X397118256Y-136695686D01*
X397402957Y-137758205D01*
X396340438Y-138042906D01*
X396055737Y-136980387D01*
G37*
G04 #@! TD*
G04 #@! TO.C,F1*
G36*
G01*
X229403000Y-80599500D02*
X229403000Y-80944500D01*
G75*
G02*
X229255500Y-81092000I-147500J0D01*
G01*
X228960500Y-81092000D01*
G75*
G02*
X228813000Y-80944500I0J147500D01*
G01*
X228813000Y-80599500D01*
G75*
G02*
X228960500Y-80452000I147500J0D01*
G01*
X229255500Y-80452000D01*
G75*
G02*
X229403000Y-80599500I0J-147500D01*
G01*
G37*
G36*
G01*
X228433000Y-80599500D02*
X228433000Y-80944500D01*
G75*
G02*
X228285500Y-81092000I-147500J0D01*
G01*
X227990500Y-81092000D01*
G75*
G02*
X227843000Y-80944500I0J147500D01*
G01*
X227843000Y-80599500D01*
G75*
G02*
X227990500Y-80452000I147500J0D01*
G01*
X228285500Y-80452000D01*
G75*
G02*
X228433000Y-80599500I0J-147500D01*
G01*
G37*
G04 #@! TD*
D33*
G04 #@! TO.C,H1*
X59690000Y-68834000D03*
G04 #@! TD*
G04 #@! TO.C,H2*
X37084000Y-153924000D03*
G04 #@! TD*
G04 #@! TO.C,H3*
X96520000Y-79502000D03*
G04 #@! TD*
G04 #@! TO.C,H4*
X84836000Y-125222000D03*
G04 #@! TD*
G04 #@! TO.C,H5*
X110998000Y-170434000D03*
G04 #@! TD*
G04 #@! TO.C,H6*
X128016000Y-108204000D03*
G04 #@! TD*
G04 #@! TO.C,H7*
X168021000Y-121158000D03*
G04 #@! TD*
G04 #@! TO.C,H8*
X164973000Y-156591000D03*
G04 #@! TD*
G04 #@! TO.C,H9*
X171958000Y-187325000D03*
G04 #@! TD*
G04 #@! TO.C,H10*
X165735000Y-84328000D03*
G04 #@! TD*
G04 #@! TO.C,H11*
X256413000Y-84074000D03*
G04 #@! TD*
G04 #@! TO.C,H12*
X251968000Y-121285000D03*
G04 #@! TD*
G04 #@! TO.C,H13*
X255397000Y-156845000D03*
G04 #@! TD*
G04 #@! TO.C,H14*
X322834000Y-77851000D03*
G04 #@! TD*
G04 #@! TO.C,H15*
X247904000Y-187198000D03*
G04 #@! TD*
G04 #@! TO.C,H16*
X308356000Y-170815000D03*
G04 #@! TD*
G04 #@! TO.C,H17*
X335280000Y-125095000D03*
G04 #@! TD*
G04 #@! TO.C,H18*
X191008000Y-142113000D03*
G04 #@! TD*
G04 #@! TO.C,H19*
X291719000Y-108204000D03*
G04 #@! TD*
G04 #@! TO.C,H20*
X359791000Y-68072000D03*
G04 #@! TD*
G04 #@! TO.C,H21*
X209931000Y-163576000D03*
G04 #@! TD*
G04 #@! TO.C,H22*
X229108000Y-141986000D03*
G04 #@! TD*
G04 #@! TO.C,H23*
X382905000Y-154686000D03*
G04 #@! TD*
G04 #@! TO.C,H24*
X209931000Y-125603000D03*
G04 #@! TD*
D34*
G04 #@! TO.C,C6*
X232283000Y-87672000D03*
X232283000Y-86572000D03*
G04 #@! TD*
D17*
G04 #@! TO.C,SW1*
X46146253Y-68053911D03*
X52937282Y-67243960D03*
D18*
X49169030Y-71493463D03*
D16*
X54075933Y-72808264D03*
X44262127Y-70178662D03*
G04 #@! TD*
D17*
G04 #@! TO.C,SW2*
X64304252Y-74409482D03*
X71095281Y-73599531D03*
D18*
X67327029Y-77849034D03*
D16*
X72233932Y-79163835D03*
X62420126Y-76534233D03*
G04 #@! TD*
D17*
G04 #@! TO.C,SW3*
X83000776Y-77918740D03*
X89791805Y-77108789D03*
D18*
X86023553Y-81358292D03*
D16*
X90930456Y-82673093D03*
X81116650Y-80043491D03*
G04 #@! TD*
G04 #@! TO.C,SW4*
X100827813Y-80312700D03*
X110641619Y-82942302D03*
D18*
X105734716Y-81627501D03*
D17*
X109502968Y-77377998D03*
X102711939Y-78187949D03*
G04 #@! TD*
G04 #@! TO.C,SW5*
X121484483Y-81793648D03*
X128275512Y-80983697D03*
D18*
X124507260Y-85233200D03*
D16*
X129414163Y-86548001D03*
X119600357Y-83918399D03*
G04 #@! TD*
G04 #@! TO.C,SW6*
X137624899Y-90171818D03*
X147438705Y-92801420D03*
D18*
X142531802Y-91486619D03*
D17*
X146300054Y-87237116D03*
X139509025Y-88047067D03*
G04 #@! TD*
G04 #@! TO.C,SW7*
X157249330Y-95295886D03*
X164040359Y-94485935D03*
D18*
X160272107Y-98735438D03*
D16*
X165179010Y-100050239D03*
X155365204Y-97420637D03*
G04 #@! TD*
G04 #@! TO.C,SW8*
X176400027Y-101668860D03*
X186560027Y-101668860D03*
D18*
X181480027Y-101668860D03*
D17*
X184020027Y-96588860D03*
X177670027Y-99128860D03*
G04 #@! TD*
G04 #@! TO.C,SW9*
X196653938Y-99129622D03*
X203003938Y-96589622D03*
D18*
X200463938Y-101669622D03*
D16*
X205543938Y-101669622D03*
X195383938Y-101669622D03*
G04 #@! TD*
G04 #@! TO.C,SW10*
X214388099Y-101669850D03*
X224548099Y-101669850D03*
D18*
X219468099Y-101669850D03*
D17*
X222008099Y-96589850D03*
X215658099Y-99129850D03*
G04 #@! TD*
G04 #@! TO.C,SW11*
X234646946Y-99129702D03*
X240996946Y-96589702D03*
D18*
X238456946Y-101669702D03*
D16*
X243536946Y-101669702D03*
X233376946Y-101669702D03*
G04 #@! TD*
G04 #@! TO.C,SW12*
X254636020Y-100093416D03*
X264449826Y-97463814D03*
D18*
X259542923Y-98778615D03*
D17*
X260681574Y-93214311D03*
X255205345Y-97311264D03*
G04 #@! TD*
D16*
G04 #@! TO.C,SW13*
X272356112Y-92865814D03*
X282169918Y-90236212D03*
D18*
X277263015Y-91551013D03*
D17*
X278401666Y-85986709D03*
X272925437Y-90083662D03*
G04 #@! TD*
D16*
G04 #@! TO.C,SW14*
X290392120Y-86613199D03*
X300205926Y-83983597D03*
D18*
X295299023Y-85298398D03*
D17*
X296437674Y-79734094D03*
X290961445Y-83831047D03*
G04 #@! TD*
G04 #@! TO.C,SW15*
X309746386Y-80248635D03*
X315222615Y-76151682D03*
D18*
X314083964Y-81715986D03*
D16*
X318990867Y-80401185D03*
X309177061Y-83030787D03*
G04 #@! TD*
D17*
G04 #@! TO.C,SW17*
X348180188Y-76464639D03*
X353656417Y-72367686D03*
D18*
X352517766Y-77931990D03*
D16*
X357424669Y-76617189D03*
X347610863Y-79246791D03*
G04 #@! TD*
G04 #@! TO.C,SW18*
X365672558Y-72854502D03*
X375486364Y-70224900D03*
D18*
X370579461Y-71539701D03*
D17*
X371718112Y-65975397D03*
X366241883Y-70072350D03*
G04 #@! TD*
G04 #@! TO.C,SW19*
X41277716Y-86282892D03*
X48068745Y-85472941D03*
D18*
X44300493Y-89722444D03*
D16*
X49207396Y-91037245D03*
X39393590Y-88407643D03*
G04 #@! TD*
G04 #@! TO.C,SW20*
X57523359Y-94800369D03*
X67337165Y-97429971D03*
D18*
X62430262Y-96115170D03*
D17*
X66198514Y-91865667D03*
X59407485Y-92675618D03*
G04 #@! TD*
G04 #@! TO.C,SW21*
X78108394Y-96145623D03*
X84899423Y-95335672D03*
D18*
X81131171Y-99585175D03*
D16*
X86038074Y-100899976D03*
X76224268Y-98270374D03*
G04 #@! TD*
G04 #@! TO.C,SW22*
X95914481Y-98681749D03*
X105728287Y-101311351D03*
D18*
X100821384Y-99996550D03*
D17*
X104589636Y-95747047D03*
X97798607Y-96556998D03*
G04 #@! TD*
G04 #@! TO.C,SW23*
X116502776Y-100210859D03*
X123293805Y-99400908D03*
D18*
X119525553Y-103650411D03*
D16*
X124432456Y-104965212D03*
X114618650Y-102335610D03*
G04 #@! TD*
D17*
G04 #@! TO.C,SW24*
X134578927Y-106443354D03*
X141369956Y-105633403D03*
D18*
X137601704Y-109882906D03*
D16*
X142508607Y-111197707D03*
X132694801Y-108568105D03*
G04 #@! TD*
G04 #@! TO.C,SW25*
X150388051Y-115865979D03*
X160201857Y-118495581D03*
D18*
X155294954Y-117180780D03*
D17*
X159063206Y-112931277D03*
X152272177Y-113741228D03*
G04 #@! TD*
G04 #@! TO.C,SW26*
X177672461Y-118147059D03*
X184022461Y-115607059D03*
D18*
X181482461Y-120687059D03*
D16*
X186562461Y-120687059D03*
X176402461Y-120687059D03*
G04 #@! TD*
G04 #@! TO.C,SW27*
X195389234Y-120688156D03*
X205549234Y-120688156D03*
D18*
X200469234Y-120688156D03*
D17*
X203009234Y-115608156D03*
X196659234Y-118148156D03*
G04 #@! TD*
G04 #@! TO.C,SW28*
X215649244Y-118148139D03*
X221999244Y-115608139D03*
D18*
X219459244Y-120688139D03*
D16*
X224539244Y-120688139D03*
X214379244Y-120688139D03*
G04 #@! TD*
G04 #@! TO.C,SW29*
X233360303Y-120688345D03*
X243520303Y-120688345D03*
D18*
X238440303Y-120688345D03*
D17*
X240980303Y-115608345D03*
X234630303Y-118148345D03*
G04 #@! TD*
G04 #@! TO.C,SW30*
X260114718Y-115782182D03*
X265590947Y-111685229D03*
D18*
X264452296Y-117249533D03*
D16*
X269359199Y-115934732D03*
X259545393Y-118564334D03*
G04 #@! TD*
G04 #@! TO.C,SW31*
X277297506Y-111349037D03*
X287111312Y-108719435D03*
D18*
X282204409Y-110034236D03*
D17*
X283343060Y-104469932D03*
X277866831Y-108566885D03*
G04 #@! TD*
G04 #@! TO.C,SW32*
X295974337Y-102268861D03*
X301450566Y-98171908D03*
D18*
X300311915Y-103736212D03*
D16*
X305218818Y-102421411D03*
X295405012Y-105051013D03*
G04 #@! TD*
G04 #@! TO.C,SW33*
X314097820Y-101375579D03*
X323911626Y-98745977D03*
D18*
X319004723Y-100060778D03*
D17*
X320143374Y-94496474D03*
X314667145Y-98593427D03*
G04 #@! TD*
D16*
G04 #@! TO.C,SW34*
X333770524Y-100980372D03*
X343584330Y-98350770D03*
D18*
X338677427Y-99665571D03*
D17*
X339816078Y-94101267D03*
X334339849Y-98198220D03*
G04 #@! TD*
D16*
G04 #@! TO.C,SW35*
X352518904Y-97516048D03*
X362332710Y-94886446D03*
D18*
X357425807Y-96201247D03*
D17*
X358564458Y-90636943D03*
X353088229Y-94733896D03*
G04 #@! TD*
G04 #@! TO.C,SW36*
X371120045Y-88343221D03*
X376596274Y-84246268D03*
D18*
X375457623Y-89810572D03*
D16*
X380364526Y-88495771D03*
X370550720Y-91125373D03*
G04 #@! TD*
G04 #@! TO.C,SW37*
X34462084Y-106955007D03*
X44275890Y-109584609D03*
D18*
X39368987Y-108269808D03*
D17*
X43137239Y-104020305D03*
X36346210Y-104830256D03*
G04 #@! TD*
G04 #@! TO.C,SW38*
X54396790Y-111248003D03*
X61187819Y-110438052D03*
D18*
X57419567Y-114687555D03*
D16*
X62326470Y-116002356D03*
X52512664Y-113372754D03*
G04 #@! TD*
G04 #@! TO.C,SW39*
X71262379Y-116831009D03*
X81076185Y-119460611D03*
D18*
X76169282Y-118145810D03*
D17*
X79937534Y-113896307D03*
X73146505Y-114706258D03*
G04 #@! TD*
G04 #@! TO.C,SW40*
X92844805Y-114995905D03*
X99635834Y-114185954D03*
D18*
X95867582Y-118435457D03*
D16*
X100774485Y-119750258D03*
X90960679Y-117120656D03*
G04 #@! TD*
G04 #@! TO.C,SW41*
X109641099Y-120755094D03*
X119454905Y-123384696D03*
D18*
X114548002Y-122069895D03*
D17*
X118316254Y-117820392D03*
X111525225Y-118630343D03*
G04 #@! TD*
G04 #@! TO.C,SW42*
X129675863Y-124861040D03*
X136466892Y-124051089D03*
D18*
X132698640Y-128300592D03*
D16*
X137605543Y-129615393D03*
X127791737Y-126985791D03*
G04 #@! TD*
G04 #@! TO.C,SW43*
X145506078Y-134216230D03*
X155319884Y-136845832D03*
D18*
X150412981Y-135531031D03*
D17*
X154181233Y-131281528D03*
X147390204Y-132091479D03*
G04 #@! TD*
G04 #@! TO.C,SW44*
X177669982Y-137157890D03*
X184019982Y-134617890D03*
D18*
X181479982Y-139697890D03*
D16*
X186559982Y-139697890D03*
X176399982Y-139697890D03*
G04 #@! TD*
D17*
G04 #@! TO.C,SW45*
X196671210Y-137149145D03*
X203021210Y-134609145D03*
D18*
X200481210Y-139689145D03*
D16*
X205561210Y-139689145D03*
X195401210Y-139689145D03*
G04 #@! TD*
D17*
G04 #@! TO.C,SW46*
X215647600Y-137137803D03*
X221997600Y-134597803D03*
D18*
X219457600Y-139677803D03*
D16*
X224537600Y-139677803D03*
X214377600Y-139677803D03*
G04 #@! TD*
G04 #@! TO.C,SW47*
X233374704Y-139684832D03*
X243534704Y-139684832D03*
D18*
X238454704Y-139684832D03*
D17*
X240994704Y-134604832D03*
X234644704Y-137144832D03*
G04 #@! TD*
G04 #@! TO.C,SW48*
X265042634Y-134150075D03*
X270518863Y-130053122D03*
D18*
X269380212Y-135617426D03*
D16*
X274287115Y-134302625D03*
X264473309Y-136932227D03*
G04 #@! TD*
G04 #@! TO.C,SW49*
X282227553Y-129718653D03*
X292041359Y-127089051D03*
D18*
X287134456Y-128403852D03*
D17*
X288273107Y-122839548D03*
X282796878Y-126936501D03*
G04 #@! TD*
G04 #@! TO.C,SW50*
X300917299Y-120746759D03*
X306393528Y-116649806D03*
D18*
X305254877Y-122214110D03*
D16*
X310161780Y-120899309D03*
X300347974Y-123528911D03*
G04 #@! TD*
G04 #@! TO.C,SW51*
X319014686Y-119839815D03*
X328828492Y-117210213D03*
D18*
X323921589Y-118525014D03*
D17*
X325060240Y-112960710D03*
X319584011Y-117057663D03*
G04 #@! TD*
G04 #@! TO.C,SW52*
X339291431Y-116751121D03*
X344767660Y-112654168D03*
D18*
X343629009Y-118218472D03*
D16*
X348535912Y-116903671D03*
X338722106Y-119533273D03*
G04 #@! TD*
G04 #@! TO.C,SW53*
X357475482Y-116039785D03*
X367289288Y-113410183D03*
D18*
X362382385Y-114724984D03*
D17*
X363521036Y-109160680D03*
X358044807Y-113257633D03*
G04 #@! TD*
G04 #@! TO.C,SW54*
X376079789Y-106913091D03*
X381556018Y-102816138D03*
D18*
X380417367Y-108380442D03*
D16*
X385324270Y-107065641D03*
X375510464Y-109695243D03*
G04 #@! TD*
G04 #@! TO.C,SW55*
X29524056Y-125344061D03*
X39337862Y-127973663D03*
D18*
X34430959Y-126658862D03*
D17*
X38199211Y-122409359D03*
X31408182Y-123219310D03*
G04 #@! TD*
D16*
G04 #@! TO.C,SW56*
X47578258Y-131707436D03*
X57392064Y-134337038D03*
D18*
X52485161Y-133022237D03*
D17*
X56253413Y-128772734D03*
X49462384Y-129582685D03*
G04 #@! TD*
D16*
G04 #@! TO.C,SW57*
X66347532Y-135173738D03*
X76161338Y-137803340D03*
D18*
X71254435Y-136488539D03*
D17*
X75022687Y-132239036D03*
X68231658Y-133048987D03*
G04 #@! TD*
G04 #@! TO.C,SW58*
X87869393Y-133462023D03*
X94660422Y-132652072D03*
D18*
X90892170Y-136901575D03*
D16*
X95799073Y-138216376D03*
X85985267Y-135586774D03*
G04 #@! TD*
G04 #@! TO.C,SW59*
X104735801Y-139164454D03*
X114549607Y-141794056D03*
D18*
X109642704Y-140479255D03*
D17*
X113410956Y-136229752D03*
X106619927Y-137039703D03*
G04 #@! TD*
G04 #@! TO.C,SW60*
X124720998Y-143326940D03*
X131512027Y-142516989D03*
D18*
X127743775Y-146766492D03*
D16*
X132650678Y-148081293D03*
X122836872Y-145451691D03*
G04 #@! TD*
G04 #@! TO.C,SW61*
X140578953Y-152583550D03*
X150392759Y-155213152D03*
D18*
X145485856Y-153898351D03*
D17*
X149254108Y-149648848D03*
X142463079Y-150458799D03*
G04 #@! TD*
G04 #@! TO.C,SW62*
X177680210Y-156179962D03*
X184030210Y-153639962D03*
D18*
X181490210Y-158719962D03*
D16*
X186570210Y-158719962D03*
X176410210Y-158719962D03*
G04 #@! TD*
G04 #@! TO.C,SW63*
X195401345Y-158720277D03*
X205561345Y-158720277D03*
D18*
X200481345Y-158720277D03*
D17*
X203021345Y-153640277D03*
X196671345Y-156180277D03*
G04 #@! TD*
G04 #@! TO.C,SW64*
X215664685Y-156163844D03*
X222014685Y-153623844D03*
D18*
X219474685Y-158703844D03*
D16*
X224554685Y-158703844D03*
X214394685Y-158703844D03*
G04 #@! TD*
G04 #@! TO.C,SW65*
X233386643Y-158701118D03*
X243546643Y-158701118D03*
D18*
X238466643Y-158701118D03*
D17*
X241006643Y-153621118D03*
X234656643Y-156161118D03*
G04 #@! TD*
G04 #@! TO.C,SW66*
X269978867Y-152505937D03*
X275455096Y-148408984D03*
D18*
X274316445Y-153973288D03*
D16*
X279223348Y-152658487D03*
X269409542Y-155288089D03*
G04 #@! TD*
D17*
G04 #@! TO.C,SW67*
X287724396Y-145350413D03*
X293200625Y-141253460D03*
D18*
X292061974Y-146817764D03*
D16*
X296968877Y-145502963D03*
X287155071Y-148132565D03*
G04 #@! TD*
D17*
G04 #@! TO.C,SW68*
X305846620Y-139079988D03*
X311322849Y-134983035D03*
D18*
X310184198Y-140547339D03*
D16*
X315091101Y-139232538D03*
X305277295Y-141862140D03*
G04 #@! TD*
G04 #@! TO.C,SW69*
X323975292Y-138276752D03*
X333789098Y-135647150D03*
D18*
X328882195Y-136961951D03*
D17*
X330020846Y-131397647D03*
X324544617Y-135494600D03*
G04 #@! TD*
G04 #@! TO.C,SW70*
X344216590Y-135110700D03*
X349692819Y-131013747D03*
D18*
X348554168Y-136578051D03*
D16*
X353461071Y-135263250D03*
X343647265Y-137892852D03*
G04 #@! TD*
G04 #@! TO.C,SW71*
X362422272Y-134387296D03*
X372236078Y-131757694D03*
D18*
X367329175Y-133072495D03*
D17*
X368467826Y-127508191D03*
X362991597Y-131605144D03*
G04 #@! TD*
G04 #@! TO.C,SW72*
X381007144Y-125224592D03*
X386483373Y-121127639D03*
D18*
X385344722Y-126691943D03*
D16*
X390251625Y-125377142D03*
X380437819Y-128006744D03*
G04 #@! TD*
G04 #@! TO.C,SW73*
X24616014Y-143760984D03*
X34429820Y-146390586D03*
D18*
X29522917Y-145075785D03*
D17*
X33291169Y-140826282D03*
X26500140Y-141636233D03*
G04 #@! TD*
G04 #@! TO.C,SW74*
X44504776Y-147944829D03*
X51295805Y-147134878D03*
D18*
X47527553Y-151384381D03*
D16*
X52434456Y-152699182D03*
X42620650Y-150069580D03*
G04 #@! TD*
G04 #@! TO.C,SW75*
X61413434Y-153601170D03*
X71227240Y-156230772D03*
D18*
X66320337Y-154915971D03*
D17*
X70088589Y-150666468D03*
X63297560Y-151476419D03*
G04 #@! TD*
G04 #@! TO.C,SW76*
X82957773Y-151850206D03*
X89748802Y-151040255D03*
D18*
X85980550Y-155289758D03*
D16*
X90887453Y-156604559D03*
X81073647Y-153974957D03*
G04 #@! TD*
G04 #@! TO.C,SW77*
X99804505Y-157557954D03*
X109618311Y-160187556D03*
D18*
X104711408Y-158872755D03*
D17*
X108479660Y-154623252D03*
X101688631Y-155433203D03*
G04 #@! TD*
D16*
G04 #@! TO.C,SW78*
X117897435Y-163821182D03*
X127711241Y-166450784D03*
D18*
X122804338Y-165135983D03*
D17*
X126572590Y-160886480D03*
X119781561Y-161696431D03*
G04 #@! TD*
D16*
G04 #@! TO.C,SW80*
X176424206Y-177722335D03*
X186584206Y-177722335D03*
D18*
X181504206Y-177722335D03*
D17*
X184044206Y-172642335D03*
X177694206Y-175182335D03*
G04 #@! TD*
G04 #@! TO.C,SW81*
X196683711Y-175172896D03*
X203033711Y-172632896D03*
D18*
X200493711Y-177712896D03*
D16*
X205573711Y-177712896D03*
X195413711Y-177712896D03*
G04 #@! TD*
G04 #@! TO.C,SW82*
X214419599Y-177693491D03*
X224579599Y-177693491D03*
D18*
X219499599Y-177693491D03*
D17*
X222039599Y-172613491D03*
X215689599Y-175153491D03*
G04 #@! TD*
G04 #@! TO.C,SW83*
X234652754Y-175142742D03*
X241002754Y-172602742D03*
D18*
X238462754Y-177682742D03*
D16*
X243542754Y-177682742D03*
X233382754Y-177682742D03*
G04 #@! TD*
G04 #@! TO.C,SW85*
X292074117Y-166529373D03*
X301887923Y-163899771D03*
D18*
X296981020Y-165214572D03*
D17*
X298119671Y-159650268D03*
X292643442Y-163747221D03*
G04 #@! TD*
G04 #@! TO.C,SW86*
X310760887Y-157455110D03*
X316237116Y-153358157D03*
D18*
X315098465Y-158922461D03*
D16*
X320005368Y-157607660D03*
X310191562Y-160237262D03*
G04 #@! TD*
G04 #@! TO.C,SW87*
X328912068Y-156684029D03*
X338725874Y-154054427D03*
D18*
X333818971Y-155369228D03*
D17*
X334957622Y-149804924D03*
X329481393Y-153901877D03*
G04 #@! TD*
G04 #@! TO.C,SW88*
X349162593Y-153505619D03*
X354638822Y-149408666D03*
D18*
X353500171Y-154972970D03*
D16*
X358407074Y-153658169D03*
X348593268Y-156287771D03*
G04 #@! TD*
G04 #@! TO.C,SW89*
X367355288Y-152817403D03*
X377169094Y-150187801D03*
D18*
X372262191Y-151502602D03*
D17*
X373400842Y-145938298D03*
X367924613Y-150035251D03*
G04 #@! TD*
G04 #@! TO.C,SW90*
X385942728Y-143638954D03*
X391418957Y-139542001D03*
D18*
X390280306Y-145106305D03*
D16*
X395187209Y-143791504D03*
X385373403Y-146421106D03*
G04 #@! TD*
M02*
