G04 #@! TF.GenerationSoftware,KiCad,Pcbnew,(5.1.10)-1*
G04 #@! TF.CreationDate,2021-10-14T20:39:04+01:00*
G04 #@! TF.ProjectId,superlyra-hs,73757065-726c-4797-9261-2d68732e6b69,0.1*
G04 #@! TF.SameCoordinates,Original*
G04 #@! TF.FileFunction,Legend,Top*
G04 #@! TF.FilePolarity,Positive*
%FSLAX46Y46*%
G04 Gerber Fmt 4.6, Leading zero omitted, Abs format (unit mm)*
G04 Created by KiCad (PCBNEW (5.1.10)-1) date 2021-10-14 20:39:04*
%MOMM*%
%LPD*%
G01*
G04 APERTURE LIST*
%ADD10C,0.153000*%
%ADD11C,0.150000*%
%ADD12C,0.125000*%
%ADD13C,0.010000*%
%ADD14C,0.120000*%
%ADD15C,1.900000*%
%ADD16C,4.000000*%
%ADD17C,1.700000*%
%ADD18C,3.000000*%
%ADD19C,1.800000*%
%ADD20C,3.048000*%
%ADD21C,3.987800*%
%ADD22R,1.900000X0.400000*%
%ADD23R,1.060000X0.650000*%
%ADD24C,0.100000*%
%ADD25R,0.600000X0.500000*%
%ADD26R,1.700000X1.700000*%
%ADD27O,1.700000X1.700000*%
%ADD28O,1.000000X1.600000*%
%ADD29C,0.650000*%
%ADD30O,1.000000X2.100000*%
%ADD31R,0.300000X1.450000*%
%ADD32R,0.600000X1.450000*%
%ADD33R,1.700000X1.000000*%
%ADD34R,1.100000X1.100000*%
%ADD35C,3.500000*%
%ADD36R,0.500000X0.600000*%
G04 APERTURE END LIST*
D10*
X195131658Y-81726277D02*
X195239407Y-81672402D01*
X195374094Y-81537715D01*
X195401032Y-81456903D01*
X195401032Y-81403028D01*
X195374094Y-81322216D01*
X195320219Y-81268341D01*
X195239407Y-81241404D01*
X195185532Y-81241404D01*
X195104720Y-81268341D01*
X194970033Y-81349154D01*
X194889221Y-81376091D01*
X194835346Y-81376091D01*
X194754534Y-81349154D01*
X194700659Y-81295279D01*
X194673722Y-81214467D01*
X194673722Y-81160592D01*
X194700659Y-81079780D01*
X194835346Y-80945093D01*
X194943096Y-80891218D01*
X195993654Y-80810406D02*
X195993654Y-80864280D01*
X195939780Y-80972030D01*
X195885905Y-81025905D01*
X195778155Y-81079780D01*
X195670406Y-81079780D01*
X195589593Y-81052842D01*
X195454906Y-80972030D01*
X195374094Y-80891218D01*
X195293282Y-80756531D01*
X195266345Y-80675719D01*
X195266345Y-80567969D01*
X195320219Y-80460219D01*
X195374094Y-80406345D01*
X195481844Y-80352470D01*
X195535719Y-80352470D01*
X196289966Y-80621844D02*
X195724280Y-80056158D01*
X196613215Y-80298595D02*
X196047529Y-80217783D01*
X196047529Y-79732910D02*
X196047529Y-80379407D01*
X194816971Y-84444839D02*
X194251285Y-83879154D01*
X194843908Y-84094653D01*
X194628409Y-83502030D01*
X195194094Y-84067715D01*
X195005532Y-83124906D02*
X195113282Y-83017157D01*
X195194094Y-82990219D01*
X195301844Y-82990219D01*
X195436531Y-83071032D01*
X195625093Y-83259593D01*
X195705905Y-83394280D01*
X195705905Y-83502030D01*
X195678967Y-83582842D01*
X195571218Y-83690592D01*
X195490406Y-83717529D01*
X195382656Y-83717529D01*
X195247969Y-83636717D01*
X195059407Y-83448155D01*
X194978595Y-83313468D01*
X194978595Y-83205719D01*
X195005532Y-83124906D01*
X196002216Y-83205719D02*
X196109966Y-83151844D01*
X196244653Y-83017157D01*
X196271590Y-82936345D01*
X196271590Y-82882470D01*
X196244653Y-82801658D01*
X196190778Y-82747783D01*
X196109966Y-82720845D01*
X196056091Y-82720845D01*
X195975279Y-82747783D01*
X195840592Y-82828595D01*
X195759780Y-82855532D01*
X195705905Y-82855532D01*
X195625093Y-82828595D01*
X195571218Y-82774720D01*
X195544280Y-82693908D01*
X195544280Y-82640033D01*
X195571218Y-82559221D01*
X195705905Y-82424534D01*
X195813654Y-82370659D01*
X196594839Y-82666971D02*
X196029154Y-82101285D01*
D11*
X195756125Y-78795685D02*
X195298189Y-78714873D01*
X195432876Y-79118934D02*
X194867190Y-78553248D01*
X195082690Y-78337749D01*
X195163502Y-78310812D01*
X195217377Y-78310812D01*
X195298189Y-78337749D01*
X195379001Y-78418561D01*
X195405938Y-78499374D01*
X195405938Y-78553248D01*
X195379001Y-78634061D01*
X195163502Y-78849560D01*
X195944687Y-78553248D02*
X196052436Y-78499374D01*
X196187123Y-78364687D01*
X196214061Y-78283874D01*
X196214061Y-78230000D01*
X196187123Y-78149187D01*
X196133248Y-78095312D01*
X196052436Y-78068375D01*
X195998561Y-78068375D01*
X195917749Y-78095312D01*
X195783062Y-78176125D01*
X195702250Y-78203062D01*
X195648375Y-78203062D01*
X195567563Y-78176125D01*
X195513688Y-78122250D01*
X195486751Y-78041438D01*
X195486751Y-77987563D01*
X195513688Y-77906751D01*
X195648375Y-77772064D01*
X195756125Y-77718189D01*
X195890812Y-77529627D02*
X196214061Y-77206378D01*
X196618122Y-77933688D02*
X196052436Y-77368003D01*
D10*
X202635972Y-83934467D02*
X203390219Y-84311590D01*
X203013096Y-83557343D01*
X204036717Y-83557343D02*
X204036717Y-83611218D01*
X203982842Y-83718967D01*
X203928967Y-83772842D01*
X203821218Y-83826717D01*
X203713468Y-83826717D01*
X203632656Y-83799780D01*
X203497969Y-83718967D01*
X203417157Y-83638155D01*
X203336345Y-83503468D01*
X203309407Y-83422656D01*
X203309407Y-83314906D01*
X203363282Y-83207157D01*
X203417157Y-83153282D01*
X203524906Y-83099407D01*
X203578781Y-83099407D01*
X204602402Y-82991658D02*
X204602402Y-83045532D01*
X204548528Y-83153282D01*
X204494653Y-83207157D01*
X204386903Y-83261032D01*
X204279154Y-83261032D01*
X204198341Y-83234094D01*
X204063654Y-83153282D01*
X203982842Y-83072470D01*
X203902030Y-82937783D01*
X203875093Y-82856971D01*
X203875093Y-82749221D01*
X203928967Y-82641471D01*
X203982842Y-82587597D01*
X204090592Y-82533722D01*
X204144467Y-82533722D01*
X203166971Y-81824839D02*
X202601285Y-81259154D01*
X203193908Y-81474653D01*
X202978409Y-80882030D01*
X203544094Y-81447715D01*
X203813468Y-81178341D02*
X203247783Y-80612656D01*
X204028967Y-80908967D02*
X204136717Y-80855093D01*
X204271404Y-80720406D01*
X204298341Y-80639593D01*
X204298341Y-80585719D01*
X204271404Y-80504906D01*
X204217529Y-80451032D01*
X204136717Y-80424094D01*
X204082842Y-80424094D01*
X204002030Y-80451032D01*
X203867343Y-80531844D01*
X203786531Y-80558781D01*
X203732656Y-80558781D01*
X203651844Y-80531844D01*
X203597969Y-80477969D01*
X203571032Y-80397157D01*
X203571032Y-80343282D01*
X203597969Y-80262470D01*
X203732656Y-80127783D01*
X203840406Y-80073908D01*
X204163654Y-79696784D02*
X204271404Y-79589035D01*
X204352216Y-79562097D01*
X204459966Y-79562097D01*
X204594653Y-79642910D01*
X204783215Y-79831471D01*
X204864027Y-79966158D01*
X204864027Y-80073908D01*
X204837089Y-80154720D01*
X204729340Y-80262470D01*
X204648528Y-80289407D01*
X204540778Y-80289407D01*
X204406091Y-80208595D01*
X204217529Y-80020033D01*
X204136717Y-79885346D01*
X204136717Y-79777597D01*
X204163654Y-79696784D01*
X202846158Y-78388155D02*
X202765346Y-78415093D01*
X202684534Y-78495905D01*
X202630659Y-78603654D01*
X202630659Y-78711404D01*
X202657597Y-78792216D01*
X202738409Y-78926903D01*
X202819221Y-79007715D01*
X202953908Y-79088528D01*
X203034720Y-79115465D01*
X203142470Y-79115465D01*
X203250219Y-79061590D01*
X203304094Y-79007715D01*
X203357969Y-78899966D01*
X203357969Y-78846091D01*
X203169407Y-78657529D01*
X203061658Y-78765279D01*
X203654280Y-78657529D02*
X203088595Y-78091844D01*
X203977529Y-78334280D01*
X203411844Y-77768595D01*
X204246903Y-78064906D02*
X203681218Y-77499221D01*
X203815905Y-77364534D01*
X203923654Y-77310659D01*
X204031404Y-77310659D01*
X204112216Y-77337597D01*
X204246903Y-77418409D01*
X204327715Y-77499221D01*
X204408528Y-77633908D01*
X204435465Y-77714720D01*
X204435465Y-77822470D01*
X204381590Y-77930219D01*
X204246903Y-78064906D01*
X187517142Y-83881904D02*
X187250476Y-83500952D01*
X187060000Y-83881904D02*
X187060000Y-83081904D01*
X187364761Y-83081904D01*
X187440952Y-83120000D01*
X187479047Y-83158095D01*
X187517142Y-83234285D01*
X187517142Y-83348571D01*
X187479047Y-83424761D01*
X187440952Y-83462857D01*
X187364761Y-83500952D01*
X187060000Y-83500952D01*
X187860000Y-83462857D02*
X188126666Y-83462857D01*
X188240952Y-83881904D02*
X187860000Y-83881904D01*
X187860000Y-83081904D01*
X188240952Y-83081904D01*
X188545714Y-83843809D02*
X188660000Y-83881904D01*
X188850476Y-83881904D01*
X188926666Y-83843809D01*
X188964761Y-83805714D01*
X189002857Y-83729523D01*
X189002857Y-83653333D01*
X188964761Y-83577142D01*
X188926666Y-83539047D01*
X188850476Y-83500952D01*
X188698095Y-83462857D01*
X188621904Y-83424761D01*
X188583809Y-83386666D01*
X188545714Y-83310476D01*
X188545714Y-83234285D01*
X188583809Y-83158095D01*
X188621904Y-83120000D01*
X188698095Y-83081904D01*
X188888571Y-83081904D01*
X189002857Y-83120000D01*
X189345714Y-83462857D02*
X189612380Y-83462857D01*
X189726666Y-83881904D02*
X189345714Y-83881904D01*
X189345714Y-83081904D01*
X189726666Y-83081904D01*
X189955238Y-83081904D02*
X190412380Y-83081904D01*
X190183809Y-83881904D02*
X190183809Y-83081904D01*
X191288571Y-83881904D02*
X191288571Y-83081904D01*
X191555238Y-83653333D01*
X191821904Y-83081904D01*
X191821904Y-83881904D01*
X192660000Y-83805714D02*
X192621904Y-83843809D01*
X192507619Y-83881904D01*
X192431428Y-83881904D01*
X192317142Y-83843809D01*
X192240952Y-83767619D01*
X192202857Y-83691428D01*
X192164761Y-83539047D01*
X192164761Y-83424761D01*
X192202857Y-83272380D01*
X192240952Y-83196190D01*
X192317142Y-83120000D01*
X192431428Y-83081904D01*
X192507619Y-83081904D01*
X192621904Y-83120000D01*
X192660000Y-83158095D01*
X193002857Y-83081904D02*
X193002857Y-83729523D01*
X193040952Y-83805714D01*
X193079047Y-83843809D01*
X193155238Y-83881904D01*
X193307619Y-83881904D01*
X193383809Y-83843809D01*
X193421904Y-83805714D01*
X193460000Y-83729523D01*
X193460000Y-83081904D01*
D12*
X175594000Y-92010666D02*
X175594000Y-91310666D01*
X175594000Y-91577333D02*
X175660666Y-91544000D01*
X175794000Y-91544000D01*
X175860666Y-91577333D01*
X175894000Y-91610666D01*
X175927333Y-91677333D01*
X175927333Y-91877333D01*
X175894000Y-91944000D01*
X175860666Y-91977333D01*
X175794000Y-92010666D01*
X175660666Y-92010666D01*
X175594000Y-91977333D01*
X176160666Y-91544000D02*
X176327333Y-92010666D01*
X176494000Y-91544000D02*
X176327333Y-92010666D01*
X176260666Y-92177333D01*
X176227333Y-92210666D01*
X176160666Y-92244000D01*
X177294000Y-92010666D02*
X177294000Y-91310666D01*
X177460666Y-91310666D01*
X177560666Y-91344000D01*
X177627333Y-91410666D01*
X177660666Y-91477333D01*
X177694000Y-91610666D01*
X177694000Y-91710666D01*
X177660666Y-91844000D01*
X177627333Y-91910666D01*
X177560666Y-91977333D01*
X177460666Y-92010666D01*
X177294000Y-92010666D01*
X178094000Y-92010666D02*
X178027333Y-91977333D01*
X177994000Y-91944000D01*
X177960666Y-91877333D01*
X177960666Y-91677333D01*
X177994000Y-91610666D01*
X178027333Y-91577333D01*
X178094000Y-91544000D01*
X178194000Y-91544000D01*
X178260666Y-91577333D01*
X178294000Y-91610666D01*
X178327333Y-91677333D01*
X178327333Y-91877333D01*
X178294000Y-91944000D01*
X178260666Y-91977333D01*
X178194000Y-92010666D01*
X178094000Y-92010666D01*
X178627333Y-92010666D02*
X178627333Y-91544000D01*
X178627333Y-91610666D02*
X178660666Y-91577333D01*
X178727333Y-91544000D01*
X178827333Y-91544000D01*
X178894000Y-91577333D01*
X178927333Y-91644000D01*
X178927333Y-92010666D01*
X178927333Y-91644000D02*
X178960666Y-91577333D01*
X179027333Y-91544000D01*
X179127333Y-91544000D01*
X179194000Y-91577333D01*
X179227333Y-91644000D01*
X179227333Y-92010666D01*
X179860666Y-92010666D02*
X179860666Y-91644000D01*
X179827333Y-91577333D01*
X179760666Y-91544000D01*
X179627333Y-91544000D01*
X179560666Y-91577333D01*
X179860666Y-91977333D02*
X179794000Y-92010666D01*
X179627333Y-92010666D01*
X179560666Y-91977333D01*
X179527333Y-91910666D01*
X179527333Y-91844000D01*
X179560666Y-91777333D01*
X179627333Y-91744000D01*
X179794000Y-91744000D01*
X179860666Y-91710666D01*
X180194000Y-91544000D02*
X180194000Y-92010666D01*
X180194000Y-91610666D02*
X180227333Y-91577333D01*
X180294000Y-91544000D01*
X180394000Y-91544000D01*
X180460666Y-91577333D01*
X180494000Y-91644000D01*
X180494000Y-92010666D01*
X180827333Y-92010666D02*
X180827333Y-91544000D01*
X180827333Y-91310666D02*
X180794000Y-91344000D01*
X180827333Y-91377333D01*
X180860666Y-91344000D01*
X180827333Y-91310666D01*
X180827333Y-91377333D01*
X181460666Y-91977333D02*
X181394000Y-92010666D01*
X181260666Y-92010666D01*
X181194000Y-91977333D01*
X181160666Y-91944000D01*
X181127333Y-91877333D01*
X181127333Y-91677333D01*
X181160666Y-91610666D01*
X181194000Y-91577333D01*
X181260666Y-91544000D01*
X181394000Y-91544000D01*
X181460666Y-91577333D01*
X182694000Y-91944000D02*
X182660666Y-91977333D01*
X182560666Y-92010666D01*
X182494000Y-92010666D01*
X182394000Y-91977333D01*
X182327333Y-91910666D01*
X182294000Y-91844000D01*
X182260666Y-91710666D01*
X182260666Y-91610666D01*
X182294000Y-91477333D01*
X182327333Y-91410666D01*
X182394000Y-91344000D01*
X182494000Y-91310666D01*
X182560666Y-91310666D01*
X182660666Y-91344000D01*
X182694000Y-91377333D01*
X183294000Y-92010666D02*
X183294000Y-91644000D01*
X183260666Y-91577333D01*
X183194000Y-91544000D01*
X183060666Y-91544000D01*
X182994000Y-91577333D01*
X183294000Y-91977333D02*
X183227333Y-92010666D01*
X183060666Y-92010666D01*
X182994000Y-91977333D01*
X182960666Y-91910666D01*
X182960666Y-91844000D01*
X182994000Y-91777333D01*
X183060666Y-91744000D01*
X183227333Y-91744000D01*
X183294000Y-91710666D01*
X183727333Y-92010666D02*
X183660666Y-91977333D01*
X183627333Y-91910666D01*
X183627333Y-91310666D01*
X184094000Y-92010666D02*
X184027333Y-91977333D01*
X183994000Y-91910666D01*
X183994000Y-91310666D01*
X184627333Y-91977333D02*
X184560666Y-92010666D01*
X184427333Y-92010666D01*
X184360666Y-91977333D01*
X184327333Y-91910666D01*
X184327333Y-91644000D01*
X184360666Y-91577333D01*
X184427333Y-91544000D01*
X184560666Y-91544000D01*
X184627333Y-91577333D01*
X184660666Y-91644000D01*
X184660666Y-91710666D01*
X184327333Y-91777333D01*
X184960666Y-91544000D02*
X184960666Y-92144000D01*
X184927333Y-92210666D01*
X184860666Y-92244000D01*
X184827333Y-92244000D01*
X184960666Y-91310666D02*
X184927333Y-91344000D01*
X184960666Y-91377333D01*
X184994000Y-91344000D01*
X184960666Y-91310666D01*
X184960666Y-91377333D01*
X185594000Y-92010666D02*
X185594000Y-91644000D01*
X185560666Y-91577333D01*
X185494000Y-91544000D01*
X185360666Y-91544000D01*
X185294000Y-91577333D01*
X185594000Y-91977333D02*
X185527333Y-92010666D01*
X185360666Y-92010666D01*
X185294000Y-91977333D01*
X185260666Y-91910666D01*
X185260666Y-91844000D01*
X185294000Y-91777333D01*
X185360666Y-91744000D01*
X185527333Y-91744000D01*
X185594000Y-91710666D01*
D13*
G36*
X176956453Y-88125955D02*
G01*
X177282818Y-88334945D01*
X177507670Y-88667618D01*
X177619841Y-89110974D01*
X177630667Y-89323333D01*
X177550865Y-89831568D01*
X177328136Y-90300905D01*
X176987491Y-90689832D01*
X176682371Y-90897226D01*
X176328020Y-91006593D01*
X175943103Y-91007015D01*
X175594800Y-90903287D01*
X175449827Y-90809252D01*
X175203329Y-90601838D01*
X175100232Y-91296086D01*
X175037242Y-91715813D01*
X174984820Y-91996450D01*
X174925659Y-92165930D01*
X174842456Y-92252188D01*
X174717907Y-92283156D01*
X174534708Y-92286769D01*
X174486589Y-92286667D01*
X174236046Y-92278492D01*
X174118341Y-92244631D01*
X174097384Y-92171078D01*
X174104756Y-92138500D01*
X174130230Y-92015068D01*
X174178877Y-91750317D01*
X174246174Y-91369984D01*
X174327598Y-90899803D01*
X174418625Y-90365509D01*
X174469378Y-90064167D01*
X174542381Y-89628986D01*
X175419503Y-89628986D01*
X175458356Y-89918368D01*
X175569455Y-90099833D01*
X175782893Y-90222876D01*
X176060568Y-90242971D01*
X176331968Y-90159721D01*
X176414257Y-90104618D01*
X176647604Y-89841911D01*
X176765148Y-89551766D01*
X176772095Y-89269163D01*
X176673653Y-89029083D01*
X176475028Y-88866509D01*
X176222353Y-88815334D01*
X175918962Y-88886383D01*
X175670336Y-89072602D01*
X175497006Y-89333600D01*
X175419503Y-89628986D01*
X174542381Y-89628986D01*
X174792500Y-88138000D01*
X175195583Y-88138000D01*
X175455464Y-88153186D01*
X175578209Y-88204980D01*
X175598667Y-88263756D01*
X175624258Y-88330855D01*
X175724217Y-88306382D01*
X175873833Y-88221739D01*
X176210008Y-88091919D01*
X176539748Y-88053650D01*
X176956453Y-88125955D01*
G37*
X176956453Y-88125955D02*
X177282818Y-88334945D01*
X177507670Y-88667618D01*
X177619841Y-89110974D01*
X177630667Y-89323333D01*
X177550865Y-89831568D01*
X177328136Y-90300905D01*
X176987491Y-90689832D01*
X176682371Y-90897226D01*
X176328020Y-91006593D01*
X175943103Y-91007015D01*
X175594800Y-90903287D01*
X175449827Y-90809252D01*
X175203329Y-90601838D01*
X175100232Y-91296086D01*
X175037242Y-91715813D01*
X174984820Y-91996450D01*
X174925659Y-92165930D01*
X174842456Y-92252188D01*
X174717907Y-92283156D01*
X174534708Y-92286769D01*
X174486589Y-92286667D01*
X174236046Y-92278492D01*
X174118341Y-92244631D01*
X174097384Y-92171078D01*
X174104756Y-92138500D01*
X174130230Y-92015068D01*
X174178877Y-91750317D01*
X174246174Y-91369984D01*
X174327598Y-90899803D01*
X174418625Y-90365509D01*
X174469378Y-90064167D01*
X174542381Y-89628986D01*
X175419503Y-89628986D01*
X175458356Y-89918368D01*
X175569455Y-90099833D01*
X175782893Y-90222876D01*
X176060568Y-90242971D01*
X176331968Y-90159721D01*
X176414257Y-90104618D01*
X176647604Y-89841911D01*
X176765148Y-89551766D01*
X176772095Y-89269163D01*
X176673653Y-89029083D01*
X176475028Y-88866509D01*
X176222353Y-88815334D01*
X175918962Y-88886383D01*
X175670336Y-89072602D01*
X175497006Y-89333600D01*
X175419503Y-89628986D01*
X174542381Y-89628986D01*
X174792500Y-88138000D01*
X175195583Y-88138000D01*
X175455464Y-88153186D01*
X175578209Y-88204980D01*
X175598667Y-88263756D01*
X175624258Y-88330855D01*
X175724217Y-88306382D01*
X175873833Y-88221739D01*
X176210008Y-88091919D01*
X176539748Y-88053650D01*
X176956453Y-88125955D01*
G36*
X187243539Y-88861322D02*
G01*
X187318089Y-89190325D01*
X187387318Y-89450137D01*
X187440050Y-89600463D01*
X187454259Y-89621063D01*
X187516475Y-89567170D01*
X187637807Y-89392855D01*
X187798847Y-89127722D01*
X187927093Y-88899767D01*
X188341000Y-88142053D01*
X188792555Y-88140027D01*
X189036962Y-88149754D01*
X189188818Y-88176952D01*
X189215889Y-88202911D01*
X189166389Y-88289748D01*
X189040829Y-88502299D01*
X188850697Y-88821337D01*
X188607484Y-89227635D01*
X188322680Y-89701963D01*
X188007774Y-90225094D01*
X187976341Y-90277245D01*
X186765015Y-92286667D01*
X186346507Y-92286667D01*
X186106526Y-92279505D01*
X185955133Y-92261216D01*
X185928000Y-92247310D01*
X185969247Y-92163302D01*
X186080937Y-91966245D01*
X186244995Y-91687445D01*
X186403615Y-91423593D01*
X186879231Y-90639232D01*
X186559099Y-89494450D01*
X186440489Y-89072247D01*
X186336164Y-88704514D01*
X186255520Y-88424106D01*
X186207953Y-88263875D01*
X186201425Y-88243834D01*
X186232101Y-88178806D01*
X186395677Y-88145333D01*
X186627814Y-88138000D01*
X187091746Y-88138000D01*
X187243539Y-88861322D01*
G37*
X187243539Y-88861322D02*
X187318089Y-89190325D01*
X187387318Y-89450137D01*
X187440050Y-89600463D01*
X187454259Y-89621063D01*
X187516475Y-89567170D01*
X187637807Y-89392855D01*
X187798847Y-89127722D01*
X187927093Y-88899767D01*
X188341000Y-88142053D01*
X188792555Y-88140027D01*
X189036962Y-88149754D01*
X189188818Y-88176952D01*
X189215889Y-88202911D01*
X189166389Y-88289748D01*
X189040829Y-88502299D01*
X188850697Y-88821337D01*
X188607484Y-89227635D01*
X188322680Y-89701963D01*
X188007774Y-90225094D01*
X187976341Y-90277245D01*
X186765015Y-92286667D01*
X186346507Y-92286667D01*
X186106526Y-92279505D01*
X185955133Y-92261216D01*
X185928000Y-92247310D01*
X185969247Y-92163302D01*
X186080937Y-91966245D01*
X186244995Y-91687445D01*
X186403615Y-91423593D01*
X186879231Y-90639232D01*
X186559099Y-89494450D01*
X186440489Y-89072247D01*
X186336164Y-88704514D01*
X186255520Y-88424106D01*
X186207953Y-88263875D01*
X186201425Y-88243834D01*
X186232101Y-88178806D01*
X186395677Y-88145333D01*
X186627814Y-88138000D01*
X187091746Y-88138000D01*
X187243539Y-88861322D01*
G36*
X169918022Y-86572393D02*
G01*
X170199699Y-86645636D01*
X170447333Y-86794520D01*
X170664875Y-86991928D01*
X170857545Y-87199148D01*
X170988780Y-87368128D01*
X171026667Y-87447806D01*
X170957610Y-87539469D01*
X170783137Y-87662058D01*
X170683424Y-87717001D01*
X170340181Y-87892111D01*
X170099121Y-87634055D01*
X169828026Y-87436739D01*
X169532754Y-87369776D01*
X169258527Y-87437254D01*
X169121355Y-87545677D01*
X169019674Y-87741430D01*
X169074209Y-87938108D01*
X169288934Y-88141450D01*
X169667820Y-88357197D01*
X169690645Y-88368174D01*
X170144168Y-88620747D01*
X170448376Y-88883784D01*
X170622733Y-89181451D01*
X170686703Y-89537914D01*
X170688000Y-89606509D01*
X170654413Y-89967841D01*
X170536187Y-90262457D01*
X170473451Y-90361762D01*
X170157830Y-90689518D01*
X169744449Y-90924952D01*
X169282222Y-91051964D01*
X168820063Y-91054454D01*
X168564680Y-90990051D01*
X168131072Y-90779582D01*
X167810011Y-90501245D01*
X167742191Y-90418209D01*
X167572710Y-90168342D01*
X167530092Y-89990705D01*
X167619536Y-89839751D01*
X167826089Y-89683195D01*
X168041661Y-89551803D01*
X168159647Y-89516639D01*
X168214847Y-89568352D01*
X168218209Y-89577807D01*
X168348818Y-89795589D01*
X168568445Y-90011826D01*
X168819465Y-90180154D01*
X169044251Y-90254204D01*
X169059448Y-90254667D01*
X169325595Y-90195970D01*
X169564031Y-90047268D01*
X169722041Y-89849644D01*
X169756667Y-89711311D01*
X169712637Y-89529514D01*
X169564898Y-89359756D01*
X169289976Y-89179812D01*
X169079333Y-89070071D01*
X168782807Y-88896249D01*
X168499754Y-88688115D01*
X168424047Y-88621118D01*
X168181541Y-88296356D01*
X168086187Y-87947208D01*
X168122189Y-87595339D01*
X168273747Y-87262413D01*
X168525065Y-86970095D01*
X168860343Y-86740050D01*
X169263783Y-86593941D01*
X169719587Y-86553434D01*
X169918022Y-86572393D01*
G37*
X169918022Y-86572393D02*
X170199699Y-86645636D01*
X170447333Y-86794520D01*
X170664875Y-86991928D01*
X170857545Y-87199148D01*
X170988780Y-87368128D01*
X171026667Y-87447806D01*
X170957610Y-87539469D01*
X170783137Y-87662058D01*
X170683424Y-87717001D01*
X170340181Y-87892111D01*
X170099121Y-87634055D01*
X169828026Y-87436739D01*
X169532754Y-87369776D01*
X169258527Y-87437254D01*
X169121355Y-87545677D01*
X169019674Y-87741430D01*
X169074209Y-87938108D01*
X169288934Y-88141450D01*
X169667820Y-88357197D01*
X169690645Y-88368174D01*
X170144168Y-88620747D01*
X170448376Y-88883784D01*
X170622733Y-89181451D01*
X170686703Y-89537914D01*
X170688000Y-89606509D01*
X170654413Y-89967841D01*
X170536187Y-90262457D01*
X170473451Y-90361762D01*
X170157830Y-90689518D01*
X169744449Y-90924952D01*
X169282222Y-91051964D01*
X168820063Y-91054454D01*
X168564680Y-90990051D01*
X168131072Y-90779582D01*
X167810011Y-90501245D01*
X167742191Y-90418209D01*
X167572710Y-90168342D01*
X167530092Y-89990705D01*
X167619536Y-89839751D01*
X167826089Y-89683195D01*
X168041661Y-89551803D01*
X168159647Y-89516639D01*
X168214847Y-89568352D01*
X168218209Y-89577807D01*
X168348818Y-89795589D01*
X168568445Y-90011826D01*
X168819465Y-90180154D01*
X169044251Y-90254204D01*
X169059448Y-90254667D01*
X169325595Y-90195970D01*
X169564031Y-90047268D01*
X169722041Y-89849644D01*
X169756667Y-89711311D01*
X169712637Y-89529514D01*
X169564898Y-89359756D01*
X169289976Y-89179812D01*
X169079333Y-89070071D01*
X168782807Y-88896249D01*
X168499754Y-88688115D01*
X168424047Y-88621118D01*
X168181541Y-88296356D01*
X168086187Y-87947208D01*
X168122189Y-87595339D01*
X168273747Y-87262413D01*
X168525065Y-86970095D01*
X168860343Y-86740050D01*
X169263783Y-86593941D01*
X169719587Y-86553434D01*
X169918022Y-86572393D01*
G36*
X173728568Y-88138000D02*
G01*
X174133059Y-88138000D01*
X173933897Y-89344500D01*
X173843635Y-89897090D01*
X173775095Y-90305028D01*
X173718587Y-90590056D01*
X173664422Y-90773917D01*
X173602909Y-90878353D01*
X173524359Y-90925106D01*
X173419081Y-90935919D01*
X173277385Y-90932534D01*
X173226387Y-90932000D01*
X172985434Y-90916324D01*
X172832781Y-90876258D01*
X172804667Y-90845159D01*
X172740629Y-90818791D01*
X172578085Y-90875818D01*
X172554871Y-90887493D01*
X172163772Y-91012409D01*
X171795187Y-90982577D01*
X171476901Y-90800954D01*
X171443487Y-90769180D01*
X171322070Y-90627969D01*
X171244130Y-90472141D01*
X171208115Y-90272385D01*
X171212477Y-89999392D01*
X171255664Y-89623851D01*
X171336127Y-89116452D01*
X171351342Y-89027000D01*
X171496160Y-88180334D01*
X171949126Y-88154382D01*
X172209165Y-88143930D01*
X172337661Y-88161727D01*
X172371927Y-88223364D01*
X172354388Y-88323716D01*
X172284330Y-88647271D01*
X172216883Y-89021642D01*
X172157869Y-89404956D01*
X172113110Y-89755341D01*
X172088429Y-90030927D01*
X172089647Y-90189840D01*
X172093092Y-90202891D01*
X172221886Y-90310299D01*
X172430773Y-90339334D01*
X172634061Y-90308788D01*
X172789706Y-90201730D01*
X172911281Y-89995024D01*
X173012361Y-89665535D01*
X173106519Y-89190128D01*
X173107123Y-89186596D01*
X173181493Y-88753160D01*
X173240125Y-88459107D01*
X173298993Y-88277481D01*
X173374073Y-88181327D01*
X173481339Y-88143691D01*
X173636766Y-88137617D01*
X173728568Y-88138000D01*
G37*
X173728568Y-88138000D02*
X174133059Y-88138000D01*
X173933897Y-89344500D01*
X173843635Y-89897090D01*
X173775095Y-90305028D01*
X173718587Y-90590056D01*
X173664422Y-90773917D01*
X173602909Y-90878353D01*
X173524359Y-90925106D01*
X173419081Y-90935919D01*
X173277385Y-90932534D01*
X173226387Y-90932000D01*
X172985434Y-90916324D01*
X172832781Y-90876258D01*
X172804667Y-90845159D01*
X172740629Y-90818791D01*
X172578085Y-90875818D01*
X172554871Y-90887493D01*
X172163772Y-91012409D01*
X171795187Y-90982577D01*
X171476901Y-90800954D01*
X171443487Y-90769180D01*
X171322070Y-90627969D01*
X171244130Y-90472141D01*
X171208115Y-90272385D01*
X171212477Y-89999392D01*
X171255664Y-89623851D01*
X171336127Y-89116452D01*
X171351342Y-89027000D01*
X171496160Y-88180334D01*
X171949126Y-88154382D01*
X172209165Y-88143930D01*
X172337661Y-88161727D01*
X172371927Y-88223364D01*
X172354388Y-88323716D01*
X172284330Y-88647271D01*
X172216883Y-89021642D01*
X172157869Y-89404956D01*
X172113110Y-89755341D01*
X172088429Y-90030927D01*
X172089647Y-90189840D01*
X172093092Y-90202891D01*
X172221886Y-90310299D01*
X172430773Y-90339334D01*
X172634061Y-90308788D01*
X172789706Y-90201730D01*
X172911281Y-89995024D01*
X173012361Y-89665535D01*
X173106519Y-89190128D01*
X173107123Y-89186596D01*
X173181493Y-88753160D01*
X173240125Y-88459107D01*
X173298993Y-88277481D01*
X173374073Y-88181327D01*
X173481339Y-88143691D01*
X173636766Y-88137617D01*
X173728568Y-88138000D01*
G36*
X180176981Y-88121888D02*
G01*
X180543993Y-88313585D01*
X180802511Y-88610367D01*
X180930561Y-88993859D01*
X180937972Y-89069334D01*
X180956697Y-89345537D01*
X180953232Y-89534494D01*
X180901713Y-89652677D01*
X180776274Y-89716554D01*
X180551050Y-89742599D01*
X180200177Y-89747281D01*
X179874333Y-89746667D01*
X179405021Y-89750175D01*
X179085871Y-89766265D01*
X178897763Y-89803283D01*
X178821578Y-89869575D01*
X178838198Y-89973489D01*
X178928502Y-90123371D01*
X178947801Y-90151161D01*
X179149443Y-90302639D01*
X179432893Y-90332549D01*
X179761695Y-90240517D01*
X179911635Y-90161116D01*
X180130890Y-90049062D01*
X180318103Y-90031214D01*
X180524284Y-90079810D01*
X180725293Y-90150104D01*
X180791773Y-90218929D01*
X180754071Y-90323417D01*
X180740983Y-90344982D01*
X180607919Y-90496367D01*
X180397752Y-90676340D01*
X180309872Y-90740663D01*
X179934313Y-90918072D01*
X179489692Y-91003524D01*
X179041962Y-90991764D01*
X178657072Y-90877535D01*
X178648354Y-90873077D01*
X178289954Y-90597773D01*
X178057850Y-90223485D01*
X177971338Y-89782064D01*
X177971193Y-89755313D01*
X178050356Y-89226734D01*
X178087982Y-89149036D01*
X178858333Y-89149036D01*
X179472167Y-89151518D01*
X179804188Y-89145196D01*
X179996416Y-89119177D01*
X180077803Y-89067872D01*
X180086000Y-89033048D01*
X180011719Y-88846328D01*
X179829866Y-88700530D01*
X179615621Y-88646000D01*
X179427143Y-88701419D01*
X179203530Y-88839971D01*
X179134836Y-88897518D01*
X178858333Y-89149036D01*
X178087982Y-89149036D01*
X178269597Y-88774009D01*
X178609562Y-88415931D01*
X179050899Y-88171295D01*
X179574254Y-88058894D01*
X179723447Y-88053650D01*
X180176981Y-88121888D01*
G37*
X180176981Y-88121888D02*
X180543993Y-88313585D01*
X180802511Y-88610367D01*
X180930561Y-88993859D01*
X180937972Y-89069334D01*
X180956697Y-89345537D01*
X180953232Y-89534494D01*
X180901713Y-89652677D01*
X180776274Y-89716554D01*
X180551050Y-89742599D01*
X180200177Y-89747281D01*
X179874333Y-89746667D01*
X179405021Y-89750175D01*
X179085871Y-89766265D01*
X178897763Y-89803283D01*
X178821578Y-89869575D01*
X178838198Y-89973489D01*
X178928502Y-90123371D01*
X178947801Y-90151161D01*
X179149443Y-90302639D01*
X179432893Y-90332549D01*
X179761695Y-90240517D01*
X179911635Y-90161116D01*
X180130890Y-90049062D01*
X180318103Y-90031214D01*
X180524284Y-90079810D01*
X180725293Y-90150104D01*
X180791773Y-90218929D01*
X180754071Y-90323417D01*
X180740983Y-90344982D01*
X180607919Y-90496367D01*
X180397752Y-90676340D01*
X180309872Y-90740663D01*
X179934313Y-90918072D01*
X179489692Y-91003524D01*
X179041962Y-90991764D01*
X178657072Y-90877535D01*
X178648354Y-90873077D01*
X178289954Y-90597773D01*
X178057850Y-90223485D01*
X177971338Y-89782064D01*
X177971193Y-89755313D01*
X178050356Y-89226734D01*
X178087982Y-89149036D01*
X178858333Y-89149036D01*
X179472167Y-89151518D01*
X179804188Y-89145196D01*
X179996416Y-89119177D01*
X180077803Y-89067872D01*
X180086000Y-89033048D01*
X180011719Y-88846328D01*
X179829866Y-88700530D01*
X179615621Y-88646000D01*
X179427143Y-88701419D01*
X179203530Y-88839971D01*
X179134836Y-88897518D01*
X178858333Y-89149036D01*
X178087982Y-89149036D01*
X178269597Y-88774009D01*
X178609562Y-88415931D01*
X179050899Y-88171295D01*
X179574254Y-88058894D01*
X179723447Y-88053650D01*
X180176981Y-88121888D01*
G36*
X193467538Y-88182508D02*
G01*
X193638176Y-88293131D01*
X193716748Y-88388215D01*
X193717333Y-88394174D01*
X193781828Y-88474286D01*
X193802000Y-88476667D01*
X193870790Y-88405754D01*
X193886667Y-88307334D01*
X193908746Y-88206123D01*
X194002633Y-88155428D01*
X194209801Y-88138809D01*
X194313836Y-88138000D01*
X194741006Y-88138000D01*
X194689547Y-88413167D01*
X194655760Y-88600349D01*
X194600704Y-88912534D01*
X194531720Y-89307826D01*
X194456151Y-89744330D01*
X194448451Y-89789000D01*
X194258815Y-90889667D01*
X193861074Y-90915472D01*
X193611350Y-90919721D01*
X193491211Y-90883491D01*
X193463333Y-90809475D01*
X193442289Y-90737649D01*
X193354258Y-90746091D01*
X193161896Y-90839252D01*
X193147087Y-90847169D01*
X192719698Y-90993881D01*
X192297964Y-90984023D01*
X191964610Y-90850761D01*
X191662284Y-90578481D01*
X191486080Y-90202699D01*
X191431333Y-89735269D01*
X191451199Y-89589909D01*
X192289893Y-89589909D01*
X192313363Y-89901617D01*
X192468900Y-90143090D01*
X192701333Y-90273000D01*
X192930815Y-90270890D01*
X193195388Y-90163706D01*
X193427528Y-89981074D01*
X193463843Y-89938455D01*
X193593082Y-89660960D01*
X193629900Y-89326195D01*
X193566331Y-89021716D01*
X193550233Y-88988840D01*
X193379003Y-88823230D01*
X193136511Y-88772952D01*
X192866068Y-88828650D01*
X192610987Y-88980970D01*
X192414577Y-89220556D01*
X192406433Y-89235895D01*
X192289893Y-89589909D01*
X191451199Y-89589909D01*
X191497877Y-89248386D01*
X191681397Y-88820173D01*
X191957724Y-88469060D01*
X192302690Y-88213477D01*
X192692125Y-88071856D01*
X193101860Y-88062627D01*
X193467538Y-88182508D01*
G37*
X193467538Y-88182508D02*
X193638176Y-88293131D01*
X193716748Y-88388215D01*
X193717333Y-88394174D01*
X193781828Y-88474286D01*
X193802000Y-88476667D01*
X193870790Y-88405754D01*
X193886667Y-88307334D01*
X193908746Y-88206123D01*
X194002633Y-88155428D01*
X194209801Y-88138809D01*
X194313836Y-88138000D01*
X194741006Y-88138000D01*
X194689547Y-88413167D01*
X194655760Y-88600349D01*
X194600704Y-88912534D01*
X194531720Y-89307826D01*
X194456151Y-89744330D01*
X194448451Y-89789000D01*
X194258815Y-90889667D01*
X193861074Y-90915472D01*
X193611350Y-90919721D01*
X193491211Y-90883491D01*
X193463333Y-90809475D01*
X193442289Y-90737649D01*
X193354258Y-90746091D01*
X193161896Y-90839252D01*
X193147087Y-90847169D01*
X192719698Y-90993881D01*
X192297964Y-90984023D01*
X191964610Y-90850761D01*
X191662284Y-90578481D01*
X191486080Y-90202699D01*
X191431333Y-89735269D01*
X191451199Y-89589909D01*
X192289893Y-89589909D01*
X192313363Y-89901617D01*
X192468900Y-90143090D01*
X192701333Y-90273000D01*
X192930815Y-90270890D01*
X193195388Y-90163706D01*
X193427528Y-89981074D01*
X193463843Y-89938455D01*
X193593082Y-89660960D01*
X193629900Y-89326195D01*
X193566331Y-89021716D01*
X193550233Y-88988840D01*
X193379003Y-88823230D01*
X193136511Y-88772952D01*
X192866068Y-88828650D01*
X192610987Y-88980970D01*
X192414577Y-89220556D01*
X192406433Y-89235895D01*
X192289893Y-89589909D01*
X191451199Y-89589909D01*
X191497877Y-89248386D01*
X191681397Y-88820173D01*
X191957724Y-88469060D01*
X192302690Y-88213477D01*
X192692125Y-88071856D01*
X193101860Y-88062627D01*
X193467538Y-88182508D01*
G36*
X183425060Y-88166008D02*
G01*
X183509241Y-88242455D01*
X183516670Y-88328435D01*
X183437625Y-88470644D01*
X183329965Y-88622672D01*
X183165117Y-88827670D01*
X183045969Y-88907655D01*
X182937145Y-88886280D01*
X182936348Y-88885835D01*
X182706785Y-88844471D01*
X182476666Y-88942794D01*
X182337161Y-89096922D01*
X182273141Y-89258165D01*
X182195834Y-89539724D01*
X182117351Y-89894495D01*
X182077591Y-90106500D01*
X181933015Y-90932000D01*
X181517507Y-90932000D01*
X181279207Y-90928128D01*
X181130362Y-90918243D01*
X181104980Y-90910834D01*
X181119647Y-90824649D01*
X181158296Y-90599908D01*
X181216048Y-90264908D01*
X181288026Y-89847949D01*
X181342097Y-89535000D01*
X181576235Y-88180334D01*
X181974117Y-88154528D01*
X182248687Y-88156714D01*
X182367310Y-88208144D01*
X182372000Y-88227765D01*
X182428307Y-88266601D01*
X182580688Y-88190071D01*
X182875651Y-88074180D01*
X183188317Y-88070581D01*
X183425060Y-88166008D01*
G37*
X183425060Y-88166008D02*
X183509241Y-88242455D01*
X183516670Y-88328435D01*
X183437625Y-88470644D01*
X183329965Y-88622672D01*
X183165117Y-88827670D01*
X183045969Y-88907655D01*
X182937145Y-88886280D01*
X182936348Y-88885835D01*
X182706785Y-88844471D01*
X182476666Y-88942794D01*
X182337161Y-89096922D01*
X182273141Y-89258165D01*
X182195834Y-89539724D01*
X182117351Y-89894495D01*
X182077591Y-90106500D01*
X181933015Y-90932000D01*
X181517507Y-90932000D01*
X181279207Y-90928128D01*
X181130362Y-90918243D01*
X181104980Y-90910834D01*
X181119647Y-90824649D01*
X181158296Y-90599908D01*
X181216048Y-90264908D01*
X181288026Y-89847949D01*
X181342097Y-89535000D01*
X181576235Y-88180334D01*
X181974117Y-88154528D01*
X182248687Y-88156714D01*
X182367310Y-88208144D01*
X182372000Y-88227765D01*
X182428307Y-88266601D01*
X182580688Y-88190071D01*
X182875651Y-88074180D01*
X183188317Y-88070581D01*
X183425060Y-88166008D01*
G36*
X185117309Y-86649071D02*
G01*
X185162916Y-86718405D01*
X185165413Y-86757742D01*
X185151135Y-86885872D01*
X185111718Y-87152228D01*
X185051716Y-87528324D01*
X184975682Y-87985677D01*
X184888171Y-88495801D01*
X184880439Y-88540167D01*
X184596051Y-90170000D01*
X186262433Y-90170000D01*
X186214890Y-90445167D01*
X186172152Y-90668958D01*
X186135421Y-90824770D01*
X186134997Y-90826167D01*
X186073044Y-90870019D01*
X185906408Y-90901046D01*
X185617390Y-90920683D01*
X185188292Y-90930365D01*
X184829990Y-90932000D01*
X184312466Y-90928453D01*
X183945664Y-90916781D01*
X183711101Y-90895442D01*
X183590292Y-90862890D01*
X183563175Y-90826167D01*
X183578830Y-90716188D01*
X183619696Y-90463641D01*
X183681698Y-90092741D01*
X183760760Y-89627702D01*
X183852807Y-89092737D01*
X183923008Y-88688334D01*
X184277000Y-86656334D01*
X184721500Y-86630742D01*
X184983467Y-86623654D01*
X185117309Y-86649071D01*
G37*
X185117309Y-86649071D02*
X185162916Y-86718405D01*
X185165413Y-86757742D01*
X185151135Y-86885872D01*
X185111718Y-87152228D01*
X185051716Y-87528324D01*
X184975682Y-87985677D01*
X184888171Y-88495801D01*
X184880439Y-88540167D01*
X184596051Y-90170000D01*
X186262433Y-90170000D01*
X186214890Y-90445167D01*
X186172152Y-90668958D01*
X186135421Y-90824770D01*
X186134997Y-90826167D01*
X186073044Y-90870019D01*
X185906408Y-90901046D01*
X185617390Y-90920683D01*
X185188292Y-90930365D01*
X184829990Y-90932000D01*
X184312466Y-90928453D01*
X183945664Y-90916781D01*
X183711101Y-90895442D01*
X183590292Y-90862890D01*
X183563175Y-90826167D01*
X183578830Y-90716188D01*
X183619696Y-90463641D01*
X183681698Y-90092741D01*
X183760760Y-89627702D01*
X183852807Y-89092737D01*
X183923008Y-88688334D01*
X184277000Y-86656334D01*
X184721500Y-86630742D01*
X184983467Y-86623654D01*
X185117309Y-86649071D01*
G36*
X191383726Y-88166008D02*
G01*
X191467907Y-88242455D01*
X191475337Y-88328435D01*
X191396292Y-88470644D01*
X191288632Y-88622672D01*
X191123784Y-88827670D01*
X191004635Y-88907655D01*
X190895812Y-88886280D01*
X190895014Y-88885835D01*
X190665452Y-88844471D01*
X190435332Y-88942794D01*
X190295828Y-89096922D01*
X190231807Y-89258165D01*
X190154500Y-89539724D01*
X190076017Y-89894495D01*
X190036258Y-90106500D01*
X189891682Y-90932000D01*
X189476174Y-90932000D01*
X189237874Y-90928128D01*
X189089029Y-90918243D01*
X189063646Y-90910834D01*
X189078314Y-90824649D01*
X189116963Y-90599908D01*
X189174714Y-90264908D01*
X189246693Y-89847949D01*
X189300764Y-89535000D01*
X189534901Y-88180334D01*
X189932784Y-88154528D01*
X190207354Y-88156714D01*
X190325977Y-88208144D01*
X190330667Y-88227765D01*
X190386973Y-88266601D01*
X190539354Y-88190071D01*
X190834317Y-88074180D01*
X191146983Y-88070581D01*
X191383726Y-88166008D01*
G37*
X191383726Y-88166008D02*
X191467907Y-88242455D01*
X191475337Y-88328435D01*
X191396292Y-88470644D01*
X191288632Y-88622672D01*
X191123784Y-88827670D01*
X191004635Y-88907655D01*
X190895812Y-88886280D01*
X190895014Y-88885835D01*
X190665452Y-88844471D01*
X190435332Y-88942794D01*
X190295828Y-89096922D01*
X190231807Y-89258165D01*
X190154500Y-89539724D01*
X190076017Y-89894495D01*
X190036258Y-90106500D01*
X189891682Y-90932000D01*
X189476174Y-90932000D01*
X189237874Y-90928128D01*
X189089029Y-90918243D01*
X189063646Y-90910834D01*
X189078314Y-90824649D01*
X189116963Y-90599908D01*
X189174714Y-90264908D01*
X189246693Y-89847949D01*
X189300764Y-89535000D01*
X189534901Y-88180334D01*
X189932784Y-88154528D01*
X190207354Y-88156714D01*
X190325977Y-88208144D01*
X190330667Y-88227765D01*
X190386973Y-88266601D01*
X190539354Y-88190071D01*
X190834317Y-88074180D01*
X191146983Y-88070581D01*
X191383726Y-88166008D01*
G36*
X183620833Y-77070930D02*
G01*
X183895965Y-77348737D01*
X184120063Y-77585231D01*
X184269113Y-77754364D01*
X184319333Y-77828606D01*
X184261979Y-77910644D01*
X184106448Y-78082668D01*
X183877536Y-78318253D01*
X183641661Y-78550796D01*
X182963988Y-79206974D01*
X184318994Y-80559995D01*
X184708802Y-80952909D01*
X185054746Y-81308650D01*
X185339778Y-81609105D01*
X185546851Y-81836163D01*
X185658918Y-81971711D01*
X185674000Y-81999667D01*
X185616502Y-82082015D01*
X185455377Y-82265031D01*
X185207676Y-82530599D01*
X184890450Y-82860600D01*
X184520753Y-83236916D01*
X184319720Y-83438613D01*
X182965441Y-84790909D01*
X184357811Y-86190549D01*
X183684392Y-86867941D01*
X183010972Y-87545334D01*
X177357486Y-87545334D01*
X176396117Y-87544436D01*
X175486249Y-87541843D01*
X174641753Y-87537708D01*
X173876502Y-87532180D01*
X173204367Y-87525411D01*
X172639219Y-87517552D01*
X172194931Y-87508755D01*
X171885374Y-87499170D01*
X171724419Y-87488949D01*
X171704000Y-87483707D01*
X171760233Y-87402215D01*
X171912584Y-87228874D01*
X172136530Y-86990661D01*
X172358180Y-86764040D01*
X173012361Y-86106000D01*
X172358180Y-85447960D01*
X171704000Y-84789921D01*
X171704000Y-84543639D01*
X172042667Y-84543639D01*
X172720000Y-85217000D01*
X173058146Y-85563986D01*
X173274685Y-85829274D01*
X173374363Y-86043905D01*
X173361922Y-86238919D01*
X173242105Y-86445355D01*
X173019657Y-86694253D01*
X172955725Y-86759504D01*
X172514118Y-87206667D01*
X182758301Y-87206667D01*
X183764229Y-86190131D01*
X183152781Y-85574575D01*
X182889152Y-85293452D01*
X182684375Y-85044653D01*
X182563367Y-84860043D01*
X182541333Y-84792639D01*
X182601589Y-84675588D01*
X182775244Y-84455336D01*
X183051628Y-84143920D01*
X183420068Y-83753380D01*
X183853714Y-83311952D01*
X185166096Y-81997645D01*
X183896048Y-80729715D01*
X183427156Y-80259774D01*
X183071548Y-79889458D01*
X182823296Y-79598134D01*
X182676469Y-79365168D01*
X182625140Y-79169929D01*
X182663378Y-78991782D01*
X182785255Y-78810095D01*
X182984841Y-78604234D01*
X183222195Y-78384733D01*
X183818389Y-77838821D01*
X183382166Y-77395662D01*
X183168347Y-77185060D01*
X183004808Y-77036397D01*
X182922681Y-76977736D01*
X182919324Y-76978418D01*
X182852200Y-77042117D01*
X182682066Y-77203168D01*
X182428969Y-77442607D01*
X182112958Y-77741466D01*
X181785686Y-78050899D01*
X181430844Y-78389970D01*
X181123151Y-78690877D01*
X180882226Y-78933866D01*
X180727687Y-79099186D01*
X180678667Y-79165517D01*
X180735091Y-79243871D01*
X180892829Y-79424288D01*
X181134576Y-79687989D01*
X181443029Y-80016191D01*
X181800884Y-80390114D01*
X181927500Y-80520992D01*
X182301291Y-80912809D01*
X182633150Y-81273014D01*
X182905061Y-81581040D01*
X183099011Y-81816316D01*
X183196983Y-81958274D01*
X183204971Y-81979614D01*
X183174832Y-82101079D01*
X183046854Y-82291481D01*
X182810567Y-82564087D01*
X182455501Y-82932164D01*
X182444643Y-82943074D01*
X181655678Y-83735334D01*
X180214305Y-83735334D01*
X179673643Y-83737181D01*
X179267435Y-83745153D01*
X178960822Y-83762893D01*
X178718945Y-83794046D01*
X178506942Y-83842254D01*
X178289954Y-83911163D01*
X178189371Y-83947000D01*
X177721265Y-84095174D01*
X177378877Y-84151735D01*
X177146507Y-84118208D01*
X177054933Y-84057067D01*
X177001932Y-83911390D01*
X176968047Y-83602608D01*
X176953787Y-83135925D01*
X176953333Y-83017250D01*
X176953333Y-82079033D01*
X176445065Y-81576068D01*
X175936797Y-81073104D01*
X175321241Y-81684552D01*
X175042945Y-81945544D01*
X174795082Y-82149968D01*
X174610115Y-82272404D01*
X174540333Y-82296000D01*
X174411806Y-82238531D01*
X174200045Y-82083157D01*
X173937719Y-81855428D01*
X173762647Y-81687752D01*
X173150312Y-81079504D01*
X172659989Y-81537482D01*
X172420177Y-81764920D01*
X172227551Y-81953966D01*
X172117071Y-82070152D01*
X172107463Y-82082230D01*
X172084865Y-82194519D01*
X172065743Y-82442844D01*
X172051754Y-82793921D01*
X172044558Y-83214463D01*
X172043963Y-83356320D01*
X172042667Y-84543639D01*
X171704000Y-84543639D01*
X171704000Y-81891676D01*
X172382332Y-81226005D01*
X172659573Y-80957405D01*
X172894138Y-80736626D01*
X173059026Y-80588664D01*
X173124657Y-80538670D01*
X173206243Y-80586468D01*
X173379187Y-80732640D01*
X173617177Y-80953787D01*
X173862614Y-81194945D01*
X174536577Y-81872885D01*
X175938389Y-80478355D01*
X176611928Y-81154344D01*
X177285466Y-81830334D01*
X177288733Y-82782834D01*
X177290875Y-83216610D01*
X177307031Y-83502706D01*
X177357095Y-83662672D01*
X177460960Y-83718061D01*
X177638519Y-83690421D01*
X177909667Y-83601305D01*
X178011667Y-83566000D01*
X178223816Y-83501314D01*
X178447132Y-83455093D01*
X178714888Y-83424434D01*
X179060359Y-83406434D01*
X179516819Y-83398192D01*
X179952957Y-83396667D01*
X181402072Y-83396667D01*
X182101718Y-82693367D01*
X182801365Y-81990067D01*
X182184065Y-81359867D01*
X181864304Y-81032392D01*
X181480888Y-80638174D01*
X181087540Y-80232516D01*
X180811027Y-79946465D01*
X180055287Y-79163263D01*
X182922333Y-76379265D01*
X183620833Y-77070930D01*
G37*
X183620833Y-77070930D02*
X183895965Y-77348737D01*
X184120063Y-77585231D01*
X184269113Y-77754364D01*
X184319333Y-77828606D01*
X184261979Y-77910644D01*
X184106448Y-78082668D01*
X183877536Y-78318253D01*
X183641661Y-78550796D01*
X182963988Y-79206974D01*
X184318994Y-80559995D01*
X184708802Y-80952909D01*
X185054746Y-81308650D01*
X185339778Y-81609105D01*
X185546851Y-81836163D01*
X185658918Y-81971711D01*
X185674000Y-81999667D01*
X185616502Y-82082015D01*
X185455377Y-82265031D01*
X185207676Y-82530599D01*
X184890450Y-82860600D01*
X184520753Y-83236916D01*
X184319720Y-83438613D01*
X182965441Y-84790909D01*
X184357811Y-86190549D01*
X183684392Y-86867941D01*
X183010972Y-87545334D01*
X177357486Y-87545334D01*
X176396117Y-87544436D01*
X175486249Y-87541843D01*
X174641753Y-87537708D01*
X173876502Y-87532180D01*
X173204367Y-87525411D01*
X172639219Y-87517552D01*
X172194931Y-87508755D01*
X171885374Y-87499170D01*
X171724419Y-87488949D01*
X171704000Y-87483707D01*
X171760233Y-87402215D01*
X171912584Y-87228874D01*
X172136530Y-86990661D01*
X172358180Y-86764040D01*
X173012361Y-86106000D01*
X172358180Y-85447960D01*
X171704000Y-84789921D01*
X171704000Y-84543639D01*
X172042667Y-84543639D01*
X172720000Y-85217000D01*
X173058146Y-85563986D01*
X173274685Y-85829274D01*
X173374363Y-86043905D01*
X173361922Y-86238919D01*
X173242105Y-86445355D01*
X173019657Y-86694253D01*
X172955725Y-86759504D01*
X172514118Y-87206667D01*
X182758301Y-87206667D01*
X183764229Y-86190131D01*
X183152781Y-85574575D01*
X182889152Y-85293452D01*
X182684375Y-85044653D01*
X182563367Y-84860043D01*
X182541333Y-84792639D01*
X182601589Y-84675588D01*
X182775244Y-84455336D01*
X183051628Y-84143920D01*
X183420068Y-83753380D01*
X183853714Y-83311952D01*
X185166096Y-81997645D01*
X183896048Y-80729715D01*
X183427156Y-80259774D01*
X183071548Y-79889458D01*
X182823296Y-79598134D01*
X182676469Y-79365168D01*
X182625140Y-79169929D01*
X182663378Y-78991782D01*
X182785255Y-78810095D01*
X182984841Y-78604234D01*
X183222195Y-78384733D01*
X183818389Y-77838821D01*
X183382166Y-77395662D01*
X183168347Y-77185060D01*
X183004808Y-77036397D01*
X182922681Y-76977736D01*
X182919324Y-76978418D01*
X182852200Y-77042117D01*
X182682066Y-77203168D01*
X182428969Y-77442607D01*
X182112958Y-77741466D01*
X181785686Y-78050899D01*
X181430844Y-78389970D01*
X181123151Y-78690877D01*
X180882226Y-78933866D01*
X180727687Y-79099186D01*
X180678667Y-79165517D01*
X180735091Y-79243871D01*
X180892829Y-79424288D01*
X181134576Y-79687989D01*
X181443029Y-80016191D01*
X181800884Y-80390114D01*
X181927500Y-80520992D01*
X182301291Y-80912809D01*
X182633150Y-81273014D01*
X182905061Y-81581040D01*
X183099011Y-81816316D01*
X183196983Y-81958274D01*
X183204971Y-81979614D01*
X183174832Y-82101079D01*
X183046854Y-82291481D01*
X182810567Y-82564087D01*
X182455501Y-82932164D01*
X182444643Y-82943074D01*
X181655678Y-83735334D01*
X180214305Y-83735334D01*
X179673643Y-83737181D01*
X179267435Y-83745153D01*
X178960822Y-83762893D01*
X178718945Y-83794046D01*
X178506942Y-83842254D01*
X178289954Y-83911163D01*
X178189371Y-83947000D01*
X177721265Y-84095174D01*
X177378877Y-84151735D01*
X177146507Y-84118208D01*
X177054933Y-84057067D01*
X177001932Y-83911390D01*
X176968047Y-83602608D01*
X176953787Y-83135925D01*
X176953333Y-83017250D01*
X176953333Y-82079033D01*
X176445065Y-81576068D01*
X175936797Y-81073104D01*
X175321241Y-81684552D01*
X175042945Y-81945544D01*
X174795082Y-82149968D01*
X174610115Y-82272404D01*
X174540333Y-82296000D01*
X174411806Y-82238531D01*
X174200045Y-82083157D01*
X173937719Y-81855428D01*
X173762647Y-81687752D01*
X173150312Y-81079504D01*
X172659989Y-81537482D01*
X172420177Y-81764920D01*
X172227551Y-81953966D01*
X172117071Y-82070152D01*
X172107463Y-82082230D01*
X172084865Y-82194519D01*
X172065743Y-82442844D01*
X172051754Y-82793921D01*
X172044558Y-83214463D01*
X172043963Y-83356320D01*
X172042667Y-84543639D01*
X171704000Y-84543639D01*
X171704000Y-81891676D01*
X172382332Y-81226005D01*
X172659573Y-80957405D01*
X172894138Y-80736626D01*
X173059026Y-80588664D01*
X173124657Y-80538670D01*
X173206243Y-80586468D01*
X173379187Y-80732640D01*
X173617177Y-80953787D01*
X173862614Y-81194945D01*
X174536577Y-81872885D01*
X175938389Y-80478355D01*
X176611928Y-81154344D01*
X177285466Y-81830334D01*
X177288733Y-82782834D01*
X177290875Y-83216610D01*
X177307031Y-83502706D01*
X177357095Y-83662672D01*
X177460960Y-83718061D01*
X177638519Y-83690421D01*
X177909667Y-83601305D01*
X178011667Y-83566000D01*
X178223816Y-83501314D01*
X178447132Y-83455093D01*
X178714888Y-83424434D01*
X179060359Y-83406434D01*
X179516819Y-83398192D01*
X179952957Y-83396667D01*
X181402072Y-83396667D01*
X182101718Y-82693367D01*
X182801365Y-81990067D01*
X182184065Y-81359867D01*
X181864304Y-81032392D01*
X181480888Y-80638174D01*
X181087540Y-80232516D01*
X180811027Y-79946465D01*
X180055287Y-79163263D01*
X182922333Y-76379265D01*
X183620833Y-77070930D01*
D14*
X229038000Y-85195000D02*
X229038000Y-85995000D01*
X226638000Y-85195000D02*
X228638000Y-85195000D01*
X226638000Y-85995000D02*
X226638000Y-85195000D01*
X226638000Y-88795000D02*
X226638000Y-87795000D01*
X228638000Y-88795000D02*
X226638000Y-88795000D01*
X229038000Y-87795000D02*
X229038000Y-88795000D01*
X229038000Y-87795000D02*
X229438000Y-87795000D01*
X226638000Y-88995000D02*
X228638000Y-88995000D01*
X228638000Y-85195000D02*
X229038000Y-85195000D01*
X228638000Y-88795000D02*
X229038000Y-88795000D01*
X228638000Y-88995000D02*
X229038000Y-88995000D01*
X231520000Y-85811379D02*
X231520000Y-86146621D01*
X230760000Y-85811379D02*
X230760000Y-86146621D01*
X217540000Y-83906000D02*
X219340000Y-83906000D01*
X219340000Y-80686000D02*
X216890000Y-80686000D01*
X237719239Y-78686080D02*
X238383920Y-79350761D01*
X239156080Y-77249239D02*
X239820761Y-77913920D01*
X238383920Y-79350761D02*
X239820761Y-77913920D01*
X239156080Y-77249239D02*
X237719239Y-78686080D01*
X243546080Y-81779239D02*
X242109239Y-83216080D01*
X242773920Y-83880761D02*
X244210761Y-82443920D01*
X243546080Y-81779239D02*
X244210761Y-82443920D01*
X242109239Y-83216080D02*
X242773920Y-83880761D01*
X239175761Y-90228420D02*
X238511080Y-89563739D01*
X237738920Y-91665261D02*
X237074239Y-91000580D01*
X238511080Y-89563739D02*
X237074239Y-91000580D01*
X237738920Y-91665261D02*
X239175761Y-90228420D01*
X231140000Y-82004000D02*
X233172000Y-82004000D01*
X233172000Y-81064000D02*
X231140000Y-81064000D01*
X231140000Y-82004000D02*
X231140000Y-81064000D01*
X233172000Y-82004000D02*
X233172000Y-81064000D01*
X202244000Y-84642000D02*
X199644000Y-84642000D01*
X202244000Y-84642000D02*
X202244000Y-76902000D01*
X202244000Y-76902000D02*
X197044000Y-76902000D01*
X197044000Y-82042000D02*
X197044000Y-76902000D01*
X199644000Y-82042000D02*
X197044000Y-82042000D01*
X199644000Y-84642000D02*
X199644000Y-82042000D01*
X197044000Y-84642000D02*
X197044000Y-83312000D01*
X198374000Y-84642000D02*
X197044000Y-84642000D01*
X232323621Y-80644000D02*
X231988379Y-80644000D01*
X232323621Y-79884000D02*
X231988379Y-79884000D01*
X232323621Y-79628000D02*
X231988379Y-79628000D01*
X232323621Y-78868000D02*
X231988379Y-78868000D01*
X243039825Y-86787227D02*
X242802773Y-86550175D01*
X243577227Y-86249825D02*
X243340175Y-86012773D01*
X215107621Y-84910000D02*
X214772379Y-84910000D01*
X215107621Y-84150000D02*
X214772379Y-84150000D01*
X204782379Y-84920000D02*
X205117621Y-84920000D01*
X204782379Y-84160000D02*
X205117621Y-84160000D01*
X238002652Y-79989341D02*
X237490000Y-79476689D01*
X237490000Y-89687311D02*
X238002652Y-89174659D01*
X236977348Y-89174659D02*
X237490000Y-89687311D01*
X232384689Y-84582000D02*
X232897341Y-84069348D01*
X232897341Y-85094652D02*
X232384689Y-84582000D01*
X242595311Y-84582000D02*
X242082659Y-85094652D01*
X242082659Y-84069348D02*
X242595311Y-84582000D01*
X214641997Y-76740000D02*
X214641997Y-74840000D01*
X214641997Y-80640000D02*
X214641997Y-78640000D01*
X205241997Y-76740000D02*
X205241997Y-74840000D01*
X205241997Y-80640000D02*
X205241997Y-78640000D01*
X214641997Y-74840000D02*
X205241997Y-74840000D01*
X191946000Y-77456000D02*
X191496000Y-77006000D01*
X188546000Y-77456000D02*
X188996000Y-77006000D01*
X188546000Y-82056000D02*
X188996000Y-82506000D01*
X191946000Y-82056000D02*
X191496000Y-82506000D01*
X187496000Y-80756000D02*
X187496000Y-78756000D01*
X191496000Y-77006000D02*
X188996000Y-77006000D01*
X192996000Y-80756000D02*
X192996000Y-78756000D01*
X191496000Y-82506000D02*
X188996000Y-82506000D01*
X236306080Y-77669239D02*
X234869239Y-79106080D01*
X235533920Y-79770761D02*
X236970761Y-78333920D01*
X236306080Y-77669239D02*
X236970761Y-78333920D01*
X234869239Y-79106080D02*
X235533920Y-79770761D01*
X54971502Y-83210969D02*
X55967956Y-79492154D01*
X56903354Y-83728607D02*
X57899807Y-80009792D01*
X54971502Y-83210969D02*
X56903354Y-83728607D01*
X73259502Y-88290969D02*
X74255956Y-84572154D01*
X75191354Y-88808607D02*
X76187807Y-85089792D01*
X73259502Y-88290969D02*
X75191354Y-88808607D01*
X92563502Y-90322969D02*
X94495354Y-90840607D01*
X94495354Y-90840607D02*
X95491807Y-87121792D01*
X92563502Y-90322969D02*
X93559956Y-86604154D01*
X111613502Y-92100969D02*
X113545354Y-92618607D01*
X113545354Y-92618607D02*
X114541807Y-88899792D01*
X111613502Y-92100969D02*
X112609956Y-88382154D01*
X130155502Y-97180969D02*
X132087354Y-97698607D01*
X132087354Y-97698607D02*
X133083807Y-93979792D01*
X130155502Y-97180969D02*
X131151956Y-93462154D01*
X147935502Y-103784969D02*
X148931956Y-100066154D01*
X149867354Y-104302607D02*
X150863807Y-100583792D01*
X147935502Y-103784969D02*
X149867354Y-104302607D01*
X164953502Y-109626969D02*
X166885354Y-110144607D01*
X166885354Y-110144607D02*
X167881807Y-106425792D01*
X164953502Y-109626969D02*
X165949956Y-105908154D01*
X188738000Y-110912000D02*
X188738000Y-107062000D01*
X190738000Y-110912000D02*
X190738000Y-107062000D01*
X188738000Y-110912000D02*
X190738000Y-110912000D01*
X207788000Y-110912000D02*
X209788000Y-110912000D01*
X209788000Y-110912000D02*
X209788000Y-107062000D01*
X207788000Y-110912000D02*
X207788000Y-107062000D01*
X226838000Y-110912000D02*
X226838000Y-107062000D01*
X228838000Y-110912000D02*
X228838000Y-107062000D01*
X226838000Y-110912000D02*
X228838000Y-110912000D01*
X245888000Y-110912000D02*
X247888000Y-110912000D01*
X247888000Y-110912000D02*
X247888000Y-107062000D01*
X245888000Y-110912000D02*
X245888000Y-107062000D01*
X269745246Y-104210547D02*
X268748793Y-100491732D01*
X271677098Y-103692909D02*
X270680644Y-99974094D01*
X269745246Y-104210547D02*
X271677098Y-103692909D01*
X287779246Y-97606547D02*
X289711098Y-97088909D01*
X289711098Y-97088909D02*
X288714644Y-93370094D01*
X287779246Y-97606547D02*
X286782793Y-93887732D01*
X306194246Y-92780547D02*
X305197793Y-89061732D01*
X308126098Y-92262909D02*
X307129644Y-88544094D01*
X306194246Y-92780547D02*
X308126098Y-92262909D01*
X325371246Y-90748547D02*
X327303098Y-90230909D01*
X327303098Y-90230909D02*
X326306644Y-86512094D01*
X325371246Y-90748547D02*
X324374793Y-87029732D01*
X344548246Y-88716547D02*
X343551793Y-84997732D01*
X346480098Y-88198909D02*
X345483644Y-84480094D01*
X344548246Y-88716547D02*
X346480098Y-88198909D01*
X362963246Y-83890547D02*
X364895098Y-83372909D01*
X364895098Y-83372909D02*
X363898644Y-79654094D01*
X362963246Y-83890547D02*
X361966793Y-80171732D01*
X379854246Y-78683547D02*
X378857793Y-74964732D01*
X381786098Y-78165909D02*
X380789644Y-74447094D01*
X379854246Y-78683547D02*
X381786098Y-78165909D01*
X56793098Y-84140091D02*
X54861246Y-83622453D01*
X54861246Y-83622453D02*
X53864793Y-87341268D01*
X56793098Y-84140091D02*
X55796644Y-87858906D01*
X75081098Y-89220091D02*
X74084644Y-92938906D01*
X73149246Y-88702453D02*
X72152793Y-92421268D01*
X75081098Y-89220091D02*
X73149246Y-88702453D01*
X94385098Y-91252091D02*
X92453246Y-90734453D01*
X92453246Y-90734453D02*
X91456793Y-94453268D01*
X94385098Y-91252091D02*
X93388644Y-94970906D01*
X113435098Y-93030091D02*
X112438644Y-96748906D01*
X111503246Y-92512453D02*
X110506793Y-96231268D01*
X113435098Y-93030091D02*
X111503246Y-92512453D01*
X131977098Y-98110091D02*
X130045246Y-97592453D01*
X130045246Y-97592453D02*
X129048793Y-101311268D01*
X131977098Y-98110091D02*
X130980644Y-101828906D01*
X149757098Y-104714091D02*
X148760644Y-108432906D01*
X147825246Y-104196453D02*
X146828793Y-107915268D01*
X149757098Y-104714091D02*
X147825246Y-104196453D01*
X166775098Y-110556091D02*
X164843246Y-110038453D01*
X164843246Y-110038453D02*
X163846793Y-113757268D01*
X166775098Y-110556091D02*
X165778644Y-114274906D01*
X190738000Y-111338000D02*
X190738000Y-115188000D01*
X188738000Y-111338000D02*
X188738000Y-115188000D01*
X190738000Y-111338000D02*
X188738000Y-111338000D01*
X209788000Y-111338000D02*
X207788000Y-111338000D01*
X207788000Y-111338000D02*
X207788000Y-115188000D01*
X209788000Y-111338000D02*
X209788000Y-115188000D01*
X228838000Y-111338000D02*
X228838000Y-115188000D01*
X226838000Y-111338000D02*
X226838000Y-115188000D01*
X228838000Y-111338000D02*
X226838000Y-111338000D01*
X247888000Y-111338000D02*
X245888000Y-111338000D01*
X245888000Y-111338000D02*
X245888000Y-115188000D01*
X247888000Y-111338000D02*
X247888000Y-115188000D01*
X271787354Y-104104393D02*
X269855502Y-104622031D01*
X269855502Y-104622031D02*
X270851956Y-108340846D01*
X271787354Y-104104393D02*
X272783807Y-107823208D01*
X289821354Y-97500393D02*
X290817807Y-101219208D01*
X287889502Y-98018031D02*
X288885956Y-101736846D01*
X289821354Y-97500393D02*
X287889502Y-98018031D01*
X308236354Y-92674393D02*
X306304502Y-93192031D01*
X306304502Y-93192031D02*
X307300956Y-96910846D01*
X308236354Y-92674393D02*
X309232807Y-96393208D01*
X327413354Y-90642393D02*
X328409807Y-94361208D01*
X325481502Y-91160031D02*
X326477956Y-94878846D01*
X327413354Y-90642393D02*
X325481502Y-91160031D01*
X346590354Y-88610393D02*
X344658502Y-89128031D01*
X344658502Y-89128031D02*
X345654956Y-92846846D01*
X346590354Y-88610393D02*
X347586807Y-92329208D01*
X365005354Y-83784393D02*
X366001807Y-87503208D01*
X363073502Y-84302031D02*
X364069956Y-88020846D01*
X365005354Y-83784393D02*
X363073502Y-84302031D01*
X381896354Y-78577393D02*
X379964502Y-79095031D01*
X379964502Y-79095031D02*
X380960956Y-82813846D01*
X381896354Y-78577393D02*
X382892807Y-82296208D01*
X51827328Y-102527782D02*
X50830874Y-106246597D01*
X49895476Y-102010144D02*
X48899023Y-105728959D01*
X51827328Y-102527782D02*
X49895476Y-102010144D01*
X70260981Y-107436078D02*
X68329129Y-106918440D01*
X68329129Y-106918440D02*
X67332676Y-110637255D01*
X70260981Y-107436078D02*
X69264527Y-111154893D01*
X89056981Y-110738078D02*
X88060527Y-114456893D01*
X87125129Y-110220440D02*
X86128676Y-113939255D01*
X89056981Y-110738078D02*
X87125129Y-110220440D01*
X108614981Y-110992078D02*
X106683129Y-110474440D01*
X106683129Y-110474440D02*
X105686676Y-114193255D01*
X108614981Y-110992078D02*
X107618527Y-114710893D01*
X127011328Y-115989782D02*
X126014874Y-119708597D01*
X125079476Y-115472144D02*
X124083023Y-119190959D01*
X127011328Y-115989782D02*
X125079476Y-115472144D01*
X144791328Y-123355782D02*
X143794874Y-127074597D01*
X142859476Y-122838144D02*
X141863023Y-126556959D01*
X144791328Y-123355782D02*
X142859476Y-122838144D01*
X162063328Y-128943782D02*
X161066874Y-132662597D01*
X160131476Y-128426144D02*
X159135023Y-132144959D01*
X162063328Y-128943782D02*
X160131476Y-128426144D01*
X190738000Y-130388000D02*
X188738000Y-130388000D01*
X188738000Y-130388000D02*
X188738000Y-134238000D01*
X190738000Y-130388000D02*
X190738000Y-134238000D01*
X209788000Y-130388000D02*
X209788000Y-134238000D01*
X207788000Y-130388000D02*
X207788000Y-134238000D01*
X209788000Y-130388000D02*
X207788000Y-130388000D01*
X228838000Y-130388000D02*
X226838000Y-130388000D01*
X226838000Y-130388000D02*
X226838000Y-134238000D01*
X228838000Y-130388000D02*
X228838000Y-134238000D01*
X247888000Y-130388000D02*
X247888000Y-134238000D01*
X245888000Y-130388000D02*
X245888000Y-134238000D01*
X247888000Y-130388000D02*
X245888000Y-130388000D01*
X276748524Y-122965144D02*
X274816672Y-123482782D01*
X274816672Y-123482782D02*
X275813126Y-127201597D01*
X276748524Y-122965144D02*
X277744977Y-126683959D01*
X294655524Y-115726144D02*
X295651977Y-119444959D01*
X292723672Y-116243782D02*
X293720126Y-119962597D01*
X294655524Y-115726144D02*
X292723672Y-116243782D01*
X313070524Y-110646144D02*
X311138672Y-111163782D01*
X311138672Y-111163782D02*
X312135126Y-114882597D01*
X313070524Y-110646144D02*
X314066977Y-114364959D01*
X332755524Y-110265144D02*
X333751977Y-113983959D01*
X330823672Y-110782782D02*
X331820126Y-114501597D01*
X332755524Y-110265144D02*
X330823672Y-110782782D01*
X351551524Y-106963144D02*
X349619672Y-107480782D01*
X349619672Y-107480782D02*
X350616126Y-111199597D01*
X351551524Y-106963144D02*
X352547977Y-110681959D01*
X369839524Y-101883144D02*
X370835977Y-105601959D01*
X367907672Y-102400782D02*
X368904126Y-106119597D01*
X369839524Y-101883144D02*
X367907672Y-102400782D01*
X386984524Y-96930144D02*
X385052672Y-97447782D01*
X385052672Y-97447782D02*
X386049126Y-101166597D01*
X386984524Y-96930144D02*
X387980977Y-100648959D01*
X47001328Y-120815782D02*
X45069476Y-120298144D01*
X45069476Y-120298144D02*
X44073023Y-124016959D01*
X47001328Y-120815782D02*
X46004874Y-124534597D01*
X65289328Y-125895782D02*
X64292874Y-129614597D01*
X63357476Y-125378144D02*
X62361023Y-129096959D01*
X65289328Y-125895782D02*
X63357476Y-125378144D01*
X84085328Y-129197782D02*
X82153476Y-128680144D01*
X82153476Y-128680144D02*
X81157023Y-132398959D01*
X84085328Y-129197782D02*
X83088874Y-132916597D01*
X103643328Y-129705782D02*
X102646874Y-133424597D01*
X101711476Y-129188144D02*
X100715023Y-132906959D01*
X103643328Y-129705782D02*
X101711476Y-129188144D01*
X122330981Y-134614078D02*
X120399129Y-134096440D01*
X120399129Y-134096440D02*
X119402676Y-137815255D01*
X122330981Y-134614078D02*
X121334527Y-138332893D01*
X140110981Y-141726078D02*
X139114527Y-145444893D01*
X138179129Y-141208440D02*
X137182676Y-144927255D01*
X140110981Y-141726078D02*
X138179129Y-141208440D01*
X156983328Y-147231782D02*
X155051476Y-146714144D01*
X155051476Y-146714144D02*
X154055023Y-150432959D01*
X156983328Y-147231782D02*
X155986874Y-150950597D01*
X190738000Y-149438000D02*
X190738000Y-153288000D01*
X188738000Y-149438000D02*
X188738000Y-153288000D01*
X190738000Y-149438000D02*
X188738000Y-149438000D01*
X209788000Y-149438000D02*
X207788000Y-149438000D01*
X207788000Y-149438000D02*
X207788000Y-153288000D01*
X209788000Y-149438000D02*
X209788000Y-153288000D01*
X228838000Y-149438000D02*
X228838000Y-153288000D01*
X226838000Y-149438000D02*
X226838000Y-153288000D01*
X228838000Y-149438000D02*
X226838000Y-149438000D01*
X247888000Y-149438000D02*
X245888000Y-149438000D01*
X245888000Y-149438000D02*
X245888000Y-153288000D01*
X247888000Y-149438000D02*
X247888000Y-153288000D01*
X281701524Y-141253144D02*
X282697977Y-144971959D01*
X279769672Y-141770782D02*
X280766126Y-145489597D01*
X281701524Y-141253144D02*
X279769672Y-141770782D01*
X299608524Y-134141144D02*
X297676672Y-134658782D01*
X297676672Y-134658782D02*
X298673126Y-138377597D01*
X299608524Y-134141144D02*
X300604977Y-137859959D01*
X318023524Y-129061144D02*
X319019977Y-132779959D01*
X316091672Y-129578782D02*
X317088126Y-133297597D01*
X318023524Y-129061144D02*
X316091672Y-129578782D01*
X337708524Y-128807144D02*
X335776672Y-129324782D01*
X335776672Y-129324782D02*
X336773126Y-133043597D01*
X337708524Y-128807144D02*
X338704977Y-132525959D01*
X356504524Y-125378144D02*
X357500977Y-129096959D01*
X354572672Y-125895782D02*
X355569126Y-129614597D01*
X356504524Y-125378144D02*
X354572672Y-125895782D01*
X374792524Y-120425144D02*
X372860672Y-120942782D01*
X372860672Y-120942782D02*
X373857126Y-124661597D01*
X374792524Y-120425144D02*
X375788977Y-124143959D01*
X391937524Y-115345144D02*
X392933977Y-119063959D01*
X390005672Y-115862782D02*
X391002126Y-119581597D01*
X391937524Y-115345144D02*
X390005672Y-115862782D01*
X41921328Y-139103782D02*
X40924874Y-142822597D01*
X39989476Y-138586144D02*
X38993023Y-142304959D01*
X41921328Y-139103782D02*
X39989476Y-138586144D01*
X60209328Y-144183782D02*
X59212874Y-147902597D01*
X58277476Y-143666144D02*
X57281023Y-147384959D01*
X60209328Y-144183782D02*
X58277476Y-143666144D01*
X79259328Y-147739782D02*
X77327476Y-147222144D01*
X77327476Y-147222144D02*
X76331023Y-150940959D01*
X79259328Y-147739782D02*
X78262874Y-151458597D01*
X98817328Y-147993782D02*
X97820874Y-151712597D01*
X96885476Y-147476144D02*
X95889023Y-151194959D01*
X98817328Y-147993782D02*
X96885476Y-147476144D01*
X117359328Y-153073782D02*
X115427476Y-152556144D01*
X115427476Y-152556144D02*
X114431023Y-156274959D01*
X117359328Y-153073782D02*
X116362874Y-156792597D01*
X135139328Y-160185782D02*
X134142874Y-163904597D01*
X133207476Y-159668144D02*
X132211023Y-163386959D01*
X135139328Y-160185782D02*
X133207476Y-159668144D01*
X153427328Y-160439782D02*
X151495476Y-159922144D01*
X151495476Y-159922144D02*
X150499023Y-163640959D01*
X153427328Y-160439782D02*
X152430874Y-164158597D01*
X190738000Y-168488000D02*
X190738000Y-172338000D01*
X188738000Y-168488000D02*
X188738000Y-172338000D01*
X190738000Y-168488000D02*
X188738000Y-168488000D01*
X209788000Y-168488000D02*
X207788000Y-168488000D01*
X207788000Y-168488000D02*
X207788000Y-172338000D01*
X209788000Y-168488000D02*
X209788000Y-172338000D01*
X228838000Y-168488000D02*
X226838000Y-168488000D01*
X226838000Y-168488000D02*
X226838000Y-172338000D01*
X228838000Y-168488000D02*
X228838000Y-172338000D01*
X247888000Y-168488000D02*
X245888000Y-168488000D01*
X245888000Y-168488000D02*
X245888000Y-172338000D01*
X247888000Y-168488000D02*
X247888000Y-172338000D01*
X286146524Y-157382144D02*
X287142977Y-161100959D01*
X284214672Y-157899782D02*
X285211126Y-161618597D01*
X286146524Y-157382144D02*
X284214672Y-157899782D01*
X304434524Y-152556144D02*
X302502672Y-153073782D01*
X302502672Y-153073782D02*
X303499126Y-156792597D01*
X304434524Y-152556144D02*
X305430977Y-156274959D01*
X322976524Y-147476144D02*
X323972977Y-151194959D01*
X321044672Y-147993782D02*
X322041126Y-151712597D01*
X322976524Y-147476144D02*
X321044672Y-147993782D01*
X342534524Y-147222144D02*
X340602672Y-147739782D01*
X340602672Y-147739782D02*
X341599126Y-151458597D01*
X342534524Y-147222144D02*
X343530977Y-150940959D01*
X361330524Y-143666144D02*
X362326977Y-147384959D01*
X359398672Y-144183782D02*
X360395126Y-147902597D01*
X361330524Y-143666144D02*
X359398672Y-144183782D01*
X379618524Y-138840144D02*
X377686672Y-139357782D01*
X377686672Y-139357782D02*
X378683126Y-143076597D01*
X379618524Y-138840144D02*
X380614977Y-142558959D01*
X396763524Y-133633144D02*
X397759977Y-137351959D01*
X394831672Y-134150782D02*
X395828126Y-137869597D01*
X396763524Y-133633144D02*
X394831672Y-134150782D01*
X232753000Y-86106000D02*
X231813000Y-86106000D01*
X232753000Y-88138000D02*
X231813000Y-88138000D01*
X231813000Y-86106000D02*
X231813000Y-88138000D01*
X232753000Y-88138000D02*
X232753000Y-86106000D01*
D11*
X225364190Y-87471190D02*
X225840380Y-87471190D01*
X224840380Y-87804523D02*
X225364190Y-87471190D01*
X224840380Y-87137857D01*
X225840380Y-86280714D02*
X225840380Y-86852142D01*
X225840380Y-86566428D02*
X224840380Y-86566428D01*
X224983238Y-86661666D01*
X225078476Y-86756904D01*
X225126095Y-86852142D01*
%LPC*%
D15*
X367694977Y-113301479D03*
D16*
X362382385Y-114724984D03*
D17*
X357475482Y-116039785D03*
X367289288Y-113410183D03*
D15*
X357069793Y-116148489D03*
D18*
X358536268Y-119689597D03*
X363909417Y-120423946D03*
X358044807Y-113257633D03*
X363521036Y-109160680D03*
D16*
X362382385Y-114724984D03*
D19*
X367289288Y-113410183D03*
X357475482Y-116039785D03*
D16*
X151115364Y-176510926D03*
D18*
X154296707Y-171805923D03*
D16*
X151115364Y-176510926D03*
D18*
X145662141Y-179625786D03*
X150345260Y-182360451D03*
D17*
X156151904Y-177174000D03*
X146078824Y-175847853D03*
D18*
X147669496Y-173495352D03*
D15*
X145662418Y-175793032D03*
D19*
X156151904Y-177174000D03*
X146078824Y-175847853D03*
D15*
X156568311Y-177228821D03*
D20*
X138382406Y-181897021D03*
D21*
X140371625Y-166787401D03*
D20*
X162054143Y-185013464D03*
D21*
X164043362Y-169903844D03*
D16*
X268585926Y-176515364D03*
D18*
X270441123Y-171147288D03*
D16*
X268585926Y-176515364D03*
D18*
X264124702Y-180935486D03*
X269356031Y-182364889D03*
D17*
X273622466Y-175852291D03*
X263549387Y-177178437D03*
D18*
X264476985Y-174494399D03*
D15*
X263132980Y-177233258D03*
D19*
X273622466Y-175852291D03*
X263549387Y-177178437D03*
D15*
X274038873Y-175797470D03*
D20*
X257680857Y-185013464D03*
D21*
X255691638Y-169903844D03*
D20*
X281352594Y-181897021D03*
D21*
X279363375Y-166787401D03*
D15*
X52840145Y-152807886D03*
D16*
X47527553Y-151384381D03*
D17*
X42620650Y-150069580D03*
X52434456Y-152699182D03*
D15*
X42214961Y-149960876D03*
D18*
X41714411Y-153760804D03*
X46000521Y-157083343D03*
X44504776Y-147944829D03*
X51295805Y-147134878D03*
D16*
X47527553Y-151384381D03*
D19*
X52434456Y-152699182D03*
X42620650Y-150069580D03*
D15*
X339095382Y-79960634D03*
D16*
X333782790Y-81384139D03*
D17*
X328875887Y-82698940D03*
X338689693Y-80069338D03*
D15*
X328470198Y-82807644D03*
D18*
X329936673Y-86348752D03*
X335309822Y-87083101D03*
X329445212Y-79916788D03*
X334921441Y-75819835D03*
D16*
X333782790Y-81384139D03*
D19*
X338689693Y-80069338D03*
X328875887Y-82698940D03*
D15*
X54481622Y-72916968D03*
D16*
X49169030Y-71493463D03*
D17*
X44262127Y-70178662D03*
X54075933Y-72808264D03*
D15*
X43856438Y-70069958D03*
D18*
X43355888Y-73869886D03*
X47641998Y-77192425D03*
X46146253Y-68053911D03*
X52937282Y-67243960D03*
D16*
X49169030Y-71493463D03*
D19*
X54075933Y-72808264D03*
X44262127Y-70178662D03*
D15*
X72639621Y-79272539D03*
D16*
X67327029Y-77849034D03*
D17*
X62420126Y-76534233D03*
X72233932Y-79163835D03*
D15*
X62014437Y-76425529D03*
D18*
X61513887Y-80225457D03*
X65799997Y-83547996D03*
X64304252Y-74409482D03*
X71095281Y-73599531D03*
D16*
X67327029Y-77849034D03*
D19*
X72233932Y-79163835D03*
X62420126Y-76534233D03*
D15*
X91336145Y-82781797D03*
D16*
X86023553Y-81358292D03*
D17*
X81116650Y-80043491D03*
X90930456Y-82673093D03*
D15*
X80710961Y-79934787D03*
D18*
X80210411Y-83734715D03*
X84496521Y-87057254D03*
X83000776Y-77918740D03*
X89791805Y-77108789D03*
D16*
X86023553Y-81358292D03*
D19*
X90930456Y-82673093D03*
X81116650Y-80043491D03*
D15*
X111047308Y-83051006D03*
D16*
X105734716Y-81627501D03*
D17*
X100827813Y-80312700D03*
X110641619Y-82942302D03*
D15*
X100422124Y-80203996D03*
D18*
X99921574Y-84003924D03*
X104207684Y-87326463D03*
X102711939Y-78187949D03*
X109502968Y-77377998D03*
D16*
X105734716Y-81627501D03*
D19*
X110641619Y-82942302D03*
X100827813Y-80312700D03*
D15*
X129819852Y-86656705D03*
D16*
X124507260Y-85233200D03*
D17*
X119600357Y-83918399D03*
X129414163Y-86548001D03*
D15*
X119194668Y-83809695D03*
D18*
X118694118Y-87609623D03*
X122980228Y-90932162D03*
X121484483Y-81793648D03*
X128275512Y-80983697D03*
D16*
X124507260Y-85233200D03*
D19*
X129414163Y-86548001D03*
X119600357Y-83918399D03*
D15*
X147844394Y-92910124D03*
D16*
X142531802Y-91486619D03*
D17*
X137624899Y-90171818D03*
X147438705Y-92801420D03*
D15*
X137219210Y-90063114D03*
D18*
X136718660Y-93863042D03*
X141004770Y-97185581D03*
X139509025Y-88047067D03*
X146300054Y-87237116D03*
D16*
X142531802Y-91486619D03*
D19*
X147438705Y-92801420D03*
X137624899Y-90171818D03*
D15*
X165584699Y-100158943D03*
D16*
X160272107Y-98735438D03*
D17*
X155365204Y-97420637D03*
X165179010Y-100050239D03*
D15*
X154959515Y-97311933D03*
D18*
X154458965Y-101111861D03*
X158745075Y-104434400D03*
X157249330Y-95295886D03*
X164040359Y-94485935D03*
D16*
X160272107Y-98735438D03*
D19*
X165179010Y-100050239D03*
X155365204Y-97420637D03*
D15*
X186980027Y-101668860D03*
D16*
X181480027Y-101668860D03*
D17*
X176400027Y-101668860D03*
X186560027Y-101668860D03*
D15*
X175980027Y-101668860D03*
D18*
X176480027Y-105468860D03*
X181480027Y-107568860D03*
X177670027Y-99128860D03*
X184020027Y-96588860D03*
D16*
X181480027Y-101668860D03*
D19*
X186560027Y-101668860D03*
X176400027Y-101668860D03*
D15*
X205963938Y-101669622D03*
D16*
X200463938Y-101669622D03*
D17*
X195383938Y-101669622D03*
X205543938Y-101669622D03*
D15*
X194963938Y-101669622D03*
D18*
X195463938Y-105469622D03*
X200463938Y-107569622D03*
X196653938Y-99129622D03*
X203003938Y-96589622D03*
D16*
X200463938Y-101669622D03*
D19*
X205543938Y-101669622D03*
X195383938Y-101669622D03*
D15*
X224968099Y-101669850D03*
D16*
X219468099Y-101669850D03*
D17*
X214388099Y-101669850D03*
X224548099Y-101669850D03*
D15*
X213968099Y-101669850D03*
D18*
X214468099Y-105469850D03*
X219468099Y-107569850D03*
X215658099Y-99129850D03*
X222008099Y-96589850D03*
D16*
X219468099Y-101669850D03*
D19*
X224548099Y-101669850D03*
X214388099Y-101669850D03*
D15*
X243956946Y-101669702D03*
D16*
X238456946Y-101669702D03*
D17*
X233376946Y-101669702D03*
X243536946Y-101669702D03*
D15*
X232956946Y-101669702D03*
D18*
X233456946Y-105469702D03*
X238456946Y-107569702D03*
X234646946Y-99129702D03*
X240996946Y-96589702D03*
D16*
X238456946Y-101669702D03*
D19*
X243536946Y-101669702D03*
X233376946Y-101669702D03*
D15*
X264855515Y-97355110D03*
D16*
X259542923Y-98778615D03*
D17*
X254636020Y-100093416D03*
X264449826Y-97463814D03*
D15*
X254230331Y-100202120D03*
D18*
X255696806Y-103743228D03*
X261069955Y-104477577D03*
X255205345Y-97311264D03*
X260681574Y-93214311D03*
D16*
X259542923Y-98778615D03*
D19*
X264449826Y-97463814D03*
X254636020Y-100093416D03*
D15*
X282575607Y-90127508D03*
D16*
X277263015Y-91551013D03*
D17*
X272356112Y-92865814D03*
X282169918Y-90236212D03*
D15*
X271950423Y-92974518D03*
D18*
X273416898Y-96515626D03*
X278790047Y-97249975D03*
X272925437Y-90083662D03*
X278401666Y-85986709D03*
D16*
X277263015Y-91551013D03*
D19*
X282169918Y-90236212D03*
X272356112Y-92865814D03*
D15*
X300611615Y-83874893D03*
D16*
X295299023Y-85298398D03*
D17*
X290392120Y-86613199D03*
X300205926Y-83983597D03*
D15*
X289986431Y-86721903D03*
D18*
X291452906Y-90263011D03*
X296826055Y-90997360D03*
X290961445Y-83831047D03*
X296437674Y-79734094D03*
D16*
X295299023Y-85298398D03*
D19*
X300205926Y-83983597D03*
X290392120Y-86613199D03*
D15*
X319396556Y-80292481D03*
D16*
X314083964Y-81715986D03*
D17*
X309177061Y-83030787D03*
X318990867Y-80401185D03*
D15*
X308771372Y-83139491D03*
D18*
X310237847Y-86680599D03*
X315610996Y-87414948D03*
X309746386Y-80248635D03*
X315222615Y-76151682D03*
D16*
X314083964Y-81715986D03*
D19*
X318990867Y-80401185D03*
X309177061Y-83030787D03*
D15*
X357830358Y-76508485D03*
D16*
X352517766Y-77931990D03*
D17*
X347610863Y-79246791D03*
X357424669Y-76617189D03*
D15*
X347205174Y-79355495D03*
D18*
X348671649Y-82896603D03*
X354044798Y-83630952D03*
X348180188Y-76464639D03*
X353656417Y-72367686D03*
D16*
X352517766Y-77931990D03*
D19*
X357424669Y-76617189D03*
X347610863Y-79246791D03*
D15*
X375892053Y-70116196D03*
D16*
X370579461Y-71539701D03*
D17*
X365672558Y-72854502D03*
X375486364Y-70224900D03*
D15*
X365266869Y-72963206D03*
D18*
X366733344Y-76504314D03*
X372106493Y-77238663D03*
X366241883Y-70072350D03*
X371718112Y-65975397D03*
D16*
X370579461Y-71539701D03*
D19*
X375486364Y-70224900D03*
X365672558Y-72854502D03*
D15*
X49613085Y-91145949D03*
D16*
X44300493Y-89722444D03*
D17*
X39393590Y-88407643D03*
X49207396Y-91037245D03*
D15*
X38987901Y-88298939D03*
D18*
X38487351Y-92098867D03*
X42773461Y-95421406D03*
X41277716Y-86282892D03*
X48068745Y-85472941D03*
D16*
X44300493Y-89722444D03*
D19*
X49207396Y-91037245D03*
X39393590Y-88407643D03*
D15*
X67742854Y-97538675D03*
D16*
X62430262Y-96115170D03*
D17*
X57523359Y-94800369D03*
X67337165Y-97429971D03*
D15*
X57117670Y-94691665D03*
D18*
X56617120Y-98491593D03*
X60903230Y-101814132D03*
X59407485Y-92675618D03*
X66198514Y-91865667D03*
D16*
X62430262Y-96115170D03*
D19*
X67337165Y-97429971D03*
X57523359Y-94800369D03*
D15*
X86443763Y-101008680D03*
D16*
X81131171Y-99585175D03*
D17*
X76224268Y-98270374D03*
X86038074Y-100899976D03*
D15*
X75818579Y-98161670D03*
D18*
X75318029Y-101961598D03*
X79604139Y-105284137D03*
X78108394Y-96145623D03*
X84899423Y-95335672D03*
D16*
X81131171Y-99585175D03*
D19*
X86038074Y-100899976D03*
X76224268Y-98270374D03*
D15*
X106133976Y-101420055D03*
D16*
X100821384Y-99996550D03*
D17*
X95914481Y-98681749D03*
X105728287Y-101311351D03*
D15*
X95508792Y-98573045D03*
D18*
X95008242Y-102372973D03*
X99294352Y-105695512D03*
X97798607Y-96556998D03*
X104589636Y-95747047D03*
D16*
X100821384Y-99996550D03*
D19*
X105728287Y-101311351D03*
X95914481Y-98681749D03*
D15*
X124838145Y-105073916D03*
D16*
X119525553Y-103650411D03*
D17*
X114618650Y-102335610D03*
X124432456Y-104965212D03*
D15*
X114212961Y-102226906D03*
D18*
X113712411Y-106026834D03*
X117998521Y-109349373D03*
X116502776Y-100210859D03*
X123293805Y-99400908D03*
D16*
X119525553Y-103650411D03*
D19*
X124432456Y-104965212D03*
X114618650Y-102335610D03*
D15*
X142914296Y-111306411D03*
D16*
X137601704Y-109882906D03*
D17*
X132694801Y-108568105D03*
X142508607Y-111197707D03*
D15*
X132289112Y-108459401D03*
D18*
X131788562Y-112259329D03*
X136074672Y-115581868D03*
X134578927Y-106443354D03*
X141369956Y-105633403D03*
D16*
X137601704Y-109882906D03*
D19*
X142508607Y-111197707D03*
X132694801Y-108568105D03*
D15*
X160607546Y-118604285D03*
D16*
X155294954Y-117180780D03*
D17*
X150388051Y-115865979D03*
X160201857Y-118495581D03*
D15*
X149982362Y-115757275D03*
D18*
X149481812Y-119557203D03*
X153767922Y-122879742D03*
X152272177Y-113741228D03*
X159063206Y-112931277D03*
D16*
X155294954Y-117180780D03*
D19*
X160201857Y-118495581D03*
X150388051Y-115865979D03*
D15*
X186982461Y-120687059D03*
D16*
X181482461Y-120687059D03*
D17*
X176402461Y-120687059D03*
X186562461Y-120687059D03*
D15*
X175982461Y-120687059D03*
D18*
X176482461Y-124487059D03*
X181482461Y-126587059D03*
X177672461Y-118147059D03*
X184022461Y-115607059D03*
D16*
X181482461Y-120687059D03*
D19*
X186562461Y-120687059D03*
X176402461Y-120687059D03*
D15*
X205969234Y-120688156D03*
D16*
X200469234Y-120688156D03*
D17*
X195389234Y-120688156D03*
X205549234Y-120688156D03*
D15*
X194969234Y-120688156D03*
D18*
X195469234Y-124488156D03*
X200469234Y-126588156D03*
X196659234Y-118148156D03*
X203009234Y-115608156D03*
D16*
X200469234Y-120688156D03*
D19*
X205549234Y-120688156D03*
X195389234Y-120688156D03*
D15*
X224959244Y-120688139D03*
D16*
X219459244Y-120688139D03*
D17*
X214379244Y-120688139D03*
X224539244Y-120688139D03*
D15*
X213959244Y-120688139D03*
D18*
X214459244Y-124488139D03*
X219459244Y-126588139D03*
X215649244Y-118148139D03*
X221999244Y-115608139D03*
D16*
X219459244Y-120688139D03*
D19*
X224539244Y-120688139D03*
X214379244Y-120688139D03*
D15*
X243940303Y-120688345D03*
D16*
X238440303Y-120688345D03*
D17*
X233360303Y-120688345D03*
X243520303Y-120688345D03*
D15*
X232940303Y-120688345D03*
D18*
X233440303Y-124488345D03*
X238440303Y-126588345D03*
X234630303Y-118148345D03*
X240980303Y-115608345D03*
D16*
X238440303Y-120688345D03*
D19*
X243520303Y-120688345D03*
X233360303Y-120688345D03*
D15*
X269764888Y-115826028D03*
D16*
X264452296Y-117249533D03*
D17*
X259545393Y-118564334D03*
X269359199Y-115934732D03*
D15*
X259139704Y-118673038D03*
D18*
X260606179Y-122214146D03*
X265979328Y-122948495D03*
X260114718Y-115782182D03*
X265590947Y-111685229D03*
D16*
X264452296Y-117249533D03*
D19*
X269359199Y-115934732D03*
X259545393Y-118564334D03*
D15*
X287517001Y-108610731D03*
D16*
X282204409Y-110034236D03*
D17*
X277297506Y-111349037D03*
X287111312Y-108719435D03*
D15*
X276891817Y-111457741D03*
D18*
X278358292Y-114998849D03*
X283731441Y-115733198D03*
X277866831Y-108566885D03*
X283343060Y-104469932D03*
D16*
X282204409Y-110034236D03*
D19*
X287111312Y-108719435D03*
X277297506Y-111349037D03*
D15*
X305624507Y-102312707D03*
D16*
X300311915Y-103736212D03*
D17*
X295405012Y-105051013D03*
X305218818Y-102421411D03*
D15*
X294999323Y-105159717D03*
D18*
X296465798Y-108700825D03*
X301838947Y-109435174D03*
X295974337Y-102268861D03*
X301450566Y-98171908D03*
D16*
X300311915Y-103736212D03*
D19*
X305218818Y-102421411D03*
X295405012Y-105051013D03*
D15*
X324317315Y-98637273D03*
D16*
X319004723Y-100060778D03*
D17*
X314097820Y-101375579D03*
X323911626Y-98745977D03*
D15*
X313692131Y-101484283D03*
D18*
X315158606Y-105025391D03*
X320531755Y-105759740D03*
X314667145Y-98593427D03*
X320143374Y-94496474D03*
D16*
X319004723Y-100060778D03*
D19*
X323911626Y-98745977D03*
X314097820Y-101375579D03*
D15*
X343990019Y-98242066D03*
D16*
X338677427Y-99665571D03*
D17*
X333770524Y-100980372D03*
X343584330Y-98350770D03*
D15*
X333364835Y-101089076D03*
D18*
X334831310Y-104630184D03*
X340204459Y-105364533D03*
X334339849Y-98198220D03*
X339816078Y-94101267D03*
D16*
X338677427Y-99665571D03*
D19*
X343584330Y-98350770D03*
X333770524Y-100980372D03*
D15*
X362738399Y-94777742D03*
D16*
X357425807Y-96201247D03*
D17*
X352518904Y-97516048D03*
X362332710Y-94886446D03*
D15*
X352113215Y-97624752D03*
D18*
X353579690Y-101165860D03*
X358952839Y-101900209D03*
X353088229Y-94733896D03*
X358564458Y-90636943D03*
D16*
X357425807Y-96201247D03*
D19*
X362332710Y-94886446D03*
X352518904Y-97516048D03*
D15*
X380770215Y-88387067D03*
D16*
X375457623Y-89810572D03*
D17*
X370550720Y-91125373D03*
X380364526Y-88495771D03*
D15*
X370145031Y-91234077D03*
D18*
X371611506Y-94775185D03*
X376984655Y-95509534D03*
X371120045Y-88343221D03*
X376596274Y-84246268D03*
D16*
X375457623Y-89810572D03*
D19*
X380364526Y-88495771D03*
X370550720Y-91125373D03*
D15*
X44681579Y-109693313D03*
D16*
X39368987Y-108269808D03*
D17*
X34462084Y-106955007D03*
X44275890Y-109584609D03*
D15*
X34056395Y-106846303D03*
D18*
X33555845Y-110646231D03*
X37841955Y-113968770D03*
X36346210Y-104830256D03*
X43137239Y-104020305D03*
D16*
X39368987Y-108269808D03*
D19*
X44275890Y-109584609D03*
X34462084Y-106955007D03*
D15*
X62732159Y-116111060D03*
D16*
X57419567Y-114687555D03*
D17*
X52512664Y-113372754D03*
X62326470Y-116002356D03*
D15*
X52106975Y-113264050D03*
D18*
X51606425Y-117063978D03*
X55892535Y-120386517D03*
X54396790Y-111248003D03*
X61187819Y-110438052D03*
D16*
X57419567Y-114687555D03*
D19*
X62326470Y-116002356D03*
X52512664Y-113372754D03*
D15*
X81481874Y-119569315D03*
D16*
X76169282Y-118145810D03*
D17*
X71262379Y-116831009D03*
X81076185Y-119460611D03*
D15*
X70856690Y-116722305D03*
D18*
X70356140Y-120522233D03*
X74642250Y-123844772D03*
X73146505Y-114706258D03*
X79937534Y-113896307D03*
D16*
X76169282Y-118145810D03*
D19*
X81076185Y-119460611D03*
X71262379Y-116831009D03*
D15*
X101180174Y-119858962D03*
D16*
X95867582Y-118435457D03*
D17*
X90960679Y-117120656D03*
X100774485Y-119750258D03*
D15*
X90554990Y-117011952D03*
D18*
X90054440Y-120811880D03*
X94340550Y-124134419D03*
X92844805Y-114995905D03*
X99635834Y-114185954D03*
D16*
X95867582Y-118435457D03*
D19*
X100774485Y-119750258D03*
X90960679Y-117120656D03*
D15*
X119860594Y-123493400D03*
D16*
X114548002Y-122069895D03*
D17*
X109641099Y-120755094D03*
X119454905Y-123384696D03*
D15*
X109235410Y-120646390D03*
D18*
X108734860Y-124446318D03*
X113020970Y-127768857D03*
X111525225Y-118630343D03*
X118316254Y-117820392D03*
D16*
X114548002Y-122069895D03*
D19*
X119454905Y-123384696D03*
X109641099Y-120755094D03*
D15*
X138011232Y-129724097D03*
D16*
X132698640Y-128300592D03*
D17*
X127791737Y-126985791D03*
X137605543Y-129615393D03*
D15*
X127386048Y-126877087D03*
D18*
X126885498Y-130677015D03*
X131171608Y-133999554D03*
X129675863Y-124861040D03*
X136466892Y-124051089D03*
D16*
X132698640Y-128300592D03*
D19*
X137605543Y-129615393D03*
X127791737Y-126985791D03*
D15*
X155725573Y-136954536D03*
D16*
X150412981Y-135531031D03*
D17*
X145506078Y-134216230D03*
X155319884Y-136845832D03*
D15*
X145100389Y-134107526D03*
D18*
X144599839Y-137907454D03*
X148885949Y-141229993D03*
X147390204Y-132091479D03*
X154181233Y-131281528D03*
D16*
X150412981Y-135531031D03*
D19*
X155319884Y-136845832D03*
X145506078Y-134216230D03*
D15*
X186979982Y-139697890D03*
D16*
X181479982Y-139697890D03*
D17*
X176399982Y-139697890D03*
X186559982Y-139697890D03*
D15*
X175979982Y-139697890D03*
D18*
X176479982Y-143497890D03*
X181479982Y-145597890D03*
X177669982Y-137157890D03*
X184019982Y-134617890D03*
D16*
X181479982Y-139697890D03*
D19*
X186559982Y-139697890D03*
X176399982Y-139697890D03*
D15*
X205981210Y-139689145D03*
D16*
X200481210Y-139689145D03*
D17*
X195401210Y-139689145D03*
X205561210Y-139689145D03*
D15*
X194981210Y-139689145D03*
D18*
X195481210Y-143489145D03*
X200481210Y-145589145D03*
X196671210Y-137149145D03*
X203021210Y-134609145D03*
D16*
X200481210Y-139689145D03*
D19*
X205561210Y-139689145D03*
X195401210Y-139689145D03*
D15*
X224957600Y-139677803D03*
D16*
X219457600Y-139677803D03*
D17*
X214377600Y-139677803D03*
X224537600Y-139677803D03*
D15*
X213957600Y-139677803D03*
D18*
X214457600Y-143477803D03*
X219457600Y-145577803D03*
X215647600Y-137137803D03*
X221997600Y-134597803D03*
D16*
X219457600Y-139677803D03*
D19*
X224537600Y-139677803D03*
X214377600Y-139677803D03*
D15*
X243954704Y-139684832D03*
D16*
X238454704Y-139684832D03*
D17*
X233374704Y-139684832D03*
X243534704Y-139684832D03*
D15*
X232954704Y-139684832D03*
D18*
X233454704Y-143484832D03*
X238454704Y-145584832D03*
X234644704Y-137144832D03*
X240994704Y-134604832D03*
D16*
X238454704Y-139684832D03*
D19*
X243534704Y-139684832D03*
X233374704Y-139684832D03*
D15*
X274692804Y-134193921D03*
D16*
X269380212Y-135617426D03*
D17*
X264473309Y-136932227D03*
X274287115Y-134302625D03*
D15*
X264067620Y-137040931D03*
D18*
X265534095Y-140582039D03*
X270907244Y-141316388D03*
X265042634Y-134150075D03*
X270518863Y-130053122D03*
D16*
X269380212Y-135617426D03*
D19*
X274287115Y-134302625D03*
X264473309Y-136932227D03*
D15*
X292447048Y-126980347D03*
D16*
X287134456Y-128403852D03*
D17*
X282227553Y-129718653D03*
X292041359Y-127089051D03*
D15*
X281821864Y-129827357D03*
D18*
X283288339Y-133368465D03*
X288661488Y-134102814D03*
X282796878Y-126936501D03*
X288273107Y-122839548D03*
D16*
X287134456Y-128403852D03*
D19*
X292041359Y-127089051D03*
X282227553Y-129718653D03*
D15*
X310567469Y-120790605D03*
D16*
X305254877Y-122214110D03*
D17*
X300347974Y-123528911D03*
X310161780Y-120899309D03*
D15*
X299942285Y-123637615D03*
D18*
X301408760Y-127178723D03*
X306781909Y-127913072D03*
X300917299Y-120746759D03*
X306393528Y-116649806D03*
D16*
X305254877Y-122214110D03*
D19*
X310161780Y-120899309D03*
X300347974Y-123528911D03*
D15*
X329234181Y-117101509D03*
D16*
X323921589Y-118525014D03*
D17*
X319014686Y-119839815D03*
X328828492Y-117210213D03*
D15*
X318608997Y-119948519D03*
D18*
X320075472Y-123489627D03*
X325448621Y-124223976D03*
X319584011Y-117057663D03*
X325060240Y-112960710D03*
D16*
X323921589Y-118525014D03*
D19*
X328828492Y-117210213D03*
X319014686Y-119839815D03*
D15*
X348941601Y-116794967D03*
D16*
X343629009Y-118218472D03*
D17*
X338722106Y-119533273D03*
X348535912Y-116903671D03*
D15*
X338316417Y-119641977D03*
D18*
X339782892Y-123183085D03*
X345156041Y-123917434D03*
X339291431Y-116751121D03*
X344767660Y-112654168D03*
D16*
X343629009Y-118218472D03*
D19*
X348535912Y-116903671D03*
X338722106Y-119533273D03*
D15*
X385729959Y-106956937D03*
D16*
X380417367Y-108380442D03*
D17*
X375510464Y-109695243D03*
X385324270Y-107065641D03*
D15*
X375104775Y-109803947D03*
D18*
X376571250Y-113345055D03*
X381944399Y-114079404D03*
X376079789Y-106913091D03*
X381556018Y-102816138D03*
D16*
X380417367Y-108380442D03*
D19*
X385324270Y-107065641D03*
X375510464Y-109695243D03*
D15*
X39743551Y-128082367D03*
D16*
X34430959Y-126658862D03*
D17*
X29524056Y-125344061D03*
X39337862Y-127973663D03*
D15*
X29118367Y-125235357D03*
D18*
X28617817Y-129035285D03*
X32903927Y-132357824D03*
X31408182Y-123219310D03*
X38199211Y-122409359D03*
D16*
X34430959Y-126658862D03*
D19*
X39337862Y-127973663D03*
X29524056Y-125344061D03*
D15*
X57797753Y-134445742D03*
D16*
X52485161Y-133022237D03*
D17*
X47578258Y-131707436D03*
X57392064Y-134337038D03*
D15*
X47172569Y-131598732D03*
D18*
X46672019Y-135398660D03*
X50958129Y-138721199D03*
X49462384Y-129582685D03*
X56253413Y-128772734D03*
D16*
X52485161Y-133022237D03*
D19*
X57392064Y-134337038D03*
X47578258Y-131707436D03*
D15*
X76567027Y-137912044D03*
D16*
X71254435Y-136488539D03*
D17*
X66347532Y-135173738D03*
X76161338Y-137803340D03*
D15*
X65941843Y-135065034D03*
D18*
X65441293Y-138864962D03*
X69727403Y-142187501D03*
X68231658Y-133048987D03*
X75022687Y-132239036D03*
D16*
X71254435Y-136488539D03*
D19*
X76161338Y-137803340D03*
X66347532Y-135173738D03*
D15*
X96204762Y-138325080D03*
D16*
X90892170Y-136901575D03*
D17*
X85985267Y-135586774D03*
X95799073Y-138216376D03*
D15*
X85579578Y-135478070D03*
D18*
X85079028Y-139277998D03*
X89365138Y-142600537D03*
X87869393Y-133462023D03*
X94660422Y-132652072D03*
D16*
X90892170Y-136901575D03*
D19*
X95799073Y-138216376D03*
X85985267Y-135586774D03*
D15*
X114955296Y-141902760D03*
D16*
X109642704Y-140479255D03*
D17*
X104735801Y-139164454D03*
X114549607Y-141794056D03*
D15*
X104330112Y-139055750D03*
D18*
X103829562Y-142855678D03*
X108115672Y-146178217D03*
X106619927Y-137039703D03*
X113410956Y-136229752D03*
D16*
X109642704Y-140479255D03*
D19*
X114549607Y-141794056D03*
X104735801Y-139164454D03*
D15*
X133056367Y-148189997D03*
D16*
X127743775Y-146766492D03*
D17*
X122836872Y-145451691D03*
X132650678Y-148081293D03*
D15*
X122431183Y-145342987D03*
D18*
X121930633Y-149142915D03*
X126216743Y-152465454D03*
X124720998Y-143326940D03*
X131512027Y-142516989D03*
D16*
X127743775Y-146766492D03*
D19*
X132650678Y-148081293D03*
X122836872Y-145451691D03*
D15*
X150798448Y-155321856D03*
D16*
X145485856Y-153898351D03*
D17*
X140578953Y-152583550D03*
X150392759Y-155213152D03*
D15*
X140173264Y-152474846D03*
D18*
X139672714Y-156274774D03*
X143958824Y-159597313D03*
X142463079Y-150458799D03*
X149254108Y-149648848D03*
D16*
X145485856Y-153898351D03*
D19*
X150392759Y-155213152D03*
X140578953Y-152583550D03*
D15*
X186990210Y-158719962D03*
D16*
X181490210Y-158719962D03*
D17*
X176410210Y-158719962D03*
X186570210Y-158719962D03*
D15*
X175990210Y-158719962D03*
D18*
X176490210Y-162519962D03*
X181490210Y-164619962D03*
X177680210Y-156179962D03*
X184030210Y-153639962D03*
D16*
X181490210Y-158719962D03*
D19*
X186570210Y-158719962D03*
X176410210Y-158719962D03*
D15*
X205981345Y-158720277D03*
D16*
X200481345Y-158720277D03*
D17*
X195401345Y-158720277D03*
X205561345Y-158720277D03*
D15*
X194981345Y-158720277D03*
D18*
X195481345Y-162520277D03*
X200481345Y-164620277D03*
X196671345Y-156180277D03*
X203021345Y-153640277D03*
D16*
X200481345Y-158720277D03*
D19*
X205561345Y-158720277D03*
X195401345Y-158720277D03*
D15*
X224974685Y-158703844D03*
D16*
X219474685Y-158703844D03*
D17*
X214394685Y-158703844D03*
X224554685Y-158703844D03*
D15*
X213974685Y-158703844D03*
D18*
X214474685Y-162503844D03*
X219474685Y-164603844D03*
X215664685Y-156163844D03*
X222014685Y-153623844D03*
D16*
X219474685Y-158703844D03*
D19*
X224554685Y-158703844D03*
X214394685Y-158703844D03*
D15*
X243966643Y-158701118D03*
D16*
X238466643Y-158701118D03*
D17*
X233386643Y-158701118D03*
X243546643Y-158701118D03*
D15*
X232966643Y-158701118D03*
D18*
X233466643Y-162501118D03*
X238466643Y-164601118D03*
X234656643Y-156161118D03*
X241006643Y-153621118D03*
D16*
X238466643Y-158701118D03*
D19*
X243546643Y-158701118D03*
X233386643Y-158701118D03*
D15*
X279629037Y-152549783D03*
D16*
X274316445Y-153973288D03*
D17*
X269409542Y-155288089D03*
X279223348Y-152658487D03*
D15*
X269003853Y-155396793D03*
D18*
X270470328Y-158937901D03*
X275843477Y-159672250D03*
X269978867Y-152505937D03*
X275455096Y-148408984D03*
D16*
X274316445Y-153973288D03*
D19*
X279223348Y-152658487D03*
X269409542Y-155288089D03*
D15*
X297374566Y-145394259D03*
D16*
X292061974Y-146817764D03*
D17*
X287155071Y-148132565D03*
X296968877Y-145502963D03*
D15*
X286749382Y-148241269D03*
D18*
X288215857Y-151782377D03*
X293589006Y-152516726D03*
X287724396Y-145350413D03*
X293200625Y-141253460D03*
D16*
X292061974Y-146817764D03*
D19*
X296968877Y-145502963D03*
X287155071Y-148132565D03*
D15*
X315496790Y-139123834D03*
D16*
X310184198Y-140547339D03*
D17*
X305277295Y-141862140D03*
X315091101Y-139232538D03*
D15*
X304871606Y-141970844D03*
D18*
X306338081Y-145511952D03*
X311711230Y-146246301D03*
X305846620Y-139079988D03*
X311322849Y-134983035D03*
D16*
X310184198Y-140547339D03*
D19*
X315091101Y-139232538D03*
X305277295Y-141862140D03*
D15*
X334194787Y-135538446D03*
D16*
X328882195Y-136961951D03*
D17*
X323975292Y-138276752D03*
X333789098Y-135647150D03*
D15*
X323569603Y-138385456D03*
D18*
X325036078Y-141926564D03*
X330409227Y-142660913D03*
X324544617Y-135494600D03*
X330020846Y-131397647D03*
D16*
X328882195Y-136961951D03*
D19*
X333789098Y-135647150D03*
X323975292Y-138276752D03*
D15*
X353866760Y-135154546D03*
D16*
X348554168Y-136578051D03*
D17*
X343647265Y-137892852D03*
X353461071Y-135263250D03*
D15*
X343241576Y-138001556D03*
D18*
X344708051Y-141542664D03*
X350081200Y-142277013D03*
X344216590Y-135110700D03*
X349692819Y-131013747D03*
D16*
X348554168Y-136578051D03*
D19*
X353461071Y-135263250D03*
X343647265Y-137892852D03*
D15*
X372641767Y-131648990D03*
D16*
X367329175Y-133072495D03*
D17*
X362422272Y-134387296D03*
X372236078Y-131757694D03*
D15*
X362016583Y-134496000D03*
D18*
X363483058Y-138037108D03*
X368856207Y-138771457D03*
X362991597Y-131605144D03*
X368467826Y-127508191D03*
D16*
X367329175Y-133072495D03*
D19*
X372236078Y-131757694D03*
X362422272Y-134387296D03*
D15*
X390657314Y-125268438D03*
D16*
X385344722Y-126691943D03*
D17*
X380437819Y-128006744D03*
X390251625Y-125377142D03*
D15*
X380032130Y-128115448D03*
D18*
X381498605Y-131656556D03*
X386871754Y-132390905D03*
X381007144Y-125224592D03*
X386483373Y-121127639D03*
D16*
X385344722Y-126691943D03*
D19*
X390251625Y-125377142D03*
X380437819Y-128006744D03*
D15*
X34835509Y-146499290D03*
D16*
X29522917Y-145075785D03*
D17*
X24616014Y-143760984D03*
X34429820Y-146390586D03*
D15*
X24210325Y-143652280D03*
D18*
X23709775Y-147452208D03*
X27995885Y-150774747D03*
X26500140Y-141636233D03*
X33291169Y-140826282D03*
D16*
X29522917Y-145075785D03*
D19*
X34429820Y-146390586D03*
X24616014Y-143760984D03*
D15*
X71632929Y-156339476D03*
D16*
X66320337Y-154915971D03*
D17*
X61413434Y-153601170D03*
X71227240Y-156230772D03*
D15*
X61007745Y-153492466D03*
D18*
X60507195Y-157292394D03*
X64793305Y-160614933D03*
X63297560Y-151476419D03*
X70088589Y-150666468D03*
D16*
X66320337Y-154915971D03*
D19*
X71227240Y-156230772D03*
X61413434Y-153601170D03*
D15*
X91293142Y-156713263D03*
D16*
X85980550Y-155289758D03*
D17*
X81073647Y-153974957D03*
X90887453Y-156604559D03*
D15*
X80667958Y-153866253D03*
D18*
X80167408Y-157666181D03*
X84453518Y-160988720D03*
X82957773Y-151850206D03*
X89748802Y-151040255D03*
D16*
X85980550Y-155289758D03*
D19*
X90887453Y-156604559D03*
X81073647Y-153974957D03*
D15*
X110024000Y-160296260D03*
D16*
X104711408Y-158872755D03*
D17*
X99804505Y-157557954D03*
X109618311Y-160187556D03*
D15*
X99398816Y-157449250D03*
D18*
X98898266Y-161249178D03*
X103184376Y-164571717D03*
X101688631Y-155433203D03*
X108479660Y-154623252D03*
D16*
X104711408Y-158872755D03*
D19*
X109618311Y-160187556D03*
X99804505Y-157557954D03*
D15*
X128116930Y-166559488D03*
D16*
X122804338Y-165135983D03*
D17*
X117897435Y-163821182D03*
X127711241Y-166450784D03*
D15*
X117491746Y-163712478D03*
D18*
X116991196Y-167512406D03*
X121277306Y-170834945D03*
X119781561Y-161696431D03*
X126572590Y-160886480D03*
D16*
X122804338Y-165135983D03*
D19*
X127711241Y-166450784D03*
X117897435Y-163821182D03*
D15*
X187004206Y-177722335D03*
D16*
X181504206Y-177722335D03*
D17*
X176424206Y-177722335D03*
X186584206Y-177722335D03*
D15*
X176004206Y-177722335D03*
D18*
X176504206Y-181522335D03*
X181504206Y-183622335D03*
X177694206Y-175182335D03*
X184044206Y-172642335D03*
D16*
X181504206Y-177722335D03*
D19*
X186584206Y-177722335D03*
X176424206Y-177722335D03*
D15*
X205993711Y-177712896D03*
D16*
X200493711Y-177712896D03*
D17*
X195413711Y-177712896D03*
X205573711Y-177712896D03*
D15*
X194993711Y-177712896D03*
D18*
X195493711Y-181512896D03*
X200493711Y-183612896D03*
X196683711Y-175172896D03*
X203033711Y-172632896D03*
D16*
X200493711Y-177712896D03*
D19*
X205573711Y-177712896D03*
X195413711Y-177712896D03*
D15*
X224999599Y-177693491D03*
D16*
X219499599Y-177693491D03*
D17*
X214419599Y-177693491D03*
X224579599Y-177693491D03*
D15*
X213999599Y-177693491D03*
D18*
X214499599Y-181493491D03*
X219499599Y-183593491D03*
X215689599Y-175153491D03*
X222039599Y-172613491D03*
D16*
X219499599Y-177693491D03*
D19*
X224579599Y-177693491D03*
X214419599Y-177693491D03*
D15*
X243962754Y-177682742D03*
D16*
X238462754Y-177682742D03*
D17*
X233382754Y-177682742D03*
X243542754Y-177682742D03*
D15*
X232962754Y-177682742D03*
D18*
X233462754Y-181482742D03*
X238462754Y-183582742D03*
X234652754Y-175142742D03*
X241002754Y-172602742D03*
D16*
X238462754Y-177682742D03*
D19*
X243542754Y-177682742D03*
X233382754Y-177682742D03*
D15*
X302293612Y-163791067D03*
D16*
X296981020Y-165214572D03*
D17*
X292074117Y-166529373D03*
X301887923Y-163899771D03*
D15*
X291668428Y-166638077D03*
D18*
X293134903Y-170179185D03*
X298508052Y-170913534D03*
X292643442Y-163747221D03*
X298119671Y-159650268D03*
D16*
X296981020Y-165214572D03*
D19*
X301887923Y-163899771D03*
X292074117Y-166529373D03*
D15*
X320411057Y-157498956D03*
D16*
X315098465Y-158922461D03*
D17*
X310191562Y-160237262D03*
X320005368Y-157607660D03*
D15*
X309785873Y-160345966D03*
D18*
X311252348Y-163887074D03*
X316625497Y-164621423D03*
X310760887Y-157455110D03*
X316237116Y-153358157D03*
D16*
X315098465Y-158922461D03*
D19*
X320005368Y-157607660D03*
X310191562Y-160237262D03*
D15*
X339131563Y-153945723D03*
D16*
X333818971Y-155369228D03*
D17*
X328912068Y-156684029D03*
X338725874Y-154054427D03*
D15*
X328506379Y-156792733D03*
D18*
X329972854Y-160333841D03*
X335346003Y-161068190D03*
X329481393Y-153901877D03*
X334957622Y-149804924D03*
D16*
X333818971Y-155369228D03*
D19*
X338725874Y-154054427D03*
X328912068Y-156684029D03*
D15*
X358812763Y-153549465D03*
D16*
X353500171Y-154972970D03*
D17*
X348593268Y-156287771D03*
X358407074Y-153658169D03*
D15*
X348187579Y-156396475D03*
D18*
X349654054Y-159937583D03*
X355027203Y-160671932D03*
X349162593Y-153505619D03*
X354638822Y-149408666D03*
D16*
X353500171Y-154972970D03*
D19*
X358407074Y-153658169D03*
X348593268Y-156287771D03*
D15*
X377574783Y-150079097D03*
D16*
X372262191Y-151502602D03*
D17*
X367355288Y-152817403D03*
X377169094Y-150187801D03*
D15*
X366949599Y-152926107D03*
D18*
X368416074Y-156467215D03*
X373789223Y-157201564D03*
X367924613Y-150035251D03*
X373400842Y-145938298D03*
D16*
X372262191Y-151502602D03*
D19*
X377169094Y-150187801D03*
X367355288Y-152817403D03*
D15*
X395592898Y-143682800D03*
D16*
X390280306Y-145106305D03*
D17*
X385373403Y-146421106D03*
X395187209Y-143791504D03*
D15*
X384967714Y-146529810D03*
D18*
X386434189Y-150070918D03*
X391807338Y-150805267D03*
X385942728Y-143638954D03*
X391418957Y-139542001D03*
D16*
X390280306Y-145106305D03*
D19*
X395187209Y-143791504D03*
X385373403Y-146421106D03*
D22*
X227838000Y-85795000D03*
X227838000Y-86995000D03*
X227838000Y-88195000D03*
G36*
G01*
X230980000Y-85024000D02*
X231300000Y-85024000D01*
G75*
G02*
X231460000Y-85184000I0J-160000D01*
G01*
X231460000Y-85579000D01*
G75*
G02*
X231300000Y-85739000I-160000J0D01*
G01*
X230980000Y-85739000D01*
G75*
G02*
X230820000Y-85579000I0J160000D01*
G01*
X230820000Y-85184000D01*
G75*
G02*
X230980000Y-85024000I160000J0D01*
G01*
G37*
G36*
G01*
X230980000Y-86219000D02*
X231300000Y-86219000D01*
G75*
G02*
X231460000Y-86379000I0J-160000D01*
G01*
X231460000Y-86774000D01*
G75*
G02*
X231300000Y-86934000I-160000J0D01*
G01*
X230980000Y-86934000D01*
G75*
G02*
X230820000Y-86774000I0J160000D01*
G01*
X230820000Y-86379000D01*
G75*
G02*
X230980000Y-86219000I160000J0D01*
G01*
G37*
D23*
X217340000Y-81346000D03*
X217340000Y-82296000D03*
X217340000Y-83246000D03*
X219540000Y-83246000D03*
X219540000Y-81346000D03*
X219540000Y-82296000D03*
D24*
G36*
X238345736Y-79077818D02*
G01*
X237992182Y-78724264D01*
X238416446Y-78300000D01*
X238770000Y-78653554D01*
X238345736Y-79077818D01*
G37*
G36*
X239123554Y-78300000D02*
G01*
X238770000Y-77946446D01*
X239194264Y-77522182D01*
X239547818Y-77875736D01*
X239123554Y-78300000D01*
G37*
G36*
X243513554Y-82830000D02*
G01*
X243160000Y-82476446D01*
X243584264Y-82052182D01*
X243937818Y-82405736D01*
X243513554Y-82830000D01*
G37*
G36*
X242735736Y-83607818D02*
G01*
X242382182Y-83254264D01*
X242806446Y-82830000D01*
X243160000Y-83183554D01*
X242735736Y-83607818D01*
G37*
G36*
X238549264Y-89836682D02*
G01*
X238902818Y-90190236D01*
X238478554Y-90614500D01*
X238125000Y-90260946D01*
X238549264Y-89836682D01*
G37*
G36*
X237771446Y-90614500D02*
G01*
X238125000Y-90968054D01*
X237700736Y-91392318D01*
X237347182Y-91038764D01*
X237771446Y-90614500D01*
G37*
D25*
X231606000Y-81534000D03*
X232706000Y-81534000D03*
D26*
X198374000Y-83312000D03*
D27*
X200914000Y-83312000D03*
X198374000Y-80772000D03*
X200914000Y-80772000D03*
X198374000Y-78232000D03*
X200914000Y-78232000D03*
G36*
G01*
X233111000Y-80104000D02*
X233111000Y-80424000D01*
G75*
G02*
X232951000Y-80584000I-160000J0D01*
G01*
X232556000Y-80584000D01*
G75*
G02*
X232396000Y-80424000I0J160000D01*
G01*
X232396000Y-80104000D01*
G75*
G02*
X232556000Y-79944000I160000J0D01*
G01*
X232951000Y-79944000D01*
G75*
G02*
X233111000Y-80104000I0J-160000D01*
G01*
G37*
G36*
G01*
X231916000Y-80104000D02*
X231916000Y-80424000D01*
G75*
G02*
X231756000Y-80584000I-160000J0D01*
G01*
X231361000Y-80584000D01*
G75*
G02*
X231201000Y-80424000I0J160000D01*
G01*
X231201000Y-80104000D01*
G75*
G02*
X231361000Y-79944000I160000J0D01*
G01*
X231756000Y-79944000D01*
G75*
G02*
X231916000Y-80104000I0J-160000D01*
G01*
G37*
G36*
G01*
X233111000Y-79088000D02*
X233111000Y-79408000D01*
G75*
G02*
X232951000Y-79568000I-160000J0D01*
G01*
X232556000Y-79568000D01*
G75*
G02*
X232396000Y-79408000I0J160000D01*
G01*
X232396000Y-79088000D01*
G75*
G02*
X232556000Y-78928000I160000J0D01*
G01*
X232951000Y-78928000D01*
G75*
G02*
X233111000Y-79088000I0J-160000D01*
G01*
G37*
G36*
G01*
X231916000Y-79088000D02*
X231916000Y-79408000D01*
G75*
G02*
X231756000Y-79568000I-160000J0D01*
G01*
X231361000Y-79568000D01*
G75*
G02*
X231201000Y-79408000I0J160000D01*
G01*
X231201000Y-79088000D01*
G75*
G02*
X231361000Y-78928000I160000J0D01*
G01*
X231756000Y-78928000D01*
G75*
G02*
X231916000Y-79088000I0J-160000D01*
G01*
G37*
G36*
G01*
X243978424Y-86962150D02*
X243752150Y-87188424D01*
G75*
G02*
X243525876Y-87188424I-113137J113137D01*
G01*
X243246568Y-86909116D01*
G75*
G02*
X243246568Y-86682842I113137J113137D01*
G01*
X243472842Y-86456568D01*
G75*
G02*
X243699116Y-86456568I113137J-113137D01*
G01*
X243978424Y-86735876D01*
G75*
G02*
X243978424Y-86962150I-113137J-113137D01*
G01*
G37*
G36*
G01*
X243133432Y-86117158D02*
X242907158Y-86343432D01*
G75*
G02*
X242680884Y-86343432I-113137J113137D01*
G01*
X242401576Y-86064124D01*
G75*
G02*
X242401576Y-85837850I113137J113137D01*
G01*
X242627850Y-85611576D01*
G75*
G02*
X242854124Y-85611576I113137J-113137D01*
G01*
X243133432Y-85890884D01*
G75*
G02*
X243133432Y-86117158I-113137J-113137D01*
G01*
G37*
G36*
G01*
X215895000Y-84370000D02*
X215895000Y-84690000D01*
G75*
G02*
X215735000Y-84850000I-160000J0D01*
G01*
X215340000Y-84850000D01*
G75*
G02*
X215180000Y-84690000I0J160000D01*
G01*
X215180000Y-84370000D01*
G75*
G02*
X215340000Y-84210000I160000J0D01*
G01*
X215735000Y-84210000D01*
G75*
G02*
X215895000Y-84370000I0J-160000D01*
G01*
G37*
G36*
G01*
X214700000Y-84370000D02*
X214700000Y-84690000D01*
G75*
G02*
X214540000Y-84850000I-160000J0D01*
G01*
X214145000Y-84850000D01*
G75*
G02*
X213985000Y-84690000I0J160000D01*
G01*
X213985000Y-84370000D01*
G75*
G02*
X214145000Y-84210000I160000J0D01*
G01*
X214540000Y-84210000D01*
G75*
G02*
X214700000Y-84370000I0J-160000D01*
G01*
G37*
G36*
G01*
X205190000Y-84700000D02*
X205190000Y-84380000D01*
G75*
G02*
X205350000Y-84220000I160000J0D01*
G01*
X205745000Y-84220000D01*
G75*
G02*
X205905000Y-84380000I0J-160000D01*
G01*
X205905000Y-84700000D01*
G75*
G02*
X205745000Y-84860000I-160000J0D01*
G01*
X205350000Y-84860000D01*
G75*
G02*
X205190000Y-84700000I0J160000D01*
G01*
G37*
G36*
G01*
X203995000Y-84700000D02*
X203995000Y-84380000D01*
G75*
G02*
X204155000Y-84220000I160000J0D01*
G01*
X204550000Y-84220000D01*
G75*
G02*
X204710000Y-84380000I0J-160000D01*
G01*
X204710000Y-84700000D01*
G75*
G02*
X204550000Y-84860000I-160000J0D01*
G01*
X204155000Y-84860000D01*
G75*
G02*
X203995000Y-84700000I0J160000D01*
G01*
G37*
D24*
G36*
X233813045Y-84582000D02*
G01*
X237490000Y-80905045D01*
X241166955Y-84582000D01*
X237490000Y-88258955D01*
X233813045Y-84582000D01*
G37*
G36*
G01*
X237657938Y-80701752D02*
X238329690Y-80030000D01*
G75*
G02*
X238418078Y-80030000I44194J-44194D01*
G01*
X238506466Y-80118388D01*
G75*
G02*
X238506466Y-80206776I-44194J-44194D01*
G01*
X237834714Y-80878528D01*
G75*
G02*
X237746326Y-80878528I-44194J44194D01*
G01*
X237657938Y-80790140D01*
G75*
G02*
X237657938Y-80701752I44194J44194D01*
G01*
G37*
G36*
G01*
X238011491Y-81055306D02*
X238683243Y-80383554D01*
G75*
G02*
X238771631Y-80383554I44194J-44194D01*
G01*
X238860019Y-80471942D01*
G75*
G02*
X238860019Y-80560330I-44194J-44194D01*
G01*
X238188267Y-81232082D01*
G75*
G02*
X238099879Y-81232082I-44194J44194D01*
G01*
X238011491Y-81143694D01*
G75*
G02*
X238011491Y-81055306I44194J44194D01*
G01*
G37*
G36*
G01*
X238365045Y-81408859D02*
X239036797Y-80737107D01*
G75*
G02*
X239125185Y-80737107I44194J-44194D01*
G01*
X239213573Y-80825495D01*
G75*
G02*
X239213573Y-80913883I-44194J-44194D01*
G01*
X238541821Y-81585635D01*
G75*
G02*
X238453433Y-81585635I-44194J44194D01*
G01*
X238365045Y-81497247D01*
G75*
G02*
X238365045Y-81408859I44194J44194D01*
G01*
G37*
G36*
G01*
X238718598Y-81762412D02*
X239390350Y-81090660D01*
G75*
G02*
X239478738Y-81090660I44194J-44194D01*
G01*
X239567126Y-81179048D01*
G75*
G02*
X239567126Y-81267436I-44194J-44194D01*
G01*
X238895374Y-81939188D01*
G75*
G02*
X238806986Y-81939188I-44194J44194D01*
G01*
X238718598Y-81850800D01*
G75*
G02*
X238718598Y-81762412I44194J44194D01*
G01*
G37*
G36*
G01*
X239072151Y-82115966D02*
X239743903Y-81444214D01*
G75*
G02*
X239832291Y-81444214I44194J-44194D01*
G01*
X239920679Y-81532602D01*
G75*
G02*
X239920679Y-81620990I-44194J-44194D01*
G01*
X239248927Y-82292742D01*
G75*
G02*
X239160539Y-82292742I-44194J44194D01*
G01*
X239072151Y-82204354D01*
G75*
G02*
X239072151Y-82115966I44194J44194D01*
G01*
G37*
G36*
G01*
X239425705Y-82469519D02*
X240097457Y-81797767D01*
G75*
G02*
X240185845Y-81797767I44194J-44194D01*
G01*
X240274233Y-81886155D01*
G75*
G02*
X240274233Y-81974543I-44194J-44194D01*
G01*
X239602481Y-82646295D01*
G75*
G02*
X239514093Y-82646295I-44194J44194D01*
G01*
X239425705Y-82557907D01*
G75*
G02*
X239425705Y-82469519I44194J44194D01*
G01*
G37*
G36*
G01*
X239779258Y-82823073D02*
X240451010Y-82151321D01*
G75*
G02*
X240539398Y-82151321I44194J-44194D01*
G01*
X240627786Y-82239709D01*
G75*
G02*
X240627786Y-82328097I-44194J-44194D01*
G01*
X239956034Y-82999849D01*
G75*
G02*
X239867646Y-82999849I-44194J44194D01*
G01*
X239779258Y-82911461D01*
G75*
G02*
X239779258Y-82823073I44194J44194D01*
G01*
G37*
G36*
G01*
X240132812Y-83176626D02*
X240804564Y-82504874D01*
G75*
G02*
X240892952Y-82504874I44194J-44194D01*
G01*
X240981340Y-82593262D01*
G75*
G02*
X240981340Y-82681650I-44194J-44194D01*
G01*
X240309588Y-83353402D01*
G75*
G02*
X240221200Y-83353402I-44194J44194D01*
G01*
X240132812Y-83265014D01*
G75*
G02*
X240132812Y-83176626I44194J44194D01*
G01*
G37*
G36*
G01*
X240486365Y-83530179D02*
X241158117Y-82858427D01*
G75*
G02*
X241246505Y-82858427I44194J-44194D01*
G01*
X241334893Y-82946815D01*
G75*
G02*
X241334893Y-83035203I-44194J-44194D01*
G01*
X240663141Y-83706955D01*
G75*
G02*
X240574753Y-83706955I-44194J44194D01*
G01*
X240486365Y-83618567D01*
G75*
G02*
X240486365Y-83530179I44194J44194D01*
G01*
G37*
G36*
G01*
X240839918Y-83883733D02*
X241511670Y-83211981D01*
G75*
G02*
X241600058Y-83211981I44194J-44194D01*
G01*
X241688446Y-83300369D01*
G75*
G02*
X241688446Y-83388757I-44194J-44194D01*
G01*
X241016694Y-84060509D01*
G75*
G02*
X240928306Y-84060509I-44194J44194D01*
G01*
X240839918Y-83972121D01*
G75*
G02*
X240839918Y-83883733I44194J44194D01*
G01*
G37*
G36*
G01*
X241193472Y-84237286D02*
X241865224Y-83565534D01*
G75*
G02*
X241953612Y-83565534I44194J-44194D01*
G01*
X242042000Y-83653922D01*
G75*
G02*
X242042000Y-83742310I-44194J-44194D01*
G01*
X241370248Y-84414062D01*
G75*
G02*
X241281860Y-84414062I-44194J44194D01*
G01*
X241193472Y-84325674D01*
G75*
G02*
X241193472Y-84237286I44194J44194D01*
G01*
G37*
G36*
G01*
X241193472Y-84838326D02*
X241281860Y-84749938D01*
G75*
G02*
X241370248Y-84749938I44194J-44194D01*
G01*
X242042000Y-85421690D01*
G75*
G02*
X242042000Y-85510078I-44194J-44194D01*
G01*
X241953612Y-85598466D01*
G75*
G02*
X241865224Y-85598466I-44194J44194D01*
G01*
X241193472Y-84926714D01*
G75*
G02*
X241193472Y-84838326I44194J44194D01*
G01*
G37*
G36*
G01*
X240839918Y-85191879D02*
X240928306Y-85103491D01*
G75*
G02*
X241016694Y-85103491I44194J-44194D01*
G01*
X241688446Y-85775243D01*
G75*
G02*
X241688446Y-85863631I-44194J-44194D01*
G01*
X241600058Y-85952019D01*
G75*
G02*
X241511670Y-85952019I-44194J44194D01*
G01*
X240839918Y-85280267D01*
G75*
G02*
X240839918Y-85191879I44194J44194D01*
G01*
G37*
G36*
G01*
X240486365Y-85545433D02*
X240574753Y-85457045D01*
G75*
G02*
X240663141Y-85457045I44194J-44194D01*
G01*
X241334893Y-86128797D01*
G75*
G02*
X241334893Y-86217185I-44194J-44194D01*
G01*
X241246505Y-86305573D01*
G75*
G02*
X241158117Y-86305573I-44194J44194D01*
G01*
X240486365Y-85633821D01*
G75*
G02*
X240486365Y-85545433I44194J44194D01*
G01*
G37*
G36*
G01*
X240132812Y-85898986D02*
X240221200Y-85810598D01*
G75*
G02*
X240309588Y-85810598I44194J-44194D01*
G01*
X240981340Y-86482350D01*
G75*
G02*
X240981340Y-86570738I-44194J-44194D01*
G01*
X240892952Y-86659126D01*
G75*
G02*
X240804564Y-86659126I-44194J44194D01*
G01*
X240132812Y-85987374D01*
G75*
G02*
X240132812Y-85898986I44194J44194D01*
G01*
G37*
G36*
G01*
X239779258Y-86252539D02*
X239867646Y-86164151D01*
G75*
G02*
X239956034Y-86164151I44194J-44194D01*
G01*
X240627786Y-86835903D01*
G75*
G02*
X240627786Y-86924291I-44194J-44194D01*
G01*
X240539398Y-87012679D01*
G75*
G02*
X240451010Y-87012679I-44194J44194D01*
G01*
X239779258Y-86340927D01*
G75*
G02*
X239779258Y-86252539I44194J44194D01*
G01*
G37*
G36*
G01*
X239425705Y-86606093D02*
X239514093Y-86517705D01*
G75*
G02*
X239602481Y-86517705I44194J-44194D01*
G01*
X240274233Y-87189457D01*
G75*
G02*
X240274233Y-87277845I-44194J-44194D01*
G01*
X240185845Y-87366233D01*
G75*
G02*
X240097457Y-87366233I-44194J44194D01*
G01*
X239425705Y-86694481D01*
G75*
G02*
X239425705Y-86606093I44194J44194D01*
G01*
G37*
G36*
G01*
X239072151Y-86959646D02*
X239160539Y-86871258D01*
G75*
G02*
X239248927Y-86871258I44194J-44194D01*
G01*
X239920679Y-87543010D01*
G75*
G02*
X239920679Y-87631398I-44194J-44194D01*
G01*
X239832291Y-87719786D01*
G75*
G02*
X239743903Y-87719786I-44194J44194D01*
G01*
X239072151Y-87048034D01*
G75*
G02*
X239072151Y-86959646I44194J44194D01*
G01*
G37*
G36*
G01*
X238718598Y-87313200D02*
X238806986Y-87224812D01*
G75*
G02*
X238895374Y-87224812I44194J-44194D01*
G01*
X239567126Y-87896564D01*
G75*
G02*
X239567126Y-87984952I-44194J-44194D01*
G01*
X239478738Y-88073340D01*
G75*
G02*
X239390350Y-88073340I-44194J44194D01*
G01*
X238718598Y-87401588D01*
G75*
G02*
X238718598Y-87313200I44194J44194D01*
G01*
G37*
G36*
G01*
X238365045Y-87666753D02*
X238453433Y-87578365D01*
G75*
G02*
X238541821Y-87578365I44194J-44194D01*
G01*
X239213573Y-88250117D01*
G75*
G02*
X239213573Y-88338505I-44194J-44194D01*
G01*
X239125185Y-88426893D01*
G75*
G02*
X239036797Y-88426893I-44194J44194D01*
G01*
X238365045Y-87755141D01*
G75*
G02*
X238365045Y-87666753I44194J44194D01*
G01*
G37*
G36*
G01*
X238011491Y-88020306D02*
X238099879Y-87931918D01*
G75*
G02*
X238188267Y-87931918I44194J-44194D01*
G01*
X238860019Y-88603670D01*
G75*
G02*
X238860019Y-88692058I-44194J-44194D01*
G01*
X238771631Y-88780446D01*
G75*
G02*
X238683243Y-88780446I-44194J44194D01*
G01*
X238011491Y-88108694D01*
G75*
G02*
X238011491Y-88020306I44194J44194D01*
G01*
G37*
G36*
G01*
X237657938Y-88373860D02*
X237746326Y-88285472D01*
G75*
G02*
X237834714Y-88285472I44194J-44194D01*
G01*
X238506466Y-88957224D01*
G75*
G02*
X238506466Y-89045612I-44194J-44194D01*
G01*
X238418078Y-89134000D01*
G75*
G02*
X238329690Y-89134000I-44194J44194D01*
G01*
X237657938Y-88462248D01*
G75*
G02*
X237657938Y-88373860I44194J44194D01*
G01*
G37*
G36*
G01*
X236473534Y-88957224D02*
X237145286Y-88285472D01*
G75*
G02*
X237233674Y-88285472I44194J-44194D01*
G01*
X237322062Y-88373860D01*
G75*
G02*
X237322062Y-88462248I-44194J-44194D01*
G01*
X236650310Y-89134000D01*
G75*
G02*
X236561922Y-89134000I-44194J44194D01*
G01*
X236473534Y-89045612D01*
G75*
G02*
X236473534Y-88957224I44194J44194D01*
G01*
G37*
G36*
G01*
X236119981Y-88603670D02*
X236791733Y-87931918D01*
G75*
G02*
X236880121Y-87931918I44194J-44194D01*
G01*
X236968509Y-88020306D01*
G75*
G02*
X236968509Y-88108694I-44194J-44194D01*
G01*
X236296757Y-88780446D01*
G75*
G02*
X236208369Y-88780446I-44194J44194D01*
G01*
X236119981Y-88692058D01*
G75*
G02*
X236119981Y-88603670I44194J44194D01*
G01*
G37*
G36*
G01*
X235766427Y-88250117D02*
X236438179Y-87578365D01*
G75*
G02*
X236526567Y-87578365I44194J-44194D01*
G01*
X236614955Y-87666753D01*
G75*
G02*
X236614955Y-87755141I-44194J-44194D01*
G01*
X235943203Y-88426893D01*
G75*
G02*
X235854815Y-88426893I-44194J44194D01*
G01*
X235766427Y-88338505D01*
G75*
G02*
X235766427Y-88250117I44194J44194D01*
G01*
G37*
G36*
G01*
X235412874Y-87896564D02*
X236084626Y-87224812D01*
G75*
G02*
X236173014Y-87224812I44194J-44194D01*
G01*
X236261402Y-87313200D01*
G75*
G02*
X236261402Y-87401588I-44194J-44194D01*
G01*
X235589650Y-88073340D01*
G75*
G02*
X235501262Y-88073340I-44194J44194D01*
G01*
X235412874Y-87984952D01*
G75*
G02*
X235412874Y-87896564I44194J44194D01*
G01*
G37*
G36*
G01*
X235059321Y-87543010D02*
X235731073Y-86871258D01*
G75*
G02*
X235819461Y-86871258I44194J-44194D01*
G01*
X235907849Y-86959646D01*
G75*
G02*
X235907849Y-87048034I-44194J-44194D01*
G01*
X235236097Y-87719786D01*
G75*
G02*
X235147709Y-87719786I-44194J44194D01*
G01*
X235059321Y-87631398D01*
G75*
G02*
X235059321Y-87543010I44194J44194D01*
G01*
G37*
G36*
G01*
X234705767Y-87189457D02*
X235377519Y-86517705D01*
G75*
G02*
X235465907Y-86517705I44194J-44194D01*
G01*
X235554295Y-86606093D01*
G75*
G02*
X235554295Y-86694481I-44194J-44194D01*
G01*
X234882543Y-87366233D01*
G75*
G02*
X234794155Y-87366233I-44194J44194D01*
G01*
X234705767Y-87277845D01*
G75*
G02*
X234705767Y-87189457I44194J44194D01*
G01*
G37*
G36*
G01*
X234352214Y-86835903D02*
X235023966Y-86164151D01*
G75*
G02*
X235112354Y-86164151I44194J-44194D01*
G01*
X235200742Y-86252539D01*
G75*
G02*
X235200742Y-86340927I-44194J-44194D01*
G01*
X234528990Y-87012679D01*
G75*
G02*
X234440602Y-87012679I-44194J44194D01*
G01*
X234352214Y-86924291D01*
G75*
G02*
X234352214Y-86835903I44194J44194D01*
G01*
G37*
G36*
G01*
X233998660Y-86482350D02*
X234670412Y-85810598D01*
G75*
G02*
X234758800Y-85810598I44194J-44194D01*
G01*
X234847188Y-85898986D01*
G75*
G02*
X234847188Y-85987374I-44194J-44194D01*
G01*
X234175436Y-86659126D01*
G75*
G02*
X234087048Y-86659126I-44194J44194D01*
G01*
X233998660Y-86570738D01*
G75*
G02*
X233998660Y-86482350I44194J44194D01*
G01*
G37*
G36*
G01*
X233645107Y-86128797D02*
X234316859Y-85457045D01*
G75*
G02*
X234405247Y-85457045I44194J-44194D01*
G01*
X234493635Y-85545433D01*
G75*
G02*
X234493635Y-85633821I-44194J-44194D01*
G01*
X233821883Y-86305573D01*
G75*
G02*
X233733495Y-86305573I-44194J44194D01*
G01*
X233645107Y-86217185D01*
G75*
G02*
X233645107Y-86128797I44194J44194D01*
G01*
G37*
G36*
G01*
X233291554Y-85775243D02*
X233963306Y-85103491D01*
G75*
G02*
X234051694Y-85103491I44194J-44194D01*
G01*
X234140082Y-85191879D01*
G75*
G02*
X234140082Y-85280267I-44194J-44194D01*
G01*
X233468330Y-85952019D01*
G75*
G02*
X233379942Y-85952019I-44194J44194D01*
G01*
X233291554Y-85863631D01*
G75*
G02*
X233291554Y-85775243I44194J44194D01*
G01*
G37*
G36*
G01*
X232938000Y-85421690D02*
X233609752Y-84749938D01*
G75*
G02*
X233698140Y-84749938I44194J-44194D01*
G01*
X233786528Y-84838326D01*
G75*
G02*
X233786528Y-84926714I-44194J-44194D01*
G01*
X233114776Y-85598466D01*
G75*
G02*
X233026388Y-85598466I-44194J44194D01*
G01*
X232938000Y-85510078D01*
G75*
G02*
X232938000Y-85421690I44194J44194D01*
G01*
G37*
G36*
G01*
X232938000Y-83653922D02*
X233026388Y-83565534D01*
G75*
G02*
X233114776Y-83565534I44194J-44194D01*
G01*
X233786528Y-84237286D01*
G75*
G02*
X233786528Y-84325674I-44194J-44194D01*
G01*
X233698140Y-84414062D01*
G75*
G02*
X233609752Y-84414062I-44194J44194D01*
G01*
X232938000Y-83742310D01*
G75*
G02*
X232938000Y-83653922I44194J44194D01*
G01*
G37*
G36*
G01*
X233291554Y-83300369D02*
X233379942Y-83211981D01*
G75*
G02*
X233468330Y-83211981I44194J-44194D01*
G01*
X234140082Y-83883733D01*
G75*
G02*
X234140082Y-83972121I-44194J-44194D01*
G01*
X234051694Y-84060509D01*
G75*
G02*
X233963306Y-84060509I-44194J44194D01*
G01*
X233291554Y-83388757D01*
G75*
G02*
X233291554Y-83300369I44194J44194D01*
G01*
G37*
G36*
G01*
X233645107Y-82946815D02*
X233733495Y-82858427D01*
G75*
G02*
X233821883Y-82858427I44194J-44194D01*
G01*
X234493635Y-83530179D01*
G75*
G02*
X234493635Y-83618567I-44194J-44194D01*
G01*
X234405247Y-83706955D01*
G75*
G02*
X234316859Y-83706955I-44194J44194D01*
G01*
X233645107Y-83035203D01*
G75*
G02*
X233645107Y-82946815I44194J44194D01*
G01*
G37*
G36*
G01*
X233998660Y-82593262D02*
X234087048Y-82504874D01*
G75*
G02*
X234175436Y-82504874I44194J-44194D01*
G01*
X234847188Y-83176626D01*
G75*
G02*
X234847188Y-83265014I-44194J-44194D01*
G01*
X234758800Y-83353402D01*
G75*
G02*
X234670412Y-83353402I-44194J44194D01*
G01*
X233998660Y-82681650D01*
G75*
G02*
X233998660Y-82593262I44194J44194D01*
G01*
G37*
G36*
G01*
X234352214Y-82239709D02*
X234440602Y-82151321D01*
G75*
G02*
X234528990Y-82151321I44194J-44194D01*
G01*
X235200742Y-82823073D01*
G75*
G02*
X235200742Y-82911461I-44194J-44194D01*
G01*
X235112354Y-82999849D01*
G75*
G02*
X235023966Y-82999849I-44194J44194D01*
G01*
X234352214Y-82328097D01*
G75*
G02*
X234352214Y-82239709I44194J44194D01*
G01*
G37*
G36*
G01*
X234705767Y-81886155D02*
X234794155Y-81797767D01*
G75*
G02*
X234882543Y-81797767I44194J-44194D01*
G01*
X235554295Y-82469519D01*
G75*
G02*
X235554295Y-82557907I-44194J-44194D01*
G01*
X235465907Y-82646295D01*
G75*
G02*
X235377519Y-82646295I-44194J44194D01*
G01*
X234705767Y-81974543D01*
G75*
G02*
X234705767Y-81886155I44194J44194D01*
G01*
G37*
G36*
G01*
X235059321Y-81532602D02*
X235147709Y-81444214D01*
G75*
G02*
X235236097Y-81444214I44194J-44194D01*
G01*
X235907849Y-82115966D01*
G75*
G02*
X235907849Y-82204354I-44194J-44194D01*
G01*
X235819461Y-82292742D01*
G75*
G02*
X235731073Y-82292742I-44194J44194D01*
G01*
X235059321Y-81620990D01*
G75*
G02*
X235059321Y-81532602I44194J44194D01*
G01*
G37*
G36*
G01*
X235412874Y-81179048D02*
X235501262Y-81090660D01*
G75*
G02*
X235589650Y-81090660I44194J-44194D01*
G01*
X236261402Y-81762412D01*
G75*
G02*
X236261402Y-81850800I-44194J-44194D01*
G01*
X236173014Y-81939188D01*
G75*
G02*
X236084626Y-81939188I-44194J44194D01*
G01*
X235412874Y-81267436D01*
G75*
G02*
X235412874Y-81179048I44194J44194D01*
G01*
G37*
G36*
G01*
X235766427Y-80825495D02*
X235854815Y-80737107D01*
G75*
G02*
X235943203Y-80737107I44194J-44194D01*
G01*
X236614955Y-81408859D01*
G75*
G02*
X236614955Y-81497247I-44194J-44194D01*
G01*
X236526567Y-81585635D01*
G75*
G02*
X236438179Y-81585635I-44194J44194D01*
G01*
X235766427Y-80913883D01*
G75*
G02*
X235766427Y-80825495I44194J44194D01*
G01*
G37*
G36*
G01*
X236119981Y-80471942D02*
X236208369Y-80383554D01*
G75*
G02*
X236296757Y-80383554I44194J-44194D01*
G01*
X236968509Y-81055306D01*
G75*
G02*
X236968509Y-81143694I-44194J-44194D01*
G01*
X236880121Y-81232082D01*
G75*
G02*
X236791733Y-81232082I-44194J44194D01*
G01*
X236119981Y-80560330D01*
G75*
G02*
X236119981Y-80471942I44194J44194D01*
G01*
G37*
G36*
G01*
X236473534Y-80118388D02*
X236561922Y-80030000D01*
G75*
G02*
X236650310Y-80030000I44194J-44194D01*
G01*
X237322062Y-80701752D01*
G75*
G02*
X237322062Y-80790140I-44194J-44194D01*
G01*
X237233674Y-80878528D01*
G75*
G02*
X237145286Y-80878528I-44194J44194D01*
G01*
X236473534Y-80206776D01*
G75*
G02*
X236473534Y-80118388I44194J44194D01*
G01*
G37*
D28*
X205621997Y-77690000D03*
D29*
X207051997Y-81340000D03*
D28*
X214261997Y-77690000D03*
D29*
X212831997Y-81340000D03*
D30*
X214261997Y-81870000D03*
X205621997Y-81870000D03*
D31*
X210191997Y-82785000D03*
X208191997Y-82785000D03*
X208691997Y-82785000D03*
X209191997Y-82785000D03*
X209691997Y-82785000D03*
X210691997Y-82785000D03*
X211191997Y-82785000D03*
X211691997Y-82785000D03*
D32*
X206691997Y-82785000D03*
X207491997Y-82785000D03*
X212391997Y-82785000D03*
X213191997Y-82785000D03*
X213191997Y-82785000D03*
X212391997Y-82785000D03*
X207491997Y-82785000D03*
X206691997Y-82785000D03*
D33*
X187096000Y-77856000D03*
X193396000Y-77856000D03*
X187096000Y-81656000D03*
X193396000Y-81656000D03*
D24*
G36*
X236273554Y-78720000D02*
G01*
X235920000Y-78366446D01*
X236344264Y-77942182D01*
X236697818Y-78295736D01*
X236273554Y-78720000D01*
G37*
G36*
X235495736Y-79497818D02*
G01*
X235142182Y-79144264D01*
X235566446Y-78720000D01*
X235920000Y-79073554D01*
X235495736Y-79497818D01*
G37*
G36*
X56533392Y-83370657D02*
G01*
X55470873Y-83085956D01*
X55755574Y-82023437D01*
X56818093Y-82308138D01*
X56533392Y-83370657D01*
G37*
G36*
X57258086Y-80666065D02*
G01*
X56195567Y-80381364D01*
X56480268Y-79318845D01*
X57542787Y-79603546D01*
X57258086Y-80666065D01*
G37*
G36*
X74821392Y-88450657D02*
G01*
X73758873Y-88165956D01*
X74043574Y-87103437D01*
X75106093Y-87388138D01*
X74821392Y-88450657D01*
G37*
G36*
X75546086Y-85746065D02*
G01*
X74483567Y-85461364D01*
X74768268Y-84398845D01*
X75830787Y-84683546D01*
X75546086Y-85746065D01*
G37*
G36*
X94850086Y-87778065D02*
G01*
X93787567Y-87493364D01*
X94072268Y-86430845D01*
X95134787Y-86715546D01*
X94850086Y-87778065D01*
G37*
G36*
X94125392Y-90482657D02*
G01*
X93062873Y-90197956D01*
X93347574Y-89135437D01*
X94410093Y-89420138D01*
X94125392Y-90482657D01*
G37*
G36*
X113900086Y-89556065D02*
G01*
X112837567Y-89271364D01*
X113122268Y-88208845D01*
X114184787Y-88493546D01*
X113900086Y-89556065D01*
G37*
G36*
X113175392Y-92260657D02*
G01*
X112112873Y-91975956D01*
X112397574Y-90913437D01*
X113460093Y-91198138D01*
X113175392Y-92260657D01*
G37*
G36*
X132442086Y-94636065D02*
G01*
X131379567Y-94351364D01*
X131664268Y-93288845D01*
X132726787Y-93573546D01*
X132442086Y-94636065D01*
G37*
G36*
X131717392Y-97340657D02*
G01*
X130654873Y-97055956D01*
X130939574Y-95993437D01*
X132002093Y-96278138D01*
X131717392Y-97340657D01*
G37*
G36*
X149497392Y-103944657D02*
G01*
X148434873Y-103659956D01*
X148719574Y-102597437D01*
X149782093Y-102882138D01*
X149497392Y-103944657D01*
G37*
G36*
X150222086Y-101240065D02*
G01*
X149159567Y-100955364D01*
X149444268Y-99892845D01*
X150506787Y-100177546D01*
X150222086Y-101240065D01*
G37*
G36*
X167240086Y-107082065D02*
G01*
X166177567Y-106797364D01*
X166462268Y-105734845D01*
X167524787Y-106019546D01*
X167240086Y-107082065D01*
G37*
G36*
X166515392Y-109786657D02*
G01*
X165452873Y-109501956D01*
X165737574Y-108439437D01*
X166800093Y-108724138D01*
X166515392Y-109786657D01*
G37*
D34*
X189738000Y-110112000D03*
X189738000Y-107312000D03*
X208788000Y-107312000D03*
X208788000Y-110112000D03*
X227838000Y-110112000D03*
X227838000Y-107312000D03*
X246888000Y-107312000D03*
X246888000Y-110112000D03*
D24*
G36*
X271177727Y-103567896D02*
G01*
X270115208Y-103852597D01*
X269830507Y-102790078D01*
X270893026Y-102505377D01*
X271177727Y-103567896D01*
G37*
G36*
X270453033Y-100863304D02*
G01*
X269390514Y-101148005D01*
X269105813Y-100085486D01*
X270168332Y-99800785D01*
X270453033Y-100863304D01*
G37*
G36*
X288487033Y-94259304D02*
G01*
X287424514Y-94544005D01*
X287139813Y-93481486D01*
X288202332Y-93196785D01*
X288487033Y-94259304D01*
G37*
G36*
X289211727Y-96963896D02*
G01*
X288149208Y-97248597D01*
X287864507Y-96186078D01*
X288927026Y-95901377D01*
X289211727Y-96963896D01*
G37*
G36*
X307626727Y-92137896D02*
G01*
X306564208Y-92422597D01*
X306279507Y-91360078D01*
X307342026Y-91075377D01*
X307626727Y-92137896D01*
G37*
G36*
X306902033Y-89433304D02*
G01*
X305839514Y-89718005D01*
X305554813Y-88655486D01*
X306617332Y-88370785D01*
X306902033Y-89433304D01*
G37*
G36*
X326079033Y-87401304D02*
G01*
X325016514Y-87686005D01*
X324731813Y-86623486D01*
X325794332Y-86338785D01*
X326079033Y-87401304D01*
G37*
G36*
X326803727Y-90105896D02*
G01*
X325741208Y-90390597D01*
X325456507Y-89328078D01*
X326519026Y-89043377D01*
X326803727Y-90105896D01*
G37*
G36*
X345980727Y-88073896D02*
G01*
X344918208Y-88358597D01*
X344633507Y-87296078D01*
X345696026Y-87011377D01*
X345980727Y-88073896D01*
G37*
G36*
X345256033Y-85369304D02*
G01*
X344193514Y-85654005D01*
X343908813Y-84591486D01*
X344971332Y-84306785D01*
X345256033Y-85369304D01*
G37*
G36*
X363671033Y-80543304D02*
G01*
X362608514Y-80828005D01*
X362323813Y-79765486D01*
X363386332Y-79480785D01*
X363671033Y-80543304D01*
G37*
G36*
X364395727Y-83247896D02*
G01*
X363333208Y-83532597D01*
X363048507Y-82470078D01*
X364111026Y-82185377D01*
X364395727Y-83247896D01*
G37*
G36*
X381286727Y-78040896D02*
G01*
X380224208Y-78325597D01*
X379939507Y-77263078D01*
X381002026Y-76978377D01*
X381286727Y-78040896D01*
G37*
G36*
X380562033Y-75336304D02*
G01*
X379499514Y-75621005D01*
X379214813Y-74558486D01*
X380277332Y-74273785D01*
X380562033Y-75336304D01*
G37*
G36*
X54506514Y-86684995D02*
G01*
X55569033Y-86969696D01*
X55284332Y-88032215D01*
X54221813Y-87747514D01*
X54506514Y-86684995D01*
G37*
G36*
X55231208Y-83980403D02*
G01*
X56293727Y-84265104D01*
X56009026Y-85327623D01*
X54946507Y-85042922D01*
X55231208Y-83980403D01*
G37*
G36*
X73519208Y-89060403D02*
G01*
X74581727Y-89345104D01*
X74297026Y-90407623D01*
X73234507Y-90122922D01*
X73519208Y-89060403D01*
G37*
G36*
X72794514Y-91764995D02*
G01*
X73857033Y-92049696D01*
X73572332Y-93112215D01*
X72509813Y-92827514D01*
X72794514Y-91764995D01*
G37*
G36*
X92098514Y-93796995D02*
G01*
X93161033Y-94081696D01*
X92876332Y-95144215D01*
X91813813Y-94859514D01*
X92098514Y-93796995D01*
G37*
G36*
X92823208Y-91092403D02*
G01*
X93885727Y-91377104D01*
X93601026Y-92439623D01*
X92538507Y-92154922D01*
X92823208Y-91092403D01*
G37*
G36*
X111873208Y-92870403D02*
G01*
X112935727Y-93155104D01*
X112651026Y-94217623D01*
X111588507Y-93932922D01*
X111873208Y-92870403D01*
G37*
G36*
X111148514Y-95574995D02*
G01*
X112211033Y-95859696D01*
X111926332Y-96922215D01*
X110863813Y-96637514D01*
X111148514Y-95574995D01*
G37*
G36*
X129690514Y-100654995D02*
G01*
X130753033Y-100939696D01*
X130468332Y-102002215D01*
X129405813Y-101717514D01*
X129690514Y-100654995D01*
G37*
G36*
X130415208Y-97950403D02*
G01*
X131477727Y-98235104D01*
X131193026Y-99297623D01*
X130130507Y-99012922D01*
X130415208Y-97950403D01*
G37*
G36*
X148195208Y-104554403D02*
G01*
X149257727Y-104839104D01*
X148973026Y-105901623D01*
X147910507Y-105616922D01*
X148195208Y-104554403D01*
G37*
G36*
X147470514Y-107258995D02*
G01*
X148533033Y-107543696D01*
X148248332Y-108606215D01*
X147185813Y-108321514D01*
X147470514Y-107258995D01*
G37*
G36*
X164488514Y-113100995D02*
G01*
X165551033Y-113385696D01*
X165266332Y-114448215D01*
X164203813Y-114163514D01*
X164488514Y-113100995D01*
G37*
G36*
X165213208Y-110396403D02*
G01*
X166275727Y-110681104D01*
X165991026Y-111743623D01*
X164928507Y-111458922D01*
X165213208Y-110396403D01*
G37*
D34*
X189738000Y-112138000D03*
X189738000Y-114938000D03*
X208788000Y-114938000D03*
X208788000Y-112138000D03*
X227838000Y-112138000D03*
X227838000Y-114938000D03*
X246888000Y-114938000D03*
X246888000Y-112138000D03*
D24*
G36*
X271079567Y-107451636D02*
G01*
X272142086Y-107166935D01*
X272426787Y-108229454D01*
X271364268Y-108514155D01*
X271079567Y-107451636D01*
G37*
G36*
X270354873Y-104747044D02*
G01*
X271417392Y-104462343D01*
X271702093Y-105524862D01*
X270639574Y-105809563D01*
X270354873Y-104747044D01*
G37*
G36*
X288388873Y-98143044D02*
G01*
X289451392Y-97858343D01*
X289736093Y-98920862D01*
X288673574Y-99205563D01*
X288388873Y-98143044D01*
G37*
G36*
X289113567Y-100847636D02*
G01*
X290176086Y-100562935D01*
X290460787Y-101625454D01*
X289398268Y-101910155D01*
X289113567Y-100847636D01*
G37*
G36*
X307528567Y-96021636D02*
G01*
X308591086Y-95736935D01*
X308875787Y-96799454D01*
X307813268Y-97084155D01*
X307528567Y-96021636D01*
G37*
G36*
X306803873Y-93317044D02*
G01*
X307866392Y-93032343D01*
X308151093Y-94094862D01*
X307088574Y-94379563D01*
X306803873Y-93317044D01*
G37*
G36*
X325980873Y-91285044D02*
G01*
X327043392Y-91000343D01*
X327328093Y-92062862D01*
X326265574Y-92347563D01*
X325980873Y-91285044D01*
G37*
G36*
X326705567Y-93989636D02*
G01*
X327768086Y-93704935D01*
X328052787Y-94767454D01*
X326990268Y-95052155D01*
X326705567Y-93989636D01*
G37*
G36*
X345882567Y-91957636D02*
G01*
X346945086Y-91672935D01*
X347229787Y-92735454D01*
X346167268Y-93020155D01*
X345882567Y-91957636D01*
G37*
G36*
X345157873Y-89253044D02*
G01*
X346220392Y-88968343D01*
X346505093Y-90030862D01*
X345442574Y-90315563D01*
X345157873Y-89253044D01*
G37*
G36*
X363572873Y-84427044D02*
G01*
X364635392Y-84142343D01*
X364920093Y-85204862D01*
X363857574Y-85489563D01*
X363572873Y-84427044D01*
G37*
G36*
X364297567Y-87131636D02*
G01*
X365360086Y-86846935D01*
X365644787Y-87909454D01*
X364582268Y-88194155D01*
X364297567Y-87131636D01*
G37*
G36*
X381188567Y-81924636D02*
G01*
X382251086Y-81639935D01*
X382535787Y-82702454D01*
X381473268Y-82987155D01*
X381188567Y-81924636D01*
G37*
G36*
X380463873Y-79220044D02*
G01*
X381526392Y-78935343D01*
X381811093Y-79997862D01*
X380748574Y-80282563D01*
X380463873Y-79220044D01*
G37*
G36*
X50265438Y-102368094D02*
G01*
X51327957Y-102652795D01*
X51043256Y-103715314D01*
X49980737Y-103430613D01*
X50265438Y-102368094D01*
G37*
G36*
X49540744Y-105072686D02*
G01*
X50603263Y-105357387D01*
X50318562Y-106419906D01*
X49256043Y-106135205D01*
X49540744Y-105072686D01*
G37*
G36*
X67974397Y-109980982D02*
G01*
X69036916Y-110265683D01*
X68752215Y-111328202D01*
X67689696Y-111043501D01*
X67974397Y-109980982D01*
G37*
G36*
X68699091Y-107276390D02*
G01*
X69761610Y-107561091D01*
X69476909Y-108623610D01*
X68414390Y-108338909D01*
X68699091Y-107276390D01*
G37*
G36*
X87495091Y-110578390D02*
G01*
X88557610Y-110863091D01*
X88272909Y-111925610D01*
X87210390Y-111640909D01*
X87495091Y-110578390D01*
G37*
G36*
X86770397Y-113282982D02*
G01*
X87832916Y-113567683D01*
X87548215Y-114630202D01*
X86485696Y-114345501D01*
X86770397Y-113282982D01*
G37*
G36*
X106328397Y-113536982D02*
G01*
X107390916Y-113821683D01*
X107106215Y-114884202D01*
X106043696Y-114599501D01*
X106328397Y-113536982D01*
G37*
G36*
X107053091Y-110832390D02*
G01*
X108115610Y-111117091D01*
X107830909Y-112179610D01*
X106768390Y-111894909D01*
X107053091Y-110832390D01*
G37*
G36*
X125449438Y-115830094D02*
G01*
X126511957Y-116114795D01*
X126227256Y-117177314D01*
X125164737Y-116892613D01*
X125449438Y-115830094D01*
G37*
G36*
X124724744Y-118534686D02*
G01*
X125787263Y-118819387D01*
X125502562Y-119881906D01*
X124440043Y-119597205D01*
X124724744Y-118534686D01*
G37*
G36*
X143229438Y-123196094D02*
G01*
X144291957Y-123480795D01*
X144007256Y-124543314D01*
X142944737Y-124258613D01*
X143229438Y-123196094D01*
G37*
G36*
X142504744Y-125900686D02*
G01*
X143567263Y-126185387D01*
X143282562Y-127247906D01*
X142220043Y-126963205D01*
X142504744Y-125900686D01*
G37*
G36*
X160501438Y-128784094D02*
G01*
X161563957Y-129068795D01*
X161279256Y-130131314D01*
X160216737Y-129846613D01*
X160501438Y-128784094D01*
G37*
G36*
X159776744Y-131488686D02*
G01*
X160839263Y-131773387D01*
X160554562Y-132835906D01*
X159492043Y-132551205D01*
X159776744Y-131488686D01*
G37*
D34*
X189738000Y-133988000D03*
X189738000Y-131188000D03*
X208788000Y-131188000D03*
X208788000Y-133988000D03*
X227838000Y-133988000D03*
X227838000Y-131188000D03*
X246888000Y-131188000D03*
X246888000Y-133988000D03*
D24*
G36*
X276040737Y-126312387D02*
G01*
X277103256Y-126027686D01*
X277387957Y-127090205D01*
X276325438Y-127374906D01*
X276040737Y-126312387D01*
G37*
G36*
X275316043Y-123607795D02*
G01*
X276378562Y-123323094D01*
X276663263Y-124385613D01*
X275600744Y-124670314D01*
X275316043Y-123607795D01*
G37*
G36*
X293223043Y-116368795D02*
G01*
X294285562Y-116084094D01*
X294570263Y-117146613D01*
X293507744Y-117431314D01*
X293223043Y-116368795D01*
G37*
G36*
X293947737Y-119073387D02*
G01*
X295010256Y-118788686D01*
X295294957Y-119851205D01*
X294232438Y-120135906D01*
X293947737Y-119073387D01*
G37*
G36*
X312362737Y-113993387D02*
G01*
X313425256Y-113708686D01*
X313709957Y-114771205D01*
X312647438Y-115055906D01*
X312362737Y-113993387D01*
G37*
G36*
X311638043Y-111288795D02*
G01*
X312700562Y-111004094D01*
X312985263Y-112066613D01*
X311922744Y-112351314D01*
X311638043Y-111288795D01*
G37*
G36*
X331323043Y-110907795D02*
G01*
X332385562Y-110623094D01*
X332670263Y-111685613D01*
X331607744Y-111970314D01*
X331323043Y-110907795D01*
G37*
G36*
X332047737Y-113612387D02*
G01*
X333110256Y-113327686D01*
X333394957Y-114390205D01*
X332332438Y-114674906D01*
X332047737Y-113612387D01*
G37*
G36*
X350843737Y-110310387D02*
G01*
X351906256Y-110025686D01*
X352190957Y-111088205D01*
X351128438Y-111372906D01*
X350843737Y-110310387D01*
G37*
G36*
X350119043Y-107605795D02*
G01*
X351181562Y-107321094D01*
X351466263Y-108383613D01*
X350403744Y-108668314D01*
X350119043Y-107605795D01*
G37*
G36*
X368407043Y-102525795D02*
G01*
X369469562Y-102241094D01*
X369754263Y-103303613D01*
X368691744Y-103588314D01*
X368407043Y-102525795D01*
G37*
G36*
X369131737Y-105230387D02*
G01*
X370194256Y-104945686D01*
X370478957Y-106008205D01*
X369416438Y-106292906D01*
X369131737Y-105230387D01*
G37*
G36*
X386276737Y-100277387D02*
G01*
X387339256Y-99992686D01*
X387623957Y-101055205D01*
X386561438Y-101339906D01*
X386276737Y-100277387D01*
G37*
G36*
X385552043Y-97572795D02*
G01*
X386614562Y-97288094D01*
X386899263Y-98350613D01*
X385836744Y-98635314D01*
X385552043Y-97572795D01*
G37*
G36*
X44714744Y-123360686D02*
G01*
X45777263Y-123645387D01*
X45492562Y-124707906D01*
X44430043Y-124423205D01*
X44714744Y-123360686D01*
G37*
G36*
X45439438Y-120656094D02*
G01*
X46501957Y-120940795D01*
X46217256Y-122003314D01*
X45154737Y-121718613D01*
X45439438Y-120656094D01*
G37*
G36*
X63727438Y-125736094D02*
G01*
X64789957Y-126020795D01*
X64505256Y-127083314D01*
X63442737Y-126798613D01*
X63727438Y-125736094D01*
G37*
G36*
X63002744Y-128440686D02*
G01*
X64065263Y-128725387D01*
X63780562Y-129787906D01*
X62718043Y-129503205D01*
X63002744Y-128440686D01*
G37*
G36*
X81798744Y-131742686D02*
G01*
X82861263Y-132027387D01*
X82576562Y-133089906D01*
X81514043Y-132805205D01*
X81798744Y-131742686D01*
G37*
G36*
X82523438Y-129038094D02*
G01*
X83585957Y-129322795D01*
X83301256Y-130385314D01*
X82238737Y-130100613D01*
X82523438Y-129038094D01*
G37*
G36*
X102081438Y-129546094D02*
G01*
X103143957Y-129830795D01*
X102859256Y-130893314D01*
X101796737Y-130608613D01*
X102081438Y-129546094D01*
G37*
G36*
X101356744Y-132250686D02*
G01*
X102419263Y-132535387D01*
X102134562Y-133597906D01*
X101072043Y-133313205D01*
X101356744Y-132250686D01*
G37*
G36*
X120044397Y-137158982D02*
G01*
X121106916Y-137443683D01*
X120822215Y-138506202D01*
X119759696Y-138221501D01*
X120044397Y-137158982D01*
G37*
G36*
X120769091Y-134454390D02*
G01*
X121831610Y-134739091D01*
X121546909Y-135801610D01*
X120484390Y-135516909D01*
X120769091Y-134454390D01*
G37*
G36*
X138549091Y-141566390D02*
G01*
X139611610Y-141851091D01*
X139326909Y-142913610D01*
X138264390Y-142628909D01*
X138549091Y-141566390D01*
G37*
G36*
X137824397Y-144270982D02*
G01*
X138886916Y-144555683D01*
X138602215Y-145618202D01*
X137539696Y-145333501D01*
X137824397Y-144270982D01*
G37*
G36*
X154696744Y-149776686D02*
G01*
X155759263Y-150061387D01*
X155474562Y-151123906D01*
X154412043Y-150839205D01*
X154696744Y-149776686D01*
G37*
G36*
X155421438Y-147072094D02*
G01*
X156483957Y-147356795D01*
X156199256Y-148419314D01*
X155136737Y-148134613D01*
X155421438Y-147072094D01*
G37*
D34*
X189738000Y-150238000D03*
X189738000Y-153038000D03*
X208788000Y-153038000D03*
X208788000Y-150238000D03*
X227838000Y-150238000D03*
X227838000Y-153038000D03*
X246888000Y-153038000D03*
X246888000Y-150238000D03*
D24*
G36*
X280269043Y-141895795D02*
G01*
X281331562Y-141611094D01*
X281616263Y-142673613D01*
X280553744Y-142958314D01*
X280269043Y-141895795D01*
G37*
G36*
X280993737Y-144600387D02*
G01*
X282056256Y-144315686D01*
X282340957Y-145378205D01*
X281278438Y-145662906D01*
X280993737Y-144600387D01*
G37*
G36*
X298900737Y-137488387D02*
G01*
X299963256Y-137203686D01*
X300247957Y-138266205D01*
X299185438Y-138550906D01*
X298900737Y-137488387D01*
G37*
G36*
X298176043Y-134783795D02*
G01*
X299238562Y-134499094D01*
X299523263Y-135561613D01*
X298460744Y-135846314D01*
X298176043Y-134783795D01*
G37*
G36*
X316591043Y-129703795D02*
G01*
X317653562Y-129419094D01*
X317938263Y-130481613D01*
X316875744Y-130766314D01*
X316591043Y-129703795D01*
G37*
G36*
X317315737Y-132408387D02*
G01*
X318378256Y-132123686D01*
X318662957Y-133186205D01*
X317600438Y-133470906D01*
X317315737Y-132408387D01*
G37*
G36*
X337000737Y-132154387D02*
G01*
X338063256Y-131869686D01*
X338347957Y-132932205D01*
X337285438Y-133216906D01*
X337000737Y-132154387D01*
G37*
G36*
X336276043Y-129449795D02*
G01*
X337338562Y-129165094D01*
X337623263Y-130227613D01*
X336560744Y-130512314D01*
X336276043Y-129449795D01*
G37*
G36*
X355072043Y-126020795D02*
G01*
X356134562Y-125736094D01*
X356419263Y-126798613D01*
X355356744Y-127083314D01*
X355072043Y-126020795D01*
G37*
G36*
X355796737Y-128725387D02*
G01*
X356859256Y-128440686D01*
X357143957Y-129503205D01*
X356081438Y-129787906D01*
X355796737Y-128725387D01*
G37*
G36*
X374084737Y-123772387D02*
G01*
X375147256Y-123487686D01*
X375431957Y-124550205D01*
X374369438Y-124834906D01*
X374084737Y-123772387D01*
G37*
G36*
X373360043Y-121067795D02*
G01*
X374422562Y-120783094D01*
X374707263Y-121845613D01*
X373644744Y-122130314D01*
X373360043Y-121067795D01*
G37*
G36*
X390505043Y-115987795D02*
G01*
X391567562Y-115703094D01*
X391852263Y-116765613D01*
X390789744Y-117050314D01*
X390505043Y-115987795D01*
G37*
G36*
X391229737Y-118692387D02*
G01*
X392292256Y-118407686D01*
X392576957Y-119470205D01*
X391514438Y-119754906D01*
X391229737Y-118692387D01*
G37*
G36*
X40359438Y-138944094D02*
G01*
X41421957Y-139228795D01*
X41137256Y-140291314D01*
X40074737Y-140006613D01*
X40359438Y-138944094D01*
G37*
G36*
X39634744Y-141648686D02*
G01*
X40697263Y-141933387D01*
X40412562Y-142995906D01*
X39350043Y-142711205D01*
X39634744Y-141648686D01*
G37*
G36*
X58647438Y-144024094D02*
G01*
X59709957Y-144308795D01*
X59425256Y-145371314D01*
X58362737Y-145086613D01*
X58647438Y-144024094D01*
G37*
G36*
X57922744Y-146728686D02*
G01*
X58985263Y-147013387D01*
X58700562Y-148075906D01*
X57638043Y-147791205D01*
X57922744Y-146728686D01*
G37*
G36*
X76972744Y-150284686D02*
G01*
X78035263Y-150569387D01*
X77750562Y-151631906D01*
X76688043Y-151347205D01*
X76972744Y-150284686D01*
G37*
G36*
X77697438Y-147580094D02*
G01*
X78759957Y-147864795D01*
X78475256Y-148927314D01*
X77412737Y-148642613D01*
X77697438Y-147580094D01*
G37*
G36*
X97255438Y-147834094D02*
G01*
X98317957Y-148118795D01*
X98033256Y-149181314D01*
X96970737Y-148896613D01*
X97255438Y-147834094D01*
G37*
G36*
X96530744Y-150538686D02*
G01*
X97593263Y-150823387D01*
X97308562Y-151885906D01*
X96246043Y-151601205D01*
X96530744Y-150538686D01*
G37*
G36*
X115072744Y-155618686D02*
G01*
X116135263Y-155903387D01*
X115850562Y-156965906D01*
X114788043Y-156681205D01*
X115072744Y-155618686D01*
G37*
G36*
X115797438Y-152914094D02*
G01*
X116859957Y-153198795D01*
X116575256Y-154261314D01*
X115512737Y-153976613D01*
X115797438Y-152914094D01*
G37*
G36*
X133577438Y-160026094D02*
G01*
X134639957Y-160310795D01*
X134355256Y-161373314D01*
X133292737Y-161088613D01*
X133577438Y-160026094D01*
G37*
G36*
X132852744Y-162730686D02*
G01*
X133915263Y-163015387D01*
X133630562Y-164077906D01*
X132568043Y-163793205D01*
X132852744Y-162730686D01*
G37*
G36*
X151140744Y-162984686D02*
G01*
X152203263Y-163269387D01*
X151918562Y-164331906D01*
X150856043Y-164047205D01*
X151140744Y-162984686D01*
G37*
G36*
X151865438Y-160280094D02*
G01*
X152927957Y-160564795D01*
X152643256Y-161627314D01*
X151580737Y-161342613D01*
X151865438Y-160280094D01*
G37*
D34*
X189738000Y-169288000D03*
X189738000Y-172088000D03*
X208788000Y-172088000D03*
X208788000Y-169288000D03*
X227838000Y-172088000D03*
X227838000Y-169288000D03*
X246888000Y-172088000D03*
X246888000Y-169288000D03*
D24*
G36*
X284714043Y-158024795D02*
G01*
X285776562Y-157740094D01*
X286061263Y-158802613D01*
X284998744Y-159087314D01*
X284714043Y-158024795D01*
G37*
G36*
X285438737Y-160729387D02*
G01*
X286501256Y-160444686D01*
X286785957Y-161507205D01*
X285723438Y-161791906D01*
X285438737Y-160729387D01*
G37*
G36*
X303726737Y-155903387D02*
G01*
X304789256Y-155618686D01*
X305073957Y-156681205D01*
X304011438Y-156965906D01*
X303726737Y-155903387D01*
G37*
G36*
X303002043Y-153198795D02*
G01*
X304064562Y-152914094D01*
X304349263Y-153976613D01*
X303286744Y-154261314D01*
X303002043Y-153198795D01*
G37*
G36*
X321544043Y-148118795D02*
G01*
X322606562Y-147834094D01*
X322891263Y-148896613D01*
X321828744Y-149181314D01*
X321544043Y-148118795D01*
G37*
G36*
X322268737Y-150823387D02*
G01*
X323331256Y-150538686D01*
X323615957Y-151601205D01*
X322553438Y-151885906D01*
X322268737Y-150823387D01*
G37*
G36*
X341826737Y-150569387D02*
G01*
X342889256Y-150284686D01*
X343173957Y-151347205D01*
X342111438Y-151631906D01*
X341826737Y-150569387D01*
G37*
G36*
X341102043Y-147864795D02*
G01*
X342164562Y-147580094D01*
X342449263Y-148642613D01*
X341386744Y-148927314D01*
X341102043Y-147864795D01*
G37*
G36*
X359898043Y-144308795D02*
G01*
X360960562Y-144024094D01*
X361245263Y-145086613D01*
X360182744Y-145371314D01*
X359898043Y-144308795D01*
G37*
G36*
X360622737Y-147013387D02*
G01*
X361685256Y-146728686D01*
X361969957Y-147791205D01*
X360907438Y-148075906D01*
X360622737Y-147013387D01*
G37*
G36*
X378910737Y-142187387D02*
G01*
X379973256Y-141902686D01*
X380257957Y-142965205D01*
X379195438Y-143249906D01*
X378910737Y-142187387D01*
G37*
G36*
X378186043Y-139482795D02*
G01*
X379248562Y-139198094D01*
X379533263Y-140260613D01*
X378470744Y-140545314D01*
X378186043Y-139482795D01*
G37*
G36*
X395331043Y-134275795D02*
G01*
X396393562Y-133991094D01*
X396678263Y-135053613D01*
X395615744Y-135338314D01*
X395331043Y-134275795D01*
G37*
G36*
X396055737Y-136980387D02*
G01*
X397118256Y-136695686D01*
X397402957Y-137758205D01*
X396340438Y-138042906D01*
X396055737Y-136980387D01*
G37*
G36*
G01*
X229403000Y-80599500D02*
X229403000Y-80944500D01*
G75*
G02*
X229255500Y-81092000I-147500J0D01*
G01*
X228960500Y-81092000D01*
G75*
G02*
X228813000Y-80944500I0J147500D01*
G01*
X228813000Y-80599500D01*
G75*
G02*
X228960500Y-80452000I147500J0D01*
G01*
X229255500Y-80452000D01*
G75*
G02*
X229403000Y-80599500I0J-147500D01*
G01*
G37*
G36*
G01*
X228433000Y-80599500D02*
X228433000Y-80944500D01*
G75*
G02*
X228285500Y-81092000I-147500J0D01*
G01*
X227990500Y-81092000D01*
G75*
G02*
X227843000Y-80944500I0J147500D01*
G01*
X227843000Y-80599500D01*
G75*
G02*
X227990500Y-80452000I147500J0D01*
G01*
X228285500Y-80452000D01*
G75*
G02*
X228433000Y-80599500I0J-147500D01*
G01*
G37*
D35*
X42545000Y-60833000D03*
X127889000Y-182118000D03*
X165862000Y-140970000D03*
X17526000Y-149860000D03*
X171958000Y-187325000D03*
X164338000Y-83947000D03*
X256413000Y-84074000D03*
X253365000Y-140716000D03*
X401955000Y-149352000D03*
X247904000Y-187198000D03*
X292100000Y-182118000D03*
X377698000Y-59817000D03*
D36*
X232283000Y-87672000D03*
X232283000Y-86572000D03*
M02*
