M48
; DRILL file {KiCad (5.1.10)-1} date 10/09/21 15:14:29
; FORMAT={-:-/ absolute / metric / decimal}
; #@! TF.CreationDate,2021-10-09T15:14:29+01:00
; #@! TF.GenerationSoftware,Kicad,Pcbnew,(5.1.10)-1
; #@! TF.FileFunction,NonPlated,1,2,NPTH
FMAT,2
METRIC
T1C0.305
T2C0.508
T3C1.270
%
G90
G05
T1
X134.945Y-177.064G85X135.27Y-174.596
G05
X135.801Y-177.176G85X134.945Y-177.064
G05
X135.602Y-172.077G85X135.277Y-174.545
G05
X136.126Y-174.708G85X135.27Y-174.596
G05
X135.277Y-174.545G85X136.133Y-174.658
G05
X135.602Y-172.077G85X136.458Y-172.19
G05
X136.902Y-168.816G85X135.337Y-180.702
G05
X135.357Y-180.551G85X136.922Y-168.665
G05
X137.115Y-181.013G85X136.963Y-182.171
G05
X136.953Y-182.247G85X139.673Y-182.605
G05
X135.337Y-180.702G85X141.633Y-181.531
G05
X141.653Y-181.38G85X135.357Y-180.551
G05
X138.72Y-168.824G85X138.873Y-167.666
G05
X139.835Y-181.371G85X139.683Y-182.529
G05
X136.902Y-168.816G85X143.198Y-169.645
G05
X143.218Y-169.493G85X136.922Y-168.665
G05
X141.602Y-167.949G85X138.882Y-167.59
G05
X141.44Y-169.183G85X141.592Y-168.024
G05
X143.198Y-169.645G85X141.633Y-181.531
G05
X141.653Y-181.38G85X143.218Y-169.493
G05
X160.574Y-171.932G85X159.009Y-183.818
G05
X159.029Y-183.667G85X160.594Y-171.781
G05
X160.787Y-184.129G85X160.635Y-185.288
G05
X160.625Y-185.363G85X163.344Y-185.721
G05
X159.009Y-183.818G85X165.305Y-184.647
G05
X165.325Y-184.496G85X159.029Y-183.667
G05
X162.392Y-171.941G85X162.544Y-170.782
G05
X163.507Y-184.487G85X163.354Y-185.646
G05
X160.574Y-171.932G85X166.87Y-172.761
G05
X166.89Y-172.61G85X160.594Y-171.781
G05
X165.274Y-171.065G85X162.554Y-170.707
G05
X165.111Y-172.299G85X165.264Y-171.141
G05
X166.87Y-172.761G85X165.305Y-184.647
G05
X165.325Y-184.496G85X166.89Y-172.61
G05
X166.625Y-181.234G85X165.769Y-181.122
G05
X166.95Y-178.766G85X166.094Y-178.654
G05
X166.1Y-178.603G85X166.957Y-178.716
G05
X166.625Y-181.234G85X166.95Y-178.766
G05
X166.425Y-176.135G85X167.282Y-176.248
G05
X167.282Y-176.248G85X166.957Y-178.716
G05
X252.453Y-176.248G85X252.778Y-178.716
G05
X252.453Y-176.248G85X253.31Y-176.135
G05
X253.11Y-181.234G85X252.785Y-178.766
G05
X252.778Y-178.716G85X253.635Y-178.603
G05
X253.641Y-178.654G85X252.785Y-178.766
G05
X253.966Y-181.122G85X253.11Y-181.234
G05
X254.41Y-184.496G85X252.845Y-172.61
G05
X252.865Y-172.761G85X254.43Y-184.647
G05
X254.624Y-172.299G85X254.471Y-171.141
G05
X257.181Y-170.707G85X254.461Y-171.065
G05
X259.141Y-171.781G85X252.845Y-172.61
G05
X252.865Y-172.761G85X259.161Y-171.932
G05
X256.228Y-184.487G85X256.381Y-185.646
G05
X257.343Y-171.941G85X257.191Y-170.782
G05
X260.706Y-183.667G85X254.41Y-184.496
G05
X254.43Y-184.647G85X260.726Y-183.818
G05
X256.391Y-185.721G85X259.11Y-185.363
G05
X258.948Y-184.129G85X259.1Y-185.288
G05
X260.706Y-183.667G85X259.141Y-171.781
G05
X259.161Y-171.932G85X260.726Y-183.818
G05
X278.082Y-181.38G85X276.517Y-169.493
G05
X276.537Y-169.645G85X278.102Y-181.531
G05
X278.295Y-169.183G85X278.143Y-168.024
G05
X280.853Y-167.59G85X278.133Y-167.949
G05
X282.813Y-168.665G85X276.517Y-169.493
G05
X276.537Y-169.645G85X282.833Y-168.816
G05
X279.9Y-181.371G85X280.052Y-182.529
G05
X281.015Y-168.824G85X280.862Y-167.666
G05
X284.378Y-180.551G85X278.082Y-181.38
G05
X278.102Y-181.531G85X284.398Y-180.702
G05
X280.062Y-182.605G85X282.782Y-182.247
G05
X282.62Y-181.013G85X282.772Y-182.171
G05
X284.378Y-180.551G85X282.813Y-168.665
G05
X282.833Y-168.816G85X284.398Y-180.702
G05
X283.277Y-172.19G85X284.133Y-172.077
G05
X283.602Y-174.658G85X284.458Y-174.545
G05
X284.465Y-174.596G85X283.609Y-174.708
G05
X284.133Y-172.077G85X284.458Y-174.545
G05
X284.79Y-177.064G85X283.934Y-177.176
G05
X284.79Y-177.064G85X284.465Y-174.596
G05
T2
X21.534Y-145.696G85X20.482Y-149.622
G05
X21.534Y-145.696G85X22.331Y-145.91
G05
X23.712Y-140.758G85X22.331Y-145.91
G05
X22.914Y-140.544G85X23.712Y-140.758
G05
X23.966Y-136.618G85X22.914Y-140.544
G05
X26.442Y-127.279G85X25.39Y-131.205
G05
X26.442Y-127.279G85X27.239Y-127.493
G05
X20.494Y-149.625G85X35.068Y-153.53
G05
X28.62Y-122.341G85X27.239Y-127.493
G05
X27.822Y-122.127G85X28.62Y-122.341
G05
X28.874Y-118.201G85X27.822Y-122.127
G05
X31.38Y-108.89G85X30.328Y-112.816
G05
X23.978Y-136.622G85X38.552Y-140.527
G05
X31.38Y-108.89G85X32.177Y-109.104
G05
X25.402Y-131.208G85X39.976Y-135.113
G05
X33.558Y-103.952G85X32.177Y-109.104
G05
X32.76Y-103.738G85X33.558Y-103.952
G05
X33.812Y-99.812G85X32.76Y-103.738
G05
X36.132Y-149.608G85X35.08Y-153.533
G05
X35.334Y-149.394G85X36.132Y-149.608
G05
X36.311Y-90.343G85X35.259Y-94.268
G05
X36.715Y-144.242G85X35.334Y-149.394
G05
X28.886Y-118.205G85X43.46Y-122.11
G05
X36.311Y-90.343G85X37.109Y-90.556
G05
X36.715Y-144.242G85X37.512Y-144.455
G05
X30.34Y-112.819G85X44.914Y-116.724
G05
X38.489Y-85.404G85X37.109Y-90.556
G05
X38.564Y-140.53G85X37.512Y-144.455
G05
X37.692Y-85.191G85X38.489Y-85.404
G05
X38.744Y-81.265G85X37.692Y-85.191
G05
X39.538Y-152.005G85X38.486Y-155.93
G05
X39.538Y-152.005G85X40.336Y-152.218
G05
X41.04Y-131.191G85X39.988Y-135.116
G05
X40.242Y-130.977G85X41.04Y-131.191
G05
X41.18Y-72.114G85X40.128Y-76.039
G05
X41.623Y-125.825G85X40.242Y-130.977
G05
X41.716Y-147.066G85X40.336Y-152.218
G05
X33.824Y-99.816G85X48.398Y-103.721
G05
X40.919Y-146.852G85X41.716Y-147.066
G05
X41.971Y-142.927G85X40.919Y-146.852
G05
X41.18Y-72.114G85X41.977Y-72.327
G05
X41.623Y-125.825G85X42.42Y-126.039
G05
X35.272Y-94.272G85X49.845Y-98.177
G05
X43.358Y-67.175G85X41.977Y-72.327
G05
X43.472Y-122.113G85X42.42Y-126.039
G05
X42.56Y-66.962G85X43.358Y-67.175
G05
X43.612Y-63.036G85X42.56Y-66.962
G05
X44.496Y-133.643G85X43.444Y-137.568
G05
X44.496Y-133.643G85X45.293Y-133.856
G05
X45.978Y-112.802G85X44.926Y-116.727
G05
X45.18Y-112.588G85X45.978Y-112.802
G05
X38.499Y-155.934G85X53.072Y-159.839
G05
X46.561Y-107.436G85X45.18Y-112.588
G05
X46.674Y-128.704G85X45.293Y-133.856
G05
X38.756Y-81.268G85X53.329Y-85.173
G05
X45.876Y-128.49G85X46.674Y-128.704
G05
X46.928Y-124.565G85X45.876Y-128.49
G05
X46.561Y-107.436G85X47.358Y-107.649
G05
X40.14Y-76.043G85X54.714Y-79.948
G05
X48.41Y-103.724G85X47.358Y-107.649
G05
X49.43Y-115.308G85X48.378Y-119.233
G05
X41.983Y-142.93G85X56.556Y-146.835
G05
X49.43Y-115.308G85X50.228Y-115.522
G05
X50.909Y-94.254G85X49.857Y-98.18
G05
X50.112Y-94.041G85X50.909Y-94.254
G05
X43.456Y-137.571G85X58.03Y-141.476
G05
X51.492Y-88.888G85X50.112Y-94.041
G05
X43.624Y-63.039G85X58.198Y-66.944
G05
X51.608Y-110.369G85X50.228Y-115.522
G05
X50.811Y-110.156G85X51.608Y-110.369
G05
X51.863Y-106.23G85X50.811Y-110.156
G05
X51.492Y-88.888G85X52.29Y-89.102
G05
X53.342Y-85.177G85X52.29Y-89.102
G05
X54.136Y-155.916G85X53.084Y-159.842
G05
X53.339Y-155.703G85X54.136Y-155.916
G05
X54.441Y-96.736G85X53.389Y-100.661
G05
X54.719Y-150.55G85X53.339Y-155.703
G05
X46.941Y-124.568G85X61.514Y-128.473
G05
X54.441Y-96.736G85X55.238Y-96.949
G05
X54.719Y-150.55G85X55.517Y-150.764
G05
X55.778Y-76.025G85X54.726Y-79.951
G05
X54.98Y-75.812G85X55.778Y-76.025
G05
X56.361Y-70.659G85X54.98Y-75.812
G05
X48.391Y-119.237G85X62.964Y-123.142
G05
X56.619Y-91.797G85X55.238Y-96.949
G05
X56.569Y-146.839G85X55.517Y-150.764
G05
X55.822Y-91.583G85X56.619Y-91.797
G05
X56.873Y-87.658G85X55.822Y-91.583
G05
X56.361Y-70.659G85X57.158Y-70.873
G05
X58.21Y-66.948G85X57.158Y-70.873
G05
X58.331Y-155.536G85X57.279Y-159.462
G05
X59.094Y-137.554G85X58.042Y-141.48
G05
X58.297Y-137.34G85X59.094Y-137.554
G05
X58.331Y-155.536G85X59.128Y-155.75
G05
X59.338Y-78.469G85X58.286Y-82.395
G05
X59.677Y-132.188G85X58.297Y-137.34
G05
X51.875Y-106.233G85X66.448Y-110.138
G05
X59.338Y-78.469G85X60.135Y-78.683
G05
X60.509Y-150.598G85X59.128Y-155.75
G05
X59.677Y-132.188G85X60.474Y-132.402
G05
X59.712Y-150.384G85X60.509Y-150.598
G05
X60.763Y-146.459G85X59.712Y-150.384
G05
X53.401Y-100.664G85X67.975Y-104.569
G05
X61.516Y-73.531G85X60.135Y-78.683
G05
X61.526Y-128.476G85X60.474Y-132.402
G05
X60.718Y-73.317G85X61.516Y-73.531
G05
X61.77Y-69.392G85X60.718Y-73.317
G05
X63.265Y-137.109G85X62.213Y-141.034
G05
X64.028Y-119.219G85X62.976Y-123.145
G05
X63.231Y-119.006G85X64.028Y-119.219
G05
X63.265Y-137.109G85X64.063Y-137.323
G05
X64.611Y-113.854G85X63.231Y-119.006
G05
X56.886Y-87.661G85X71.459Y-91.566
G05
X57.291Y-159.465G85X71.865Y-163.37
G05
X65.443Y-132.17G85X64.063Y-137.323
G05
X64.611Y-113.854G85X65.409Y-114.067
G05
X64.646Y-131.957G85X65.443Y-132.17
G05
X65.698Y-128.031G85X64.646Y-131.957
G05
X58.298Y-82.398G85X72.872Y-86.303
G05
X66.461Y-110.142G85X65.409Y-114.067
G05
X68.18Y-118.766G85X67.128Y-122.692
G05
X60.776Y-146.462G85X75.349Y-150.367
G05
X69.039Y-100.647G85X67.987Y-104.573
G05
X68.18Y-118.766G85X68.977Y-118.98
G05
X68.242Y-100.433G85X69.039Y-100.647
G05
X69.622Y-95.281G85X68.242Y-100.433
G05
X61.782Y-69.395G85X76.356Y-73.3
G05
X62.226Y-141.038G85X76.799Y-144.943
G05
X70.358Y-113.828G85X68.977Y-118.98
G05
X69.561Y-113.614G85X70.358Y-113.828
G05
X69.622Y-95.281G85X70.42Y-95.495
G05
X70.612Y-109.688G85X69.561Y-113.614
G05
X71.471Y-91.569G85X70.42Y-95.495
G05
X72.929Y-159.448G85X71.877Y-163.373
G05
X72.132Y-159.234G85X72.929Y-159.448
G05
X73.142Y-100.206G85X72.09Y-104.131
G05
X73.512Y-154.082G85X72.132Y-159.234
G05
X65.71Y-128.034G85X80.283Y-131.939
G05
X73.936Y-82.381G85X72.884Y-86.306
G05
X73.138Y-82.167G85X73.936Y-82.381
G05
X73.142Y-100.206G85X73.939Y-100.419
G05
X74.519Y-77.015G85X73.138Y-82.167
G05
X73.512Y-154.082G85X74.31Y-154.296
G05
X67.14Y-122.695G85X81.714Y-126.6
G05
X75.32Y-95.267G85X73.939Y-100.419
G05
X75.361Y-150.37G85X74.31Y-154.296
G05
X74.519Y-77.015G85X75.316Y-77.229
G05
X74.522Y-95.053G85X75.32Y-95.267
G05
X75.574Y-91.128G85X74.522Y-95.053
G05
X76.368Y-73.303G85X75.316Y-77.229
G05
X77.863Y-141.02G85X76.811Y-144.946
G05
X77.066Y-140.807G85X77.863Y-141.02
G05
X77.991Y-155.91G85X76.939Y-159.836
G05
X78.034Y-81.979G85X76.982Y-85.904
G05
X78.446Y-135.655G85X77.066Y-140.807
G05
X70.625Y-109.692G85X85.198Y-113.597
G05
X77.991Y-155.91G85X78.789Y-156.124
G05
X78.034Y-81.979G85X78.832Y-82.192
G05
X78.446Y-135.655G85X79.244Y-135.868
G05
X72.102Y-104.134G85X86.676Y-108.039
G05
X80.169Y-150.972G85X78.789Y-156.124
G05
X80.212Y-77.04G85X78.832Y-82.192
G05
X80.296Y-131.943G85X79.244Y-135.868
G05
X79.372Y-150.758G85X80.169Y-150.972
G05
X79.415Y-76.826G85X80.212Y-77.04
G05
X80.424Y-146.832G85X79.372Y-150.758
G05
X80.467Y-72.901G85X79.415Y-76.826
G05
X82.778Y-122.678G85X81.726Y-126.603
G05
X82.903Y-137.522G85X81.851Y-141.447
G05
X81.981Y-122.464G85X82.778Y-122.678
G05
X83.361Y-117.312G85X81.981Y-122.464
G05
X75.587Y-91.131G85X90.16Y-95.036
G05
X82.903Y-137.522G85X83.7Y-137.736
G05
X83.361Y-117.312G85X84.159Y-117.525
G05
X76.952Y-159.839G85X91.525Y-163.744
G05
X76.995Y-85.907G85X91.568Y-89.812
G05
X85.081Y-132.583G85X83.7Y-137.736
G05
X84.283Y-132.37G85X85.081Y-132.583
G05
X85.21Y-113.6G85X84.159Y-117.525
G05
X85.335Y-128.444G85X84.283Y-132.37
G05
X87.74Y-104.117G85X86.688Y-108.043
G05
X86.943Y-103.903G85X87.74Y-104.117
G05
X87.878Y-119.056G85X86.826Y-122.981
G05
X88.323Y-98.751G85X86.943Y-103.903
G05
X80.436Y-146.836G85X95.009Y-150.741
G05
X80.479Y-72.904G85X95.052Y-76.809
G05
X87.878Y-119.056G85X88.676Y-119.269
G05
X88.323Y-98.751G85X89.12Y-98.965
G05
X81.863Y-141.451G85X96.437Y-145.356
G05
X90.056Y-114.117G85X88.676Y-119.269
G05
X90.172Y-95.039G85X89.12Y-98.965
G05
X89.259Y-113.904G85X90.056Y-114.117
G05
X90.311Y-109.978G85X89.259Y-113.904
G05
X92.589Y-159.822G85X91.537Y-163.747
G05
X92.632Y-85.89G85X91.58Y-89.816
G05
X91.792Y-159.608G85X92.589Y-159.822
G05
X91.835Y-85.677G85X92.632Y-85.89
G05
X92.832Y-100.617G85X91.78Y-104.542
G05
X93.172Y-154.456G85X91.792Y-159.608
G05
X93.215Y-80.524G85X91.835Y-85.677
G05
X85.348Y-128.447G85X99.921Y-132.352
G05
X92.832Y-100.617G85X93.629Y-100.831
G05
X93.172Y-154.456G85X93.97Y-154.669
G05
X93.215Y-80.524G85X94.013Y-80.738
G05
X86.839Y-122.985G85X101.412Y-126.89
G05
X95.01Y-95.678G85X93.629Y-100.831
G05
X95.022Y-150.744G85X93.97Y-154.669
G05
X95.065Y-76.812G85X94.013Y-80.738
G05
X94.213Y-95.465G85X95.01Y-95.678
G05
X95.264Y-91.539G85X94.213Y-95.465
G05
X96.722Y-159.493G85X95.67Y-163.419
G05
X97.501Y-141.433G85X96.449Y-145.359
G05
X96.704Y-141.22G85X97.501Y-141.433
G05
X96.722Y-159.493G85X97.519Y-159.707
G05
X97.745Y-82.248G85X96.694Y-86.173
G05
X98.084Y-136.068G85X96.704Y-141.22
G05
X90.323Y-109.981G85X104.896Y-113.886
G05
X97.745Y-82.248G85X98.543Y-82.462
G05
X98.9Y-154.555G85X97.519Y-159.707
G05
X98.084Y-136.068G85X98.881Y-136.281
G05
X98.103Y-154.341G85X98.9Y-154.555
G05
X99.154Y-150.415G85X98.103Y-154.341
G05
X91.793Y-104.546G85X106.366Y-108.451
G05
X99.923Y-77.309G85X98.543Y-82.462
G05
X99.933Y-132.356G85X98.881Y-136.281
G05
X99.126Y-77.096G85X99.923Y-77.309
G05
X100.178Y-73.17G85X99.126Y-77.096
G05
X101.653Y-141.1G85X100.602Y-145.025
G05
X102.476Y-122.967G85X101.424Y-126.893
G05
X101.653Y-141.1G85X102.451Y-141.313
G05
X101.679Y-122.754G85X102.476Y-122.967
G05
X103.059Y-117.601G85X101.679Y-122.754
G05
X95.277Y-91.542G85X109.85Y-95.447
G05
X95.683Y-163.422G85X110.256Y-167.327
G05
X103.831Y-136.161G85X102.451Y-141.313
G05
X103.034Y-135.947G85X103.831Y-136.161
G05
X103.059Y-117.601G85X103.857Y-117.815
G05
X104.086Y-132.022G85X103.034Y-135.947
G05
X96.706Y-86.177G85X111.279Y-90.082
G05
X104.909Y-113.89G85X103.857Y-117.815
G05
X106.559Y-122.69G85X105.507Y-126.616
G05
X99.167Y-150.419G85X113.74Y-154.324
G05
X107.43Y-104.528G85X106.378Y-108.454
G05
X106.559Y-122.69G85X107.356Y-122.904
G05
X106.633Y-104.315G85X107.43Y-104.528
G05
X108.013Y-99.163G85X106.633Y-104.315
G05
X100.19Y-73.173G85X114.764Y-77.078
G05
X100.614Y-145.028G85X115.187Y-148.933
G05
X108.737Y-117.752G85X107.356Y-122.904
G05
X107.939Y-117.538G85X108.737Y-117.752
G05
X108.013Y-99.163G85X108.811Y-99.376
G05
X108.991Y-113.612G85X107.939Y-117.538
G05
X109.863Y-95.451G85X108.811Y-99.376
G05
X111.32Y-163.405G85X110.268Y-167.33
G05
X110.523Y-163.191G85X111.32Y-163.405
G05
X111.536Y-104.271G85X110.484Y-108.196
G05
X111.903Y-158.039G85X110.523Y-163.191
G05
X104.098Y-132.025G85X118.672Y-135.93
G05
X112.343Y-86.159G85X111.292Y-90.085
G05
X111.536Y-104.271G85X112.334Y-104.484
G05
X111.546Y-85.946G85X112.343Y-86.159
G05
X112.927Y-80.793G85X111.546Y-85.946
G05
X111.903Y-158.039G85X112.701Y-158.252
G05
X105.519Y-126.619G85X120.093Y-130.524
G05
X113.714Y-99.332G85X112.334Y-104.484
G05
X113.753Y-154.327G85X112.701Y-158.252
G05
X112.917Y-99.119G85X113.714Y-99.332
G05
X112.927Y-80.793G85X113.724Y-81.007
G05
X113.969Y-95.193G85X112.917Y-99.119
G05
X114.776Y-77.082G85X113.724Y-81.007
G05
X114.815Y-165.756G85X113.763Y-169.682
G05
X114.815Y-165.756G85X115.612Y-165.97
G05
X116.251Y-145.011G85X115.2Y-148.937
G05
X115.454Y-144.797G85X116.251Y-145.011
G05
X116.518Y-85.854G85X115.466Y-89.779
G05
X116.835Y-139.645G85X115.454Y-144.797
G05
X109.003Y-113.616G85X123.577Y-117.521
G05
X116.993Y-160.818G85X115.612Y-165.97
G05
X116.196Y-160.604G85X116.993Y-160.818
G05
X117.247Y-156.679G85X116.196Y-160.604
G05
X116.518Y-85.854G85X117.315Y-86.067
G05
X116.835Y-139.645G85X117.632Y-139.859
G05
X110.497Y-108.2G85X125.07Y-112.105
G05
X118.696Y-80.915G85X117.315Y-86.067
G05
X118.684Y-135.933G85X117.632Y-139.859
G05
X117.899Y-80.701G85X118.696Y-80.915
G05
X118.95Y-76.776G85X117.899Y-80.701
G05
X119.754Y-147.387G85X118.703Y-151.312
G05
X119.754Y-147.387G85X120.552Y-147.601
G05
X121.157Y-126.602G85X120.105Y-130.527
G05
X120.359Y-126.388G85X121.157Y-126.602
G05
X121.74Y-121.236G85X120.359Y-126.388
G05
X113.775Y-169.685G85X128.349Y-173.59
G05
X121.932Y-142.448G85X120.552Y-147.601
G05
X113.981Y-95.196G85X128.554Y-99.101
G05
X121.135Y-142.235G85X121.932Y-142.448
G05
X122.187Y-138.309G85X121.135Y-142.235
G05
X121.74Y-121.236G85X122.537Y-121.45
G05
X115.478Y-89.782G85X130.052Y-93.687
G05
X123.589Y-117.524G85X122.537Y-121.45
G05
X124.709Y-128.921G85X123.658Y-132.846
G05
X117.26Y-156.682G85X131.833Y-160.587
G05
X124.709Y-128.921G85X125.507Y-129.135
G05
X126.134Y-108.182G85X125.082Y-112.108
G05
X125.337Y-107.969G85X126.134Y-108.182
G05
X118.715Y-151.316G85X133.288Y-155.221
G05
X126.717Y-102.816G85X125.337Y-107.969
G05
X126.887Y-123.982G85X125.507Y-129.135
G05
X118.963Y-76.779G85X133.536Y-80.684
G05
X126.09Y-123.769G85X126.887Y-123.982
G05
X127.142Y-119.843G85X126.09Y-123.769
G05
X126.717Y-102.816G85X127.515Y-103.03
G05
X128.567Y-99.105G85X127.515Y-103.03
G05
X129.413Y-169.668G85X128.361Y-173.593
G05
X128.616Y-169.454G85X129.413Y-169.668
G05
X129.612Y-110.503G85X128.561Y-114.429
G05
X129.996Y-164.302G85X128.616Y-169.454
G05
X122.199Y-138.312G85X136.773Y-142.217
G05
X129.612Y-110.503G85X130.41Y-110.717
G05
X129.996Y-164.302G85X130.794Y-164.516
G05
X131.116Y-89.765G85X130.064Y-93.691
G05
X130.319Y-89.551G85X131.116Y-89.765
G05
X123.67Y-132.85G85X138.243Y-136.755
G05
X131.699Y-84.399G85X130.319Y-89.551
G05
X131.79Y-105.565G85X130.41Y-110.717
G05
X131.845Y-160.59G85X130.794Y-164.516
G05
X130.993Y-105.351G85X131.79Y-105.565
G05
X132.045Y-101.425G85X130.993Y-105.351
G05
X131.699Y-84.399G85X132.497Y-84.613
G05
X133.548Y-80.687G85X132.497Y-84.613
G05
X134.353Y-151.298G85X133.301Y-155.224
G05
X133.555Y-151.085G85X134.353Y-151.298
G05
X134.543Y-92.107G85X133.491Y-96.032
G05
X134.936Y-145.932G85X133.555Y-151.085
G05
X127.154Y-119.846G85X141.728Y-123.751
G05
X134.543Y-92.107G85X135.34Y-92.321
G05
X134.936Y-145.932G85X135.733Y-146.146
G05
X128.573Y-114.432G85X143.146Y-118.337
G05
X136.72Y-87.168G85X135.34Y-92.321
G05
X136.785Y-142.221G85X135.733Y-146.146
G05
X135.923Y-86.955G85X136.72Y-87.168
G05
X136.975Y-83.029G85X135.923Y-86.955
G05
X137.497Y-154.519G85X136.445Y-158.444
G05
X137.497Y-154.519G85X138.294Y-154.732
G05
X139.307Y-132.832G85X138.256Y-136.758
G05
X138.51Y-132.619G85X139.307Y-132.832
G05
X139.674Y-149.58G85X138.294Y-154.732
G05
X139.891Y-127.467G85X138.51Y-132.619
G05
X138.877Y-149.366G85X139.674Y-149.58
G05
X132.057Y-101.429G85X146.631Y-105.334
G05
X139.929Y-145.441G85X138.877Y-149.366
G05
X139.891Y-127.467G85X140.688Y-127.68
G05
X133.503Y-96.036G85X148.076Y-99.941
G05
X141.74Y-123.755G85X140.688Y-127.68
G05
X142.424Y-136.151G85X141.372Y-140.077
G05
X142.424Y-136.151G85X143.221Y-136.365
G05
X143.29Y-178.188G85X142.76Y-182.217
G05
X144.21Y-114.415G85X143.159Y-118.34
G05
X143.29Y-178.188G85X144.108Y-178.296
G05
X136.457Y-158.448G85X151.03Y-162.352
G05
X143.413Y-114.201G85X144.21Y-114.415
G05
X144.602Y-131.213G85X143.221Y-136.365
G05
X144.794Y-109.049G85X143.413Y-114.201
G05
X143.804Y-130.999G85X144.602Y-131.213
G05
X144.517Y-168.87G85X143.986Y-172.899
G05
X136.987Y-83.032G85X151.561Y-86.937
G05
X144.856Y-127.074G85X143.804Y-130.999
G05
X143.986Y-172.899G85X144.805Y-173.007
G05
X144.805Y-173.007G85X144.108Y-178.296
G05
X144.794Y-109.049G85X145.591Y-109.263
G05
X146.643Y-105.337G85X145.591Y-109.263
G05
X147.306Y-117.801G85X146.254Y-121.727
G05
X139.941Y-145.444G85X154.515Y-149.349
G05
X147.306Y-117.801G85X148.103Y-118.015
G05
X149.141Y-96.019G85X148.089Y-99.944
G05
X141.384Y-140.08G85X155.958Y-143.985
G05
X148.343Y-95.805G85X149.141Y-96.019
G05
X149.484Y-112.863G85X148.103Y-118.015
G05
X149.724Y-90.653G85X148.343Y-95.805
G05
X148.686Y-112.649G85X149.484Y-112.863
G05
X149.738Y-108.723G85X148.686Y-112.649
G05
X149.724Y-90.653G85X150.521Y-90.866
G05
X142.772Y-182.219G85X157.731Y-184.188
G05
X151.573Y-86.941G85X150.521Y-90.866
G05
X152.095Y-158.43G85X151.043Y-162.356
G05
X151.297Y-158.217G85X152.095Y-158.43
G05
X152.283Y-99.356G85X151.231Y-103.281
G05
X152.678Y-153.064G85X151.297Y-158.217
G05
X144.529Y-168.872G85X159.488Y-170.841
G05
X144.868Y-127.077G85X159.442Y-130.982
G05
X152.283Y-99.356G85X153.08Y-99.569
G05
X152.678Y-153.064G85X153.475Y-153.278
G05
X146.266Y-121.73G85X160.84Y-125.635
G05
X154.461Y-94.417G85X153.08Y-99.569
G05
X154.527Y-149.352G85X153.475Y-153.278
G05
X153.663Y-94.204G85X154.461Y-94.417
G05
X154.715Y-90.278G85X153.663Y-94.204
G05
X157.022Y-140.063G85X155.97Y-143.988
G05
X156.224Y-139.849G85X157.022Y-140.063
G05
X157.605Y-134.697G85X156.224Y-139.849
G05
X149.75Y-108.727G85X164.324Y-112.632
G05
X158.152Y-174.764G85X157.455Y-180.053
G05
X157.455Y-180.053G85X158.274Y-180.161
G05
X157.605Y-134.697G85X158.402Y-134.911
G05
X158.274Y-180.161G85X157.743Y-184.19
G05
X151.243Y-103.285G85X165.817Y-107.19
G05
X158.152Y-174.764G85X158.97Y-174.872
G05
X159.454Y-130.985G85X158.402Y-134.911
G05
X159.5Y-170.843G85X158.97Y-174.872
G05
X161.904Y-121.713G85X160.852Y-125.638
G05
X161.106Y-121.499G85X161.904Y-121.713
G05
X162.487Y-116.347G85X161.106Y-121.499
G05
X154.727Y-90.281G85X169.301Y-94.186
G05
X162.487Y-116.347G85X163.284Y-116.56
G05
X164.336Y-112.635G85X163.284Y-116.56
G05
X166.881Y-103.267G85X165.829Y-107.193
G05
X166.083Y-103.054G85X166.881Y-103.267
G05
X167.464Y-97.901G85X166.083Y-103.054
G05
X167.464Y-97.901G85X168.261Y-98.115
G05
X169.313Y-94.19G85X168.261Y-98.115
G05
X173.923Y-132.967G85X173.923Y-137.031
G05
X173.923Y-142.365G85X173.923Y-146.429
G05
X173.924Y-94.938G85X173.924Y-99.002
G05
X173.924Y-104.336G85X173.924Y-108.4
G05
X173.926Y-113.956G85X173.926Y-118.02
G05
X173.926Y-123.354G85X173.926Y-127.418
G05
X173.934Y-151.989G85X173.934Y-156.053
G05
X173.934Y-161.387G85X173.934Y-165.451
G05
X173.948Y-170.991G85X173.948Y-175.055
G05
X173.948Y-180.389G85X173.948Y-184.453
G05
X173.923Y-137.031G85X174.749Y-137.031
G05
X173.923Y-142.365G85X174.749Y-142.365
G05
X173.924Y-99.002G85X174.749Y-99.002
G05
X173.924Y-104.336G85X174.749Y-104.336
G05
X173.926Y-118.02G85X174.751Y-118.02
G05
X173.926Y-123.354G85X174.751Y-123.354
G05
X173.934Y-156.053G85X174.759Y-156.053
G05
X173.934Y-161.387G85X174.759Y-161.387
G05
X173.948Y-175.055G85X174.773Y-175.055
G05
X173.948Y-180.389G85X174.773Y-180.389
G05
X174.749Y-137.031G85X174.749Y-142.365
G05
X174.749Y-99.002G85X174.749Y-104.336
G05
X174.751Y-118.02G85X174.751Y-123.354
G05
X174.759Y-156.053G85X174.759Y-161.387
G05
X174.773Y-175.055G85X174.773Y-180.389
G05
X173.936Y-132.967G85X189.024Y-132.967
G05
X173.936Y-146.429G85X189.024Y-146.429
G05
X173.936Y-94.938G85X189.024Y-94.938
G05
X173.936Y-108.4G85X189.024Y-108.4
G05
X173.939Y-113.956G85X189.026Y-113.956
G05
X173.939Y-127.418G85X189.026Y-127.418
G05
X173.946Y-151.989G85X189.034Y-151.989
G05
X173.946Y-165.451G85X189.034Y-165.451
G05
X173.96Y-170.991G85X189.048Y-170.991
G05
X173.96Y-184.453G85X189.048Y-184.453
G05
X188.211Y-137.031G85X188.211Y-142.365
G05
X188.211Y-99.002G85X188.211Y-104.336
G05
X188.213Y-118.02G85X188.213Y-123.354
G05
X188.221Y-156.053G85X188.221Y-161.387
G05
X188.235Y-175.055G85X188.235Y-180.389
G05
X188.211Y-137.031G85X189.036Y-137.031
G05
X188.211Y-142.365G85X189.036Y-142.365
G05
X188.211Y-99.002G85X189.037Y-99.002
G05
X188.211Y-104.336G85X189.037Y-104.336
G05
X188.213Y-118.02G85X189.039Y-118.02
G05
X188.213Y-123.354G85X189.039Y-123.354
G05
X188.221Y-156.053G85X189.047Y-156.053
G05
X188.221Y-161.387G85X189.047Y-161.387
G05
X188.235Y-175.055G85X189.061Y-175.055
G05
X188.235Y-180.389G85X189.061Y-180.389
G05
X189.036Y-132.967G85X189.036Y-137.031
G05
X189.036Y-142.365G85X189.036Y-146.429
G05
X189.037Y-94.938G85X189.037Y-99.002
G05
X189.037Y-104.336G85X189.037Y-108.4
G05
X189.039Y-113.956G85X189.039Y-118.02
G05
X189.039Y-123.354G85X189.039Y-127.418
G05
X189.047Y-151.989G85X189.047Y-156.053
G05
X189.047Y-161.387G85X189.047Y-165.451
G05
X189.061Y-170.991G85X189.061Y-175.055
G05
X189.061Y-180.389G85X189.061Y-184.453
G05
X192.907Y-94.939G85X192.907Y-99.003
G05
X192.907Y-104.337G85X192.907Y-108.401
G05
X192.913Y-113.957G85X192.913Y-118.021
G05
X192.913Y-123.355G85X192.913Y-127.419
G05
X192.925Y-132.958G85X192.925Y-137.022
G05
X192.925Y-142.356G85X192.925Y-146.42
G05
X192.925Y-151.989G85X192.925Y-156.053
G05
X192.925Y-161.387G85X192.925Y-165.451
G05
X192.937Y-170.982G85X192.937Y-175.046
G05
X192.937Y-180.38G85X192.937Y-184.444
G05
X192.907Y-99.003G85X193.733Y-99.003
G05
X192.907Y-104.337G85X193.733Y-104.337
G05
X192.913Y-118.021G85X193.738Y-118.021
G05
X192.913Y-123.355G85X193.738Y-123.355
G05
X192.925Y-137.022G85X193.75Y-137.022
G05
X192.925Y-142.356G85X193.75Y-142.356
G05
X192.925Y-156.053G85X193.75Y-156.053
G05
X192.925Y-161.387G85X193.75Y-161.387
G05
X192.937Y-175.046G85X193.763Y-175.046
G05
X192.937Y-180.38G85X193.763Y-180.38
G05
X193.733Y-99.003G85X193.733Y-104.337
G05
X193.738Y-118.021G85X193.738Y-123.355
G05
X193.75Y-137.022G85X193.75Y-142.356
G05
X193.75Y-156.053G85X193.75Y-161.387
G05
X193.763Y-175.046G85X193.763Y-180.38
G05
X192.92Y-94.939G85X208.008Y-94.939
G05
X192.92Y-108.401G85X208.008Y-108.401
G05
X192.925Y-113.957G85X208.013Y-113.957
G05
X192.925Y-127.419G85X208.013Y-127.419
G05
X192.937Y-132.958G85X208.025Y-132.958
G05
X192.937Y-146.42G85X208.025Y-146.42
G05
X192.938Y-151.989G85X208.025Y-151.989
G05
X192.938Y-165.451G85X208.025Y-165.451
G05
X192.95Y-170.982G85X208.038Y-170.982
G05
X192.95Y-184.444G85X208.038Y-184.444
G05
X207.195Y-99.003G85X207.195Y-104.337
G05
X207.2Y-118.021G85X207.2Y-123.355
G05
X207.212Y-137.022G85X207.212Y-142.356
G05
X207.212Y-156.053G85X207.212Y-161.387
G05
X207.225Y-175.046G85X207.225Y-180.38
G05
X207.195Y-99.003G85X208.02Y-99.003
G05
X207.195Y-104.337G85X208.02Y-104.337
G05
X207.2Y-118.021G85X208.026Y-118.021
G05
X207.2Y-123.355G85X208.026Y-123.355
G05
X207.212Y-137.022G85X208.038Y-137.022
G05
X207.212Y-142.356G85X208.038Y-142.356
G05
X207.212Y-156.053G85X208.038Y-156.053
G05
X207.212Y-161.387G85X208.038Y-161.387
G05
X207.225Y-175.046G85X208.05Y-175.046
G05
X207.225Y-180.38G85X208.05Y-180.38
G05
X208.02Y-94.939G85X208.02Y-99.003
G05
X208.02Y-104.337G85X208.02Y-108.401
G05
X208.026Y-113.957G85X208.026Y-118.021
G05
X208.026Y-123.355G85X208.026Y-127.419
G05
X208.038Y-132.958G85X208.038Y-137.022
G05
X208.038Y-142.356G85X208.038Y-146.42
G05
X208.038Y-151.989G85X208.038Y-156.053
G05
X208.038Y-161.387G85X208.038Y-165.451
G05
X208.05Y-170.982G85X208.05Y-175.046
G05
X208.05Y-180.38G85X208.05Y-184.444
G05
X211.901Y-132.947G85X211.901Y-137.011
G05
X211.901Y-142.345G85X211.901Y-146.409
G05
X211.903Y-113.957G85X211.903Y-118.021
G05
X211.903Y-123.355G85X211.903Y-127.419
G05
X211.912Y-94.939G85X211.912Y-99.003
G05
X211.912Y-104.337G85X211.912Y-108.401
G05
X211.918Y-151.973G85X211.918Y-156.037
G05
X211.918Y-161.371G85X211.918Y-165.435
G05
X211.943Y-170.962G85X211.943Y-175.026
G05
X211.943Y-180.36G85X211.943Y-184.424
G05
X211.901Y-137.011G85X212.727Y-137.011
G05
X211.901Y-142.345G85X212.727Y-142.345
G05
X211.903Y-118.021G85X212.728Y-118.021
G05
X211.903Y-123.355G85X212.728Y-123.355
G05
X211.912Y-99.003G85X212.737Y-99.003
G05
X211.912Y-104.337G85X212.737Y-104.337
G05
X211.918Y-156.037G85X212.744Y-156.037
G05
X211.918Y-161.371G85X212.744Y-161.371
G05
X211.943Y-175.026G85X212.769Y-175.026
G05
X211.943Y-180.36G85X212.769Y-180.36
G05
X212.727Y-137.011G85X212.727Y-142.345
G05
X212.728Y-118.021G85X212.728Y-123.355
G05
X212.737Y-99.003G85X212.737Y-104.337
G05
X212.744Y-156.037G85X212.744Y-161.371
G05
X212.769Y-175.026G85X212.769Y-180.36
G05
X211.914Y-132.947G85X227.001Y-132.947
G05
X211.914Y-146.409G85X227.001Y-146.409
G05
X211.915Y-113.957G85X227.003Y-113.957
G05
X211.915Y-127.419G85X227.003Y-127.419
G05
X211.924Y-94.939G85X227.012Y-94.939
G05
X211.924Y-108.401G85X227.012Y-108.401
G05
X211.931Y-151.973G85X227.018Y-151.973
G05
X211.931Y-165.435G85X227.018Y-165.435
G05
X211.956Y-170.962G85X227.043Y-170.962
G05
X211.956Y-184.424G85X227.043Y-184.424
G05
X226.189Y-137.011G85X226.189Y-142.345
G05
X226.19Y-118.021G85X226.19Y-123.355
G05
X226.199Y-99.003G85X226.199Y-104.337
G05
X226.206Y-156.037G85X226.206Y-161.371
G05
X226.231Y-175.026G85X226.231Y-180.36
G05
X226.189Y-137.011G85X227.014Y-137.011
G05
X226.189Y-142.345G85X227.014Y-142.345
G05
X226.19Y-118.021G85X227.016Y-118.021
G05
X226.19Y-123.355G85X227.016Y-123.355
G05
X226.199Y-99.003G85X227.025Y-99.003
G05
X226.199Y-104.337G85X227.025Y-104.337
G05
X226.206Y-156.037G85X227.031Y-156.037
G05
X226.206Y-161.371G85X227.031Y-161.371
G05
X226.231Y-175.026G85X227.056Y-175.026
G05
X226.231Y-180.36G85X227.056Y-180.36
G05
X227.014Y-132.947G85X227.014Y-137.011
G05
X227.014Y-142.345G85X227.014Y-146.409
G05
X227.016Y-113.957G85X227.016Y-118.021
G05
X227.016Y-123.355G85X227.016Y-127.419
G05
X227.025Y-94.939G85X227.025Y-99.003
G05
X227.025Y-104.337G85X227.025Y-108.401
G05
X227.031Y-151.973G85X227.031Y-156.037
G05
X227.031Y-161.371G85X227.031Y-165.435
G05
X227.056Y-170.962G85X227.056Y-175.026
G05
X227.056Y-180.36G85X227.056Y-184.424
G05
X230.884Y-113.957G85X230.884Y-118.021
G05
X230.884Y-123.355G85X230.884Y-127.419
G05
X230.898Y-132.954G85X230.898Y-137.018
G05
X230.898Y-142.352G85X230.898Y-146.416
G05
X230.9Y-94.939G85X230.9Y-99.003
G05
X230.9Y-104.337G85X230.9Y-108.401
G05
X230.906Y-170.952G85X230.906Y-175.016
G05
X230.906Y-180.35G85X230.906Y-184.414
G05
X230.91Y-151.97G85X230.91Y-156.034
G05
X230.91Y-161.368G85X230.91Y-165.432
G05
X230.884Y-118.021G85X231.709Y-118.021
G05
X230.884Y-123.355G85X231.709Y-123.355
G05
X230.898Y-137.018G85X231.724Y-137.018
G05
X230.898Y-142.352G85X231.724Y-142.352
G05
X230.9Y-99.003G85X231.726Y-99.003
G05
X230.9Y-104.337G85X231.726Y-104.337
G05
X230.906Y-175.016G85X231.732Y-175.016
G05
X230.906Y-180.35G85X231.732Y-180.35
G05
X230.91Y-156.034G85X231.736Y-156.034
G05
X230.91Y-161.368G85X231.736Y-161.368
G05
X231.709Y-118.021G85X231.709Y-123.355
G05
X231.724Y-137.018G85X231.724Y-142.352
G05
X231.726Y-99.003G85X231.726Y-104.337
G05
X231.732Y-175.016G85X231.732Y-180.35
G05
X231.736Y-156.034G85X231.736Y-161.368
G05
X230.897Y-113.957G85X245.984Y-113.957
G05
X230.897Y-127.419G85X245.984Y-127.419
G05
X230.911Y-132.954G85X245.999Y-132.954
G05
X230.911Y-146.416G85X245.999Y-146.416
G05
X230.913Y-94.939G85X246.001Y-94.939
G05
X230.913Y-108.401G85X246.001Y-108.401
G05
X230.919Y-170.952G85X246.007Y-170.952
G05
X230.919Y-184.414G85X246.007Y-184.414
G05
X230.923Y-151.97G85X246.01Y-151.97
G05
X230.923Y-165.432G85X246.01Y-165.432
G05
X245.171Y-118.021G85X245.171Y-123.355
G05
X245.186Y-137.018G85X245.186Y-142.352
G05
X245.188Y-99.003G85X245.188Y-104.337
G05
X245.194Y-175.016G85X245.194Y-180.35
G05
X245.198Y-156.034G85X245.198Y-161.368
G05
X245.171Y-118.021G85X245.997Y-118.021
G05
X245.171Y-123.355G85X245.997Y-123.355
G05
X245.186Y-137.018G85X246.011Y-137.018
G05
X245.186Y-142.352G85X246.011Y-142.352
G05
X245.188Y-99.003G85X246.013Y-99.003
G05
X245.188Y-104.337G85X246.013Y-104.337
G05
X245.194Y-175.016G85X246.019Y-175.016
G05
X245.194Y-180.35G85X246.019Y-180.35
G05
X245.198Y-156.034G85X246.023Y-156.034
G05
X245.198Y-161.368G85X246.023Y-161.368
G05
X245.997Y-113.957G85X245.997Y-118.021
G05
X245.997Y-123.355G85X245.997Y-127.419
G05
X246.011Y-132.954G85X246.011Y-137.018
G05
X246.011Y-142.352G85X246.011Y-146.416
G05
X246.013Y-94.939G85X246.013Y-99.003
G05
X246.013Y-104.337G85X246.013Y-108.401
G05
X246.019Y-170.952G85X246.019Y-175.016
G05
X246.019Y-180.35G85X246.019Y-184.414
G05
X246.023Y-151.97G85X246.023Y-156.034
G05
X246.023Y-161.368G85X246.023Y-165.432
G05
X250.502Y-94.233G85X251.554Y-98.158
G05
X251.554Y-98.158G85X252.351Y-97.945
G05
X252.351Y-97.945G85X253.732Y-103.097
G05
X252.934Y-103.311G85X253.732Y-103.097
G05
X252.934Y-103.311G85X253.986Y-107.236
G05
X255.411Y-112.704G85X256.463Y-116.629
G05
X256.463Y-116.629G85X257.26Y-116.416
G05
X250.514Y-94.229G85X265.088Y-90.324
G05
X257.26Y-116.416G85X258.641Y-121.568
G05
X257.844Y-121.781G85X258.641Y-121.568
G05
X257.844Y-121.781G85X258.895Y-125.707
G05
X260.235Y-170.843G85X260.765Y-174.872
G05
X260.339Y-131.072G85X261.391Y-134.997
G05
X260.765Y-174.872G85X261.583Y-174.764
G05
X253.998Y-107.233G85X268.572Y-103.328
G05
X261.461Y-180.161G85X261.992Y-184.19
G05
X261.391Y-134.997G85X262.188Y-134.783
G05
X261.461Y-180.161G85X262.28Y-180.053
G05
X261.583Y-174.764G85X262.28Y-180.053
G05
X255.423Y-112.7G85X269.997Y-108.795
G05
X262.188Y-134.783G85X263.569Y-139.936
G05
X262.771Y-140.149G85X263.569Y-139.936
G05
X262.771Y-140.149G85X263.823Y-144.075
G05
X265.1Y-90.321G85X266.152Y-94.247
G05
X265.354Y-94.46G85X266.152Y-94.247
G05
X265.275Y-149.427G85X266.327Y-153.353
G05
X265.354Y-94.46G85X266.735Y-99.613
G05
X258.908Y-125.704G85X273.481Y-121.799
G05
X266.327Y-153.353G85X267.125Y-153.139
G05
X266.735Y-99.613G85X267.532Y-99.399
G05
X260.351Y-131.068G85X274.925Y-127.163
G05
X260.247Y-170.841G85X275.206Y-168.872
G05
X267.125Y-153.139G85X268.505Y-158.292
G05
X267.532Y-99.399G85X268.584Y-103.324
G05
X267.708Y-158.505G85X268.505Y-158.292
G05
X267.708Y-158.505G85X268.76Y-162.431
G05
X268.222Y-87.005G85X269.274Y-90.931
G05
X262.004Y-184.188G85X276.963Y-182.219
G05
X269.274Y-90.931G85X270.071Y-90.717
G05
X270.009Y-108.792G85X271.061Y-112.718
G05
X270.264Y-112.931G85X271.061Y-112.718
G05
X270.071Y-90.717G85X271.452Y-95.869
G05
X270.264Y-112.931G85X271.644Y-118.084
G05
X270.654Y-96.083G85X271.452Y-95.869
G05
X263.836Y-144.072G85X278.409Y-140.167
G05
X270.654Y-96.083G85X271.706Y-100.008
G05
X271.644Y-118.084G85X272.442Y-117.87
G05
X265.288Y-149.424G85X279.861Y-145.519
G05
X272.442Y-117.87G85X273.493Y-121.795
G05
X273.163Y-105.488G85X274.215Y-109.414
G05
X274.215Y-109.414G85X275.012Y-109.2
G05
X274.93Y-173.007G85X275.627Y-178.296
G05
X274.93Y-173.007G85X275.749Y-172.899
G05
X274.937Y-127.16G85X275.989Y-131.086
G05
X275.218Y-168.87G85X275.749Y-172.899
G05
X268.234Y-87.002G85X282.808Y-83.097
G05
X275.192Y-131.299G85X275.989Y-131.086
G05
X275.012Y-109.2G85X276.393Y-114.352
G05
X275.192Y-131.299G85X276.572Y-136.451
G05
X275.596Y-114.566G85X276.393Y-114.352
G05
X275.627Y-178.296G85X276.445Y-178.188
G05
X268.772Y-162.427G85X283.345Y-158.522
G05
X275.596Y-114.566G85X276.648Y-118.492
G05
X276.445Y-178.188G85X276.975Y-182.217
G05
X276.572Y-136.451G85X277.37Y-136.238
G05
X277.37Y-136.238G85X278.421Y-140.163
G05
X278.093Y-123.858G85X279.145Y-127.783
G05
X271.718Y-100.005G85X286.292Y-96.1
G05
X279.145Y-127.783G85X279.943Y-127.57
G05
X279.873Y-145.516G85X280.925Y-149.441
G05
X273.176Y-105.485G85X287.749Y-101.58
G05
X280.128Y-149.655G85X280.925Y-149.441
G05
X279.943Y-127.57G85X281.323Y-132.722
G05
X280.128Y-149.655G85X281.508Y-154.807
G05
X280.526Y-132.936G85X281.323Y-132.722
G05
X280.526Y-132.936G85X281.578Y-136.861
G05
X281.508Y-154.807G85X282.306Y-154.594
G05
X282.306Y-154.594G85X283.358Y-158.519
G05
X282.82Y-83.094G85X283.872Y-87.019
G05
X283.074Y-87.233G85X283.872Y-87.019
G05
X283.021Y-142.272G85X284.073Y-146.197
G05
X283.074Y-87.233G85X284.455Y-92.385
G05
X276.66Y-118.488G85X291.233Y-114.583
G05
X284.073Y-146.197G85X284.87Y-145.984
G05
X284.455Y-92.385G85X285.252Y-92.171
G05
X278.106Y-123.855G85X292.679Y-119.95
G05
X284.87Y-145.984G85X286.251Y-151.136
G05
X285.252Y-92.171G85X286.304Y-96.097
G05
X285.453Y-151.35G85X286.251Y-151.136
G05
X285.453Y-151.35G85X286.505Y-155.275
G05
X286.258Y-80.753G85X287.31Y-84.678
G05
X287.31Y-84.678G85X288.107Y-84.464
G05
X287.761Y-101.577G85X288.813Y-105.502
G05
X288.016Y-105.716G85X288.813Y-105.502
G05
X287.94Y-160.669G85X288.992Y-164.594
G05
X288.016Y-105.716G85X289.396Y-110.868
G05
X288.107Y-84.464G85X289.488Y-89.617
G05
X281.59Y-136.858G85X296.163Y-132.953
G05
X288.69Y-89.83G85X289.488Y-89.617
G05
X288.69Y-89.83G85X289.742Y-93.756
G05
X288.992Y-164.594G85X289.789Y-164.381
G05
X289.396Y-110.868G85X290.194Y-110.655
G05
X283.033Y-142.269G85X297.607Y-138.364
G05
X289.789Y-164.381G85X291.17Y-169.533
G05
X290.194Y-110.655G85X291.246Y-114.58
G05
X290.372Y-169.746G85X291.17Y-169.533
G05
X290.372Y-169.746G85X291.424Y-173.672
G05
X291.271Y-99.19G85X292.323Y-103.116
G05
X292.323Y-103.116G85X293.12Y-102.902
G05
X292.691Y-119.946G85X293.743Y-123.872
G05
X292.946Y-124.086G85X293.743Y-123.872
G05
X286.27Y-80.749G85X300.844Y-76.844
G05
X292.946Y-124.086G85X294.326Y-129.238
G05
X286.517Y-155.272G85X301.091Y-151.367
G05
X293.12Y-102.902G85X294.501Y-108.054
G05
X293.703Y-108.268G85X294.501Y-108.054
G05
X293.703Y-108.268G85X294.755Y-112.194
G05
X294.326Y-129.238G85X295.124Y-129.024
G05
X287.952Y-160.665G85X302.526Y-156.76
G05
X295.124Y-129.024G85X296.176Y-132.95
G05
X296.214Y-117.668G85X297.266Y-121.594
G05
X289.754Y-93.753G85X304.328Y-89.848
G05
X297.266Y-121.594G85X298.063Y-121.38
G05
X297.619Y-138.36G85X298.671Y-142.286
G05
X297.873Y-142.5G85X298.671Y-142.286
G05
X297.873Y-142.5G85X299.254Y-147.652
G05
X291.283Y-99.187G85X305.857Y-95.282
G05
X291.436Y-173.669G85X306.01Y-169.764
G05
X298.063Y-121.38G85X299.443Y-126.532
G05
X298.646Y-126.746G85X299.444Y-126.532
G05
X298.646Y-126.746G85X299.698Y-130.672
G05
X299.254Y-147.652G85X300.051Y-147.438
G05
X300.051Y-147.438G85X301.103Y-151.364
G05
X300.856Y-76.841G85X301.908Y-80.767
G05
X301.11Y-80.98G85X301.908Y-80.767
G05
X301.143Y-136.001G85X302.195Y-139.927
G05
X301.11Y-80.98G85X302.491Y-86.132
G05
X294.767Y-112.19G85X309.341Y-108.285
G05
X302.195Y-139.927G85X302.992Y-139.713
G05
X302.491Y-86.132G85X303.288Y-85.919
G05
X302.538Y-156.757G85X303.59Y-160.683
G05
X302.792Y-160.896G85X303.59Y-160.683
G05
X302.792Y-160.896G85X304.173Y-166.049
G05
X296.226Y-117.665G85X310.8Y-113.76
G05
X302.992Y-139.713G85X304.373Y-144.866
G05
X303.288Y-85.919G85X304.34Y-89.844
G05
X303.575Y-145.079G85X304.373Y-144.866
G05
X303.575Y-145.079G85X304.627Y-149.005
G05
X304.173Y-166.049G85X304.97Y-165.835
G05
X304.97Y-165.835G85X306.022Y-169.76
G05
X305.043Y-77.17G85X306.095Y-81.096
G05
X305.869Y-95.279G85X306.921Y-99.204
G05
X306.095Y-81.096G85X306.892Y-80.882
G05
X306.123Y-99.418G85X306.921Y-99.204
G05
X306.057Y-154.377G85X307.109Y-158.302
G05
X306.123Y-99.418G85X307.504Y-104.57
G05
X299.71Y-130.668G85X314.284Y-126.763
G05
X307.109Y-158.302G85X307.907Y-158.088
G05
X306.892Y-80.882G85X308.273Y-86.034
G05
X307.475Y-86.248G85X308.273Y-86.034
G05
X307.504Y-104.57G85X308.301Y-104.357
G05
X307.475Y-86.248G85X308.527Y-90.173
G05
X301.155Y-135.998G85X315.729Y-132.093
G05
X307.907Y-158.088G85X309.287Y-163.241
G05
X308.301Y-104.357G85X309.353Y-108.282
G05
X308.49Y-163.454G85X309.287Y-163.241
G05
X308.49Y-163.454G85X309.542Y-167.38
G05
X309.964Y-95.515G85X311.015Y-99.44
G05
X310.812Y-113.757G85X311.864Y-117.682
G05
X311.015Y-99.44G85X311.813Y-99.227
G05
X311.066Y-117.896G85X311.864Y-117.682
G05
X311.066Y-117.896G85X312.447Y-123.048
G05
X304.64Y-149.001G85X319.213Y-145.097
G05
X305.055Y-77.167G85X319.629Y-73.262
G05
X311.813Y-99.227G85X313.193Y-104.379
G05
X312.396Y-104.593G85X313.193Y-104.379
G05
X312.447Y-123.048G85X313.244Y-122.834
G05
X312.396Y-104.593G85X313.448Y-108.518
G05
X306.07Y-154.373G85X320.643Y-150.468
G05
X313.244Y-122.834G85X314.296Y-126.76
G05
X314.88Y-113.979G85X315.932Y-117.905
G05
X308.539Y-90.17G85X323.113Y-86.265
G05
X315.741Y-132.09G85X316.793Y-136.015
G05
X315.932Y-117.905G85X316.73Y-117.691
G05
X315.996Y-136.229G85X316.793Y-136.015
G05
X315.996Y-136.229G85X317.376Y-141.381
G05
X309.554Y-167.377G85X324.127Y-163.472
G05
X309.976Y-95.512G85X324.549Y-91.607
G05
X316.73Y-117.691G85X318.11Y-122.843
G05
X317.313Y-123.057G85X318.11Y-122.843
G05
X317.376Y-141.381G85X318.173Y-141.168
G05
X317.313Y-123.057G85X318.365Y-126.982
G05
X318.173Y-141.168G85X319.225Y-145.093
G05
X319.641Y-73.259G85X320.693Y-77.184
G05
X319.895Y-77.398G85X320.693Y-77.184
G05
X319.841Y-132.416G85X320.893Y-136.342
G05
X319.895Y-77.398G85X321.276Y-82.55
G05
X313.46Y-108.515G85X328.034Y-104.61
G05
X320.655Y-150.465G85X321.707Y-154.391
G05
X320.893Y-136.342G85X321.69Y-136.128
G05
X320.91Y-154.604G85X321.707Y-154.391
G05
X320.91Y-154.604G85X322.29Y-159.756
G05
X321.276Y-82.55G85X322.073Y-82.336
G05
X314.893Y-113.976G85X329.466Y-110.071
G05
X321.69Y-136.128G85X323.071Y-141.28
G05
X322.073Y-82.336G85X323.125Y-86.262
G05
X322.273Y-141.494G85X323.071Y-141.28
G05
X322.29Y-159.756G85X323.088Y-159.543
G05
X322.273Y-141.494G85X323.325Y-145.419
G05
X323.088Y-159.543G85X324.14Y-163.468
G05
X324.562Y-91.603G85X325.613Y-95.529
G05
X324.816Y-95.743G85X325.613Y-95.529
G05
X324.742Y-76.838G85X325.794Y-80.764
G05
X324.778Y-150.823G85X325.83Y-154.749
G05
X324.816Y-95.743G85X326.197Y-100.895
G05
X318.377Y-126.979G85X332.95Y-123.074
G05
X325.794Y-80.764G85X326.591Y-80.55
G05
X325.83Y-154.749G85X326.627Y-154.535
G05
X326.197Y-100.895G85X326.994Y-100.681
G05
X319.853Y-132.413G85X334.427Y-128.508
G05
X326.591Y-80.55G85X327.971Y-85.702
G05
X326.627Y-154.535G85X328.008Y-159.687
G05
X326.994Y-100.681G85X328.046Y-104.607
G05
X327.174Y-85.916G85X327.971Y-85.702
G05
X327.21Y-159.901G85X328.008Y-159.687
G05
X327.174Y-85.916G85X328.226Y-89.842
G05
X327.21Y-159.901G85X328.262Y-163.827
G05
X329.478Y-110.068G85X330.53Y-113.993
G05
X329.733Y-114.207G85X330.53Y-113.993
G05
X329.636Y-95.12G85X330.688Y-99.045
G05
X329.733Y-114.207G85X331.114Y-119.359
G05
X323.338Y-145.416G85X337.911Y-141.511
G05
X330.688Y-99.045G85X331.486Y-98.832
G05
X331.114Y-119.359G85X331.911Y-119.145
G05
X324.754Y-76.835G85X339.327Y-72.93
G05
X324.79Y-150.82G85X339.364Y-146.915
G05
X331.486Y-98.832G85X332.866Y-103.984
G05
X331.911Y-119.145G85X332.963Y-123.071
G05
X332.069Y-104.197G85X332.866Y-103.984
G05
X332.069Y-104.197G85X333.121Y-108.123
G05
X334.439Y-128.505G85X335.491Y-132.43
G05
X334.694Y-132.644G85X335.491Y-132.43
G05
X334.588Y-113.673G85X335.64Y-117.598
G05
X334.694Y-132.644G85X336.074Y-137.796
G05
X328.238Y-89.838G85X342.812Y-85.933
G05
X328.274Y-163.823G85X342.848Y-159.918
G05
X335.64Y-117.598G85X336.437Y-117.384
G05
X336.074Y-137.796G85X336.871Y-137.582
G05
X329.649Y-95.116G85X344.222Y-91.211
G05
X336.437Y-117.384G85X337.818Y-122.537
G05
X336.871Y-137.582G85X337.923Y-141.508
G05
X337.02Y-122.75G85X337.818Y-122.537
G05
X337.02Y-122.75G85X338.072Y-126.676
G05
X339.34Y-72.927G85X340.392Y-76.852
G05
X339.376Y-146.912G85X340.428Y-150.837
G05
X339.594Y-77.066G85X340.392Y-76.852
G05
X339.63Y-151.051G85X340.428Y-150.837
G05
X339.513Y-132.032G85X340.565Y-135.958
G05
X339.594Y-77.066G85X340.975Y-82.218
G05
X339.63Y-151.051G85X341.011Y-156.203
G05
X333.133Y-108.12G85X347.706Y-104.215
G05
X340.565Y-135.958G85X341.362Y-135.744
G05
X340.975Y-82.218G85X341.772Y-82.004
G05
X341.011Y-156.203G85X341.808Y-155.99
G05
X334.6Y-113.669G85X349.174Y-109.764
G05
X341.362Y-135.744G85X342.743Y-140.896
G05
X341.772Y-82.004G85X342.824Y-85.93
G05
X341.808Y-155.99G85X342.86Y-159.915
G05
X341.945Y-141.11G85X342.743Y-140.896
G05
X341.945Y-141.11G85X342.997Y-145.035
G05
X343.477Y-73.386G85X344.528Y-77.312
G05
X344.234Y-91.208G85X345.286Y-95.134
G05
X344.489Y-95.347G85X345.286Y-95.134
G05
X344.528Y-77.312G85X345.326Y-77.098
G05
X344.459Y-150.427G85X345.511Y-154.353
G05
X344.489Y-95.347G85X345.869Y-100.5
G05
X338.084Y-126.673G85X352.658Y-122.768
G05
X345.511Y-154.353G85X346.308Y-154.139
G05
X345.326Y-77.098G85X346.706Y-82.25
G05
X345.869Y-100.5G85X346.667Y-100.286
G05
X345.909Y-82.464G85X346.706Y-82.25
G05
X345.909Y-82.464G85X346.961Y-86.389
G05
X339.525Y-132.029G85X354.099Y-128.124
G05
X346.308Y-154.139G85X347.689Y-159.291
G05
X346.667Y-100.286G85X347.719Y-104.211
G05
X346.891Y-159.505G85X347.689Y-159.291
G05
X346.891Y-159.505G85X347.943Y-163.43
G05
X348.385Y-91.655G85X349.437Y-95.581
G05
X349.186Y-109.761G85X350.238Y-113.687
G05
X349.437Y-95.581G85X350.234Y-95.367
G05
X349.44Y-113.9G85X350.238Y-113.687
G05
X349.44Y-113.9G85X350.821Y-119.052
G05
X343.01Y-145.032G85X357.583Y-141.127
G05
X343.489Y-73.383G85X358.062Y-69.478
G05
X350.234Y-95.367G85X351.614Y-100.519
G05
X350.817Y-100.733G85X351.614Y-100.519
G05
X350.821Y-119.052G85X351.618Y-118.839
G05
X350.817Y-100.733G85X351.869Y-104.659
G05
X344.471Y-150.424G85X359.045Y-146.519
G05
X351.618Y-118.839G85X352.67Y-122.764
G05
X353.341Y-110.179G85X354.393Y-114.105
G05
X346.973Y-86.386G85X361.547Y-82.481
G05
X354.111Y-128.121G85X355.163Y-132.046
G05
X354.366Y-132.26G85X355.163Y-132.046
G05
X354.393Y-114.105G85X355.19Y-113.891
G05
X354.366Y-132.26G85X355.746Y-137.412
G05
X347.956Y-163.427G85X362.529Y-159.522
G05
X348.397Y-91.652G85X362.97Y-87.747
G05
X355.19Y-113.891G85X356.571Y-119.043
G05
X355.746Y-137.412G85X356.543Y-137.198
G05
X355.774Y-119.257G85X356.571Y-119.043
G05
X355.774Y-119.257G85X356.825Y-123.182
G05
X356.543Y-137.198G85X357.595Y-141.124
G05
X358.075Y-69.475G85X359.127Y-73.4
G05
X358.329Y-73.614G85X359.127Y-73.4
G05
X358.288Y-128.527G85X359.34Y-132.452
G05
X358.329Y-73.614G85X359.71Y-78.766
G05
X351.881Y-104.655G85X366.455Y-100.75
G05
X359.057Y-146.516G85X360.109Y-150.441
G05
X359.312Y-150.655G85X360.109Y-150.441
G05
X359.34Y-132.452G85X360.137Y-132.238
G05
X359.312Y-150.655G85X360.692Y-155.807
G05
X359.71Y-78.766G85X360.507Y-78.552
G05
X353.354Y-110.176G85X367.927Y-106.271
G05
X360.137Y-132.238G85X361.518Y-137.391
G05
X360.507Y-78.552G85X361.559Y-82.478
G05
X360.692Y-155.807G85X361.489Y-155.593
G05
X360.72Y-137.604G85X361.518Y-137.391
G05
X360.72Y-137.604G85X361.772Y-141.53
G05
X361.489Y-155.593G85X362.541Y-159.519
G05
X361.538Y-66.994G85X362.59Y-70.919
G05
X362.59Y-70.919G85X363.388Y-70.706
G05
X362.983Y-87.744G85X364.035Y-91.669
G05
X363.237Y-91.883G85X364.035Y-91.669
G05
X363.221Y-146.957G85X364.273Y-150.882
G05
X363.237Y-91.883G85X364.618Y-97.035
G05
X363.388Y-70.706G85X364.768Y-75.858
G05
X356.838Y-123.179G85X371.411Y-119.274
G05
X363.971Y-76.072G85X364.768Y-75.858
G05
X363.971Y-76.072G85X365.023Y-79.997
G05
X364.273Y-150.882G85X365.07Y-150.669
G05
X364.618Y-97.035G85X365.415Y-96.822
G05
X358.3Y-128.523G85X372.874Y-124.618
G05
X365.07Y-150.669G85X366.451Y-155.821
G05
X365.415Y-96.822G85X366.467Y-100.747
G05
X365.653Y-156.034G85X366.451Y-155.821
G05
X365.653Y-156.034G85X366.705Y-159.96
G05
X366.416Y-85.265G85X367.468Y-89.19
G05
X367.468Y-89.19G85X368.266Y-88.977
G05
X367.939Y-106.268G85X368.991Y-110.193
G05
X368.194Y-110.407G85X368.991Y-110.193
G05
X361.551Y-66.991G85X376.124Y-63.086
G05
X368.194Y-110.407G85X369.574Y-115.559
G05
X368.266Y-88.977G85X369.646Y-94.129
G05
X361.785Y-141.527G85X376.358Y-137.622
G05
X368.849Y-94.342G85X369.646Y-94.129
G05
X368.849Y-94.342G85X369.901Y-98.268
G05
X369.574Y-115.559G85X370.372Y-115.345
G05
X363.233Y-146.953G85X377.807Y-143.048
G05
X370.372Y-115.345G85X371.424Y-119.271
G05
X371.376Y-103.835G85X372.428Y-107.76
G05
X365.035Y-79.994G85X379.608Y-76.089
G05
X372.428Y-107.76G85X373.225Y-107.546
G05
X372.886Y-124.615G85X373.938Y-128.541
G05
X373.141Y-128.754G85X373.938Y-128.541
G05
X366.429Y-85.261G85X381.002Y-81.356
G05
X373.141Y-128.754G85X374.521Y-133.907
G05
X373.225Y-107.546G85X374.606Y-112.699
G05
X366.718Y-159.957G85X381.291Y-156.052
G05
X373.809Y-112.912G85X374.606Y-112.699
G05
X373.809Y-112.912G85X374.86Y-116.838
G05
X374.521Y-133.907G85X375.318Y-133.693
G05
X375.318Y-133.693G85X376.37Y-137.618
G05
X376.136Y-63.082G85X377.188Y-67.008
G05
X376.391Y-67.221G85X377.188Y-67.008
G05
X376.304Y-122.146G85X377.355Y-126.072
G05
X376.391Y-67.221G85X377.771Y-72.374
G05
X369.913Y-98.265G85X384.486Y-94.36
G05
X377.355Y-126.072G85X378.153Y-125.858
G05
X377.771Y-72.374G85X378.569Y-72.16
G05
X377.819Y-143.045G85X378.871Y-146.971
G05
X378.074Y-147.184G85X378.871Y-146.971
G05
X371.389Y-103.831G85X385.962Y-99.926
G05
X378.074Y-147.184G85X379.454Y-152.337
G05
X378.153Y-125.858G85X379.533Y-131.01
G05
X378.569Y-72.16G85X379.621Y-76.086
G05
X378.736Y-131.224G85X379.533Y-131.01
G05
X378.736Y-131.224G85X379.788Y-135.149
G05
X379.454Y-152.337G85X380.251Y-152.123
G05
X380.251Y-152.123G85X381.303Y-156.048
G05
X381.015Y-81.353G85X382.066Y-85.279
G05
X381.269Y-85.492G85X382.066Y-85.279
G05
X381.239Y-140.56G85X382.291Y-144.486
G05
X381.269Y-85.492G85X382.65Y-90.645
G05
X374.873Y-116.835G85X389.446Y-112.93
G05
X382.291Y-144.486G85X383.088Y-144.272
G05
X382.65Y-90.645G85X383.447Y-90.431
G05
X376.316Y-122.143G85X390.889Y-118.238
G05
X383.088Y-144.272G85X384.469Y-149.425
G05
X383.447Y-90.431G85X384.499Y-94.356
G05
X383.672Y-149.638G85X384.469Y-149.425
G05
X383.672Y-149.638G85X384.723Y-153.564
G05
X385.974Y-99.923G85X387.026Y-103.849
G05
X386.229Y-104.062G85X387.026Y-103.849
G05
X386.229Y-104.062G85X387.609Y-109.214
G05
X379.8Y-135.146G85X394.374Y-131.241
G05
X387.609Y-109.214G85X388.407Y-109.001
G05
X381.251Y-140.557G85X395.825Y-136.652
G05
X388.407Y-109.001G85X389.458Y-112.926
G05
X390.902Y-118.235G85X391.953Y-122.16
G05
X391.156Y-122.374G85X391.953Y-122.16
G05
X391.156Y-122.374G85X392.537Y-127.526
G05
X384.736Y-153.56G85X399.309Y-149.655
G05
X392.537Y-127.526G85X393.334Y-127.312
G05
X393.334Y-127.312G85X394.386Y-131.238
G05
X395.837Y-136.649G85X396.889Y-140.574
G05
X396.092Y-140.788G85X396.889Y-140.574
G05
X396.092Y-140.788G85X397.472Y-145.94
G05
X397.472Y-145.94G85X398.27Y-145.727
G05
X398.27Y-145.727G85X399.321Y-149.652
G05
T3
X25.875Y-151.33G85X29.555Y-152.316
G05
X29.491Y-137.836G85X33.171Y-138.822
G05
X30.783Y-132.913G85X34.463Y-133.899
G05
X34.399Y-119.419G85X38.079Y-120.405
G05
X35.721Y-114.524G85X39.401Y-115.51
G05
X39.337Y-101.03G85X43.017Y-102.016
G05
X40.653Y-95.976G85X44.333Y-96.962
G05
X43.88Y-157.638G85X47.56Y-158.624
G05
X44.268Y-82.482G85X47.948Y-83.469
G05
X45.521Y-77.747G85X49.201Y-78.734
G05
X47.495Y-144.144G85X51.175Y-145.13
G05
X48.837Y-139.276G85X52.517Y-140.262
G05
X49.137Y-64.253G85X52.817Y-65.24
G05
X52.453Y-125.782G85X56.133Y-126.768
G05
X53.772Y-120.941G85X57.452Y-121.928
G05
X57.387Y-107.448G85X61.068Y-108.434
G05
X58.782Y-102.369G85X62.462Y-103.355
G05
X62.398Y-88.875G85X66.078Y-89.861
G05
X62.672Y-161.17G85X66.353Y-162.156
G05
X63.679Y-84.103G85X67.359Y-85.089
G05
X66.288Y-147.676G85X69.968Y-148.662
G05
X67.295Y-70.609G85X70.975Y-71.595
G05
X67.606Y-142.742G85X71.287Y-143.729
G05
X71.222Y-129.248G85X74.902Y-130.235
G05
X72.521Y-124.4G85X76.202Y-125.386
G05
X76.137Y-110.906G85X79.817Y-111.892
G05
X77.483Y-105.839G85X81.163Y-106.825
G05
X81.099Y-92.345G85X84.779Y-93.331
G05
X82.333Y-161.544G85X86.013Y-162.53
G05
X82.376Y-87.612G85X86.056Y-88.598
G05
X85.948Y-148.05G85X89.628Y-149.036
G05
X85.991Y-74.118G85X89.671Y-75.104
G05
X87.244Y-143.156G85X90.924Y-144.142
G05
X90.86Y-129.662G85X94.54Y-130.648
G05
X92.22Y-124.689G85X95.9Y-125.675
G05
X95.835Y-111.195G85X99.516Y-112.182
G05
X97.173Y-106.25G85X100.854Y-107.237
G05
X100.789Y-92.757G85X104.469Y-93.743
G05
X101.063Y-165.127G85X104.744Y-166.113
G05
X102.087Y-87.881G85X105.767Y-88.868
G05
X104.679Y-151.633G85X108.359Y-152.619
G05
X105.702Y-74.387G85X109.383Y-75.374
G05
X105.995Y-146.733G85X109.675Y-147.719
G05
X109.61Y-133.239G85X113.291Y-134.225
G05
X110.9Y-128.324G85X114.58Y-129.31
G05
X114.516Y-114.83G85X118.196Y-115.816
G05
X115.878Y-109.904G85X119.558Y-110.89
G05
X119.156Y-171.39G85X122.837Y-172.376
G05
X119.493Y-96.41G85X123.173Y-97.396
G05
X120.859Y-91.487G85X124.539Y-92.473
G05
X122.772Y-157.896G85X126.452Y-158.882
G05
X124.096Y-153.02G85X127.776Y-154.007
G05
X124.475Y-77.993G85X128.155Y-78.979
G05
X127.712Y-139.526G85X131.392Y-140.513
G05
X129.051Y-134.555G85X132.731Y-135.541
G05
X132.666Y-121.061G85X136.347Y-122.047
G05
X133.954Y-116.137G85X137.634Y-117.123
G05
X137.569Y-102.643G85X141.25Y-103.629
G05
X138.884Y-97.741G85X142.564Y-98.727
G05
X141.838Y-160.152G85X145.518Y-161.138
G05
X142.5Y-84.247G85X146.18Y-85.233
G05
X145.454Y-146.658G85X149.134Y-147.644
G05
X146.765Y-141.785G85X150.445Y-142.771
G05
X148.33Y-183.207G85X152.107Y-183.704
G05
X150.153Y-169.356G85X153.93Y-169.853
G05
X150.381Y-128.291G85X154.061Y-129.277
G05
X151.647Y-123.435G85X155.327Y-124.421
G05
X155.263Y-109.941G85X158.943Y-110.927
G05
X156.624Y-104.989G85X160.304Y-105.975
G05
X160.24Y-91.495G85X163.92Y-92.481
G05
X179.575Y-132.713G85X183.385Y-132.713
G05
X179.575Y-146.683G85X183.385Y-146.683
G05
X179.575Y-94.684G85X183.385Y-94.684
G05
X179.575Y-108.654G85X183.385Y-108.654
G05
X179.577Y-113.702G85X183.387Y-113.702
G05
X179.577Y-127.672G85X183.387Y-127.672
G05
X179.585Y-151.735G85X183.395Y-151.735
G05
X179.585Y-165.705G85X183.395Y-165.705
G05
X179.599Y-170.737G85X183.409Y-170.737
G05
X179.599Y-184.707G85X183.409Y-184.707
G05
X198.559Y-94.685G85X202.369Y-94.685
G05
X198.559Y-108.655G85X202.369Y-108.655
G05
X198.564Y-113.703G85X202.374Y-113.703
G05
X198.564Y-127.673G85X202.374Y-127.673
G05
X198.576Y-132.704G85X202.386Y-132.704
G05
X198.576Y-146.674G85X202.386Y-146.674
G05
X198.576Y-151.735G85X202.386Y-151.735
G05
X198.576Y-165.705G85X202.386Y-165.705
G05
X198.589Y-170.728G85X202.399Y-170.728
G05
X198.589Y-184.698G85X202.399Y-184.698
G05
X217.553Y-132.693G85X221.363Y-132.693
G05
X217.553Y-146.663G85X221.363Y-146.663
G05
X217.554Y-113.703G85X221.364Y-113.703
G05
X217.554Y-127.673G85X221.364Y-127.673
G05
X217.563Y-94.685G85X221.373Y-94.685
G05
X217.563Y-108.655G85X221.373Y-108.655
G05
X217.57Y-151.719G85X221.38Y-151.719
G05
X217.57Y-165.689G85X221.38Y-165.689
G05
X217.595Y-170.708G85X221.405Y-170.708
G05
X217.595Y-184.678G85X221.405Y-184.678
G05
X236.535Y-113.703G85X240.345Y-113.703
G05
X236.535Y-127.673G85X240.345Y-127.673
G05
X236.55Y-132.7G85X240.36Y-132.7
G05
X236.55Y-146.67G85X240.36Y-146.67
G05
X236.552Y-94.685G85X240.362Y-94.685
G05
X236.552Y-108.655G85X240.362Y-108.655
G05
X236.558Y-170.698G85X240.368Y-170.698
G05
X236.558Y-184.668G85X240.368Y-184.668
G05
X236.562Y-151.716G85X240.372Y-151.716
G05
X236.562Y-165.686G85X240.372Y-165.686
G05
X255.895Y-92.525G85X259.575Y-91.539
G05
X259.511Y-106.019G85X263.191Y-105.033
G05
X260.804Y-110.996G85X264.485Y-110.009
G05
X264.42Y-124.49G85X268.1Y-123.503
G05
X265.732Y-129.363G85X269.412Y-128.377
G05
X265.805Y-169.853G85X269.582Y-169.356
G05
X267.628Y-183.704G85X271.405Y-183.207
G05
X269.348Y-142.857G85X273.028Y-141.871
G05
X270.669Y-147.719G85X274.349Y-146.733
G05
X273.615Y-85.297G85X277.295Y-84.311
G05
X274.284Y-161.213G85X277.964Y-160.227
G05
X277.231Y-98.791G85X280.911Y-97.805
G05
X278.556Y-103.78G85X282.237Y-102.794
G05
X282.172Y-117.274G85X285.852Y-116.288
G05
X283.487Y-122.15G85X287.167Y-121.164
G05
X287.102Y-135.644G85X290.782Y-134.658
G05
X288.414Y-140.564G85X292.094Y-139.578
G05
X291.651Y-79.044G85X295.331Y-78.058
G05
X292.03Y-154.058G85X295.71Y-153.072
G05
X293.333Y-158.961G85X297.013Y-157.975
G05
X295.267Y-92.538G85X298.947Y-91.552
G05
X296.664Y-97.482G85X300.344Y-96.496
G05
X296.949Y-172.455G85X300.629Y-171.469
G05
X300.28Y-110.976G85X303.96Y-109.99
G05
X301.607Y-115.96G85X305.287Y-114.974
G05
X305.223Y-129.454G85X308.903Y-128.468
G05
X306.536Y-134.293G85X310.216Y-133.307
G05
X310.152Y-147.787G85X313.832Y-146.801
G05
X310.436Y-75.462G85X314.116Y-74.476
G05
X311.451Y-152.669G85X315.131Y-151.682
G05
X314.052Y-88.956G85X317.732Y-87.97
G05
X315.066Y-166.163G85X318.746Y-165.176
G05
X315.357Y-93.807G85X319.037Y-92.821
G05
X318.972Y-107.301G85X322.653Y-106.315
G05
X320.274Y-112.271G85X323.954Y-111.285
G05
X323.889Y-125.765G85X327.57Y-124.779
G05
X325.234Y-130.708G85X328.914Y-129.722
G05
X328.85Y-144.202G85X332.53Y-143.216
G05
X330.135Y-75.13G85X333.815Y-74.144
G05
X330.171Y-149.115G85X333.851Y-148.129
G05
X333.751Y-88.624G85X337.431Y-87.638
G05
X333.787Y-162.609G85X337.467Y-161.623
G05
X335.029Y-93.412G85X338.71Y-92.426
G05
X338.645Y-106.906G85X342.325Y-105.92
G05
X339.981Y-111.965G85X343.661Y-110.978
G05
X343.597Y-125.459G85X347.277Y-124.472
G05
X344.906Y-130.324G85X348.586Y-129.338
G05
X348.522Y-143.818G85X352.202Y-142.832
G05
X348.87Y-71.678G85X352.55Y-70.692
G05
X349.852Y-148.719G85X353.532Y-147.733
G05
X352.486Y-85.172G85X356.166Y-84.186
G05
X353.468Y-162.213G85X357.148Y-161.227
G05
X353.778Y-89.947G85X357.458Y-88.961
G05
X357.394Y-103.441G85X361.074Y-102.455
G05
X358.734Y-108.471G85X362.415Y-107.485
G05
X362.35Y-121.965G85X366.03Y-120.979
G05
X363.681Y-126.819G85X367.361Y-125.832
G05
X366.932Y-65.286G85X370.612Y-64.3
G05
X367.297Y-140.313G85X370.977Y-139.326
G05
X368.614Y-145.249G85X372.294Y-144.263
G05
X370.547Y-78.78G85X374.227Y-77.794
G05
X371.81Y-83.557G85X375.49Y-82.571
G05
X372.23Y-158.743G85X375.91Y-157.757
G05
X375.425Y-97.051G85X379.106Y-96.065
G05
X376.769Y-102.126G85X380.45Y-101.14
G05
X380.385Y-115.62G85X384.065Y-114.634
G05
X381.697Y-120.438G85X385.377Y-119.452
G05
X385.312Y-133.932G85X388.993Y-132.946
G05
X386.632Y-138.852G85X390.313Y-137.866
G05
X390.248Y-152.346G85X393.928Y-151.36
G05
T0
M30
