G04 #@! TF.GenerationSoftware,KiCad,Pcbnew,(5.1.10)-1*
G04 #@! TF.CreationDate,2021-10-09T22:27:19+01:00*
G04 #@! TF.ProjectId,superlyra-hs-backplate,73757065-726c-4797-9261-2d68732d6261,0.1*
G04 #@! TF.SameCoordinates,Original*
G04 #@! TF.FileFunction,Soldermask,Bot*
G04 #@! TF.FilePolarity,Negative*
%FSLAX46Y46*%
G04 Gerber Fmt 4.6, Leading zero omitted, Abs format (unit mm)*
G04 Created by KiCad (PCBNEW (5.1.10)-1) date 2021-10-09 22:27:19*
%MOMM*%
%LPD*%
G01*
G04 APERTURE LIST*
%ADD10C,0.100000*%
%ADD11C,1.752600*%
%ADD12C,3.500000*%
G04 APERTURE END LIST*
D10*
G04 #@! TO.C,H25*
G36*
X199492190Y-149610904D02*
G01*
X199491252Y-149610619D01*
X199490387Y-149610157D01*
X199489619Y-149609525D01*
X195449103Y-145545171D01*
X191408588Y-141480818D01*
X191407968Y-141480059D01*
X191407509Y-141479193D01*
X191407227Y-141478254D01*
X191407134Y-141477278D01*
X191407233Y-141476303D01*
X191407520Y-141475366D01*
X191407985Y-141474503D01*
X191408589Y-141473767D01*
X195585698Y-137274845D01*
X199759289Y-133079462D01*
X191637144Y-124969217D01*
X191637136Y-124969209D01*
X190430943Y-123759027D01*
X190430917Y-123759001D01*
X188212731Y-121501102D01*
X188212693Y-121501063D01*
X186309341Y-119521058D01*
X186309290Y-119521003D01*
X184823083Y-117927596D01*
X184822986Y-117927490D01*
X183856234Y-116829390D01*
X183855887Y-116828948D01*
X183510900Y-116334861D01*
X183510421Y-116334007D01*
X183510117Y-116333075D01*
X183510001Y-116332101D01*
X183510077Y-116331124D01*
X183510342Y-116330181D01*
X183510600Y-116329625D01*
X183601089Y-116161891D01*
X183601635Y-116161079D01*
X184274039Y-115347791D01*
X184274199Y-115347608D01*
X185516638Y-113985261D01*
X185516705Y-113985189D01*
X187226897Y-112182456D01*
X187226939Y-112182411D01*
X189302601Y-110047965D01*
X189302636Y-110047930D01*
X191641486Y-107690446D01*
X191641503Y-107690429D01*
X199767941Y-99575898D01*
X195705558Y-95642364D01*
X195705526Y-95642333D01*
X194290273Y-94247077D01*
X194290197Y-94247000D01*
X192916723Y-92833489D01*
X192916600Y-92833358D01*
X191983415Y-91801215D01*
X191983026Y-91800727D01*
X191638902Y-91308500D01*
X191638422Y-91307645D01*
X191638118Y-91306714D01*
X191638001Y-91305740D01*
X191638077Y-91304763D01*
X191638341Y-91303819D01*
X191638859Y-91302834D01*
X191940181Y-90857380D01*
X191940571Y-90856875D01*
X192834870Y-89842080D01*
X192834992Y-89841947D01*
X194179578Y-88422983D01*
X194179654Y-88422904D01*
X195830447Y-86756059D01*
X195830482Y-86756024D01*
X200021482Y-82606033D01*
X200022243Y-82605415D01*
X200023109Y-82604957D01*
X200024049Y-82604677D01*
X200025025Y-82604586D01*
X200026000Y-82604687D01*
X200026936Y-82604976D01*
X200027798Y-82605442D01*
X200028483Y-82605999D01*
X208629621Y-90957995D01*
X217230758Y-99309991D01*
X217231391Y-99310739D01*
X217231866Y-99311597D01*
X217232164Y-99312531D01*
X217232274Y-99313505D01*
X217232193Y-99314481D01*
X217231922Y-99315423D01*
X217231473Y-99316294D01*
X217230873Y-99317050D01*
X212696438Y-104016261D01*
X212696435Y-104016264D01*
X211037353Y-105732572D01*
X211037348Y-105732578D01*
X208677264Y-108166524D01*
X208677258Y-108166529D01*
X206376759Y-110531838D01*
X206376752Y-110531845D01*
X204458185Y-112496693D01*
X204458180Y-112496699D01*
X200757838Y-116274374D01*
X204952236Y-120490674D01*
X209148648Y-124709000D01*
X217841274Y-124709000D01*
X220458101Y-124718149D01*
X220458174Y-124718150D01*
X223196937Y-124767605D01*
X223197107Y-124767611D01*
X225269934Y-124875609D01*
X225270243Y-124875634D01*
X226876779Y-125059590D01*
X226877223Y-125059662D01*
X228217116Y-125336989D01*
X228217561Y-125337102D01*
X229490458Y-125725217D01*
X229490635Y-125725275D01*
X230102591Y-125937092D01*
X231729053Y-126471647D01*
X232792362Y-126637164D01*
X233412272Y-126306585D01*
X233711858Y-125349331D01*
X233808753Y-123633506D01*
X233821602Y-121030975D01*
X233841203Y-115315983D01*
X233841302Y-115315008D01*
X233841590Y-115314071D01*
X233842055Y-115313208D01*
X233842661Y-115312471D01*
X241925123Y-107200599D01*
X241925880Y-107199976D01*
X241926743Y-107199512D01*
X241927681Y-107199226D01*
X241928656Y-107199128D01*
X241929632Y-107199222D01*
X241930570Y-107199505D01*
X241931435Y-107199966D01*
X241932191Y-107200583D01*
X246137627Y-111384173D01*
X250339516Y-115564235D01*
X254379771Y-111500144D01*
X254379813Y-111500103D01*
X255852436Y-110053155D01*
X255852536Y-110053058D01*
X257280475Y-108726177D01*
X257280651Y-108726021D01*
X258318311Y-107848989D01*
X258319012Y-107848494D01*
X258808531Y-107561702D01*
X258809421Y-107561292D01*
X258810374Y-107561063D01*
X258811353Y-107561025D01*
X258812321Y-107561178D01*
X258813241Y-107561518D01*
X258814088Y-107562039D01*
X259207874Y-107862006D01*
X259208183Y-107862262D01*
X260197512Y-108750032D01*
X260197600Y-108750112D01*
X261604986Y-110074790D01*
X261605038Y-110074840D01*
X263268489Y-111686435D01*
X263268512Y-111686457D01*
X267338502Y-115680483D01*
X267339131Y-115681235D01*
X267339601Y-115682095D01*
X267339895Y-115683030D01*
X267340000Y-115684052D01*
X267340000Y-131593758D01*
X265297998Y-131593758D01*
X265290222Y-124471938D01*
X265286651Y-123620806D01*
X265243477Y-121097678D01*
X265159549Y-118991351D01*
X265044846Y-117501801D01*
X264909558Y-116829549D01*
X264852790Y-116758188D01*
X264190145Y-116061319D01*
X263034468Y-114927120D01*
X261595623Y-113562518D01*
X258657235Y-110817962D01*
X254986642Y-114464057D01*
X254986576Y-114464121D01*
X253936145Y-115470178D01*
X253935965Y-115470343D01*
X252362006Y-116836718D01*
X252361686Y-116836973D01*
X251091123Y-117769217D01*
X251090206Y-117769750D01*
X250319041Y-118114564D01*
X250318111Y-118114875D01*
X250317139Y-118114998D01*
X250316161Y-118114929D01*
X250315398Y-118114737D01*
X249896706Y-117973157D01*
X249895548Y-117972589D01*
X248785745Y-117237974D01*
X248785324Y-117237662D01*
X247298146Y-116011121D01*
X247297907Y-116010911D01*
X245628134Y-114444958D01*
X245628030Y-114444858D01*
X241938209Y-110779663D01*
X238892125Y-113793962D01*
X235844000Y-116810281D01*
X235844000Y-122437516D01*
X235841279Y-123149569D01*
X235841277Y-123149703D01*
X235755718Y-125949800D01*
X235755690Y-125950192D01*
X235552380Y-127802882D01*
X235552109Y-127804047D01*
X235234100Y-128678109D01*
X235233676Y-128678992D01*
X235233088Y-128679776D01*
X235232177Y-128680557D01*
X234682732Y-129047405D01*
X234681868Y-129047867D01*
X234680670Y-129048196D01*
X233286450Y-129249359D01*
X233285471Y-129249403D01*
X233284921Y-129249343D01*
X231230597Y-128909974D01*
X231229903Y-128909808D01*
X228421267Y-128020766D01*
X228421098Y-128020709D01*
X227817666Y-127805711D01*
X226516047Y-127392356D01*
X225244450Y-127103200D01*
X223793606Y-126916340D01*
X221954186Y-126809913D01*
X219517091Y-126762085D01*
X216273151Y-126751000D01*
X207624934Y-126751000D01*
X207623959Y-126750904D01*
X207623021Y-126750619D01*
X207622156Y-126750157D01*
X207621391Y-126749528D01*
X202887599Y-121995970D01*
X202887598Y-121995969D01*
X202822451Y-121930508D01*
X202822396Y-121930452D01*
X200691998Y-119721991D01*
X200691819Y-119721795D01*
X199274095Y-118086158D01*
X199273723Y-118085672D01*
X198505855Y-116943261D01*
X198505391Y-116942398D01*
X198505152Y-116941676D01*
X198324322Y-116212889D01*
X198324180Y-116211919D01*
X198324231Y-116210940D01*
X198324492Y-116209932D01*
X198372417Y-116081890D01*
X198372985Y-116080803D01*
X198960820Y-115229056D01*
X198961077Y-115228716D01*
X200124773Y-113817058D01*
X200124883Y-113816929D01*
X201756351Y-111968775D01*
X201756422Y-111968696D01*
X203747575Y-109807462D01*
X203747634Y-109807399D01*
X205990382Y-107456500D01*
X205990406Y-107456474D01*
X206750102Y-106671206D01*
X206750103Y-106671207D01*
X208897212Y-104427690D01*
X210747856Y-102458554D01*
X212198317Y-100876374D01*
X213144534Y-99794108D01*
X213480811Y-99327140D01*
X213189029Y-98932317D01*
X212262039Y-97940666D01*
X210816595Y-96482836D01*
X208970439Y-94677396D01*
X206841448Y-92643027D01*
X204877814Y-90786426D01*
X202981748Y-88993273D01*
X202981747Y-88993272D01*
X201463167Y-87556641D01*
X201463166Y-87556640D01*
X200442361Y-86590329D01*
X200442356Y-86590325D01*
X200040655Y-86209121D01*
X200024050Y-86205745D01*
X199533293Y-86556279D01*
X198552357Y-87447992D01*
X197269543Y-88711503D01*
X194655863Y-91366735D01*
X198229209Y-94638706D01*
X198229227Y-94638723D01*
X199653346Y-95955733D01*
X199653541Y-95955924D01*
X200851060Y-97191087D01*
X200851622Y-97191782D01*
X201582884Y-98281906D01*
X201583348Y-98282769D01*
X201583621Y-98283642D01*
X201813050Y-99352523D01*
X201813160Y-99353497D01*
X201812997Y-99354843D01*
X201505020Y-100526280D01*
X201504679Y-100527199D01*
X201504414Y-100527675D01*
X200623455Y-101925467D01*
X200623031Y-101926044D01*
X199133516Y-103673989D01*
X199133316Y-103674209D01*
X196999670Y-105896105D01*
X196999603Y-105896174D01*
X194186252Y-108715818D01*
X194186246Y-108715824D01*
X186569497Y-116319876D01*
X194440251Y-124202179D01*
X194440280Y-124202208D01*
X197042158Y-126850777D01*
X197042228Y-126850850D01*
X199252871Y-129194087D01*
X199252974Y-129194199D01*
X200911273Y-131062693D01*
X200911459Y-131062916D01*
X201953389Y-132384432D01*
X201953909Y-132385239D01*
X202315446Y-133087541D01*
X202315807Y-133088453D01*
X202315983Y-133089417D01*
X202315968Y-133090397D01*
X202315753Y-133091384D01*
X202183548Y-133495810D01*
X202182977Y-133496997D01*
X201456932Y-134604657D01*
X201456611Y-134605093D01*
X200227947Y-136097888D01*
X200227733Y-136098131D01*
X198645959Y-137784866D01*
X198645859Y-137784970D01*
X194980664Y-141474791D01*
X197994963Y-144520875D01*
X201011282Y-147569000D01*
X262462329Y-147569000D01*
X259821089Y-144894538D01*
X259821076Y-144894524D01*
X259437487Y-144503018D01*
X259437330Y-144502851D01*
X258102640Y-143009460D01*
X258102044Y-143008638D01*
X257383145Y-141770021D01*
X257382738Y-141769129D01*
X257382479Y-141767829D01*
X257307832Y-140597747D01*
X257307866Y-140596768D01*
X257308090Y-140595814D01*
X257308287Y-140595323D01*
X257906352Y-139307536D01*
X257907014Y-139306480D01*
X259206253Y-137714750D01*
X259206545Y-137714422D01*
X261235419Y-135632510D01*
X261235475Y-135632454D01*
X265297998Y-131593758D01*
X267340000Y-131593758D01*
X267340000Y-133073522D01*
X267339904Y-133074497D01*
X267339619Y-133075435D01*
X267339157Y-133076300D01*
X267338546Y-133077047D01*
X259491886Y-140970000D01*
X263413464Y-144914713D01*
X263413493Y-144914742D01*
X264743395Y-146274468D01*
X264743463Y-146274539D01*
X266087140Y-147703817D01*
X266087253Y-147703941D01*
X267001358Y-148743987D01*
X267001717Y-148744448D01*
X267339115Y-149233398D01*
X267339590Y-149234256D01*
X267339889Y-149235189D01*
X267339999Y-149236163D01*
X267339918Y-149237140D01*
X267339648Y-149238082D01*
X267339198Y-149238953D01*
X267338588Y-149239720D01*
X267337840Y-149240353D01*
X267336982Y-149240828D01*
X267336243Y-149241081D01*
X267213728Y-149272535D01*
X267212802Y-149272682D01*
X266247073Y-149334007D01*
X266246911Y-149334015D01*
X264389567Y-149391524D01*
X264389511Y-149391525D01*
X261723782Y-149444309D01*
X261723753Y-149444310D01*
X258332868Y-149491463D01*
X258332848Y-149491463D01*
X254300038Y-149532076D01*
X254300024Y-149532076D01*
X249708517Y-149565244D01*
X249708505Y-149565244D01*
X244641532Y-149590059D01*
X244641522Y-149590059D01*
X239182313Y-149605613D01*
X239182304Y-149605613D01*
X233414088Y-149611000D01*
X199493165Y-149611000D01*
X199492190Y-149610904D01*
G37*
G36*
X281865641Y-170650782D02*
G01*
X281864343Y-170650603D01*
X279090978Y-169888530D01*
X279089829Y-169888054D01*
X276609543Y-168475450D01*
X276608415Y-168474573D01*
X274714692Y-166508041D01*
X274714067Y-166507243D01*
X274337649Y-165911409D01*
X274337236Y-165910601D01*
X273627884Y-164142904D01*
X273627545Y-164141505D01*
X273426021Y-161973515D01*
X273426001Y-161972957D01*
X273433783Y-161561389D01*
X273433861Y-161560601D01*
X273817679Y-159421820D01*
X273817945Y-159420877D01*
X273818286Y-159420176D01*
X274864429Y-157634173D01*
X274865005Y-157633380D01*
X274865473Y-157632918D01*
X276690723Y-156054698D01*
X276691560Y-156054112D01*
X279412696Y-154538675D01*
X279412962Y-154538537D01*
X279549756Y-154472749D01*
X281822397Y-153178653D01*
X283109296Y-151959969D01*
X283435612Y-150783136D01*
X282826926Y-149611321D01*
X282005588Y-148962116D01*
X280362429Y-148557791D01*
X278592953Y-148959081D01*
X276967599Y-150142093D01*
X275521567Y-151690076D01*
X275520831Y-151690723D01*
X275519983Y-151691215D01*
X275519055Y-151691531D01*
X275518083Y-151691660D01*
X275517105Y-151691597D01*
X275516158Y-151691345D01*
X275515641Y-151691117D01*
X273456185Y-150640461D01*
X273456044Y-150640386D01*
X272857763Y-150310726D01*
X272857301Y-150310438D01*
X271810466Y-149574902D01*
X271809724Y-149574263D01*
X271809347Y-149573820D01*
X271395006Y-149023842D01*
X271394496Y-149023005D01*
X271394159Y-149022084D01*
X271394008Y-149021116D01*
X271394049Y-149020137D01*
X271394280Y-149019184D01*
X271394484Y-149018686D01*
X271621806Y-148540618D01*
X271622373Y-148539698D01*
X272409778Y-147525820D01*
X272410065Y-147525482D01*
X273566087Y-146282162D01*
X273566389Y-146281864D01*
X274871640Y-145097417D01*
X274872424Y-145096835D01*
X276358228Y-144203530D01*
X276359546Y-144202976D01*
X278049610Y-143763518D01*
X278050392Y-143763380D01*
X279241000Y-143649623D01*
X279241919Y-143649620D01*
X281976746Y-143892666D01*
X281978006Y-143892945D01*
X284398647Y-144769597D01*
X284399773Y-144770175D01*
X286411440Y-146150448D01*
X286412402Y-146151311D01*
X287920306Y-147905218D01*
X287921066Y-147906406D01*
X288830417Y-149903960D01*
X288830733Y-149904888D01*
X288830840Y-149905523D01*
X289046850Y-152016736D01*
X289046854Y-152017716D01*
X289046699Y-152018562D01*
X288474579Y-154113450D01*
X288474230Y-154114366D01*
X288473762Y-154115125D01*
X287018721Y-156063699D01*
X287018029Y-156064451D01*
X286563792Y-156466430D01*
X286563440Y-156466714D01*
X284865119Y-157715518D01*
X284864686Y-157715804D01*
X283085529Y-158758740D01*
X283085310Y-158758860D01*
X281821682Y-159417187D01*
X280172927Y-160496337D01*
X279287751Y-161513442D01*
X279024149Y-162601844D01*
X279231340Y-163429592D01*
X280178182Y-164613815D01*
X281607348Y-165505120D01*
X283202779Y-165856983D01*
X283292617Y-165854248D01*
X284639992Y-165410386D01*
X286145155Y-164401064D01*
X287462131Y-163104413D01*
X288245201Y-161798692D01*
X288265206Y-161742437D01*
X288265623Y-161741550D01*
X288266499Y-161740463D01*
X288597697Y-161430184D01*
X288598474Y-161429587D01*
X288599353Y-161429154D01*
X288600300Y-161428900D01*
X288601278Y-161428836D01*
X288602543Y-161429041D01*
X289310460Y-161640022D01*
X289311634Y-161640545D01*
X290605069Y-162428902D01*
X290605487Y-162429186D01*
X291844802Y-163368520D01*
X291845522Y-163369186D01*
X291846084Y-163369956D01*
X292382752Y-164275679D01*
X292383166Y-164276567D01*
X292383400Y-164277519D01*
X292383443Y-164278499D01*
X292383312Y-164279394D01*
X292127604Y-165345217D01*
X292127283Y-165346144D01*
X292126880Y-165346858D01*
X291109989Y-166846061D01*
X291109723Y-166846417D01*
X290702803Y-167344630D01*
X290702206Y-167345245D01*
X288775843Y-169015269D01*
X288774751Y-169015989D01*
X286173105Y-170278801D01*
X286172145Y-170279151D01*
X284639847Y-170665569D01*
X284638597Y-170665721D01*
X281865641Y-170650782D01*
G37*
G36*
X264575790Y-170413419D02*
G01*
X264574846Y-170413215D01*
X262228252Y-169663717D01*
X262227527Y-169663421D01*
X262088529Y-169593520D01*
X261115367Y-169252091D01*
X260733950Y-169409146D01*
X260566022Y-169594897D01*
X260565297Y-169595556D01*
X260564456Y-169596061D01*
X260563582Y-169596380D01*
X259647666Y-169836779D01*
X259646722Y-169836932D01*
X258201004Y-169930989D01*
X258200731Y-169931000D01*
X257894785Y-169934202D01*
X257044633Y-169954512D01*
X257044003Y-169954487D01*
X256412335Y-169889610D01*
X256411375Y-169889415D01*
X256410289Y-169888933D01*
X255938987Y-169608414D01*
X255938198Y-169607832D01*
X255937537Y-169607108D01*
X255937236Y-169606655D01*
X255568160Y-168980039D01*
X255567672Y-168978914D01*
X255242681Y-167875748D01*
X255242572Y-167875307D01*
X254903527Y-166165138D01*
X254903501Y-166164994D01*
X254492261Y-163717366D01*
X254492257Y-163717344D01*
X253950683Y-160401806D01*
X253950684Y-160401806D01*
X252755715Y-153162814D01*
X252755651Y-153161836D01*
X252755779Y-153160864D01*
X252756094Y-153159936D01*
X252756584Y-153159088D01*
X252757230Y-153158351D01*
X252758008Y-153157754D01*
X252758887Y-153157320D01*
X252759834Y-153157067D01*
X252760648Y-153157000D01*
X255187570Y-153157000D01*
X255738383Y-153154703D01*
X255738599Y-153154707D01*
X256671160Y-153191149D01*
X256672131Y-153191283D01*
X256672620Y-153191427D01*
X257316216Y-153417243D01*
X257317105Y-153417657D01*
X257317896Y-153418236D01*
X257318502Y-153418884D01*
X257768982Y-153995806D01*
X257769507Y-153996634D01*
X257769797Y-153997341D01*
X258123007Y-155087097D01*
X258123154Y-155087661D01*
X258474944Y-156851981D01*
X258474969Y-156852113D01*
X258921187Y-159452728D01*
X258921187Y-159452731D01*
X258924799Y-159473838D01*
X259489691Y-162325990D01*
X260095919Y-164302113D01*
X260824511Y-165540888D01*
X261756518Y-166181957D01*
X262974389Y-166364949D01*
X264225581Y-166191040D01*
X264996021Y-165548524D01*
X265016124Y-165472373D01*
X265023425Y-164519761D01*
X264875366Y-162866598D01*
X264606832Y-160764426D01*
X264252768Y-158464675D01*
X263848113Y-156218594D01*
X263427786Y-154277350D01*
X263427748Y-154277153D01*
X263322514Y-153675044D01*
X263322440Y-153674066D01*
X263322559Y-153673093D01*
X263323069Y-153671754D01*
X263528666Y-153301932D01*
X263529224Y-153301126D01*
X263529928Y-153300444D01*
X263530752Y-153299913D01*
X263531664Y-153299553D01*
X263532350Y-153299408D01*
X264303321Y-153192627D01*
X264304208Y-153192584D01*
X265864444Y-153255296D01*
X265864529Y-153255300D01*
X268582325Y-153411008D01*
X268583293Y-153411160D01*
X268584214Y-153411498D01*
X268585050Y-153412008D01*
X268585771Y-153412672D01*
X268586348Y-153413464D01*
X268586760Y-153414354D01*
X268586967Y-153415157D01*
X269455873Y-158495157D01*
X269455874Y-158495162D01*
X269547167Y-159031871D01*
X269547176Y-159031926D01*
X270029953Y-162076320D01*
X270029982Y-162076532D01*
X270289106Y-164329778D01*
X270289138Y-164330269D01*
X270315307Y-165968230D01*
X270315229Y-165969197D01*
X270099143Y-167167731D01*
X270098694Y-167169081D01*
X269631051Y-168104050D01*
X269630370Y-168105073D01*
X268901868Y-168952336D01*
X268901522Y-168952699D01*
X268701037Y-169143344D01*
X268700070Y-169144064D01*
X266790357Y-170233802D01*
X266789462Y-170234202D01*
X266788282Y-170234443D01*
X264576770Y-170413436D01*
X264575790Y-170413419D01*
G37*
G36*
X250350654Y-178059613D02*
G01*
X249251456Y-178037934D01*
X249250349Y-178037787D01*
X248503055Y-177851976D01*
X248502131Y-177851648D01*
X248501289Y-177851145D01*
X248500662Y-177850595D01*
X248001446Y-177333049D01*
X248000838Y-177332280D01*
X248000324Y-177331226D01*
X247645360Y-176314344D01*
X247645166Y-176313614D01*
X247330630Y-174629793D01*
X247330600Y-174629617D01*
X246952663Y-172111255D01*
X246952662Y-172111247D01*
X246335393Y-167954616D01*
X244863255Y-169193339D01*
X244862757Y-169193708D01*
X243992918Y-169757917D01*
X243991624Y-169758514D01*
X241901811Y-170380882D01*
X241900379Y-170381090D01*
X239590876Y-170378557D01*
X239589900Y-170378460D01*
X239589406Y-170378335D01*
X237463298Y-169722130D01*
X237462395Y-169721750D01*
X237461962Y-169721487D01*
X235631244Y-168477126D01*
X235630294Y-168476285D01*
X233586425Y-166142724D01*
X233585669Y-166141574D01*
X232249292Y-163325550D01*
X232248870Y-163324182D01*
X231770061Y-160274775D01*
X231770006Y-160273744D01*
X231834962Y-158999588D01*
X231835109Y-158998617D01*
X232508132Y-156338481D01*
X232508464Y-156337559D01*
X232508836Y-156336907D01*
X233857951Y-154340866D01*
X233858577Y-154340112D01*
X233859398Y-154339455D01*
X235817583Y-153085517D01*
X235818456Y-153085072D01*
X235819424Y-153084802D01*
X238319654Y-152650972D01*
X238321085Y-152650931D01*
X240299525Y-152880543D01*
X240300750Y-152880846D01*
X242317801Y-153659768D01*
X242318462Y-153660080D01*
X243215557Y-154167595D01*
X243810352Y-154313223D01*
X243962305Y-153914810D01*
X244085021Y-153562236D01*
X244085432Y-153561347D01*
X244086009Y-153560554D01*
X244086730Y-153559890D01*
X244087799Y-153559273D01*
X244824274Y-153248506D01*
X244825210Y-153248216D01*
X244825926Y-153248122D01*
X246385207Y-153157009D01*
X246385499Y-153157000D01*
X248803998Y-153157000D01*
X248804973Y-153157096D01*
X248805911Y-153157381D01*
X248806776Y-153157843D01*
X248807534Y-153158464D01*
X248808155Y-153159222D01*
X248808617Y-153160087D01*
X248808929Y-153161173D01*
X250309642Y-162107088D01*
X250309833Y-162108227D01*
X245036895Y-162108227D01*
X244572336Y-160337673D01*
X243533293Y-158773095D01*
X242043068Y-157656923D01*
X240224808Y-157231117D01*
X238711036Y-157537705D01*
X237521228Y-158511566D01*
X236931454Y-159949903D01*
X236973090Y-161643561D01*
X237677687Y-163382792D01*
X239076768Y-164957903D01*
X239569363Y-165287761D01*
X241196162Y-165786773D01*
X242860138Y-165666350D01*
X244138668Y-164929303D01*
X244804048Y-163842496D01*
X245036895Y-162108227D01*
X250309833Y-162108227D01*
X250747661Y-164718170D01*
X251052183Y-166526224D01*
X251598341Y-169731977D01*
X252086882Y-172553050D01*
X252490663Y-174835031D01*
X252782531Y-176423452D01*
X252935350Y-177163937D01*
X252979575Y-177359365D01*
X252979696Y-177360338D01*
X252979626Y-177361316D01*
X252979507Y-177361839D01*
X252853763Y-177803153D01*
X252853403Y-177804065D01*
X252852872Y-177804889D01*
X252852191Y-177805594D01*
X252851385Y-177806152D01*
X252850336Y-177806588D01*
X252144108Y-178009755D01*
X252142889Y-178009947D01*
X250639629Y-178058997D01*
X250639477Y-178059000D01*
X250350764Y-178059614D01*
X250350654Y-178059613D01*
G37*
G36*
X220619901Y-170360054D02*
G01*
X217952179Y-169847339D01*
X217950987Y-169846950D01*
X215697630Y-168782495D01*
X215696813Y-168782009D01*
X215169535Y-168396075D01*
X215169236Y-168395838D01*
X213908231Y-167316000D01*
X213907728Y-167315503D01*
X213109347Y-166407191D01*
X213108828Y-166406484D01*
X213030302Y-166277095D01*
X213029873Y-166276198D01*
X212803657Y-165649268D01*
X212803416Y-165648318D01*
X212803365Y-165647339D01*
X212803507Y-165646369D01*
X212803834Y-165645445D01*
X212804336Y-165644603D01*
X212804764Y-165644097D01*
X213203645Y-165231150D01*
X213204392Y-165230515D01*
X213205590Y-165229904D01*
X214411643Y-164808138D01*
X214412147Y-164807991D01*
X215649232Y-164516415D01*
X215650203Y-164516285D01*
X215650854Y-164516305D01*
X216774137Y-164623395D01*
X216775098Y-164623583D01*
X216775937Y-164623920D01*
X218091467Y-165296243D01*
X218091532Y-165296276D01*
X218990694Y-165772432D01*
X220962069Y-166324222D01*
X222660444Y-166145003D01*
X223868548Y-165237452D01*
X223983786Y-165071506D01*
X224525030Y-164173183D01*
X224624156Y-163553400D01*
X224170147Y-163158342D01*
X223043165Y-162936564D01*
X221128721Y-162840049D01*
X218312972Y-162819000D01*
X216357945Y-162822683D01*
X216357869Y-162822683D01*
X214252633Y-162794592D01*
X214252126Y-162794559D01*
X212900784Y-162638292D01*
X212899826Y-162638084D01*
X212899089Y-162637781D01*
X212146454Y-162254514D01*
X212145628Y-162253985D01*
X212144922Y-162253306D01*
X212144361Y-162252502D01*
X212144140Y-162252056D01*
X211835022Y-161542963D01*
X211834720Y-161542030D01*
X211834606Y-161541057D01*
X211813817Y-160407313D01*
X211813827Y-160406883D01*
X211926177Y-158749662D01*
X211926190Y-158749511D01*
X211970656Y-158296665D01*
X211970889Y-158295570D01*
X212739193Y-155994618D01*
X212739593Y-155993724D01*
X212740166Y-155992918D01*
X214291271Y-154212225D01*
X214291984Y-154211552D01*
X214292726Y-154211077D01*
X216494797Y-153060892D01*
X216495706Y-153060526D01*
X216496368Y-153060380D01*
X219217573Y-152650954D01*
X219218493Y-152650901D01*
X220113650Y-152682367D01*
X220114524Y-152682475D01*
X223254657Y-153356880D01*
X223255590Y-153357179D01*
X223256031Y-153357396D01*
X225904052Y-154825214D01*
X225904859Y-154825771D01*
X225905254Y-154826144D01*
X227945046Y-156974611D01*
X227945648Y-156975385D01*
X227945920Y-156975875D01*
X229034263Y-159223269D01*
X224396130Y-159223269D01*
X222746703Y-157722881D01*
X222334878Y-157377884D01*
X220994085Y-156547119D01*
X219865178Y-156215184D01*
X218582083Y-156541756D01*
X217492844Y-157415040D01*
X217048228Y-158532671D01*
X217096579Y-158738092D01*
X217582249Y-159044249D01*
X218734259Y-159200183D01*
X220726032Y-159238108D01*
X224396130Y-159223269D01*
X229034263Y-159223269D01*
X229035604Y-159226038D01*
X229261364Y-159692226D01*
X229261703Y-159693146D01*
X229261809Y-159693664D01*
X229736789Y-162865134D01*
X229736844Y-162865902D01*
X229735970Y-163026407D01*
X229735877Y-163027342D01*
X229216804Y-165675872D01*
X229216522Y-165676810D01*
X229216146Y-165677545D01*
X227823524Y-167923272D01*
X227822929Y-167924050D01*
X227822321Y-167924602D01*
X225671920Y-169576426D01*
X225671151Y-169576913D01*
X225618844Y-169603662D01*
X225617990Y-169604003D01*
X223308650Y-170289376D01*
X223307358Y-170289581D01*
X220620976Y-170360142D01*
X220619901Y-170360054D01*
G37*
G36*
X205959935Y-169930904D02*
G01*
X205958997Y-169930619D01*
X205958132Y-169930157D01*
X205957374Y-169929536D01*
X205956753Y-169928778D01*
X205956291Y-169927913D01*
X205955985Y-169926863D01*
X205088529Y-164973868D01*
X204849997Y-163701977D01*
X204379145Y-161573555D01*
X203915405Y-159884575D01*
X203531719Y-158918213D01*
X202696035Y-157994933D01*
X201317700Y-157406010D01*
X199942619Y-157653782D01*
X199938564Y-157656044D01*
X199937666Y-157656435D01*
X199937093Y-157656583D01*
X199284151Y-157784836D01*
X199283175Y-157784930D01*
X199282200Y-157784832D01*
X199281263Y-157784545D01*
X199280400Y-157784081D01*
X198565510Y-157304168D01*
X198564754Y-157303545D01*
X198564401Y-157303150D01*
X197575314Y-156073166D01*
X197575130Y-156072923D01*
X196929170Y-155160750D01*
X196928880Y-155160289D01*
X196454607Y-154307039D01*
X196454217Y-154306140D01*
X196454010Y-154305182D01*
X196453996Y-154304180D01*
X196498574Y-153788298D01*
X196498753Y-153787334D01*
X196499117Y-153786424D01*
X196499652Y-153785603D01*
X196500194Y-153785027D01*
X197005281Y-153326343D01*
X197006067Y-153325758D01*
X197006773Y-153325407D01*
X198427231Y-152752848D01*
X198428171Y-152752572D01*
X198429158Y-152752485D01*
X200305153Y-152774081D01*
X200306127Y-152774189D01*
X200306923Y-152774427D01*
X202076702Y-153469771D01*
X202077118Y-153469957D01*
X202988757Y-153927805D01*
X203322583Y-153697563D01*
X203350274Y-153581701D01*
X203350594Y-153580774D01*
X203351089Y-153579928D01*
X203351739Y-153579195D01*
X203352520Y-153578602D01*
X203353148Y-153578276D01*
X204064886Y-153269696D01*
X204065819Y-153269396D01*
X204066835Y-153269283D01*
X205714256Y-153256166D01*
X205714620Y-153256176D01*
X208101915Y-153411010D01*
X208102882Y-153411169D01*
X208103799Y-153411514D01*
X208104632Y-153412031D01*
X208105348Y-153412701D01*
X208105919Y-153413497D01*
X208106325Y-153414390D01*
X208106518Y-153415148D01*
X209511344Y-161543148D01*
X209835771Y-163420841D01*
X209835771Y-163420842D01*
X210267640Y-165922597D01*
X210267640Y-165922599D01*
X210614151Y-167932597D01*
X210614152Y-167932599D01*
X210846043Y-169281048D01*
X210846044Y-169281056D01*
X210934051Y-169798161D01*
X210934120Y-169799139D01*
X210933997Y-169800111D01*
X210933686Y-169801041D01*
X210933201Y-169801892D01*
X210932558Y-169802632D01*
X210931783Y-169803233D01*
X210930523Y-169803800D01*
X210778229Y-169848258D01*
X210777159Y-169848447D01*
X209884086Y-169907753D01*
X209883836Y-169907763D01*
X208454036Y-169930999D01*
X208453955Y-169931000D01*
X205960910Y-169931000D01*
X205959935Y-169930904D01*
G37*
G36*
X186429224Y-169921188D02*
G01*
X186429134Y-169921187D01*
X183854546Y-169863094D01*
X183854320Y-169863083D01*
X182120212Y-169745261D01*
X182119636Y-169745189D01*
X181119818Y-169559028D01*
X181118876Y-169558755D01*
X181117844Y-169558193D01*
X180746127Y-169295081D01*
X180745387Y-169294439D01*
X180744785Y-169293665D01*
X180744231Y-169292452D01*
X180741689Y-169284073D01*
X180741607Y-169283768D01*
X180521219Y-168348893D01*
X180521175Y-168348684D01*
X180264749Y-167005938D01*
X180264733Y-167005851D01*
X179979473Y-165354851D01*
X179979402Y-165353874D01*
X179979522Y-165352901D01*
X179979830Y-165351971D01*
X179980314Y-165351118D01*
X179980955Y-165350376D01*
X179981728Y-165349774D01*
X179982604Y-165349334D01*
X179983549Y-165349073D01*
X179984400Y-165349000D01*
X189976743Y-165349000D01*
X188271438Y-155575859D01*
X188271438Y-155575858D01*
X188225047Y-155309662D01*
X188225045Y-155309649D01*
X187699980Y-152248903D01*
X187699976Y-152248878D01*
X187243774Y-149504763D01*
X187243768Y-149504731D01*
X186883753Y-147248154D01*
X186883745Y-147248098D01*
X186647241Y-145649965D01*
X186647218Y-145649787D01*
X186561550Y-144881006D01*
X186561529Y-144880135D01*
X186576514Y-144644114D01*
X186576672Y-144643147D01*
X186577015Y-144642229D01*
X186577327Y-144641683D01*
X186850971Y-144225679D01*
X186851587Y-144224917D01*
X186852340Y-144224290D01*
X186853201Y-144223822D01*
X186854215Y-144223515D01*
X187657267Y-144071013D01*
X187658335Y-144070927D01*
X189230135Y-144113454D01*
X189230287Y-144113460D01*
X191897287Y-144267008D01*
X191898256Y-144267160D01*
X191899176Y-144267498D01*
X191900012Y-144268009D01*
X191900733Y-144268674D01*
X191901310Y-144269466D01*
X191901722Y-144270355D01*
X191901926Y-144271142D01*
X194025876Y-156463142D01*
X194025876Y-156463145D01*
X194447082Y-158889568D01*
X194447084Y-158889575D01*
X194999366Y-162099362D01*
X194999367Y-162099372D01*
X195473742Y-164889607D01*
X195473745Y-164889621D01*
X195845757Y-167115021D01*
X195845761Y-167115046D01*
X196090958Y-168630325D01*
X196090972Y-168630419D01*
X196184900Y-169290295D01*
X196184942Y-169291275D01*
X196184793Y-169292243D01*
X196184457Y-169293164D01*
X196183972Y-169293970D01*
X196021270Y-169514306D01*
X196020614Y-169515034D01*
X196019827Y-169515619D01*
X196018549Y-169516164D01*
X195293697Y-169711477D01*
X195292849Y-169711628D01*
X193885468Y-169839666D01*
X193885174Y-169839684D01*
X191684361Y-169909712D01*
X191684236Y-169909715D01*
X188579091Y-169931000D01*
X188579034Y-169931000D01*
X186429224Y-169921188D01*
G37*
G36*
X176967936Y-178058904D02*
G01*
X176966998Y-178058619D01*
X176966133Y-178058157D01*
X176965375Y-178057536D01*
X176964629Y-178056581D01*
X169696674Y-166000048D01*
X169508071Y-165687146D01*
X169508069Y-165687144D01*
X167618637Y-162548356D01*
X167618634Y-162548351D01*
X165909809Y-159702381D01*
X165909806Y-159702375D01*
X164450528Y-157264590D01*
X164450523Y-157264582D01*
X163309732Y-155350351D01*
X163309722Y-155350334D01*
X162556358Y-154075027D01*
X162556319Y-154074960D01*
X162259323Y-153553943D01*
X162258924Y-153553048D01*
X162258706Y-153552092D01*
X162258680Y-153551113D01*
X162258845Y-153550146D01*
X162259195Y-153549231D01*
X162259717Y-153548401D01*
X162260206Y-153547858D01*
X162422633Y-153392102D01*
X162423404Y-153391496D01*
X162424278Y-153391053D01*
X162425213Y-153390789D01*
X163336346Y-153227602D01*
X163337028Y-153227528D01*
X164803468Y-153169162D01*
X164803689Y-153169158D01*
X167513022Y-153181316D01*
X167513997Y-153181417D01*
X167514934Y-153181705D01*
X167515796Y-153182171D01*
X167516551Y-153182796D01*
X167517388Y-153183919D01*
X170000802Y-157730149D01*
X170770247Y-159097825D01*
X171736349Y-160688397D01*
X172463893Y-161733649D01*
X172832500Y-162052942D01*
X172914203Y-161934488D01*
X173230312Y-161033345D01*
X173645610Y-159474757D01*
X174092879Y-157500866D01*
X175003633Y-153160973D01*
X175003927Y-153160038D01*
X175004398Y-153159179D01*
X175005028Y-153158428D01*
X175005792Y-153157814D01*
X175006661Y-153157361D01*
X175007602Y-153157086D01*
X175008526Y-153157000D01*
X177792113Y-153157000D01*
X177792271Y-153157002D01*
X179185095Y-153201001D01*
X179185939Y-153201101D01*
X180167395Y-153401936D01*
X180168332Y-153402225D01*
X180169194Y-153402692D01*
X180169948Y-153403318D01*
X180170566Y-153404079D01*
X180170915Y-153404701D01*
X180354970Y-153794867D01*
X180355299Y-153795790D01*
X180355442Y-153796760D01*
X180355393Y-153797739D01*
X180355202Y-153798549D01*
X180316051Y-153918745D01*
X180030671Y-154880056D01*
X179546819Y-156562466D01*
X178920874Y-158768845D01*
X178209219Y-161302048D01*
X176289012Y-168168653D01*
X179141582Y-172872965D01*
X179141592Y-172872981D01*
X180093314Y-174456095D01*
X180093338Y-174456135D01*
X181077685Y-176128930D01*
X181077726Y-176129001D01*
X181747868Y-177311343D01*
X181748006Y-177311604D01*
X181995488Y-177815657D01*
X181995832Y-177816575D01*
X181995990Y-177817543D01*
X181995956Y-177818522D01*
X181995732Y-177819476D01*
X181995326Y-177820369D01*
X181994753Y-177821164D01*
X181994037Y-177821833D01*
X181993280Y-177822311D01*
X181830480Y-177905746D01*
X181829569Y-177906105D01*
X181828800Y-177906260D01*
X180920445Y-178015995D01*
X180919994Y-178016029D01*
X179480105Y-178058998D01*
X179479956Y-178059000D01*
X176968911Y-178059000D01*
X176967936Y-178058904D01*
G37*
G36*
X158207935Y-169930904D02*
G01*
X158206997Y-169930619D01*
X158206132Y-169930157D01*
X158205374Y-169929536D01*
X158204753Y-169928778D01*
X158204291Y-169927913D01*
X158203985Y-169926863D01*
X157336529Y-164973868D01*
X157097997Y-163701977D01*
X156627145Y-161573555D01*
X156163405Y-159884575D01*
X155779719Y-158918213D01*
X154944035Y-157994933D01*
X153565700Y-157406010D01*
X152190619Y-157653782D01*
X152186564Y-157656044D01*
X152185666Y-157656435D01*
X152185093Y-157656583D01*
X151532151Y-157784836D01*
X151531175Y-157784930D01*
X151530200Y-157784832D01*
X151529263Y-157784545D01*
X151528400Y-157784081D01*
X150813510Y-157304168D01*
X150812754Y-157303545D01*
X150812401Y-157303150D01*
X149823314Y-156073166D01*
X149823130Y-156072923D01*
X149177170Y-155160750D01*
X149176880Y-155160289D01*
X148702607Y-154307039D01*
X148702217Y-154306140D01*
X148702010Y-154305182D01*
X148701996Y-154304180D01*
X148746574Y-153788298D01*
X148746753Y-153787334D01*
X148747117Y-153786424D01*
X148747652Y-153785603D01*
X148748194Y-153785027D01*
X149253281Y-153326343D01*
X149254067Y-153325758D01*
X149254773Y-153325407D01*
X150675231Y-152752848D01*
X150676171Y-152752572D01*
X150677158Y-152752485D01*
X152553153Y-152774081D01*
X152554127Y-152774189D01*
X152554923Y-152774427D01*
X154324702Y-153469771D01*
X154325118Y-153469957D01*
X155236757Y-153927805D01*
X155570583Y-153697563D01*
X155598274Y-153581701D01*
X155598594Y-153580774D01*
X155599089Y-153579928D01*
X155599739Y-153579195D01*
X155600520Y-153578602D01*
X155601148Y-153578276D01*
X156312886Y-153269696D01*
X156313819Y-153269396D01*
X156314835Y-153269283D01*
X157962256Y-153256166D01*
X157962620Y-153256176D01*
X160349915Y-153411010D01*
X160350882Y-153411169D01*
X160351799Y-153411514D01*
X160352632Y-153412031D01*
X160353348Y-153412701D01*
X160353919Y-153413497D01*
X160354325Y-153414390D01*
X160354518Y-153415148D01*
X161759344Y-161543148D01*
X162083771Y-163420841D01*
X162083771Y-163420842D01*
X162515640Y-165922597D01*
X162515640Y-165922599D01*
X162862151Y-167932597D01*
X162862152Y-167932599D01*
X163094043Y-169281048D01*
X163094044Y-169281056D01*
X163182051Y-169798161D01*
X163182120Y-169799139D01*
X163181997Y-169800111D01*
X163181686Y-169801041D01*
X163181201Y-169801892D01*
X163180558Y-169802632D01*
X163179783Y-169803233D01*
X163178523Y-169803800D01*
X163026229Y-169848258D01*
X163025159Y-169848447D01*
X162132086Y-169907753D01*
X162131836Y-169907763D01*
X160702036Y-169930999D01*
X160701955Y-169931000D01*
X158208910Y-169931000D01*
X158207935Y-169930904D01*
G37*
G36*
X141239950Y-170302209D02*
G01*
X141239188Y-170302013D01*
X138674854Y-169421742D01*
X138674120Y-169421422D01*
X138585364Y-169373973D01*
X137432081Y-168815434D01*
X136908904Y-168765261D01*
X136783798Y-169192253D01*
X136783679Y-169192609D01*
X136616412Y-169636706D01*
X136615978Y-169637585D01*
X136615382Y-169638363D01*
X136614644Y-169639009D01*
X136613795Y-169639499D01*
X136613177Y-169639731D01*
X135892342Y-169857112D01*
X135891380Y-169857302D01*
X135890813Y-169857324D01*
X134392470Y-169831832D01*
X134392231Y-169831823D01*
X132005786Y-169676990D01*
X132004819Y-169676830D01*
X132003902Y-169676486D01*
X132003069Y-169675969D01*
X132002353Y-169675299D01*
X132001782Y-169674503D01*
X132001376Y-169673610D01*
X132001183Y-169672849D01*
X130863366Y-163068849D01*
X130817169Y-162800832D01*
X130817168Y-162800832D01*
X130363753Y-160181817D01*
X129949852Y-157810064D01*
X129949853Y-157810064D01*
X129619521Y-155936981D01*
X129416805Y-154813919D01*
X129416804Y-154813919D01*
X129108047Y-153162919D01*
X129107962Y-153161943D01*
X129108070Y-153160968D01*
X129108365Y-153160034D01*
X129108837Y-153159175D01*
X129109467Y-153158424D01*
X129110232Y-153157811D01*
X129111102Y-153157359D01*
X129112043Y-153157085D01*
X129112962Y-153157000D01*
X131676020Y-153157000D01*
X132300234Y-153161855D01*
X132300595Y-153161871D01*
X133543599Y-153261585D01*
X133544563Y-153261759D01*
X133545575Y-153262169D01*
X134108898Y-153566338D01*
X134109710Y-153566886D01*
X134110400Y-153567582D01*
X134110942Y-153568400D01*
X134111407Y-153569672D01*
X134243885Y-154176934D01*
X134243936Y-154177204D01*
X134338944Y-154766174D01*
X134748867Y-155188744D01*
X134865414Y-155174985D01*
X135250170Y-154697070D01*
X135253537Y-154662797D01*
X135253728Y-154661836D01*
X135254103Y-154660930D01*
X135254659Y-154660101D01*
X135726092Y-154089600D01*
X135726787Y-154088909D01*
X135727226Y-154088590D01*
X136751053Y-153424850D01*
X136752215Y-153424294D01*
X138946280Y-152705012D01*
X138947237Y-152704799D01*
X138947951Y-152704764D01*
X141406365Y-152760138D01*
X141407338Y-152760256D01*
X141407961Y-152760438D01*
X143744570Y-153610164D01*
X143745838Y-153610846D01*
X145815630Y-155144340D01*
X145816582Y-155145265D01*
X147474545Y-157251943D01*
X147475212Y-157253065D01*
X148576331Y-159822346D01*
X148576689Y-159823639D01*
X148856753Y-161872775D01*
X148856929Y-161874068D01*
X143814578Y-161874068D01*
X143115787Y-159751341D01*
X143067353Y-159660122D01*
X141889766Y-158223663D01*
X140360754Y-157310625D01*
X138739940Y-156976815D01*
X137287417Y-157277980D01*
X136261708Y-158270021D01*
X136165777Y-158465933D01*
X135784654Y-160291409D01*
X136005385Y-162298395D01*
X136780189Y-163962004D01*
X136997314Y-164216818D01*
X138389206Y-165311867D01*
X139975102Y-165954346D01*
X141349719Y-165966985D01*
X142742073Y-165188781D01*
X143673930Y-163742062D01*
X143814578Y-161874068D01*
X148856929Y-161874068D01*
X148975954Y-162744938D01*
X148975966Y-162746197D01*
X148647486Y-165550776D01*
X148647277Y-165551733D01*
X148647047Y-165552317D01*
X147589824Y-167807006D01*
X147589323Y-167807848D01*
X147588643Y-167808598D01*
X145774684Y-169442281D01*
X145773895Y-169442863D01*
X145773194Y-169443209D01*
X143773072Y-170242778D01*
X143772131Y-170243051D01*
X143771333Y-170243134D01*
X141240928Y-170302283D01*
X141239950Y-170302209D01*
G37*
G04 #@! TD*
D11*
G04 #@! TO.C,J1*
X209931000Y-130302000D03*
G04 #@! TD*
D12*
G04 #@! TO.C,H1*
X42545000Y-60833000D03*
G04 #@! TD*
G04 #@! TO.C,H5*
X127889000Y-182118000D03*
G04 #@! TD*
G04 #@! TO.C,H7*
X165862000Y-140970000D03*
G04 #@! TD*
G04 #@! TO.C,H8*
X17526000Y-149860000D03*
G04 #@! TD*
G04 #@! TO.C,H9*
X171958000Y-187325000D03*
G04 #@! TD*
G04 #@! TO.C,H10*
X164338000Y-83947000D03*
G04 #@! TD*
G04 #@! TO.C,H11*
X256413000Y-84074000D03*
G04 #@! TD*
G04 #@! TO.C,H12*
X253365000Y-140716000D03*
G04 #@! TD*
G04 #@! TO.C,H13*
X401955000Y-149352000D03*
G04 #@! TD*
G04 #@! TO.C,H15*
X247904000Y-187198000D03*
G04 #@! TD*
G04 #@! TO.C,H16*
X292100000Y-182118000D03*
G04 #@! TD*
G04 #@! TO.C,H20*
X377698000Y-59817000D03*
G04 #@! TD*
M02*
