G04 #@! TF.GenerationSoftware,KiCad,Pcbnew,(5.1.10)-1*
G04 #@! TF.CreationDate,2021-10-09T15:29:01+01:00*
G04 #@! TF.ProjectId,superlyra-hs-backplate,73757065-726c-4797-9261-2d68732d6261,0.1*
G04 #@! TF.SameCoordinates,Original*
G04 #@! TF.FileFunction,Legend,Bot*
G04 #@! TF.FilePolarity,Positive*
%FSLAX46Y46*%
G04 Gerber Fmt 4.6, Leading zero omitted, Abs format (unit mm)*
G04 Created by KiCad (PCBNEW (5.1.10)-1) date 2021-10-09 15:29:01*
%MOMM*%
%LPD*%
G01*
G04 APERTURE LIST*
%ADD10C,0.010000*%
%ADD11C,1.752600*%
%ADD12C,3.500000*%
G04 APERTURE END LIST*
D10*
G04 #@! TO.C,H25*
G36*
X208272106Y-166934837D02*
G01*
X208090434Y-167089046D01*
X207846101Y-167316172D01*
X207602608Y-167555392D01*
X206929189Y-168232785D01*
X208315059Y-169629667D01*
X206964030Y-171000736D01*
X206576557Y-171396958D01*
X206232485Y-171754552D01*
X205948645Y-172055546D01*
X205741872Y-172281970D01*
X205628998Y-172415855D01*
X205613000Y-172443020D01*
X205670563Y-172520721D01*
X205831865Y-172699198D01*
X206079828Y-172960583D01*
X206397373Y-173287006D01*
X206767422Y-173660598D01*
X206967667Y-173860363D01*
X207357255Y-174249448D01*
X207703025Y-174598511D01*
X207987949Y-174890052D01*
X208195003Y-175106576D01*
X208307159Y-175230584D01*
X208322333Y-175252538D01*
X208266244Y-175327563D01*
X208114258Y-175495447D01*
X207890801Y-175729903D01*
X207668153Y-175956627D01*
X207013973Y-176614667D01*
X207687333Y-177292000D01*
X208360694Y-177969334D01*
X219621361Y-177969334D01*
X218967181Y-177311294D01*
X218702095Y-177037318D01*
X218488593Y-176802710D01*
X218351343Y-176635487D01*
X218313000Y-176568341D01*
X218369752Y-176476980D01*
X218523147Y-176296625D01*
X218747894Y-176055783D01*
X218948000Y-175852667D01*
X219583000Y-175221905D01*
X219583000Y-172335262D01*
X218874164Y-171630108D01*
X218165329Y-170924955D01*
X217481766Y-171631977D01*
X216798203Y-172339000D01*
X216093283Y-171640450D01*
X215388362Y-170941899D01*
X213995000Y-172342537D01*
X213995000Y-173293269D01*
X213992714Y-173671717D01*
X213986508Y-173978711D01*
X213977360Y-174180425D01*
X213967496Y-174244000D01*
X213880135Y-174218707D01*
X213673377Y-174151679D01*
X213387977Y-174056188D01*
X213317667Y-174032334D01*
X213069907Y-173952806D01*
X212844240Y-173895999D01*
X212604365Y-173858153D01*
X212313984Y-173835508D01*
X211936796Y-173824306D01*
X211436503Y-173820787D01*
X211273865Y-173820667D01*
X209852389Y-173820667D01*
X209172028Y-173173056D01*
X208897761Y-172903949D01*
X208676396Y-172671444D01*
X208533157Y-172503044D01*
X208491667Y-172431230D01*
X208549200Y-172346667D01*
X208710422Y-172161620D01*
X208958267Y-171894315D01*
X209275673Y-171562980D01*
X209645572Y-171185841D01*
X209846362Y-170984305D01*
X211201058Y-169631594D01*
X209826158Y-168254797D01*
X209429971Y-167861729D01*
X209070846Y-167512386D01*
X208766746Y-167223677D01*
X208535632Y-167012513D01*
X208395467Y-166895803D01*
X208363643Y-166878000D01*
X208272106Y-166934837D01*
G37*
X208272106Y-166934837D02*
X208090434Y-167089046D01*
X207846101Y-167316172D01*
X207602608Y-167555392D01*
X206929189Y-168232785D01*
X208315059Y-169629667D01*
X206964030Y-171000736D01*
X206576557Y-171396958D01*
X206232485Y-171754552D01*
X205948645Y-172055546D01*
X205741872Y-172281970D01*
X205628998Y-172415855D01*
X205613000Y-172443020D01*
X205670563Y-172520721D01*
X205831865Y-172699198D01*
X206079828Y-172960583D01*
X206397373Y-173287006D01*
X206767422Y-173660598D01*
X206967667Y-173860363D01*
X207357255Y-174249448D01*
X207703025Y-174598511D01*
X207987949Y-174890052D01*
X208195003Y-175106576D01*
X208307159Y-175230584D01*
X208322333Y-175252538D01*
X208266244Y-175327563D01*
X208114258Y-175495447D01*
X207890801Y-175729903D01*
X207668153Y-175956627D01*
X207013973Y-176614667D01*
X207687333Y-177292000D01*
X208360694Y-177969334D01*
X219621361Y-177969334D01*
X218967181Y-177311294D01*
X218702095Y-177037318D01*
X218488593Y-176802710D01*
X218351343Y-176635487D01*
X218313000Y-176568341D01*
X218369752Y-176476980D01*
X218523147Y-176296625D01*
X218747894Y-176055783D01*
X218948000Y-175852667D01*
X219583000Y-175221905D01*
X219583000Y-172335262D01*
X218874164Y-171630108D01*
X218165329Y-170924955D01*
X217481766Y-171631977D01*
X216798203Y-172339000D01*
X216093283Y-171640450D01*
X215388362Y-170941899D01*
X213995000Y-172342537D01*
X213995000Y-173293269D01*
X213992714Y-173671717D01*
X213986508Y-173978711D01*
X213977360Y-174180425D01*
X213967496Y-174244000D01*
X213880135Y-174218707D01*
X213673377Y-174151679D01*
X213387977Y-174056188D01*
X213317667Y-174032334D01*
X213069907Y-173952806D01*
X212844240Y-173895999D01*
X212604365Y-173858153D01*
X212313984Y-173835508D01*
X211936796Y-173824306D01*
X211436503Y-173820787D01*
X211273865Y-173820667D01*
X209852389Y-173820667D01*
X209172028Y-173173056D01*
X208897761Y-172903949D01*
X208676396Y-172671444D01*
X208533157Y-172503044D01*
X208491667Y-172431230D01*
X208549200Y-172346667D01*
X208710422Y-172161620D01*
X208958267Y-171894315D01*
X209275673Y-171562980D01*
X209645572Y-171185841D01*
X209846362Y-170984305D01*
X211201058Y-169631594D01*
X209826158Y-168254797D01*
X209429971Y-167861729D01*
X209070846Y-167512386D01*
X208766746Y-167223677D01*
X208535632Y-167012513D01*
X208395467Y-166895803D01*
X208363643Y-166878000D01*
X208272106Y-166934837D01*
G36*
X199973860Y-178588348D02*
G01*
X199913465Y-178657541D01*
X199888668Y-178834840D01*
X199988467Y-179022548D01*
X200175521Y-179181584D01*
X200412485Y-179272869D01*
X200509840Y-179281667D01*
X200737533Y-179316348D01*
X200913923Y-179434503D01*
X201051842Y-179657300D01*
X201164124Y-180005907D01*
X201263600Y-180501492D01*
X201269051Y-180534011D01*
X201405736Y-181356000D01*
X202204338Y-181356000D01*
X201962415Y-179980167D01*
X201881711Y-179520335D01*
X201812293Y-179123162D01*
X201759040Y-178816695D01*
X201726831Y-178628984D01*
X201719412Y-178583167D01*
X201642968Y-178570534D01*
X201450834Y-178562964D01*
X201337333Y-178562000D01*
X201087778Y-178578053D01*
X200973355Y-178633414D01*
X200956333Y-178691535D01*
X200931517Y-178760115D01*
X200835421Y-178726106D01*
X200714655Y-178642389D01*
X200452297Y-178517503D01*
X200186593Y-178499845D01*
X199973860Y-178588348D01*
G37*
X199973860Y-178588348D02*
X199913465Y-178657541D01*
X199888668Y-178834840D01*
X199988467Y-179022548D01*
X200175521Y-179181584D01*
X200412485Y-179272869D01*
X200509840Y-179281667D01*
X200737533Y-179316348D01*
X200913923Y-179434503D01*
X201051842Y-179657300D01*
X201164124Y-180005907D01*
X201263600Y-180501492D01*
X201269051Y-180534011D01*
X201405736Y-181356000D01*
X202204338Y-181356000D01*
X201962415Y-179980167D01*
X201881711Y-179520335D01*
X201812293Y-179123162D01*
X201759040Y-178816695D01*
X201726831Y-178628984D01*
X201719412Y-178583167D01*
X201642968Y-178570534D01*
X201450834Y-178562964D01*
X201337333Y-178562000D01*
X201087778Y-178578053D01*
X200973355Y-178633414D01*
X200956333Y-178691535D01*
X200931517Y-178760115D01*
X200835421Y-178726106D01*
X200714655Y-178642389D01*
X200452297Y-178517503D01*
X200186593Y-178499845D01*
X199973860Y-178588348D01*
G36*
X206301743Y-177051804D02*
G01*
X206149093Y-177087085D01*
X206121000Y-177114453D01*
X206134820Y-177219314D01*
X206172616Y-177458808D01*
X206228889Y-177800819D01*
X206298143Y-178213232D01*
X206374878Y-178663933D01*
X206453598Y-179120804D01*
X206528805Y-179551731D01*
X206595001Y-179924598D01*
X206646688Y-180207290D01*
X206676273Y-180358138D01*
X206725791Y-180587943D01*
X205891379Y-180612138D01*
X205056968Y-180636334D01*
X205199632Y-181356000D01*
X207732893Y-181356000D01*
X207690670Y-181165500D01*
X207664420Y-181027276D01*
X207615183Y-180749833D01*
X207547769Y-180360990D01*
X207466990Y-179888565D01*
X207377658Y-179360376D01*
X207350211Y-179197000D01*
X207259194Y-178657607D01*
X207175176Y-178165724D01*
X207102991Y-177749172D01*
X207047473Y-177435769D01*
X207013453Y-177253336D01*
X207008207Y-177228500D01*
X206959907Y-177113518D01*
X206852538Y-177056742D01*
X206638626Y-177038744D01*
X206542720Y-177038000D01*
X206301743Y-177051804D01*
G37*
X206301743Y-177051804D02*
X206149093Y-177087085D01*
X206121000Y-177114453D01*
X206134820Y-177219314D01*
X206172616Y-177458808D01*
X206228889Y-177800819D01*
X206298143Y-178213232D01*
X206374878Y-178663933D01*
X206453598Y-179120804D01*
X206528805Y-179551731D01*
X206595001Y-179924598D01*
X206646688Y-180207290D01*
X206676273Y-180358138D01*
X206725791Y-180587943D01*
X205891379Y-180612138D01*
X205056968Y-180636334D01*
X205199632Y-181356000D01*
X207732893Y-181356000D01*
X207690670Y-181165500D01*
X207664420Y-181027276D01*
X207615183Y-180749833D01*
X207547769Y-180360990D01*
X207466990Y-179888565D01*
X207377658Y-179360376D01*
X207350211Y-179197000D01*
X207259194Y-178657607D01*
X207175176Y-178165724D01*
X207102991Y-177749172D01*
X207047473Y-177435769D01*
X207013453Y-177253336D01*
X207008207Y-177228500D01*
X206959907Y-177113518D01*
X206852538Y-177056742D01*
X206638626Y-177038744D01*
X206542720Y-177038000D01*
X206301743Y-177051804D01*
G36*
X207932526Y-178588348D02*
G01*
X207872132Y-178657541D01*
X207847335Y-178834840D01*
X207947134Y-179022548D01*
X208134188Y-179181584D01*
X208371152Y-179272869D01*
X208468506Y-179281667D01*
X208696200Y-179316348D01*
X208872590Y-179434503D01*
X209010509Y-179657300D01*
X209122790Y-180005907D01*
X209222267Y-180501492D01*
X209227717Y-180534011D01*
X209364402Y-181356000D01*
X210163005Y-181356000D01*
X209921082Y-179980167D01*
X209840378Y-179520335D01*
X209770960Y-179123162D01*
X209717707Y-178816695D01*
X209685498Y-178628984D01*
X209678079Y-178583167D01*
X209601635Y-178570534D01*
X209409501Y-178562964D01*
X209296000Y-178562000D01*
X209046445Y-178578053D01*
X208932021Y-178633414D01*
X208915000Y-178691535D01*
X208890183Y-178760115D01*
X208794087Y-178726106D01*
X208673322Y-178642389D01*
X208410964Y-178517503D01*
X208145260Y-178499845D01*
X207932526Y-178588348D01*
G37*
X207932526Y-178588348D02*
X207872132Y-178657541D01*
X207847335Y-178834840D01*
X207947134Y-179022548D01*
X208134188Y-179181584D01*
X208371152Y-179272869D01*
X208468506Y-179281667D01*
X208696200Y-179316348D01*
X208872590Y-179434503D01*
X209010509Y-179657300D01*
X209122790Y-180005907D01*
X209222267Y-180501492D01*
X209227717Y-180534011D01*
X209364402Y-181356000D01*
X210163005Y-181356000D01*
X209921082Y-179980167D01*
X209840378Y-179520335D01*
X209770960Y-179123162D01*
X209717707Y-178816695D01*
X209685498Y-178628984D01*
X209678079Y-178583167D01*
X209601635Y-178570534D01*
X209409501Y-178562964D01*
X209296000Y-178562000D01*
X209046445Y-178578053D01*
X208932021Y-178633414D01*
X208915000Y-178691535D01*
X208890183Y-178760115D01*
X208794087Y-178726106D01*
X208673322Y-178642389D01*
X208410964Y-178517503D01*
X208145260Y-178499845D01*
X207932526Y-178588348D01*
G36*
X197974121Y-178534639D02*
G01*
X197780384Y-178670333D01*
X197710381Y-178730650D01*
X197400333Y-179002875D01*
X197400333Y-178782438D01*
X197387279Y-178650450D01*
X197318805Y-178585425D01*
X197150946Y-178563858D01*
X196987998Y-178562000D01*
X196575662Y-178562000D01*
X196817585Y-179937834D01*
X196898289Y-180397666D01*
X196967707Y-180794839D01*
X197020960Y-181101305D01*
X197053169Y-181289017D01*
X197060588Y-181334834D01*
X197137032Y-181347466D01*
X197329166Y-181355036D01*
X197442667Y-181356000D01*
X197680451Y-181345106D01*
X197792932Y-181299390D01*
X197823452Y-181199302D01*
X197823667Y-181184132D01*
X197830870Y-181074871D01*
X197880280Y-181064055D01*
X198013599Y-181152774D01*
X198064670Y-181190445D01*
X198432280Y-181367953D01*
X198838007Y-181410785D01*
X199222539Y-181313639D01*
X199255820Y-181296934D01*
X199571878Y-181046846D01*
X199766654Y-180715858D01*
X199848417Y-180332113D01*
X199831055Y-180023584D01*
X199015126Y-180023584D01*
X198998012Y-180300638D01*
X198893088Y-180532835D01*
X198716553Y-180693270D01*
X198484603Y-180755038D01*
X198213436Y-180691231D01*
X198036492Y-180579785D01*
X197772556Y-180289391D01*
X197639746Y-179955945D01*
X197653380Y-179620548D01*
X197665123Y-179583442D01*
X197828800Y-179303647D01*
X198059072Y-179170710D01*
X198333139Y-179187672D01*
X198628206Y-179357576D01*
X198721133Y-179442534D01*
X198928232Y-179728581D01*
X199015126Y-180023584D01*
X199831055Y-180023584D01*
X199825437Y-179923751D01*
X199705984Y-179518916D01*
X199498326Y-179145749D01*
X199210734Y-178832391D01*
X198851477Y-178606986D01*
X198433381Y-178498104D01*
X198163336Y-178486380D01*
X197974121Y-178534639D01*
G37*
X197974121Y-178534639D02*
X197780384Y-178670333D01*
X197710381Y-178730650D01*
X197400333Y-179002875D01*
X197400333Y-178782438D01*
X197387279Y-178650450D01*
X197318805Y-178585425D01*
X197150946Y-178563858D01*
X196987998Y-178562000D01*
X196575662Y-178562000D01*
X196817585Y-179937834D01*
X196898289Y-180397666D01*
X196967707Y-180794839D01*
X197020960Y-181101305D01*
X197053169Y-181289017D01*
X197060588Y-181334834D01*
X197137032Y-181347466D01*
X197329166Y-181355036D01*
X197442667Y-181356000D01*
X197680451Y-181345106D01*
X197792932Y-181299390D01*
X197823452Y-181199302D01*
X197823667Y-181184132D01*
X197830870Y-181074871D01*
X197880280Y-181064055D01*
X198013599Y-181152774D01*
X198064670Y-181190445D01*
X198432280Y-181367953D01*
X198838007Y-181410785D01*
X199222539Y-181313639D01*
X199255820Y-181296934D01*
X199571878Y-181046846D01*
X199766654Y-180715858D01*
X199848417Y-180332113D01*
X199831055Y-180023584D01*
X199015126Y-180023584D01*
X198998012Y-180300638D01*
X198893088Y-180532835D01*
X198716553Y-180693270D01*
X198484603Y-180755038D01*
X198213436Y-180691231D01*
X198036492Y-180579785D01*
X197772556Y-180289391D01*
X197639746Y-179955945D01*
X197653380Y-179620548D01*
X197665123Y-179583442D01*
X197828800Y-179303647D01*
X198059072Y-179170710D01*
X198333139Y-179187672D01*
X198628206Y-179357576D01*
X198721133Y-179442534D01*
X198928232Y-179728581D01*
X199015126Y-180023584D01*
X199831055Y-180023584D01*
X199825437Y-179923751D01*
X199705984Y-179518916D01*
X199498326Y-179145749D01*
X199210734Y-178832391D01*
X198851477Y-178606986D01*
X198433381Y-178498104D01*
X198163336Y-178486380D01*
X197974121Y-178534639D01*
G36*
X211280931Y-178515804D02*
G01*
X210877858Y-178654247D01*
X210584261Y-178909526D01*
X210412542Y-179271065D01*
X210373685Y-179705000D01*
X210396667Y-180128334D01*
X211433833Y-180152106D01*
X211869976Y-180164287D01*
X212164156Y-180180284D01*
X212343742Y-180204779D01*
X212436103Y-180242451D01*
X212468608Y-180297982D01*
X212471000Y-180329484D01*
X212398401Y-180540059D01*
X212209904Y-180684742D01*
X211949465Y-180753511D01*
X211661037Y-180736346D01*
X211388574Y-180623226D01*
X211339041Y-180587559D01*
X211163314Y-180474952D01*
X210998429Y-180461077D01*
X210819623Y-180509458D01*
X210626656Y-180590014D01*
X210527280Y-180664468D01*
X210523667Y-180676462D01*
X210591583Y-180796888D01*
X210764616Y-180959339D01*
X210996689Y-181129586D01*
X211241726Y-181273397D01*
X211431519Y-181350909D01*
X211883415Y-181432086D01*
X212277890Y-181392597D01*
X212637296Y-181250167D01*
X213002476Y-180990237D01*
X213219725Y-180654630D01*
X213295768Y-180230616D01*
X213287017Y-180020970D01*
X213178935Y-179571632D01*
X212372868Y-179571632D01*
X212274248Y-179632581D01*
X212028652Y-179651106D01*
X211772500Y-179645209D01*
X211455739Y-179628230D01*
X211274390Y-179601888D01*
X211194542Y-179554961D01*
X211182285Y-179476225D01*
X211185689Y-179451000D01*
X211293302Y-179229158D01*
X211500269Y-179101779D01*
X211760304Y-179076937D01*
X212027121Y-179162706D01*
X212178515Y-179277818D01*
X212336846Y-179457098D01*
X212372868Y-179571632D01*
X213178935Y-179571632D01*
X213160932Y-179496788D01*
X212900178Y-179065841D01*
X212520926Y-178744406D01*
X212039344Y-178548763D01*
X211781077Y-178504774D01*
X211280931Y-178515804D01*
G37*
X211280931Y-178515804D02*
X210877858Y-178654247D01*
X210584261Y-178909526D01*
X210412542Y-179271065D01*
X210373685Y-179705000D01*
X210396667Y-180128334D01*
X211433833Y-180152106D01*
X211869976Y-180164287D01*
X212164156Y-180180284D01*
X212343742Y-180204779D01*
X212436103Y-180242451D01*
X212468608Y-180297982D01*
X212471000Y-180329484D01*
X212398401Y-180540059D01*
X212209904Y-180684742D01*
X211949465Y-180753511D01*
X211661037Y-180736346D01*
X211388574Y-180623226D01*
X211339041Y-180587559D01*
X211163314Y-180474952D01*
X210998429Y-180461077D01*
X210819623Y-180509458D01*
X210626656Y-180590014D01*
X210527280Y-180664468D01*
X210523667Y-180676462D01*
X210591583Y-180796888D01*
X210764616Y-180959339D01*
X210996689Y-181129586D01*
X211241726Y-181273397D01*
X211431519Y-181350909D01*
X211883415Y-181432086D01*
X212277890Y-181392597D01*
X212637296Y-181250167D01*
X213002476Y-180990237D01*
X213219725Y-180654630D01*
X213295768Y-180230616D01*
X213287017Y-180020970D01*
X213178935Y-179571632D01*
X212372868Y-179571632D01*
X212274248Y-179632581D01*
X212028652Y-179651106D01*
X211772500Y-179645209D01*
X211455739Y-179628230D01*
X211274390Y-179601888D01*
X211194542Y-179554961D01*
X211182285Y-179476225D01*
X211185689Y-179451000D01*
X211293302Y-179229158D01*
X211500269Y-179101779D01*
X211760304Y-179076937D01*
X212027121Y-179162706D01*
X212178515Y-179277818D01*
X212336846Y-179457098D01*
X212372868Y-179571632D01*
X213178935Y-179571632D01*
X213160932Y-179496788D01*
X212900178Y-179065841D01*
X212520926Y-178744406D01*
X212039344Y-178548763D01*
X211781077Y-178504774D01*
X211280931Y-178515804D01*
G36*
X219383024Y-178561584D02*
G01*
X219330450Y-178562000D01*
X218926923Y-178562000D01*
X219084235Y-179429834D01*
X219150254Y-179806470D01*
X219202923Y-180130568D01*
X219235574Y-180359684D01*
X219242940Y-180439786D01*
X219174632Y-180643721D01*
X219006518Y-180780940D01*
X218800312Y-180802306D01*
X218790912Y-180799693D01*
X218599438Y-180717695D01*
X218454113Y-180583342D01*
X218340236Y-180368111D01*
X218243111Y-180043478D01*
X218148039Y-179580917D01*
X218139961Y-179536432D01*
X218073265Y-179164198D01*
X218019410Y-178859095D01*
X217984515Y-178656091D01*
X217974333Y-178589990D01*
X217898582Y-178573290D01*
X217706944Y-178563279D01*
X217593333Y-178562000D01*
X217437831Y-178561341D01*
X217327134Y-178574595D01*
X217258631Y-178624606D01*
X217229708Y-178734221D01*
X217237753Y-178926285D01*
X217280151Y-179223643D01*
X217354291Y-179649141D01*
X217424360Y-180039297D01*
X217500318Y-180468376D01*
X217564162Y-180837713D01*
X217610487Y-181115372D01*
X217633891Y-181269416D01*
X217635667Y-181288130D01*
X217711757Y-181327164D01*
X217905946Y-181351702D01*
X218051074Y-181356000D01*
X218296873Y-181349906D01*
X218411465Y-181318414D01*
X218432882Y-181241713D01*
X218416765Y-181165500D01*
X218389188Y-181035013D01*
X218430853Y-181042162D01*
X218522497Y-181130258D01*
X218858051Y-181353167D01*
X219248411Y-181430160D01*
X219646584Y-181353331D01*
X219808507Y-181227962D01*
X219958594Y-181019539D01*
X219977757Y-180981907D01*
X220039233Y-180837393D01*
X220070710Y-180696887D01*
X220071898Y-180519444D01*
X220042509Y-180264122D01*
X219982252Y-179889974D01*
X219969504Y-179815043D01*
X219887998Y-179333373D01*
X219826550Y-178993388D01*
X219772670Y-178770598D01*
X219713867Y-178640513D01*
X219637652Y-178578643D01*
X219531534Y-178560497D01*
X219383024Y-178561584D01*
G37*
X219383024Y-178561584D02*
X219330450Y-178562000D01*
X218926923Y-178562000D01*
X219084235Y-179429834D01*
X219150254Y-179806470D01*
X219202923Y-180130568D01*
X219235574Y-180359684D01*
X219242940Y-180439786D01*
X219174632Y-180643721D01*
X219006518Y-180780940D01*
X218800312Y-180802306D01*
X218790912Y-180799693D01*
X218599438Y-180717695D01*
X218454113Y-180583342D01*
X218340236Y-180368111D01*
X218243111Y-180043478D01*
X218148039Y-179580917D01*
X218139961Y-179536432D01*
X218073265Y-179164198D01*
X218019410Y-178859095D01*
X217984515Y-178656091D01*
X217974333Y-178589990D01*
X217898582Y-178573290D01*
X217706944Y-178563279D01*
X217593333Y-178562000D01*
X217437831Y-178561341D01*
X217327134Y-178574595D01*
X217258631Y-178624606D01*
X217229708Y-178734221D01*
X217237753Y-178926285D01*
X217280151Y-179223643D01*
X217354291Y-179649141D01*
X217424360Y-180039297D01*
X217500318Y-180468376D01*
X217564162Y-180837713D01*
X217610487Y-181115372D01*
X217633891Y-181269416D01*
X217635667Y-181288130D01*
X217711757Y-181327164D01*
X217905946Y-181351702D01*
X218051074Y-181356000D01*
X218296873Y-181349906D01*
X218411465Y-181318414D01*
X218432882Y-181241713D01*
X218416765Y-181165500D01*
X218389188Y-181035013D01*
X218430853Y-181042162D01*
X218522497Y-181130258D01*
X218858051Y-181353167D01*
X219248411Y-181430160D01*
X219646584Y-181353331D01*
X219808507Y-181227962D01*
X219958594Y-181019539D01*
X219977757Y-180981907D01*
X220039233Y-180837393D01*
X220070710Y-180696887D01*
X220071898Y-180519444D01*
X220042509Y-180264122D01*
X219982252Y-179889974D01*
X219969504Y-179815043D01*
X219887998Y-179333373D01*
X219826550Y-178993388D01*
X219772670Y-178770598D01*
X219713867Y-178640513D01*
X219637652Y-178578643D01*
X219531534Y-178560497D01*
X219383024Y-178561584D01*
G36*
X221121514Y-177094764D02*
G01*
X220708767Y-177334088D01*
X220460230Y-177596239D01*
X220333330Y-177771529D01*
X220296159Y-177888285D01*
X220365434Y-177986504D01*
X220557869Y-178106183D01*
X220707367Y-178187583D01*
X220866463Y-178260490D01*
X220977360Y-178244259D01*
X221106381Y-178119800D01*
X221159394Y-178057485D01*
X221357468Y-177873904D01*
X221582054Y-177804987D01*
X221701146Y-177800000D01*
X222010416Y-177853664D01*
X222217319Y-178000707D01*
X222292333Y-178219014D01*
X222260993Y-178351783D01*
X222150607Y-178481619D01*
X221936623Y-178628362D01*
X221594491Y-178811848D01*
X221501173Y-178858334D01*
X221045204Y-179143639D01*
X220750065Y-179472170D01*
X220611522Y-179849367D01*
X220599000Y-180018059D01*
X220677953Y-180439986D01*
X220893717Y-180835123D01*
X221214646Y-181159452D01*
X221557012Y-181350614D01*
X221812440Y-181408191D01*
X222145097Y-181433733D01*
X222489969Y-181427642D01*
X222782046Y-181390324D01*
X222927333Y-181342093D01*
X223205496Y-181143300D01*
X223478934Y-180876658D01*
X223678662Y-180610518D01*
X223694177Y-180582288D01*
X223754591Y-180444063D01*
X223738386Y-180344570D01*
X223621132Y-180236553D01*
X223457939Y-180125328D01*
X223236769Y-179992567D01*
X223115163Y-179960214D01*
X223066046Y-180010040D01*
X222985442Y-180139101D01*
X222828312Y-180324849D01*
X222752860Y-180403500D01*
X222473566Y-180601016D01*
X222179413Y-180678198D01*
X221905735Y-180644835D01*
X221687865Y-180510719D01*
X221561136Y-180285640D01*
X221546508Y-180069226D01*
X221580326Y-179920122D01*
X221669835Y-179798507D01*
X221849422Y-179671540D01*
X222114879Y-179526387D01*
X222417655Y-179357413D01*
X222684482Y-179188575D01*
X222853255Y-179060053D01*
X223093002Y-178734909D01*
X223187636Y-178372447D01*
X223147689Y-178002050D01*
X222983691Y-177653100D01*
X222706174Y-177354979D01*
X222325669Y-177137069D01*
X222142804Y-177077854D01*
X221601836Y-177008641D01*
X221121514Y-177094764D01*
G37*
X221121514Y-177094764D02*
X220708767Y-177334088D01*
X220460230Y-177596239D01*
X220333330Y-177771529D01*
X220296159Y-177888285D01*
X220365434Y-177986504D01*
X220557869Y-178106183D01*
X220707367Y-178187583D01*
X220866463Y-178260490D01*
X220977360Y-178244259D01*
X221106381Y-178119800D01*
X221159394Y-178057485D01*
X221357468Y-177873904D01*
X221582054Y-177804987D01*
X221701146Y-177800000D01*
X222010416Y-177853664D01*
X222217319Y-178000707D01*
X222292333Y-178219014D01*
X222260993Y-178351783D01*
X222150607Y-178481619D01*
X221936623Y-178628362D01*
X221594491Y-178811848D01*
X221501173Y-178858334D01*
X221045204Y-179143639D01*
X220750065Y-179472170D01*
X220611522Y-179849367D01*
X220599000Y-180018059D01*
X220677953Y-180439986D01*
X220893717Y-180835123D01*
X221214646Y-181159452D01*
X221557012Y-181350614D01*
X221812440Y-181408191D01*
X222145097Y-181433733D01*
X222489969Y-181427642D01*
X222782046Y-181390324D01*
X222927333Y-181342093D01*
X223205496Y-181143300D01*
X223478934Y-180876658D01*
X223678662Y-180610518D01*
X223694177Y-180582288D01*
X223754591Y-180444063D01*
X223738386Y-180344570D01*
X223621132Y-180236553D01*
X223457939Y-180125328D01*
X223236769Y-179992567D01*
X223115163Y-179960214D01*
X223066046Y-180010040D01*
X222985442Y-180139101D01*
X222828312Y-180324849D01*
X222752860Y-180403500D01*
X222473566Y-180601016D01*
X222179413Y-180678198D01*
X221905735Y-180644835D01*
X221687865Y-180510719D01*
X221561136Y-180285640D01*
X221546508Y-180069226D01*
X221580326Y-179920122D01*
X221669835Y-179798507D01*
X221849422Y-179671540D01*
X222114879Y-179526387D01*
X222417655Y-179357413D01*
X222684482Y-179188575D01*
X222853255Y-179060053D01*
X223093002Y-178734909D01*
X223187636Y-178372447D01*
X223147689Y-178002050D01*
X222983691Y-177653100D01*
X222706174Y-177354979D01*
X222325669Y-177137069D01*
X222142804Y-177077854D01*
X221601836Y-177008641D01*
X221121514Y-177094764D01*
G36*
X202156668Y-178747627D02*
G01*
X202233308Y-178871821D01*
X202383595Y-179119551D01*
X202594368Y-179468966D01*
X202852466Y-179898213D01*
X203144726Y-180385441D01*
X203408972Y-180826834D01*
X204535746Y-182710667D01*
X204952370Y-182710667D01*
X205183760Y-182699262D01*
X205318999Y-182670096D01*
X205334973Y-182647167D01*
X205279712Y-182551924D01*
X205157396Y-182344952D01*
X204987916Y-182059825D01*
X204848401Y-181825906D01*
X204395851Y-181068144D01*
X204578698Y-180386572D01*
X204692800Y-179967556D01*
X204817633Y-179518777D01*
X204926563Y-179135975D01*
X204928514Y-179129241D01*
X205095484Y-178553481D01*
X204658681Y-178578907D01*
X204221878Y-178604334D01*
X204069686Y-179281667D01*
X203993060Y-179613427D01*
X203925438Y-179889785D01*
X203878859Y-180061978D01*
X203871765Y-180083439D01*
X203813355Y-180072711D01*
X203690859Y-179921542D01*
X203513269Y-179642244D01*
X203377183Y-179406106D01*
X202928331Y-178604334D01*
X202031139Y-178552254D01*
X202156668Y-178747627D01*
G37*
X202156668Y-178747627D02*
X202233308Y-178871821D01*
X202383595Y-179119551D01*
X202594368Y-179468966D01*
X202852466Y-179898213D01*
X203144726Y-180385441D01*
X203408972Y-180826834D01*
X204535746Y-182710667D01*
X204952370Y-182710667D01*
X205183760Y-182699262D01*
X205318999Y-182670096D01*
X205334973Y-182647167D01*
X205279712Y-182551924D01*
X205157396Y-182344952D01*
X204987916Y-182059825D01*
X204848401Y-181825906D01*
X204395851Y-181068144D01*
X204578698Y-180386572D01*
X204692800Y-179967556D01*
X204817633Y-179518777D01*
X204926563Y-179135975D01*
X204928514Y-179129241D01*
X205095484Y-178553481D01*
X204658681Y-178578907D01*
X204221878Y-178604334D01*
X204069686Y-179281667D01*
X203993060Y-179613427D01*
X203925438Y-179889785D01*
X203878859Y-180061978D01*
X203871765Y-180083439D01*
X203813355Y-180072711D01*
X203690859Y-179921542D01*
X203513269Y-179642244D01*
X203377183Y-179406106D01*
X202928331Y-178604334D01*
X202031139Y-178552254D01*
X202156668Y-178747627D01*
G36*
X214336964Y-178552951D02*
G01*
X214067124Y-178697821D01*
X213820854Y-179023824D01*
X213686388Y-179436707D01*
X213669090Y-179891651D01*
X213774325Y-180343839D01*
X213850138Y-180510523D01*
X214166239Y-180959277D01*
X214559533Y-181260723D01*
X215023991Y-181410540D01*
X215121472Y-181421648D01*
X215396678Y-181434566D01*
X215575817Y-181400374D01*
X215730442Y-181296001D01*
X215841971Y-181189337D01*
X216011212Y-181035588D01*
X216094352Y-181005626D01*
X216111667Y-181062185D01*
X216126347Y-181206261D01*
X216165572Y-181469725D01*
X216222123Y-181805641D01*
X216249424Y-181957698D01*
X216387182Y-182710667D01*
X216791831Y-182710667D01*
X217036248Y-182701355D01*
X217148911Y-182663566D01*
X217166846Y-182582516D01*
X217162941Y-182562500D01*
X217138992Y-182437010D01*
X217091439Y-182171959D01*
X217025090Y-181794719D01*
X216944749Y-181332662D01*
X216855223Y-180813160D01*
X216832167Y-180678667D01*
X216725469Y-180050809D01*
X215903047Y-180050809D01*
X215869830Y-180336709D01*
X215724578Y-180568745D01*
X215600806Y-180655178D01*
X215451079Y-180730147D01*
X215353278Y-180751200D01*
X215232889Y-180716968D01*
X215061679Y-180645277D01*
X214767273Y-180452614D01*
X214573883Y-180186707D01*
X214491731Y-179887608D01*
X214531035Y-179595366D01*
X214702017Y-179350033D01*
X214726085Y-179330145D01*
X214908224Y-179202018D01*
X215055310Y-179165938D01*
X215238191Y-179217456D01*
X215393829Y-179288209D01*
X215658714Y-179484731D01*
X215830564Y-179752873D01*
X215903047Y-180050809D01*
X216725469Y-180050809D01*
X216721619Y-180028160D01*
X216635674Y-179525261D01*
X216567546Y-179151179D01*
X216510447Y-178887123D01*
X216457593Y-178714301D01*
X216402196Y-178613924D01*
X216337469Y-178567199D01*
X216256627Y-178555337D01*
X216152883Y-178559545D01*
X216067720Y-178562000D01*
X215815176Y-178579475D01*
X215701577Y-178637864D01*
X215688333Y-178686145D01*
X215659885Y-178749399D01*
X215552968Y-178723115D01*
X215388489Y-178633377D01*
X215064814Y-178516454D01*
X214692310Y-178490718D01*
X214336964Y-178552951D01*
G37*
X214336964Y-178552951D02*
X214067124Y-178697821D01*
X213820854Y-179023824D01*
X213686388Y-179436707D01*
X213669090Y-179891651D01*
X213774325Y-180343839D01*
X213850138Y-180510523D01*
X214166239Y-180959277D01*
X214559533Y-181260723D01*
X215023991Y-181410540D01*
X215121472Y-181421648D01*
X215396678Y-181434566D01*
X215575817Y-181400374D01*
X215730442Y-181296001D01*
X215841971Y-181189337D01*
X216011212Y-181035588D01*
X216094352Y-181005626D01*
X216111667Y-181062185D01*
X216126347Y-181206261D01*
X216165572Y-181469725D01*
X216222123Y-181805641D01*
X216249424Y-181957698D01*
X216387182Y-182710667D01*
X216791831Y-182710667D01*
X217036248Y-182701355D01*
X217148911Y-182663566D01*
X217166846Y-182582516D01*
X217162941Y-182562500D01*
X217138992Y-182437010D01*
X217091439Y-182171959D01*
X217025090Y-181794719D01*
X216944749Y-181332662D01*
X216855223Y-180813160D01*
X216832167Y-180678667D01*
X216725469Y-180050809D01*
X215903047Y-180050809D01*
X215869830Y-180336709D01*
X215724578Y-180568745D01*
X215600806Y-180655178D01*
X215451079Y-180730147D01*
X215353278Y-180751200D01*
X215232889Y-180716968D01*
X215061679Y-180645277D01*
X214767273Y-180452614D01*
X214573883Y-180186707D01*
X214491731Y-179887608D01*
X214531035Y-179595366D01*
X214702017Y-179350033D01*
X214726085Y-179330145D01*
X214908224Y-179202018D01*
X215055310Y-179165938D01*
X215238191Y-179217456D01*
X215393829Y-179288209D01*
X215658714Y-179484731D01*
X215830564Y-179752873D01*
X215903047Y-180050809D01*
X216725469Y-180050809D01*
X216721619Y-180028160D01*
X216635674Y-179525261D01*
X216567546Y-179151179D01*
X216510447Y-178887123D01*
X216457593Y-178714301D01*
X216402196Y-178613924D01*
X216337469Y-178567199D01*
X216256627Y-178555337D01*
X216152883Y-178559545D01*
X216067720Y-178562000D01*
X215815176Y-178579475D01*
X215701577Y-178637864D01*
X215688333Y-178686145D01*
X215659885Y-178749399D01*
X215552968Y-178723115D01*
X215388489Y-178633377D01*
X215064814Y-178516454D01*
X214692310Y-178490718D01*
X214336964Y-178552951D01*
G04 #@! TD*
%LPC*%
D11*
G04 #@! TO.C,J1*
X209931000Y-130302000D03*
G04 #@! TD*
D12*
G04 #@! TO.C,H1*
X42545000Y-60833000D03*
G04 #@! TD*
G04 #@! TO.C,H5*
X127889000Y-182118000D03*
G04 #@! TD*
G04 #@! TO.C,H7*
X165862000Y-140970000D03*
G04 #@! TD*
G04 #@! TO.C,H8*
X17526000Y-149860000D03*
G04 #@! TD*
G04 #@! TO.C,H9*
X171958000Y-187325000D03*
G04 #@! TD*
G04 #@! TO.C,H10*
X164338000Y-83947000D03*
G04 #@! TD*
G04 #@! TO.C,H11*
X256413000Y-84074000D03*
G04 #@! TD*
G04 #@! TO.C,H12*
X253365000Y-140716000D03*
G04 #@! TD*
G04 #@! TO.C,H13*
X401955000Y-149352000D03*
G04 #@! TD*
G04 #@! TO.C,H15*
X247904000Y-187198000D03*
G04 #@! TD*
G04 #@! TO.C,H16*
X292100000Y-182118000D03*
G04 #@! TD*
G04 #@! TO.C,H20*
X377698000Y-59817000D03*
G04 #@! TD*
M02*
