G04 #@! TF.GenerationSoftware,KiCad,Pcbnew,(5.1.10)-1*
G04 #@! TF.CreationDate,2021-10-09T15:29:01+01:00*
G04 #@! TF.ProjectId,superlyra-hs-backplate,73757065-726c-4797-9261-2d68732d6261,0.1*
G04 #@! TF.SameCoordinates,Original*
G04 #@! TF.FileFunction,Copper,L2,Bot*
G04 #@! TF.FilePolarity,Positive*
%FSLAX46Y46*%
G04 Gerber Fmt 4.6, Leading zero omitted, Abs format (unit mm)*
G04 Created by KiCad (PCBNEW (5.1.10)-1) date 2021-10-09 15:29:01*
%MOMM*%
%LPD*%
G01*
G04 APERTURE LIST*
G04 #@! TA.AperFunction,ComponentPad*
%ADD10C,1.752600*%
G04 #@! TD*
G04 #@! TA.AperFunction,ComponentPad*
%ADD11C,3.500000*%
G04 #@! TD*
G04 #@! TA.AperFunction,Conductor*
%ADD12C,0.254000*%
G04 #@! TD*
G04 #@! TA.AperFunction,Conductor*
%ADD13C,0.100000*%
G04 #@! TD*
G04 APERTURE END LIST*
D10*
G04 #@! TO.P,J1,1*
G04 #@! TO.N,GND*
X209931000Y-130302000D03*
G04 #@! TD*
D11*
G04 #@! TO.P,H1,1*
G04 #@! TO.N,N/C*
X42545000Y-60833000D03*
G04 #@! TD*
G04 #@! TO.P,H5,1*
G04 #@! TO.N,N/C*
X127889000Y-182118000D03*
G04 #@! TD*
G04 #@! TO.P,H7,1*
G04 #@! TO.N,N/C*
X165862000Y-140970000D03*
G04 #@! TD*
G04 #@! TO.P,H8,1*
G04 #@! TO.N,N/C*
X17526000Y-149860000D03*
G04 #@! TD*
G04 #@! TO.P,H9,1*
G04 #@! TO.N,N/C*
X171958000Y-187325000D03*
G04 #@! TD*
G04 #@! TO.P,H10,1*
G04 #@! TO.N,N/C*
X164338000Y-83947000D03*
G04 #@! TD*
G04 #@! TO.P,H11,1*
G04 #@! TO.N,N/C*
X256413000Y-84074000D03*
G04 #@! TD*
G04 #@! TO.P,H12,1*
G04 #@! TO.N,N/C*
X253365000Y-140716000D03*
G04 #@! TD*
G04 #@! TO.P,H13,1*
G04 #@! TO.N,N/C*
X401955000Y-149352000D03*
G04 #@! TD*
G04 #@! TO.P,H15,1*
G04 #@! TO.N,N/C*
X247904000Y-187198000D03*
G04 #@! TD*
G04 #@! TO.P,H16,1*
G04 #@! TO.N,N/C*
X292100000Y-182118000D03*
G04 #@! TD*
G04 #@! TO.P,H20,1*
G04 #@! TO.N,N/C*
X377698000Y-59817000D03*
G04 #@! TD*
D12*
G04 #@! TO.N,GND*
X43368474Y-57104132D02*
X44029161Y-57230165D01*
X44159189Y-57243144D01*
X44289461Y-57232891D01*
X44305643Y-57228646D01*
X81994717Y-67327403D01*
X82012802Y-67335030D01*
X82057370Y-67344191D01*
X82069858Y-67347537D01*
X82089128Y-67350719D01*
X82108240Y-67354647D01*
X82121086Y-67355995D01*
X82165990Y-67363409D01*
X82185611Y-67362766D01*
X172588584Y-76849833D01*
X172590617Y-76850450D01*
X172653146Y-76856608D01*
X172683358Y-76859779D01*
X172685474Y-76859793D01*
X172687581Y-76860000D01*
X172717976Y-76860000D01*
X172780789Y-76860401D01*
X172782874Y-76860000D01*
X247587084Y-76860000D01*
X247589121Y-76860392D01*
X247651835Y-76860000D01*
X247682419Y-76860000D01*
X247684491Y-76859796D01*
X247686552Y-76859783D01*
X247716648Y-76856629D01*
X247779383Y-76850450D01*
X247781378Y-76849845D01*
X337343759Y-67463242D01*
X337363234Y-67472066D01*
X337504235Y-67504942D01*
X337648939Y-67509679D01*
X337755992Y-67492005D01*
X367276166Y-59582098D01*
X375313000Y-59582098D01*
X375313000Y-60051902D01*
X375404654Y-60512679D01*
X375584440Y-60946721D01*
X375845450Y-61337349D01*
X376177651Y-61669550D01*
X376568279Y-61930560D01*
X377002321Y-62110346D01*
X377463098Y-62202000D01*
X377932902Y-62202000D01*
X378393679Y-62110346D01*
X378827721Y-61930560D01*
X379218349Y-61669550D01*
X379550550Y-61337349D01*
X379811560Y-60946721D01*
X379991346Y-60512679D01*
X380083000Y-60051902D01*
X380083000Y-59582098D01*
X379991346Y-59121321D01*
X379811560Y-58687279D01*
X379550550Y-58296651D01*
X379218349Y-57964450D01*
X378827721Y-57703440D01*
X378393679Y-57523654D01*
X377932902Y-57432000D01*
X377463098Y-57432000D01*
X377002321Y-57523654D01*
X376568279Y-57703440D01*
X376177651Y-57964450D01*
X375845450Y-58296651D01*
X375584440Y-58687279D01*
X375404654Y-59121321D01*
X375313000Y-59582098D01*
X367276166Y-59582098D01*
X375801731Y-57297680D01*
X376580566Y-57161751D01*
X377338309Y-57165719D01*
X378083367Y-57303807D01*
X378792202Y-57571654D01*
X379442393Y-57960786D01*
X380013407Y-58458913D01*
X380487185Y-59050284D01*
X380851524Y-59721313D01*
X381072721Y-60356504D01*
X381126496Y-60475601D01*
X381200511Y-60583293D01*
X381212279Y-60595185D01*
X404574123Y-147782778D01*
X404564066Y-147830091D01*
X404559962Y-147960700D01*
X404569688Y-148044759D01*
X404711245Y-148855843D01*
X404707277Y-149613586D01*
X404569189Y-150358642D01*
X404301345Y-151067472D01*
X403912205Y-151717678D01*
X403414080Y-152288689D01*
X402815379Y-152768339D01*
X402313247Y-153057719D01*
X402206277Y-153132773D01*
X402114289Y-153225584D01*
X402101224Y-153244561D01*
X383936259Y-162226164D01*
X383887891Y-162225581D01*
X383759013Y-162247171D01*
X383678494Y-162273193D01*
X382883604Y-162581669D01*
X382825268Y-162597907D01*
X382702994Y-162644001D01*
X382590814Y-162711020D01*
X382545511Y-162750478D01*
X279162530Y-190451865D01*
X140647807Y-190380885D01*
X128366423Y-187090098D01*
X169573000Y-187090098D01*
X169573000Y-187559902D01*
X169664654Y-188020679D01*
X169844440Y-188454721D01*
X170105450Y-188845349D01*
X170437651Y-189177550D01*
X170828279Y-189438560D01*
X171262321Y-189618346D01*
X171723098Y-189710000D01*
X172192902Y-189710000D01*
X172653679Y-189618346D01*
X173087721Y-189438560D01*
X173478349Y-189177550D01*
X173810550Y-188845349D01*
X174071560Y-188454721D01*
X174251346Y-188020679D01*
X174343000Y-187559902D01*
X174343000Y-187090098D01*
X174317739Y-186963098D01*
X245519000Y-186963098D01*
X245519000Y-187432902D01*
X245610654Y-187893679D01*
X245790440Y-188327721D01*
X246051450Y-188718349D01*
X246383651Y-189050550D01*
X246774279Y-189311560D01*
X247208321Y-189491346D01*
X247669098Y-189583000D01*
X248138902Y-189583000D01*
X248599679Y-189491346D01*
X249033721Y-189311560D01*
X249424349Y-189050550D01*
X249756550Y-188718349D01*
X250017560Y-188327721D01*
X250197346Y-187893679D01*
X250289000Y-187432902D01*
X250289000Y-186963098D01*
X250197346Y-186502321D01*
X250017560Y-186068279D01*
X249756550Y-185677651D01*
X249424349Y-185345450D01*
X249033721Y-185084440D01*
X248599679Y-184904654D01*
X248138902Y-184813000D01*
X247669098Y-184813000D01*
X247208321Y-184904654D01*
X246774279Y-185084440D01*
X246383651Y-185345450D01*
X246051450Y-185677651D01*
X245790440Y-186068279D01*
X245610654Y-186502321D01*
X245519000Y-186963098D01*
X174317739Y-186963098D01*
X174251346Y-186629321D01*
X174071560Y-186195279D01*
X173810550Y-185804651D01*
X173478349Y-185472450D01*
X173087721Y-185211440D01*
X172653679Y-185031654D01*
X172192902Y-184940000D01*
X171723098Y-184940000D01*
X171262321Y-185031654D01*
X170828279Y-185211440D01*
X170437651Y-185472450D01*
X170105450Y-185804651D01*
X169844440Y-186195279D01*
X169664654Y-186629321D01*
X169573000Y-187090098D01*
X128366423Y-187090098D01*
X108933634Y-181883098D01*
X125504000Y-181883098D01*
X125504000Y-182352902D01*
X125595654Y-182813679D01*
X125775440Y-183247721D01*
X126036450Y-183638349D01*
X126368651Y-183970550D01*
X126759279Y-184231560D01*
X127193321Y-184411346D01*
X127654098Y-184503000D01*
X128123902Y-184503000D01*
X128584679Y-184411346D01*
X129018721Y-184231560D01*
X129409349Y-183970550D01*
X129741550Y-183638349D01*
X130002560Y-183247721D01*
X130182346Y-182813679D01*
X130274000Y-182352902D01*
X130274000Y-181883098D01*
X289715000Y-181883098D01*
X289715000Y-182352902D01*
X289806654Y-182813679D01*
X289986440Y-183247721D01*
X290247450Y-183638349D01*
X290579651Y-183970550D01*
X290970279Y-184231560D01*
X291404321Y-184411346D01*
X291865098Y-184503000D01*
X292334902Y-184503000D01*
X292795679Y-184411346D01*
X293229721Y-184231560D01*
X293620349Y-183970550D01*
X293952550Y-183638349D01*
X294213560Y-183247721D01*
X294393346Y-182813679D01*
X294485000Y-182352902D01*
X294485000Y-181883098D01*
X294393346Y-181422321D01*
X294213560Y-180988279D01*
X293952550Y-180597651D01*
X293620349Y-180265450D01*
X293229721Y-180004440D01*
X292795679Y-179824654D01*
X292334902Y-179733000D01*
X291865098Y-179733000D01*
X291404321Y-179824654D01*
X290970279Y-180004440D01*
X290579651Y-180265450D01*
X290247450Y-180597651D01*
X289986440Y-180988279D01*
X289806654Y-181422321D01*
X289715000Y-181883098D01*
X130274000Y-181883098D01*
X130182346Y-181422321D01*
X130002560Y-180988279D01*
X129741550Y-180597651D01*
X129409349Y-180265450D01*
X129018721Y-180004440D01*
X128584679Y-179824654D01*
X128123902Y-179733000D01*
X127654098Y-179733000D01*
X127193321Y-179824654D01*
X126759279Y-180004440D01*
X126368651Y-180265450D01*
X126036450Y-180597651D01*
X125775440Y-180988279D01*
X125595654Y-181422321D01*
X125504000Y-181883098D01*
X108933634Y-181883098D01*
X37264887Y-162679516D01*
X37228940Y-162647149D01*
X37117881Y-162578289D01*
X37040221Y-162544683D01*
X36239512Y-162251665D01*
X36184965Y-162225349D01*
X36062690Y-162179255D01*
X35934185Y-162155544D01*
X35874111Y-162155277D01*
X17706665Y-153172449D01*
X17677763Y-153133661D01*
X17582365Y-153044358D01*
X17512804Y-152996174D01*
X16810115Y-152567083D01*
X16243553Y-152063890D01*
X15825308Y-151532207D01*
X16005651Y-151712550D01*
X16396279Y-151973560D01*
X16830321Y-152153346D01*
X17291098Y-152245000D01*
X17760902Y-152245000D01*
X18221679Y-152153346D01*
X18655721Y-151973560D01*
X19046349Y-151712550D01*
X19378550Y-151380349D01*
X19639560Y-150989721D01*
X19819346Y-150555679D01*
X19911000Y-150094902D01*
X19911000Y-149625098D01*
X19819346Y-149164321D01*
X19799786Y-149117098D01*
X399570000Y-149117098D01*
X399570000Y-149586902D01*
X399661654Y-150047679D01*
X399841440Y-150481721D01*
X400102450Y-150872349D01*
X400434651Y-151204550D01*
X400825279Y-151465560D01*
X401259321Y-151645346D01*
X401720098Y-151737000D01*
X402189902Y-151737000D01*
X402650679Y-151645346D01*
X403084721Y-151465560D01*
X403475349Y-151204550D01*
X403807550Y-150872349D01*
X404068560Y-150481721D01*
X404248346Y-150047679D01*
X404340000Y-149586902D01*
X404340000Y-149117098D01*
X404248346Y-148656321D01*
X404068560Y-148222279D01*
X403807550Y-147831651D01*
X403475349Y-147499450D01*
X403084721Y-147238440D01*
X402650679Y-147058654D01*
X402189902Y-146967000D01*
X401720098Y-146967000D01*
X401259321Y-147058654D01*
X400825279Y-147238440D01*
X400434651Y-147499450D01*
X400102450Y-147831651D01*
X399841440Y-148222279D01*
X399661654Y-148656321D01*
X399570000Y-149117098D01*
X19799786Y-149117098D01*
X19639560Y-148730279D01*
X19378550Y-148339651D01*
X19046349Y-148007450D01*
X18655721Y-147746440D01*
X18221679Y-147566654D01*
X17760902Y-147475000D01*
X17291098Y-147475000D01*
X16830321Y-147566654D01*
X16396279Y-147746440D01*
X16005651Y-148007450D01*
X15673450Y-148339651D01*
X15412440Y-148730279D01*
X15232654Y-149164321D01*
X15141000Y-149625098D01*
X15141000Y-149725600D01*
X15087832Y-149326593D01*
X15122765Y-148560234D01*
X15236870Y-147992034D01*
X15251108Y-147862138D01*
X15242117Y-147731773D01*
X15236486Y-147709431D01*
X17105252Y-140735098D01*
X163477000Y-140735098D01*
X163477000Y-141204902D01*
X163568654Y-141665679D01*
X163748440Y-142099721D01*
X164009450Y-142490349D01*
X164341651Y-142822550D01*
X164732279Y-143083560D01*
X165166321Y-143263346D01*
X165627098Y-143355000D01*
X166096902Y-143355000D01*
X166557679Y-143263346D01*
X166991721Y-143083560D01*
X167382349Y-142822550D01*
X167714550Y-142490349D01*
X167975560Y-142099721D01*
X168155346Y-141665679D01*
X168247000Y-141204902D01*
X168247000Y-140735098D01*
X168196477Y-140481098D01*
X250980000Y-140481098D01*
X250980000Y-140950902D01*
X251071654Y-141411679D01*
X251251440Y-141845721D01*
X251512450Y-142236349D01*
X251844651Y-142568550D01*
X252235279Y-142829560D01*
X252669321Y-143009346D01*
X253130098Y-143101000D01*
X253599902Y-143101000D01*
X254060679Y-143009346D01*
X254494721Y-142829560D01*
X254885349Y-142568550D01*
X255217550Y-142236349D01*
X255478560Y-141845721D01*
X255658346Y-141411679D01*
X255750000Y-140950902D01*
X255750000Y-140481098D01*
X255658346Y-140020321D01*
X255478560Y-139586279D01*
X255217550Y-139195651D01*
X254885349Y-138863450D01*
X254494721Y-138602440D01*
X254060679Y-138422654D01*
X253599902Y-138331000D01*
X253130098Y-138331000D01*
X252669321Y-138422654D01*
X252235279Y-138602440D01*
X251844651Y-138863450D01*
X251512450Y-139195651D01*
X251251440Y-139586279D01*
X251071654Y-140020321D01*
X250980000Y-140481098D01*
X168196477Y-140481098D01*
X168155346Y-140274321D01*
X167975560Y-139840279D01*
X167714550Y-139449651D01*
X167382349Y-139117450D01*
X166991721Y-138856440D01*
X166557679Y-138676654D01*
X166096902Y-138585000D01*
X165627098Y-138585000D01*
X165166321Y-138676654D01*
X164732279Y-138856440D01*
X164341651Y-139117450D01*
X164009450Y-139449651D01*
X163748440Y-139840279D01*
X163568654Y-140274321D01*
X163477000Y-140735098D01*
X17105252Y-140735098D01*
X32384519Y-83712098D01*
X161953000Y-83712098D01*
X161953000Y-84181902D01*
X162044654Y-84642679D01*
X162224440Y-85076721D01*
X162485450Y-85467349D01*
X162817651Y-85799550D01*
X163208279Y-86060560D01*
X163642321Y-86240346D01*
X164103098Y-86332000D01*
X164572902Y-86332000D01*
X165033679Y-86240346D01*
X165467721Y-86060560D01*
X165858349Y-85799550D01*
X166190550Y-85467349D01*
X166451560Y-85076721D01*
X166631346Y-84642679D01*
X166723000Y-84181902D01*
X166723000Y-83839098D01*
X254028000Y-83839098D01*
X254028000Y-84308902D01*
X254119654Y-84769679D01*
X254299440Y-85203721D01*
X254560450Y-85594349D01*
X254892651Y-85926550D01*
X255283279Y-86187560D01*
X255717321Y-86367346D01*
X256178098Y-86459000D01*
X256647902Y-86459000D01*
X257108679Y-86367346D01*
X257542721Y-86187560D01*
X257933349Y-85926550D01*
X258265550Y-85594349D01*
X258526560Y-85203721D01*
X258706346Y-84769679D01*
X258798000Y-84308902D01*
X258798000Y-83839098D01*
X258706346Y-83378321D01*
X258526560Y-82944279D01*
X258265550Y-82553651D01*
X257933349Y-82221450D01*
X257542721Y-81960440D01*
X257108679Y-81780654D01*
X256647902Y-81689000D01*
X256178098Y-81689000D01*
X255717321Y-81780654D01*
X255283279Y-81960440D01*
X254892651Y-82221450D01*
X254560450Y-82553651D01*
X254299440Y-82944279D01*
X254119654Y-83378321D01*
X254028000Y-83839098D01*
X166723000Y-83839098D01*
X166723000Y-83712098D01*
X166631346Y-83251321D01*
X166451560Y-82817279D01*
X166190550Y-82426651D01*
X165858349Y-82094450D01*
X165467721Y-81833440D01*
X165033679Y-81653654D01*
X164572902Y-81562000D01*
X164103098Y-81562000D01*
X163642321Y-81653654D01*
X163208279Y-81833440D01*
X162817651Y-82094450D01*
X162485450Y-82426651D01*
X162224440Y-82817279D01*
X162044654Y-83251321D01*
X161953000Y-83712098D01*
X32384519Y-83712098D01*
X38577897Y-60598098D01*
X40160000Y-60598098D01*
X40160000Y-61067902D01*
X40251654Y-61528679D01*
X40431440Y-61962721D01*
X40692450Y-62353349D01*
X41024651Y-62685550D01*
X41415279Y-62946560D01*
X41849321Y-63126346D01*
X42310098Y-63218000D01*
X42779902Y-63218000D01*
X43240679Y-63126346D01*
X43674721Y-62946560D01*
X44065349Y-62685550D01*
X44397550Y-62353349D01*
X44658560Y-61962721D01*
X44838346Y-61528679D01*
X44930000Y-61067902D01*
X44930000Y-60598098D01*
X44838346Y-60137321D01*
X44658560Y-59703279D01*
X44397550Y-59312651D01*
X44065349Y-58980450D01*
X43674721Y-58719440D01*
X43240679Y-58539654D01*
X42779902Y-58448000D01*
X42310098Y-58448000D01*
X41849321Y-58539654D01*
X41415279Y-58719440D01*
X41024651Y-58980450D01*
X40692450Y-59312651D01*
X40431440Y-59703279D01*
X40251654Y-60137321D01*
X40160000Y-60598098D01*
X38577897Y-60598098D01*
X38598563Y-60520974D01*
X38630930Y-60485027D01*
X38699790Y-60373968D01*
X38733396Y-60296308D01*
X39016347Y-59523109D01*
X39398655Y-58868867D01*
X39890772Y-58292673D01*
X40477148Y-57812730D01*
X41139247Y-57444211D01*
X41856144Y-57198763D01*
X42605173Y-57084145D01*
X43368474Y-57104132D01*
G04 #@! TA.AperFunction,Conductor*
D13*
G36*
X43368474Y-57104132D02*
G01*
X44029161Y-57230165D01*
X44159189Y-57243144D01*
X44289461Y-57232891D01*
X44305643Y-57228646D01*
X81994717Y-67327403D01*
X82012802Y-67335030D01*
X82057370Y-67344191D01*
X82069858Y-67347537D01*
X82089128Y-67350719D01*
X82108240Y-67354647D01*
X82121086Y-67355995D01*
X82165990Y-67363409D01*
X82185611Y-67362766D01*
X172588584Y-76849833D01*
X172590617Y-76850450D01*
X172653146Y-76856608D01*
X172683358Y-76859779D01*
X172685474Y-76859793D01*
X172687581Y-76860000D01*
X172717976Y-76860000D01*
X172780789Y-76860401D01*
X172782874Y-76860000D01*
X247587084Y-76860000D01*
X247589121Y-76860392D01*
X247651835Y-76860000D01*
X247682419Y-76860000D01*
X247684491Y-76859796D01*
X247686552Y-76859783D01*
X247716648Y-76856629D01*
X247779383Y-76850450D01*
X247781378Y-76849845D01*
X337343759Y-67463242D01*
X337363234Y-67472066D01*
X337504235Y-67504942D01*
X337648939Y-67509679D01*
X337755992Y-67492005D01*
X367276166Y-59582098D01*
X375313000Y-59582098D01*
X375313000Y-60051902D01*
X375404654Y-60512679D01*
X375584440Y-60946721D01*
X375845450Y-61337349D01*
X376177651Y-61669550D01*
X376568279Y-61930560D01*
X377002321Y-62110346D01*
X377463098Y-62202000D01*
X377932902Y-62202000D01*
X378393679Y-62110346D01*
X378827721Y-61930560D01*
X379218349Y-61669550D01*
X379550550Y-61337349D01*
X379811560Y-60946721D01*
X379991346Y-60512679D01*
X380083000Y-60051902D01*
X380083000Y-59582098D01*
X379991346Y-59121321D01*
X379811560Y-58687279D01*
X379550550Y-58296651D01*
X379218349Y-57964450D01*
X378827721Y-57703440D01*
X378393679Y-57523654D01*
X377932902Y-57432000D01*
X377463098Y-57432000D01*
X377002321Y-57523654D01*
X376568279Y-57703440D01*
X376177651Y-57964450D01*
X375845450Y-58296651D01*
X375584440Y-58687279D01*
X375404654Y-59121321D01*
X375313000Y-59582098D01*
X367276166Y-59582098D01*
X375801731Y-57297680D01*
X376580566Y-57161751D01*
X377338309Y-57165719D01*
X378083367Y-57303807D01*
X378792202Y-57571654D01*
X379442393Y-57960786D01*
X380013407Y-58458913D01*
X380487185Y-59050284D01*
X380851524Y-59721313D01*
X381072721Y-60356504D01*
X381126496Y-60475601D01*
X381200511Y-60583293D01*
X381212279Y-60595185D01*
X404574123Y-147782778D01*
X404564066Y-147830091D01*
X404559962Y-147960700D01*
X404569688Y-148044759D01*
X404711245Y-148855843D01*
X404707277Y-149613586D01*
X404569189Y-150358642D01*
X404301345Y-151067472D01*
X403912205Y-151717678D01*
X403414080Y-152288689D01*
X402815379Y-152768339D01*
X402313247Y-153057719D01*
X402206277Y-153132773D01*
X402114289Y-153225584D01*
X402101224Y-153244561D01*
X383936259Y-162226164D01*
X383887891Y-162225581D01*
X383759013Y-162247171D01*
X383678494Y-162273193D01*
X382883604Y-162581669D01*
X382825268Y-162597907D01*
X382702994Y-162644001D01*
X382590814Y-162711020D01*
X382545511Y-162750478D01*
X279162530Y-190451865D01*
X140647807Y-190380885D01*
X128366423Y-187090098D01*
X169573000Y-187090098D01*
X169573000Y-187559902D01*
X169664654Y-188020679D01*
X169844440Y-188454721D01*
X170105450Y-188845349D01*
X170437651Y-189177550D01*
X170828279Y-189438560D01*
X171262321Y-189618346D01*
X171723098Y-189710000D01*
X172192902Y-189710000D01*
X172653679Y-189618346D01*
X173087721Y-189438560D01*
X173478349Y-189177550D01*
X173810550Y-188845349D01*
X174071560Y-188454721D01*
X174251346Y-188020679D01*
X174343000Y-187559902D01*
X174343000Y-187090098D01*
X174317739Y-186963098D01*
X245519000Y-186963098D01*
X245519000Y-187432902D01*
X245610654Y-187893679D01*
X245790440Y-188327721D01*
X246051450Y-188718349D01*
X246383651Y-189050550D01*
X246774279Y-189311560D01*
X247208321Y-189491346D01*
X247669098Y-189583000D01*
X248138902Y-189583000D01*
X248599679Y-189491346D01*
X249033721Y-189311560D01*
X249424349Y-189050550D01*
X249756550Y-188718349D01*
X250017560Y-188327721D01*
X250197346Y-187893679D01*
X250289000Y-187432902D01*
X250289000Y-186963098D01*
X250197346Y-186502321D01*
X250017560Y-186068279D01*
X249756550Y-185677651D01*
X249424349Y-185345450D01*
X249033721Y-185084440D01*
X248599679Y-184904654D01*
X248138902Y-184813000D01*
X247669098Y-184813000D01*
X247208321Y-184904654D01*
X246774279Y-185084440D01*
X246383651Y-185345450D01*
X246051450Y-185677651D01*
X245790440Y-186068279D01*
X245610654Y-186502321D01*
X245519000Y-186963098D01*
X174317739Y-186963098D01*
X174251346Y-186629321D01*
X174071560Y-186195279D01*
X173810550Y-185804651D01*
X173478349Y-185472450D01*
X173087721Y-185211440D01*
X172653679Y-185031654D01*
X172192902Y-184940000D01*
X171723098Y-184940000D01*
X171262321Y-185031654D01*
X170828279Y-185211440D01*
X170437651Y-185472450D01*
X170105450Y-185804651D01*
X169844440Y-186195279D01*
X169664654Y-186629321D01*
X169573000Y-187090098D01*
X128366423Y-187090098D01*
X108933634Y-181883098D01*
X125504000Y-181883098D01*
X125504000Y-182352902D01*
X125595654Y-182813679D01*
X125775440Y-183247721D01*
X126036450Y-183638349D01*
X126368651Y-183970550D01*
X126759279Y-184231560D01*
X127193321Y-184411346D01*
X127654098Y-184503000D01*
X128123902Y-184503000D01*
X128584679Y-184411346D01*
X129018721Y-184231560D01*
X129409349Y-183970550D01*
X129741550Y-183638349D01*
X130002560Y-183247721D01*
X130182346Y-182813679D01*
X130274000Y-182352902D01*
X130274000Y-181883098D01*
X289715000Y-181883098D01*
X289715000Y-182352902D01*
X289806654Y-182813679D01*
X289986440Y-183247721D01*
X290247450Y-183638349D01*
X290579651Y-183970550D01*
X290970279Y-184231560D01*
X291404321Y-184411346D01*
X291865098Y-184503000D01*
X292334902Y-184503000D01*
X292795679Y-184411346D01*
X293229721Y-184231560D01*
X293620349Y-183970550D01*
X293952550Y-183638349D01*
X294213560Y-183247721D01*
X294393346Y-182813679D01*
X294485000Y-182352902D01*
X294485000Y-181883098D01*
X294393346Y-181422321D01*
X294213560Y-180988279D01*
X293952550Y-180597651D01*
X293620349Y-180265450D01*
X293229721Y-180004440D01*
X292795679Y-179824654D01*
X292334902Y-179733000D01*
X291865098Y-179733000D01*
X291404321Y-179824654D01*
X290970279Y-180004440D01*
X290579651Y-180265450D01*
X290247450Y-180597651D01*
X289986440Y-180988279D01*
X289806654Y-181422321D01*
X289715000Y-181883098D01*
X130274000Y-181883098D01*
X130182346Y-181422321D01*
X130002560Y-180988279D01*
X129741550Y-180597651D01*
X129409349Y-180265450D01*
X129018721Y-180004440D01*
X128584679Y-179824654D01*
X128123902Y-179733000D01*
X127654098Y-179733000D01*
X127193321Y-179824654D01*
X126759279Y-180004440D01*
X126368651Y-180265450D01*
X126036450Y-180597651D01*
X125775440Y-180988279D01*
X125595654Y-181422321D01*
X125504000Y-181883098D01*
X108933634Y-181883098D01*
X37264887Y-162679516D01*
X37228940Y-162647149D01*
X37117881Y-162578289D01*
X37040221Y-162544683D01*
X36239512Y-162251665D01*
X36184965Y-162225349D01*
X36062690Y-162179255D01*
X35934185Y-162155544D01*
X35874111Y-162155277D01*
X17706665Y-153172449D01*
X17677763Y-153133661D01*
X17582365Y-153044358D01*
X17512804Y-152996174D01*
X16810115Y-152567083D01*
X16243553Y-152063890D01*
X15825308Y-151532207D01*
X16005651Y-151712550D01*
X16396279Y-151973560D01*
X16830321Y-152153346D01*
X17291098Y-152245000D01*
X17760902Y-152245000D01*
X18221679Y-152153346D01*
X18655721Y-151973560D01*
X19046349Y-151712550D01*
X19378550Y-151380349D01*
X19639560Y-150989721D01*
X19819346Y-150555679D01*
X19911000Y-150094902D01*
X19911000Y-149625098D01*
X19819346Y-149164321D01*
X19799786Y-149117098D01*
X399570000Y-149117098D01*
X399570000Y-149586902D01*
X399661654Y-150047679D01*
X399841440Y-150481721D01*
X400102450Y-150872349D01*
X400434651Y-151204550D01*
X400825279Y-151465560D01*
X401259321Y-151645346D01*
X401720098Y-151737000D01*
X402189902Y-151737000D01*
X402650679Y-151645346D01*
X403084721Y-151465560D01*
X403475349Y-151204550D01*
X403807550Y-150872349D01*
X404068560Y-150481721D01*
X404248346Y-150047679D01*
X404340000Y-149586902D01*
X404340000Y-149117098D01*
X404248346Y-148656321D01*
X404068560Y-148222279D01*
X403807550Y-147831651D01*
X403475349Y-147499450D01*
X403084721Y-147238440D01*
X402650679Y-147058654D01*
X402189902Y-146967000D01*
X401720098Y-146967000D01*
X401259321Y-147058654D01*
X400825279Y-147238440D01*
X400434651Y-147499450D01*
X400102450Y-147831651D01*
X399841440Y-148222279D01*
X399661654Y-148656321D01*
X399570000Y-149117098D01*
X19799786Y-149117098D01*
X19639560Y-148730279D01*
X19378550Y-148339651D01*
X19046349Y-148007450D01*
X18655721Y-147746440D01*
X18221679Y-147566654D01*
X17760902Y-147475000D01*
X17291098Y-147475000D01*
X16830321Y-147566654D01*
X16396279Y-147746440D01*
X16005651Y-148007450D01*
X15673450Y-148339651D01*
X15412440Y-148730279D01*
X15232654Y-149164321D01*
X15141000Y-149625098D01*
X15141000Y-149725600D01*
X15087832Y-149326593D01*
X15122765Y-148560234D01*
X15236870Y-147992034D01*
X15251108Y-147862138D01*
X15242117Y-147731773D01*
X15236486Y-147709431D01*
X17105252Y-140735098D01*
X163477000Y-140735098D01*
X163477000Y-141204902D01*
X163568654Y-141665679D01*
X163748440Y-142099721D01*
X164009450Y-142490349D01*
X164341651Y-142822550D01*
X164732279Y-143083560D01*
X165166321Y-143263346D01*
X165627098Y-143355000D01*
X166096902Y-143355000D01*
X166557679Y-143263346D01*
X166991721Y-143083560D01*
X167382349Y-142822550D01*
X167714550Y-142490349D01*
X167975560Y-142099721D01*
X168155346Y-141665679D01*
X168247000Y-141204902D01*
X168247000Y-140735098D01*
X168196477Y-140481098D01*
X250980000Y-140481098D01*
X250980000Y-140950902D01*
X251071654Y-141411679D01*
X251251440Y-141845721D01*
X251512450Y-142236349D01*
X251844651Y-142568550D01*
X252235279Y-142829560D01*
X252669321Y-143009346D01*
X253130098Y-143101000D01*
X253599902Y-143101000D01*
X254060679Y-143009346D01*
X254494721Y-142829560D01*
X254885349Y-142568550D01*
X255217550Y-142236349D01*
X255478560Y-141845721D01*
X255658346Y-141411679D01*
X255750000Y-140950902D01*
X255750000Y-140481098D01*
X255658346Y-140020321D01*
X255478560Y-139586279D01*
X255217550Y-139195651D01*
X254885349Y-138863450D01*
X254494721Y-138602440D01*
X254060679Y-138422654D01*
X253599902Y-138331000D01*
X253130098Y-138331000D01*
X252669321Y-138422654D01*
X252235279Y-138602440D01*
X251844651Y-138863450D01*
X251512450Y-139195651D01*
X251251440Y-139586279D01*
X251071654Y-140020321D01*
X250980000Y-140481098D01*
X168196477Y-140481098D01*
X168155346Y-140274321D01*
X167975560Y-139840279D01*
X167714550Y-139449651D01*
X167382349Y-139117450D01*
X166991721Y-138856440D01*
X166557679Y-138676654D01*
X166096902Y-138585000D01*
X165627098Y-138585000D01*
X165166321Y-138676654D01*
X164732279Y-138856440D01*
X164341651Y-139117450D01*
X164009450Y-139449651D01*
X163748440Y-139840279D01*
X163568654Y-140274321D01*
X163477000Y-140735098D01*
X17105252Y-140735098D01*
X32384519Y-83712098D01*
X161953000Y-83712098D01*
X161953000Y-84181902D01*
X162044654Y-84642679D01*
X162224440Y-85076721D01*
X162485450Y-85467349D01*
X162817651Y-85799550D01*
X163208279Y-86060560D01*
X163642321Y-86240346D01*
X164103098Y-86332000D01*
X164572902Y-86332000D01*
X165033679Y-86240346D01*
X165467721Y-86060560D01*
X165858349Y-85799550D01*
X166190550Y-85467349D01*
X166451560Y-85076721D01*
X166631346Y-84642679D01*
X166723000Y-84181902D01*
X166723000Y-83839098D01*
X254028000Y-83839098D01*
X254028000Y-84308902D01*
X254119654Y-84769679D01*
X254299440Y-85203721D01*
X254560450Y-85594349D01*
X254892651Y-85926550D01*
X255283279Y-86187560D01*
X255717321Y-86367346D01*
X256178098Y-86459000D01*
X256647902Y-86459000D01*
X257108679Y-86367346D01*
X257542721Y-86187560D01*
X257933349Y-85926550D01*
X258265550Y-85594349D01*
X258526560Y-85203721D01*
X258706346Y-84769679D01*
X258798000Y-84308902D01*
X258798000Y-83839098D01*
X258706346Y-83378321D01*
X258526560Y-82944279D01*
X258265550Y-82553651D01*
X257933349Y-82221450D01*
X257542721Y-81960440D01*
X257108679Y-81780654D01*
X256647902Y-81689000D01*
X256178098Y-81689000D01*
X255717321Y-81780654D01*
X255283279Y-81960440D01*
X254892651Y-82221450D01*
X254560450Y-82553651D01*
X254299440Y-82944279D01*
X254119654Y-83378321D01*
X254028000Y-83839098D01*
X166723000Y-83839098D01*
X166723000Y-83712098D01*
X166631346Y-83251321D01*
X166451560Y-82817279D01*
X166190550Y-82426651D01*
X165858349Y-82094450D01*
X165467721Y-81833440D01*
X165033679Y-81653654D01*
X164572902Y-81562000D01*
X164103098Y-81562000D01*
X163642321Y-81653654D01*
X163208279Y-81833440D01*
X162817651Y-82094450D01*
X162485450Y-82426651D01*
X162224440Y-82817279D01*
X162044654Y-83251321D01*
X161953000Y-83712098D01*
X32384519Y-83712098D01*
X38577897Y-60598098D01*
X40160000Y-60598098D01*
X40160000Y-61067902D01*
X40251654Y-61528679D01*
X40431440Y-61962721D01*
X40692450Y-62353349D01*
X41024651Y-62685550D01*
X41415279Y-62946560D01*
X41849321Y-63126346D01*
X42310098Y-63218000D01*
X42779902Y-63218000D01*
X43240679Y-63126346D01*
X43674721Y-62946560D01*
X44065349Y-62685550D01*
X44397550Y-62353349D01*
X44658560Y-61962721D01*
X44838346Y-61528679D01*
X44930000Y-61067902D01*
X44930000Y-60598098D01*
X44838346Y-60137321D01*
X44658560Y-59703279D01*
X44397550Y-59312651D01*
X44065349Y-58980450D01*
X43674721Y-58719440D01*
X43240679Y-58539654D01*
X42779902Y-58448000D01*
X42310098Y-58448000D01*
X41849321Y-58539654D01*
X41415279Y-58719440D01*
X41024651Y-58980450D01*
X40692450Y-59312651D01*
X40431440Y-59703279D01*
X40251654Y-60137321D01*
X40160000Y-60598098D01*
X38577897Y-60598098D01*
X38598563Y-60520974D01*
X38630930Y-60485027D01*
X38699790Y-60373968D01*
X38733396Y-60296308D01*
X39016347Y-59523109D01*
X39398655Y-58868867D01*
X39890772Y-58292673D01*
X40477148Y-57812730D01*
X41139247Y-57444211D01*
X41856144Y-57198763D01*
X42605173Y-57084145D01*
X43368474Y-57104132D01*
G37*
G04 #@! TD.AperFunction*
G04 #@! TD*
M02*
