%FSLAX45Y45*%
G04 Gerber Fmt 4.5, Leading zero omitted, Abs format (unit mm)*
G04 Created by KiCad (PCBNEW (5.1.10)-1) date 2021-10-09 15:29:12*
%MOMM*%
%LPD*%
G01*
G04 APERTURE LIST*
%TA.AperFunction,Profile*%
%ADD10C,0.200000*%
%TD*%
%TA.AperFunction,Profile*%
%ADD11C,0.050000*%
%TD*%
%ADD12C,0.200000*%
%ADD13C,0.300000*%
G04 APERTURE END LIST*
D10*
X37564311Y-5657925D02*
X33760064Y-6677270D01*
D11*
X24765000Y-7620000D02*
X33760064Y-6677270D01*
X17272000Y-7620000D02*
X24765000Y-7620000D01*
X17272000Y-7620000D02*
X8220936Y-6670164D01*
X4416689Y-5650818D02*
X8220936Y-6670164D01*
X1451626Y-14784732D02*
X3804316Y-6004372D01*
X3586559Y-16288734D02*
X1712975Y-15362347D01*
X14056075Y-19104084D02*
X3678763Y-16323492D01*
X27924925Y-19111191D02*
X14056075Y-19104084D01*
X38302237Y-16330599D02*
X27924925Y-19111191D01*
X40268025Y-15369454D02*
X38394441Y-16295840D01*
X40529374Y-14791839D02*
X38176684Y-6011479D01*
D10*
X38176684Y-6011479D02*
G75*
G03*
X37564311Y-5657925I-482963J-129410D01*
G01*
X40268025Y-15369454D02*
G75*
G03*
X40529374Y-14791839I-221613J448205D01*
G01*
X38302237Y-16330599D02*
G75*
G03*
X38394441Y-16295840I-129410J482963D01*
G01*
X3678763Y-16323492D02*
G75*
G02*
X3586559Y-16288734I129410J482963D01*
G01*
X3804316Y-6004372D02*
G75*
G02*
X4416689Y-5650818I482963J-129410D01*
G01*
X1712975Y-15362347D02*
G75*
G02*
X1451626Y-14784732I221613J448205D01*
G01*
D12*
D13*
X1711017Y-19579405D02*
X1711017Y-19279405D01*
X1782446Y-19279405D01*
X1825303Y-19293691D01*
X1853874Y-19322262D01*
X1868160Y-19350834D01*
X1882446Y-19407977D01*
X1882446Y-19450834D01*
X1868160Y-19507977D01*
X1853874Y-19536548D01*
X1825303Y-19565120D01*
X1782446Y-19579405D01*
X1711017Y-19579405D01*
X2011017Y-19579405D02*
X2011017Y-19379405D01*
X2011017Y-19436548D02*
X2025303Y-19407977D01*
X2039588Y-19393691D01*
X2068160Y-19379405D01*
X2096731Y-19379405D01*
X2196731Y-19579405D02*
X2196731Y-19379405D01*
X2196731Y-19279405D02*
X2182446Y-19293691D01*
X2196731Y-19307977D01*
X2211017Y-19293691D01*
X2196731Y-19279405D01*
X2196731Y-19307977D01*
X2382446Y-19579405D02*
X2353874Y-19565120D01*
X2339589Y-19536548D01*
X2339589Y-19279405D01*
X2539589Y-19579405D02*
X2511017Y-19565120D01*
X2496731Y-19536548D01*
X2496731Y-19279405D01*
X2882446Y-19579405D02*
X2882446Y-19279405D01*
X2982446Y-19493691D01*
X3082446Y-19279405D01*
X3082446Y-19579405D01*
X3353874Y-19579405D02*
X3353874Y-19422262D01*
X3339588Y-19393691D01*
X3311017Y-19379405D01*
X3253874Y-19379405D01*
X3225303Y-19393691D01*
X3353874Y-19565120D02*
X3325303Y-19579405D01*
X3253874Y-19579405D01*
X3225303Y-19565120D01*
X3211017Y-19536548D01*
X3211017Y-19507977D01*
X3225303Y-19479405D01*
X3253874Y-19465120D01*
X3325303Y-19465120D01*
X3353874Y-19450834D01*
X3496731Y-19379405D02*
X3496731Y-19679405D01*
X3496731Y-19393691D02*
X3525303Y-19379405D01*
X3582446Y-19379405D01*
X3611017Y-19393691D01*
X3625303Y-19407977D01*
X3639588Y-19436548D01*
X3639588Y-19522262D01*
X3625303Y-19550834D01*
X3611017Y-19565120D01*
X3582446Y-19579405D01*
X3525303Y-19579405D01*
X3496731Y-19565120D01*
X3768160Y-19550834D02*
X3782446Y-19565120D01*
X3768160Y-19579405D01*
X3753874Y-19565120D01*
X3768160Y-19550834D01*
X3768160Y-19579405D01*
X3768160Y-19393691D02*
X3782446Y-19407977D01*
X3768160Y-19422262D01*
X3753874Y-19407977D01*
X3768160Y-19393691D01*
X3768160Y-19422262D01*
M02*
