G04 #@! TF.GenerationSoftware,KiCad,Pcbnew,(5.1.10)-1*
G04 #@! TF.CreationDate,2021-10-09T22:27:19+01:00*
G04 #@! TF.ProjectId,superlyra-hs-backplate,73757065-726c-4797-9261-2d68732d6261,0.1*
G04 #@! TF.SameCoordinates,Original*
G04 #@! TF.FileFunction,Copper,L2,Bot*
G04 #@! TF.FilePolarity,Positive*
%FSLAX46Y46*%
G04 Gerber Fmt 4.6, Leading zero omitted, Abs format (unit mm)*
G04 Created by KiCad (PCBNEW (5.1.10)-1) date 2021-10-09 22:27:19*
%MOMM*%
%LPD*%
G01*
G04 APERTURE LIST*
G04 #@! TA.AperFunction,SMDPad,CuDef*
%ADD10C,0.100000*%
G04 #@! TD*
G04 #@! TA.AperFunction,ComponentPad*
%ADD11C,1.752600*%
G04 #@! TD*
G04 #@! TA.AperFunction,ComponentPad*
%ADD12C,3.500000*%
G04 #@! TD*
G04 #@! TA.AperFunction,ViaPad*
%ADD13C,0.800000*%
G04 #@! TD*
G04 #@! TA.AperFunction,Conductor*
%ADD14C,0.254000*%
G04 #@! TD*
G04 #@! TA.AperFunction,Conductor*
%ADD15C,0.100000*%
G04 #@! TD*
G04 APERTURE END LIST*
G04 #@! TA.AperFunction,SMDPad,CuDef*
D10*
G04 #@! TO.P,H25,10*
G04 #@! TO.N,N/C*
G36*
X199492190Y-149610904D02*
G01*
X199491252Y-149610619D01*
X199490387Y-149610157D01*
X199489619Y-149609525D01*
X195449103Y-145545171D01*
X191408588Y-141480818D01*
X191407968Y-141480059D01*
X191407509Y-141479193D01*
X191407227Y-141478254D01*
X191407134Y-141477278D01*
X191407233Y-141476303D01*
X191407520Y-141475366D01*
X191407985Y-141474503D01*
X191408589Y-141473767D01*
X195585698Y-137274845D01*
X199759289Y-133079462D01*
X191637144Y-124969217D01*
X191637136Y-124969209D01*
X190430943Y-123759027D01*
X190430917Y-123759001D01*
X188212731Y-121501102D01*
X188212693Y-121501063D01*
X186309341Y-119521058D01*
X186309290Y-119521003D01*
X184823083Y-117927596D01*
X184822986Y-117927490D01*
X183856234Y-116829390D01*
X183855887Y-116828948D01*
X183510900Y-116334861D01*
X183510421Y-116334007D01*
X183510117Y-116333075D01*
X183510001Y-116332101D01*
X183510077Y-116331124D01*
X183510342Y-116330181D01*
X183510600Y-116329625D01*
X183601089Y-116161891D01*
X183601635Y-116161079D01*
X184274039Y-115347791D01*
X184274199Y-115347608D01*
X185516638Y-113985261D01*
X185516705Y-113985189D01*
X187226897Y-112182456D01*
X187226939Y-112182411D01*
X189302601Y-110047965D01*
X189302636Y-110047930D01*
X191641486Y-107690446D01*
X191641503Y-107690429D01*
X199767941Y-99575898D01*
X195705558Y-95642364D01*
X195705526Y-95642333D01*
X194290273Y-94247077D01*
X194290197Y-94247000D01*
X192916723Y-92833489D01*
X192916600Y-92833358D01*
X191983415Y-91801215D01*
X191983026Y-91800727D01*
X191638902Y-91308500D01*
X191638422Y-91307645D01*
X191638118Y-91306714D01*
X191638001Y-91305740D01*
X191638077Y-91304763D01*
X191638341Y-91303819D01*
X191638859Y-91302834D01*
X191940181Y-90857380D01*
X191940571Y-90856875D01*
X192834870Y-89842080D01*
X192834992Y-89841947D01*
X194179578Y-88422983D01*
X194179654Y-88422904D01*
X195830447Y-86756059D01*
X195830482Y-86756024D01*
X200021482Y-82606033D01*
X200022243Y-82605415D01*
X200023109Y-82604957D01*
X200024049Y-82604677D01*
X200025025Y-82604586D01*
X200026000Y-82604687D01*
X200026936Y-82604976D01*
X200027798Y-82605442D01*
X200028483Y-82605999D01*
X208629621Y-90957995D01*
X217230758Y-99309991D01*
X217231391Y-99310739D01*
X217231866Y-99311597D01*
X217232164Y-99312531D01*
X217232274Y-99313505D01*
X217232193Y-99314481D01*
X217231922Y-99315423D01*
X217231473Y-99316294D01*
X217230873Y-99317050D01*
X212696438Y-104016261D01*
X212696435Y-104016264D01*
X211037353Y-105732572D01*
X211037348Y-105732578D01*
X208677264Y-108166524D01*
X208677258Y-108166529D01*
X206376759Y-110531838D01*
X206376752Y-110531845D01*
X204458185Y-112496693D01*
X204458180Y-112496699D01*
X200757838Y-116274374D01*
X204952236Y-120490674D01*
X209148648Y-124709000D01*
X217841274Y-124709000D01*
X220458101Y-124718149D01*
X220458174Y-124718150D01*
X223196937Y-124767605D01*
X223197107Y-124767611D01*
X225269934Y-124875609D01*
X225270243Y-124875634D01*
X226876779Y-125059590D01*
X226877223Y-125059662D01*
X228217116Y-125336989D01*
X228217561Y-125337102D01*
X229490458Y-125725217D01*
X229490635Y-125725275D01*
X230102591Y-125937092D01*
X231729053Y-126471647D01*
X232792362Y-126637164D01*
X233412272Y-126306585D01*
X233711858Y-125349331D01*
X233808753Y-123633506D01*
X233821602Y-121030975D01*
X233841203Y-115315983D01*
X233841302Y-115315008D01*
X233841590Y-115314071D01*
X233842055Y-115313208D01*
X233842661Y-115312471D01*
X241925123Y-107200599D01*
X241925880Y-107199976D01*
X241926743Y-107199512D01*
X241927681Y-107199226D01*
X241928656Y-107199128D01*
X241929632Y-107199222D01*
X241930570Y-107199505D01*
X241931435Y-107199966D01*
X241932191Y-107200583D01*
X246137627Y-111384173D01*
X250339516Y-115564235D01*
X254379771Y-111500144D01*
X254379813Y-111500103D01*
X255852436Y-110053155D01*
X255852536Y-110053058D01*
X257280475Y-108726177D01*
X257280651Y-108726021D01*
X258318311Y-107848989D01*
X258319012Y-107848494D01*
X258808531Y-107561702D01*
X258809421Y-107561292D01*
X258810374Y-107561063D01*
X258811353Y-107561025D01*
X258812321Y-107561178D01*
X258813241Y-107561518D01*
X258814088Y-107562039D01*
X259207874Y-107862006D01*
X259208183Y-107862262D01*
X260197512Y-108750032D01*
X260197600Y-108750112D01*
X261604986Y-110074790D01*
X261605038Y-110074840D01*
X263268489Y-111686435D01*
X263268512Y-111686457D01*
X267338502Y-115680483D01*
X267339131Y-115681235D01*
X267339601Y-115682095D01*
X267339895Y-115683030D01*
X267340000Y-115684052D01*
X267340000Y-131593758D01*
X265297998Y-131593758D01*
X265290222Y-124471938D01*
X265286651Y-123620806D01*
X265243477Y-121097678D01*
X265159549Y-118991351D01*
X265044846Y-117501801D01*
X264909558Y-116829549D01*
X264852790Y-116758188D01*
X264190145Y-116061319D01*
X263034468Y-114927120D01*
X261595623Y-113562518D01*
X258657235Y-110817962D01*
X254986642Y-114464057D01*
X254986576Y-114464121D01*
X253936145Y-115470178D01*
X253935965Y-115470343D01*
X252362006Y-116836718D01*
X252361686Y-116836973D01*
X251091123Y-117769217D01*
X251090206Y-117769750D01*
X250319041Y-118114564D01*
X250318111Y-118114875D01*
X250317139Y-118114998D01*
X250316161Y-118114929D01*
X250315398Y-118114737D01*
X249896706Y-117973157D01*
X249895548Y-117972589D01*
X248785745Y-117237974D01*
X248785324Y-117237662D01*
X247298146Y-116011121D01*
X247297907Y-116010911D01*
X245628134Y-114444958D01*
X245628030Y-114444858D01*
X241938209Y-110779663D01*
X238892125Y-113793962D01*
X235844000Y-116810281D01*
X235844000Y-122437516D01*
X235841279Y-123149569D01*
X235841277Y-123149703D01*
X235755718Y-125949800D01*
X235755690Y-125950192D01*
X235552380Y-127802882D01*
X235552109Y-127804047D01*
X235234100Y-128678109D01*
X235233676Y-128678992D01*
X235233088Y-128679776D01*
X235232177Y-128680557D01*
X234682732Y-129047405D01*
X234681868Y-129047867D01*
X234680670Y-129048196D01*
X233286450Y-129249359D01*
X233285471Y-129249403D01*
X233284921Y-129249343D01*
X231230597Y-128909974D01*
X231229903Y-128909808D01*
X228421267Y-128020766D01*
X228421098Y-128020709D01*
X227817666Y-127805711D01*
X226516047Y-127392356D01*
X225244450Y-127103200D01*
X223793606Y-126916340D01*
X221954186Y-126809913D01*
X219517091Y-126762085D01*
X216273151Y-126751000D01*
X207624934Y-126751000D01*
X207623959Y-126750904D01*
X207623021Y-126750619D01*
X207622156Y-126750157D01*
X207621391Y-126749528D01*
X202887599Y-121995970D01*
X202887598Y-121995969D01*
X202822451Y-121930508D01*
X202822396Y-121930452D01*
X200691998Y-119721991D01*
X200691819Y-119721795D01*
X199274095Y-118086158D01*
X199273723Y-118085672D01*
X198505855Y-116943261D01*
X198505391Y-116942398D01*
X198505152Y-116941676D01*
X198324322Y-116212889D01*
X198324180Y-116211919D01*
X198324231Y-116210940D01*
X198324492Y-116209932D01*
X198372417Y-116081890D01*
X198372985Y-116080803D01*
X198960820Y-115229056D01*
X198961077Y-115228716D01*
X200124773Y-113817058D01*
X200124883Y-113816929D01*
X201756351Y-111968775D01*
X201756422Y-111968696D01*
X203747575Y-109807462D01*
X203747634Y-109807399D01*
X205990382Y-107456500D01*
X205990406Y-107456474D01*
X206750102Y-106671206D01*
X206750103Y-106671207D01*
X208897212Y-104427690D01*
X210747856Y-102458554D01*
X212198317Y-100876374D01*
X213144534Y-99794108D01*
X213480811Y-99327140D01*
X213189029Y-98932317D01*
X212262039Y-97940666D01*
X210816595Y-96482836D01*
X208970439Y-94677396D01*
X206841448Y-92643027D01*
X204877814Y-90786426D01*
X202981748Y-88993273D01*
X202981747Y-88993272D01*
X201463167Y-87556641D01*
X201463166Y-87556640D01*
X200442361Y-86590329D01*
X200442356Y-86590325D01*
X200040655Y-86209121D01*
X200024050Y-86205745D01*
X199533293Y-86556279D01*
X198552357Y-87447992D01*
X197269543Y-88711503D01*
X194655863Y-91366735D01*
X198229209Y-94638706D01*
X198229227Y-94638723D01*
X199653346Y-95955733D01*
X199653541Y-95955924D01*
X200851060Y-97191087D01*
X200851622Y-97191782D01*
X201582884Y-98281906D01*
X201583348Y-98282769D01*
X201583621Y-98283642D01*
X201813050Y-99352523D01*
X201813160Y-99353497D01*
X201812997Y-99354843D01*
X201505020Y-100526280D01*
X201504679Y-100527199D01*
X201504414Y-100527675D01*
X200623455Y-101925467D01*
X200623031Y-101926044D01*
X199133516Y-103673989D01*
X199133316Y-103674209D01*
X196999670Y-105896105D01*
X196999603Y-105896174D01*
X194186252Y-108715818D01*
X194186246Y-108715824D01*
X186569497Y-116319876D01*
X194440251Y-124202179D01*
X194440280Y-124202208D01*
X197042158Y-126850777D01*
X197042228Y-126850850D01*
X199252871Y-129194087D01*
X199252974Y-129194199D01*
X200911273Y-131062693D01*
X200911459Y-131062916D01*
X201953389Y-132384432D01*
X201953909Y-132385239D01*
X202315446Y-133087541D01*
X202315807Y-133088453D01*
X202315983Y-133089417D01*
X202315968Y-133090397D01*
X202315753Y-133091384D01*
X202183548Y-133495810D01*
X202182977Y-133496997D01*
X201456932Y-134604657D01*
X201456611Y-134605093D01*
X200227947Y-136097888D01*
X200227733Y-136098131D01*
X198645959Y-137784866D01*
X198645859Y-137784970D01*
X194980664Y-141474791D01*
X197994963Y-144520875D01*
X201011282Y-147569000D01*
X262462329Y-147569000D01*
X259821089Y-144894538D01*
X259821076Y-144894524D01*
X259437487Y-144503018D01*
X259437330Y-144502851D01*
X258102640Y-143009460D01*
X258102044Y-143008638D01*
X257383145Y-141770021D01*
X257382738Y-141769129D01*
X257382479Y-141767829D01*
X257307832Y-140597747D01*
X257307866Y-140596768D01*
X257308090Y-140595814D01*
X257308287Y-140595323D01*
X257906352Y-139307536D01*
X257907014Y-139306480D01*
X259206253Y-137714750D01*
X259206545Y-137714422D01*
X261235419Y-135632510D01*
X261235475Y-135632454D01*
X265297998Y-131593758D01*
X267340000Y-131593758D01*
X267340000Y-133073522D01*
X267339904Y-133074497D01*
X267339619Y-133075435D01*
X267339157Y-133076300D01*
X267338546Y-133077047D01*
X259491886Y-140970000D01*
X263413464Y-144914713D01*
X263413493Y-144914742D01*
X264743395Y-146274468D01*
X264743463Y-146274539D01*
X266087140Y-147703817D01*
X266087253Y-147703941D01*
X267001358Y-148743987D01*
X267001717Y-148744448D01*
X267339115Y-149233398D01*
X267339590Y-149234256D01*
X267339889Y-149235189D01*
X267339999Y-149236163D01*
X267339918Y-149237140D01*
X267339648Y-149238082D01*
X267339198Y-149238953D01*
X267338588Y-149239720D01*
X267337840Y-149240353D01*
X267336982Y-149240828D01*
X267336243Y-149241081D01*
X267213728Y-149272535D01*
X267212802Y-149272682D01*
X266247073Y-149334007D01*
X266246911Y-149334015D01*
X264389567Y-149391524D01*
X264389511Y-149391525D01*
X261723782Y-149444309D01*
X261723753Y-149444310D01*
X258332868Y-149491463D01*
X258332848Y-149491463D01*
X254300038Y-149532076D01*
X254300024Y-149532076D01*
X249708517Y-149565244D01*
X249708505Y-149565244D01*
X244641532Y-149590059D01*
X244641522Y-149590059D01*
X239182313Y-149605613D01*
X239182304Y-149605613D01*
X233414088Y-149611000D01*
X199493165Y-149611000D01*
X199492190Y-149610904D01*
G37*
G04 #@! TD.AperFunction*
G04 #@! TA.AperFunction,SMDPad,CuDef*
G04 #@! TO.P,H25,9*
G36*
X281865641Y-170650782D02*
G01*
X281864343Y-170650603D01*
X279090978Y-169888530D01*
X279089829Y-169888054D01*
X276609543Y-168475450D01*
X276608415Y-168474573D01*
X274714692Y-166508041D01*
X274714067Y-166507243D01*
X274337649Y-165911409D01*
X274337236Y-165910601D01*
X273627884Y-164142904D01*
X273627545Y-164141505D01*
X273426021Y-161973515D01*
X273426001Y-161972957D01*
X273433783Y-161561389D01*
X273433861Y-161560601D01*
X273817679Y-159421820D01*
X273817945Y-159420877D01*
X273818286Y-159420176D01*
X274864429Y-157634173D01*
X274865005Y-157633380D01*
X274865473Y-157632918D01*
X276690723Y-156054698D01*
X276691560Y-156054112D01*
X279412696Y-154538675D01*
X279412962Y-154538537D01*
X279549756Y-154472749D01*
X281822397Y-153178653D01*
X283109296Y-151959969D01*
X283435612Y-150783136D01*
X282826926Y-149611321D01*
X282005588Y-148962116D01*
X280362429Y-148557791D01*
X278592953Y-148959081D01*
X276967599Y-150142093D01*
X275521567Y-151690076D01*
X275520831Y-151690723D01*
X275519983Y-151691215D01*
X275519055Y-151691531D01*
X275518083Y-151691660D01*
X275517105Y-151691597D01*
X275516158Y-151691345D01*
X275515641Y-151691117D01*
X273456185Y-150640461D01*
X273456044Y-150640386D01*
X272857763Y-150310726D01*
X272857301Y-150310438D01*
X271810466Y-149574902D01*
X271809724Y-149574263D01*
X271809347Y-149573820D01*
X271395006Y-149023842D01*
X271394496Y-149023005D01*
X271394159Y-149022084D01*
X271394008Y-149021116D01*
X271394049Y-149020137D01*
X271394280Y-149019184D01*
X271394484Y-149018686D01*
X271621806Y-148540618D01*
X271622373Y-148539698D01*
X272409778Y-147525820D01*
X272410065Y-147525482D01*
X273566087Y-146282162D01*
X273566389Y-146281864D01*
X274871640Y-145097417D01*
X274872424Y-145096835D01*
X276358228Y-144203530D01*
X276359546Y-144202976D01*
X278049610Y-143763518D01*
X278050392Y-143763380D01*
X279241000Y-143649623D01*
X279241919Y-143649620D01*
X281976746Y-143892666D01*
X281978006Y-143892945D01*
X284398647Y-144769597D01*
X284399773Y-144770175D01*
X286411440Y-146150448D01*
X286412402Y-146151311D01*
X287920306Y-147905218D01*
X287921066Y-147906406D01*
X288830417Y-149903960D01*
X288830733Y-149904888D01*
X288830840Y-149905523D01*
X289046850Y-152016736D01*
X289046854Y-152017716D01*
X289046699Y-152018562D01*
X288474579Y-154113450D01*
X288474230Y-154114366D01*
X288473762Y-154115125D01*
X287018721Y-156063699D01*
X287018029Y-156064451D01*
X286563792Y-156466430D01*
X286563440Y-156466714D01*
X284865119Y-157715518D01*
X284864686Y-157715804D01*
X283085529Y-158758740D01*
X283085310Y-158758860D01*
X281821682Y-159417187D01*
X280172927Y-160496337D01*
X279287751Y-161513442D01*
X279024149Y-162601844D01*
X279231340Y-163429592D01*
X280178182Y-164613815D01*
X281607348Y-165505120D01*
X283202779Y-165856983D01*
X283292617Y-165854248D01*
X284639992Y-165410386D01*
X286145155Y-164401064D01*
X287462131Y-163104413D01*
X288245201Y-161798692D01*
X288265206Y-161742437D01*
X288265623Y-161741550D01*
X288266499Y-161740463D01*
X288597697Y-161430184D01*
X288598474Y-161429587D01*
X288599353Y-161429154D01*
X288600300Y-161428900D01*
X288601278Y-161428836D01*
X288602543Y-161429041D01*
X289310460Y-161640022D01*
X289311634Y-161640545D01*
X290605069Y-162428902D01*
X290605487Y-162429186D01*
X291844802Y-163368520D01*
X291845522Y-163369186D01*
X291846084Y-163369956D01*
X292382752Y-164275679D01*
X292383166Y-164276567D01*
X292383400Y-164277519D01*
X292383443Y-164278499D01*
X292383312Y-164279394D01*
X292127604Y-165345217D01*
X292127283Y-165346144D01*
X292126880Y-165346858D01*
X291109989Y-166846061D01*
X291109723Y-166846417D01*
X290702803Y-167344630D01*
X290702206Y-167345245D01*
X288775843Y-169015269D01*
X288774751Y-169015989D01*
X286173105Y-170278801D01*
X286172145Y-170279151D01*
X284639847Y-170665569D01*
X284638597Y-170665721D01*
X281865641Y-170650782D01*
G37*
G04 #@! TD.AperFunction*
G04 #@! TA.AperFunction,SMDPad,CuDef*
G04 #@! TO.P,H25,8*
G36*
X264575790Y-170413419D02*
G01*
X264574846Y-170413215D01*
X262228252Y-169663717D01*
X262227527Y-169663421D01*
X262088529Y-169593520D01*
X261115367Y-169252091D01*
X260733950Y-169409146D01*
X260566022Y-169594897D01*
X260565297Y-169595556D01*
X260564456Y-169596061D01*
X260563582Y-169596380D01*
X259647666Y-169836779D01*
X259646722Y-169836932D01*
X258201004Y-169930989D01*
X258200731Y-169931000D01*
X257894785Y-169934202D01*
X257044633Y-169954512D01*
X257044003Y-169954487D01*
X256412335Y-169889610D01*
X256411375Y-169889415D01*
X256410289Y-169888933D01*
X255938987Y-169608414D01*
X255938198Y-169607832D01*
X255937537Y-169607108D01*
X255937236Y-169606655D01*
X255568160Y-168980039D01*
X255567672Y-168978914D01*
X255242681Y-167875748D01*
X255242572Y-167875307D01*
X254903527Y-166165138D01*
X254903501Y-166164994D01*
X254492261Y-163717366D01*
X254492257Y-163717344D01*
X253950683Y-160401806D01*
X253950684Y-160401806D01*
X252755715Y-153162814D01*
X252755651Y-153161836D01*
X252755779Y-153160864D01*
X252756094Y-153159936D01*
X252756584Y-153159088D01*
X252757230Y-153158351D01*
X252758008Y-153157754D01*
X252758887Y-153157320D01*
X252759834Y-153157067D01*
X252760648Y-153157000D01*
X255187570Y-153157000D01*
X255738383Y-153154703D01*
X255738599Y-153154707D01*
X256671160Y-153191149D01*
X256672131Y-153191283D01*
X256672620Y-153191427D01*
X257316216Y-153417243D01*
X257317105Y-153417657D01*
X257317896Y-153418236D01*
X257318502Y-153418884D01*
X257768982Y-153995806D01*
X257769507Y-153996634D01*
X257769797Y-153997341D01*
X258123007Y-155087097D01*
X258123154Y-155087661D01*
X258474944Y-156851981D01*
X258474969Y-156852113D01*
X258921187Y-159452728D01*
X258921187Y-159452731D01*
X258924799Y-159473838D01*
X259489691Y-162325990D01*
X260095919Y-164302113D01*
X260824511Y-165540888D01*
X261756518Y-166181957D01*
X262974389Y-166364949D01*
X264225581Y-166191040D01*
X264996021Y-165548524D01*
X265016124Y-165472373D01*
X265023425Y-164519761D01*
X264875366Y-162866598D01*
X264606832Y-160764426D01*
X264252768Y-158464675D01*
X263848113Y-156218594D01*
X263427786Y-154277350D01*
X263427748Y-154277153D01*
X263322514Y-153675044D01*
X263322440Y-153674066D01*
X263322559Y-153673093D01*
X263323069Y-153671754D01*
X263528666Y-153301932D01*
X263529224Y-153301126D01*
X263529928Y-153300444D01*
X263530752Y-153299913D01*
X263531664Y-153299553D01*
X263532350Y-153299408D01*
X264303321Y-153192627D01*
X264304208Y-153192584D01*
X265864444Y-153255296D01*
X265864529Y-153255300D01*
X268582325Y-153411008D01*
X268583293Y-153411160D01*
X268584214Y-153411498D01*
X268585050Y-153412008D01*
X268585771Y-153412672D01*
X268586348Y-153413464D01*
X268586760Y-153414354D01*
X268586967Y-153415157D01*
X269455873Y-158495157D01*
X269455874Y-158495162D01*
X269547167Y-159031871D01*
X269547176Y-159031926D01*
X270029953Y-162076320D01*
X270029982Y-162076532D01*
X270289106Y-164329778D01*
X270289138Y-164330269D01*
X270315307Y-165968230D01*
X270315229Y-165969197D01*
X270099143Y-167167731D01*
X270098694Y-167169081D01*
X269631051Y-168104050D01*
X269630370Y-168105073D01*
X268901868Y-168952336D01*
X268901522Y-168952699D01*
X268701037Y-169143344D01*
X268700070Y-169144064D01*
X266790357Y-170233802D01*
X266789462Y-170234202D01*
X266788282Y-170234443D01*
X264576770Y-170413436D01*
X264575790Y-170413419D01*
G37*
G04 #@! TD.AperFunction*
G04 #@! TA.AperFunction,SMDPad,CuDef*
G04 #@! TO.P,H25,7*
G36*
X250350654Y-178059613D02*
G01*
X249251456Y-178037934D01*
X249250349Y-178037787D01*
X248503055Y-177851976D01*
X248502131Y-177851648D01*
X248501289Y-177851145D01*
X248500662Y-177850595D01*
X248001446Y-177333049D01*
X248000838Y-177332280D01*
X248000324Y-177331226D01*
X247645360Y-176314344D01*
X247645166Y-176313614D01*
X247330630Y-174629793D01*
X247330600Y-174629617D01*
X246952663Y-172111255D01*
X246952662Y-172111247D01*
X246335393Y-167954616D01*
X244863255Y-169193339D01*
X244862757Y-169193708D01*
X243992918Y-169757917D01*
X243991624Y-169758514D01*
X241901811Y-170380882D01*
X241900379Y-170381090D01*
X239590876Y-170378557D01*
X239589900Y-170378460D01*
X239589406Y-170378335D01*
X237463298Y-169722130D01*
X237462395Y-169721750D01*
X237461962Y-169721487D01*
X235631244Y-168477126D01*
X235630294Y-168476285D01*
X233586425Y-166142724D01*
X233585669Y-166141574D01*
X232249292Y-163325550D01*
X232248870Y-163324182D01*
X231770061Y-160274775D01*
X231770006Y-160273744D01*
X231834962Y-158999588D01*
X231835109Y-158998617D01*
X232508132Y-156338481D01*
X232508464Y-156337559D01*
X232508836Y-156336907D01*
X233857951Y-154340866D01*
X233858577Y-154340112D01*
X233859398Y-154339455D01*
X235817583Y-153085517D01*
X235818456Y-153085072D01*
X235819424Y-153084802D01*
X238319654Y-152650972D01*
X238321085Y-152650931D01*
X240299525Y-152880543D01*
X240300750Y-152880846D01*
X242317801Y-153659768D01*
X242318462Y-153660080D01*
X243215557Y-154167595D01*
X243810352Y-154313223D01*
X243962305Y-153914810D01*
X244085021Y-153562236D01*
X244085432Y-153561347D01*
X244086009Y-153560554D01*
X244086730Y-153559890D01*
X244087799Y-153559273D01*
X244824274Y-153248506D01*
X244825210Y-153248216D01*
X244825926Y-153248122D01*
X246385207Y-153157009D01*
X246385499Y-153157000D01*
X248803998Y-153157000D01*
X248804973Y-153157096D01*
X248805911Y-153157381D01*
X248806776Y-153157843D01*
X248807534Y-153158464D01*
X248808155Y-153159222D01*
X248808617Y-153160087D01*
X248808929Y-153161173D01*
X250309642Y-162107088D01*
X250309833Y-162108227D01*
X245036895Y-162108227D01*
X244572336Y-160337673D01*
X243533293Y-158773095D01*
X242043068Y-157656923D01*
X240224808Y-157231117D01*
X238711036Y-157537705D01*
X237521228Y-158511566D01*
X236931454Y-159949903D01*
X236973090Y-161643561D01*
X237677687Y-163382792D01*
X239076768Y-164957903D01*
X239569363Y-165287761D01*
X241196162Y-165786773D01*
X242860138Y-165666350D01*
X244138668Y-164929303D01*
X244804048Y-163842496D01*
X245036895Y-162108227D01*
X250309833Y-162108227D01*
X250747661Y-164718170D01*
X251052183Y-166526224D01*
X251598341Y-169731977D01*
X252086882Y-172553050D01*
X252490663Y-174835031D01*
X252782531Y-176423452D01*
X252935350Y-177163937D01*
X252979575Y-177359365D01*
X252979696Y-177360338D01*
X252979626Y-177361316D01*
X252979507Y-177361839D01*
X252853763Y-177803153D01*
X252853403Y-177804065D01*
X252852872Y-177804889D01*
X252852191Y-177805594D01*
X252851385Y-177806152D01*
X252850336Y-177806588D01*
X252144108Y-178009755D01*
X252142889Y-178009947D01*
X250639629Y-178058997D01*
X250639477Y-178059000D01*
X250350764Y-178059614D01*
X250350654Y-178059613D01*
G37*
G04 #@! TD.AperFunction*
G04 #@! TA.AperFunction,SMDPad,CuDef*
G04 #@! TO.P,H25,6*
G36*
X220619901Y-170360054D02*
G01*
X217952179Y-169847339D01*
X217950987Y-169846950D01*
X215697630Y-168782495D01*
X215696813Y-168782009D01*
X215169535Y-168396075D01*
X215169236Y-168395838D01*
X213908231Y-167316000D01*
X213907728Y-167315503D01*
X213109347Y-166407191D01*
X213108828Y-166406484D01*
X213030302Y-166277095D01*
X213029873Y-166276198D01*
X212803657Y-165649268D01*
X212803416Y-165648318D01*
X212803365Y-165647339D01*
X212803507Y-165646369D01*
X212803834Y-165645445D01*
X212804336Y-165644603D01*
X212804764Y-165644097D01*
X213203645Y-165231150D01*
X213204392Y-165230515D01*
X213205590Y-165229904D01*
X214411643Y-164808138D01*
X214412147Y-164807991D01*
X215649232Y-164516415D01*
X215650203Y-164516285D01*
X215650854Y-164516305D01*
X216774137Y-164623395D01*
X216775098Y-164623583D01*
X216775937Y-164623920D01*
X218091467Y-165296243D01*
X218091532Y-165296276D01*
X218990694Y-165772432D01*
X220962069Y-166324222D01*
X222660444Y-166145003D01*
X223868548Y-165237452D01*
X223983786Y-165071506D01*
X224525030Y-164173183D01*
X224624156Y-163553400D01*
X224170147Y-163158342D01*
X223043165Y-162936564D01*
X221128721Y-162840049D01*
X218312972Y-162819000D01*
X216357945Y-162822683D01*
X216357869Y-162822683D01*
X214252633Y-162794592D01*
X214252126Y-162794559D01*
X212900784Y-162638292D01*
X212899826Y-162638084D01*
X212899089Y-162637781D01*
X212146454Y-162254514D01*
X212145628Y-162253985D01*
X212144922Y-162253306D01*
X212144361Y-162252502D01*
X212144140Y-162252056D01*
X211835022Y-161542963D01*
X211834720Y-161542030D01*
X211834606Y-161541057D01*
X211813817Y-160407313D01*
X211813827Y-160406883D01*
X211926177Y-158749662D01*
X211926190Y-158749511D01*
X211970656Y-158296665D01*
X211970889Y-158295570D01*
X212739193Y-155994618D01*
X212739593Y-155993724D01*
X212740166Y-155992918D01*
X214291271Y-154212225D01*
X214291984Y-154211552D01*
X214292726Y-154211077D01*
X216494797Y-153060892D01*
X216495706Y-153060526D01*
X216496368Y-153060380D01*
X219217573Y-152650954D01*
X219218493Y-152650901D01*
X220113650Y-152682367D01*
X220114524Y-152682475D01*
X223254657Y-153356880D01*
X223255590Y-153357179D01*
X223256031Y-153357396D01*
X225904052Y-154825214D01*
X225904859Y-154825771D01*
X225905254Y-154826144D01*
X227945046Y-156974611D01*
X227945648Y-156975385D01*
X227945920Y-156975875D01*
X229034263Y-159223269D01*
X224396130Y-159223269D01*
X222746703Y-157722881D01*
X222334878Y-157377884D01*
X220994085Y-156547119D01*
X219865178Y-156215184D01*
X218582083Y-156541756D01*
X217492844Y-157415040D01*
X217048228Y-158532671D01*
X217096579Y-158738092D01*
X217582249Y-159044249D01*
X218734259Y-159200183D01*
X220726032Y-159238108D01*
X224396130Y-159223269D01*
X229034263Y-159223269D01*
X229035604Y-159226038D01*
X229261364Y-159692226D01*
X229261703Y-159693146D01*
X229261809Y-159693664D01*
X229736789Y-162865134D01*
X229736844Y-162865902D01*
X229735970Y-163026407D01*
X229735877Y-163027342D01*
X229216804Y-165675872D01*
X229216522Y-165676810D01*
X229216146Y-165677545D01*
X227823524Y-167923272D01*
X227822929Y-167924050D01*
X227822321Y-167924602D01*
X225671920Y-169576426D01*
X225671151Y-169576913D01*
X225618844Y-169603662D01*
X225617990Y-169604003D01*
X223308650Y-170289376D01*
X223307358Y-170289581D01*
X220620976Y-170360142D01*
X220619901Y-170360054D01*
G37*
G04 #@! TD.AperFunction*
G04 #@! TA.AperFunction,SMDPad,CuDef*
G04 #@! TO.P,H25,5*
G36*
X205959935Y-169930904D02*
G01*
X205958997Y-169930619D01*
X205958132Y-169930157D01*
X205957374Y-169929536D01*
X205956753Y-169928778D01*
X205956291Y-169927913D01*
X205955985Y-169926863D01*
X205088529Y-164973868D01*
X204849997Y-163701977D01*
X204379145Y-161573555D01*
X203915405Y-159884575D01*
X203531719Y-158918213D01*
X202696035Y-157994933D01*
X201317700Y-157406010D01*
X199942619Y-157653782D01*
X199938564Y-157656044D01*
X199937666Y-157656435D01*
X199937093Y-157656583D01*
X199284151Y-157784836D01*
X199283175Y-157784930D01*
X199282200Y-157784832D01*
X199281263Y-157784545D01*
X199280400Y-157784081D01*
X198565510Y-157304168D01*
X198564754Y-157303545D01*
X198564401Y-157303150D01*
X197575314Y-156073166D01*
X197575130Y-156072923D01*
X196929170Y-155160750D01*
X196928880Y-155160289D01*
X196454607Y-154307039D01*
X196454217Y-154306140D01*
X196454010Y-154305182D01*
X196453996Y-154304180D01*
X196498574Y-153788298D01*
X196498753Y-153787334D01*
X196499117Y-153786424D01*
X196499652Y-153785603D01*
X196500194Y-153785027D01*
X197005281Y-153326343D01*
X197006067Y-153325758D01*
X197006773Y-153325407D01*
X198427231Y-152752848D01*
X198428171Y-152752572D01*
X198429158Y-152752485D01*
X200305153Y-152774081D01*
X200306127Y-152774189D01*
X200306923Y-152774427D01*
X202076702Y-153469771D01*
X202077118Y-153469957D01*
X202988757Y-153927805D01*
X203322583Y-153697563D01*
X203350274Y-153581701D01*
X203350594Y-153580774D01*
X203351089Y-153579928D01*
X203351739Y-153579195D01*
X203352520Y-153578602D01*
X203353148Y-153578276D01*
X204064886Y-153269696D01*
X204065819Y-153269396D01*
X204066835Y-153269283D01*
X205714256Y-153256166D01*
X205714620Y-153256176D01*
X208101915Y-153411010D01*
X208102882Y-153411169D01*
X208103799Y-153411514D01*
X208104632Y-153412031D01*
X208105348Y-153412701D01*
X208105919Y-153413497D01*
X208106325Y-153414390D01*
X208106518Y-153415148D01*
X209511344Y-161543148D01*
X209835771Y-163420841D01*
X209835771Y-163420842D01*
X210267640Y-165922597D01*
X210267640Y-165922599D01*
X210614151Y-167932597D01*
X210614152Y-167932599D01*
X210846043Y-169281048D01*
X210846044Y-169281056D01*
X210934051Y-169798161D01*
X210934120Y-169799139D01*
X210933997Y-169800111D01*
X210933686Y-169801041D01*
X210933201Y-169801892D01*
X210932558Y-169802632D01*
X210931783Y-169803233D01*
X210930523Y-169803800D01*
X210778229Y-169848258D01*
X210777159Y-169848447D01*
X209884086Y-169907753D01*
X209883836Y-169907763D01*
X208454036Y-169930999D01*
X208453955Y-169931000D01*
X205960910Y-169931000D01*
X205959935Y-169930904D01*
G37*
G04 #@! TD.AperFunction*
G04 #@! TA.AperFunction,SMDPad,CuDef*
G04 #@! TO.P,H25,4*
G36*
X186429224Y-169921188D02*
G01*
X186429134Y-169921187D01*
X183854546Y-169863094D01*
X183854320Y-169863083D01*
X182120212Y-169745261D01*
X182119636Y-169745189D01*
X181119818Y-169559028D01*
X181118876Y-169558755D01*
X181117844Y-169558193D01*
X180746127Y-169295081D01*
X180745387Y-169294439D01*
X180744785Y-169293665D01*
X180744231Y-169292452D01*
X180741689Y-169284073D01*
X180741607Y-169283768D01*
X180521219Y-168348893D01*
X180521175Y-168348684D01*
X180264749Y-167005938D01*
X180264733Y-167005851D01*
X179979473Y-165354851D01*
X179979402Y-165353874D01*
X179979522Y-165352901D01*
X179979830Y-165351971D01*
X179980314Y-165351118D01*
X179980955Y-165350376D01*
X179981728Y-165349774D01*
X179982604Y-165349334D01*
X179983549Y-165349073D01*
X179984400Y-165349000D01*
X189976743Y-165349000D01*
X188271438Y-155575859D01*
X188271438Y-155575858D01*
X188225047Y-155309662D01*
X188225045Y-155309649D01*
X187699980Y-152248903D01*
X187699976Y-152248878D01*
X187243774Y-149504763D01*
X187243768Y-149504731D01*
X186883753Y-147248154D01*
X186883745Y-147248098D01*
X186647241Y-145649965D01*
X186647218Y-145649787D01*
X186561550Y-144881006D01*
X186561529Y-144880135D01*
X186576514Y-144644114D01*
X186576672Y-144643147D01*
X186577015Y-144642229D01*
X186577327Y-144641683D01*
X186850971Y-144225679D01*
X186851587Y-144224917D01*
X186852340Y-144224290D01*
X186853201Y-144223822D01*
X186854215Y-144223515D01*
X187657267Y-144071013D01*
X187658335Y-144070927D01*
X189230135Y-144113454D01*
X189230287Y-144113460D01*
X191897287Y-144267008D01*
X191898256Y-144267160D01*
X191899176Y-144267498D01*
X191900012Y-144268009D01*
X191900733Y-144268674D01*
X191901310Y-144269466D01*
X191901722Y-144270355D01*
X191901926Y-144271142D01*
X194025876Y-156463142D01*
X194025876Y-156463145D01*
X194447082Y-158889568D01*
X194447084Y-158889575D01*
X194999366Y-162099362D01*
X194999367Y-162099372D01*
X195473742Y-164889607D01*
X195473745Y-164889621D01*
X195845757Y-167115021D01*
X195845761Y-167115046D01*
X196090958Y-168630325D01*
X196090972Y-168630419D01*
X196184900Y-169290295D01*
X196184942Y-169291275D01*
X196184793Y-169292243D01*
X196184457Y-169293164D01*
X196183972Y-169293970D01*
X196021270Y-169514306D01*
X196020614Y-169515034D01*
X196019827Y-169515619D01*
X196018549Y-169516164D01*
X195293697Y-169711477D01*
X195292849Y-169711628D01*
X193885468Y-169839666D01*
X193885174Y-169839684D01*
X191684361Y-169909712D01*
X191684236Y-169909715D01*
X188579091Y-169931000D01*
X188579034Y-169931000D01*
X186429224Y-169921188D01*
G37*
G04 #@! TD.AperFunction*
G04 #@! TA.AperFunction,SMDPad,CuDef*
G04 #@! TO.P,H25,3*
G36*
X176967936Y-178058904D02*
G01*
X176966998Y-178058619D01*
X176966133Y-178058157D01*
X176965375Y-178057536D01*
X176964629Y-178056581D01*
X169696674Y-166000048D01*
X169508071Y-165687146D01*
X169508069Y-165687144D01*
X167618637Y-162548356D01*
X167618634Y-162548351D01*
X165909809Y-159702381D01*
X165909806Y-159702375D01*
X164450528Y-157264590D01*
X164450523Y-157264582D01*
X163309732Y-155350351D01*
X163309722Y-155350334D01*
X162556358Y-154075027D01*
X162556319Y-154074960D01*
X162259323Y-153553943D01*
X162258924Y-153553048D01*
X162258706Y-153552092D01*
X162258680Y-153551113D01*
X162258845Y-153550146D01*
X162259195Y-153549231D01*
X162259717Y-153548401D01*
X162260206Y-153547858D01*
X162422633Y-153392102D01*
X162423404Y-153391496D01*
X162424278Y-153391053D01*
X162425213Y-153390789D01*
X163336346Y-153227602D01*
X163337028Y-153227528D01*
X164803468Y-153169162D01*
X164803689Y-153169158D01*
X167513022Y-153181316D01*
X167513997Y-153181417D01*
X167514934Y-153181705D01*
X167515796Y-153182171D01*
X167516551Y-153182796D01*
X167517388Y-153183919D01*
X170000802Y-157730149D01*
X170770247Y-159097825D01*
X171736349Y-160688397D01*
X172463893Y-161733649D01*
X172832500Y-162052942D01*
X172914203Y-161934488D01*
X173230312Y-161033345D01*
X173645610Y-159474757D01*
X174092879Y-157500866D01*
X175003633Y-153160973D01*
X175003927Y-153160038D01*
X175004398Y-153159179D01*
X175005028Y-153158428D01*
X175005792Y-153157814D01*
X175006661Y-153157361D01*
X175007602Y-153157086D01*
X175008526Y-153157000D01*
X177792113Y-153157000D01*
X177792271Y-153157002D01*
X179185095Y-153201001D01*
X179185939Y-153201101D01*
X180167395Y-153401936D01*
X180168332Y-153402225D01*
X180169194Y-153402692D01*
X180169948Y-153403318D01*
X180170566Y-153404079D01*
X180170915Y-153404701D01*
X180354970Y-153794867D01*
X180355299Y-153795790D01*
X180355442Y-153796760D01*
X180355393Y-153797739D01*
X180355202Y-153798549D01*
X180316051Y-153918745D01*
X180030671Y-154880056D01*
X179546819Y-156562466D01*
X178920874Y-158768845D01*
X178209219Y-161302048D01*
X176289012Y-168168653D01*
X179141582Y-172872965D01*
X179141592Y-172872981D01*
X180093314Y-174456095D01*
X180093338Y-174456135D01*
X181077685Y-176128930D01*
X181077726Y-176129001D01*
X181747868Y-177311343D01*
X181748006Y-177311604D01*
X181995488Y-177815657D01*
X181995832Y-177816575D01*
X181995990Y-177817543D01*
X181995956Y-177818522D01*
X181995732Y-177819476D01*
X181995326Y-177820369D01*
X181994753Y-177821164D01*
X181994037Y-177821833D01*
X181993280Y-177822311D01*
X181830480Y-177905746D01*
X181829569Y-177906105D01*
X181828800Y-177906260D01*
X180920445Y-178015995D01*
X180919994Y-178016029D01*
X179480105Y-178058998D01*
X179479956Y-178059000D01*
X176968911Y-178059000D01*
X176967936Y-178058904D01*
G37*
G04 #@! TD.AperFunction*
G04 #@! TA.AperFunction,SMDPad,CuDef*
G04 #@! TO.P,H25,2*
G36*
X158207935Y-169930904D02*
G01*
X158206997Y-169930619D01*
X158206132Y-169930157D01*
X158205374Y-169929536D01*
X158204753Y-169928778D01*
X158204291Y-169927913D01*
X158203985Y-169926863D01*
X157336529Y-164973868D01*
X157097997Y-163701977D01*
X156627145Y-161573555D01*
X156163405Y-159884575D01*
X155779719Y-158918213D01*
X154944035Y-157994933D01*
X153565700Y-157406010D01*
X152190619Y-157653782D01*
X152186564Y-157656044D01*
X152185666Y-157656435D01*
X152185093Y-157656583D01*
X151532151Y-157784836D01*
X151531175Y-157784930D01*
X151530200Y-157784832D01*
X151529263Y-157784545D01*
X151528400Y-157784081D01*
X150813510Y-157304168D01*
X150812754Y-157303545D01*
X150812401Y-157303150D01*
X149823314Y-156073166D01*
X149823130Y-156072923D01*
X149177170Y-155160750D01*
X149176880Y-155160289D01*
X148702607Y-154307039D01*
X148702217Y-154306140D01*
X148702010Y-154305182D01*
X148701996Y-154304180D01*
X148746574Y-153788298D01*
X148746753Y-153787334D01*
X148747117Y-153786424D01*
X148747652Y-153785603D01*
X148748194Y-153785027D01*
X149253281Y-153326343D01*
X149254067Y-153325758D01*
X149254773Y-153325407D01*
X150675231Y-152752848D01*
X150676171Y-152752572D01*
X150677158Y-152752485D01*
X152553153Y-152774081D01*
X152554127Y-152774189D01*
X152554923Y-152774427D01*
X154324702Y-153469771D01*
X154325118Y-153469957D01*
X155236757Y-153927805D01*
X155570583Y-153697563D01*
X155598274Y-153581701D01*
X155598594Y-153580774D01*
X155599089Y-153579928D01*
X155599739Y-153579195D01*
X155600520Y-153578602D01*
X155601148Y-153578276D01*
X156312886Y-153269696D01*
X156313819Y-153269396D01*
X156314835Y-153269283D01*
X157962256Y-153256166D01*
X157962620Y-153256176D01*
X160349915Y-153411010D01*
X160350882Y-153411169D01*
X160351799Y-153411514D01*
X160352632Y-153412031D01*
X160353348Y-153412701D01*
X160353919Y-153413497D01*
X160354325Y-153414390D01*
X160354518Y-153415148D01*
X161759344Y-161543148D01*
X162083771Y-163420841D01*
X162083771Y-163420842D01*
X162515640Y-165922597D01*
X162515640Y-165922599D01*
X162862151Y-167932597D01*
X162862152Y-167932599D01*
X163094043Y-169281048D01*
X163094044Y-169281056D01*
X163182051Y-169798161D01*
X163182120Y-169799139D01*
X163181997Y-169800111D01*
X163181686Y-169801041D01*
X163181201Y-169801892D01*
X163180558Y-169802632D01*
X163179783Y-169803233D01*
X163178523Y-169803800D01*
X163026229Y-169848258D01*
X163025159Y-169848447D01*
X162132086Y-169907753D01*
X162131836Y-169907763D01*
X160702036Y-169930999D01*
X160701955Y-169931000D01*
X158208910Y-169931000D01*
X158207935Y-169930904D01*
G37*
G04 #@! TD.AperFunction*
G04 #@! TA.AperFunction,SMDPad,CuDef*
G04 #@! TO.P,H25,1*
G36*
X141239950Y-170302209D02*
G01*
X141239188Y-170302013D01*
X138674854Y-169421742D01*
X138674120Y-169421422D01*
X138585364Y-169373973D01*
X137432081Y-168815434D01*
X136908904Y-168765261D01*
X136783798Y-169192253D01*
X136783679Y-169192609D01*
X136616412Y-169636706D01*
X136615978Y-169637585D01*
X136615382Y-169638363D01*
X136614644Y-169639009D01*
X136613795Y-169639499D01*
X136613177Y-169639731D01*
X135892342Y-169857112D01*
X135891380Y-169857302D01*
X135890813Y-169857324D01*
X134392470Y-169831832D01*
X134392231Y-169831823D01*
X132005786Y-169676990D01*
X132004819Y-169676830D01*
X132003902Y-169676486D01*
X132003069Y-169675969D01*
X132002353Y-169675299D01*
X132001782Y-169674503D01*
X132001376Y-169673610D01*
X132001183Y-169672849D01*
X130863366Y-163068849D01*
X130817169Y-162800832D01*
X130817168Y-162800832D01*
X130363753Y-160181817D01*
X129949852Y-157810064D01*
X129949853Y-157810064D01*
X129619521Y-155936981D01*
X129416805Y-154813919D01*
X129416804Y-154813919D01*
X129108047Y-153162919D01*
X129107962Y-153161943D01*
X129108070Y-153160968D01*
X129108365Y-153160034D01*
X129108837Y-153159175D01*
X129109467Y-153158424D01*
X129110232Y-153157811D01*
X129111102Y-153157359D01*
X129112043Y-153157085D01*
X129112962Y-153157000D01*
X131676020Y-153157000D01*
X132300234Y-153161855D01*
X132300595Y-153161871D01*
X133543599Y-153261585D01*
X133544563Y-153261759D01*
X133545575Y-153262169D01*
X134108898Y-153566338D01*
X134109710Y-153566886D01*
X134110400Y-153567582D01*
X134110942Y-153568400D01*
X134111407Y-153569672D01*
X134243885Y-154176934D01*
X134243936Y-154177204D01*
X134338944Y-154766174D01*
X134748867Y-155188744D01*
X134865414Y-155174985D01*
X135250170Y-154697070D01*
X135253537Y-154662797D01*
X135253728Y-154661836D01*
X135254103Y-154660930D01*
X135254659Y-154660101D01*
X135726092Y-154089600D01*
X135726787Y-154088909D01*
X135727226Y-154088590D01*
X136751053Y-153424850D01*
X136752215Y-153424294D01*
X138946280Y-152705012D01*
X138947237Y-152704799D01*
X138947951Y-152704764D01*
X141406365Y-152760138D01*
X141407338Y-152760256D01*
X141407961Y-152760438D01*
X143744570Y-153610164D01*
X143745838Y-153610846D01*
X145815630Y-155144340D01*
X145816582Y-155145265D01*
X147474545Y-157251943D01*
X147475212Y-157253065D01*
X148576331Y-159822346D01*
X148576689Y-159823639D01*
X148856753Y-161872775D01*
X148856929Y-161874068D01*
X143814578Y-161874068D01*
X143115787Y-159751341D01*
X143067353Y-159660122D01*
X141889766Y-158223663D01*
X140360754Y-157310625D01*
X138739940Y-156976815D01*
X137287417Y-157277980D01*
X136261708Y-158270021D01*
X136165777Y-158465933D01*
X135784654Y-160291409D01*
X136005385Y-162298395D01*
X136780189Y-163962004D01*
X136997314Y-164216818D01*
X138389206Y-165311867D01*
X139975102Y-165954346D01*
X141349719Y-165966985D01*
X142742073Y-165188781D01*
X143673930Y-163742062D01*
X143814578Y-161874068D01*
X148856929Y-161874068D01*
X148975954Y-162744938D01*
X148975966Y-162746197D01*
X148647486Y-165550776D01*
X148647277Y-165551733D01*
X148647047Y-165552317D01*
X147589824Y-167807006D01*
X147589323Y-167807848D01*
X147588643Y-167808598D01*
X145774684Y-169442281D01*
X145773895Y-169442863D01*
X145773194Y-169443209D01*
X143773072Y-170242778D01*
X143772131Y-170243051D01*
X143771333Y-170243134D01*
X141240928Y-170302283D01*
X141239950Y-170302209D01*
G37*
G04 #@! TD.AperFunction*
G04 #@! TD*
D11*
G04 #@! TO.P,J1,1*
G04 #@! TO.N,GND*
X209931000Y-130302000D03*
G04 #@! TD*
D12*
G04 #@! TO.P,H1,1*
G04 #@! TO.N,N/C*
X42545000Y-60833000D03*
G04 #@! TD*
G04 #@! TO.P,H5,1*
G04 #@! TO.N,N/C*
X127889000Y-182118000D03*
G04 #@! TD*
G04 #@! TO.P,H7,1*
G04 #@! TO.N,N/C*
X165862000Y-140970000D03*
G04 #@! TD*
G04 #@! TO.P,H8,1*
G04 #@! TO.N,N/C*
X17526000Y-149860000D03*
G04 #@! TD*
G04 #@! TO.P,H9,1*
G04 #@! TO.N,N/C*
X171958000Y-187325000D03*
G04 #@! TD*
G04 #@! TO.P,H10,1*
G04 #@! TO.N,N/C*
X164338000Y-83947000D03*
G04 #@! TD*
G04 #@! TO.P,H11,1*
G04 #@! TO.N,N/C*
X256413000Y-84074000D03*
G04 #@! TD*
G04 #@! TO.P,H12,1*
G04 #@! TO.N,N/C*
X253365000Y-140716000D03*
G04 #@! TD*
G04 #@! TO.P,H13,1*
G04 #@! TO.N,N/C*
X401955000Y-149352000D03*
G04 #@! TD*
G04 #@! TO.P,H15,1*
G04 #@! TO.N,N/C*
X247904000Y-187198000D03*
G04 #@! TD*
G04 #@! TO.P,H16,1*
G04 #@! TO.N,N/C*
X292100000Y-182118000D03*
G04 #@! TD*
G04 #@! TO.P,H20,1*
G04 #@! TO.N,N/C*
X377698000Y-59817000D03*
G04 #@! TD*
D13*
G04 #@! TO.N,GND*
X213995000Y-185293000D03*
G04 #@! TD*
D14*
G04 #@! TO.N,GND*
X43368474Y-57104132D02*
X44029161Y-57230165D01*
X44159189Y-57243144D01*
X44289461Y-57232891D01*
X44305643Y-57228646D01*
X81994717Y-67327403D01*
X82012802Y-67335030D01*
X82057370Y-67344191D01*
X82069858Y-67347537D01*
X82089128Y-67350719D01*
X82108240Y-67354647D01*
X82121086Y-67355995D01*
X82165990Y-67363409D01*
X82185611Y-67362766D01*
X172588584Y-76849833D01*
X172590617Y-76850450D01*
X172653146Y-76856608D01*
X172683358Y-76859779D01*
X172685474Y-76859793D01*
X172687581Y-76860000D01*
X172717976Y-76860000D01*
X172780789Y-76860401D01*
X172782874Y-76860000D01*
X247587084Y-76860000D01*
X247589121Y-76860392D01*
X247651835Y-76860000D01*
X247682419Y-76860000D01*
X247684491Y-76859796D01*
X247686552Y-76859783D01*
X247716648Y-76856629D01*
X247779383Y-76850450D01*
X247781378Y-76849845D01*
X337343759Y-67463242D01*
X337363234Y-67472066D01*
X337504235Y-67504942D01*
X337648939Y-67509679D01*
X337755992Y-67492005D01*
X367276166Y-59582098D01*
X375313000Y-59582098D01*
X375313000Y-60051902D01*
X375404654Y-60512679D01*
X375584440Y-60946721D01*
X375845450Y-61337349D01*
X376177651Y-61669550D01*
X376568279Y-61930560D01*
X377002321Y-62110346D01*
X377463098Y-62202000D01*
X377932902Y-62202000D01*
X378393679Y-62110346D01*
X378827721Y-61930560D01*
X379218349Y-61669550D01*
X379550550Y-61337349D01*
X379811560Y-60946721D01*
X379991346Y-60512679D01*
X380083000Y-60051902D01*
X380083000Y-59582098D01*
X379991346Y-59121321D01*
X379811560Y-58687279D01*
X379550550Y-58296651D01*
X379218349Y-57964450D01*
X378827721Y-57703440D01*
X378393679Y-57523654D01*
X377932902Y-57432000D01*
X377463098Y-57432000D01*
X377002321Y-57523654D01*
X376568279Y-57703440D01*
X376177651Y-57964450D01*
X375845450Y-58296651D01*
X375584440Y-58687279D01*
X375404654Y-59121321D01*
X375313000Y-59582098D01*
X367276166Y-59582098D01*
X375801731Y-57297680D01*
X376580566Y-57161751D01*
X377338309Y-57165719D01*
X378083367Y-57303807D01*
X378792202Y-57571654D01*
X379442393Y-57960786D01*
X380013407Y-58458913D01*
X380487185Y-59050284D01*
X380851524Y-59721313D01*
X381072721Y-60356504D01*
X381126496Y-60475601D01*
X381200511Y-60583293D01*
X381212279Y-60595185D01*
X404574123Y-147782778D01*
X404564066Y-147830091D01*
X404559962Y-147960700D01*
X404569688Y-148044759D01*
X404711245Y-148855843D01*
X404707277Y-149613586D01*
X404569189Y-150358642D01*
X404301345Y-151067472D01*
X403912205Y-151717678D01*
X403414080Y-152288689D01*
X402815379Y-152768339D01*
X402313247Y-153057719D01*
X402206277Y-153132773D01*
X402114289Y-153225584D01*
X402101224Y-153244561D01*
X383936259Y-162226164D01*
X383887891Y-162225581D01*
X383759013Y-162247171D01*
X383678494Y-162273193D01*
X382883604Y-162581669D01*
X382825268Y-162597907D01*
X382702994Y-162644001D01*
X382590814Y-162711020D01*
X382545511Y-162750478D01*
X279162530Y-190451865D01*
X140647807Y-190380885D01*
X128366423Y-187090098D01*
X169573000Y-187090098D01*
X169573000Y-187559902D01*
X169664654Y-188020679D01*
X169844440Y-188454721D01*
X170105450Y-188845349D01*
X170437651Y-189177550D01*
X170828279Y-189438560D01*
X171262321Y-189618346D01*
X171723098Y-189710000D01*
X172192902Y-189710000D01*
X172653679Y-189618346D01*
X173087721Y-189438560D01*
X173478349Y-189177550D01*
X173810550Y-188845349D01*
X174071560Y-188454721D01*
X174251346Y-188020679D01*
X174343000Y-187559902D01*
X174343000Y-187090098D01*
X174317739Y-186963098D01*
X245519000Y-186963098D01*
X245519000Y-187432902D01*
X245610654Y-187893679D01*
X245790440Y-188327721D01*
X246051450Y-188718349D01*
X246383651Y-189050550D01*
X246774279Y-189311560D01*
X247208321Y-189491346D01*
X247669098Y-189583000D01*
X248138902Y-189583000D01*
X248599679Y-189491346D01*
X249033721Y-189311560D01*
X249424349Y-189050550D01*
X249756550Y-188718349D01*
X250017560Y-188327721D01*
X250197346Y-187893679D01*
X250289000Y-187432902D01*
X250289000Y-186963098D01*
X250197346Y-186502321D01*
X250017560Y-186068279D01*
X249756550Y-185677651D01*
X249424349Y-185345450D01*
X249033721Y-185084440D01*
X248599679Y-184904654D01*
X248138902Y-184813000D01*
X247669098Y-184813000D01*
X247208321Y-184904654D01*
X246774279Y-185084440D01*
X246383651Y-185345450D01*
X246051450Y-185677651D01*
X245790440Y-186068279D01*
X245610654Y-186502321D01*
X245519000Y-186963098D01*
X174317739Y-186963098D01*
X174251346Y-186629321D01*
X174071560Y-186195279D01*
X173810550Y-185804651D01*
X173478349Y-185472450D01*
X173087721Y-185211440D01*
X172653679Y-185031654D01*
X172192902Y-184940000D01*
X171723098Y-184940000D01*
X171262321Y-185031654D01*
X170828279Y-185211440D01*
X170437651Y-185472450D01*
X170105450Y-185804651D01*
X169844440Y-186195279D01*
X169664654Y-186629321D01*
X169573000Y-187090098D01*
X128366423Y-187090098D01*
X108933634Y-181883098D01*
X125504000Y-181883098D01*
X125504000Y-182352902D01*
X125595654Y-182813679D01*
X125775440Y-183247721D01*
X126036450Y-183638349D01*
X126368651Y-183970550D01*
X126759279Y-184231560D01*
X127193321Y-184411346D01*
X127654098Y-184503000D01*
X128123902Y-184503000D01*
X128584679Y-184411346D01*
X129018721Y-184231560D01*
X129409349Y-183970550D01*
X129741550Y-183638349D01*
X130002560Y-183247721D01*
X130182346Y-182813679D01*
X130274000Y-182352902D01*
X130274000Y-181883098D01*
X289715000Y-181883098D01*
X289715000Y-182352902D01*
X289806654Y-182813679D01*
X289986440Y-183247721D01*
X290247450Y-183638349D01*
X290579651Y-183970550D01*
X290970279Y-184231560D01*
X291404321Y-184411346D01*
X291865098Y-184503000D01*
X292334902Y-184503000D01*
X292795679Y-184411346D01*
X293229721Y-184231560D01*
X293620349Y-183970550D01*
X293952550Y-183638349D01*
X294213560Y-183247721D01*
X294393346Y-182813679D01*
X294485000Y-182352902D01*
X294485000Y-181883098D01*
X294393346Y-181422321D01*
X294213560Y-180988279D01*
X293952550Y-180597651D01*
X293620349Y-180265450D01*
X293229721Y-180004440D01*
X292795679Y-179824654D01*
X292334902Y-179733000D01*
X291865098Y-179733000D01*
X291404321Y-179824654D01*
X290970279Y-180004440D01*
X290579651Y-180265450D01*
X290247450Y-180597651D01*
X289986440Y-180988279D01*
X289806654Y-181422321D01*
X289715000Y-181883098D01*
X130274000Y-181883098D01*
X130182346Y-181422321D01*
X130002560Y-180988279D01*
X129741550Y-180597651D01*
X129409349Y-180265450D01*
X129018721Y-180004440D01*
X128584679Y-179824654D01*
X128123902Y-179733000D01*
X127654098Y-179733000D01*
X127193321Y-179824654D01*
X126759279Y-180004440D01*
X126368651Y-180265450D01*
X126036450Y-180597651D01*
X125775440Y-180988279D01*
X125595654Y-181422321D01*
X125504000Y-181883098D01*
X108933634Y-181883098D01*
X37264887Y-162679516D01*
X37228940Y-162647149D01*
X37117881Y-162578289D01*
X37040221Y-162544683D01*
X36239512Y-162251665D01*
X36184965Y-162225349D01*
X36062690Y-162179255D01*
X35934185Y-162155544D01*
X35874111Y-162155277D01*
X17804385Y-153220766D01*
X128472602Y-153220766D01*
X128472687Y-153221685D01*
X128480848Y-153280213D01*
X128789270Y-154929423D01*
X128991376Y-156049105D01*
X129321280Y-157919758D01*
X129735033Y-160290664D01*
X129740545Y-160322499D01*
X130188448Y-162909679D01*
X130188450Y-162909686D01*
X130234566Y-163177233D01*
X130234567Y-163177233D01*
X131372376Y-169781188D01*
X131385971Y-169842114D01*
X131386231Y-169843059D01*
X131431256Y-169960189D01*
X131431696Y-169961065D01*
X131498219Y-170066408D01*
X131498821Y-170067182D01*
X131585039Y-170158015D01*
X131585780Y-170158656D01*
X131688337Y-170231045D01*
X131689190Y-170231529D01*
X131803476Y-170282287D01*
X131804406Y-170282595D01*
X131913179Y-170308307D01*
X131913956Y-170308420D01*
X131964475Y-170313723D01*
X134350920Y-170468556D01*
X134368220Y-170469443D01*
X134368459Y-170469452D01*
X134381616Y-170469812D01*
X135879959Y-170495304D01*
X135942240Y-170493320D01*
X135943217Y-170493241D01*
X136041251Y-170477565D01*
X136041803Y-170477432D01*
X136076569Y-170468010D01*
X136797404Y-170250629D01*
X136856647Y-170229526D01*
X136857553Y-170229152D01*
X136967571Y-170170565D01*
X136968387Y-170170022D01*
X137065433Y-170090650D01*
X137066127Y-170089958D01*
X137145497Y-169993562D01*
X137146043Y-169992748D01*
X137197250Y-169900835D01*
X137197523Y-169900233D01*
X137213534Y-169861609D01*
X137354665Y-169486904D01*
X138295781Y-169942690D01*
X138373296Y-169984130D01*
X138419121Y-170006325D01*
X138419855Y-170006645D01*
X138467686Y-170025246D01*
X141032020Y-170905517D01*
X141091955Y-170922866D01*
X141092908Y-170923092D01*
X141204523Y-170939316D01*
X141205310Y-170939360D01*
X141255839Y-170940181D01*
X143786244Y-170881032D01*
X143848793Y-170876487D01*
X143849766Y-170876368D01*
X143960904Y-170852578D01*
X143961670Y-170852341D01*
X144009923Y-170835262D01*
X146010045Y-170035693D01*
X146067365Y-170009424D01*
X146068235Y-170008972D01*
X146162630Y-169948872D01*
X146163250Y-169948396D01*
X146201693Y-169916411D01*
X148015652Y-168282728D01*
X148059864Y-168238815D01*
X148060525Y-168238091D01*
X148136669Y-168135788D01*
X148137189Y-168134920D01*
X148167539Y-168077896D01*
X149224762Y-165823207D01*
X149248562Y-165765191D01*
X149248889Y-165764267D01*
X149275186Y-165665356D01*
X149275298Y-165664739D01*
X149281226Y-165625001D01*
X149609706Y-162820422D01*
X149614009Y-162740116D01*
X149613997Y-162738857D01*
X149608149Y-162658534D01*
X149489125Y-161787664D01*
X149489106Y-161787529D01*
X149488947Y-161786370D01*
X149488948Y-161786370D01*
X149208884Y-159737234D01*
X149191626Y-159653378D01*
X149191268Y-159652085D01*
X149162812Y-159570997D01*
X148061693Y-157001716D01*
X148023687Y-156927011D01*
X148023020Y-156925889D01*
X147975959Y-156857329D01*
X146317996Y-154750651D01*
X146261231Y-154687637D01*
X146260279Y-154686712D01*
X146195478Y-154631650D01*
X145763151Y-154311342D01*
X148063964Y-154311342D01*
X148063975Y-154312322D01*
X148077767Y-154437298D01*
X148077970Y-154438257D01*
X148116357Y-154558927D01*
X148116754Y-154559847D01*
X148144900Y-154617037D01*
X148619173Y-155470287D01*
X148636786Y-155500045D01*
X148637076Y-155500506D01*
X148656444Y-155529505D01*
X149302404Y-156441678D01*
X149314436Y-156458107D01*
X149314620Y-156458350D01*
X149326071Y-156473022D01*
X150315158Y-157703006D01*
X150356682Y-157749755D01*
X150357368Y-157750455D01*
X150429665Y-157813873D01*
X150430088Y-157814191D01*
X150457870Y-157833938D01*
X151172760Y-158313851D01*
X151226511Y-158346219D01*
X151227375Y-158346683D01*
X151342394Y-158394640D01*
X151343331Y-158394927D01*
X151466388Y-158419705D01*
X151467363Y-158419803D01*
X151592409Y-158420057D01*
X151593384Y-158419963D01*
X151655133Y-158410944D01*
X152308075Y-158282691D01*
X152333562Y-158276373D01*
X153490751Y-158067862D01*
X154564778Y-158526763D01*
X155229247Y-159260881D01*
X155557406Y-160087392D01*
X156007600Y-161727036D01*
X156472755Y-163829706D01*
X156708684Y-165087717D01*
X157575479Y-170036938D01*
X157589322Y-170098109D01*
X157589585Y-170099053D01*
X157634715Y-170215502D01*
X157635157Y-170216377D01*
X157702398Y-170322177D01*
X157703002Y-170322948D01*
X157789239Y-170413223D01*
X157789982Y-170413862D01*
X157892412Y-170485768D01*
X157893266Y-170486250D01*
X158007656Y-170536743D01*
X158008587Y-170537049D01*
X158137871Y-170565106D01*
X158138959Y-170565226D01*
X158208910Y-170569072D01*
X160701955Y-170569072D01*
X160709832Y-170569023D01*
X160709913Y-170569022D01*
X160712404Y-170568987D01*
X162142204Y-170545751D01*
X162157338Y-170545325D01*
X162157588Y-170545315D01*
X162174365Y-170544423D01*
X163067438Y-170485117D01*
X163136147Y-170476792D01*
X163137217Y-170476603D01*
X163205033Y-170460765D01*
X163357327Y-170416307D01*
X163416618Y-170395785D01*
X163417528Y-170395419D01*
X163528547Y-170337527D01*
X163529367Y-170336991D01*
X163626533Y-170258936D01*
X163627234Y-170258250D01*
X163707719Y-170162288D01*
X163708272Y-170161479D01*
X163768492Y-170051572D01*
X163768876Y-170050671D01*
X163806290Y-169931886D01*
X163806492Y-169930926D01*
X163819870Y-169780145D01*
X163819828Y-169778764D01*
X163811078Y-169691106D01*
X163723071Y-169174001D01*
X163723047Y-169174005D01*
X163722884Y-169172907D01*
X163490993Y-167824458D01*
X163490909Y-167824203D01*
X163490948Y-167824196D01*
X163144437Y-165814198D01*
X163144425Y-165814200D01*
X163144412Y-165814054D01*
X162712543Y-163312299D01*
X162712527Y-163312206D01*
X162388100Y-161434513D01*
X162388097Y-161434513D01*
X162388094Y-161434476D01*
X161034147Y-153600848D01*
X161622518Y-153600848D01*
X161622594Y-153601825D01*
X161644419Y-153724793D01*
X161644684Y-153725737D01*
X161682822Y-153827408D01*
X161683136Y-153828068D01*
X161704988Y-153869931D01*
X162001984Y-154390948D01*
X162004868Y-154395954D01*
X162004907Y-154396021D01*
X162006982Y-154399561D01*
X162760346Y-155674868D01*
X162760348Y-155674867D01*
X162761613Y-155677004D01*
X163902404Y-157591235D01*
X163903060Y-157592309D01*
X163903050Y-157592315D01*
X165362328Y-160030100D01*
X165362355Y-160030084D01*
X165362772Y-160030842D01*
X167071597Y-162876812D01*
X167071598Y-162876812D01*
X167071969Y-162877430D01*
X168961401Y-166016218D01*
X168961632Y-166016514D01*
X168961594Y-166016537D01*
X169150197Y-166329439D01*
X169150214Y-166329467D01*
X176418169Y-178386000D01*
X176453080Y-178437965D01*
X176453666Y-178438751D01*
X176537756Y-178531091D01*
X176538483Y-178531747D01*
X176639189Y-178606082D01*
X176640031Y-178606584D01*
X176753332Y-178659835D01*
X176754256Y-178660163D01*
X176890315Y-178692214D01*
X176891518Y-178692361D01*
X176968911Y-178697072D01*
X179479956Y-178697072D01*
X179488520Y-178697015D01*
X179488669Y-178697013D01*
X179499138Y-178696786D01*
X180939027Y-178653817D01*
X180967961Y-178652295D01*
X180968412Y-178652261D01*
X180996972Y-178649461D01*
X181905327Y-178539726D01*
X181966804Y-178529229D01*
X181967761Y-178529017D01*
X182075690Y-178494820D01*
X182076413Y-178494518D01*
X182121499Y-178473587D01*
X182284299Y-178390152D01*
X182338618Y-178358853D01*
X182339443Y-178358322D01*
X182437411Y-178280709D01*
X182438116Y-178280028D01*
X182519217Y-178184601D01*
X182519775Y-178183796D01*
X182580494Y-178074781D01*
X182580885Y-178073882D01*
X182619303Y-177954778D01*
X182619511Y-177953820D01*
X182633943Y-177829504D01*
X182633960Y-177828524D01*
X182623816Y-177703601D01*
X182623641Y-177702636D01*
X182591387Y-177587533D01*
X182591066Y-177586698D01*
X182568248Y-177534441D01*
X182320766Y-177030388D01*
X182312084Y-177013356D01*
X182311946Y-177013095D01*
X182302975Y-176996713D01*
X181632833Y-175814371D01*
X181630285Y-175809918D01*
X181630244Y-175809847D01*
X181627611Y-175805329D01*
X180643264Y-174132534D01*
X180640480Y-174127850D01*
X180640456Y-174127810D01*
X180640174Y-174127339D01*
X179688452Y-172544225D01*
X179687170Y-172542134D01*
X179687184Y-172542126D01*
X176977969Y-168074228D01*
X177723414Y-165408534D01*
X179343663Y-165408534D01*
X179343736Y-165409385D01*
X179350717Y-165463488D01*
X179635977Y-167114488D01*
X179637185Y-167121262D01*
X179637201Y-167121349D01*
X179638003Y-167125628D01*
X179894429Y-168468374D01*
X179896790Y-168480134D01*
X179896834Y-168480343D01*
X179900171Y-168495299D01*
X180120559Y-169430174D01*
X180125416Y-169449432D01*
X180125498Y-169449737D01*
X180131097Y-169469313D01*
X180133639Y-169477692D01*
X180154761Y-169536708D01*
X180155136Y-169537613D01*
X180214199Y-169648046D01*
X180214744Y-169648861D01*
X180310277Y-169761099D01*
X180311253Y-169762008D01*
X180377485Y-169815887D01*
X180749202Y-170078999D01*
X180802183Y-170112715D01*
X180803035Y-170113200D01*
X180928684Y-170167801D01*
X180929806Y-170168151D01*
X181003020Y-170186319D01*
X182002838Y-170372480D01*
X182040493Y-170378334D01*
X182041069Y-170378406D01*
X182076959Y-170381865D01*
X183811067Y-170499687D01*
X183823300Y-170500401D01*
X183823526Y-170500412D01*
X183840152Y-170501004D01*
X186414740Y-170559097D01*
X186422045Y-170559220D01*
X186422135Y-170559221D01*
X186426312Y-170559253D01*
X188576122Y-170569065D01*
X188579034Y-170569072D01*
X188579091Y-170569072D01*
X188583465Y-170569057D01*
X191688610Y-170547772D01*
X191699545Y-170547603D01*
X191699670Y-170547600D01*
X191704654Y-170547461D01*
X193905467Y-170477433D01*
X193924167Y-170476563D01*
X193924461Y-170476545D01*
X193943279Y-170475114D01*
X195350660Y-170347076D01*
X195404708Y-170339819D01*
X195405556Y-170339668D01*
X195459706Y-170327575D01*
X196184558Y-170132262D01*
X196244373Y-170112938D01*
X196245290Y-170112591D01*
X196357468Y-170057011D01*
X196358299Y-170056492D01*
X196475823Y-169962100D01*
X196476796Y-169961108D01*
X196534565Y-169893337D01*
X196697267Y-169673001D01*
X196732031Y-169620723D01*
X196732533Y-169619881D01*
X196785506Y-169507364D01*
X196785835Y-169506441D01*
X196816239Y-169383991D01*
X196816380Y-169383021D01*
X196822318Y-169261400D01*
X196822274Y-169260460D01*
X196816605Y-169200377D01*
X196722677Y-168540501D01*
X196722083Y-168536424D01*
X196722069Y-168536330D01*
X196720837Y-168528400D01*
X196475640Y-167013121D01*
X196475637Y-167013122D01*
X196475096Y-167009817D01*
X196103084Y-164784417D01*
X196102750Y-164782667D01*
X196102788Y-164782661D01*
X195628413Y-161992426D01*
X195628370Y-161992433D01*
X195628198Y-161991164D01*
X195075916Y-158781377D01*
X195075703Y-158780444D01*
X195075752Y-158780436D01*
X194654546Y-156354013D01*
X194654514Y-156354019D01*
X194654481Y-156353634D01*
X194298697Y-154311342D01*
X195815964Y-154311342D01*
X195815975Y-154312322D01*
X195829767Y-154437298D01*
X195829970Y-154438257D01*
X195868357Y-154558927D01*
X195868754Y-154559847D01*
X195896900Y-154617037D01*
X196371173Y-155470287D01*
X196388786Y-155500045D01*
X196389076Y-155500506D01*
X196408444Y-155529505D01*
X197054404Y-156441678D01*
X197066436Y-156458107D01*
X197066620Y-156458350D01*
X197078071Y-156473022D01*
X198067158Y-157703006D01*
X198108682Y-157749755D01*
X198109368Y-157750455D01*
X198181665Y-157813873D01*
X198182088Y-157814191D01*
X198209870Y-157833938D01*
X198924760Y-158313851D01*
X198978511Y-158346219D01*
X198979375Y-158346683D01*
X199094394Y-158394640D01*
X199095331Y-158394927D01*
X199218388Y-158419705D01*
X199219363Y-158419803D01*
X199344409Y-158420057D01*
X199345384Y-158419963D01*
X199407133Y-158410944D01*
X200060075Y-158282691D01*
X200085562Y-158276373D01*
X201242751Y-158067862D01*
X202316778Y-158526763D01*
X202981247Y-159260881D01*
X203309406Y-160087392D01*
X203759600Y-161727036D01*
X204224755Y-163829706D01*
X204460684Y-165087717D01*
X205327479Y-170036938D01*
X205341322Y-170098109D01*
X205341585Y-170099053D01*
X205386715Y-170215502D01*
X205387157Y-170216377D01*
X205454398Y-170322177D01*
X205455002Y-170322948D01*
X205541239Y-170413223D01*
X205541982Y-170413862D01*
X205644412Y-170485768D01*
X205645266Y-170486250D01*
X205759656Y-170536743D01*
X205760587Y-170537049D01*
X205889871Y-170565106D01*
X205890959Y-170565226D01*
X205960910Y-170569072D01*
X208453955Y-170569072D01*
X208461832Y-170569023D01*
X208461913Y-170569022D01*
X208464404Y-170568987D01*
X209894204Y-170545751D01*
X209909338Y-170545325D01*
X209909588Y-170545315D01*
X209926365Y-170544423D01*
X210819438Y-170485117D01*
X210888147Y-170476792D01*
X210889217Y-170476603D01*
X210957033Y-170460765D01*
X211109327Y-170416307D01*
X211168618Y-170395785D01*
X211169528Y-170395419D01*
X211280547Y-170337527D01*
X211281367Y-170336991D01*
X211378533Y-170258936D01*
X211379234Y-170258250D01*
X211459719Y-170162288D01*
X211460272Y-170161479D01*
X211520492Y-170051572D01*
X211520876Y-170050671D01*
X211558290Y-169931886D01*
X211558492Y-169930926D01*
X211571870Y-169780145D01*
X211571828Y-169778764D01*
X211563078Y-169691106D01*
X211475071Y-169174001D01*
X211475047Y-169174005D01*
X211474884Y-169172907D01*
X211242993Y-167824458D01*
X211242909Y-167824203D01*
X211242948Y-167824196D01*
X210896437Y-165814198D01*
X210896425Y-165814200D01*
X210896412Y-165814054D01*
X210464543Y-163312299D01*
X210464527Y-163312206D01*
X210140100Y-161434513D01*
X210140097Y-161434513D01*
X210140094Y-161434476D01*
X209964584Y-160419011D01*
X211175852Y-160419011D01*
X211196641Y-161552755D01*
X211200869Y-161615308D01*
X211200983Y-161616281D01*
X211227658Y-161738528D01*
X211227960Y-161739461D01*
X211250112Y-161797945D01*
X211559230Y-162507038D01*
X211586764Y-162562650D01*
X211587241Y-162563506D01*
X211659056Y-162666876D01*
X211659692Y-162667622D01*
X211749517Y-162754186D01*
X211750286Y-162754794D01*
X211828347Y-162807636D01*
X211828779Y-162807884D01*
X211856907Y-162823107D01*
X212609542Y-163206374D01*
X212666723Y-163232039D01*
X212667636Y-163232396D01*
X212776714Y-163264186D01*
X212777496Y-163264340D01*
X212827487Y-163272140D01*
X214178829Y-163428407D01*
X214210682Y-163431284D01*
X214211189Y-163431317D01*
X214244120Y-163432607D01*
X216349356Y-163460698D01*
X216357869Y-163460755D01*
X216357945Y-163460755D01*
X216359147Y-163460754D01*
X218311220Y-163457077D01*
X221110253Y-163478001D01*
X222965096Y-163571511D01*
X223879804Y-163751516D01*
X223938167Y-163802301D01*
X223914538Y-163950041D01*
X223447917Y-164724510D01*
X223403098Y-164789050D01*
X222418159Y-165528955D01*
X221016504Y-165676863D01*
X219228710Y-165176458D01*
X218390141Y-164732389D01*
X218381835Y-164728081D01*
X218381840Y-164728071D01*
X217066310Y-164055748D01*
X217009652Y-164030192D01*
X217008740Y-164029833D01*
X216892273Y-163996354D01*
X216891385Y-163996188D01*
X216834694Y-163988203D01*
X215711411Y-163881113D01*
X215648903Y-163878236D01*
X215647922Y-163878239D01*
X215544815Y-163886944D01*
X215544174Y-163887051D01*
X215502852Y-163895360D01*
X214265767Y-164186936D01*
X214233487Y-164195442D01*
X214232983Y-164195589D01*
X214201013Y-164205834D01*
X212994960Y-164627600D01*
X212936757Y-164651229D01*
X212935868Y-164651642D01*
X212809523Y-164729347D01*
X212808467Y-164730180D01*
X212744711Y-164787849D01*
X212345830Y-165200796D01*
X212304552Y-165247961D01*
X212303943Y-165248730D01*
X212236340Y-165353796D01*
X212235893Y-165354668D01*
X212189941Y-165471306D01*
X212189673Y-165472249D01*
X212167444Y-165595254D01*
X212167365Y-165596231D01*
X212169549Y-165721266D01*
X212169662Y-165722239D01*
X212190207Y-165824813D01*
X212190390Y-165825450D01*
X212203462Y-165865837D01*
X212429678Y-166492767D01*
X212454246Y-166551498D01*
X212454675Y-166552395D01*
X212484827Y-166608143D01*
X212563353Y-166737532D01*
X212594469Y-166784069D01*
X212594988Y-166784776D01*
X212630094Y-166828441D01*
X213428475Y-167736753D01*
X213459258Y-167769387D01*
X213459761Y-167769884D01*
X213493206Y-167800655D01*
X214754211Y-168880493D01*
X214772883Y-168895878D01*
X214773182Y-168896115D01*
X214792670Y-168910962D01*
X215319948Y-169296896D01*
X215370603Y-169330391D01*
X215371420Y-169330877D01*
X215425092Y-169359434D01*
X217678449Y-170423889D01*
X217753032Y-170453538D01*
X217754224Y-170453927D01*
X217831751Y-170473943D01*
X220499473Y-170986658D01*
X220567842Y-170995999D01*
X220568917Y-170996087D01*
X220637730Y-170997994D01*
X223324112Y-170927433D01*
X223407349Y-170919770D01*
X223408641Y-170919565D01*
X223490193Y-170901077D01*
X225799533Y-170215704D01*
X225854605Y-170196581D01*
X225855459Y-170196240D01*
X225909361Y-170171760D01*
X225961668Y-170145011D01*
X226012536Y-170115979D01*
X226013305Y-170115492D01*
X226060615Y-170082442D01*
X228211016Y-168430618D01*
X228258616Y-168390201D01*
X228259331Y-168389531D01*
X228336094Y-168303284D01*
X228336582Y-168302624D01*
X228365794Y-168259545D01*
X229758416Y-166013818D01*
X229788665Y-165959250D01*
X229789098Y-165958370D01*
X229830421Y-165850832D01*
X229830646Y-165850039D01*
X229842964Y-165798590D01*
X230362037Y-163150060D01*
X230370816Y-163090496D01*
X230370909Y-163089561D01*
X230374033Y-163029881D01*
X230374907Y-162869376D01*
X230373286Y-162820323D01*
X230373231Y-162819555D01*
X230367823Y-162770626D01*
X229989009Y-160241258D01*
X231132762Y-160241258D01*
X231132840Y-160307734D01*
X231132895Y-160308765D01*
X231139712Y-160373751D01*
X231618521Y-163423158D01*
X231639149Y-163512268D01*
X231639571Y-163513636D01*
X231672838Y-163599113D01*
X233009215Y-166415137D01*
X233052490Y-166492082D01*
X233053246Y-166493232D01*
X233106431Y-166563131D01*
X235150300Y-168896692D01*
X235207351Y-168954045D01*
X235208301Y-168954886D01*
X235272554Y-169004835D01*
X237103272Y-170249196D01*
X237156739Y-170281822D01*
X237157600Y-170282291D01*
X237243349Y-170321095D01*
X237243824Y-170321269D01*
X237275122Y-170331823D01*
X239401230Y-170988028D01*
X239462518Y-171003663D01*
X239463479Y-171003858D01*
X239556568Y-171015706D01*
X239557077Y-171015733D01*
X239590176Y-171016629D01*
X241899679Y-171019162D01*
X241992097Y-171012536D01*
X241993529Y-171012328D01*
X242083931Y-170992411D01*
X244173744Y-170370043D01*
X244258928Y-170337897D01*
X244260222Y-170337300D01*
X244340146Y-170293238D01*
X245209985Y-169729029D01*
X245242629Y-169706381D01*
X245243127Y-169706012D01*
X245274071Y-169681566D01*
X245872057Y-169178394D01*
X246321511Y-172204974D01*
X246321522Y-172204972D01*
X246321657Y-172205952D01*
X246699594Y-174724314D01*
X246701600Y-174736833D01*
X246701630Y-174737009D01*
X246703407Y-174746958D01*
X247017943Y-176430779D01*
X247028499Y-176477495D01*
X247028693Y-176478225D01*
X247042936Y-176524633D01*
X247397900Y-177541515D01*
X247421649Y-177600059D01*
X247422062Y-177600948D01*
X247492508Y-177717912D01*
X247493217Y-177718846D01*
X247542202Y-177776028D01*
X248041418Y-178293574D01*
X248087019Y-178336430D01*
X248087766Y-178337066D01*
X248190815Y-178408607D01*
X248191671Y-178409084D01*
X248297279Y-178455957D01*
X248298069Y-178456225D01*
X248349090Y-178471194D01*
X249096384Y-178657005D01*
X249166356Y-178670307D01*
X249167463Y-178670454D01*
X249238874Y-178675882D01*
X250338072Y-178697561D01*
X250344854Y-178697659D01*
X250344964Y-178697660D01*
X250352121Y-178697685D01*
X250640834Y-178697071D01*
X250652068Y-178696948D01*
X250652220Y-178696945D01*
X250660438Y-178696730D01*
X252163698Y-178647680D01*
X252242165Y-178640249D01*
X252243384Y-178640057D01*
X252320513Y-178622957D01*
X253026741Y-178419790D01*
X253085963Y-178399560D01*
X253086874Y-178399198D01*
X253198096Y-178341792D01*
X253198919Y-178341259D01*
X253296698Y-178263341D01*
X253297401Y-178262658D01*
X253378210Y-178167021D01*
X253378766Y-178166214D01*
X253443014Y-178047939D01*
X253443448Y-178046889D01*
X253467411Y-177978000D01*
X253593155Y-177536686D01*
X253607318Y-177475809D01*
X253607493Y-177474845D01*
X253617658Y-177349808D01*
X253617641Y-177348828D01*
X253608732Y-177253072D01*
X253608642Y-177252542D01*
X253601911Y-177218532D01*
X253559026Y-177029024D01*
X253408841Y-176301304D01*
X253118596Y-174721715D01*
X252715389Y-172442976D01*
X252227227Y-169624090D01*
X251681270Y-166419520D01*
X251376871Y-164612195D01*
X250939113Y-162002663D01*
X250939029Y-162002164D01*
X250938837Y-162001025D01*
X249464837Y-153214342D01*
X252119727Y-153214342D01*
X252119794Y-153215156D01*
X252126163Y-153266737D01*
X253320957Y-160504668D01*
X253862531Y-163820206D01*
X253863028Y-163823087D01*
X253863009Y-163823090D01*
X254274249Y-166270718D01*
X254275582Y-166278368D01*
X254275608Y-166278512D01*
X254277636Y-166289222D01*
X254616681Y-167999391D01*
X254623140Y-168028409D01*
X254623249Y-168028850D01*
X254630616Y-168056061D01*
X254955607Y-169159227D01*
X254982300Y-169232835D01*
X254982788Y-169233960D01*
X255018367Y-169303866D01*
X255387443Y-169930482D01*
X255422050Y-169983112D01*
X255422628Y-169983903D01*
X255505563Y-170076802D01*
X255506284Y-170077466D01*
X255582437Y-170137572D01*
X255582889Y-170137876D01*
X255612639Y-170156714D01*
X256083941Y-170437233D01*
X256139353Y-170466626D01*
X256140240Y-170467042D01*
X256270996Y-170511832D01*
X256272155Y-170512093D01*
X256347143Y-170524343D01*
X256978811Y-170589220D01*
X257018703Y-170592057D01*
X257019333Y-170592082D01*
X257059872Y-170592402D01*
X257905748Y-170572194D01*
X258207409Y-170569037D01*
X258226420Y-170568555D01*
X258226693Y-170568544D01*
X258242429Y-170567715D01*
X259688147Y-170473658D01*
X259748806Y-170466785D01*
X259749750Y-170466632D01*
X259809653Y-170453947D01*
X260725569Y-170213548D01*
X260784981Y-170194810D01*
X260785900Y-170194470D01*
X260898986Y-170139415D01*
X260899821Y-170138901D01*
X260996559Y-170065826D01*
X260997245Y-170065197D01*
X261039343Y-170022802D01*
X261110427Y-169944174D01*
X261133521Y-169934664D01*
X261838542Y-170182017D01*
X261940854Y-170233469D01*
X261986344Y-170254155D01*
X261987069Y-170254451D01*
X262034115Y-170271538D01*
X264380709Y-171021036D01*
X264441329Y-171037161D01*
X264442287Y-171037366D01*
X264565237Y-171051404D01*
X264566203Y-171051420D01*
X264628245Y-171049428D01*
X266839757Y-170870435D01*
X266902138Y-170862275D01*
X266903103Y-170862100D01*
X267036239Y-170822597D01*
X267037349Y-170822131D01*
X267106595Y-170787994D01*
X269016308Y-169698256D01*
X269081133Y-169655852D01*
X269082100Y-169655132D01*
X269140732Y-169605734D01*
X269341217Y-169415089D01*
X269363393Y-169392939D01*
X269363739Y-169392576D01*
X269385685Y-169368337D01*
X270114187Y-168521074D01*
X270161518Y-168458652D01*
X270162199Y-168457629D01*
X270201721Y-168389482D01*
X270669364Y-167454513D01*
X270704157Y-167370453D01*
X270704606Y-167369103D01*
X270727091Y-167280945D01*
X270943177Y-166082411D01*
X270951235Y-166020498D01*
X270951313Y-166019531D01*
X270953298Y-165958037D01*
X270927129Y-164320076D01*
X270925859Y-164288772D01*
X270925827Y-164288281D01*
X270923000Y-164256880D01*
X270663876Y-162003634D01*
X270662167Y-161990054D01*
X270662138Y-161989842D01*
X270660150Y-161976384D01*
X270177373Y-158931990D01*
X270176873Y-158928885D01*
X270176864Y-158928830D01*
X270176204Y-158924873D01*
X270084911Y-158388164D01*
X270084803Y-158387582D01*
X270084811Y-158387581D01*
X269215905Y-153307581D01*
X269202345Y-153246498D01*
X269202086Y-153245553D01*
X269157547Y-153129118D01*
X269157109Y-153128241D01*
X269090249Y-153022003D01*
X269089648Y-153021229D01*
X269003488Y-152930313D01*
X269002747Y-152929671D01*
X268900589Y-152857397D01*
X268899737Y-152856912D01*
X268785852Y-152806106D01*
X268784922Y-152805796D01*
X268672413Y-152779327D01*
X268671592Y-152779211D01*
X268618822Y-152773981D01*
X265901026Y-152618273D01*
X265894523Y-152617933D01*
X265894438Y-152617929D01*
X265890070Y-152617739D01*
X264329834Y-152555027D01*
X264273312Y-152555260D01*
X264272425Y-152555303D01*
X264215782Y-152560588D01*
X263444811Y-152667369D01*
X263383269Y-152678996D01*
X263382316Y-152679225D01*
X263263884Y-152720351D01*
X263262994Y-152720762D01*
X263155521Y-152783791D01*
X263154728Y-152784367D01*
X263060981Y-152867697D01*
X263060316Y-152868417D01*
X262994394Y-152953091D01*
X262994011Y-152953679D01*
X262970981Y-152991895D01*
X262765384Y-153361717D01*
X262737705Y-153417814D01*
X262737315Y-153418713D01*
X262699000Y-153537892D01*
X262698793Y-153538850D01*
X262684674Y-153692304D01*
X262684716Y-153693737D01*
X262693970Y-153784898D01*
X262799204Y-154387007D01*
X262801225Y-154398005D01*
X262801263Y-154398202D01*
X262804165Y-154412379D01*
X263222132Y-156342723D01*
X263623361Y-158569786D01*
X263974943Y-160853418D01*
X264240913Y-162935515D01*
X264385135Y-164545837D01*
X264379879Y-165231522D01*
X263957030Y-165584161D01*
X262977946Y-165720249D01*
X261996867Y-165572836D01*
X261302744Y-165095392D01*
X260683937Y-164043278D01*
X260109268Y-162170029D01*
X259552322Y-159357995D01*
X259550116Y-159345104D01*
X259550093Y-159345108D01*
X259550069Y-159344823D01*
X259103851Y-156744208D01*
X259101896Y-156733377D01*
X259101871Y-156733245D01*
X259100698Y-156727211D01*
X258748908Y-154962891D01*
X258740598Y-154926731D01*
X258740451Y-154926167D01*
X258729992Y-154890362D01*
X258376782Y-153800606D01*
X258354580Y-153742068D01*
X258354188Y-153741170D01*
X258300954Y-153643468D01*
X258300531Y-153642831D01*
X258271900Y-153603111D01*
X257821420Y-153026189D01*
X257780616Y-152978899D01*
X257779940Y-152978189D01*
X257684871Y-152896241D01*
X257684069Y-152895677D01*
X257580898Y-152836657D01*
X257580090Y-152836290D01*
X257527468Y-152815156D01*
X256883872Y-152589340D01*
X256823695Y-152571498D01*
X256822743Y-152571266D01*
X256729211Y-152555723D01*
X256728703Y-152555677D01*
X256696075Y-152553564D01*
X255763514Y-152517122D01*
X255750413Y-152516744D01*
X255750197Y-152516740D01*
X255735722Y-152516637D01*
X255186348Y-152518928D01*
X252760648Y-152518928D01*
X252698125Y-152521999D01*
X252697150Y-152522095D01*
X252574176Y-152546583D01*
X252573238Y-152546868D01*
X252458128Y-152594557D01*
X252457263Y-152595019D01*
X252353500Y-152664264D01*
X252352742Y-152664885D01*
X252263533Y-152754094D01*
X252262912Y-152754852D01*
X252193667Y-152858615D01*
X252193205Y-152859480D01*
X252145516Y-152974590D01*
X252145231Y-152975528D01*
X252120743Y-153098502D01*
X252120647Y-153099477D01*
X252119727Y-153214342D01*
X249464837Y-153214342D01*
X249438208Y-153055609D01*
X249424847Y-152994497D01*
X249424591Y-152993551D01*
X249380161Y-152876436D01*
X249379725Y-152875558D01*
X249313334Y-152769461D01*
X249312735Y-152768685D01*
X249227535Y-152678133D01*
X249226797Y-152677488D01*
X249124593Y-152604568D01*
X249123743Y-152604080D01*
X249009193Y-152552569D01*
X249008264Y-152552257D01*
X248877381Y-152523161D01*
X248876258Y-152523033D01*
X248803998Y-152518928D01*
X246385499Y-152518928D01*
X246365842Y-152519231D01*
X246365550Y-152519240D01*
X246347986Y-152520024D01*
X244788705Y-152611137D01*
X244726946Y-152617774D01*
X244725978Y-152617926D01*
X244620004Y-152644014D01*
X244619320Y-152644246D01*
X244576210Y-152660628D01*
X243839735Y-152971395D01*
X243783078Y-152998665D01*
X243782217Y-152999133D01*
X243678966Y-153069134D01*
X243678212Y-153069761D01*
X243590291Y-153158838D01*
X243589674Y-153159600D01*
X243513417Y-153278676D01*
X243512871Y-153279782D01*
X243482407Y-153352492D01*
X243414661Y-153547132D01*
X242632646Y-153104721D01*
X242590824Y-153083057D01*
X242590163Y-153082745D01*
X242547661Y-153064537D01*
X240530610Y-152285615D01*
X240453958Y-152261441D01*
X240452733Y-152261138D01*
X240373084Y-152246725D01*
X238394644Y-152017113D01*
X238302811Y-152013121D01*
X238301380Y-152013162D01*
X238210568Y-152022294D01*
X235710338Y-152456124D01*
X235649387Y-152469803D01*
X235648443Y-152470064D01*
X235530336Y-152515757D01*
X235529439Y-152516211D01*
X235473492Y-152548174D01*
X233515307Y-153802112D01*
X233464379Y-153838360D01*
X233463609Y-153838967D01*
X233370544Y-153929076D01*
X233369867Y-153929880D01*
X233329305Y-153983557D01*
X231980190Y-155979598D01*
X231947535Y-156033466D01*
X231947069Y-156034328D01*
X231903212Y-156135483D01*
X231902974Y-156136195D01*
X231889551Y-156181978D01*
X231216528Y-158842114D01*
X231204226Y-158903107D01*
X231204079Y-158904078D01*
X231197718Y-158967102D01*
X231141590Y-160068084D01*
X231132762Y-160241258D01*
X229989009Y-160241258D01*
X229892843Y-159599156D01*
X229880445Y-159537377D01*
X229880205Y-159536427D01*
X229849843Y-159445591D01*
X229849638Y-159445103D01*
X229835641Y-159414122D01*
X229609881Y-158947934D01*
X229608617Y-158945323D01*
X229608541Y-158945164D01*
X228520197Y-156697770D01*
X228490053Y-156642626D01*
X228489541Y-156641790D01*
X228432590Y-156562983D01*
X228432228Y-156562555D01*
X228407782Y-156535281D01*
X226367990Y-154386814D01*
X226322700Y-154343573D01*
X226321959Y-154342932D01*
X226243428Y-154284881D01*
X226242967Y-154284592D01*
X226213395Y-154267143D01*
X223565374Y-152799325D01*
X223509185Y-152771692D01*
X223508285Y-152771303D01*
X223420267Y-152740674D01*
X223419793Y-152740547D01*
X223388640Y-152733034D01*
X220248507Y-152058629D01*
X220192775Y-152049219D01*
X220191901Y-152049111D01*
X220136065Y-152044689D01*
X219240908Y-152013223D01*
X219181795Y-152013885D01*
X219180875Y-152013938D01*
X219122639Y-152019984D01*
X216401434Y-152429410D01*
X216340081Y-152441744D01*
X216339131Y-152441984D01*
X216239420Y-152476154D01*
X216238799Y-152476426D01*
X216199389Y-152495322D01*
X213997318Y-153645507D01*
X213943156Y-153677283D01*
X213942336Y-153677820D01*
X213849494Y-153751824D01*
X213848859Y-153752435D01*
X213810137Y-153793124D01*
X212259032Y-155573817D01*
X212220111Y-155623217D01*
X212219543Y-155624016D01*
X212157618Y-155732117D01*
X212157213Y-155733018D01*
X212133969Y-155792529D01*
X211365665Y-158093481D01*
X211346789Y-158162771D01*
X211346556Y-158163866D01*
X211335638Y-158234311D01*
X211317837Y-158415591D01*
X211291172Y-158687157D01*
X211290470Y-158694780D01*
X211290457Y-158694931D01*
X211289566Y-158706503D01*
X211177216Y-160363724D01*
X211175927Y-160392048D01*
X211175917Y-160392478D01*
X211175852Y-160419011D01*
X209964584Y-160419011D01*
X208735268Y-153306476D01*
X208721517Y-153245111D01*
X208721256Y-153244167D01*
X208676444Y-153127809D01*
X208676004Y-153126933D01*
X208609235Y-153021274D01*
X208608633Y-153020501D01*
X208522339Y-152929706D01*
X208521597Y-152929065D01*
X208419362Y-152856954D01*
X208418509Y-152856470D01*
X208304223Y-152805712D01*
X208303293Y-152805404D01*
X208193954Y-152779610D01*
X208193179Y-152779498D01*
X208143212Y-152774276D01*
X205755917Y-152619442D01*
X205732143Y-152618345D01*
X205731779Y-152618335D01*
X205709176Y-152618114D01*
X204061755Y-152631231D01*
X203999089Y-152634818D01*
X203998115Y-152634922D01*
X203873091Y-152661131D01*
X203872116Y-152661440D01*
X203811073Y-152684278D01*
X203099335Y-152992858D01*
X203043328Y-153020470D01*
X203042471Y-153020946D01*
X202939404Y-153092275D01*
X202938657Y-153092909D01*
X202876349Y-153157328D01*
X202363487Y-152899756D01*
X202337562Y-152887458D01*
X202337146Y-152887272D01*
X202310036Y-152875893D01*
X200540257Y-152180549D01*
X200480753Y-152160490D01*
X200479810Y-152160223D01*
X200366656Y-152138979D01*
X200365829Y-152138900D01*
X200312498Y-152136051D01*
X198436503Y-152114455D01*
X198373854Y-152116814D01*
X198372877Y-152116899D01*
X198248976Y-152140180D01*
X198248026Y-152140458D01*
X198188686Y-152161044D01*
X196768228Y-152733603D01*
X196711823Y-152759598D01*
X196710954Y-152760051D01*
X196614951Y-152821587D01*
X196614328Y-152822070D01*
X196576316Y-152853982D01*
X196071229Y-153312666D01*
X196027411Y-153356527D01*
X196026753Y-153357253D01*
X195951763Y-153458521D01*
X195951260Y-153459363D01*
X195898001Y-153572359D01*
X195897672Y-153573282D01*
X195869314Y-153682620D01*
X195869184Y-153683400D01*
X195862871Y-153733366D01*
X195818293Y-154249248D01*
X195815964Y-154311342D01*
X194298697Y-154311342D01*
X192530531Y-144161634D01*
X192516804Y-144100668D01*
X192516542Y-144099723D01*
X192471197Y-143982502D01*
X192470755Y-143981627D01*
X192404078Y-143876547D01*
X192403475Y-143875775D01*
X192317048Y-143785102D01*
X192316305Y-143784462D01*
X192213780Y-143712392D01*
X192212927Y-143711910D01*
X192098845Y-143661452D01*
X192097914Y-143661145D01*
X191986790Y-143635244D01*
X191985985Y-143635131D01*
X191933962Y-143629991D01*
X189266962Y-143476443D01*
X189255454Y-143475885D01*
X189255302Y-143475879D01*
X189247393Y-143475615D01*
X187675593Y-143433088D01*
X187607120Y-143434914D01*
X187606052Y-143435000D01*
X187538223Y-143444144D01*
X186735171Y-143596646D01*
X186674455Y-143611288D01*
X186673515Y-143611564D01*
X186557302Y-143658516D01*
X186556433Y-143658971D01*
X186451982Y-143727460D01*
X186451219Y-143728075D01*
X186358609Y-143819826D01*
X186357937Y-143820644D01*
X186317890Y-143875022D01*
X186044246Y-144291026D01*
X186012460Y-144344932D01*
X186012004Y-144345800D01*
X185964997Y-144461592D01*
X185964719Y-144462532D01*
X185943590Y-144563223D01*
X185943511Y-144563846D01*
X185939724Y-144603684D01*
X185924739Y-144839705D01*
X185923642Y-144895515D01*
X185923663Y-144896386D01*
X185927403Y-144951671D01*
X186013071Y-145720452D01*
X186014407Y-145731555D01*
X186014430Y-145731733D01*
X186016043Y-145743374D01*
X186252547Y-147341507D01*
X186252565Y-147341504D01*
X186253650Y-147348681D01*
X186613665Y-149605258D01*
X186614383Y-149609398D01*
X186614341Y-149609405D01*
X187070543Y-152353520D01*
X187070553Y-152353518D01*
X187071095Y-152356787D01*
X187596160Y-155417533D01*
X187596174Y-155417531D01*
X187596449Y-155419210D01*
X187642840Y-155685406D01*
X187642851Y-155685404D01*
X187642863Y-155685538D01*
X189217694Y-164710928D01*
X179984400Y-164710928D01*
X179921877Y-164713999D01*
X179920902Y-164714095D01*
X179797928Y-164738583D01*
X179796990Y-164738868D01*
X179681880Y-164786557D01*
X179681015Y-164787019D01*
X179577252Y-164856264D01*
X179576494Y-164856885D01*
X179487285Y-164946094D01*
X179486664Y-164946852D01*
X179417419Y-165050615D01*
X179416957Y-165051480D01*
X179369268Y-165166590D01*
X179368983Y-165167528D01*
X179344495Y-165290502D01*
X179344399Y-165291477D01*
X179343663Y-165408534D01*
X177723414Y-165408534D01*
X178823512Y-161474617D01*
X179535042Y-158941860D01*
X180160316Y-156737846D01*
X180643157Y-155058951D01*
X180925341Y-154108410D01*
X180961901Y-153996167D01*
X180978339Y-153935795D01*
X180978550Y-153934837D01*
X180993352Y-153810610D01*
X180993372Y-153809630D01*
X180983605Y-153684647D01*
X180983433Y-153683682D01*
X180952990Y-153572361D01*
X180952699Y-153571582D01*
X180932054Y-153522636D01*
X180747999Y-153132470D01*
X180718516Y-153077182D01*
X180718013Y-153076341D01*
X180643812Y-152976042D01*
X180643155Y-152975315D01*
X180550408Y-152891040D01*
X180549621Y-152890455D01*
X180442286Y-152825978D01*
X180441400Y-152825558D01*
X180339827Y-152787604D01*
X180339140Y-152787412D01*
X180295313Y-152776818D01*
X179313857Y-152575983D01*
X179261015Y-152567461D01*
X179260171Y-152567361D01*
X179205242Y-152563247D01*
X177812418Y-152519248D01*
X177800347Y-152518981D01*
X177800189Y-152518979D01*
X177792113Y-152518928D01*
X175008526Y-152518928D01*
X174946003Y-152521999D01*
X174945028Y-152522095D01*
X174822054Y-152546583D01*
X174821116Y-152546868D01*
X174706006Y-152594557D01*
X174705141Y-152595019D01*
X174601378Y-152664264D01*
X174600620Y-152664885D01*
X174511411Y-152754094D01*
X174510790Y-152754852D01*
X174441545Y-152858615D01*
X174441083Y-152859480D01*
X174394320Y-152971569D01*
X174394046Y-152972455D01*
X174379164Y-153029924D01*
X173469459Y-157364820D01*
X173025968Y-159322038D01*
X172620885Y-160842287D01*
X172271391Y-160340173D01*
X171321138Y-158775694D01*
X170558854Y-157420746D01*
X168077359Y-152878030D01*
X168044663Y-152824591D01*
X168044111Y-152823781D01*
X167964098Y-152728035D01*
X167963399Y-152727348D01*
X167865707Y-152648628D01*
X167864887Y-152648091D01*
X167754198Y-152590216D01*
X167753289Y-152589849D01*
X167606430Y-152550117D01*
X167605044Y-152549915D01*
X167515885Y-152543250D01*
X164806552Y-152531092D01*
X164792142Y-152531190D01*
X164791921Y-152531194D01*
X164778092Y-152531595D01*
X163311652Y-152589961D01*
X163268198Y-152593179D01*
X163267516Y-152593253D01*
X163223855Y-152599524D01*
X162312722Y-152762711D01*
X162251554Y-152776803D01*
X162250610Y-152777070D01*
X162134495Y-152822578D01*
X162133622Y-152823023D01*
X162028572Y-152890252D01*
X162027809Y-152890853D01*
X161981005Y-152931559D01*
X161818578Y-153087315D01*
X161775241Y-153133196D01*
X161774604Y-153133941D01*
X161703337Y-153235967D01*
X161702857Y-153236821D01*
X161652472Y-153351590D01*
X161652168Y-153352522D01*
X161625277Y-153474212D01*
X161625160Y-153475185D01*
X161622518Y-153600848D01*
X161034147Y-153600848D01*
X160983268Y-153306476D01*
X160969517Y-153245111D01*
X160969256Y-153244167D01*
X160924444Y-153127809D01*
X160924004Y-153126933D01*
X160857235Y-153021274D01*
X160856633Y-153020501D01*
X160770339Y-152929706D01*
X160769597Y-152929065D01*
X160667362Y-152856954D01*
X160666509Y-152856470D01*
X160552223Y-152805712D01*
X160551293Y-152805404D01*
X160441954Y-152779610D01*
X160441179Y-152779498D01*
X160391212Y-152774276D01*
X158003917Y-152619442D01*
X157980143Y-152618345D01*
X157979779Y-152618335D01*
X157957176Y-152618114D01*
X156309755Y-152631231D01*
X156247089Y-152634818D01*
X156246115Y-152634922D01*
X156121091Y-152661131D01*
X156120116Y-152661440D01*
X156059073Y-152684278D01*
X155347335Y-152992858D01*
X155291328Y-153020470D01*
X155290471Y-153020946D01*
X155187404Y-153092275D01*
X155186657Y-153092909D01*
X155124349Y-153157328D01*
X154611487Y-152899756D01*
X154585562Y-152887458D01*
X154585146Y-152887272D01*
X154558036Y-152875893D01*
X152788257Y-152180549D01*
X152728753Y-152160490D01*
X152727810Y-152160223D01*
X152614656Y-152138979D01*
X152613829Y-152138900D01*
X152560498Y-152136051D01*
X150684503Y-152114455D01*
X150621854Y-152116814D01*
X150620877Y-152116899D01*
X150496976Y-152140180D01*
X150496026Y-152140458D01*
X150436686Y-152161044D01*
X149016228Y-152733603D01*
X148959823Y-152759598D01*
X148958954Y-152760051D01*
X148862951Y-152821587D01*
X148862328Y-152822070D01*
X148824316Y-152853982D01*
X148319229Y-153312666D01*
X148275411Y-153356527D01*
X148274753Y-153357253D01*
X148199763Y-153458521D01*
X148199260Y-153459363D01*
X148146001Y-153572359D01*
X148145672Y-153573282D01*
X148117314Y-153682620D01*
X148117184Y-153683400D01*
X148110871Y-153733366D01*
X148066293Y-154249248D01*
X148063964Y-154311342D01*
X145763151Y-154311342D01*
X144125686Y-153098156D01*
X144048084Y-153048900D01*
X144046816Y-153048218D01*
X143962638Y-153010512D01*
X141626029Y-152160786D01*
X141566082Y-152142268D01*
X141565132Y-152142025D01*
X141463094Y-152124592D01*
X141462448Y-152124535D01*
X141420733Y-152122228D01*
X138962319Y-152066854D01*
X138899809Y-152068511D01*
X138898831Y-152068585D01*
X138791588Y-152085975D01*
X138790895Y-152086149D01*
X138747509Y-152098690D01*
X136553444Y-152817972D01*
X136476810Y-152848718D01*
X136475648Y-152849274D01*
X136403954Y-152889445D01*
X135380127Y-153553185D01*
X135329341Y-153589768D01*
X135328575Y-153590379D01*
X135257422Y-153656605D01*
X135257054Y-153657004D01*
X135234226Y-153683147D01*
X134879756Y-154112106D01*
X134873865Y-154075589D01*
X134870921Y-154058774D01*
X134870870Y-154058504D01*
X134867295Y-154040933D01*
X134734817Y-153433671D01*
X134718407Y-153372983D01*
X134718105Y-153372051D01*
X134668204Y-153257650D01*
X134667726Y-153256794D01*
X134596510Y-153154297D01*
X134595875Y-153153551D01*
X134486630Y-153052085D01*
X134485536Y-153051285D01*
X134412058Y-153004884D01*
X133848735Y-152700715D01*
X133792281Y-152673720D01*
X133791377Y-152673341D01*
X133664519Y-152635074D01*
X133663447Y-152634869D01*
X133594621Y-152625556D01*
X132351617Y-152525842D01*
X132328847Y-152524425D01*
X132328486Y-152524409D01*
X132305197Y-152523802D01*
X131680983Y-152518947D01*
X131676020Y-152518928D01*
X129112962Y-152518928D01*
X129050439Y-152521999D01*
X129049464Y-152522095D01*
X128926490Y-152546583D01*
X128925552Y-152546868D01*
X128810442Y-152594557D01*
X128809577Y-152595019D01*
X128705814Y-152664264D01*
X128705056Y-152664885D01*
X128615847Y-152754094D01*
X128615226Y-152754852D01*
X128545981Y-152858615D01*
X128545519Y-152859480D01*
X128497830Y-152974590D01*
X128497545Y-152975528D01*
X128473057Y-153098502D01*
X128472961Y-153099477D01*
X128472602Y-153220766D01*
X17804385Y-153220766D01*
X17706665Y-153172449D01*
X17677763Y-153133661D01*
X17582365Y-153044358D01*
X17512804Y-152996174D01*
X16810115Y-152567083D01*
X16243553Y-152063890D01*
X15825308Y-151532207D01*
X16005651Y-151712550D01*
X16396279Y-151973560D01*
X16830321Y-152153346D01*
X17291098Y-152245000D01*
X17760902Y-152245000D01*
X18221679Y-152153346D01*
X18655721Y-151973560D01*
X19046349Y-151712550D01*
X19378550Y-151380349D01*
X19639560Y-150989721D01*
X19819346Y-150555679D01*
X19911000Y-150094902D01*
X19911000Y-149625098D01*
X19819346Y-149164321D01*
X19639560Y-148730279D01*
X19378550Y-148339651D01*
X19046349Y-148007450D01*
X18655721Y-147746440D01*
X18221679Y-147566654D01*
X17760902Y-147475000D01*
X17291098Y-147475000D01*
X16830321Y-147566654D01*
X16396279Y-147746440D01*
X16005651Y-148007450D01*
X15673450Y-148339651D01*
X15412440Y-148730279D01*
X15232654Y-149164321D01*
X15141000Y-149625098D01*
X15141000Y-149725600D01*
X15087832Y-149326593D01*
X15122765Y-148560234D01*
X15236870Y-147992034D01*
X15251108Y-147862138D01*
X15242117Y-147731773D01*
X15236486Y-147709431D01*
X17105252Y-140735098D01*
X163477000Y-140735098D01*
X163477000Y-141204902D01*
X163568654Y-141665679D01*
X163748440Y-142099721D01*
X164009450Y-142490349D01*
X164341651Y-142822550D01*
X164732279Y-143083560D01*
X165166321Y-143263346D01*
X165627098Y-143355000D01*
X166096902Y-143355000D01*
X166557679Y-143263346D01*
X166991721Y-143083560D01*
X167382349Y-142822550D01*
X167714550Y-142490349D01*
X167975560Y-142099721D01*
X168155346Y-141665679D01*
X168247000Y-141204902D01*
X168247000Y-140735098D01*
X168155346Y-140274321D01*
X167975560Y-139840279D01*
X167714550Y-139449651D01*
X167382349Y-139117450D01*
X166991721Y-138856440D01*
X166557679Y-138676654D01*
X166096902Y-138585000D01*
X165627098Y-138585000D01*
X165166321Y-138676654D01*
X164732279Y-138856440D01*
X164341651Y-139117450D01*
X164009450Y-139449651D01*
X163748440Y-139840279D01*
X163568654Y-140274321D01*
X163477000Y-140735098D01*
X17105252Y-140735098D01*
X23644614Y-116329866D01*
X182871955Y-116329866D01*
X182883796Y-116454851D01*
X182883984Y-116455813D01*
X182919634Y-116575002D01*
X182920005Y-116575909D01*
X182966126Y-116667062D01*
X182966445Y-116667584D01*
X182987737Y-116700150D01*
X183332724Y-117194237D01*
X183354002Y-117222962D01*
X183354349Y-117223404D01*
X183377316Y-117251022D01*
X184344068Y-118349122D01*
X184352260Y-118358249D01*
X184352357Y-118358355D01*
X184356475Y-118362812D01*
X185842682Y-119956219D01*
X185842692Y-119956210D01*
X185849340Y-119963251D01*
X187752692Y-121943256D01*
X187755687Y-121946351D01*
X187755725Y-121946390D01*
X187757561Y-121948266D01*
X189975747Y-124206165D01*
X189979017Y-124209464D01*
X189979014Y-124209467D01*
X191185207Y-125419649D01*
X191185951Y-125420394D01*
X191186290Y-125420733D01*
X198857763Y-133080966D01*
X195133340Y-136824836D01*
X190956231Y-141023758D01*
X190914430Y-141070106D01*
X190913810Y-141070865D01*
X190844191Y-141175711D01*
X190843732Y-141176577D01*
X190796456Y-141291685D01*
X190796174Y-141292623D01*
X190772095Y-141415159D01*
X190772001Y-141416135D01*
X190772326Y-141541763D01*
X190772425Y-141542738D01*
X190797138Y-141665151D01*
X190797425Y-141666088D01*
X190845382Y-141781107D01*
X190845846Y-141781971D01*
X190914741Y-141884863D01*
X190915345Y-141885599D01*
X190956078Y-141930674D01*
X194996593Y-145995027D01*
X199037109Y-150059381D01*
X199083445Y-150101621D01*
X199084201Y-150102245D01*
X199187710Y-150171869D01*
X199188573Y-150172334D01*
X199304368Y-150220709D01*
X199305305Y-150220996D01*
X199428684Y-150245806D01*
X199429674Y-150245905D01*
X199493165Y-150249072D01*
X233414684Y-150249072D01*
X239182900Y-150243685D01*
X239182900Y-150243684D01*
X239184131Y-150243682D01*
X244643340Y-150228128D01*
X244643340Y-150228126D01*
X244644657Y-150228123D01*
X249711630Y-150203308D01*
X249711630Y-150203305D01*
X249713126Y-150203299D01*
X254304633Y-150170131D01*
X254304633Y-150170125D01*
X254306463Y-150170116D01*
X258339273Y-150129503D01*
X258339273Y-150129490D01*
X258341740Y-150129473D01*
X261732625Y-150082320D01*
X261736413Y-150082228D01*
X261736414Y-150082256D01*
X264402143Y-150029472D01*
X264402143Y-150029465D01*
X264409314Y-150029290D01*
X266266658Y-149971781D01*
X266278382Y-149971310D01*
X266278544Y-149971302D01*
X266287510Y-149970796D01*
X267253239Y-149909471D01*
X267312842Y-149902863D01*
X267313768Y-149902716D01*
X267372398Y-149890564D01*
X267494913Y-149859110D01*
X267554927Y-149840509D01*
X267555848Y-149840173D01*
X267668411Y-149786099D01*
X267669249Y-149785590D01*
X267769222Y-149710539D01*
X267769944Y-149709877D01*
X267853289Y-149616878D01*
X267853869Y-149616087D01*
X267917614Y-149508400D01*
X267918028Y-149507512D01*
X267959647Y-149388970D01*
X267959879Y-149388018D01*
X267977437Y-149264264D01*
X267977479Y-149263284D01*
X267970637Y-149138891D01*
X267970488Y-149137923D01*
X267948054Y-149050525D01*
X270756638Y-149050525D01*
X270756684Y-149051504D01*
X270774727Y-149175086D01*
X270774963Y-149176038D01*
X270816846Y-149293978D01*
X270817263Y-149294865D01*
X270864895Y-149378973D01*
X270865195Y-149379420D01*
X270885376Y-149407786D01*
X271299717Y-149957764D01*
X271339991Y-150006071D01*
X271340655Y-150006792D01*
X271413423Y-150074395D01*
X271413878Y-150074756D01*
X271443635Y-150096985D01*
X272490470Y-150832521D01*
X272519756Y-150851917D01*
X272520218Y-150852205D01*
X272549830Y-150869576D01*
X273148111Y-151199236D01*
X273156397Y-151203722D01*
X273156538Y-151203797D01*
X273166219Y-151208841D01*
X275225675Y-152259497D01*
X275282490Y-152285067D01*
X275283402Y-152285425D01*
X275404589Y-152319647D01*
X275405554Y-152319819D01*
X275529236Y-152329611D01*
X275530216Y-152329593D01*
X275655124Y-152314902D01*
X275656082Y-152314692D01*
X275774729Y-152276202D01*
X275775627Y-152275810D01*
X275885039Y-152214611D01*
X275885843Y-152214051D01*
X275962080Y-152151687D01*
X275962489Y-152151296D01*
X275987845Y-152125645D01*
X277392316Y-150622153D01*
X278862210Y-149552293D01*
X280356444Y-149213423D01*
X281718603Y-149548604D01*
X282323816Y-150026979D01*
X282753672Y-150854518D01*
X282541805Y-151618599D01*
X281439650Y-152662332D01*
X279253253Y-153907318D01*
X279136415Y-153963509D01*
X279119122Y-153972150D01*
X279118856Y-153972288D01*
X279102243Y-153981221D01*
X276381107Y-155496658D01*
X276325608Y-155531412D01*
X276324771Y-155531998D01*
X276273384Y-155572035D01*
X274448134Y-157150255D01*
X274403034Y-157193275D01*
X274402359Y-157193985D01*
X274336439Y-157275895D01*
X274336070Y-157276440D01*
X274313855Y-157311677D01*
X273267712Y-159097680D01*
X273238752Y-159153200D01*
X273238342Y-159154090D01*
X273200527Y-159259769D01*
X273200330Y-159260523D01*
X273189640Y-159309114D01*
X272805822Y-161447895D01*
X272798892Y-161497749D01*
X272798814Y-161498537D01*
X272795825Y-161549326D01*
X272788043Y-161960894D01*
X272788338Y-161995812D01*
X272788358Y-161996370D01*
X272790688Y-162032572D01*
X272992212Y-164200562D01*
X273007419Y-164291771D01*
X273007758Y-164293170D01*
X273035712Y-164380534D01*
X273745064Y-166148231D01*
X273769081Y-166201007D01*
X273769494Y-166201815D01*
X273798208Y-166252201D01*
X274174626Y-166848035D01*
X274211728Y-166900679D01*
X274212353Y-166901477D01*
X274255079Y-166950637D01*
X276148802Y-168917169D01*
X276216769Y-168978309D01*
X276217897Y-168979186D01*
X276293763Y-169029904D01*
X278774049Y-170442508D01*
X278845619Y-170477543D01*
X278846768Y-170478019D01*
X278921913Y-170503797D01*
X281695278Y-171265870D01*
X281777175Y-171282693D01*
X281778473Y-171282872D01*
X281862204Y-171288845D01*
X284635160Y-171303784D01*
X284715619Y-171299127D01*
X284716869Y-171298975D01*
X284795872Y-171284271D01*
X286328170Y-170897853D01*
X286390703Y-170878624D01*
X286391663Y-170878274D01*
X286451730Y-170852825D01*
X289053376Y-169590013D01*
X289125983Y-169548691D01*
X289127075Y-169547971D01*
X289193809Y-169497390D01*
X291120172Y-167827366D01*
X291160041Y-167789680D01*
X291160638Y-167789065D01*
X291196988Y-167748260D01*
X291603908Y-167250047D01*
X291620869Y-167228341D01*
X291621135Y-167227985D01*
X291638048Y-167204237D01*
X292654939Y-165705034D01*
X292687488Y-165651579D01*
X292687956Y-165650718D01*
X292733602Y-165544973D01*
X292733858Y-165544193D01*
X292748069Y-165494076D01*
X293003777Y-164428253D01*
X293015381Y-164366711D01*
X293015515Y-164365741D01*
X293020401Y-164240688D01*
X293020343Y-164239709D01*
X293000846Y-164116567D01*
X293000599Y-164115619D01*
X292959374Y-164002469D01*
X292958985Y-164001651D01*
X292931695Y-163950414D01*
X292395027Y-163044691D01*
X292360421Y-162992341D01*
X292359841Y-162991551D01*
X292277573Y-162899642D01*
X292276871Y-162898996D01*
X292230226Y-162860008D01*
X290990911Y-161920674D01*
X290964074Y-161901406D01*
X290963656Y-161901122D01*
X290937155Y-161884058D01*
X289643720Y-161095701D01*
X289571286Y-161057693D01*
X289570112Y-161057170D01*
X289492704Y-161028529D01*
X288784787Y-160817548D01*
X288723669Y-160802571D01*
X288722707Y-160802385D01*
X288598326Y-160790791D01*
X288597346Y-160790796D01*
X288473713Y-160803532D01*
X288472752Y-160803727D01*
X288352148Y-160840936D01*
X288351245Y-160841316D01*
X288225843Y-160911665D01*
X288224803Y-160912414D01*
X288161457Y-160964533D01*
X287830259Y-161274812D01*
X287786987Y-161319507D01*
X287786340Y-161320244D01*
X287700261Y-161445831D01*
X287699615Y-161447068D01*
X287666379Y-161523230D01*
X286956652Y-162706657D01*
X285740112Y-163904422D01*
X284357268Y-164831720D01*
X283218166Y-165206971D01*
X281851907Y-164905651D01*
X280608412Y-164130140D01*
X279816547Y-163139748D01*
X279681277Y-162599330D01*
X279871255Y-161814916D01*
X280596265Y-160981848D01*
X282144601Y-159968425D01*
X283380123Y-159324741D01*
X283391926Y-159318434D01*
X283392145Y-159318314D01*
X283408210Y-159309206D01*
X285187367Y-158266270D01*
X285216351Y-158248220D01*
X285216784Y-158247934D01*
X285243114Y-158229576D01*
X286941435Y-156980772D01*
X286964102Y-156963309D01*
X286964454Y-156963025D01*
X286986653Y-156944263D01*
X287440890Y-156542284D01*
X287487556Y-156496516D01*
X287488248Y-156495764D01*
X287529982Y-156445468D01*
X288985023Y-154496894D01*
X289019868Y-154445132D01*
X289020375Y-154444293D01*
X289072534Y-154336131D01*
X289072844Y-154335295D01*
X289090109Y-154281553D01*
X289662229Y-152186665D01*
X289675662Y-152125994D01*
X289675827Y-152125028D01*
X289684851Y-152007210D01*
X289684837Y-152006350D01*
X289681608Y-151951790D01*
X289465598Y-149840577D01*
X289456168Y-149778635D01*
X289455973Y-149777674D01*
X289427354Y-149678566D01*
X289427126Y-149677964D01*
X289411146Y-149639593D01*
X289173290Y-149117098D01*
X399570000Y-149117098D01*
X399570000Y-149586902D01*
X399661654Y-150047679D01*
X399841440Y-150481721D01*
X400102450Y-150872349D01*
X400434651Y-151204550D01*
X400825279Y-151465560D01*
X401259321Y-151645346D01*
X401720098Y-151737000D01*
X402189902Y-151737000D01*
X402650679Y-151645346D01*
X403084721Y-151465560D01*
X403475349Y-151204550D01*
X403807550Y-150872349D01*
X404068560Y-150481721D01*
X404248346Y-150047679D01*
X404340000Y-149586902D01*
X404340000Y-149117098D01*
X404248346Y-148656321D01*
X404068560Y-148222279D01*
X403807550Y-147831651D01*
X403475349Y-147499450D01*
X403084721Y-147238440D01*
X402650679Y-147058654D01*
X402189902Y-146967000D01*
X401720098Y-146967000D01*
X401259321Y-147058654D01*
X400825279Y-147238440D01*
X400434651Y-147499450D01*
X400102450Y-147831651D01*
X399841440Y-148222279D01*
X399661654Y-148656321D01*
X399570000Y-149117098D01*
X289173290Y-149117098D01*
X288501795Y-147642039D01*
X288458562Y-147562554D01*
X288457802Y-147561366D01*
X288404145Y-147489242D01*
X286896241Y-145735335D01*
X286838485Y-145676349D01*
X286837523Y-145675486D01*
X286772438Y-145624315D01*
X284760771Y-144244042D01*
X284691161Y-144202523D01*
X284690035Y-144201945D01*
X284615920Y-144169657D01*
X282195279Y-143293005D01*
X282115952Y-143269963D01*
X282114692Y-143269684D01*
X282033229Y-143257099D01*
X279298402Y-143014053D01*
X279239836Y-143011551D01*
X279238917Y-143011554D01*
X279180312Y-143014444D01*
X277989704Y-143128201D01*
X277939504Y-143135017D01*
X277938722Y-143135155D01*
X277889035Y-143145981D01*
X276198971Y-143585439D01*
X276112297Y-143614755D01*
X276110979Y-143615309D01*
X276029450Y-143656684D01*
X274543646Y-144549989D01*
X274492095Y-144584502D01*
X274491311Y-144585084D01*
X274442852Y-144624896D01*
X273137601Y-145809343D01*
X273118222Y-145827681D01*
X273117920Y-145827979D01*
X273098795Y-145847680D01*
X271942773Y-147091000D01*
X271923680Y-147112486D01*
X271923393Y-147112824D01*
X271905834Y-147134443D01*
X271118429Y-148148321D01*
X271079177Y-148204924D01*
X271078610Y-148205844D01*
X271045562Y-148266613D01*
X270818240Y-148744681D01*
X270794147Y-148802512D01*
X270793815Y-148803434D01*
X270763106Y-148925179D01*
X270762961Y-148926148D01*
X270756638Y-149050525D01*
X267948054Y-149050525D01*
X267939271Y-149016311D01*
X267938935Y-149015390D01*
X267891488Y-148913991D01*
X267891096Y-148913315D01*
X267864288Y-148871004D01*
X267526890Y-148382054D01*
X267505145Y-148352407D01*
X267504786Y-148351946D01*
X267480627Y-148322754D01*
X266566522Y-147282708D01*
X266558871Y-147274160D01*
X266558758Y-147274036D01*
X266552032Y-147266768D01*
X265208355Y-145837490D01*
X265204279Y-145833195D01*
X265204211Y-145833124D01*
X265199555Y-145828313D01*
X263869653Y-144468587D01*
X263865969Y-144464862D01*
X263865974Y-144464857D01*
X260391614Y-140970000D01*
X267791056Y-133526903D01*
X267832705Y-133480708D01*
X267833325Y-133479949D01*
X267902944Y-133375103D01*
X267903403Y-133374237D01*
X267950733Y-133258950D01*
X267951015Y-133258011D01*
X267975012Y-133135945D01*
X267975105Y-133134984D01*
X267978072Y-133073522D01*
X267978072Y-115684052D01*
X267975001Y-115621529D01*
X267974905Y-115620554D01*
X267950417Y-115497580D01*
X267950132Y-115496642D01*
X267902443Y-115381532D01*
X267901981Y-115380667D01*
X267830608Y-115274320D01*
X267829953Y-115273529D01*
X267785417Y-115225068D01*
X263715427Y-111231042D01*
X263712465Y-111228172D01*
X263712474Y-111228163D01*
X262049023Y-109616568D01*
X262047291Y-109614897D01*
X262047239Y-109614847D01*
X262042312Y-109610159D01*
X260634926Y-108285481D01*
X260626814Y-108277977D01*
X260626726Y-108277897D01*
X260623663Y-108275131D01*
X259634334Y-107387361D01*
X259615257Y-107370910D01*
X259614948Y-107370654D01*
X259594524Y-107354426D01*
X259200738Y-107054459D01*
X259149335Y-107019134D01*
X259148501Y-107018619D01*
X259035798Y-106963519D01*
X259034879Y-106963177D01*
X258913855Y-106931238D01*
X258912887Y-106931082D01*
X258788570Y-106923361D01*
X258787591Y-106923396D01*
X258663301Y-106940173D01*
X258662347Y-106940399D01*
X258542982Y-106981512D01*
X258542079Y-106981927D01*
X258485986Y-107011156D01*
X257996467Y-107297948D01*
X257950959Y-107327272D01*
X257950258Y-107327767D01*
X257906424Y-107361665D01*
X256868764Y-108238697D01*
X256857413Y-108248522D01*
X256857237Y-108248678D01*
X256846133Y-108258755D01*
X255418194Y-109585636D01*
X255408273Y-109595055D01*
X255408173Y-109595152D01*
X255405236Y-109598020D01*
X253932613Y-111044968D01*
X253932621Y-111044976D01*
X253927261Y-111050288D01*
X250337014Y-114661716D01*
X246587636Y-110931815D01*
X242382200Y-106748225D01*
X242335852Y-106706424D01*
X242335093Y-106705804D01*
X242230247Y-106636185D01*
X242229381Y-106635726D01*
X242114273Y-106588450D01*
X242113335Y-106588168D01*
X241990799Y-106564089D01*
X241989823Y-106563995D01*
X241864195Y-106564320D01*
X241863220Y-106564419D01*
X241740807Y-106589132D01*
X241739870Y-106589419D01*
X241624851Y-106637376D01*
X241623987Y-106637840D01*
X241519905Y-106707714D01*
X241519152Y-106708335D01*
X241473119Y-106750234D01*
X233390657Y-114862106D01*
X233348502Y-114908810D01*
X233347882Y-114909569D01*
X233278946Y-115013130D01*
X233278485Y-115013995D01*
X233230705Y-115129791D01*
X233230422Y-115130729D01*
X233206326Y-115252204D01*
X233206232Y-115253154D01*
X233203135Y-115313795D01*
X233183536Y-121028290D01*
X233170770Y-123613927D01*
X233079265Y-125234312D01*
X232881395Y-125866556D01*
X232680053Y-125973926D01*
X231878733Y-125849191D01*
X230306530Y-125332468D01*
X229699343Y-125122302D01*
X229689325Y-125118927D01*
X229689148Y-125118869D01*
X229676552Y-125114885D01*
X228403655Y-124726770D01*
X228374604Y-124718658D01*
X228374159Y-124718545D01*
X228346441Y-124712160D01*
X227006548Y-124434833D01*
X226979360Y-124429818D01*
X226978916Y-124429746D01*
X226949367Y-124425660D01*
X225342831Y-124241704D01*
X225321699Y-124239640D01*
X225321390Y-124239615D01*
X225303134Y-124238401D01*
X223230307Y-124130403D01*
X223219613Y-124129936D01*
X223219443Y-124129930D01*
X223208457Y-124129637D01*
X220469694Y-124080182D01*
X220466914Y-124080138D01*
X220466841Y-124080137D01*
X220460332Y-124080081D01*
X217843505Y-124070932D01*
X217841274Y-124070928D01*
X209413920Y-124070928D01*
X205404594Y-120040665D01*
X201654417Y-116270906D01*
X204914007Y-112943194D01*
X204914687Y-112942442D01*
X204914715Y-112942469D01*
X206833282Y-110977621D01*
X206833277Y-110977616D01*
X206834167Y-110976713D01*
X209134666Y-108611404D01*
X209134630Y-108611369D01*
X209135346Y-108610705D01*
X211495430Y-106176759D01*
X211496095Y-106176019D01*
X211496121Y-106176044D01*
X213155203Y-104459736D01*
X213155200Y-104459733D01*
X213155601Y-104459324D01*
X217690036Y-99760113D01*
X217731401Y-99712786D01*
X217732009Y-99712017D01*
X217799296Y-99607351D01*
X217799743Y-99606479D01*
X217845695Y-99489841D01*
X217845963Y-99488898D01*
X217868244Y-99365246D01*
X217868322Y-99364269D01*
X217866095Y-99239955D01*
X217865982Y-99238981D01*
X217839413Y-99116606D01*
X217839112Y-99115673D01*
X217788959Y-99000492D01*
X217788481Y-98999636D01*
X217717799Y-98897768D01*
X217717175Y-98897033D01*
X217675264Y-98852225D01*
X209074127Y-90500229D01*
X202214293Y-83839098D01*
X254028000Y-83839098D01*
X254028000Y-84308902D01*
X254119654Y-84769679D01*
X254299440Y-85203721D01*
X254560450Y-85594349D01*
X254892651Y-85926550D01*
X255283279Y-86187560D01*
X255717321Y-86367346D01*
X256178098Y-86459000D01*
X256647902Y-86459000D01*
X257108679Y-86367346D01*
X257542721Y-86187560D01*
X257933349Y-85926550D01*
X258265550Y-85594349D01*
X258526560Y-85203721D01*
X258706346Y-84769679D01*
X258798000Y-84308902D01*
X258798000Y-83839098D01*
X258706346Y-83378321D01*
X258526560Y-82944279D01*
X258265550Y-82553651D01*
X257933349Y-82221450D01*
X257542721Y-81960440D01*
X257108679Y-81780654D01*
X256647902Y-81689000D01*
X256178098Y-81689000D01*
X255717321Y-81780654D01*
X255283279Y-81960440D01*
X254892651Y-82221450D01*
X254560450Y-82553651D01*
X254299440Y-82944279D01*
X254119654Y-83378321D01*
X254028000Y-83839098D01*
X202214293Y-83839098D01*
X200472989Y-82148233D01*
X200426051Y-82106924D01*
X200425284Y-82106313D01*
X200320081Y-82038239D01*
X200319210Y-82037790D01*
X200203254Y-81991738D01*
X200202312Y-81991467D01*
X200078676Y-81968782D01*
X200077700Y-81968701D01*
X199953321Y-81970546D01*
X199952347Y-81970656D01*
X199830004Y-81996816D01*
X199829070Y-81997114D01*
X199713973Y-82046760D01*
X199713115Y-82047235D01*
X199614888Y-82114283D01*
X199614209Y-82114846D01*
X199572521Y-82152635D01*
X195381521Y-86302626D01*
X195379297Y-86304839D01*
X195379262Y-86304874D01*
X195377084Y-86307062D01*
X193726291Y-87973907D01*
X193719822Y-87980534D01*
X193719746Y-87980613D01*
X193716418Y-87984100D01*
X192371832Y-89403064D01*
X192364781Y-89410626D01*
X192364659Y-89410759D01*
X192356160Y-89420212D01*
X191461861Y-90435007D01*
X191435564Y-90466870D01*
X191435174Y-90467375D01*
X191411669Y-90499874D01*
X191110347Y-90945328D01*
X191077978Y-90998616D01*
X191077511Y-90999477D01*
X191028846Y-91115042D01*
X191028556Y-91115979D01*
X191003493Y-91238242D01*
X191003391Y-91239217D01*
X191002684Y-91364842D01*
X191002775Y-91365818D01*
X191026447Y-91488317D01*
X191026726Y-91489256D01*
X191077859Y-91612421D01*
X191078391Y-91613399D01*
X191115956Y-91674100D01*
X191460080Y-92166327D01*
X191484078Y-92198454D01*
X191484467Y-92198942D01*
X191510112Y-92229140D01*
X192443297Y-93261283D01*
X192451435Y-93270116D01*
X192451558Y-93270247D01*
X192459104Y-93278147D01*
X193832578Y-94691658D01*
X193836073Y-94695227D01*
X193836149Y-94695304D01*
X193842310Y-94701461D01*
X195257563Y-96096717D01*
X195261559Y-96100622D01*
X195261591Y-96100653D01*
X195261701Y-96100760D01*
X198857900Y-99582896D01*
X191190649Y-107238913D01*
X191190301Y-107239261D01*
X191188514Y-107241055D01*
X188849664Y-109598539D01*
X188849673Y-109598548D01*
X188845161Y-109603123D01*
X186769499Y-111737569D01*
X186764010Y-111743331D01*
X186763987Y-111743309D01*
X185053795Y-113546042D01*
X185049592Y-113550515D01*
X185049525Y-113550587D01*
X185045183Y-113555301D01*
X183802744Y-114917648D01*
X183793838Y-114927621D01*
X183793678Y-114927804D01*
X183782275Y-114941214D01*
X183109871Y-115754502D01*
X183072136Y-115805036D01*
X183071590Y-115805848D01*
X183039524Y-115858938D01*
X182949035Y-116026672D01*
X182922151Y-116082919D01*
X182921772Y-116083823D01*
X182884893Y-116203641D01*
X182884698Y-116204602D01*
X182872810Y-116320583D01*
X182871959Y-116328886D01*
X182871955Y-116329866D01*
X23644614Y-116329866D01*
X32384519Y-83712098D01*
X161953000Y-83712098D01*
X161953000Y-84181902D01*
X162044654Y-84642679D01*
X162224440Y-85076721D01*
X162485450Y-85467349D01*
X162817651Y-85799550D01*
X163208279Y-86060560D01*
X163642321Y-86240346D01*
X164103098Y-86332000D01*
X164572902Y-86332000D01*
X165033679Y-86240346D01*
X165467721Y-86060560D01*
X165858349Y-85799550D01*
X166190550Y-85467349D01*
X166451560Y-85076721D01*
X166631346Y-84642679D01*
X166723000Y-84181902D01*
X166723000Y-83712098D01*
X166631346Y-83251321D01*
X166451560Y-82817279D01*
X166190550Y-82426651D01*
X165858349Y-82094450D01*
X165467721Y-81833440D01*
X165033679Y-81653654D01*
X164572902Y-81562000D01*
X164103098Y-81562000D01*
X163642321Y-81653654D01*
X163208279Y-81833440D01*
X162817651Y-82094450D01*
X162485450Y-82426651D01*
X162224440Y-82817279D01*
X162044654Y-83251321D01*
X161953000Y-83712098D01*
X32384519Y-83712098D01*
X38577897Y-60598098D01*
X40160000Y-60598098D01*
X40160000Y-61067902D01*
X40251654Y-61528679D01*
X40431440Y-61962721D01*
X40692450Y-62353349D01*
X41024651Y-62685550D01*
X41415279Y-62946560D01*
X41849321Y-63126346D01*
X42310098Y-63218000D01*
X42779902Y-63218000D01*
X43240679Y-63126346D01*
X43674721Y-62946560D01*
X44065349Y-62685550D01*
X44397550Y-62353349D01*
X44658560Y-61962721D01*
X44838346Y-61528679D01*
X44930000Y-61067902D01*
X44930000Y-60598098D01*
X44838346Y-60137321D01*
X44658560Y-59703279D01*
X44397550Y-59312651D01*
X44065349Y-58980450D01*
X43674721Y-58719440D01*
X43240679Y-58539654D01*
X42779902Y-58448000D01*
X42310098Y-58448000D01*
X41849321Y-58539654D01*
X41415279Y-58719440D01*
X41024651Y-58980450D01*
X40692450Y-59312651D01*
X40431440Y-59703279D01*
X40251654Y-60137321D01*
X40160000Y-60598098D01*
X38577897Y-60598098D01*
X38598563Y-60520974D01*
X38630930Y-60485027D01*
X38699790Y-60373968D01*
X38733396Y-60296308D01*
X39016347Y-59523109D01*
X39398655Y-58868867D01*
X39890772Y-58292673D01*
X40477148Y-57812730D01*
X41139247Y-57444211D01*
X41856144Y-57198763D01*
X42605173Y-57084145D01*
X43368474Y-57104132D01*
G04 #@! TA.AperFunction,Conductor*
D15*
G36*
X43368474Y-57104132D02*
G01*
X44029161Y-57230165D01*
X44159189Y-57243144D01*
X44289461Y-57232891D01*
X44305643Y-57228646D01*
X81994717Y-67327403D01*
X82012802Y-67335030D01*
X82057370Y-67344191D01*
X82069858Y-67347537D01*
X82089128Y-67350719D01*
X82108240Y-67354647D01*
X82121086Y-67355995D01*
X82165990Y-67363409D01*
X82185611Y-67362766D01*
X172588584Y-76849833D01*
X172590617Y-76850450D01*
X172653146Y-76856608D01*
X172683358Y-76859779D01*
X172685474Y-76859793D01*
X172687581Y-76860000D01*
X172717976Y-76860000D01*
X172780789Y-76860401D01*
X172782874Y-76860000D01*
X247587084Y-76860000D01*
X247589121Y-76860392D01*
X247651835Y-76860000D01*
X247682419Y-76860000D01*
X247684491Y-76859796D01*
X247686552Y-76859783D01*
X247716648Y-76856629D01*
X247779383Y-76850450D01*
X247781378Y-76849845D01*
X337343759Y-67463242D01*
X337363234Y-67472066D01*
X337504235Y-67504942D01*
X337648939Y-67509679D01*
X337755992Y-67492005D01*
X367276166Y-59582098D01*
X375313000Y-59582098D01*
X375313000Y-60051902D01*
X375404654Y-60512679D01*
X375584440Y-60946721D01*
X375845450Y-61337349D01*
X376177651Y-61669550D01*
X376568279Y-61930560D01*
X377002321Y-62110346D01*
X377463098Y-62202000D01*
X377932902Y-62202000D01*
X378393679Y-62110346D01*
X378827721Y-61930560D01*
X379218349Y-61669550D01*
X379550550Y-61337349D01*
X379811560Y-60946721D01*
X379991346Y-60512679D01*
X380083000Y-60051902D01*
X380083000Y-59582098D01*
X379991346Y-59121321D01*
X379811560Y-58687279D01*
X379550550Y-58296651D01*
X379218349Y-57964450D01*
X378827721Y-57703440D01*
X378393679Y-57523654D01*
X377932902Y-57432000D01*
X377463098Y-57432000D01*
X377002321Y-57523654D01*
X376568279Y-57703440D01*
X376177651Y-57964450D01*
X375845450Y-58296651D01*
X375584440Y-58687279D01*
X375404654Y-59121321D01*
X375313000Y-59582098D01*
X367276166Y-59582098D01*
X375801731Y-57297680D01*
X376580566Y-57161751D01*
X377338309Y-57165719D01*
X378083367Y-57303807D01*
X378792202Y-57571654D01*
X379442393Y-57960786D01*
X380013407Y-58458913D01*
X380487185Y-59050284D01*
X380851524Y-59721313D01*
X381072721Y-60356504D01*
X381126496Y-60475601D01*
X381200511Y-60583293D01*
X381212279Y-60595185D01*
X404574123Y-147782778D01*
X404564066Y-147830091D01*
X404559962Y-147960700D01*
X404569688Y-148044759D01*
X404711245Y-148855843D01*
X404707277Y-149613586D01*
X404569189Y-150358642D01*
X404301345Y-151067472D01*
X403912205Y-151717678D01*
X403414080Y-152288689D01*
X402815379Y-152768339D01*
X402313247Y-153057719D01*
X402206277Y-153132773D01*
X402114289Y-153225584D01*
X402101224Y-153244561D01*
X383936259Y-162226164D01*
X383887891Y-162225581D01*
X383759013Y-162247171D01*
X383678494Y-162273193D01*
X382883604Y-162581669D01*
X382825268Y-162597907D01*
X382702994Y-162644001D01*
X382590814Y-162711020D01*
X382545511Y-162750478D01*
X279162530Y-190451865D01*
X140647807Y-190380885D01*
X128366423Y-187090098D01*
X169573000Y-187090098D01*
X169573000Y-187559902D01*
X169664654Y-188020679D01*
X169844440Y-188454721D01*
X170105450Y-188845349D01*
X170437651Y-189177550D01*
X170828279Y-189438560D01*
X171262321Y-189618346D01*
X171723098Y-189710000D01*
X172192902Y-189710000D01*
X172653679Y-189618346D01*
X173087721Y-189438560D01*
X173478349Y-189177550D01*
X173810550Y-188845349D01*
X174071560Y-188454721D01*
X174251346Y-188020679D01*
X174343000Y-187559902D01*
X174343000Y-187090098D01*
X174317739Y-186963098D01*
X245519000Y-186963098D01*
X245519000Y-187432902D01*
X245610654Y-187893679D01*
X245790440Y-188327721D01*
X246051450Y-188718349D01*
X246383651Y-189050550D01*
X246774279Y-189311560D01*
X247208321Y-189491346D01*
X247669098Y-189583000D01*
X248138902Y-189583000D01*
X248599679Y-189491346D01*
X249033721Y-189311560D01*
X249424349Y-189050550D01*
X249756550Y-188718349D01*
X250017560Y-188327721D01*
X250197346Y-187893679D01*
X250289000Y-187432902D01*
X250289000Y-186963098D01*
X250197346Y-186502321D01*
X250017560Y-186068279D01*
X249756550Y-185677651D01*
X249424349Y-185345450D01*
X249033721Y-185084440D01*
X248599679Y-184904654D01*
X248138902Y-184813000D01*
X247669098Y-184813000D01*
X247208321Y-184904654D01*
X246774279Y-185084440D01*
X246383651Y-185345450D01*
X246051450Y-185677651D01*
X245790440Y-186068279D01*
X245610654Y-186502321D01*
X245519000Y-186963098D01*
X174317739Y-186963098D01*
X174251346Y-186629321D01*
X174071560Y-186195279D01*
X173810550Y-185804651D01*
X173478349Y-185472450D01*
X173087721Y-185211440D01*
X172653679Y-185031654D01*
X172192902Y-184940000D01*
X171723098Y-184940000D01*
X171262321Y-185031654D01*
X170828279Y-185211440D01*
X170437651Y-185472450D01*
X170105450Y-185804651D01*
X169844440Y-186195279D01*
X169664654Y-186629321D01*
X169573000Y-187090098D01*
X128366423Y-187090098D01*
X108933634Y-181883098D01*
X125504000Y-181883098D01*
X125504000Y-182352902D01*
X125595654Y-182813679D01*
X125775440Y-183247721D01*
X126036450Y-183638349D01*
X126368651Y-183970550D01*
X126759279Y-184231560D01*
X127193321Y-184411346D01*
X127654098Y-184503000D01*
X128123902Y-184503000D01*
X128584679Y-184411346D01*
X129018721Y-184231560D01*
X129409349Y-183970550D01*
X129741550Y-183638349D01*
X130002560Y-183247721D01*
X130182346Y-182813679D01*
X130274000Y-182352902D01*
X130274000Y-181883098D01*
X289715000Y-181883098D01*
X289715000Y-182352902D01*
X289806654Y-182813679D01*
X289986440Y-183247721D01*
X290247450Y-183638349D01*
X290579651Y-183970550D01*
X290970279Y-184231560D01*
X291404321Y-184411346D01*
X291865098Y-184503000D01*
X292334902Y-184503000D01*
X292795679Y-184411346D01*
X293229721Y-184231560D01*
X293620349Y-183970550D01*
X293952550Y-183638349D01*
X294213560Y-183247721D01*
X294393346Y-182813679D01*
X294485000Y-182352902D01*
X294485000Y-181883098D01*
X294393346Y-181422321D01*
X294213560Y-180988279D01*
X293952550Y-180597651D01*
X293620349Y-180265450D01*
X293229721Y-180004440D01*
X292795679Y-179824654D01*
X292334902Y-179733000D01*
X291865098Y-179733000D01*
X291404321Y-179824654D01*
X290970279Y-180004440D01*
X290579651Y-180265450D01*
X290247450Y-180597651D01*
X289986440Y-180988279D01*
X289806654Y-181422321D01*
X289715000Y-181883098D01*
X130274000Y-181883098D01*
X130182346Y-181422321D01*
X130002560Y-180988279D01*
X129741550Y-180597651D01*
X129409349Y-180265450D01*
X129018721Y-180004440D01*
X128584679Y-179824654D01*
X128123902Y-179733000D01*
X127654098Y-179733000D01*
X127193321Y-179824654D01*
X126759279Y-180004440D01*
X126368651Y-180265450D01*
X126036450Y-180597651D01*
X125775440Y-180988279D01*
X125595654Y-181422321D01*
X125504000Y-181883098D01*
X108933634Y-181883098D01*
X37264887Y-162679516D01*
X37228940Y-162647149D01*
X37117881Y-162578289D01*
X37040221Y-162544683D01*
X36239512Y-162251665D01*
X36184965Y-162225349D01*
X36062690Y-162179255D01*
X35934185Y-162155544D01*
X35874111Y-162155277D01*
X17804385Y-153220766D01*
X128472602Y-153220766D01*
X128472687Y-153221685D01*
X128480848Y-153280213D01*
X128789270Y-154929423D01*
X128991376Y-156049105D01*
X129321280Y-157919758D01*
X129735033Y-160290664D01*
X129740545Y-160322499D01*
X130188448Y-162909679D01*
X130188450Y-162909686D01*
X130234566Y-163177233D01*
X130234567Y-163177233D01*
X131372376Y-169781188D01*
X131385971Y-169842114D01*
X131386231Y-169843059D01*
X131431256Y-169960189D01*
X131431696Y-169961065D01*
X131498219Y-170066408D01*
X131498821Y-170067182D01*
X131585039Y-170158015D01*
X131585780Y-170158656D01*
X131688337Y-170231045D01*
X131689190Y-170231529D01*
X131803476Y-170282287D01*
X131804406Y-170282595D01*
X131913179Y-170308307D01*
X131913956Y-170308420D01*
X131964475Y-170313723D01*
X134350920Y-170468556D01*
X134368220Y-170469443D01*
X134368459Y-170469452D01*
X134381616Y-170469812D01*
X135879959Y-170495304D01*
X135942240Y-170493320D01*
X135943217Y-170493241D01*
X136041251Y-170477565D01*
X136041803Y-170477432D01*
X136076569Y-170468010D01*
X136797404Y-170250629D01*
X136856647Y-170229526D01*
X136857553Y-170229152D01*
X136967571Y-170170565D01*
X136968387Y-170170022D01*
X137065433Y-170090650D01*
X137066127Y-170089958D01*
X137145497Y-169993562D01*
X137146043Y-169992748D01*
X137197250Y-169900835D01*
X137197523Y-169900233D01*
X137213534Y-169861609D01*
X137354665Y-169486904D01*
X138295781Y-169942690D01*
X138373296Y-169984130D01*
X138419121Y-170006325D01*
X138419855Y-170006645D01*
X138467686Y-170025246D01*
X141032020Y-170905517D01*
X141091955Y-170922866D01*
X141092908Y-170923092D01*
X141204523Y-170939316D01*
X141205310Y-170939360D01*
X141255839Y-170940181D01*
X143786244Y-170881032D01*
X143848793Y-170876487D01*
X143849766Y-170876368D01*
X143960904Y-170852578D01*
X143961670Y-170852341D01*
X144009923Y-170835262D01*
X146010045Y-170035693D01*
X146067365Y-170009424D01*
X146068235Y-170008972D01*
X146162630Y-169948872D01*
X146163250Y-169948396D01*
X146201693Y-169916411D01*
X148015652Y-168282728D01*
X148059864Y-168238815D01*
X148060525Y-168238091D01*
X148136669Y-168135788D01*
X148137189Y-168134920D01*
X148167539Y-168077896D01*
X149224762Y-165823207D01*
X149248562Y-165765191D01*
X149248889Y-165764267D01*
X149275186Y-165665356D01*
X149275298Y-165664739D01*
X149281226Y-165625001D01*
X149609706Y-162820422D01*
X149614009Y-162740116D01*
X149613997Y-162738857D01*
X149608149Y-162658534D01*
X149489125Y-161787664D01*
X149489106Y-161787529D01*
X149488947Y-161786370D01*
X149488948Y-161786370D01*
X149208884Y-159737234D01*
X149191626Y-159653378D01*
X149191268Y-159652085D01*
X149162812Y-159570997D01*
X148061693Y-157001716D01*
X148023687Y-156927011D01*
X148023020Y-156925889D01*
X147975959Y-156857329D01*
X146317996Y-154750651D01*
X146261231Y-154687637D01*
X146260279Y-154686712D01*
X146195478Y-154631650D01*
X145763151Y-154311342D01*
X148063964Y-154311342D01*
X148063975Y-154312322D01*
X148077767Y-154437298D01*
X148077970Y-154438257D01*
X148116357Y-154558927D01*
X148116754Y-154559847D01*
X148144900Y-154617037D01*
X148619173Y-155470287D01*
X148636786Y-155500045D01*
X148637076Y-155500506D01*
X148656444Y-155529505D01*
X149302404Y-156441678D01*
X149314436Y-156458107D01*
X149314620Y-156458350D01*
X149326071Y-156473022D01*
X150315158Y-157703006D01*
X150356682Y-157749755D01*
X150357368Y-157750455D01*
X150429665Y-157813873D01*
X150430088Y-157814191D01*
X150457870Y-157833938D01*
X151172760Y-158313851D01*
X151226511Y-158346219D01*
X151227375Y-158346683D01*
X151342394Y-158394640D01*
X151343331Y-158394927D01*
X151466388Y-158419705D01*
X151467363Y-158419803D01*
X151592409Y-158420057D01*
X151593384Y-158419963D01*
X151655133Y-158410944D01*
X152308075Y-158282691D01*
X152333562Y-158276373D01*
X153490751Y-158067862D01*
X154564778Y-158526763D01*
X155229247Y-159260881D01*
X155557406Y-160087392D01*
X156007600Y-161727036D01*
X156472755Y-163829706D01*
X156708684Y-165087717D01*
X157575479Y-170036938D01*
X157589322Y-170098109D01*
X157589585Y-170099053D01*
X157634715Y-170215502D01*
X157635157Y-170216377D01*
X157702398Y-170322177D01*
X157703002Y-170322948D01*
X157789239Y-170413223D01*
X157789982Y-170413862D01*
X157892412Y-170485768D01*
X157893266Y-170486250D01*
X158007656Y-170536743D01*
X158008587Y-170537049D01*
X158137871Y-170565106D01*
X158138959Y-170565226D01*
X158208910Y-170569072D01*
X160701955Y-170569072D01*
X160709832Y-170569023D01*
X160709913Y-170569022D01*
X160712404Y-170568987D01*
X162142204Y-170545751D01*
X162157338Y-170545325D01*
X162157588Y-170545315D01*
X162174365Y-170544423D01*
X163067438Y-170485117D01*
X163136147Y-170476792D01*
X163137217Y-170476603D01*
X163205033Y-170460765D01*
X163357327Y-170416307D01*
X163416618Y-170395785D01*
X163417528Y-170395419D01*
X163528547Y-170337527D01*
X163529367Y-170336991D01*
X163626533Y-170258936D01*
X163627234Y-170258250D01*
X163707719Y-170162288D01*
X163708272Y-170161479D01*
X163768492Y-170051572D01*
X163768876Y-170050671D01*
X163806290Y-169931886D01*
X163806492Y-169930926D01*
X163819870Y-169780145D01*
X163819828Y-169778764D01*
X163811078Y-169691106D01*
X163723071Y-169174001D01*
X163723047Y-169174005D01*
X163722884Y-169172907D01*
X163490993Y-167824458D01*
X163490909Y-167824203D01*
X163490948Y-167824196D01*
X163144437Y-165814198D01*
X163144425Y-165814200D01*
X163144412Y-165814054D01*
X162712543Y-163312299D01*
X162712527Y-163312206D01*
X162388100Y-161434513D01*
X162388097Y-161434513D01*
X162388094Y-161434476D01*
X161034147Y-153600848D01*
X161622518Y-153600848D01*
X161622594Y-153601825D01*
X161644419Y-153724793D01*
X161644684Y-153725737D01*
X161682822Y-153827408D01*
X161683136Y-153828068D01*
X161704988Y-153869931D01*
X162001984Y-154390948D01*
X162004868Y-154395954D01*
X162004907Y-154396021D01*
X162006982Y-154399561D01*
X162760346Y-155674868D01*
X162760348Y-155674867D01*
X162761613Y-155677004D01*
X163902404Y-157591235D01*
X163903060Y-157592309D01*
X163903050Y-157592315D01*
X165362328Y-160030100D01*
X165362355Y-160030084D01*
X165362772Y-160030842D01*
X167071597Y-162876812D01*
X167071598Y-162876812D01*
X167071969Y-162877430D01*
X168961401Y-166016218D01*
X168961632Y-166016514D01*
X168961594Y-166016537D01*
X169150197Y-166329439D01*
X169150214Y-166329467D01*
X176418169Y-178386000D01*
X176453080Y-178437965D01*
X176453666Y-178438751D01*
X176537756Y-178531091D01*
X176538483Y-178531747D01*
X176639189Y-178606082D01*
X176640031Y-178606584D01*
X176753332Y-178659835D01*
X176754256Y-178660163D01*
X176890315Y-178692214D01*
X176891518Y-178692361D01*
X176968911Y-178697072D01*
X179479956Y-178697072D01*
X179488520Y-178697015D01*
X179488669Y-178697013D01*
X179499138Y-178696786D01*
X180939027Y-178653817D01*
X180967961Y-178652295D01*
X180968412Y-178652261D01*
X180996972Y-178649461D01*
X181905327Y-178539726D01*
X181966804Y-178529229D01*
X181967761Y-178529017D01*
X182075690Y-178494820D01*
X182076413Y-178494518D01*
X182121499Y-178473587D01*
X182284299Y-178390152D01*
X182338618Y-178358853D01*
X182339443Y-178358322D01*
X182437411Y-178280709D01*
X182438116Y-178280028D01*
X182519217Y-178184601D01*
X182519775Y-178183796D01*
X182580494Y-178074781D01*
X182580885Y-178073882D01*
X182619303Y-177954778D01*
X182619511Y-177953820D01*
X182633943Y-177829504D01*
X182633960Y-177828524D01*
X182623816Y-177703601D01*
X182623641Y-177702636D01*
X182591387Y-177587533D01*
X182591066Y-177586698D01*
X182568248Y-177534441D01*
X182320766Y-177030388D01*
X182312084Y-177013356D01*
X182311946Y-177013095D01*
X182302975Y-176996713D01*
X181632833Y-175814371D01*
X181630285Y-175809918D01*
X181630244Y-175809847D01*
X181627611Y-175805329D01*
X180643264Y-174132534D01*
X180640480Y-174127850D01*
X180640456Y-174127810D01*
X180640174Y-174127339D01*
X179688452Y-172544225D01*
X179687170Y-172542134D01*
X179687184Y-172542126D01*
X176977969Y-168074228D01*
X177723414Y-165408534D01*
X179343663Y-165408534D01*
X179343736Y-165409385D01*
X179350717Y-165463488D01*
X179635977Y-167114488D01*
X179637185Y-167121262D01*
X179637201Y-167121349D01*
X179638003Y-167125628D01*
X179894429Y-168468374D01*
X179896790Y-168480134D01*
X179896834Y-168480343D01*
X179900171Y-168495299D01*
X180120559Y-169430174D01*
X180125416Y-169449432D01*
X180125498Y-169449737D01*
X180131097Y-169469313D01*
X180133639Y-169477692D01*
X180154761Y-169536708D01*
X180155136Y-169537613D01*
X180214199Y-169648046D01*
X180214744Y-169648861D01*
X180310277Y-169761099D01*
X180311253Y-169762008D01*
X180377485Y-169815887D01*
X180749202Y-170078999D01*
X180802183Y-170112715D01*
X180803035Y-170113200D01*
X180928684Y-170167801D01*
X180929806Y-170168151D01*
X181003020Y-170186319D01*
X182002838Y-170372480D01*
X182040493Y-170378334D01*
X182041069Y-170378406D01*
X182076959Y-170381865D01*
X183811067Y-170499687D01*
X183823300Y-170500401D01*
X183823526Y-170500412D01*
X183840152Y-170501004D01*
X186414740Y-170559097D01*
X186422045Y-170559220D01*
X186422135Y-170559221D01*
X186426312Y-170559253D01*
X188576122Y-170569065D01*
X188579034Y-170569072D01*
X188579091Y-170569072D01*
X188583465Y-170569057D01*
X191688610Y-170547772D01*
X191699545Y-170547603D01*
X191699670Y-170547600D01*
X191704654Y-170547461D01*
X193905467Y-170477433D01*
X193924167Y-170476563D01*
X193924461Y-170476545D01*
X193943279Y-170475114D01*
X195350660Y-170347076D01*
X195404708Y-170339819D01*
X195405556Y-170339668D01*
X195459706Y-170327575D01*
X196184558Y-170132262D01*
X196244373Y-170112938D01*
X196245290Y-170112591D01*
X196357468Y-170057011D01*
X196358299Y-170056492D01*
X196475823Y-169962100D01*
X196476796Y-169961108D01*
X196534565Y-169893337D01*
X196697267Y-169673001D01*
X196732031Y-169620723D01*
X196732533Y-169619881D01*
X196785506Y-169507364D01*
X196785835Y-169506441D01*
X196816239Y-169383991D01*
X196816380Y-169383021D01*
X196822318Y-169261400D01*
X196822274Y-169260460D01*
X196816605Y-169200377D01*
X196722677Y-168540501D01*
X196722083Y-168536424D01*
X196722069Y-168536330D01*
X196720837Y-168528400D01*
X196475640Y-167013121D01*
X196475637Y-167013122D01*
X196475096Y-167009817D01*
X196103084Y-164784417D01*
X196102750Y-164782667D01*
X196102788Y-164782661D01*
X195628413Y-161992426D01*
X195628370Y-161992433D01*
X195628198Y-161991164D01*
X195075916Y-158781377D01*
X195075703Y-158780444D01*
X195075752Y-158780436D01*
X194654546Y-156354013D01*
X194654514Y-156354019D01*
X194654481Y-156353634D01*
X194298697Y-154311342D01*
X195815964Y-154311342D01*
X195815975Y-154312322D01*
X195829767Y-154437298D01*
X195829970Y-154438257D01*
X195868357Y-154558927D01*
X195868754Y-154559847D01*
X195896900Y-154617037D01*
X196371173Y-155470287D01*
X196388786Y-155500045D01*
X196389076Y-155500506D01*
X196408444Y-155529505D01*
X197054404Y-156441678D01*
X197066436Y-156458107D01*
X197066620Y-156458350D01*
X197078071Y-156473022D01*
X198067158Y-157703006D01*
X198108682Y-157749755D01*
X198109368Y-157750455D01*
X198181665Y-157813873D01*
X198182088Y-157814191D01*
X198209870Y-157833938D01*
X198924760Y-158313851D01*
X198978511Y-158346219D01*
X198979375Y-158346683D01*
X199094394Y-158394640D01*
X199095331Y-158394927D01*
X199218388Y-158419705D01*
X199219363Y-158419803D01*
X199344409Y-158420057D01*
X199345384Y-158419963D01*
X199407133Y-158410944D01*
X200060075Y-158282691D01*
X200085562Y-158276373D01*
X201242751Y-158067862D01*
X202316778Y-158526763D01*
X202981247Y-159260881D01*
X203309406Y-160087392D01*
X203759600Y-161727036D01*
X204224755Y-163829706D01*
X204460684Y-165087717D01*
X205327479Y-170036938D01*
X205341322Y-170098109D01*
X205341585Y-170099053D01*
X205386715Y-170215502D01*
X205387157Y-170216377D01*
X205454398Y-170322177D01*
X205455002Y-170322948D01*
X205541239Y-170413223D01*
X205541982Y-170413862D01*
X205644412Y-170485768D01*
X205645266Y-170486250D01*
X205759656Y-170536743D01*
X205760587Y-170537049D01*
X205889871Y-170565106D01*
X205890959Y-170565226D01*
X205960910Y-170569072D01*
X208453955Y-170569072D01*
X208461832Y-170569023D01*
X208461913Y-170569022D01*
X208464404Y-170568987D01*
X209894204Y-170545751D01*
X209909338Y-170545325D01*
X209909588Y-170545315D01*
X209926365Y-170544423D01*
X210819438Y-170485117D01*
X210888147Y-170476792D01*
X210889217Y-170476603D01*
X210957033Y-170460765D01*
X211109327Y-170416307D01*
X211168618Y-170395785D01*
X211169528Y-170395419D01*
X211280547Y-170337527D01*
X211281367Y-170336991D01*
X211378533Y-170258936D01*
X211379234Y-170258250D01*
X211459719Y-170162288D01*
X211460272Y-170161479D01*
X211520492Y-170051572D01*
X211520876Y-170050671D01*
X211558290Y-169931886D01*
X211558492Y-169930926D01*
X211571870Y-169780145D01*
X211571828Y-169778764D01*
X211563078Y-169691106D01*
X211475071Y-169174001D01*
X211475047Y-169174005D01*
X211474884Y-169172907D01*
X211242993Y-167824458D01*
X211242909Y-167824203D01*
X211242948Y-167824196D01*
X210896437Y-165814198D01*
X210896425Y-165814200D01*
X210896412Y-165814054D01*
X210464543Y-163312299D01*
X210464527Y-163312206D01*
X210140100Y-161434513D01*
X210140097Y-161434513D01*
X210140094Y-161434476D01*
X209964584Y-160419011D01*
X211175852Y-160419011D01*
X211196641Y-161552755D01*
X211200869Y-161615308D01*
X211200983Y-161616281D01*
X211227658Y-161738528D01*
X211227960Y-161739461D01*
X211250112Y-161797945D01*
X211559230Y-162507038D01*
X211586764Y-162562650D01*
X211587241Y-162563506D01*
X211659056Y-162666876D01*
X211659692Y-162667622D01*
X211749517Y-162754186D01*
X211750286Y-162754794D01*
X211828347Y-162807636D01*
X211828779Y-162807884D01*
X211856907Y-162823107D01*
X212609542Y-163206374D01*
X212666723Y-163232039D01*
X212667636Y-163232396D01*
X212776714Y-163264186D01*
X212777496Y-163264340D01*
X212827487Y-163272140D01*
X214178829Y-163428407D01*
X214210682Y-163431284D01*
X214211189Y-163431317D01*
X214244120Y-163432607D01*
X216349356Y-163460698D01*
X216357869Y-163460755D01*
X216357945Y-163460755D01*
X216359147Y-163460754D01*
X218311220Y-163457077D01*
X221110253Y-163478001D01*
X222965096Y-163571511D01*
X223879804Y-163751516D01*
X223938167Y-163802301D01*
X223914538Y-163950041D01*
X223447917Y-164724510D01*
X223403098Y-164789050D01*
X222418159Y-165528955D01*
X221016504Y-165676863D01*
X219228710Y-165176458D01*
X218390141Y-164732389D01*
X218381835Y-164728081D01*
X218381840Y-164728071D01*
X217066310Y-164055748D01*
X217009652Y-164030192D01*
X217008740Y-164029833D01*
X216892273Y-163996354D01*
X216891385Y-163996188D01*
X216834694Y-163988203D01*
X215711411Y-163881113D01*
X215648903Y-163878236D01*
X215647922Y-163878239D01*
X215544815Y-163886944D01*
X215544174Y-163887051D01*
X215502852Y-163895360D01*
X214265767Y-164186936D01*
X214233487Y-164195442D01*
X214232983Y-164195589D01*
X214201013Y-164205834D01*
X212994960Y-164627600D01*
X212936757Y-164651229D01*
X212935868Y-164651642D01*
X212809523Y-164729347D01*
X212808467Y-164730180D01*
X212744711Y-164787849D01*
X212345830Y-165200796D01*
X212304552Y-165247961D01*
X212303943Y-165248730D01*
X212236340Y-165353796D01*
X212235893Y-165354668D01*
X212189941Y-165471306D01*
X212189673Y-165472249D01*
X212167444Y-165595254D01*
X212167365Y-165596231D01*
X212169549Y-165721266D01*
X212169662Y-165722239D01*
X212190207Y-165824813D01*
X212190390Y-165825450D01*
X212203462Y-165865837D01*
X212429678Y-166492767D01*
X212454246Y-166551498D01*
X212454675Y-166552395D01*
X212484827Y-166608143D01*
X212563353Y-166737532D01*
X212594469Y-166784069D01*
X212594988Y-166784776D01*
X212630094Y-166828441D01*
X213428475Y-167736753D01*
X213459258Y-167769387D01*
X213459761Y-167769884D01*
X213493206Y-167800655D01*
X214754211Y-168880493D01*
X214772883Y-168895878D01*
X214773182Y-168896115D01*
X214792670Y-168910962D01*
X215319948Y-169296896D01*
X215370603Y-169330391D01*
X215371420Y-169330877D01*
X215425092Y-169359434D01*
X217678449Y-170423889D01*
X217753032Y-170453538D01*
X217754224Y-170453927D01*
X217831751Y-170473943D01*
X220499473Y-170986658D01*
X220567842Y-170995999D01*
X220568917Y-170996087D01*
X220637730Y-170997994D01*
X223324112Y-170927433D01*
X223407349Y-170919770D01*
X223408641Y-170919565D01*
X223490193Y-170901077D01*
X225799533Y-170215704D01*
X225854605Y-170196581D01*
X225855459Y-170196240D01*
X225909361Y-170171760D01*
X225961668Y-170145011D01*
X226012536Y-170115979D01*
X226013305Y-170115492D01*
X226060615Y-170082442D01*
X228211016Y-168430618D01*
X228258616Y-168390201D01*
X228259331Y-168389531D01*
X228336094Y-168303284D01*
X228336582Y-168302624D01*
X228365794Y-168259545D01*
X229758416Y-166013818D01*
X229788665Y-165959250D01*
X229789098Y-165958370D01*
X229830421Y-165850832D01*
X229830646Y-165850039D01*
X229842964Y-165798590D01*
X230362037Y-163150060D01*
X230370816Y-163090496D01*
X230370909Y-163089561D01*
X230374033Y-163029881D01*
X230374907Y-162869376D01*
X230373286Y-162820323D01*
X230373231Y-162819555D01*
X230367823Y-162770626D01*
X229989009Y-160241258D01*
X231132762Y-160241258D01*
X231132840Y-160307734D01*
X231132895Y-160308765D01*
X231139712Y-160373751D01*
X231618521Y-163423158D01*
X231639149Y-163512268D01*
X231639571Y-163513636D01*
X231672838Y-163599113D01*
X233009215Y-166415137D01*
X233052490Y-166492082D01*
X233053246Y-166493232D01*
X233106431Y-166563131D01*
X235150300Y-168896692D01*
X235207351Y-168954045D01*
X235208301Y-168954886D01*
X235272554Y-169004835D01*
X237103272Y-170249196D01*
X237156739Y-170281822D01*
X237157600Y-170282291D01*
X237243349Y-170321095D01*
X237243824Y-170321269D01*
X237275122Y-170331823D01*
X239401230Y-170988028D01*
X239462518Y-171003663D01*
X239463479Y-171003858D01*
X239556568Y-171015706D01*
X239557077Y-171015733D01*
X239590176Y-171016629D01*
X241899679Y-171019162D01*
X241992097Y-171012536D01*
X241993529Y-171012328D01*
X242083931Y-170992411D01*
X244173744Y-170370043D01*
X244258928Y-170337897D01*
X244260222Y-170337300D01*
X244340146Y-170293238D01*
X245209985Y-169729029D01*
X245242629Y-169706381D01*
X245243127Y-169706012D01*
X245274071Y-169681566D01*
X245872057Y-169178394D01*
X246321511Y-172204974D01*
X246321522Y-172204972D01*
X246321657Y-172205952D01*
X246699594Y-174724314D01*
X246701600Y-174736833D01*
X246701630Y-174737009D01*
X246703407Y-174746958D01*
X247017943Y-176430779D01*
X247028499Y-176477495D01*
X247028693Y-176478225D01*
X247042936Y-176524633D01*
X247397900Y-177541515D01*
X247421649Y-177600059D01*
X247422062Y-177600948D01*
X247492508Y-177717912D01*
X247493217Y-177718846D01*
X247542202Y-177776028D01*
X248041418Y-178293574D01*
X248087019Y-178336430D01*
X248087766Y-178337066D01*
X248190815Y-178408607D01*
X248191671Y-178409084D01*
X248297279Y-178455957D01*
X248298069Y-178456225D01*
X248349090Y-178471194D01*
X249096384Y-178657005D01*
X249166356Y-178670307D01*
X249167463Y-178670454D01*
X249238874Y-178675882D01*
X250338072Y-178697561D01*
X250344854Y-178697659D01*
X250344964Y-178697660D01*
X250352121Y-178697685D01*
X250640834Y-178697071D01*
X250652068Y-178696948D01*
X250652220Y-178696945D01*
X250660438Y-178696730D01*
X252163698Y-178647680D01*
X252242165Y-178640249D01*
X252243384Y-178640057D01*
X252320513Y-178622957D01*
X253026741Y-178419790D01*
X253085963Y-178399560D01*
X253086874Y-178399198D01*
X253198096Y-178341792D01*
X253198919Y-178341259D01*
X253296698Y-178263341D01*
X253297401Y-178262658D01*
X253378210Y-178167021D01*
X253378766Y-178166214D01*
X253443014Y-178047939D01*
X253443448Y-178046889D01*
X253467411Y-177978000D01*
X253593155Y-177536686D01*
X253607318Y-177475809D01*
X253607493Y-177474845D01*
X253617658Y-177349808D01*
X253617641Y-177348828D01*
X253608732Y-177253072D01*
X253608642Y-177252542D01*
X253601911Y-177218532D01*
X253559026Y-177029024D01*
X253408841Y-176301304D01*
X253118596Y-174721715D01*
X252715389Y-172442976D01*
X252227227Y-169624090D01*
X251681270Y-166419520D01*
X251376871Y-164612195D01*
X250939113Y-162002663D01*
X250939029Y-162002164D01*
X250938837Y-162001025D01*
X249464837Y-153214342D01*
X252119727Y-153214342D01*
X252119794Y-153215156D01*
X252126163Y-153266737D01*
X253320957Y-160504668D01*
X253862531Y-163820206D01*
X253863028Y-163823087D01*
X253863009Y-163823090D01*
X254274249Y-166270718D01*
X254275582Y-166278368D01*
X254275608Y-166278512D01*
X254277636Y-166289222D01*
X254616681Y-167999391D01*
X254623140Y-168028409D01*
X254623249Y-168028850D01*
X254630616Y-168056061D01*
X254955607Y-169159227D01*
X254982300Y-169232835D01*
X254982788Y-169233960D01*
X255018367Y-169303866D01*
X255387443Y-169930482D01*
X255422050Y-169983112D01*
X255422628Y-169983903D01*
X255505563Y-170076802D01*
X255506284Y-170077466D01*
X255582437Y-170137572D01*
X255582889Y-170137876D01*
X255612639Y-170156714D01*
X256083941Y-170437233D01*
X256139353Y-170466626D01*
X256140240Y-170467042D01*
X256270996Y-170511832D01*
X256272155Y-170512093D01*
X256347143Y-170524343D01*
X256978811Y-170589220D01*
X257018703Y-170592057D01*
X257019333Y-170592082D01*
X257059872Y-170592402D01*
X257905748Y-170572194D01*
X258207409Y-170569037D01*
X258226420Y-170568555D01*
X258226693Y-170568544D01*
X258242429Y-170567715D01*
X259688147Y-170473658D01*
X259748806Y-170466785D01*
X259749750Y-170466632D01*
X259809653Y-170453947D01*
X260725569Y-170213548D01*
X260784981Y-170194810D01*
X260785900Y-170194470D01*
X260898986Y-170139415D01*
X260899821Y-170138901D01*
X260996559Y-170065826D01*
X260997245Y-170065197D01*
X261039343Y-170022802D01*
X261110427Y-169944174D01*
X261133521Y-169934664D01*
X261838542Y-170182017D01*
X261940854Y-170233469D01*
X261986344Y-170254155D01*
X261987069Y-170254451D01*
X262034115Y-170271538D01*
X264380709Y-171021036D01*
X264441329Y-171037161D01*
X264442287Y-171037366D01*
X264565237Y-171051404D01*
X264566203Y-171051420D01*
X264628245Y-171049428D01*
X266839757Y-170870435D01*
X266902138Y-170862275D01*
X266903103Y-170862100D01*
X267036239Y-170822597D01*
X267037349Y-170822131D01*
X267106595Y-170787994D01*
X269016308Y-169698256D01*
X269081133Y-169655852D01*
X269082100Y-169655132D01*
X269140732Y-169605734D01*
X269341217Y-169415089D01*
X269363393Y-169392939D01*
X269363739Y-169392576D01*
X269385685Y-169368337D01*
X270114187Y-168521074D01*
X270161518Y-168458652D01*
X270162199Y-168457629D01*
X270201721Y-168389482D01*
X270669364Y-167454513D01*
X270704157Y-167370453D01*
X270704606Y-167369103D01*
X270727091Y-167280945D01*
X270943177Y-166082411D01*
X270951235Y-166020498D01*
X270951313Y-166019531D01*
X270953298Y-165958037D01*
X270927129Y-164320076D01*
X270925859Y-164288772D01*
X270925827Y-164288281D01*
X270923000Y-164256880D01*
X270663876Y-162003634D01*
X270662167Y-161990054D01*
X270662138Y-161989842D01*
X270660150Y-161976384D01*
X270177373Y-158931990D01*
X270176873Y-158928885D01*
X270176864Y-158928830D01*
X270176204Y-158924873D01*
X270084911Y-158388164D01*
X270084803Y-158387582D01*
X270084811Y-158387581D01*
X269215905Y-153307581D01*
X269202345Y-153246498D01*
X269202086Y-153245553D01*
X269157547Y-153129118D01*
X269157109Y-153128241D01*
X269090249Y-153022003D01*
X269089648Y-153021229D01*
X269003488Y-152930313D01*
X269002747Y-152929671D01*
X268900589Y-152857397D01*
X268899737Y-152856912D01*
X268785852Y-152806106D01*
X268784922Y-152805796D01*
X268672413Y-152779327D01*
X268671592Y-152779211D01*
X268618822Y-152773981D01*
X265901026Y-152618273D01*
X265894523Y-152617933D01*
X265894438Y-152617929D01*
X265890070Y-152617739D01*
X264329834Y-152555027D01*
X264273312Y-152555260D01*
X264272425Y-152555303D01*
X264215782Y-152560588D01*
X263444811Y-152667369D01*
X263383269Y-152678996D01*
X263382316Y-152679225D01*
X263263884Y-152720351D01*
X263262994Y-152720762D01*
X263155521Y-152783791D01*
X263154728Y-152784367D01*
X263060981Y-152867697D01*
X263060316Y-152868417D01*
X262994394Y-152953091D01*
X262994011Y-152953679D01*
X262970981Y-152991895D01*
X262765384Y-153361717D01*
X262737705Y-153417814D01*
X262737315Y-153418713D01*
X262699000Y-153537892D01*
X262698793Y-153538850D01*
X262684674Y-153692304D01*
X262684716Y-153693737D01*
X262693970Y-153784898D01*
X262799204Y-154387007D01*
X262801225Y-154398005D01*
X262801263Y-154398202D01*
X262804165Y-154412379D01*
X263222132Y-156342723D01*
X263623361Y-158569786D01*
X263974943Y-160853418D01*
X264240913Y-162935515D01*
X264385135Y-164545837D01*
X264379879Y-165231522D01*
X263957030Y-165584161D01*
X262977946Y-165720249D01*
X261996867Y-165572836D01*
X261302744Y-165095392D01*
X260683937Y-164043278D01*
X260109268Y-162170029D01*
X259552322Y-159357995D01*
X259550116Y-159345104D01*
X259550093Y-159345108D01*
X259550069Y-159344823D01*
X259103851Y-156744208D01*
X259101896Y-156733377D01*
X259101871Y-156733245D01*
X259100698Y-156727211D01*
X258748908Y-154962891D01*
X258740598Y-154926731D01*
X258740451Y-154926167D01*
X258729992Y-154890362D01*
X258376782Y-153800606D01*
X258354580Y-153742068D01*
X258354188Y-153741170D01*
X258300954Y-153643468D01*
X258300531Y-153642831D01*
X258271900Y-153603111D01*
X257821420Y-153026189D01*
X257780616Y-152978899D01*
X257779940Y-152978189D01*
X257684871Y-152896241D01*
X257684069Y-152895677D01*
X257580898Y-152836657D01*
X257580090Y-152836290D01*
X257527468Y-152815156D01*
X256883872Y-152589340D01*
X256823695Y-152571498D01*
X256822743Y-152571266D01*
X256729211Y-152555723D01*
X256728703Y-152555677D01*
X256696075Y-152553564D01*
X255763514Y-152517122D01*
X255750413Y-152516744D01*
X255750197Y-152516740D01*
X255735722Y-152516637D01*
X255186348Y-152518928D01*
X252760648Y-152518928D01*
X252698125Y-152521999D01*
X252697150Y-152522095D01*
X252574176Y-152546583D01*
X252573238Y-152546868D01*
X252458128Y-152594557D01*
X252457263Y-152595019D01*
X252353500Y-152664264D01*
X252352742Y-152664885D01*
X252263533Y-152754094D01*
X252262912Y-152754852D01*
X252193667Y-152858615D01*
X252193205Y-152859480D01*
X252145516Y-152974590D01*
X252145231Y-152975528D01*
X252120743Y-153098502D01*
X252120647Y-153099477D01*
X252119727Y-153214342D01*
X249464837Y-153214342D01*
X249438208Y-153055609D01*
X249424847Y-152994497D01*
X249424591Y-152993551D01*
X249380161Y-152876436D01*
X249379725Y-152875558D01*
X249313334Y-152769461D01*
X249312735Y-152768685D01*
X249227535Y-152678133D01*
X249226797Y-152677488D01*
X249124593Y-152604568D01*
X249123743Y-152604080D01*
X249009193Y-152552569D01*
X249008264Y-152552257D01*
X248877381Y-152523161D01*
X248876258Y-152523033D01*
X248803998Y-152518928D01*
X246385499Y-152518928D01*
X246365842Y-152519231D01*
X246365550Y-152519240D01*
X246347986Y-152520024D01*
X244788705Y-152611137D01*
X244726946Y-152617774D01*
X244725978Y-152617926D01*
X244620004Y-152644014D01*
X244619320Y-152644246D01*
X244576210Y-152660628D01*
X243839735Y-152971395D01*
X243783078Y-152998665D01*
X243782217Y-152999133D01*
X243678966Y-153069134D01*
X243678212Y-153069761D01*
X243590291Y-153158838D01*
X243589674Y-153159600D01*
X243513417Y-153278676D01*
X243512871Y-153279782D01*
X243482407Y-153352492D01*
X243414661Y-153547132D01*
X242632646Y-153104721D01*
X242590824Y-153083057D01*
X242590163Y-153082745D01*
X242547661Y-153064537D01*
X240530610Y-152285615D01*
X240453958Y-152261441D01*
X240452733Y-152261138D01*
X240373084Y-152246725D01*
X238394644Y-152017113D01*
X238302811Y-152013121D01*
X238301380Y-152013162D01*
X238210568Y-152022294D01*
X235710338Y-152456124D01*
X235649387Y-152469803D01*
X235648443Y-152470064D01*
X235530336Y-152515757D01*
X235529439Y-152516211D01*
X235473492Y-152548174D01*
X233515307Y-153802112D01*
X233464379Y-153838360D01*
X233463609Y-153838967D01*
X233370544Y-153929076D01*
X233369867Y-153929880D01*
X233329305Y-153983557D01*
X231980190Y-155979598D01*
X231947535Y-156033466D01*
X231947069Y-156034328D01*
X231903212Y-156135483D01*
X231902974Y-156136195D01*
X231889551Y-156181978D01*
X231216528Y-158842114D01*
X231204226Y-158903107D01*
X231204079Y-158904078D01*
X231197718Y-158967102D01*
X231141590Y-160068084D01*
X231132762Y-160241258D01*
X229989009Y-160241258D01*
X229892843Y-159599156D01*
X229880445Y-159537377D01*
X229880205Y-159536427D01*
X229849843Y-159445591D01*
X229849638Y-159445103D01*
X229835641Y-159414122D01*
X229609881Y-158947934D01*
X229608617Y-158945323D01*
X229608541Y-158945164D01*
X228520197Y-156697770D01*
X228490053Y-156642626D01*
X228489541Y-156641790D01*
X228432590Y-156562983D01*
X228432228Y-156562555D01*
X228407782Y-156535281D01*
X226367990Y-154386814D01*
X226322700Y-154343573D01*
X226321959Y-154342932D01*
X226243428Y-154284881D01*
X226242967Y-154284592D01*
X226213395Y-154267143D01*
X223565374Y-152799325D01*
X223509185Y-152771692D01*
X223508285Y-152771303D01*
X223420267Y-152740674D01*
X223419793Y-152740547D01*
X223388640Y-152733034D01*
X220248507Y-152058629D01*
X220192775Y-152049219D01*
X220191901Y-152049111D01*
X220136065Y-152044689D01*
X219240908Y-152013223D01*
X219181795Y-152013885D01*
X219180875Y-152013938D01*
X219122639Y-152019984D01*
X216401434Y-152429410D01*
X216340081Y-152441744D01*
X216339131Y-152441984D01*
X216239420Y-152476154D01*
X216238799Y-152476426D01*
X216199389Y-152495322D01*
X213997318Y-153645507D01*
X213943156Y-153677283D01*
X213942336Y-153677820D01*
X213849494Y-153751824D01*
X213848859Y-153752435D01*
X213810137Y-153793124D01*
X212259032Y-155573817D01*
X212220111Y-155623217D01*
X212219543Y-155624016D01*
X212157618Y-155732117D01*
X212157213Y-155733018D01*
X212133969Y-155792529D01*
X211365665Y-158093481D01*
X211346789Y-158162771D01*
X211346556Y-158163866D01*
X211335638Y-158234311D01*
X211317837Y-158415591D01*
X211291172Y-158687157D01*
X211290470Y-158694780D01*
X211290457Y-158694931D01*
X211289566Y-158706503D01*
X211177216Y-160363724D01*
X211175927Y-160392048D01*
X211175917Y-160392478D01*
X211175852Y-160419011D01*
X209964584Y-160419011D01*
X208735268Y-153306476D01*
X208721517Y-153245111D01*
X208721256Y-153244167D01*
X208676444Y-153127809D01*
X208676004Y-153126933D01*
X208609235Y-153021274D01*
X208608633Y-153020501D01*
X208522339Y-152929706D01*
X208521597Y-152929065D01*
X208419362Y-152856954D01*
X208418509Y-152856470D01*
X208304223Y-152805712D01*
X208303293Y-152805404D01*
X208193954Y-152779610D01*
X208193179Y-152779498D01*
X208143212Y-152774276D01*
X205755917Y-152619442D01*
X205732143Y-152618345D01*
X205731779Y-152618335D01*
X205709176Y-152618114D01*
X204061755Y-152631231D01*
X203999089Y-152634818D01*
X203998115Y-152634922D01*
X203873091Y-152661131D01*
X203872116Y-152661440D01*
X203811073Y-152684278D01*
X203099335Y-152992858D01*
X203043328Y-153020470D01*
X203042471Y-153020946D01*
X202939404Y-153092275D01*
X202938657Y-153092909D01*
X202876349Y-153157328D01*
X202363487Y-152899756D01*
X202337562Y-152887458D01*
X202337146Y-152887272D01*
X202310036Y-152875893D01*
X200540257Y-152180549D01*
X200480753Y-152160490D01*
X200479810Y-152160223D01*
X200366656Y-152138979D01*
X200365829Y-152138900D01*
X200312498Y-152136051D01*
X198436503Y-152114455D01*
X198373854Y-152116814D01*
X198372877Y-152116899D01*
X198248976Y-152140180D01*
X198248026Y-152140458D01*
X198188686Y-152161044D01*
X196768228Y-152733603D01*
X196711823Y-152759598D01*
X196710954Y-152760051D01*
X196614951Y-152821587D01*
X196614328Y-152822070D01*
X196576316Y-152853982D01*
X196071229Y-153312666D01*
X196027411Y-153356527D01*
X196026753Y-153357253D01*
X195951763Y-153458521D01*
X195951260Y-153459363D01*
X195898001Y-153572359D01*
X195897672Y-153573282D01*
X195869314Y-153682620D01*
X195869184Y-153683400D01*
X195862871Y-153733366D01*
X195818293Y-154249248D01*
X195815964Y-154311342D01*
X194298697Y-154311342D01*
X192530531Y-144161634D01*
X192516804Y-144100668D01*
X192516542Y-144099723D01*
X192471197Y-143982502D01*
X192470755Y-143981627D01*
X192404078Y-143876547D01*
X192403475Y-143875775D01*
X192317048Y-143785102D01*
X192316305Y-143784462D01*
X192213780Y-143712392D01*
X192212927Y-143711910D01*
X192098845Y-143661452D01*
X192097914Y-143661145D01*
X191986790Y-143635244D01*
X191985985Y-143635131D01*
X191933962Y-143629991D01*
X189266962Y-143476443D01*
X189255454Y-143475885D01*
X189255302Y-143475879D01*
X189247393Y-143475615D01*
X187675593Y-143433088D01*
X187607120Y-143434914D01*
X187606052Y-143435000D01*
X187538223Y-143444144D01*
X186735171Y-143596646D01*
X186674455Y-143611288D01*
X186673515Y-143611564D01*
X186557302Y-143658516D01*
X186556433Y-143658971D01*
X186451982Y-143727460D01*
X186451219Y-143728075D01*
X186358609Y-143819826D01*
X186357937Y-143820644D01*
X186317890Y-143875022D01*
X186044246Y-144291026D01*
X186012460Y-144344932D01*
X186012004Y-144345800D01*
X185964997Y-144461592D01*
X185964719Y-144462532D01*
X185943590Y-144563223D01*
X185943511Y-144563846D01*
X185939724Y-144603684D01*
X185924739Y-144839705D01*
X185923642Y-144895515D01*
X185923663Y-144896386D01*
X185927403Y-144951671D01*
X186013071Y-145720452D01*
X186014407Y-145731555D01*
X186014430Y-145731733D01*
X186016043Y-145743374D01*
X186252547Y-147341507D01*
X186252565Y-147341504D01*
X186253650Y-147348681D01*
X186613665Y-149605258D01*
X186614383Y-149609398D01*
X186614341Y-149609405D01*
X187070543Y-152353520D01*
X187070553Y-152353518D01*
X187071095Y-152356787D01*
X187596160Y-155417533D01*
X187596174Y-155417531D01*
X187596449Y-155419210D01*
X187642840Y-155685406D01*
X187642851Y-155685404D01*
X187642863Y-155685538D01*
X189217694Y-164710928D01*
X179984400Y-164710928D01*
X179921877Y-164713999D01*
X179920902Y-164714095D01*
X179797928Y-164738583D01*
X179796990Y-164738868D01*
X179681880Y-164786557D01*
X179681015Y-164787019D01*
X179577252Y-164856264D01*
X179576494Y-164856885D01*
X179487285Y-164946094D01*
X179486664Y-164946852D01*
X179417419Y-165050615D01*
X179416957Y-165051480D01*
X179369268Y-165166590D01*
X179368983Y-165167528D01*
X179344495Y-165290502D01*
X179344399Y-165291477D01*
X179343663Y-165408534D01*
X177723414Y-165408534D01*
X178823512Y-161474617D01*
X179535042Y-158941860D01*
X180160316Y-156737846D01*
X180643157Y-155058951D01*
X180925341Y-154108410D01*
X180961901Y-153996167D01*
X180978339Y-153935795D01*
X180978550Y-153934837D01*
X180993352Y-153810610D01*
X180993372Y-153809630D01*
X180983605Y-153684647D01*
X180983433Y-153683682D01*
X180952990Y-153572361D01*
X180952699Y-153571582D01*
X180932054Y-153522636D01*
X180747999Y-153132470D01*
X180718516Y-153077182D01*
X180718013Y-153076341D01*
X180643812Y-152976042D01*
X180643155Y-152975315D01*
X180550408Y-152891040D01*
X180549621Y-152890455D01*
X180442286Y-152825978D01*
X180441400Y-152825558D01*
X180339827Y-152787604D01*
X180339140Y-152787412D01*
X180295313Y-152776818D01*
X179313857Y-152575983D01*
X179261015Y-152567461D01*
X179260171Y-152567361D01*
X179205242Y-152563247D01*
X177812418Y-152519248D01*
X177800347Y-152518981D01*
X177800189Y-152518979D01*
X177792113Y-152518928D01*
X175008526Y-152518928D01*
X174946003Y-152521999D01*
X174945028Y-152522095D01*
X174822054Y-152546583D01*
X174821116Y-152546868D01*
X174706006Y-152594557D01*
X174705141Y-152595019D01*
X174601378Y-152664264D01*
X174600620Y-152664885D01*
X174511411Y-152754094D01*
X174510790Y-152754852D01*
X174441545Y-152858615D01*
X174441083Y-152859480D01*
X174394320Y-152971569D01*
X174394046Y-152972455D01*
X174379164Y-153029924D01*
X173469459Y-157364820D01*
X173025968Y-159322038D01*
X172620885Y-160842287D01*
X172271391Y-160340173D01*
X171321138Y-158775694D01*
X170558854Y-157420746D01*
X168077359Y-152878030D01*
X168044663Y-152824591D01*
X168044111Y-152823781D01*
X167964098Y-152728035D01*
X167963399Y-152727348D01*
X167865707Y-152648628D01*
X167864887Y-152648091D01*
X167754198Y-152590216D01*
X167753289Y-152589849D01*
X167606430Y-152550117D01*
X167605044Y-152549915D01*
X167515885Y-152543250D01*
X164806552Y-152531092D01*
X164792142Y-152531190D01*
X164791921Y-152531194D01*
X164778092Y-152531595D01*
X163311652Y-152589961D01*
X163268198Y-152593179D01*
X163267516Y-152593253D01*
X163223855Y-152599524D01*
X162312722Y-152762711D01*
X162251554Y-152776803D01*
X162250610Y-152777070D01*
X162134495Y-152822578D01*
X162133622Y-152823023D01*
X162028572Y-152890252D01*
X162027809Y-152890853D01*
X161981005Y-152931559D01*
X161818578Y-153087315D01*
X161775241Y-153133196D01*
X161774604Y-153133941D01*
X161703337Y-153235967D01*
X161702857Y-153236821D01*
X161652472Y-153351590D01*
X161652168Y-153352522D01*
X161625277Y-153474212D01*
X161625160Y-153475185D01*
X161622518Y-153600848D01*
X161034147Y-153600848D01*
X160983268Y-153306476D01*
X160969517Y-153245111D01*
X160969256Y-153244167D01*
X160924444Y-153127809D01*
X160924004Y-153126933D01*
X160857235Y-153021274D01*
X160856633Y-153020501D01*
X160770339Y-152929706D01*
X160769597Y-152929065D01*
X160667362Y-152856954D01*
X160666509Y-152856470D01*
X160552223Y-152805712D01*
X160551293Y-152805404D01*
X160441954Y-152779610D01*
X160441179Y-152779498D01*
X160391212Y-152774276D01*
X158003917Y-152619442D01*
X157980143Y-152618345D01*
X157979779Y-152618335D01*
X157957176Y-152618114D01*
X156309755Y-152631231D01*
X156247089Y-152634818D01*
X156246115Y-152634922D01*
X156121091Y-152661131D01*
X156120116Y-152661440D01*
X156059073Y-152684278D01*
X155347335Y-152992858D01*
X155291328Y-153020470D01*
X155290471Y-153020946D01*
X155187404Y-153092275D01*
X155186657Y-153092909D01*
X155124349Y-153157328D01*
X154611487Y-152899756D01*
X154585562Y-152887458D01*
X154585146Y-152887272D01*
X154558036Y-152875893D01*
X152788257Y-152180549D01*
X152728753Y-152160490D01*
X152727810Y-152160223D01*
X152614656Y-152138979D01*
X152613829Y-152138900D01*
X152560498Y-152136051D01*
X150684503Y-152114455D01*
X150621854Y-152116814D01*
X150620877Y-152116899D01*
X150496976Y-152140180D01*
X150496026Y-152140458D01*
X150436686Y-152161044D01*
X149016228Y-152733603D01*
X148959823Y-152759598D01*
X148958954Y-152760051D01*
X148862951Y-152821587D01*
X148862328Y-152822070D01*
X148824316Y-152853982D01*
X148319229Y-153312666D01*
X148275411Y-153356527D01*
X148274753Y-153357253D01*
X148199763Y-153458521D01*
X148199260Y-153459363D01*
X148146001Y-153572359D01*
X148145672Y-153573282D01*
X148117314Y-153682620D01*
X148117184Y-153683400D01*
X148110871Y-153733366D01*
X148066293Y-154249248D01*
X148063964Y-154311342D01*
X145763151Y-154311342D01*
X144125686Y-153098156D01*
X144048084Y-153048900D01*
X144046816Y-153048218D01*
X143962638Y-153010512D01*
X141626029Y-152160786D01*
X141566082Y-152142268D01*
X141565132Y-152142025D01*
X141463094Y-152124592D01*
X141462448Y-152124535D01*
X141420733Y-152122228D01*
X138962319Y-152066854D01*
X138899809Y-152068511D01*
X138898831Y-152068585D01*
X138791588Y-152085975D01*
X138790895Y-152086149D01*
X138747509Y-152098690D01*
X136553444Y-152817972D01*
X136476810Y-152848718D01*
X136475648Y-152849274D01*
X136403954Y-152889445D01*
X135380127Y-153553185D01*
X135329341Y-153589768D01*
X135328575Y-153590379D01*
X135257422Y-153656605D01*
X135257054Y-153657004D01*
X135234226Y-153683147D01*
X134879756Y-154112106D01*
X134873865Y-154075589D01*
X134870921Y-154058774D01*
X134870870Y-154058504D01*
X134867295Y-154040933D01*
X134734817Y-153433671D01*
X134718407Y-153372983D01*
X134718105Y-153372051D01*
X134668204Y-153257650D01*
X134667726Y-153256794D01*
X134596510Y-153154297D01*
X134595875Y-153153551D01*
X134486630Y-153052085D01*
X134485536Y-153051285D01*
X134412058Y-153004884D01*
X133848735Y-152700715D01*
X133792281Y-152673720D01*
X133791377Y-152673341D01*
X133664519Y-152635074D01*
X133663447Y-152634869D01*
X133594621Y-152625556D01*
X132351617Y-152525842D01*
X132328847Y-152524425D01*
X132328486Y-152524409D01*
X132305197Y-152523802D01*
X131680983Y-152518947D01*
X131676020Y-152518928D01*
X129112962Y-152518928D01*
X129050439Y-152521999D01*
X129049464Y-152522095D01*
X128926490Y-152546583D01*
X128925552Y-152546868D01*
X128810442Y-152594557D01*
X128809577Y-152595019D01*
X128705814Y-152664264D01*
X128705056Y-152664885D01*
X128615847Y-152754094D01*
X128615226Y-152754852D01*
X128545981Y-152858615D01*
X128545519Y-152859480D01*
X128497830Y-152974590D01*
X128497545Y-152975528D01*
X128473057Y-153098502D01*
X128472961Y-153099477D01*
X128472602Y-153220766D01*
X17804385Y-153220766D01*
X17706665Y-153172449D01*
X17677763Y-153133661D01*
X17582365Y-153044358D01*
X17512804Y-152996174D01*
X16810115Y-152567083D01*
X16243553Y-152063890D01*
X15825308Y-151532207D01*
X16005651Y-151712550D01*
X16396279Y-151973560D01*
X16830321Y-152153346D01*
X17291098Y-152245000D01*
X17760902Y-152245000D01*
X18221679Y-152153346D01*
X18655721Y-151973560D01*
X19046349Y-151712550D01*
X19378550Y-151380349D01*
X19639560Y-150989721D01*
X19819346Y-150555679D01*
X19911000Y-150094902D01*
X19911000Y-149625098D01*
X19819346Y-149164321D01*
X19639560Y-148730279D01*
X19378550Y-148339651D01*
X19046349Y-148007450D01*
X18655721Y-147746440D01*
X18221679Y-147566654D01*
X17760902Y-147475000D01*
X17291098Y-147475000D01*
X16830321Y-147566654D01*
X16396279Y-147746440D01*
X16005651Y-148007450D01*
X15673450Y-148339651D01*
X15412440Y-148730279D01*
X15232654Y-149164321D01*
X15141000Y-149625098D01*
X15141000Y-149725600D01*
X15087832Y-149326593D01*
X15122765Y-148560234D01*
X15236870Y-147992034D01*
X15251108Y-147862138D01*
X15242117Y-147731773D01*
X15236486Y-147709431D01*
X17105252Y-140735098D01*
X163477000Y-140735098D01*
X163477000Y-141204902D01*
X163568654Y-141665679D01*
X163748440Y-142099721D01*
X164009450Y-142490349D01*
X164341651Y-142822550D01*
X164732279Y-143083560D01*
X165166321Y-143263346D01*
X165627098Y-143355000D01*
X166096902Y-143355000D01*
X166557679Y-143263346D01*
X166991721Y-143083560D01*
X167382349Y-142822550D01*
X167714550Y-142490349D01*
X167975560Y-142099721D01*
X168155346Y-141665679D01*
X168247000Y-141204902D01*
X168247000Y-140735098D01*
X168155346Y-140274321D01*
X167975560Y-139840279D01*
X167714550Y-139449651D01*
X167382349Y-139117450D01*
X166991721Y-138856440D01*
X166557679Y-138676654D01*
X166096902Y-138585000D01*
X165627098Y-138585000D01*
X165166321Y-138676654D01*
X164732279Y-138856440D01*
X164341651Y-139117450D01*
X164009450Y-139449651D01*
X163748440Y-139840279D01*
X163568654Y-140274321D01*
X163477000Y-140735098D01*
X17105252Y-140735098D01*
X23644614Y-116329866D01*
X182871955Y-116329866D01*
X182883796Y-116454851D01*
X182883984Y-116455813D01*
X182919634Y-116575002D01*
X182920005Y-116575909D01*
X182966126Y-116667062D01*
X182966445Y-116667584D01*
X182987737Y-116700150D01*
X183332724Y-117194237D01*
X183354002Y-117222962D01*
X183354349Y-117223404D01*
X183377316Y-117251022D01*
X184344068Y-118349122D01*
X184352260Y-118358249D01*
X184352357Y-118358355D01*
X184356475Y-118362812D01*
X185842682Y-119956219D01*
X185842692Y-119956210D01*
X185849340Y-119963251D01*
X187752692Y-121943256D01*
X187755687Y-121946351D01*
X187755725Y-121946390D01*
X187757561Y-121948266D01*
X189975747Y-124206165D01*
X189979017Y-124209464D01*
X189979014Y-124209467D01*
X191185207Y-125419649D01*
X191185951Y-125420394D01*
X191186290Y-125420733D01*
X198857763Y-133080966D01*
X195133340Y-136824836D01*
X190956231Y-141023758D01*
X190914430Y-141070106D01*
X190913810Y-141070865D01*
X190844191Y-141175711D01*
X190843732Y-141176577D01*
X190796456Y-141291685D01*
X190796174Y-141292623D01*
X190772095Y-141415159D01*
X190772001Y-141416135D01*
X190772326Y-141541763D01*
X190772425Y-141542738D01*
X190797138Y-141665151D01*
X190797425Y-141666088D01*
X190845382Y-141781107D01*
X190845846Y-141781971D01*
X190914741Y-141884863D01*
X190915345Y-141885599D01*
X190956078Y-141930674D01*
X194996593Y-145995027D01*
X199037109Y-150059381D01*
X199083445Y-150101621D01*
X199084201Y-150102245D01*
X199187710Y-150171869D01*
X199188573Y-150172334D01*
X199304368Y-150220709D01*
X199305305Y-150220996D01*
X199428684Y-150245806D01*
X199429674Y-150245905D01*
X199493165Y-150249072D01*
X233414684Y-150249072D01*
X239182900Y-150243685D01*
X239182900Y-150243684D01*
X239184131Y-150243682D01*
X244643340Y-150228128D01*
X244643340Y-150228126D01*
X244644657Y-150228123D01*
X249711630Y-150203308D01*
X249711630Y-150203305D01*
X249713126Y-150203299D01*
X254304633Y-150170131D01*
X254304633Y-150170125D01*
X254306463Y-150170116D01*
X258339273Y-150129503D01*
X258339273Y-150129490D01*
X258341740Y-150129473D01*
X261732625Y-150082320D01*
X261736413Y-150082228D01*
X261736414Y-150082256D01*
X264402143Y-150029472D01*
X264402143Y-150029465D01*
X264409314Y-150029290D01*
X266266658Y-149971781D01*
X266278382Y-149971310D01*
X266278544Y-149971302D01*
X266287510Y-149970796D01*
X267253239Y-149909471D01*
X267312842Y-149902863D01*
X267313768Y-149902716D01*
X267372398Y-149890564D01*
X267494913Y-149859110D01*
X267554927Y-149840509D01*
X267555848Y-149840173D01*
X267668411Y-149786099D01*
X267669249Y-149785590D01*
X267769222Y-149710539D01*
X267769944Y-149709877D01*
X267853289Y-149616878D01*
X267853869Y-149616087D01*
X267917614Y-149508400D01*
X267918028Y-149507512D01*
X267959647Y-149388970D01*
X267959879Y-149388018D01*
X267977437Y-149264264D01*
X267977479Y-149263284D01*
X267970637Y-149138891D01*
X267970488Y-149137923D01*
X267948054Y-149050525D01*
X270756638Y-149050525D01*
X270756684Y-149051504D01*
X270774727Y-149175086D01*
X270774963Y-149176038D01*
X270816846Y-149293978D01*
X270817263Y-149294865D01*
X270864895Y-149378973D01*
X270865195Y-149379420D01*
X270885376Y-149407786D01*
X271299717Y-149957764D01*
X271339991Y-150006071D01*
X271340655Y-150006792D01*
X271413423Y-150074395D01*
X271413878Y-150074756D01*
X271443635Y-150096985D01*
X272490470Y-150832521D01*
X272519756Y-150851917D01*
X272520218Y-150852205D01*
X272549830Y-150869576D01*
X273148111Y-151199236D01*
X273156397Y-151203722D01*
X273156538Y-151203797D01*
X273166219Y-151208841D01*
X275225675Y-152259497D01*
X275282490Y-152285067D01*
X275283402Y-152285425D01*
X275404589Y-152319647D01*
X275405554Y-152319819D01*
X275529236Y-152329611D01*
X275530216Y-152329593D01*
X275655124Y-152314902D01*
X275656082Y-152314692D01*
X275774729Y-152276202D01*
X275775627Y-152275810D01*
X275885039Y-152214611D01*
X275885843Y-152214051D01*
X275962080Y-152151687D01*
X275962489Y-152151296D01*
X275987845Y-152125645D01*
X277392316Y-150622153D01*
X278862210Y-149552293D01*
X280356444Y-149213423D01*
X281718603Y-149548604D01*
X282323816Y-150026979D01*
X282753672Y-150854518D01*
X282541805Y-151618599D01*
X281439650Y-152662332D01*
X279253253Y-153907318D01*
X279136415Y-153963509D01*
X279119122Y-153972150D01*
X279118856Y-153972288D01*
X279102243Y-153981221D01*
X276381107Y-155496658D01*
X276325608Y-155531412D01*
X276324771Y-155531998D01*
X276273384Y-155572035D01*
X274448134Y-157150255D01*
X274403034Y-157193275D01*
X274402359Y-157193985D01*
X274336439Y-157275895D01*
X274336070Y-157276440D01*
X274313855Y-157311677D01*
X273267712Y-159097680D01*
X273238752Y-159153200D01*
X273238342Y-159154090D01*
X273200527Y-159259769D01*
X273200330Y-159260523D01*
X273189640Y-159309114D01*
X272805822Y-161447895D01*
X272798892Y-161497749D01*
X272798814Y-161498537D01*
X272795825Y-161549326D01*
X272788043Y-161960894D01*
X272788338Y-161995812D01*
X272788358Y-161996370D01*
X272790688Y-162032572D01*
X272992212Y-164200562D01*
X273007419Y-164291771D01*
X273007758Y-164293170D01*
X273035712Y-164380534D01*
X273745064Y-166148231D01*
X273769081Y-166201007D01*
X273769494Y-166201815D01*
X273798208Y-166252201D01*
X274174626Y-166848035D01*
X274211728Y-166900679D01*
X274212353Y-166901477D01*
X274255079Y-166950637D01*
X276148802Y-168917169D01*
X276216769Y-168978309D01*
X276217897Y-168979186D01*
X276293763Y-169029904D01*
X278774049Y-170442508D01*
X278845619Y-170477543D01*
X278846768Y-170478019D01*
X278921913Y-170503797D01*
X281695278Y-171265870D01*
X281777175Y-171282693D01*
X281778473Y-171282872D01*
X281862204Y-171288845D01*
X284635160Y-171303784D01*
X284715619Y-171299127D01*
X284716869Y-171298975D01*
X284795872Y-171284271D01*
X286328170Y-170897853D01*
X286390703Y-170878624D01*
X286391663Y-170878274D01*
X286451730Y-170852825D01*
X289053376Y-169590013D01*
X289125983Y-169548691D01*
X289127075Y-169547971D01*
X289193809Y-169497390D01*
X291120172Y-167827366D01*
X291160041Y-167789680D01*
X291160638Y-167789065D01*
X291196988Y-167748260D01*
X291603908Y-167250047D01*
X291620869Y-167228341D01*
X291621135Y-167227985D01*
X291638048Y-167204237D01*
X292654939Y-165705034D01*
X292687488Y-165651579D01*
X292687956Y-165650718D01*
X292733602Y-165544973D01*
X292733858Y-165544193D01*
X292748069Y-165494076D01*
X293003777Y-164428253D01*
X293015381Y-164366711D01*
X293015515Y-164365741D01*
X293020401Y-164240688D01*
X293020343Y-164239709D01*
X293000846Y-164116567D01*
X293000599Y-164115619D01*
X292959374Y-164002469D01*
X292958985Y-164001651D01*
X292931695Y-163950414D01*
X292395027Y-163044691D01*
X292360421Y-162992341D01*
X292359841Y-162991551D01*
X292277573Y-162899642D01*
X292276871Y-162898996D01*
X292230226Y-162860008D01*
X290990911Y-161920674D01*
X290964074Y-161901406D01*
X290963656Y-161901122D01*
X290937155Y-161884058D01*
X289643720Y-161095701D01*
X289571286Y-161057693D01*
X289570112Y-161057170D01*
X289492704Y-161028529D01*
X288784787Y-160817548D01*
X288723669Y-160802571D01*
X288722707Y-160802385D01*
X288598326Y-160790791D01*
X288597346Y-160790796D01*
X288473713Y-160803532D01*
X288472752Y-160803727D01*
X288352148Y-160840936D01*
X288351245Y-160841316D01*
X288225843Y-160911665D01*
X288224803Y-160912414D01*
X288161457Y-160964533D01*
X287830259Y-161274812D01*
X287786987Y-161319507D01*
X287786340Y-161320244D01*
X287700261Y-161445831D01*
X287699615Y-161447068D01*
X287666379Y-161523230D01*
X286956652Y-162706657D01*
X285740112Y-163904422D01*
X284357268Y-164831720D01*
X283218166Y-165206971D01*
X281851907Y-164905651D01*
X280608412Y-164130140D01*
X279816547Y-163139748D01*
X279681277Y-162599330D01*
X279871255Y-161814916D01*
X280596265Y-160981848D01*
X282144601Y-159968425D01*
X283380123Y-159324741D01*
X283391926Y-159318434D01*
X283392145Y-159318314D01*
X283408210Y-159309206D01*
X285187367Y-158266270D01*
X285216351Y-158248220D01*
X285216784Y-158247934D01*
X285243114Y-158229576D01*
X286941435Y-156980772D01*
X286964102Y-156963309D01*
X286964454Y-156963025D01*
X286986653Y-156944263D01*
X287440890Y-156542284D01*
X287487556Y-156496516D01*
X287488248Y-156495764D01*
X287529982Y-156445468D01*
X288985023Y-154496894D01*
X289019868Y-154445132D01*
X289020375Y-154444293D01*
X289072534Y-154336131D01*
X289072844Y-154335295D01*
X289090109Y-154281553D01*
X289662229Y-152186665D01*
X289675662Y-152125994D01*
X289675827Y-152125028D01*
X289684851Y-152007210D01*
X289684837Y-152006350D01*
X289681608Y-151951790D01*
X289465598Y-149840577D01*
X289456168Y-149778635D01*
X289455973Y-149777674D01*
X289427354Y-149678566D01*
X289427126Y-149677964D01*
X289411146Y-149639593D01*
X289173290Y-149117098D01*
X399570000Y-149117098D01*
X399570000Y-149586902D01*
X399661654Y-150047679D01*
X399841440Y-150481721D01*
X400102450Y-150872349D01*
X400434651Y-151204550D01*
X400825279Y-151465560D01*
X401259321Y-151645346D01*
X401720098Y-151737000D01*
X402189902Y-151737000D01*
X402650679Y-151645346D01*
X403084721Y-151465560D01*
X403475349Y-151204550D01*
X403807550Y-150872349D01*
X404068560Y-150481721D01*
X404248346Y-150047679D01*
X404340000Y-149586902D01*
X404340000Y-149117098D01*
X404248346Y-148656321D01*
X404068560Y-148222279D01*
X403807550Y-147831651D01*
X403475349Y-147499450D01*
X403084721Y-147238440D01*
X402650679Y-147058654D01*
X402189902Y-146967000D01*
X401720098Y-146967000D01*
X401259321Y-147058654D01*
X400825279Y-147238440D01*
X400434651Y-147499450D01*
X400102450Y-147831651D01*
X399841440Y-148222279D01*
X399661654Y-148656321D01*
X399570000Y-149117098D01*
X289173290Y-149117098D01*
X288501795Y-147642039D01*
X288458562Y-147562554D01*
X288457802Y-147561366D01*
X288404145Y-147489242D01*
X286896241Y-145735335D01*
X286838485Y-145676349D01*
X286837523Y-145675486D01*
X286772438Y-145624315D01*
X284760771Y-144244042D01*
X284691161Y-144202523D01*
X284690035Y-144201945D01*
X284615920Y-144169657D01*
X282195279Y-143293005D01*
X282115952Y-143269963D01*
X282114692Y-143269684D01*
X282033229Y-143257099D01*
X279298402Y-143014053D01*
X279239836Y-143011551D01*
X279238917Y-143011554D01*
X279180312Y-143014444D01*
X277989704Y-143128201D01*
X277939504Y-143135017D01*
X277938722Y-143135155D01*
X277889035Y-143145981D01*
X276198971Y-143585439D01*
X276112297Y-143614755D01*
X276110979Y-143615309D01*
X276029450Y-143656684D01*
X274543646Y-144549989D01*
X274492095Y-144584502D01*
X274491311Y-144585084D01*
X274442852Y-144624896D01*
X273137601Y-145809343D01*
X273118222Y-145827681D01*
X273117920Y-145827979D01*
X273098795Y-145847680D01*
X271942773Y-147091000D01*
X271923680Y-147112486D01*
X271923393Y-147112824D01*
X271905834Y-147134443D01*
X271118429Y-148148321D01*
X271079177Y-148204924D01*
X271078610Y-148205844D01*
X271045562Y-148266613D01*
X270818240Y-148744681D01*
X270794147Y-148802512D01*
X270793815Y-148803434D01*
X270763106Y-148925179D01*
X270762961Y-148926148D01*
X270756638Y-149050525D01*
X267948054Y-149050525D01*
X267939271Y-149016311D01*
X267938935Y-149015390D01*
X267891488Y-148913991D01*
X267891096Y-148913315D01*
X267864288Y-148871004D01*
X267526890Y-148382054D01*
X267505145Y-148352407D01*
X267504786Y-148351946D01*
X267480627Y-148322754D01*
X266566522Y-147282708D01*
X266558871Y-147274160D01*
X266558758Y-147274036D01*
X266552032Y-147266768D01*
X265208355Y-145837490D01*
X265204279Y-145833195D01*
X265204211Y-145833124D01*
X265199555Y-145828313D01*
X263869653Y-144468587D01*
X263865969Y-144464862D01*
X263865974Y-144464857D01*
X260391614Y-140970000D01*
X267791056Y-133526903D01*
X267832705Y-133480708D01*
X267833325Y-133479949D01*
X267902944Y-133375103D01*
X267903403Y-133374237D01*
X267950733Y-133258950D01*
X267951015Y-133258011D01*
X267975012Y-133135945D01*
X267975105Y-133134984D01*
X267978072Y-133073522D01*
X267978072Y-115684052D01*
X267975001Y-115621529D01*
X267974905Y-115620554D01*
X267950417Y-115497580D01*
X267950132Y-115496642D01*
X267902443Y-115381532D01*
X267901981Y-115380667D01*
X267830608Y-115274320D01*
X267829953Y-115273529D01*
X267785417Y-115225068D01*
X263715427Y-111231042D01*
X263712465Y-111228172D01*
X263712474Y-111228163D01*
X262049023Y-109616568D01*
X262047291Y-109614897D01*
X262047239Y-109614847D01*
X262042312Y-109610159D01*
X260634926Y-108285481D01*
X260626814Y-108277977D01*
X260626726Y-108277897D01*
X260623663Y-108275131D01*
X259634334Y-107387361D01*
X259615257Y-107370910D01*
X259614948Y-107370654D01*
X259594524Y-107354426D01*
X259200738Y-107054459D01*
X259149335Y-107019134D01*
X259148501Y-107018619D01*
X259035798Y-106963519D01*
X259034879Y-106963177D01*
X258913855Y-106931238D01*
X258912887Y-106931082D01*
X258788570Y-106923361D01*
X258787591Y-106923396D01*
X258663301Y-106940173D01*
X258662347Y-106940399D01*
X258542982Y-106981512D01*
X258542079Y-106981927D01*
X258485986Y-107011156D01*
X257996467Y-107297948D01*
X257950959Y-107327272D01*
X257950258Y-107327767D01*
X257906424Y-107361665D01*
X256868764Y-108238697D01*
X256857413Y-108248522D01*
X256857237Y-108248678D01*
X256846133Y-108258755D01*
X255418194Y-109585636D01*
X255408273Y-109595055D01*
X255408173Y-109595152D01*
X255405236Y-109598020D01*
X253932613Y-111044968D01*
X253932621Y-111044976D01*
X253927261Y-111050288D01*
X250337014Y-114661716D01*
X246587636Y-110931815D01*
X242382200Y-106748225D01*
X242335852Y-106706424D01*
X242335093Y-106705804D01*
X242230247Y-106636185D01*
X242229381Y-106635726D01*
X242114273Y-106588450D01*
X242113335Y-106588168D01*
X241990799Y-106564089D01*
X241989823Y-106563995D01*
X241864195Y-106564320D01*
X241863220Y-106564419D01*
X241740807Y-106589132D01*
X241739870Y-106589419D01*
X241624851Y-106637376D01*
X241623987Y-106637840D01*
X241519905Y-106707714D01*
X241519152Y-106708335D01*
X241473119Y-106750234D01*
X233390657Y-114862106D01*
X233348502Y-114908810D01*
X233347882Y-114909569D01*
X233278946Y-115013130D01*
X233278485Y-115013995D01*
X233230705Y-115129791D01*
X233230422Y-115130729D01*
X233206326Y-115252204D01*
X233206232Y-115253154D01*
X233203135Y-115313795D01*
X233183536Y-121028290D01*
X233170770Y-123613927D01*
X233079265Y-125234312D01*
X232881395Y-125866556D01*
X232680053Y-125973926D01*
X231878733Y-125849191D01*
X230306530Y-125332468D01*
X229699343Y-125122302D01*
X229689325Y-125118927D01*
X229689148Y-125118869D01*
X229676552Y-125114885D01*
X228403655Y-124726770D01*
X228374604Y-124718658D01*
X228374159Y-124718545D01*
X228346441Y-124712160D01*
X227006548Y-124434833D01*
X226979360Y-124429818D01*
X226978916Y-124429746D01*
X226949367Y-124425660D01*
X225342831Y-124241704D01*
X225321699Y-124239640D01*
X225321390Y-124239615D01*
X225303134Y-124238401D01*
X223230307Y-124130403D01*
X223219613Y-124129936D01*
X223219443Y-124129930D01*
X223208457Y-124129637D01*
X220469694Y-124080182D01*
X220466914Y-124080138D01*
X220466841Y-124080137D01*
X220460332Y-124080081D01*
X217843505Y-124070932D01*
X217841274Y-124070928D01*
X209413920Y-124070928D01*
X205404594Y-120040665D01*
X201654417Y-116270906D01*
X204914007Y-112943194D01*
X204914687Y-112942442D01*
X204914715Y-112942469D01*
X206833282Y-110977621D01*
X206833277Y-110977616D01*
X206834167Y-110976713D01*
X209134666Y-108611404D01*
X209134630Y-108611369D01*
X209135346Y-108610705D01*
X211495430Y-106176759D01*
X211496095Y-106176019D01*
X211496121Y-106176044D01*
X213155203Y-104459736D01*
X213155200Y-104459733D01*
X213155601Y-104459324D01*
X217690036Y-99760113D01*
X217731401Y-99712786D01*
X217732009Y-99712017D01*
X217799296Y-99607351D01*
X217799743Y-99606479D01*
X217845695Y-99489841D01*
X217845963Y-99488898D01*
X217868244Y-99365246D01*
X217868322Y-99364269D01*
X217866095Y-99239955D01*
X217865982Y-99238981D01*
X217839413Y-99116606D01*
X217839112Y-99115673D01*
X217788959Y-99000492D01*
X217788481Y-98999636D01*
X217717799Y-98897768D01*
X217717175Y-98897033D01*
X217675264Y-98852225D01*
X209074127Y-90500229D01*
X202214293Y-83839098D01*
X254028000Y-83839098D01*
X254028000Y-84308902D01*
X254119654Y-84769679D01*
X254299440Y-85203721D01*
X254560450Y-85594349D01*
X254892651Y-85926550D01*
X255283279Y-86187560D01*
X255717321Y-86367346D01*
X256178098Y-86459000D01*
X256647902Y-86459000D01*
X257108679Y-86367346D01*
X257542721Y-86187560D01*
X257933349Y-85926550D01*
X258265550Y-85594349D01*
X258526560Y-85203721D01*
X258706346Y-84769679D01*
X258798000Y-84308902D01*
X258798000Y-83839098D01*
X258706346Y-83378321D01*
X258526560Y-82944279D01*
X258265550Y-82553651D01*
X257933349Y-82221450D01*
X257542721Y-81960440D01*
X257108679Y-81780654D01*
X256647902Y-81689000D01*
X256178098Y-81689000D01*
X255717321Y-81780654D01*
X255283279Y-81960440D01*
X254892651Y-82221450D01*
X254560450Y-82553651D01*
X254299440Y-82944279D01*
X254119654Y-83378321D01*
X254028000Y-83839098D01*
X202214293Y-83839098D01*
X200472989Y-82148233D01*
X200426051Y-82106924D01*
X200425284Y-82106313D01*
X200320081Y-82038239D01*
X200319210Y-82037790D01*
X200203254Y-81991738D01*
X200202312Y-81991467D01*
X200078676Y-81968782D01*
X200077700Y-81968701D01*
X199953321Y-81970546D01*
X199952347Y-81970656D01*
X199830004Y-81996816D01*
X199829070Y-81997114D01*
X199713973Y-82046760D01*
X199713115Y-82047235D01*
X199614888Y-82114283D01*
X199614209Y-82114846D01*
X199572521Y-82152635D01*
X195381521Y-86302626D01*
X195379297Y-86304839D01*
X195379262Y-86304874D01*
X195377084Y-86307062D01*
X193726291Y-87973907D01*
X193719822Y-87980534D01*
X193719746Y-87980613D01*
X193716418Y-87984100D01*
X192371832Y-89403064D01*
X192364781Y-89410626D01*
X192364659Y-89410759D01*
X192356160Y-89420212D01*
X191461861Y-90435007D01*
X191435564Y-90466870D01*
X191435174Y-90467375D01*
X191411669Y-90499874D01*
X191110347Y-90945328D01*
X191077978Y-90998616D01*
X191077511Y-90999477D01*
X191028846Y-91115042D01*
X191028556Y-91115979D01*
X191003493Y-91238242D01*
X191003391Y-91239217D01*
X191002684Y-91364842D01*
X191002775Y-91365818D01*
X191026447Y-91488317D01*
X191026726Y-91489256D01*
X191077859Y-91612421D01*
X191078391Y-91613399D01*
X191115956Y-91674100D01*
X191460080Y-92166327D01*
X191484078Y-92198454D01*
X191484467Y-92198942D01*
X191510112Y-92229140D01*
X192443297Y-93261283D01*
X192451435Y-93270116D01*
X192451558Y-93270247D01*
X192459104Y-93278147D01*
X193832578Y-94691658D01*
X193836073Y-94695227D01*
X193836149Y-94695304D01*
X193842310Y-94701461D01*
X195257563Y-96096717D01*
X195261559Y-96100622D01*
X195261591Y-96100653D01*
X195261701Y-96100760D01*
X198857900Y-99582896D01*
X191190649Y-107238913D01*
X191190301Y-107239261D01*
X191188514Y-107241055D01*
X188849664Y-109598539D01*
X188849673Y-109598548D01*
X188845161Y-109603123D01*
X186769499Y-111737569D01*
X186764010Y-111743331D01*
X186763987Y-111743309D01*
X185053795Y-113546042D01*
X185049592Y-113550515D01*
X185049525Y-113550587D01*
X185045183Y-113555301D01*
X183802744Y-114917648D01*
X183793838Y-114927621D01*
X183793678Y-114927804D01*
X183782275Y-114941214D01*
X183109871Y-115754502D01*
X183072136Y-115805036D01*
X183071590Y-115805848D01*
X183039524Y-115858938D01*
X182949035Y-116026672D01*
X182922151Y-116082919D01*
X182921772Y-116083823D01*
X182884893Y-116203641D01*
X182884698Y-116204602D01*
X182872810Y-116320583D01*
X182871959Y-116328886D01*
X182871955Y-116329866D01*
X23644614Y-116329866D01*
X32384519Y-83712098D01*
X161953000Y-83712098D01*
X161953000Y-84181902D01*
X162044654Y-84642679D01*
X162224440Y-85076721D01*
X162485450Y-85467349D01*
X162817651Y-85799550D01*
X163208279Y-86060560D01*
X163642321Y-86240346D01*
X164103098Y-86332000D01*
X164572902Y-86332000D01*
X165033679Y-86240346D01*
X165467721Y-86060560D01*
X165858349Y-85799550D01*
X166190550Y-85467349D01*
X166451560Y-85076721D01*
X166631346Y-84642679D01*
X166723000Y-84181902D01*
X166723000Y-83712098D01*
X166631346Y-83251321D01*
X166451560Y-82817279D01*
X166190550Y-82426651D01*
X165858349Y-82094450D01*
X165467721Y-81833440D01*
X165033679Y-81653654D01*
X164572902Y-81562000D01*
X164103098Y-81562000D01*
X163642321Y-81653654D01*
X163208279Y-81833440D01*
X162817651Y-82094450D01*
X162485450Y-82426651D01*
X162224440Y-82817279D01*
X162044654Y-83251321D01*
X161953000Y-83712098D01*
X32384519Y-83712098D01*
X38577897Y-60598098D01*
X40160000Y-60598098D01*
X40160000Y-61067902D01*
X40251654Y-61528679D01*
X40431440Y-61962721D01*
X40692450Y-62353349D01*
X41024651Y-62685550D01*
X41415279Y-62946560D01*
X41849321Y-63126346D01*
X42310098Y-63218000D01*
X42779902Y-63218000D01*
X43240679Y-63126346D01*
X43674721Y-62946560D01*
X44065349Y-62685550D01*
X44397550Y-62353349D01*
X44658560Y-61962721D01*
X44838346Y-61528679D01*
X44930000Y-61067902D01*
X44930000Y-60598098D01*
X44838346Y-60137321D01*
X44658560Y-59703279D01*
X44397550Y-59312651D01*
X44065349Y-58980450D01*
X43674721Y-58719440D01*
X43240679Y-58539654D01*
X42779902Y-58448000D01*
X42310098Y-58448000D01*
X41849321Y-58539654D01*
X41415279Y-58719440D01*
X41024651Y-58980450D01*
X40692450Y-59312651D01*
X40431440Y-59703279D01*
X40251654Y-60137321D01*
X40160000Y-60598098D01*
X38577897Y-60598098D01*
X38598563Y-60520974D01*
X38630930Y-60485027D01*
X38699790Y-60373968D01*
X38733396Y-60296308D01*
X39016347Y-59523109D01*
X39398655Y-58868867D01*
X39890772Y-58292673D01*
X40477148Y-57812730D01*
X41139247Y-57444211D01*
X41856144Y-57198763D01*
X42605173Y-57084145D01*
X43368474Y-57104132D01*
G37*
G04 #@! TD.AperFunction*
D14*
X200003134Y-87053164D02*
X200003737Y-87053689D01*
X200003714Y-87053713D01*
X201024519Y-88020024D01*
X201024521Y-88020022D01*
X201024662Y-88020159D01*
X202543242Y-89456790D01*
X202543319Y-89456863D01*
X204439385Y-91250016D01*
X204439386Y-91250015D01*
X204439442Y-91250070D01*
X206401850Y-93105512D01*
X208526947Y-95136160D01*
X210366948Y-96935580D01*
X211802327Y-98383259D01*
X212690224Y-99333091D01*
X212644349Y-99396794D01*
X211722882Y-100450752D01*
X210280186Y-102024461D01*
X208434267Y-103988571D01*
X206290416Y-106228682D01*
X205531816Y-107012818D01*
X205528728Y-107016085D01*
X205528702Y-107016060D01*
X203285954Y-109366959D01*
X203281906Y-109371241D01*
X203281847Y-109371304D01*
X203278303Y-109375120D01*
X201287150Y-111536354D01*
X201281848Y-111542180D01*
X201281777Y-111542259D01*
X201277996Y-111546505D01*
X199646528Y-113394659D01*
X199639362Y-113402918D01*
X199639252Y-113403047D01*
X199632424Y-113411191D01*
X198468728Y-114822849D01*
X198452060Y-114843959D01*
X198451803Y-114844299D01*
X198435673Y-114866625D01*
X197847838Y-115718372D01*
X197807466Y-115785297D01*
X197806898Y-115786384D01*
X197774832Y-115858219D01*
X197726907Y-115986261D01*
X197707835Y-116046011D01*
X197707583Y-116046959D01*
X197687446Y-116170511D01*
X197687384Y-116171489D01*
X197692240Y-116300121D01*
X197692384Y-116301152D01*
X197705029Y-116366551D01*
X197885859Y-117095338D01*
X197903842Y-117155128D01*
X197904170Y-117156052D01*
X197950499Y-117257453D01*
X197950874Y-117258114D01*
X197976290Y-117299206D01*
X198744158Y-118441617D01*
X198767043Y-118473501D01*
X198767415Y-118473987D01*
X198791936Y-118504080D01*
X200209660Y-120139717D01*
X200220664Y-120152084D01*
X200220843Y-120152280D01*
X200232770Y-120164987D01*
X202363168Y-122373448D01*
X202367165Y-122377554D01*
X202367220Y-122377610D01*
X202370183Y-122380607D01*
X202435330Y-122446068D01*
X202435475Y-122446214D01*
X207169267Y-127199772D01*
X207215217Y-127241624D01*
X207215973Y-127242248D01*
X207320763Y-127312561D01*
X207321627Y-127313024D01*
X207436141Y-127360710D01*
X207437078Y-127360997D01*
X207560840Y-127385846D01*
X207561826Y-127385944D01*
X207624934Y-127389072D01*
X216272142Y-127389072D01*
X219509733Y-127400135D01*
X221929475Y-127447623D01*
X223734353Y-127552051D01*
X225132707Y-127732151D01*
X226348438Y-128008603D01*
X227613975Y-128410499D01*
X228206945Y-128621770D01*
X228217177Y-128625318D01*
X228217346Y-128625375D01*
X228228709Y-128629089D01*
X231037345Y-129518131D01*
X231081468Y-129530375D01*
X231082162Y-129530541D01*
X231126599Y-129539514D01*
X233180923Y-129878883D01*
X233243255Y-129886053D01*
X233244233Y-129886117D01*
X233341274Y-129885072D01*
X233341825Y-129885024D01*
X233377570Y-129880891D01*
X234771790Y-129679728D01*
X234833587Y-129667673D01*
X234834539Y-129667438D01*
X234967388Y-129618464D01*
X234968498Y-129617908D01*
X235037039Y-129578067D01*
X235586484Y-129211219D01*
X235636547Y-129174136D01*
X235637305Y-129173515D01*
X235726195Y-129084696D01*
X235726817Y-129083938D01*
X235802445Y-128968145D01*
X235802988Y-128967076D01*
X235833719Y-128896268D01*
X236151728Y-128022206D01*
X236173588Y-127948614D01*
X236173859Y-127947449D01*
X236186644Y-127872485D01*
X236389954Y-126019795D01*
X236392140Y-125995653D01*
X236392168Y-125995261D01*
X236393492Y-125969288D01*
X236479051Y-123169191D01*
X236479278Y-123159225D01*
X236479280Y-123159091D01*
X236479346Y-123152007D01*
X236482067Y-122439954D01*
X236482072Y-122437516D01*
X236482072Y-117076542D01*
X239340938Y-114247507D01*
X241937357Y-111678181D01*
X245178358Y-114897551D01*
X245185777Y-114904801D01*
X245185881Y-114904901D01*
X245191650Y-114910380D01*
X246861423Y-116476333D01*
X246876741Y-116490238D01*
X246876980Y-116490448D01*
X246892163Y-116503375D01*
X248379341Y-117729916D01*
X248405409Y-117750303D01*
X248405830Y-117750615D01*
X248433552Y-117770042D01*
X249543355Y-118504657D01*
X249614555Y-118545458D01*
X249615713Y-118546026D01*
X249692312Y-118577606D01*
X250111004Y-118719186D01*
X250171541Y-118736381D01*
X250172496Y-118736602D01*
X250296179Y-118752711D01*
X250297159Y-118752742D01*
X250422126Y-118744397D01*
X250423093Y-118744236D01*
X250532444Y-118715892D01*
X250533185Y-118715628D01*
X250579494Y-118697059D01*
X251350659Y-118352245D01*
X251410851Y-118321404D01*
X251411768Y-118320871D01*
X251468587Y-118283665D01*
X252739150Y-117351421D01*
X252759335Y-117335983D01*
X252759655Y-117335728D01*
X252780297Y-117318557D01*
X254354256Y-115952182D01*
X254367126Y-115940700D01*
X254367306Y-115940535D01*
X254377492Y-115930991D01*
X255427923Y-114924934D01*
X255430767Y-114922193D01*
X255430833Y-114922129D01*
X255436314Y-114916750D01*
X258670854Y-111703798D01*
X261158382Y-114027235D01*
X262591415Y-115386325D01*
X263735328Y-116508979D01*
X264317361Y-117121072D01*
X264411643Y-117589563D01*
X264522454Y-119028575D01*
X264605622Y-121115820D01*
X264648603Y-123627655D01*
X264652151Y-124473378D01*
X264659636Y-131328649D01*
X260785619Y-135179944D01*
X260784290Y-135181269D01*
X260784234Y-135181325D01*
X260778451Y-135187183D01*
X258749577Y-137269095D01*
X258729965Y-137290149D01*
X258729673Y-137290477D01*
X258711943Y-137311273D01*
X257412704Y-138903003D01*
X257366391Y-138967567D01*
X257365729Y-138968623D01*
X257327643Y-139038776D01*
X256729578Y-140326563D01*
X256706088Y-140384391D01*
X256705764Y-140385316D01*
X256676149Y-140507104D01*
X256676012Y-140508075D01*
X256669795Y-140604469D01*
X256669801Y-140604997D01*
X256671055Y-140638371D01*
X256745702Y-141808453D01*
X256752741Y-141870617D01*
X256752899Y-141871585D01*
X256793306Y-142013389D01*
X256793814Y-142014613D01*
X256831290Y-142090320D01*
X257550189Y-143328937D01*
X257585469Y-143383186D01*
X257586065Y-143384008D01*
X257626885Y-143434657D01*
X258961575Y-144928048D01*
X258972441Y-144939902D01*
X258972598Y-144940069D01*
X258981717Y-144949571D01*
X259365306Y-145341077D01*
X259365330Y-145341053D01*
X259367093Y-145342894D01*
X260935401Y-146930928D01*
X201277543Y-146930928D01*
X198448508Y-144072062D01*
X195879182Y-141475643D01*
X196867089Y-140481098D01*
X250980000Y-140481098D01*
X250980000Y-140950902D01*
X251071654Y-141411679D01*
X251251440Y-141845721D01*
X251512450Y-142236349D01*
X251844651Y-142568550D01*
X252235279Y-142829560D01*
X252669321Y-143009346D01*
X253130098Y-143101000D01*
X253599902Y-143101000D01*
X254060679Y-143009346D01*
X254494721Y-142829560D01*
X254885349Y-142568550D01*
X255217550Y-142236349D01*
X255478560Y-141845721D01*
X255658346Y-141411679D01*
X255750000Y-140950902D01*
X255750000Y-140481098D01*
X255658346Y-140020321D01*
X255478560Y-139586279D01*
X255217550Y-139195651D01*
X254885349Y-138863450D01*
X254494721Y-138602440D01*
X254060679Y-138422654D01*
X253599902Y-138331000D01*
X253130098Y-138331000D01*
X252669321Y-138422654D01*
X252235279Y-138602440D01*
X251844651Y-138863450D01*
X251512450Y-139195651D01*
X251251440Y-139586279D01*
X251071654Y-140020321D01*
X250980000Y-140481098D01*
X196867089Y-140481098D01*
X199098552Y-138234642D01*
X199105802Y-138227223D01*
X199105902Y-138227119D01*
X199111393Y-138221337D01*
X200693167Y-136534602D01*
X200706586Y-136519837D01*
X200706800Y-136519594D01*
X200720607Y-136503378D01*
X201949271Y-135010583D01*
X201970443Y-134983396D01*
X201970764Y-134982960D01*
X201990580Y-134954451D01*
X202716625Y-133846791D01*
X202757979Y-133773599D01*
X202758550Y-133772412D01*
X202790037Y-133694069D01*
X202922242Y-133289643D01*
X202938860Y-133228767D01*
X202939071Y-133227810D01*
X202953890Y-133104097D01*
X202953911Y-133103117D01*
X202944400Y-132978856D01*
X202944230Y-132977890D01*
X202909763Y-132855325D01*
X202909394Y-132854385D01*
X202882760Y-132795494D01*
X202521223Y-132093192D01*
X202490274Y-132039626D01*
X202489754Y-132038819D01*
X202454454Y-131989375D01*
X201412524Y-130667859D01*
X201401459Y-130654216D01*
X201401273Y-130653993D01*
X201388502Y-130639150D01*
X199730203Y-128770656D01*
X199722635Y-128762279D01*
X199722532Y-128762167D01*
X199716996Y-128756225D01*
X197506353Y-126412988D01*
X197502777Y-126409228D01*
X197502707Y-126409155D01*
X197497337Y-126403622D01*
X194895459Y-123755053D01*
X194891766Y-123751326D01*
X194891767Y-123751325D01*
X187471913Y-116320583D01*
X194637055Y-109167385D01*
X194637941Y-109166499D01*
X197451292Y-106346855D01*
X197457374Y-106340676D01*
X197457441Y-106340607D01*
X197459902Y-106338058D01*
X199593548Y-104116162D01*
X199605451Y-104103423D01*
X199605651Y-104103203D01*
X199619172Y-104087842D01*
X201108687Y-102339897D01*
X201137207Y-102303879D01*
X201137631Y-102303302D01*
X201163261Y-102265680D01*
X202044220Y-100867888D01*
X202074993Y-100813290D01*
X202075432Y-100812413D01*
X202112145Y-100722585D01*
X202112312Y-100722067D01*
X202122122Y-100688519D01*
X202430099Y-99517082D01*
X202443027Y-99455830D01*
X202443182Y-99454863D01*
X202449418Y-99305909D01*
X202449316Y-99304556D01*
X202436912Y-99218615D01*
X202207483Y-98149734D01*
X202191314Y-98089102D01*
X202191015Y-98088168D01*
X202143322Y-97976872D01*
X202142884Y-97976070D01*
X202112777Y-97926450D01*
X201381515Y-96836326D01*
X201347776Y-96790575D01*
X201347214Y-96789880D01*
X201309172Y-96746937D01*
X200111653Y-95511774D01*
X200100027Y-95500088D01*
X200099832Y-95499897D01*
X200086570Y-95487276D01*
X198662451Y-94170266D01*
X198662440Y-94170277D01*
X198660113Y-94168113D01*
X195574668Y-91342894D01*
X197720815Y-89162628D01*
X198991015Y-87911541D01*
X199934709Y-87053682D01*
X199974061Y-87025575D01*
X200003134Y-87053164D01*
G04 #@! TA.AperFunction,Conductor*
D15*
G36*
X200003134Y-87053164D02*
G01*
X200003737Y-87053689D01*
X200003714Y-87053713D01*
X201024519Y-88020024D01*
X201024521Y-88020022D01*
X201024662Y-88020159D01*
X202543242Y-89456790D01*
X202543319Y-89456863D01*
X204439385Y-91250016D01*
X204439386Y-91250015D01*
X204439442Y-91250070D01*
X206401850Y-93105512D01*
X208526947Y-95136160D01*
X210366948Y-96935580D01*
X211802327Y-98383259D01*
X212690224Y-99333091D01*
X212644349Y-99396794D01*
X211722882Y-100450752D01*
X210280186Y-102024461D01*
X208434267Y-103988571D01*
X206290416Y-106228682D01*
X205531816Y-107012818D01*
X205528728Y-107016085D01*
X205528702Y-107016060D01*
X203285954Y-109366959D01*
X203281906Y-109371241D01*
X203281847Y-109371304D01*
X203278303Y-109375120D01*
X201287150Y-111536354D01*
X201281848Y-111542180D01*
X201281777Y-111542259D01*
X201277996Y-111546505D01*
X199646528Y-113394659D01*
X199639362Y-113402918D01*
X199639252Y-113403047D01*
X199632424Y-113411191D01*
X198468728Y-114822849D01*
X198452060Y-114843959D01*
X198451803Y-114844299D01*
X198435673Y-114866625D01*
X197847838Y-115718372D01*
X197807466Y-115785297D01*
X197806898Y-115786384D01*
X197774832Y-115858219D01*
X197726907Y-115986261D01*
X197707835Y-116046011D01*
X197707583Y-116046959D01*
X197687446Y-116170511D01*
X197687384Y-116171489D01*
X197692240Y-116300121D01*
X197692384Y-116301152D01*
X197705029Y-116366551D01*
X197885859Y-117095338D01*
X197903842Y-117155128D01*
X197904170Y-117156052D01*
X197950499Y-117257453D01*
X197950874Y-117258114D01*
X197976290Y-117299206D01*
X198744158Y-118441617D01*
X198767043Y-118473501D01*
X198767415Y-118473987D01*
X198791936Y-118504080D01*
X200209660Y-120139717D01*
X200220664Y-120152084D01*
X200220843Y-120152280D01*
X200232770Y-120164987D01*
X202363168Y-122373448D01*
X202367165Y-122377554D01*
X202367220Y-122377610D01*
X202370183Y-122380607D01*
X202435330Y-122446068D01*
X202435475Y-122446214D01*
X207169267Y-127199772D01*
X207215217Y-127241624D01*
X207215973Y-127242248D01*
X207320763Y-127312561D01*
X207321627Y-127313024D01*
X207436141Y-127360710D01*
X207437078Y-127360997D01*
X207560840Y-127385846D01*
X207561826Y-127385944D01*
X207624934Y-127389072D01*
X216272142Y-127389072D01*
X219509733Y-127400135D01*
X221929475Y-127447623D01*
X223734353Y-127552051D01*
X225132707Y-127732151D01*
X226348438Y-128008603D01*
X227613975Y-128410499D01*
X228206945Y-128621770D01*
X228217177Y-128625318D01*
X228217346Y-128625375D01*
X228228709Y-128629089D01*
X231037345Y-129518131D01*
X231081468Y-129530375D01*
X231082162Y-129530541D01*
X231126599Y-129539514D01*
X233180923Y-129878883D01*
X233243255Y-129886053D01*
X233244233Y-129886117D01*
X233341274Y-129885072D01*
X233341825Y-129885024D01*
X233377570Y-129880891D01*
X234771790Y-129679728D01*
X234833587Y-129667673D01*
X234834539Y-129667438D01*
X234967388Y-129618464D01*
X234968498Y-129617908D01*
X235037039Y-129578067D01*
X235586484Y-129211219D01*
X235636547Y-129174136D01*
X235637305Y-129173515D01*
X235726195Y-129084696D01*
X235726817Y-129083938D01*
X235802445Y-128968145D01*
X235802988Y-128967076D01*
X235833719Y-128896268D01*
X236151728Y-128022206D01*
X236173588Y-127948614D01*
X236173859Y-127947449D01*
X236186644Y-127872485D01*
X236389954Y-126019795D01*
X236392140Y-125995653D01*
X236392168Y-125995261D01*
X236393492Y-125969288D01*
X236479051Y-123169191D01*
X236479278Y-123159225D01*
X236479280Y-123159091D01*
X236479346Y-123152007D01*
X236482067Y-122439954D01*
X236482072Y-122437516D01*
X236482072Y-117076542D01*
X239340938Y-114247507D01*
X241937357Y-111678181D01*
X245178358Y-114897551D01*
X245185777Y-114904801D01*
X245185881Y-114904901D01*
X245191650Y-114910380D01*
X246861423Y-116476333D01*
X246876741Y-116490238D01*
X246876980Y-116490448D01*
X246892163Y-116503375D01*
X248379341Y-117729916D01*
X248405409Y-117750303D01*
X248405830Y-117750615D01*
X248433552Y-117770042D01*
X249543355Y-118504657D01*
X249614555Y-118545458D01*
X249615713Y-118546026D01*
X249692312Y-118577606D01*
X250111004Y-118719186D01*
X250171541Y-118736381D01*
X250172496Y-118736602D01*
X250296179Y-118752711D01*
X250297159Y-118752742D01*
X250422126Y-118744397D01*
X250423093Y-118744236D01*
X250532444Y-118715892D01*
X250533185Y-118715628D01*
X250579494Y-118697059D01*
X251350659Y-118352245D01*
X251410851Y-118321404D01*
X251411768Y-118320871D01*
X251468587Y-118283665D01*
X252739150Y-117351421D01*
X252759335Y-117335983D01*
X252759655Y-117335728D01*
X252780297Y-117318557D01*
X254354256Y-115952182D01*
X254367126Y-115940700D01*
X254367306Y-115940535D01*
X254377492Y-115930991D01*
X255427923Y-114924934D01*
X255430767Y-114922193D01*
X255430833Y-114922129D01*
X255436314Y-114916750D01*
X258670854Y-111703798D01*
X261158382Y-114027235D01*
X262591415Y-115386325D01*
X263735328Y-116508979D01*
X264317361Y-117121072D01*
X264411643Y-117589563D01*
X264522454Y-119028575D01*
X264605622Y-121115820D01*
X264648603Y-123627655D01*
X264652151Y-124473378D01*
X264659636Y-131328649D01*
X260785619Y-135179944D01*
X260784290Y-135181269D01*
X260784234Y-135181325D01*
X260778451Y-135187183D01*
X258749577Y-137269095D01*
X258729965Y-137290149D01*
X258729673Y-137290477D01*
X258711943Y-137311273D01*
X257412704Y-138903003D01*
X257366391Y-138967567D01*
X257365729Y-138968623D01*
X257327643Y-139038776D01*
X256729578Y-140326563D01*
X256706088Y-140384391D01*
X256705764Y-140385316D01*
X256676149Y-140507104D01*
X256676012Y-140508075D01*
X256669795Y-140604469D01*
X256669801Y-140604997D01*
X256671055Y-140638371D01*
X256745702Y-141808453D01*
X256752741Y-141870617D01*
X256752899Y-141871585D01*
X256793306Y-142013389D01*
X256793814Y-142014613D01*
X256831290Y-142090320D01*
X257550189Y-143328937D01*
X257585469Y-143383186D01*
X257586065Y-143384008D01*
X257626885Y-143434657D01*
X258961575Y-144928048D01*
X258972441Y-144939902D01*
X258972598Y-144940069D01*
X258981717Y-144949571D01*
X259365306Y-145341077D01*
X259365330Y-145341053D01*
X259367093Y-145342894D01*
X260935401Y-146930928D01*
X201277543Y-146930928D01*
X198448508Y-144072062D01*
X195879182Y-141475643D01*
X196867089Y-140481098D01*
X250980000Y-140481098D01*
X250980000Y-140950902D01*
X251071654Y-141411679D01*
X251251440Y-141845721D01*
X251512450Y-142236349D01*
X251844651Y-142568550D01*
X252235279Y-142829560D01*
X252669321Y-143009346D01*
X253130098Y-143101000D01*
X253599902Y-143101000D01*
X254060679Y-143009346D01*
X254494721Y-142829560D01*
X254885349Y-142568550D01*
X255217550Y-142236349D01*
X255478560Y-141845721D01*
X255658346Y-141411679D01*
X255750000Y-140950902D01*
X255750000Y-140481098D01*
X255658346Y-140020321D01*
X255478560Y-139586279D01*
X255217550Y-139195651D01*
X254885349Y-138863450D01*
X254494721Y-138602440D01*
X254060679Y-138422654D01*
X253599902Y-138331000D01*
X253130098Y-138331000D01*
X252669321Y-138422654D01*
X252235279Y-138602440D01*
X251844651Y-138863450D01*
X251512450Y-139195651D01*
X251251440Y-139586279D01*
X251071654Y-140020321D01*
X250980000Y-140481098D01*
X196867089Y-140481098D01*
X199098552Y-138234642D01*
X199105802Y-138227223D01*
X199105902Y-138227119D01*
X199111393Y-138221337D01*
X200693167Y-136534602D01*
X200706586Y-136519837D01*
X200706800Y-136519594D01*
X200720607Y-136503378D01*
X201949271Y-135010583D01*
X201970443Y-134983396D01*
X201970764Y-134982960D01*
X201990580Y-134954451D01*
X202716625Y-133846791D01*
X202757979Y-133773599D01*
X202758550Y-133772412D01*
X202790037Y-133694069D01*
X202922242Y-133289643D01*
X202938860Y-133228767D01*
X202939071Y-133227810D01*
X202953890Y-133104097D01*
X202953911Y-133103117D01*
X202944400Y-132978856D01*
X202944230Y-132977890D01*
X202909763Y-132855325D01*
X202909394Y-132854385D01*
X202882760Y-132795494D01*
X202521223Y-132093192D01*
X202490274Y-132039626D01*
X202489754Y-132038819D01*
X202454454Y-131989375D01*
X201412524Y-130667859D01*
X201401459Y-130654216D01*
X201401273Y-130653993D01*
X201388502Y-130639150D01*
X199730203Y-128770656D01*
X199722635Y-128762279D01*
X199722532Y-128762167D01*
X199716996Y-128756225D01*
X197506353Y-126412988D01*
X197502777Y-126409228D01*
X197502707Y-126409155D01*
X197497337Y-126403622D01*
X194895459Y-123755053D01*
X194891766Y-123751326D01*
X194891767Y-123751325D01*
X187471913Y-116320583D01*
X194637055Y-109167385D01*
X194637941Y-109166499D01*
X197451292Y-106346855D01*
X197457374Y-106340676D01*
X197457441Y-106340607D01*
X197459902Y-106338058D01*
X199593548Y-104116162D01*
X199605451Y-104103423D01*
X199605651Y-104103203D01*
X199619172Y-104087842D01*
X201108687Y-102339897D01*
X201137207Y-102303879D01*
X201137631Y-102303302D01*
X201163261Y-102265680D01*
X202044220Y-100867888D01*
X202074993Y-100813290D01*
X202075432Y-100812413D01*
X202112145Y-100722585D01*
X202112312Y-100722067D01*
X202122122Y-100688519D01*
X202430099Y-99517082D01*
X202443027Y-99455830D01*
X202443182Y-99454863D01*
X202449418Y-99305909D01*
X202449316Y-99304556D01*
X202436912Y-99218615D01*
X202207483Y-98149734D01*
X202191314Y-98089102D01*
X202191015Y-98088168D01*
X202143322Y-97976872D01*
X202142884Y-97976070D01*
X202112777Y-97926450D01*
X201381515Y-96836326D01*
X201347776Y-96790575D01*
X201347214Y-96789880D01*
X201309172Y-96746937D01*
X200111653Y-95511774D01*
X200100027Y-95500088D01*
X200099832Y-95499897D01*
X200086570Y-95487276D01*
X198662451Y-94170266D01*
X198662440Y-94170277D01*
X198660113Y-94168113D01*
X195574668Y-91342894D01*
X197720815Y-89162628D01*
X198991015Y-87911541D01*
X199934709Y-87053682D01*
X199974061Y-87025575D01*
X200003134Y-87053164D01*
G37*
G04 #@! TD.AperFunction*
G04 #@! TD*
M02*
